<svg version="1.1" id="Layer_1" xmlns="http://www.w3.org/2000/svg" xmlns:xlink="http://www.w3.org/1999/xlink" x="0px" y="0px" viewBox="0 0 200 200" enable-background="new 0 0 200 200" xml:space="preserve" preserveAspectRatio="xMidYMid">
<path fill="#FFFFFF" d="M0,17.262c0.14,0.043,14.876,6.404,31.927,15.67c0,0,0.276-0.528,0.561-1.04
	c-0.285,0.512-0.561,1.04-0.561,1.04c12.969,6.866,27.732,15.713,34.395,19.758c-16.098,0.262-28.564,3.293-28.712,3.324
	l-3.697,0.919l3.569,1.352C61.45,67.367,79.07,78.955,83.607,82.082c-22.31,20.888-33.818,37.844-33.931,38.028l-1.103,1.642
	l1.97,0.187c30.629,3.144,49.486,7.537,57.107,9.546c-6.146,2.221-10.689,5.667-10.913,5.834l-3.278,2.517l4.111-0.366
	c5.272-0.488,22.971,1.213,41.85,7.504c16.727,5.588,23.416,11.313,24.185,14.144c0.068,0.265,0.095,0.486,0.068,0.704
	c-0.173,1.401-3.926,2.11-6.568,2.083l-4.324-0.045l3.694,2.262c10.209,6.215,25.17,8.659,35.57,0.095
	c6.056-5.056,9.707-14.286,7.104-23.997c-0.608-2.26-1.556-4.546-2.891-6.82c-0.016-0.054-1.604-4.948-1.604-4.948
	c-4.737-15.871-14.644-48.93-81.84-85.665C58.437,17.792,2.043,16.883,0,17.262"/>
<path fill="#0D2240" d="M32.49,31.892C16.021,23.154,2.504,17.837,2.504,17.837s55.022,0.841,109.776,28.017
	c75.307,41.14,78.222,77.872,82.872,89.988c6.646,11.136,3.476,23.319-3.855,29.474c-10.022,8.232-24.425,5.727-34.192-0.227
	c0,0,7.361,0.084,7.758-3.131c0.39-3.327-6.183-9.821-25.07-16.113c-19.079-6.366-36.973-8.064-42.334-7.572
	c0,0,6.551-5.015,14.452-6.809c0,0-19.724-6.456-61.231-10.705c0,0,11.613-17.298,34.819-38.827c0,0-19.276-14.028-47.58-24.76
	c0,0,14.468-3.6,32.641-3.301C70.559,53.872,50.013,41.165,32.49,31.892"/>
<path fill="#FFFFFF" d="M144.491,117.292c1.242-3.579,5.943-3.373,5.943-3.373c4.353,10.2,8.33,13.793,8.33,13.793
	c-4.588-1.578-11.377-3.675-11.377-3.675S143.291,120.774,144.491,117.292"/>
<path fill="#E03A3E" d="M188.784,137.959c0,0-12.543-1.299-21.359-10.007c-9.507-9.369-6.76-21.061-30.361-38.874
	c0,0-12.334,3.85-16.774,12.061c0,0,13.087-7.315,24.696,4.68c-4.287-0.634-11.271-0.922-14.094,3.068
	c-3.777,6.421,1.253,11.402,1.253,11.402s-12.029-2.597-31.236-5.102c-13.125-1.758-29.268-2.44-29.268-2.44
	s15.426-19.521,34.474-31.029C91.449,71,76.276,63.822,76.276,63.822c17.56,0.574,32.531,7.477,42.724,12.263
	c-4.729-4.101-24.322-25.075-72.797-44.499c0,0,29.22,5.154,63.354,22.835c28.804,15.627,46.069,31.296,54.322,41.589
	C185.074,123.613,176.729,130.239,188.784,137.959"/>
<path fill="#B3B2B1" d="M181.943,148.063c-1.343-0.44-2.376-1.33-3.476-2.681c-1.1-1.361,0.904-1.78,2.176-1.033
	c0,0,1.525,0.943,2.468,2.192C184.058,147.771,183.28,148.514,181.943,148.063 M189.677,144.662c0,0-3.908-1.086-8.73-2.731
	c-4.914-1.661-12.019-0.03-12.019-0.03c-15.568-9.343-28.167-11.488-28.167-11.488s7.753,3.71,14.484,8.904
	c6.441,4.991,7.589,8.543,7.589,8.543c5.889,3.91,9.227,6.647,12.187,9.754c2.899,3.012-1.408,5.253-1.408,5.253
	c3.049,0.068,9.733,0.792,14.091-5.204C192.318,151.285,189.677,144.662,189.677,144.662"/>
</svg>
