<svg version="1.1" id="Layer_1" xmlns="http://www.w3.org/2000/svg" xmlns:xlink="http://www.w3.org/1999/xlink" x="0px" y="0px" viewBox="0 0 200 200" enable-background="new 0 0 200 200" xml:space="preserve" preserveAspectRatio="xMidYMid">
<g>
	<path fill="#FFFFFF" d="M10.344,94.228c0,23.878,9.298,46.336,26.182,63.218c8.255,8.251,17.84,14.685,28.253,19.1
		c-0.575,4.736,0.198,7.932,1.042,9.25c-1.313,1.118-1.854,1.798-2.068,3.038c-2.068,2.835,2.967,6.435,5.054,8.032
		c4.241,3.257,6.491,2.698,9.798,2.559c4.101-0.182,7.95-4.977,10.16-8.095c4.425-0.618,5.253,0.061,5.397,0.62
		c1.385-0.201,3.309-0.559,5.934-1.658c5.989-2.516,4.297-5.594,3.67-6.153c-0.163-0.139-0.288-0.34-0.415-0.578
		c14.17-0.561,27.765-4.396,39.888-11.169c0.412,0.478,0.863,1.018,1.292,1.658c1.313,1.938,2.014,8.232,2.285,11.47
		c0.269,3.255,0.828,5.471,2.428,10.588c1.582,5.097,2.212,1.38,2.266,0c0.073-1.399,0.361-6.373,0.144-9.951
		c-0.199-3.594-0.269-8.79,0.412-10.986c0.701-2.22-0.557-2.778-0.898-3.199c-0.342-0.401,0-0.538-0.901-3.377
		c-0.052-0.16-0.09-0.319-0.123-0.5c4.547-3.115,8.844-6.672,12.84-10.647c16.884-16.882,26.18-39.34,26.18-63.218"/>
	<path fill="#FFFFFF" d="M189.164,94.228c0-23.873-9.295-46.331-26.18-63.214C148.399,16.43,129.661,7.5,109.431,5.34
		c-0.469-0.457-0.991-0.899-1.584-1.278C100.691-0.533,94.7,2.882,90.565,4.882c-0.288,0.161-0.648,0.318-1.043,0.519
		C81.737,6.3,74.237,8.198,67.187,10.977c-0.844-1.26-1.799-2.439-2.894-3.519c-4.316-4.316-10.052-6.694-16.168-6.694
		c-12.625,0-22.876,10.25-22.876,22.859c0,5.293,1.783,10.307,5.055,14.364C17.842,53.35,10.344,72.931,10.344,94.228"/>
	<path fill="none" stroke="#FFFFFF" stroke-width="0.4238" d="M10.344,94.228c0,23.878,9.298,46.336,26.182,63.218
		c8.255,8.251,17.84,14.685,28.253,19.1c-0.575,4.736,0.198,7.932,1.042,9.25c-1.313,1.118-1.854,1.798-2.068,3.038
		c-2.068,2.835,2.967,6.435,5.054,8.032c4.241,3.257,6.491,2.698,9.798,2.559c4.101-0.182,7.95-4.977,10.16-8.095
		c4.425-0.618,5.253,0.061,5.397,0.62c1.385-0.201,3.309-0.559,5.934-1.658c5.989-2.516,4.297-5.594,3.67-6.153
		c-0.163-0.139-0.288-0.34-0.415-0.578c14.17-0.561,27.765-4.396,39.888-11.169c0.412,0.478,0.863,1.018,1.292,1.658
		c1.313,1.938,2.014,8.232,2.285,11.47c0.269,3.255,0.828,5.471,2.428,10.588c1.582,5.097,2.212,1.38,2.266,0
		c0.073-1.399,0.361-6.373,0.144-9.951c-0.199-3.594-0.269-8.79,0.412-10.986c0.701-2.22-0.557-2.778-0.898-3.199
		c-0.342-0.401,0-0.538-0.901-3.377c-0.052-0.16-0.09-0.319-0.123-0.5c4.547-3.115,8.844-6.672,12.84-10.647
		c16.884-16.882,26.18-39.34,26.18-63.218c0-23.873-9.295-46.331-26.18-63.214C148.399,16.43,129.661,7.5,109.431,5.34
		c-0.469-0.457-0.991-0.899-1.584-1.278C100.691-0.533,94.7,2.882,90.565,4.882c-0.288,0.161-0.648,0.318-1.043,0.519
		C81.737,6.3,74.237,8.198,67.187,10.977c-0.844-1.26-1.799-2.439-2.894-3.519c-4.316-4.316-10.052-6.694-16.168-6.694
		c-12.625,0-22.876,10.25-22.876,22.859c0,5.293,1.783,10.307,5.055,14.364C17.842,53.35,10.344,72.931,10.344,94.228"/>
	<path fill="#231F20" d="M10.344,94.228c0,23.878,9.298,46.336,26.182,63.218c8.255,8.251,17.84,14.685,28.253,19.1
		c-0.575,4.736,0.198,7.932,1.042,9.25c-1.313,1.118-1.854,1.798-2.068,3.038c-2.068,2.835,2.967,6.435,5.054,8.032
		c4.241,3.257,6.491,2.698,9.798,2.559c4.101-0.182,7.95-4.977,10.16-8.095c4.425-0.618,5.253,0.061,5.397,0.62
		c1.385-0.201,3.309-0.559,5.934-1.658c5.989-2.516,4.297-5.594,3.67-6.153c-0.163-0.139-0.288-0.34-0.415-0.578
		c14.17-0.561,27.765-4.396,39.888-11.169c0.412,0.478,0.863,1.018,1.292,1.658c1.313,1.938,2.014,8.232,2.285,11.47
		c0.269,3.255,0.828,5.471,2.428,10.588c1.582,5.097,2.212,1.38,2.266,0c0.073-1.399,0.361-6.373,0.144-9.951
		c-0.199-3.594-0.269-8.79,0.412-10.986c0.701-2.22-0.557-2.778-0.898-3.199c-0.342-0.401,0-0.538-0.901-3.377
		c-0.052-0.16-0.09-0.319-0.123-0.5c4.547-3.115,8.844-6.672,12.84-10.647c16.884-16.882,26.18-39.34,26.18-63.218"/>
	<path fill="#231F20" d="M189.164,94.228c0-23.873-9.295-46.331-26.18-63.214C148.399,16.43,129.661,7.5,109.431,5.34
		c-0.469-0.457-0.991-0.899-1.584-1.278C100.691-0.533,94.7,2.882,90.565,4.882c-0.288,0.161-0.648,0.318-1.043,0.519
		C81.737,6.3,74.237,8.198,67.187,10.977c-0.844-1.26-1.799-2.439-2.894-3.519c-4.316-4.316-10.052-6.694-16.168-6.694
		c-12.625,0-22.876,10.25-22.876,22.859c0,5.293,1.783,10.307,5.055,14.364C17.842,53.35,10.344,72.931,10.344,94.228"/>
	<path fill="#008248" d="M78.606,177.645c3.33-0.141,7.95-1.18,10.054-2.079c0.287,0.081,0.738,0.362,1.42,0.621
		c0.288-2.198-1.132-6.795-1.923-8.91c-0.542-1.401-1.045-2.341-1.674-3.797c-1.851-0.34-4.17-1.34-5.826-2.038
		c0,1.319,0.234,4.736,0.521,7.012c-0.7,0.08-1.672,0.139-2.842,0.139C78.483,171.093,78.752,175.567,78.606,177.645"/>
	<path fill="none" stroke="#008248" stroke-width="0.102" d="M78.606,177.645c3.33-0.141,7.95-1.18,10.054-2.079
		c0.287,0.081,0.738,0.362,1.42,0.621c0.288-2.198-1.132-6.795-1.923-8.91c-0.542-1.401-1.045-2.341-1.674-3.797
		c-1.851-0.34-4.17-1.34-5.826-2.038c0,1.319,0.234,4.736,0.521,7.012c-0.7,0.08-1.672,0.139-2.842,0.139
		C78.483,171.093,78.752,175.567,78.606,177.645z"/>
	<path fill="#008248" d="M141.151,170.313c-0.629-0.62,0.757-2.538,1.385-6.135c0.613-3.594,0.684-9.608-1.943-13.004
		c-1.274-1.639-1.887-2.68-2.104-3.418c-8.179,5.955-17.566,9.909-27.529,11.587c-0.127,0.222-0.236,0.402-0.361,0.54
		c-1.439,1.877-4.281,4.554-6.347,5.674c-2.071,1.097-4.498,1.936-5.812,2.338c-0.269,2.217-0.627,7.151-0.071,8.849
		c0.217,0.62,2.769,2.14,3.669,3.797c0.09,0.179,0.18,0.34,0.251,0.519c14.099-0.419,27.371-4.193,39.043-10.569
		C141.26,170.433,141.206,170.371,141.151,170.313"/>
	<path fill="none" stroke="#008248" stroke-width="0.102" d="M141.151,170.313c-0.629-0.62,0.757-2.538,1.385-6.135
		c0.613-3.594,0.684-9.608-1.943-13.004c-1.274-1.639-1.887-2.68-2.104-3.418c-8.179,5.955-17.566,9.909-27.529,11.587
		c-0.127,0.222-0.236,0.402-0.361,0.54c-1.439,1.877-4.281,4.554-6.347,5.674c-2.071,1.097-4.498,1.936-5.812,2.338
		c-0.269,2.217-0.627,7.151-0.071,8.849c0.217,0.62,2.769,2.14,3.669,3.797c0.09,0.179,0.18,0.34,0.251,0.519
		c14.099-0.419,27.371-4.193,39.043-10.569C141.26,170.433,141.206,170.371,141.151,170.313z"/>
	<path fill="#008248" d="M161.185,32.793c-13.63-13.628-30.984-22.156-49.758-24.656c1.509,2.976,1.742,6.394,1.868,8.571
		c2.698-1.177,4.767-1.797,5.882-3.594c1.098-1.797,2.625-1.458,3.595-0.141c0.972,1.321,0.972,2.976-1.599,4.557
		c-2.552,1.599-4.424,2.359-4.962,2.637c-0.557,0.278-0.074,0.759,0.538,1.797c0.632,1.04,2.212,3.597,2.5,8.972
		c0,0.062,0,0.12,0,0.16c10.161,3.137,19.477,8.71,27.209,16.444c12.462,12.467,19.331,29.048,19.331,46.69
		c0,10.151-2.264,19.92-6.562,28.793c0.575,0.3,1.349,2.297,1.618,4.934c0.144,1.378,0.071,2.918-0.342,3.877
		c-0.412,0.958-3.668,5.854-5.323,7.331c-0.628,0.54-2.066,0.481-2.699-0.42c-0.608-0.898-0.682-0.42-1.167,0.061
		c-0.486,0.501-2.139,2.915-2.554,3.538c-0.413,0.618-1.797,1.236-0.899,3.715c0.899,2.497,1.924,4.357,1.583,5.753
		c-0.342,1.379-0.486,1.778,1.384,3.377c1.87,1.599,1.8,3.516,0.972,4.776c-0.521,0.778-1.349,2.856-1.653,4.993
		c22.062-15.763,36.487-41.596,36.487-70.728C186.631,71.013,177.584,49.216,161.185,32.793"/>
	<path fill="none" stroke="#008248" stroke-width="0.102" d="M161.185,32.793c-13.63-13.628-30.984-22.156-49.758-24.656
		c1.509,2.976,1.742,6.394,1.868,8.571c2.698-1.177,4.767-1.797,5.882-3.594c1.098-1.797,2.625-1.458,3.595-0.141
		c0.972,1.321,0.972,2.976-1.599,4.557c-2.552,1.599-4.424,2.359-4.962,2.637c-0.557,0.278-0.074,0.759,0.538,1.797
		c0.632,1.04,2.212,3.597,2.5,8.972c0,0.062,0,0.12,0,0.16c10.161,3.137,19.477,8.71,27.209,16.444
		c12.462,12.467,19.331,29.048,19.331,46.69c0,10.151-2.264,19.92-6.562,28.793c0.575,0.3,1.349,2.297,1.618,4.934
		c0.144,1.378,0.071,2.918-0.342,3.877c-0.412,0.958-3.668,5.854-5.323,7.331c-0.628,0.54-2.066,0.481-2.699-0.42
		c-0.608-0.898-0.682-0.42-1.167,0.061c-0.486,0.501-2.139,2.915-2.554,3.538c-0.413,0.618-1.797,1.236-0.899,3.715
		c0.899,2.497,1.924,4.357,1.583,5.753c-0.342,1.379-0.486,1.778,1.384,3.377c1.87,1.599,1.8,3.516,0.972,4.776
		c-0.521,0.778-1.349,2.856-1.653,4.993c22.062-15.763,36.487-41.596,36.487-70.728C186.631,71.013,177.584,49.216,161.185,32.793z"
		/>
	<path fill="#008248" d="M61.397,158.365c-0.233-2.338-0.594-6.574,1.043-9.591c-3.326-2.297-6.491-4.894-9.406-7.833
		c-12.479-12.467-19.35-29.05-19.35-46.713c0-18.878,7.967-35.942,20.737-47.989c0.108-0.259,0.269-0.5,0.448-0.738
		c-2.156,0.658-4.425,0.998-6.743,0.998c-6.097,0-11.814-2.356-16.13-6.653C19.604,55.23,12.88,74.209,12.88,94.228
		c0,23.199,9.045,45.015,25.446,61.419c7.858,7.873,16.977,14.045,26.883,18.321c0.377-1.837,0.953-3.856,1.799-6.073
		c0.755-1.998-0.413-6.633-2.356-9.052C63.61,158.583,62.296,158.444,61.397,158.365"/>
	<path fill="none" stroke="#008248" stroke-width="0.102" d="M61.397,158.365c-0.233-2.338-0.594-6.574,1.043-9.591
		c-3.326-2.297-6.491-4.894-9.406-7.833c-12.479-12.467-19.35-29.05-19.35-46.713c0-18.878,7.967-35.942,20.737-47.989
		c0.108-0.259,0.269-0.5,0.448-0.738c-2.156,0.658-4.425,0.998-6.743,0.998c-6.097,0-11.814-2.356-16.13-6.653
		C19.604,55.23,12.88,74.209,12.88,94.228c0,23.199,9.045,45.015,25.446,61.419c7.858,7.873,16.977,14.045,26.883,18.321
		c0.377-1.837,0.953-3.856,1.799-6.073c0.755-1.998-0.413-6.633-2.356-9.052C63.61,158.583,62.296,158.444,61.397,158.365z"/>
	<path fill="#008248" d="M84.433,8.698c-5.484,0.958-10.826,2.458-15.97,4.453c1.656,3.198,2.538,6.774,2.538,10.472
		c0,4.934-1.547,9.609-4.406,13.505c4.783-2.778,9.944-4.995,15.373-6.514c0.361-0.34,0.722-0.679,1.062-0.976
		c-1.995-3.318-4.694-8.651-2.338-15.826C81.341,11.774,82.799,10.076,84.433,8.698"/>
	<path fill="none" stroke="#008248" stroke-width="0.102" d="M84.433,8.698c-5.484,0.958-10.826,2.458-15.97,4.453
		c1.656,3.198,2.538,6.774,2.538,10.472c0,4.934-1.547,9.609-4.406,13.505c4.783-2.778,9.944-4.995,15.373-6.514
		c0.361-0.34,0.722-0.679,1.062-0.976c-1.995-3.318-4.694-8.651-2.338-15.826C81.341,11.774,82.799,10.076,84.433,8.698z"/>
	<path fill="#FFFFFF" d="M119.177,34.871c1.941,0.979,4.1,3.078,3.255,6.993c-0.359,1.578-1.691,3.116-1.797,3.736
		c-0.217,1.038-2.392,2.797-3.075,4.175c-0.685,1.359-0.793,2.538-0.595,3.118c0,0.019,0,0.019,0,0.019
		c1.097,1.04,3.597,2.42,4.981,2.896c1.081,0.382,0.991,0.679,0.538,1.401c0.774,0.059,1.151,0.538,1.873,1.377
		c0.755,0.901,2.769,0.34,4.01-0.278c1.241-0.62,2.84-0.84,4.082,0.698c1.241,1.519,3.111,4.335,4.009,6.972
		c0.899,2.618,1.852,4.776,2.14,5.175c0.269,0.42-0.972,8.033-1.312,11.071c-0.342,3.036-0.629,4.354-0.703,4.835
		c-0.052,0.479,1.943-1.741,2.015,0.899c0.054,2.097,1.026,8.809,2.16,13.786c0.288,1.259,0.575,2.417,0.88,3.356
		c0.828,0.12,1.512,1.778,1.996,4.336c0.486,2.559,1.531,4.155,1.602,5.393c0.052,1.241,0.412,1.46,0.825,1.661
		c0.415,0.219,0.272,0.839-0.969,2.278c0.269,0.217,0.682,0.618,0.969,0.896c0.345-0.34,1.314-1.439,1.314-1.439
		s3.795,1.519,4.62,1.8c0.831,0.26,1.819-1.779,4.283-0.701c0.682,0.302,1.439,1.241,1.957,2.161
		c3.869-8.294,6.043-17.524,6.043-27.256c0-17.222-6.708-33.425-18.899-45.612c-7.446-7.453-16.382-12.847-26.13-15.922
		C119.229,33.652,119.177,34.55,119.177,34.871"/>
	<path fill="#FFFFFF" d="M139.153,143.579c-0.969-0.479-1.599,0.222-2.085-3.594c-0.125-1.1-1.024-2.557-1.726-3.236
		c-0.684-0.701-0.774-2.001-0.413-3.118c0.559-1.739,0.701-3.316,0.63-4.696c-0.071-1.38,0.198-3.116,2.139-3.937
		c-0.7-0.759-1.042-1.735-1.241-2.495c-2.842-0.94-3.398-1.018-3.974-2.377c-0.972-2.3-1.565-5.675-1.853-7.496
		c-0.142-0.896-0.231-1.736-0.269-2.495c-0.899-1.72-2.913-5.536-4.477-8.392c-0.576-1.08-1.08-2.019-1.458-2.659
		c-1.385-2.417,0-5.613,0.684-7.471c0.703-1.859,1.26-3.517,0.63-5.394c-0.63-1.858-0.63-2.278-0.757-3.038
		c-0.141-0.759-0.774-1.717-1.599,0.901c-0.828,2.637-2.41,6.491-3.309,10.507c-0.502,2.279-0.863,4.757-0.754,7.154
		c0.089,1.818,0.467,3.594,1.24,5.214c1.8,3.736,3.936,7.191,3.649,9.251c-0.269,2.078-0.717,2.158-0.755,2.498
		c-0.34,3.996-2.066,11.668-2.967,13.887c-0.899,2.217-4.424,10.226-5.179,13.604c-0.592,2.599-2.174,8.151-3.543,11.448
		c10.341-1.957,19.82-6.373,27.784-12.647C139.786,144.418,139.748,143.881,139.153,143.579"/>
	<path fill="#FFFFFF" d="M62.35,52.893c0.755,1,1.764,1.918,3.057,2.576c3.401,1.74,4.082,2.979,4.082,5.955
		c0,2.958,0.559,9.05,1.528,10.09c0.611-0.639,1.314-1.519,1.439-1.799c0.972,1.799,2.913,5.116,6.026,7.174
		c0.196,0.139,0.106,0.898,0.609,1.038c1.045,0.281,7.752,1.321,7.948,2.698c1.387-1.377,3.599-4.835,4.012-6.014
		c0.413-1.179,2.842-4.896,4.62-6.972c0-0.84,0-1.321,0.073-1.519c-0.486,0.419-1.241,1.439-2.337,1.939
		c-1.115,0.479-4.981,2.137-7.75,3.514c-0.972,0.482-2.698,1.041-3.383-4.014c-0.684-5.035,0-7.653,0.486-8.83
		c0.486-1.179,1.385-2.219,3.111-1.741c1.726,0.481,4.495,1.519,5.252,1.519c0.142-0.538,0.609-1.578-1.24-1.797
		c-1.333-0.142-4.802-1.118-6.764-3.816c-0.79-1.059-1.331-2.439-1.401-4.115c-3.939,0.62-12.984,1.797-14.999,2.276
		c-1.997,0.481-3.705,0.901-4.351-3.656c-0.269-1.939-0.755-4.635,0.627-3.675c1.099-0.821,2.627-1.799,5.325-1.38
		c0.486,0.08,1.094,0.5,1.293,0.88c0.146,0.66-0.142,1.757-0.467,2.776c-0.595,1.859-1.762,3.177,1.995,2.319
		c3.958-0.899,8.958-1.658,10.269-1.939c0.179-1.34,1.278-3.415,2.59-4.934c1.311-1.519,1.528-2.757,1.582-3.236
		c0.073-0.5-0.377-0.599-1.026,0c-0.755,0.679-3.037,2.057-5.179,1.519c-0.825-0.222-1.868-1.799-2.424-2.698
		c0.448-0.96,1.599-2.599,3-4.255c-7.354,2.377-14.241,6.052-20.354,10.927c-0.038,0.781,0.052,2.559,0.557,4.517
		C60.499,49.534,61.128,51.313,62.35,52.893"/>
	<path fill="#FFFFFF" d="M67.133,147.314c2.842-1.117,5.071-1.056,7.264,1.859c0.632,0.84,1.099,3.258,6.42,1.098
		c-2.82-3.376-4.53-7.391-6.075-12.766c-2.448-8.513-7.986-18.183-5.934-22.597c-1.189-1.118-2.573-5.395-4.012-4.915
		c-0.969,0.321-2.356,0.339-1.241-2.897c0.486-1.458,1.314-3.236,2.861-5.354c1.887-2.599,4.89-5.715,9.708-9.43
		c0.415-0.361,0.486-0.62,0.217-0.901c-0.486-0.5-0.972-1.038-1.458-1.319c-0.486-0.281-0.972-0.139-1.382,0.281
		c-0.415,0.42-1.118,0.899-1.531,1.18c-0.413,0.26-3.722-2.977-5.448-5.335c-1.726-2.339-3.526-3.099-4.082-3.377
		c0.703-0.76,2.25-2.418,1.656-2.217c-1.026,0.34-2.842,0.58-4.693-1.377c-2.283-2.42-1.387-3.659-1.872-4.019
		c-0.484-0.34-2.967,0.222-4.835-2.696c-1.853-2.899-2.608-4.156-1.099-6.215c0.757-1.038,1.045-1.519,0.83-2.835
		c-0.217-1.3,0-2.14,1.727-3.797c1.724-1.658,2.769-3.177,3.524-3.038c0.611,0.101-1.151-2.076-2.194-3.755
		c-0.288-0.439-0.505-0.839-0.649-1.16c-0.271-0.658-0.7-1.816-0.79-3.057c-12.156,12.189-18.83,28.373-18.83,45.553
		c0,17.246,6.708,33.449,18.901,45.636c2.859,2.875,5.934,5.413,9.189,7.653C64.723,145.978,66.416,146.576,67.133,147.314"/>
	<path fill="#A63732" d="M30.413,11.014c5.682,1.458,9.927,6.033,11.779,8.592c0.486,0.658,0.969,0.559,1.186,0.08
		c0.432-1.04,1.241-4.356,1.241-6.913c0-5.816,0.793-8.113,2.25-10.809C40.088,2.344,34.135,5.821,30.413,11.014"/>
	<path fill="none" stroke="#A63732" stroke-width="0.102" d="M30.413,11.014c5.682,1.458,9.927,6.033,11.779,8.592
		c0.486,0.658,0.969,0.559,1.186,0.08c0.432-1.04,1.241-4.356,1.241-6.913c0-5.816,0.793-8.113,2.25-10.809
		C40.088,2.344,34.135,5.821,30.413,11.014z"/>
	<path fill="#A63732" d="M26.995,28.798c10.647,0.976,13.956-4.977,14.637-5.875c0.703-0.899-0.125-1.439-0.467-1.936
		c-1.851-2.58-5.969-7.135-11.635-8.573c-1.979,3.276-3.146,7.092-3.146,11.21C26.385,25.42,26.599,27.137,26.995,28.798"/>
	<path fill="none" stroke="#A63732" stroke-width="0.102" d="M26.995,28.798c10.647,0.976,13.956-4.977,14.637-5.875
		c0.703-0.899-0.125-1.439-0.467-1.936c-1.851-2.58-5.969-7.135-11.635-8.573c-1.979,3.276-3.146,7.092-3.146,11.21
		C26.385,25.42,26.599,27.137,26.995,28.798z"/>
	<path fill="#A63732" d="M69.218,28.378c-4.496-1.858-9.816-0.141-13.611,3.196c-3.814,3.297-5.738,5.854-7.05,13.726
		c-0.16,0-0.323,0.019-0.486,0.019c-5.627,0-10.755-2.158-14.602-5.673c6.493-1.66,11.976-4.636,18.126-10.429
		c6.151-5.816,9.191-12.59,10.019-15.765c0.826-3.177-0.344-1.3-0.971,0.139c-0.953,2.257-4.137,8.29-10.43,14.165
		c-6.295,5.875-11.132,8.771-17.696,10.988c-2.177-2.257-3.866-4.974-4.927-8.01c2.212,0.137,9.189-0.66,12.677-3.519
		c4.587-3.773,5.106-8.231,5.738-14.585c0.609-6.354,1.545-8.25,3.073-10.668c11.51,0.519,20.682,10.031,20.682,21.658
		C69.761,25.26,69.563,26.859,69.218,28.378"/>
	<path fill="none" stroke="#A63732" stroke-width="0.102" d="M69.218,28.378c-4.496-1.858-9.816-0.141-13.611,3.196
		c-3.814,3.297-5.738,5.854-7.05,13.726c-0.16,0-0.323,0.019-0.486,0.019c-5.627,0-10.755-2.158-14.602-5.673
		c6.493-1.66,11.976-4.636,18.126-10.429c6.151-5.816,9.191-12.59,10.019-15.765c0.826-3.177-0.344-1.3-0.971,0.139
		c-0.953,2.257-4.137,8.29-10.43,14.165c-6.295,5.875-11.132,8.771-17.696,10.988c-2.177-2.257-3.866-4.974-4.927-8.01
		c2.212,0.137,9.189-0.66,12.677-3.519c4.587-3.773,5.106-8.231,5.738-14.585c0.609-6.354,1.545-8.25,3.073-10.668
		c11.51,0.519,20.682,10.031,20.682,21.658C69.761,25.26,69.563,26.859,69.218,28.378z"/>
	<path fill="#A63732" d="M68.626,30.555c-1.043-1.439-4.729-2.139-10.611,1.519c-0.557,0.361-0.934,0.599-0.269,1.257
		c1.241,1.241,3.113,3.6,4.425,6.774C65.1,37.588,67.369,34.312,68.626,30.555"/>
	<path fill="none" stroke="#A63732" stroke-width="0.102" d="M68.626,30.555c-1.043-1.439-4.729-2.139-10.611,1.519
		c-0.557,0.361-0.934,0.599-0.269,1.257c1.241,1.241,3.113,3.6,4.425,6.774C65.1,37.588,67.369,34.312,68.626,30.555z"/>
	<path fill="#A63732" d="M60.444,41.444c-1.26-3.038-2.283-5.255-3.453-6.774c-0.647-0.819-0.774-1.179-1.944-0.139
		c-3.271,2.875-4.531,7.253-5.212,10.71C53.756,44.921,57.388,43.562,60.444,41.444"/>
	<path fill="none" stroke="#A63732" stroke-width="0.102" d="M60.444,41.444c-1.26-3.038-2.283-5.255-3.453-6.774
		c-0.647-0.819-0.774-1.179-1.944-0.139c-3.271,2.875-4.531,7.253-5.212,10.71C53.756,44.921,57.388,43.562,60.444,41.444z"/>
	<path fill="#BA9753" d="M87.077,177.365c0.448-0.2,1.08-0.478,1.349-0.28c0.268,0.222,1.941,1.401,2.967,2.299
		c1.042,0.879,1.385,1.158,0.557,1.658c-0.826,0.479-1.582,0.957-1.457,0.538c0.146-0.418,0.344-1.038-0.199-1.576
		c-0.557-0.561-1.906-1.599-2.498-2.081C87.419,177.605,87.077,177.365,87.077,177.365"/>
	<path fill="none" stroke="#231F20" stroke-width="0.102" d="M87.077,177.365c0.448-0.2,1.08-0.478,1.349-0.28
		c0.268,0.222,1.941,1.401,2.967,2.299c1.042,0.879,1.385,1.158,0.557,1.658c-0.826,0.479-1.582,0.957-1.457,0.538
		c0.146-0.418,0.344-1.038-0.199-1.576c-0.557-0.561-1.906-1.599-2.498-2.081C87.419,177.605,87.077,177.365,87.077,177.365z"/>
	<path fill="#BA9753" d="M83.176,178.504c-0.345,0.321-0.416,0.839,0,1.26c0.41,0.398,2.731,2.338,3.108,2.717
		c0.378,0.38,0.937,0.519,1.547,0.38c0.629-0.139-0.719,0.76-1.241,0.858c-0.521,0.121-1.097,0.121-1.656-0.399
		c-0.557-0.518-3.667-3.458-4.278-4.056c-0.63-0.58,0.16-0.58,0.719-0.64C81.936,178.545,82.419,178.584,83.176,178.504"/>
	<path fill="none" stroke="#231F20" stroke-width="0.102" d="M83.176,178.504c-0.345,0.321-0.416,0.839,0,1.26
		c0.41,0.398,2.731,2.338,3.108,2.717c0.378,0.38,0.937,0.519,1.547,0.38c0.629-0.139-0.719,0.76-1.241,0.858
		c-0.521,0.121-1.097,0.121-1.656-0.399c-0.557-0.518-3.667-3.458-4.278-4.056c-0.63-0.58,0.16-0.58,0.719-0.64
		C81.936,178.545,82.419,178.584,83.176,178.504z"/>
	<path fill="#BA9753" d="M79.308,160.822c0.198,0.64,0.269,1.201-0.702,1.059c-0.97-0.121-5.033-0.501-6.222-0.501
		c-0.269,0-0.161-0.698-0.576-0.42c-0.41,0.281-0.25,0.902-0.25,1.58c0,0.698-0.054,1.118-0.038,1.599
		c0.038,0.717,0.486,1.717,2.358,1.835c1.868,0.101,3.633-0.118,4.189-0.497c0.538-0.381-0.038-0.998-0.557-0.998
		c-0.524,0-3.633,0.238-4.281,0c-0.665-0.241-1.096-1-0.629-1.301c0.557-0.397,1.618,0.1,2.698,0.1c1.061,0,2.212-0.281,2.481-0.1
		c0.288,0.159,0.665,0.1,0.665,1.399c0,0.278,0.647,0.377,0.953,0.377c0.326,0,0.467,0.522,0.432,1.221
		c-0.036,0.699,0.035,0.816-1.224,0.816c-1.241,0-6.6-0.057-7.39-0.057c-0.304,0-0.342-0.24-0.377-0.861
		c-0.036-0.62-0.233-4.955-0.304-5.294c-0.073-0.34,0.826-0.38,1.545-0.241c0.738,0.141,1.637,0.28,2.804,0.339
		c1.17,0.08,2.967,0.241,2.967,0.241s0.902,0.12,1.01-0.16C78.966,160.683,79.237,160.621,79.308,160.822"/>
	<path fill="none" stroke="#231F20" stroke-width="0.102" d="M79.308,160.822c0.198,0.64,0.269,1.201-0.702,1.059
		c-0.97-0.121-5.033-0.501-6.222-0.501c-0.269,0-0.161-0.698-0.576-0.42c-0.41,0.281-0.25,0.902-0.25,1.58
		c0,0.698-0.054,1.118-0.038,1.599c0.038,0.717,0.486,1.717,2.358,1.835c1.868,0.101,3.633-0.118,4.189-0.497
		c0.538-0.381-0.038-0.998-0.557-0.998c-0.524,0-3.633,0.238-4.281,0c-0.665-0.241-1.096-1-0.629-1.301
		c0.557-0.397,1.618,0.1,2.698,0.1c1.061,0,2.212-0.281,2.481-0.1c0.288,0.159,0.665,0.1,0.665,1.399
		c0,0.278,0.647,0.377,0.953,0.377c0.326,0,0.467,0.522,0.432,1.221c-0.036,0.699,0.035,0.816-1.224,0.816
		c-1.241,0-6.6-0.057-7.39-0.057c-0.304,0-0.342-0.24-0.377-0.861c-0.036-0.62-0.233-4.955-0.304-5.294
		c-0.073-0.34,0.826-0.38,1.545-0.241c0.738,0.141,1.637,0.28,2.804,0.339c1.17,0.08,2.967,0.241,2.967,0.241s0.902,0.12,1.01-0.16
		C78.966,160.683,79.237,160.621,79.308,160.822z"/>
	<path fill="#F9B282" d="M54.491,65.7c-0.898-0.281-1.583,0.759-1.995,1.599c-0.415,0.819-0.901,1.717,0.413,3.576
		c1.314,1.877,2.123,2.976,4.425,2.837c1.097-0.059,2.069-0.898,2.408-1.38c0.361-0.479,0.415,0.34-0.125,1.179
		c-0.557,0.821-0.969,2.757,0.055,4.075c1.042,1.321,3.184,2.418,6.024,0.76c2.825-1.658,4.01-3.655,4.496-4.557
		c0.467-0.896,0.467-1.316,0-1.877c-0.486-0.537-2.085-3.175-2.427-8.349c-0.214-3.118,0.342-5.116-1.582-6.215
		c-1.944-1.12-6.366-3.736-6.925-8.852c-0.196-1.938-0.052-4.915-1.995-3.316c-1.942,1.578-1.942,2.698-2.14,3.877
		c-0.215,1.156,0.755,2.755,1.583,3.854c0.826,1.118,1.797,3.538,2.552,4.156c0.774,0.62,1.259,1.099,1.872,1.179
		c0.628,0.061,3.109,0.061,3.741,0.259c0.611,0.222,0.953,0.981-0.559,0.981c-1.528,0-3.865,0.418-4.908,0.538
		c-1.043,0.141-1.995,0.219-2.481,2.297c-0.486,2.059-1.189,4.477-1.241,5.236c-0.073,0.779-0.486,1.179-0.486,1.599
		c0,0.418,0.826,2.415,2.696,0.418c1.852-2.017,2.625-4.017,2.97-4.975c0.339-0.978,0.754-0.839,0.411,0.679
		c-0.34,1.519-0.448,5.335,0.271,6.632c0.79,1.42,2.356,2.877,4.352,1.877c0.415-0.217,1.115-0.556,1.656-0.476
		c0.557,0.059-0.09,1.019-0.576,1.439c-0.486,0.417-2.068,2.175-4.872-0.34c-0.703-0.623-1.656-2.019-1.873-3.738
		c-0.071-0.559-0.826-0.76-1.168-0.281c-0.342,0.481-2.212,2.22-3.526,0.982c-1.311-1.26-1.851-1.939-1.113-4.576
		C54.562,66.318,54.833,65.799,54.491,65.7"/>
	<path fill="none" stroke="#F9B282" stroke-width="0.102" stroke-linecap="round" d="M54.491,65.7
		c-0.898-0.281-1.583,0.759-1.995,1.599c-0.415,0.819-0.901,1.717,0.413,3.576c1.314,1.877,2.123,2.976,4.425,2.837
		c1.097-0.059,2.069-0.898,2.408-1.38c0.361-0.479,0.415,0.34-0.125,1.179c-0.557,0.821-0.969,2.757,0.055,4.075
		c1.042,1.321,3.184,2.418,6.024,0.76c2.825-1.658,4.01-3.655,4.496-4.557c0.467-0.896,0.467-1.316,0-1.877
		c-0.486-0.537-2.085-3.175-2.427-8.349c-0.214-3.118,0.342-5.116-1.582-6.215c-1.944-1.12-6.366-3.736-6.925-8.852
		c-0.196-1.938-0.052-4.915-1.995-3.316c-1.942,1.578-1.942,2.698-2.14,3.877c-0.215,1.156,0.755,2.755,1.583,3.854
		c0.826,1.118,1.797,3.538,2.552,4.156c0.774,0.62,1.259,1.099,1.872,1.179c0.628,0.061,3.109,0.061,3.741,0.259
		c0.611,0.222,0.953,0.981-0.559,0.981c-1.528,0-3.865,0.418-4.908,0.538c-1.043,0.141-1.995,0.219-2.481,2.297
		c-0.486,2.059-1.189,4.477-1.241,5.236c-0.073,0.779-0.486,1.179-0.486,1.599c0,0.418,0.826,2.415,2.696,0.418
		c1.852-2.017,2.625-4.017,2.97-4.975c0.339-0.978,0.754-0.839,0.411,0.679c-0.34,1.519-0.448,5.335,0.271,6.632
		c0.79,1.42,2.356,2.877,4.352,1.877c0.415-0.217,1.115-0.556,1.656-0.476c0.557,0.059-0.09,1.019-0.576,1.439
		c-0.486,0.417-2.068,2.175-4.872-0.34c-0.703-0.623-1.656-2.019-1.873-3.738c-0.071-0.559-0.826-0.76-1.168-0.281
		c-0.342,0.481-2.212,2.22-3.526,0.982c-1.311-1.26-1.851-1.939-1.113-4.576C54.562,66.318,54.833,65.799,54.491,65.7z"/>
	<path fill="#F9B282" d="M55.876,61.822c-0.285,0.901-0.557,2.08-0.681,2.5c-0.146,0.417-0.773,1.316-1.314,0.137
		c-0.559-1.177-0.54-2.097,0.342-2.977c0.269-0.279,0.684-0.818,0.972-0.559C55.463,61.204,55.949,61.624,55.876,61.822"/>
	<path fill="none" stroke="#F9B282" stroke-width="0.102" stroke-linecap="round" d="M55.876,61.822
		c-0.285,0.901-0.557,2.08-0.681,2.5c-0.146,0.417-0.773,1.316-1.314,0.137c-0.559-1.177-0.54-2.097,0.342-2.977
		c0.269-0.279,0.684-0.818,0.972-0.559C55.463,61.204,55.949,61.624,55.876,61.822z"/>
	<path fill="#F9B282" d="M58.987,58.647c-0.576,0.297-1.778,0.278-2.212,1.257c-0.269,0.62-1.382-0.078-0.826-0.837
		c0.557-0.759,0.972-0.7,1.312-0.901c0.342-0.198,0.486-0.819,1.17-0.479C59.133,58.027,59.256,58.506,58.987,58.647"/>
	<path fill="none" stroke="#F9B282" stroke-width="0.102" stroke-linecap="round" d="M58.987,58.647
		c-0.576,0.297-1.778,0.278-2.212,1.257c-0.269,0.62-1.382-0.078-0.826-0.837c0.557-0.759,0.972-0.7,1.312-0.901
		c0.342-0.198,0.486-0.819,1.17-0.479C59.133,58.027,59.256,58.506,58.987,58.647z"/>
	<path fill="#F9B282" d="M104.521,24.442c-1.925,0.219-3.721,1.38-5.521,2.637c-1.8,1.238-8.291,6.693-9.819,7.793
		c1.599,0.837,2.014,2.498,1.457,5.255c-0.127,0.62,0,0.837,0.413,0.418c0.413-0.418,2.356-2.476,2.285-4.135
		c-0.073-1.658-0.83-2.637-0.971-2.837c-0.147-0.219,0.556-1.038,1.311,0.679c0.755,1.738,0.557,4.156-1.726,6.854
		c-2.283,2.698-4.08,2.618-5.052,3.097c-0.953,0.498-1.925,1.257-1.026,2.696c0.898,1.46,2.625,0.901,3.309,0.42
		c0.703-0.479,1.656-1.037,3.868-0.818c2.21,0.2,2.948-1.198,1.455-2.696c-0.486-0.5-1.726-1.599-0.198-1.599
		c0.898,0,1.998,1.998,2.624,2.557c0.614,0.559,1.996,0.759,3.869,0.899c1.868,0.139,4.764,0.84,4.764,2.618
		c0,1.12-0.594,1.439-1.384,0.559c-0.304-0.34-0.757,0.201-1.097,0.562c-1.189,1.177-4.189,4.354-6.33,4.894
		c-2.141,0.559-2.931-0.059-5.773-1.578c-2.821-1.519-5.449-3.038-6.222-3.538c-0.754-0.479-2.337-1.578-1.58,0.639
		c0.755,2.198,2.622,4.476,6.347,5.733c3.741,1.241,4.298,1.661,5.125,2.059c0.825,0.42,0.339,0.84-0.755,0.701
		c-0.972-0.123-2.014-0.96-1.189,0.896c0.828,1.859,2.088,3.877,5.883,3.377c3.792-0.479,3.901-1.278,6.292-5.233
		c0.415-0.701,0.828-0.219,0.541,1.578c1.87-0.898,2.913-1.179,4.012-1.457c1.114-0.259,3.972-1.241,5.877-4.755
		c0.972-1.799,1.495-2.42,1.314-4.297c-0.073-0.679,0.972-2.057,1.998-3.038c1.042-0.957,3.863-4.613,2.427-7.25
		c-1.458-2.618-3.865-1.321-5.054,0.618c-1.17,1.939-2.481,4.076-2.552,7.392c-0.828-0.278-1.675,0.042-2.071,0.7
		c-0.214,0.34-3.255-0.08-4.297,0.2c-1.024,0.278-1.366-0.339-0.269-1.797c1.116-1.439,5.001-6.715,4.765-10.632
		c-0.071-1.177,0.089-1.396,0.288-2.276c0.236-1.158,0.344-1.158-1.078-1.939c-0.917-0.519-0.969-1.958-1.132-3.036
		c-0.182-1.179-0.396-1.198-1.726-0.901C106.931,26.659,105.294,25.68,104.521,24.442"/>
	<path fill="none" stroke="#F9B282" stroke-width="0.102" d="M104.521,24.442c-1.925,0.219-3.721,1.38-5.521,2.637
		c-1.8,1.238-8.291,6.693-9.819,7.793c1.599,0.837,2.014,2.498,1.457,5.255c-0.127,0.62,0,0.837,0.413,0.418
		c0.413-0.418,2.356-2.476,2.285-4.135c-0.073-1.658-0.83-2.637-0.971-2.837c-0.147-0.219,0.556-1.038,1.311,0.679
		c0.755,1.738,0.557,4.156-1.726,6.854c-2.283,2.698-4.08,2.618-5.052,3.097c-0.953,0.498-1.925,1.257-1.026,2.696
		c0.898,1.46,2.625,0.901,3.309,0.42c0.703-0.479,1.656-1.037,3.868-0.818c2.21,0.2,2.948-1.198,1.455-2.696
		c-0.486-0.5-1.726-1.599-0.198-1.599c0.898,0,1.998,1.998,2.624,2.557c0.614,0.559,1.996,0.759,3.869,0.899
		c1.868,0.139,4.764,0.84,4.764,2.618c0,1.12-0.594,1.439-1.384,0.559c-0.304-0.34-0.757,0.201-1.097,0.562
		c-1.189,1.177-4.189,4.354-6.33,4.894c-2.141,0.559-2.931-0.059-5.773-1.578c-2.821-1.519-5.449-3.038-6.222-3.538
		c-0.754-0.479-2.337-1.578-1.58,0.639c0.755,2.198,2.622,4.476,6.347,5.733c3.741,1.241,4.298,1.661,5.125,2.059
		c0.825,0.42,0.339,0.84-0.755,0.701c-0.972-0.123-2.014-0.96-1.189,0.896c0.828,1.859,2.088,3.877,5.883,3.377
		c3.792-0.479,3.901-1.278,6.292-5.233c0.415-0.701,0.828-0.219,0.541,1.578c1.87-0.898,2.913-1.179,4.012-1.457
		c1.114-0.259,3.972-1.241,5.877-4.755c0.972-1.799,1.495-2.42,1.314-4.297c-0.073-0.679,0.972-2.057,1.998-3.038
		c1.042-0.957,3.863-4.613,2.427-7.25c-1.458-2.618-3.865-1.321-5.054,0.618c-1.17,1.939-2.481,4.076-2.552,7.392
		c-0.828-0.278-1.675,0.042-2.071,0.7c-0.214,0.34-3.255-0.08-4.297,0.2c-1.024,0.278-1.366-0.339-0.269-1.797
		c1.116-1.439,5.001-6.715,4.765-10.632c-0.071-1.177,0.089-1.396,0.288-2.276c0.236-1.158,0.344-1.158-1.078-1.939
		c-0.917-0.519-0.969-1.958-1.132-3.036c-0.182-1.179-0.396-1.198-1.726-0.901C106.931,26.659,105.294,25.68,104.521,24.442z"/>
	<path fill="#F9B282" d="M96.445,46.079c-0.377,0.861-1.42,1.679-3.849,1.417c-1.203-0.137-2.392-0.158-2.59,0.781
		c-0.123,0.658-0.682,0.639-1.437,0.599c-0.809-0.04-1.672-0.238-1.691,0.04c-0.035,0.259,3.382,2.297,4.514,2.816
		c1.151,0.521,2.804,1.76,4.154,1.639c1.799-0.179,3.363-1.059,6.007-3.875c1.097-1.16,1.976-1.759,0.934-2.238
		c-0.701-0.34-1.42-0.42-2.354-0.42C99.198,46.838,97.2,46.699,96.445,46.079"/>
	<path fill="none" stroke="#F9B282" stroke-width="0.102" d="M96.445,46.079c-0.377,0.861-1.42,1.679-3.849,1.417
		c-1.203-0.137-2.392-0.158-2.59,0.781c-0.123,0.658-0.682,0.639-1.437,0.599c-0.809-0.04-1.672-0.238-1.691,0.04
		c-0.035,0.259,3.382,2.297,4.514,2.816c1.151,0.521,2.804,1.76,4.154,1.639c1.799-0.179,3.363-1.059,6.007-3.875
		c1.097-1.16,1.976-1.759,0.934-2.238c-0.701-0.34-1.42-0.42-2.354-0.42C99.198,46.838,97.2,46.699,96.445,46.079z"/>
	<path fill="#F9B282" d="M83.553,46.119c-0.936-0.04-1.043-0.741-0.415-1.778c0.63-1.038,1.205-1.998,2.033-2.618
		c0.141,0.441,0.413,1,0.826,1.241c-0.538,0.599-1.276,1.318-1.132,2.776"/>
	<path fill="none" stroke="#F9B282" stroke-width="0.102" d="M83.553,46.119c-0.936-0.04-1.043-0.741-0.415-1.778
		c0.63-1.038,1.205-1.998,2.033-2.618c0.141,0.441,0.413,1,0.826,1.241c-0.538,0.599-1.276,1.318-1.132,2.776L83.553,46.119z"/>
	<path fill="#231F20" d="M99.073,35.911c0.16-0.962,0.035-1.759-1.387-0.623c-1.311-0.958-2.481-2.137-2.894-2.415
		c-0.432-0.281-0.63-0.679-0.144-1.179c0.486-0.481,1.349,0.379,1.132-1.059c-0.071-0.479,1.08-0.182,1.349-0.318
		c0.288-0.142-0.128-0.802,1.17-0.481c0.429,0.099,0.25-0.698,1.078-0.559c0.828,0.139,1.24,0.46,1.423-0.2
		c0.16-0.661,0.358-1.059,1.419-0.42c0.719,0.46,0.988,0.179,1.061-0.16c0.071-0.358,0.717-0.139,1.311,0.2
		c0.595,0.34,2.052,1.078,3.779,3.078c0.413,0.479,0.608,1,0.34,1.059c-0.288,0.078-0.595,0-0.665,0.559
		c-0.071,0.559-0.34,1.038-0.646,0.42c-0.326-0.62-0.378,0.099-0.63-0.561c-0.234-0.658-0.558,0.241-0.719-0.198
		c-0.235-0.58-0.431,0.099-0.665-0.42c-0.09-0.241-0.755,0.321-0.953-0.061c-0.217-0.377-0.665,0.401-1.01-0.038
		c-0.34-0.46-0.34,0.479-0.896,0.278c-0.558-0.219-0.306,0.519-0.863,0.281c-0.56-0.259-0.378,0.679-0.901,0.54
		c-0.521-0.141-0.486,0.099-0.595,0.698c-0.106,0.58-0.339,2.858-0.304,3.415c0.036,0.561,1.168,0.42,2.894,0.182
		c1.726-0.241,4.82-1.2,6.368-2.498c0.61-0.519,1.167-0.481,1.276-0.3c0.108,0.158-0.18,0.719-0.63,1.099
		c-0.448,0.38-1.617,1.578-4.278,2.097c-2.663,0.519-4.875,0.939-5.326,0.84c-0.448-0.099,0.182,0.66,0.972,0.481
		c0.415-0.08,1.314,1.557,2.769,1.557c1.17,0,2.934-1.318,3.417-1.698c0.486-0.38,2.248-1.179,1.078,0
		c-1.184,1.179-2.425,2.458-3.667,2.498c-1.241,0.021-3.147-0.38-4.46-1.279c-1.311-0.899-1.797-1.38-1.547-2.776
		C98.964,36.569,99,36.289,99.073,35.911"/>
	<path fill="none" stroke="#F9B282" stroke-width="0.102" d="M99.073,35.911c0.16-0.962,0.035-1.759-1.387-0.623
		c-1.311-0.958-2.481-2.137-2.894-2.415c-0.432-0.281-0.63-0.679-0.144-1.179c0.486-0.481,1.349,0.379,1.132-1.059
		c-0.071-0.479,1.08-0.182,1.349-0.318c0.288-0.142-0.128-0.802,1.17-0.481c0.429,0.099,0.25-0.698,1.078-0.559
		c0.828,0.139,1.24,0.46,1.423-0.2c0.16-0.661,0.358-1.059,1.419-0.42c0.719,0.46,0.988,0.179,1.061-0.16
		c0.071-0.358,0.717-0.139,1.311,0.2c0.595,0.34,2.052,1.078,3.779,3.078c0.413,0.479,0.608,1,0.34,1.059
		c-0.288,0.078-0.595,0-0.665,0.559c-0.071,0.559-0.34,1.038-0.646,0.42c-0.326-0.62-0.378,0.099-0.63-0.561
		c-0.234-0.658-0.558,0.241-0.719-0.198c-0.235-0.58-0.431,0.099-0.665-0.42c-0.09-0.241-0.755,0.321-0.953-0.061
		c-0.217-0.377-0.665,0.401-1.01-0.038c-0.34-0.46-0.34,0.479-0.896,0.278c-0.558-0.219-0.306,0.519-0.863,0.281
		c-0.56-0.259-0.378,0.679-0.901,0.54c-0.521-0.141-0.486,0.099-0.595,0.698c-0.106,0.58-0.339,2.858-0.304,3.415
		c0.036,0.561,1.168,0.42,2.894,0.182c1.726-0.241,4.82-1.2,6.368-2.498c0.61-0.519,1.167-0.481,1.276-0.3
		c0.108,0.158-0.18,0.719-0.63,1.099c-0.448,0.38-1.617,1.578-4.278,2.097c-2.663,0.519-4.875,0.939-5.326,0.84
		c-0.448-0.099,0.182,0.66,0.972,0.481c0.415-0.08,1.314,1.557,2.769,1.557c1.17,0,2.934-1.318,3.417-1.698
		c0.486-0.38,2.248-1.179,1.078,0c-1.184,1.179-2.425,2.458-3.667,2.498c-1.241,0.021-3.147-0.38-4.46-1.279
		c-1.311-0.899-1.797-1.38-1.547-2.776C98.964,36.569,99,36.289,99.073,35.911z"/>
	<path fill="#231F20" d="M119.177,40.265c-0.811,0.58-1.241,0.759-1.313,1.738c-0.073,0.96-0.269,2.618-0.63,2.757
		c-0.467,0.201-0.396-0.899-0.538-0.559c-0.217,0.498-0.812,0.281-0.972-0.16c-0.071-0.201-1.797-0.179-0.415-2.177
		c1.241-1.818,2.213-2.778,3.113-3.177C119.321,38.267,120.832,39.086,119.177,40.265"/>
	<path fill="none" stroke="#F9B282" stroke-width="0.102" d="M119.177,40.265c-0.811,0.58-1.241,0.759-1.313,1.738
		c-0.073,0.96-0.269,2.618-0.63,2.757c-0.467,0.201-0.396-0.899-0.538-0.559c-0.217,0.498-0.812,0.281-0.972-0.16
		c-0.071-0.201-1.797-0.179-0.415-2.177c1.241-1.818,2.213-2.778,3.113-3.177C119.321,38.267,120.832,39.086,119.177,40.265z"/>
	<path fill="#BA9753" d="M100.582,63.761c-0.415,1.118-0.972,2.498-1.24,3.177c-0.269,0.701-1.547,0.441-1.458-0.059
		c0.217-1.04-1.26-0.361-1.097-1.179c0.143-0.698-0.144-1.798,0.629-1.798C98.172,63.902,99.61,63.761,100.582,63.761"/>
	<path fill="none" stroke="#231F20" stroke-width="0.102" d="M100.582,63.761c-0.415,1.118-0.972,2.498-1.24,3.177
		c-0.269,0.701-1.547,0.441-1.458-0.059c0.217-1.04-1.26-0.361-1.097-1.179c0.143-0.698-0.144-1.798,0.629-1.798
		C98.172,63.902,99.61,63.761,100.582,63.761z"/>
	<path fill="#BA9753" d="M109.285,8.418c-0.307,0.08-0.646,0.161-0.988,0.259l0,0l0,0c-2.483,0.7-5.521,1.998-8.182,3.318
		l-0.038,0.019c-0.486,0.241-0.953,0.479-1.42,0.72c-0.505,0.259-1.008,0.54-1.458,0.778c-0.915,0.521-1.743,0.998-2.353,1.399
		c-0.055,0.04-0.128,0.08-0.18,0.12l0,0c-0.019,0.021-0.019,0.021-0.019,0.021l0,0c-1.978,1.297-4.783,3.295-7.248,5.514
		l-0.035,0.019c-1.312,1.179-2.519,2.438-3.434,3.675l0,0l0,0l0,0c-0.345,0.462-0.648,0.92-0.901,1.358
		c0.163,0.462,0.306,0.901,0.45,1.302l0,0c0.611,1.656,1.241,2.816,2.104,3.755l0,0l0,0l0,0c0.361,0.401,0.774,0.759,1.26,1.099
		c0.845-0.901,1.635-1.719,2.391-2.458v-0.019c0.611-0.601,1.205-1.16,1.781-1.698c1.817-1.7,3.543-3.078,5.502-4.397
		c1.059-0.722,2.031-1.359,3.04-1.958c0.647-0.382,1.311-0.741,2.015-1.08c2.264-1.099,4.981-1.998,9.189-2.859
		c0.179-0.038,0.359-0.078,0.538-0.118C111.641,13.312,110.672,10.557,109.285,8.418"/>
	<path fill="none" stroke="#231F20" stroke-width="0.102" d="M109.285,8.418c-0.307,0.08-0.646,0.161-0.988,0.259l0,0l0,0
		c-2.483,0.7-5.521,1.998-8.182,3.318l-0.038,0.019c-0.486,0.241-0.953,0.479-1.42,0.72c-0.505,0.259-1.008,0.54-1.458,0.778
		c-0.915,0.521-1.743,0.998-2.353,1.399c-0.055,0.04-0.128,0.08-0.18,0.12l0,0c-0.019,0.021-0.019,0.021-0.019,0.021l0,0
		c-1.978,1.297-4.783,3.295-7.248,5.514l-0.035,0.019c-1.312,1.179-2.519,2.438-3.434,3.675l0,0l0,0l0,0
		c-0.345,0.462-0.648,0.92-0.901,1.358c0.163,0.462,0.306,0.901,0.45,1.302l0,0c0.611,1.656,1.241,2.816,2.104,3.755l0,0l0,0l0,0
		c0.361,0.401,0.774,0.759,1.26,1.099c0.845-0.901,1.635-1.719,2.391-2.458v-0.019c0.611-0.601,1.205-1.16,1.781-1.698
		c1.817-1.7,3.543-3.078,5.502-4.397c1.059-0.722,2.031-1.359,3.04-1.958c0.647-0.382,1.311-0.741,2.015-1.08
		c2.264-1.099,4.981-1.998,9.189-2.859c0.179-0.038,0.359-0.078,0.538-0.118C111.641,13.312,110.672,10.557,109.285,8.418z"/>
	<path fill="#BA9753" d="M107.002,69.315c0.035,0.021,0.054,0.021,0.071,0.04c3.814,2.736,4.783,1.259,5.325-0.062
		c0.557-1.316,1.779-5.212,2.156-7.25c0.198-1.179,0.467-2.42,0.342-3.538c-2.267-0.139-4.981,0.321-7.552,1.321
		c-0.342,0.137-0.701,0.278-1.044,0.439l0,0c-0.755,0.339-1.491,0.717-2.194,1.158c-3.543,2.158-3.651,3.996-2.82,4.696
		c0.735,0.618,2.245,0.899,4.834,2.597c0.288,0.179,0.576,0.36,0.863,0.577"/>
	<path fill="none" stroke="#231F20" stroke-width="0.102" d="M107.002,69.315c0.035,0.021,0.054,0.021,0.071,0.04
		c3.814,2.736,4.783,1.259,5.325-0.062c0.557-1.316,1.779-5.212,2.156-7.25c0.198-1.179,0.467-2.42,0.342-3.538
		c-2.267-0.139-4.981,0.321-7.552,1.321c-0.342,0.137-0.701,0.278-1.044,0.439l0,0c-0.755,0.339-1.491,0.717-2.194,1.158
		c-3.543,2.158-3.651,3.996-2.82,4.696c0.735,0.618,2.245,0.899,4.834,2.597c0.288,0.179,0.576,0.36,0.863,0.577"/>
	<path fill="#BA9753" d="M84.973,70.674c0.432-0.158,1.563-0.739,2.769-1.318c1.278-0.618,2.644-1.26,3.382-1.519
		c0.034,0,0.052-0.019,0.09-0.019l0,0c1.439-0.5,3.092-1.439,3.633-1.778l0.898,0.08c0.073-1.179,0-1.939-0.412-2.137
		c-1.458-0.74-2.897-2.358-3.868-4.217c0,0,0.073-0.278-0.34-0.278c-0.415,0-1.943-0.141-4.495-1.04
		c-2.557-0.899-2.897-0.34-3.257,0.757c-0.342,1.099-0.611,3.118-0.681,6.434C82.617,68.954,84.072,71.013,84.973,70.674"/>
	<path fill="none" stroke="#231F20" stroke-width="0.102" d="M84.973,70.674c0.432-0.158,1.563-0.739,2.769-1.318
		c1.278-0.618,2.644-1.26,3.382-1.519c0.034,0,0.052-0.019,0.09-0.019l0,0c1.439-0.5,3.092-1.439,3.633-1.778l0.898,0.08
		c0.073-1.179,0-1.939-0.412-2.137c-1.458-0.74-2.897-2.358-3.868-4.217c0,0,0.073-0.278-0.34-0.278
		c-0.415,0-1.943-0.141-4.495-1.04c-2.557-0.899-2.897-0.34-3.257,0.757c-0.342,1.099-0.611,3.118-0.681,6.434
		C82.617,68.954,84.072,71.013,84.973,70.674z"/>
	<path fill="#BA9753" d="M80.063,117.187c0.269-3.258,1.799-6.812,2.896-8.85c1.08-1.96,4.297-8.233,5.052-9.892
		c0.755-1.658,2.142-3.575,2.482-5.095c0.344-1.537,1.655-5.054,2.212-6.712c-0.125-1.379-1.024-4.177-2.481-7.453
		c-0.557-1.259-0.755-0.3-2.283,2.136c-0.774,1.22-2.734,3.498-5.18,6.076c-2.787,2.915-6.202,6.232-9.259,8.849
		c-0.38,0.321-0.741,0.642-1.08,0.939l0,0c-3.094,2.739-4.642,4.637-5.701,6.316l0,0l0,0c-0.575,0.938-1.007,1.797-1.439,2.695
		c-1.313,2.696-0.413,2.757,0.54,2.757c0.972,0,3.057,4.076,3.326,4.836c0.089,0.278,0.792,1.297,1.707,2.596l0,0
		c0.019,0.021,0.019,0.021,0.037,0.04l0,0c1.708,2.438,4.208,5.835,5.09,7.312c1.382,2.278,1.382,5.056,1.941,4.636
		c0.559-0.419,1.87-1.658,2.286-1.998c0.41-0.36,0.826-0.759,0.608-1.518C80.619,124.099,79.829,120.024,80.063,117.187"/>
	<path fill="none" stroke="#231F20" stroke-width="0.102" d="M80.063,117.187c0.269-3.258,1.799-6.812,2.896-8.85
		c1.08-1.96,4.297-8.233,5.052-9.892c0.755-1.658,2.142-3.575,2.482-5.095c0.344-1.537,1.655-5.054,2.212-6.712
		c-0.125-1.379-1.024-4.177-2.481-7.453c-0.557-1.259-0.755-0.3-2.283,2.136c-0.774,1.22-2.734,3.498-5.18,6.076
		c-2.787,2.915-6.202,6.232-9.259,8.849c-0.38,0.321-0.741,0.642-1.08,0.939l0,0c-3.094,2.739-4.642,4.637-5.701,6.316l0,0l0,0
		c-0.575,0.938-1.007,1.797-1.439,2.695c-1.313,2.696-0.413,2.757,0.54,2.757c0.972,0,3.057,4.076,3.326,4.836
		c0.089,0.278,0.792,1.297,1.707,2.596l0,0c0.019,0.021,0.019,0.021,0.037,0.04l0,0c1.708,2.438,4.208,5.835,5.09,7.312
		c1.382,2.278,1.382,5.056,1.941,4.636c0.559-0.419,1.87-1.658,2.286-1.998c0.41-0.36,0.826-0.759,0.608-1.518
		C80.619,124.099,79.829,120.024,80.063,117.187z"/>
	<path fill="#BA9753" d="M120.346,109.854c-1.799-2.977-2.141-4.135-2.41-7.191c-0.179-1.92-0.019-4.396,0.25-6.793
		c0.163-1.42,0.378-2.778,0.576-3.977c-2.715,0.399-5.017-2.917-5.826-5.773c-0.019-0.061-0.035-0.123-0.054-0.181
		c-1.833-7.031,1.672-15.685,2.625-18.102c0.971-2.417,4.712-9.21,5.991-11.248c-0.703-0.361-2.538-1.278-3.526-1.8
		c-1.007-0.519-1.564-0.76-1.835-0.377c-0.287,0.377-0.629,0.58-1.115,1.278c-0.969,1.378-0.125,1.158,0.146,1.158
		c0.269,0,1.455,1.519,1.654,1.88c0.214,0.34,0,0.618-0.486,1.717c-0.631,1.458-1.027,4.774-1.583,6.774
		c-1.672,6.073-4.278,5.453-5.467,4.694c-1.17-0.76-1.51,0.42-2.679,2.08c-0.288,0.398-1.007,1.155-1.924,2.097
		c-2.986,2.997-8.255,7.851-9.422,8.969c-0.412,0.382-0.755,0.84-1.097,1.401l0,0c0,0,0,0,0,0.019l0,0l0,0
		c-0.882,1.479-1.599,3.637-2.698,6.993c-1.51,4.635-4.963,10.949-6.382,13.245c-3.722,5.974-4.389,11.649-3.849,15.165
		c0.556,3.496,1.042,3.237,1.797,3.237c0.773,0,2.627,2.358,3.868,3.816c1.259,1.438,1.743,0.818,2.353,0.339
		c1.998-1.559,6.007-4.155,11.689-6.832c2.411-1.16,5.63-2.377,8.76-3.378c1.061-0.339,2.104-0.658,3.092-0.939
		c3.021-0.818,5.665-1.34,7.012-1.216c1.962,0.179,3.453,0.76,3.382-1.04C123.115,114.068,122.144,112.833,120.346,109.854"/>
	<path fill="none" stroke="#231F20" stroke-width="0.102" d="M120.346,109.854c-1.799-2.977-2.141-4.135-2.41-7.191
		c-0.179-1.92-0.019-4.396,0.25-6.793c0.163-1.42,0.378-2.778,0.576-3.977c-2.715,0.399-5.017-2.917-5.826-5.773
		c-0.019-0.061-0.035-0.123-0.054-0.181c-1.833-7.031,1.672-15.685,2.625-18.102c0.971-2.417,4.712-9.21,5.991-11.248
		c-0.703-0.361-2.538-1.278-3.526-1.8c-1.007-0.519-1.564-0.76-1.835-0.377c-0.287,0.377-0.629,0.58-1.115,1.278
		c-0.969,1.378-0.125,1.158,0.146,1.158c0.269,0,1.455,1.519,1.654,1.88c0.214,0.34,0,0.618-0.486,1.717
		c-0.631,1.458-1.027,4.774-1.583,6.774c-1.672,6.073-4.278,5.453-5.467,4.694c-1.17-0.76-1.51,0.42-2.679,2.08
		c-0.288,0.398-1.007,1.155-1.924,2.097c-2.986,2.997-8.255,7.851-9.422,8.969c-0.412,0.382-0.755,0.84-1.097,1.401l0,0
		c0,0,0,0,0,0.019l0,0l0,0c-0.882,1.479-1.599,3.637-2.698,6.993c-1.51,4.635-4.963,10.949-6.382,13.245
		c-3.722,5.974-4.389,11.649-3.849,15.165c0.556,3.496,1.042,3.237,1.797,3.237c0.773,0,2.627,2.358,3.868,3.816
		c1.259,1.438,1.743,0.818,2.353,0.339c1.998-1.559,6.007-4.155,11.689-6.832c2.411-1.16,5.63-2.377,8.76-3.378
		c1.061-0.339,2.104-0.658,3.092-0.939c3.021-0.818,5.665-1.34,7.012-1.216c1.962,0.179,3.453,0.76,3.382-1.04
		C123.115,114.068,122.144,112.833,120.346,109.854z"/>
	<path fill="#F9B282" d="M153.003,122.401c-0.325-0.819,0.233-2.177,1.957-1.22c1.745,0.981,3.059,1.797,1.8,5.614
		c-1.241,3.797-2.139,5.995-2.625,7.594c-0.486,1.599-2.337,3.595-1.726,0.899c0.629-2.696,0.953-5.955,0.703-7.611
		c-0.486-3.038,0.483-2.859,0.16-4.236C153.182,123,153.112,122.701,153.003,122.401"/>
	<path fill="none" stroke="#F9B282" stroke-width="0.102" stroke-linecap="round" d="M153.003,122.401
		c-0.325-0.819,0.233-2.177,1.957-1.22c1.745,0.981,3.059,1.797,1.8,5.614c-1.241,3.797-2.139,5.995-2.625,7.594
		c-0.486,1.599-2.337,3.595-1.726,0.899c0.629-2.696,0.953-5.955,0.703-7.611c-0.486-3.038,0.483-2.859,0.16-4.236
		C153.182,123,153.112,122.701,153.003,122.401z"/>
	<path fill="#F9B282" d="M159.531,125.677c0.502,1.501,1.043,4.916,0.215,6.295c-0.828,1.378-3.398,5.175-4.352,6.154
		c-0.972,0.957-1.745,0.537-1.115-0.482c0.629-1.038,1.455-2.437,1.455-2.915c0-0.481-0.071-1.04,0.757-2.619
		c0.828-1.598,2.283-6.912,2.427-7.332C159.046,124.359,159.385,125.257,159.531,125.677"/>
	<path fill="none" stroke="#F9B282" stroke-width="0.102" stroke-linecap="round" d="M159.531,125.677
		c0.502,1.501,1.043,4.916,0.215,6.295c-0.828,1.378-3.398,5.175-4.352,6.154c-0.972,0.957-1.745,0.537-1.115-0.482
		c0.629-1.038,1.455-2.437,1.455-2.915c0-0.481-0.071-1.04,0.757-2.619c0.828-1.598,2.283-6.912,2.427-7.332
		C159.046,124.359,159.385,125.257,159.531,125.677z"/>
	<path fill="#F9B282" d="M141.71,138.466c-0.415-1.241-0.632-3.038-1.314-4.076c0.541-1.518,2.373-5.613,5.448-6.835
		c0.343-0.137,0.559-0.498,0.413-0.76c-0.125-0.278,0.415-0.497,0.703,0.481c0.269,0.958,0.755,3.718,0.755,3.718
		c0.144,0.639-0.144,1.117-0.269,1.938c-0.146,0.837-0.486,2.696-0.288,3.675c0.214,0.958,0.557,1.658,2.5,1.238
		c0.953-0.201,0.896-0.479,1.167-1.319c0.272-0.819,1.045-3.177,1.314-4.495c0.269-1.297,0.035-4.515-0.253-5.355
		c-0.271-0.82,0.106-3.618-0.09-4.175c-0.215-0.561-0.342-1.38-2.087-1.938c-1.726-0.541-2.212-0.679-3.38,0.479
		c-1.167,1.179-1.582,1.658-2.139,2.219c-0.559,0.556-1.943,0.078-0.755-1.04c1.168-1.1,2.284-2.198,2.623-2.559l-0.339-0.896h-0.63
		c-1.87,1.877-4.351,2.977-6.007,3.316c-0.628,0.139-1.798,0.217-0.972,1.316c0.198,0.281,0.271,1.04,0.754,0.76
		c0.486-0.278,1.243-1.519,1.944-0.957c0.684,0.538-0.144,1.858-0.972,2.476c-0.826,0.621-1.726,1.241-2.354,1.599
		c-0.613,0.34-0.952,0.679-0.901,1.798c0.073,1.099,0.146,3.099-0.486,4.615c-0.609,1.518-0.269,1.939,0.288,2.979
		c0.559,1.038,1.439,1.936,1.727,3.594c0.271,1.661,0.415,2.08,1.512,1.94c1.116-0.142,1.528-0.619,1.941-1.319"/>
	<path fill="none" stroke="#F9B282" stroke-width="0.102" stroke-linecap="round" d="M141.71,138.466
		c-0.415-1.241-0.632-3.038-1.314-4.076c0.541-1.518,2.373-5.613,5.448-6.835c0.343-0.137,0.559-0.498,0.413-0.76
		c-0.125-0.278,0.415-0.497,0.703,0.481c0.269,0.958,0.755,3.718,0.755,3.718c0.144,0.639-0.144,1.117-0.269,1.938
		c-0.146,0.837-0.486,2.696-0.288,3.675c0.214,0.958,0.557,1.658,2.5,1.238c0.953-0.201,0.896-0.479,1.167-1.319
		c0.272-0.819,1.045-3.177,1.314-4.495c0.269-1.297,0.035-4.515-0.253-5.355c-0.271-0.82,0.106-3.618-0.09-4.175
		c-0.215-0.561-0.342-1.38-2.087-1.938c-1.726-0.541-2.212-0.679-3.38,0.479c-1.167,1.179-1.582,1.658-2.139,2.219
		c-0.559,0.556-1.943,0.078-0.755-1.04c1.168-1.1,2.284-2.198,2.623-2.559l-0.339-0.896h-0.63c-1.87,1.877-4.351,2.977-6.007,3.316
		c-0.628,0.139-1.798,0.217-0.972,1.316c0.198,0.281,0.271,1.04,0.754,0.76c0.486-0.278,1.243-1.519,1.944-0.957
		c0.684,0.538-0.144,1.858-0.972,2.476c-0.826,0.621-1.726,1.241-2.354,1.599c-0.613,0.34-0.952,0.679-0.901,1.798
		c0.073,1.099,0.146,3.099-0.486,4.615c-0.609,1.518-0.269,1.939,0.288,2.979c0.559,1.038,1.439,1.936,1.727,3.594
		c0.271,1.661,0.415,2.08,1.512,1.94c1.116-0.142,1.528-0.619,1.941-1.319L141.71,138.466z"/>
	<path fill="#A63732" d="M142.123,141.642c-0.486,0.838-1.313,2.137-1.313,3.316c0,1.179-1.186,2.417-1.042,2.977
		c0.144,0.558,1.655,1.997,2.552,3.516c0.901,1.518,2.087,3.797,2.087,7.614c0,3.795-1.257,8.968-1.384,9.669
		c-0.144,0.679-0.486,1.239,0.538,2.217c1.045,0.958,2.698,2.757,3.33,6.833c0.609,4.076,1.042,6.215,1.311,6.434
		c0.269,0.201,0.198,0.54,0.198,1.3c0,0.759,0.7,5.113,1.186,5.952c0.486,0.819,0.412-4.695,0.342-6.292
		c-0.071-1.58,0.07-9.192,0.34-10.29c0.287-1.12,0.558-2.358-0.411-3.736c-0.972-1.38-2.627-3.797-1.387-7.814
		c1.241-3.996,3.255-3.934,2.627-5.534c-0.614-1.577-1.727-2.677-2.555-3.575c-0.828-0.902-0.163-3.038-0.198-3.959
		c-0.073-1.657-1.384-1.916-1.529-3.794c-0.144-1.859-0.271-3.378,1.116-5.255c1.366-1.858-0.486-1.8-1.116-2.958
		c-0.629-1.177-0.955-2.757-0.412-5.196c0.269-1.236,0.141-1.575-0.217-1.717c-0.343-0.14-1.781-0.421-1.781-0.421l-2.158,4.276
		c0.358,0.84,0.486,2.079,0.486,2.919"/>
	<path fill="none" stroke="#A63732" stroke-width="0.102" d="M142.123,141.642c-0.486,0.838-1.313,2.137-1.313,3.316
		c0,1.179-1.186,2.417-1.042,2.977c0.144,0.558,1.655,1.997,2.552,3.516c0.901,1.518,2.087,3.797,2.087,7.614
		c0,3.795-1.257,8.968-1.384,9.669c-0.144,0.679-0.486,1.239,0.538,2.217c1.045,0.958,2.698,2.757,3.33,6.833
		c0.609,4.076,1.042,6.215,1.311,6.434c0.269,0.201,0.198,0.54,0.198,1.3c0,0.759,0.7,5.113,1.186,5.952
		c0.486,0.819,0.412-4.695,0.342-6.292c-0.071-1.58,0.07-9.192,0.34-10.29c0.287-1.12,0.558-2.358-0.411-3.736
		c-0.972-1.38-2.627-3.797-1.387-7.814c1.241-3.996,3.255-3.934,2.627-5.534c-0.614-1.577-1.727-2.677-2.555-3.575
		c-0.828-0.902-0.163-3.038-0.198-3.959c-0.073-1.657-1.384-1.916-1.529-3.794c-0.144-1.859-0.271-3.378,1.116-5.255
		c1.366-1.858-0.486-1.8-1.116-2.958c-0.629-1.177-0.955-2.757-0.412-5.196c0.269-1.236,0.141-1.575-0.217-1.717
		c-0.343-0.14-1.781-0.421-1.781-0.421l-2.158,4.276c0.358,0.84,0.486,2.079,0.486,2.919L142.123,141.642z"/>
	<path fill="#FFFFFF" d="M122.144,57.549c-1.691,2.278-4.354,8.01-5.595,11.608c-1.241,3.594-4.08,12.165-2.066,17.821
		c1.995,5.674,5.934,2.076,6.833-0.062c0.898-2.137,2.285-5.814,2.698-6.774c0.413-0.957,0.63-1.518,1.385,0.76
		c0.754,2.278,1.871,7.734,1.871,8.231c0,0.481-0.774,1.859-1.602,3.997c-0.826,2.137-1.312,3.656-0.486,4.975
		c0.828,1.318,4.083,6.912,5.128,9.331c0.609,1.457,1.167,1.738,2.821,1.319c1.655-0.418,5.665-1.798,6.854-2.357
		c1.167-0.54,0.608-1.518,0.269-2.698c-0.524-1.778-2.627-11.748-2.627-13.048c0-1.318,0.361-3.035-1.382-1.117
		c-0.613,0.698-1.458,0-1.241-0.958c0.198-0.981,2.283-14.448,2.408-16.104c-1.167-2.559-4.62-10.651-5.592-12.09
		c-0.972-1.458-1.311-1.519-2.769-0.76c-1.439,0.76-4.675,1.92-5.864-0.837c-0.217-0.479-0.557-1.578,0.269-1.719l-0.611-0.219
		C122.845,56.848,122.361,57.268,122.144,57.549"/>
	<path fill="#FFFFFF" d="M140.253,107.238c-1.295,0.739-5.665,2.616-7.462,2.897c-1.854,0.278-1.387,0.759-1.042,2.136
		c0.358,1.377,1.382,5.534,1.941,6.993c0.556,1.439,1.313,1.418,2.768,1.38c2.213-0.08,5.934-1.04,8.633-3.537
		c-0.757-0.899-2.087-5.193-2.484-7.033C142.196,108.134,142.196,106.118,140.253,107.238"/>
	<path fill="#FFFFFF" d="M100.653,67.358c-0.142,0.281-0.611,1.099-1.727,1.099c-1.094,0-1.996-0.339-2.696,0.639
		c-0.684,0.958-4.498,5.595-5.323,8.41c0.825,1.741,1.943,4.856,2.768,7.053c2.699-2.276,11.293-10.668,12.93-12.286
		c0.614-0.621,0.684-1.18-0.217-1.8c-0.896-0.618-4.208-2.695-4.765-3.035C101.068,67.077,100.8,67.077,100.653,67.358"/>
	<path fill="#FFFFFF" d="M78.893,79.525c-0.538,2.118-1.599,5.873-3.325,8.771c0.703,1.097,1.241,2.078,2.068,2.417
		c1.941-1.38,5.611-4.775,6.634-6.014c1.043-1.239,2.359-3.098,2.359-3.517c0-0.42-0.486-0.559-1.099-0.42
		c-0.627,0.139-3.184-0.88-5.665-1.38C79.164,79.247,78.966,79.247,78.893,79.525"/>
	<path fill="#FFFFFF" d="M77.364,77.447c-0.754-0.16-3.38-2.979-4.278-4.495c-0.899-1.518-1.043-1.38-1.385-0.28
		c-0.342,1.118-1.653,3.538-2.554,4.717c-0.899,1.158-3.255,4.214-3.866,4.894c-0.63,0.7,0,0.979,0.54,1.519
		c0.557,0.559,3.397,4.017,4.01,4.775c0.63,0.757,1.311,2.137,2.986,0.618c1.653-1.519,3.651-4.276,4.547-7.113
		c0.901-2.835,0.972-4.317,1.727-4.156l0.037-0.581l-0.198-0.339l-0.415-0.358c0.09,0.241,0.09,0.46-0.071,0.741
		C78.266,77.648,77.709,77.506,77.364,77.447"/>
	<path fill="#FFFFFF" d="M119.663,13.873c-1.872,2.198-5.594,4.156-11.887,5.734c-6.295,1.597-12.302,6.012-14.854,8.151
		c-2.554,2.139-9.009,7.432-12.104,8.71c-0.825,0.34-2.589,1.519-0.339,1.799c1.653,0.201,2.84-0.759,6.42-3.396
		c3.594-2.618,6.382-4.517,9.135-7.172c2.554-2.498,7.175-4.835,12.156-6.215c4.981-1.399,11.51-3.557,13.399-5.613
		c0.896-0.96,0.969-1.439,0.142-2.278C120.903,12.774,120.417,12.972,119.663,13.873"/>
	<path fill="#FFFFFF" d="M87.941,35.609c-0.54,0.302-0.755,0.62-1.385,2.618c-0.611,2.019-0.559,3.177-0.035,3.675
		c0.378,0.34,0.934,0.382,1.222,0.382c0.199,0,0.415,0.059,0.377-0.519c-0.035-0.601-0.071-3.099,1.797-4.217
		c0.344-0.219-0.052-1.658-1.276-1.458C88.209,36.149,88.641,35.232,87.941,35.609"/>
	<path fill="#FFFFFF" d="M66.596,43.522c0.953,0,1.58,0,1.509,1.099c-0.071,1.118-0.557,2.637-0.614,3.656
		c-0.07,1.04-0.07,1.46,0.543,1.46c0.627,0-0.901,0.618-1.727,0.757c-0.828,0.139-2.103,0.62-2.753-2.896
		c-0.214-1.099-0.144-2.837-0.288-3.257C64.166,43.942,65.407,43.522,66.596,43.522"/>
	<path fill="#FFFFFF" d="M84.954,46.478c0.252,1.38,0.63,1.358,0.358,1.561c-0.269,0.217-0.557-0.521-1.689-0.34
		c-1.08,0.179-9.783,1.517-10.394,1.597c-1.941,0.201-2.05-0.12-0.252-0.5c1.797-0.38,8.382-1.578,10.34-1.958"/>
	<path fill="#FFFFFF" d="M74.471,152.149c0.898,0.542,3.04,1.179,6.708-0.339c3.651-1.539,7.734-0.498,8.344,2.139
		c0.63,2.618,0.649,6.014-0.469,7.453c-0.969,1.257-1.868,1.118-2.983,0.757c-1.998-0.618-6.634-2.754-7.948-3.375
		c-1.313-0.62-3.526-1.318-5.106-1.318c-0.632-1.319-0.559-3.597-0.146-4.415c0.415-0.84,0.415-1.658,0.774-1.458
		C73.985,151.81,74.471,152.149,74.471,152.149"/>
	<path fill="#FFFFFF" d="M88.983,164.378c0.901,0,2.519,0.38,3.038,1.998c0.415,1.319,3.113,1.658,4.283,1.599
		c1.167-0.08,0.969,0.559,0.896,1.238c-0.071,0.7-0.269,2.756-0.269,3.597c0,0.818,0.199,3.736,0.343,4.274
		c0.144,0.561-0.343,0.839-0.969,1.12c-0.633,0.281-2.897,0.96-4.354-0.08c-0.774-0.54-1.656-1.3-0.755-1.38
		c0.899-0.059-1.115-7.871-1.672-9.251C88.983,166.097,87.384,164.378,88.983,164.378"/>
	<path fill="#FFFFFF" d="M65.209,148.074c0.361,0.122,0.559,0.481,0.828,0.96c0.271,0.479,0.379,0.898-0.073,1.38
		c-0.755,0.839-1.654,4.634-1.51,7.33c-0.486-0.139-1.528-0.339-2.085-0.198c-0.198-1.519-0.073-6.293,0.627-7.811
		C63.68,148.215,64.383,147.796,65.209,148.074"/>
	<path fill="#FFFFFF" d="M65.336,190.231c1.726,1.919,4.981,4.896,7.408,5.934c2.41,1.04,4.012,1.38,6.149,1.179
		c1.726-0.18,1.387,0.539,0,0.759c-1.382,0.201-4.566,0.201-6.635-0.898c-2.068-1.099-5.358-3.159-7.463-6.154
		C64.31,190.354,64.796,189.594,65.336,190.231"/>
	<path fill="#FFFFFF" d="M101.356,185.377c-1.42,0.639-4.009,1.939-6.509,2.557c0.287,1.259,0.358,1.799,0.358,2.16
		c1.509,0,4.444-1.08,6.835-2.559c0.557-0.361,0.756-0.759,0.557-1.257C102.379,185.796,102.11,185.037,101.356,185.377"/>
	<path fill="#FFFFFF" d="M84.973,179.724c-0.342-0.34,1.618-0.76,2.033-0.76c0.486,0.3,1.366,1.078,1.688,1.417
		c0.218,0.201,0.109,0.34-0.089,0.482c-0.217,0.138-1.42,0.438-1.976,0.478C85.997,180.782,85.134,179.902,84.973,179.724"/>
	<path fill="#FFFFFF" d="M88.641,150.973c-0.557-0.42-0.484-0.62-0.215-1.041c0.268-0.419,0.556-0.679,0.825-0.818
		c0.271-0.139,0.703-0.219,1.17,0.479c0.486,0.678,3.111,5.035,3.67,6.214c0.557,1.177,1.241,0.421,0.97-0.28
		c-0.269-0.679-0.828-1.858-1.042-2.199c0.774-2.356,1.528-5.953,1.528-8.29c0-2.357-0.56-4.715-0.97-5.536
		c1.868,0.062,5.934,0,7.533-0.478c1.583-0.498,0.269-0.62-0.342-0.559c-0.629,0.061-5.088,0.061-8.361-0.339
		c-5.665-0.698-11.241-3.878-13.003-6.095c-0.269-0.34-1.922-0.199-0.54,0.9c1.368,1.118,4.892,4.415,10.09,5.333
		c1.17,0.201,3.038,0.54,3.309,4.835c0.269,4.276-0.144,7.054-0.144,7.453c0,0.42-0.269,0.559-0.613,0.081
		c-0.359-0.48-1.528-2.079-2.139-2.418c-0.63-0.358-1.043-0.28-1.602,0.14c-0.556,0.398-1.381,1.238-1.726,1.658"/>
	<path fill="#FFFFFF" d="M77.511,164.48c-0.524,0-3.633,0.238-4.281,0c-0.665-0.241-1.096-1-0.629-1.301
		c0.557-0.397,1.618,0.1,2.698,0.1c1.061,0,2.212-0.281,2.481-0.1c0.288,0.159,0.665,0.1,0.665,1.399"/>
	<path fill="#FFFFFF" d="M69.975,183.459c-0.898-0.56-1.941-3.115-2.139-8.231c-0.073-1.72,0.611-4.635,1.167-6.014
		c0.559-1.38-0.342-0.819-0.556-0.34c-0.199,0.48-0.899,2.418-1.097,3.857c-0.217,1.458-0.557,3.597,0,6.713
		c0.557,3.118,0.826,4.075,0.972,4.637"/>
	<path fill="#008248" d="M101.589,18.427c0.936,0.12,1.979,0.04,2.212-0.62c0.234-0.658,0.036-1.057-0.271-1.198
		c-0.323-0.139-0.448-0.099-0.323-0.738c0.144-0.62,0.594-0.54,0.559-1.519c-0.038-0.96-0.755-0.998-1.423-0.781
		c-0.648,0.201-0.898,0.5-1.511,1.34c-0.627,0.821-0.339-0.559-0.25-0.8c0.109-0.219,0.358-1.818-0.505-2.097
		c-0.486,0.241-0.953,0.479-1.401,0.72c-0.163,0.3-0.269,0.658-0.396,0.997c-0.359,0.901-0.774,0.222-1.08-0.198c0,0,0,0,0-0.021
		c-0.934,0.521-1.743,0.998-2.353,1.399c-0.055,0.04-0.128,0.099-0.199,0.141c0.071,0.538,0.736,1.236,1.097,1.477
		c0.451,0.321,0.179,0.901-0.378,0.901c-0.559,0-1.243-0.382-1.924,0.458c-0.7,0.821-0.252,1.618,0.413,1.618
		c0.648,0,1.205,0.241,1.439,1c0.253,0.76,0.45,1.08,1.349,1.179c0.901,0.099,1.42-0.58,1.656-1c0.25-0.42,0.557-0.998,0.934-0.858
		c0.576,0.2,0.505,0.778,0.325,1.42c0.647-0.382,1.311-0.741,2.031-1.08c-0.125-0.599-0.469-1.139-0.719-1.378
		C100.545,18.467,100.653,18.326,101.589,18.427"/>
	<path fill="none" stroke="#008248" stroke-width="0.102" d="M101.589,18.427c0.936,0.12,1.979,0.04,2.212-0.62
		c0.234-0.658,0.036-1.057-0.271-1.198c-0.323-0.139-0.448-0.099-0.323-0.738c0.144-0.62,0.594-0.54,0.559-1.519
		c-0.038-0.96-0.755-0.998-1.423-0.781c-0.648,0.201-0.898,0.5-1.511,1.34c-0.627,0.821-0.339-0.559-0.25-0.8
		c0.109-0.219,0.358-1.818-0.505-2.097c-0.486,0.241-0.953,0.479-1.401,0.72c-0.163,0.3-0.269,0.658-0.396,0.997
		c-0.359,0.901-0.774,0.222-1.08-0.198c0,0,0,0,0-0.021c-0.934,0.521-1.743,0.998-2.353,1.399c-0.055,0.04-0.128,0.099-0.199,0.141
		c0.071,0.538,0.736,1.236,1.097,1.477c0.451,0.321,0.179,0.901-0.378,0.901c-0.559,0-1.243-0.382-1.924,0.458
		c-0.7,0.821-0.252,1.618,0.413,1.618c0.648,0,1.205,0.241,1.439,1c0.253,0.76,0.45,1.08,1.349,1.179c0.901,0.099,1.42-0.58,1.656-1
		c0.25-0.42,0.557-0.998,0.934-0.858c0.576,0.2,0.505,0.778,0.325,1.42c0.647-0.382,1.311-0.741,2.031-1.08
		c-0.125-0.599-0.469-1.139-0.719-1.378C100.545,18.467,100.653,18.326,101.589,18.427z"/>
	<path fill="#008248" d="M109.285,8.418c-0.307,0.08-0.646,0.161-0.988,0.259c0.163,0.781,0.486,1.799,0.304,1.96
		c-0.198,0.158-1.005,0.297-1.618,0.476c-0.627,0.16-2.104,1.561-1.349,2.559c0.755,0.998,1.009,1.578,1.134,2.097
		c0.144,0.519,1.385,1.139,2.248,0.102c0.863-1.021,1.528-2.177,1.726-1.439c0.179,0.599,0.125,2.078,0.019,2.875
		c0.179-0.038,0.359-0.078,0.538-0.118C111.641,13.312,110.672,10.557,109.285,8.418"/>
	<path fill="none" stroke="#008248" stroke-width="0.102" d="M109.285,8.418c-0.307,0.08-0.646,0.161-0.988,0.259
		c0.163,0.781,0.486,1.799,0.304,1.96c-0.198,0.158-1.005,0.297-1.618,0.476c-0.627,0.16-2.104,1.561-1.349,2.559
		c0.755,0.998,1.009,1.578,1.134,2.097c0.144,0.519,1.385,1.139,2.248,0.102c0.863-1.021,1.528-2.177,1.726-1.439
		c0.179,0.599,0.125,2.078,0.019,2.875c0.179-0.038,0.359-0.078,0.538-0.118C111.641,13.312,110.672,10.557,109.285,8.418z"/>
	<path fill="#008248" d="M90.332,26.958c-0.486-0.378-0.63-0.958-0.038-1.137c0.575-0.16,1.386-0.302,2.825-0.92
		c1.458-0.62,0.701-1.698,0.036-1.979c-0.649-0.28-0.72-0.899-0.649-1.559c0.073-0.658-0.106-1.618-1.382-1.136
		c-1.278,0.479-0.83,1.736-1.207,2.155c-0.394,0.401-0.592,0.26-0.519-0.358c0.07-0.62-0.486-1.038-0.793-1.179
		c-0.25-0.099-0.774-0.219-1.241-0.259c-1.312,1.198-2.519,2.438-3.434,3.675c0.198,0.42,0.684,0.901,0.934,0.981
		c0.342,0.099,0.863,0.34,0.828,1.038c-0.019,0.58-1.349,0.62-2.213,0.641c0.611,1.656,1.241,2.816,2.104,3.755
		c0.198-0.04,0.451-0.141,0.809-0.281c1.061-0.46,1.403-2.078,1.582-2.557c0.182-0.479,0.63-0.38,0.937,0.238
		c0.215,0.441,0.287,0.839,0.323,1.222c0.611-0.601,1.205-1.179,1.781-1.719C90.837,27.418,90.62,27.199,90.332,26.958"/>
	<path fill="none" stroke="#008248" stroke-width="0.102" d="M90.332,26.958c-0.486-0.378-0.63-0.958-0.038-1.137
		c0.575-0.16,1.386-0.302,2.825-0.92c1.458-0.62,0.701-1.698,0.036-1.979c-0.649-0.28-0.72-0.899-0.649-1.559
		c0.073-0.658-0.106-1.618-1.382-1.136c-1.278,0.479-0.83,1.736-1.207,2.155c-0.394,0.401-0.592,0.26-0.519-0.358
		c0.07-0.62-0.486-1.038-0.793-1.179c-0.25-0.099-0.774-0.219-1.241-0.259c-1.312,1.198-2.519,2.438-3.434,3.675
		c0.198,0.42,0.684,0.901,0.934,0.981c0.342,0.099,0.863,0.34,0.828,1.038c-0.019,0.58-1.349,0.62-2.213,0.641
		c0.611,1.656,1.241,2.816,2.104,3.755c0.198-0.04,0.451-0.141,0.809-0.281c1.061-0.46,1.403-2.078,1.582-2.557
		c0.182-0.479,0.63-0.38,0.937,0.238c0.215,0.441,0.287,0.839,0.323,1.222c0.611-0.601,1.205-1.179,1.781-1.719
		C90.837,27.418,90.62,27.199,90.332,26.958z"/>
	<path fill="#008248" d="M108.674,68.256c0.198-0.04-0.342-2.477,0.109-2.597c0.45-0.101,0.648,1.359,1.618,1.177
		c0.969-0.179,1.205-1.136,1.061-2.216c-0.125-1.057,0.483-0.479,0.969-1.239c0.486-0.757-0.537-1.797-1.726-1.059
		c-1.168,0.719-0.97-0.26-0.34-0.639c0.627-0.38,0.179-1.757-1.132-1.3c-0.953,0.321-1.439-0.297-1.889-0.557
		c-0.361,0.137-0.701,0.278-1.044,0.439c-0.09,0.278-0.017,0.599,0.056,0.938c0.106,0.439,0.304,1.599-0.415,1.118
		c-0.629-0.42-1.491-0.66-1.726,0.142c-0.234,0.778,0.235,0.858,0.179,1.337c-0.071,0.479-1.311,0.58-0.736,1.599
		c0.595,0.998,1.458,0.439,2.049,0.058c0.575-0.379,1.135,0.061,0.936,0.581c-0.163,0.42-0.504,1.778-0.524,2.677
		c0.269,0.179,0.557,0.36,0.863,0.577C107.325,68.954,107.993,68.376,108.674,68.256"/>
	<path fill="none" stroke="#008248" stroke-width="0.102" d="M108.674,68.256c0.198-0.04-0.342-2.477,0.109-2.597
		c0.45-0.101,0.648,1.359,1.618,1.177c0.969-0.179,1.205-1.136,1.061-2.216c-0.125-1.057,0.483-0.479,0.969-1.239
		c0.486-0.757-0.537-1.797-1.726-1.059c-1.168,0.719-0.97-0.26-0.34-0.639c0.627-0.38,0.179-1.757-1.132-1.3
		c-0.953,0.321-1.439-0.297-1.889-0.557c-0.361,0.137-0.701,0.278-1.044,0.439c-0.09,0.278-0.017,0.599,0.056,0.938
		c0.106,0.439,0.304,1.599-0.415,1.118c-0.629-0.42-1.491-0.66-1.726,0.142c-0.234,0.778,0.235,0.858,0.179,1.337
		c-0.071,0.479-1.311,0.58-0.736,1.599c0.595,0.998,1.458,0.439,2.049,0.058c0.575-0.379,1.135,0.061,0.936,0.581
		c-0.163,0.42-0.504,1.778-0.524,2.677c0.269,0.179,0.557,0.36,0.863,0.577C107.325,68.954,107.993,68.376,108.674,68.256z"/>
	<path fill="#008248" d="M89.846,65.879c0.521-0.139,1.509,0.92,2.41,0.3c0.899-0.62-0.377-1.238-0.198-1.757
		c0.16-0.519,0.575-1.519-0.038-2c-0.627-0.479-1.274-0.038-1.941,0.679c-0.649,0.741-0.413-0.658-0.073-1.236
		c0.453-0.76,0-1.281-0.755-1.42c-0.755-0.141-1.005,0.939-1.509,0.46c-0.825-0.781-2.123-0.46-1.797,0.62
		c0.304,1.057,0.646,1.418,0,1.557c-0.665,0.142-1.278-1.599-2.052-0.219c-0.755,1.38,0.45,1.799,0.361,2.838
		c-0.109,1.038,0.304,2.136,0.917,2.235c0.627,0.123,1.276-0.577,1.637-0.997c0.34-0.399,1.167-0.719,1.061,0.081
		c-0.073,0.54-0.109,1.676-0.128,2.337c1.278-0.618,2.644-1.26,3.382-1.519c0.034,0,0.052-0.019,0.09-0.019
		c-0.345-0.142-0.847-0.38-1.297-0.698C89.217,66.638,89.325,66.021,89.846,65.879"/>
	<path fill="none" stroke="#008248" stroke-width="0.102" d="M89.846,65.879c0.521-0.139,1.509,0.92,2.41,0.3
		c0.899-0.62-0.377-1.238-0.198-1.757c0.16-0.519,0.575-1.519-0.038-2c-0.627-0.479-1.274-0.038-1.941,0.679
		c-0.649,0.741-0.413-0.658-0.073-1.236c0.453-0.76,0-1.281-0.755-1.42c-0.755-0.141-1.005,0.939-1.509,0.46
		c-0.825-0.781-2.123-0.46-1.797,0.62c0.304,1.057,0.646,1.418,0,1.557c-0.665,0.142-1.278-1.599-2.052-0.219
		c-0.755,1.38,0.45,1.799,0.361,2.838c-0.109,1.038,0.304,2.136,0.917,2.235c0.627,0.123,1.276-0.577,1.637-0.997
		c0.34-0.399,1.167-0.719,1.061,0.081c-0.073,0.54-0.109,1.676-0.128,2.337c1.278-0.618,2.644-1.26,3.382-1.519
		c0.034,0,0.052-0.019,0.09-0.019c-0.345-0.142-0.847-0.38-1.297-0.698C89.217,66.638,89.325,66.021,89.846,65.879z"/>
	<path fill="#008248" d="M74.544,97.347c1.58-0.479,1.653,0.76,1.439,1.797c-0.198,1.04-0.198,3.26-0.128,4.359l2.628,0.136
		c-0.147-0.698,0-2.696,0.052-3.875c0.071-1.177,1.259-2.976,1.675-1.177c0.41,1.798,2.21,1.877,3.45,1.119
		c1.243-0.76,2.139-2.418,3.453-4.776c1.314-2.357-0.413-2.977-1.455-2.837c-1.026,0.141-2.071,0.28,0.288-1.658
		c2.174-1.798-1.496-2.696-3.185-3.036c-2.787,2.915-6.202,6.232-9.259,8.849c-0.396,0.321-0.757,0.642-1.099,0.96
		C72.761,97.407,73.482,97.667,74.544,97.347"/>
	<path fill="none" stroke="#008248" stroke-width="0.102" d="M74.544,97.347c1.58-0.479,1.653,0.76,1.439,1.797
		c-0.198,1.04-0.198,3.26-0.128,4.359l2.628,0.136c-0.147-0.698,0-2.696,0.052-3.875c0.071-1.177,1.259-2.976,1.675-1.177
		c0.41,1.798,2.21,1.877,3.45,1.119c1.243-0.76,2.139-2.418,3.453-4.776c1.314-2.357-0.413-2.977-1.455-2.837
		c-1.026,0.141-2.071,0.28,0.288-1.658c2.174-1.798-1.496-2.696-3.185-3.036c-2.787,2.915-6.202,6.232-9.259,8.849
		c-0.396,0.321-0.757,0.642-1.099,0.96C72.761,97.407,73.482,97.667,74.544,97.347z"/>
	<path fill="#008248" d="M71.775,114.769c1.311-0.419,2.137,2.418,4.08,0.759c1.925-1.657,0.54-3.035,0.486-4.436
		c-0.07-1.378,1.509-1.918,1.024-3.655c-0.736-2.637-3.182-0.139-4.693,1.319c-1.529,1.438-1.599,0.28-0.071-2.078
		c1.528-2.359-0.972-3.116-2.481-2.476c-1.349,0.538-2.59,0-3.399-0.698c-0.575,0.918-1.007,1.797-1.439,2.695
		c-1.313,2.696-0.413,2.757,0.54,2.757c0.972,0,3.057,4.076,3.326,4.836c0.089,0.278,0.811,1.318,1.745,2.637
		C70.839,115.766,70.963,115.028,71.775,114.769"/>
	<path fill="none" stroke="#008248" stroke-width="0.102" d="M71.775,114.769c1.311-0.419,2.137,2.418,4.08,0.759
		c1.925-1.657,0.54-3.035,0.486-4.436c-0.07-1.378,1.509-1.918,1.024-3.655c-0.736-2.637-3.182-0.139-4.693,1.319
		c-1.529,1.438-1.599,0.28-0.071-2.078c1.528-2.359-0.972-3.116-2.481-2.476c-1.349,0.538-2.59,0-3.399-0.698
		c-0.575,0.918-1.007,1.797-1.439,2.695c-1.313,2.696-0.413,2.757,0.54,2.757c0.972,0,3.057,4.076,3.326,4.836
		c0.089,0.278,0.811,1.318,1.745,2.637C70.839,115.766,70.963,115.028,71.775,114.769z"/>
	<path fill="#008248" d="M92.021,96.528c-0.123-1.318,0.684-2.698,2.483-1.939c1.8,0.76,2.913,0.14,3.668-0.479
		c0.755-0.639,3.993-1.399,3.524,1.439c-0.34,2.078-1.311,2.136-1.599,3.255c-0.269,1.099,0.557,0.419,1.043-0.42
		c0.486-0.816,1.585-4.214,3.868-1.655c0.556,0.618,0.339,1.655-0.342,2.835c-0.684,1.179-0.145,1.859,0.269,2.479
		c0.412,0.62,1.384,3.677-2.069,3.875c-1.24,0.062-2.769-0.279-2.769-0.279c-0.127,1.318-1.401,3.196-2.679,5.113
		c-0.144,0.2-0.899,0.2-1.26-0.059c-0.339-0.28-1.311-0.759-0.538-1.598c0.756-0.819,1.995-2.557,1.797-3.316
		c-0.217-0.76-0.774-1.46-1.599-0.419c-0.831,1.039-2.142,3.177-3.6,3.257c-1.438,0.061-2.894-1.239-2.212-2.557
		c0.703-1.321,0.901-2-0.052-3.179c-0.972-1.177-0.613-2.675,1.439-3.595c0.627-0.279,1.726,0,2.5,0.618
		c0.755,0.62,1.168,0,0.125-0.618C92.992,98.668,92.147,97.908,92.021,96.528"/>
	<path fill="none" stroke="#008248" stroke-width="0.102" d="M92.021,96.528c-0.123-1.318,0.684-2.698,2.483-1.939
		c1.8,0.76,2.913,0.14,3.668-0.479c0.755-0.639,3.993-1.399,3.524,1.439c-0.34,2.078-1.311,2.136-1.599,3.255
		c-0.269,1.099,0.557,0.419,1.043-0.42c0.486-0.816,1.585-4.214,3.868-1.655c0.556,0.618,0.339,1.655-0.342,2.835
		c-0.684,1.179-0.145,1.859,0.269,2.479c0.412,0.62,1.384,3.677-2.069,3.875c-1.24,0.062-2.769-0.279-2.769-0.279
		c-0.127,1.318-1.401,3.196-2.679,5.113c-0.144,0.2-0.899,0.2-1.26-0.059c-0.339-0.28-1.311-0.759-0.538-1.598
		c0.756-0.819,1.995-2.557,1.797-3.316c-0.217-0.76-0.774-1.46-1.599-0.419c-0.831,1.039-2.142,3.177-3.6,3.257
		c-1.438,0.061-2.894-1.239-2.212-2.557c0.703-1.321,0.901-2-0.052-3.179c-0.972-1.177-0.613-2.675,1.439-3.595
		c0.627-0.279,1.726,0,2.5,0.618c0.755,0.62,1.168,0,0.125-0.618C92.992,98.668,92.147,97.908,92.021,96.528z"/>
	<path fill="#008248" d="M109.573,87.537c-1.241-0.281-2.858-0.479-3.038,2.078c-0.073,0.957,0.899,1.717,1.798,2.078
		c0.901,0.339,0.755,0.96-0.217,0.62c-0.969-0.361-1.726-0.562-2.408,1.439c-0.7,2.016,0.541,2.276,1.168,2.415
		c0.632,0.141,1.099,0.28,0.972,1.12c-0.142,0.818-0.557,3.236,1.026,3.455c1.601,0.2,2.983-1.736,3.469-2.698
		c0.467-0.976,1.026-1.936,1.17-0.837c0.144,1.118-0.071,1.658-0.63,2.897c-0.54,1.259-0.54,1.799,0.287,1.738
		c0.828-0.08,2.213,0,2.626-0.957c0.415-0.982,1.026-2.84,1.099-4.156c0.052-0.82,0.774-0.92,1.292-0.858
		c0.163-1.42,0.378-2.778,0.576-3.977c-2.715,0.399-5.017-2.917-5.826-5.773C112.019,87.118,110.653,87.775,109.573,87.537"/>
	<path fill="none" stroke="#008248" stroke-width="0.102" d="M109.573,87.537c-1.241-0.281-2.858-0.479-3.038,2.078
		c-0.073,0.957,0.899,1.717,1.798,2.078c0.901,0.339,0.755,0.96-0.217,0.62c-0.969-0.361-1.726-0.562-2.408,1.439
		c-0.7,2.016,0.541,2.276,1.168,2.415c0.632,0.141,1.099,0.28,0.972,1.12c-0.142,0.818-0.557,3.236,1.026,3.455
		c1.601,0.2,2.983-1.736,3.469-2.698c0.467-0.976,1.026-1.936,1.17-0.837c0.144,1.118-0.071,1.658-0.63,2.897
		c-0.54,1.259-0.54,1.799,0.287,1.738c0.828-0.08,2.213,0,2.626-0.957c0.415-0.982,1.026-2.84,1.099-4.156
		c0.052-0.82,0.774-0.92,1.292-0.858c0.163-1.42,0.378-2.778,0.576-3.977c-2.715,0.399-5.017-2.917-5.826-5.773
		C112.019,87.118,110.653,87.775,109.573,87.537z"/>
	<path fill="#008248" d="M96.643,87.059c-0.486,0.818-1.851,3.175-1.24,3.934c0.63,0.759,1.311-0.76,1.87-0.198
		c0.559,0.538,1.799,1.158,1.799,0.76c0-0.42,0.125-1.26,0.34-2.359c0.198-1.099,0.684-1.717,1.17-0.821
		c0.486,0.882,1.186,1.639,2.913,1.241c1.726-0.42,1.512-2.217,1.17-3.538c-0.342-1.297,0.898-1.918,1.528-2.276
		c0.61-0.34,2.21-1.578,1.026-2.698c-1.17-1.099-2.212,0.5-3.238,0.7c-1.043,0.198-0.63-0.7,1.512-2.359
		c1.851-1.42,0.304-2.859-0.827-3.356c-2.97,2.997-8.239,7.851-9.406,8.969c-0.412,0.382-0.774,0.858-1.097,1.42
		C96.931,85.179,97.11,86.257,96.643,87.059"/>
	<path fill="none" stroke="#008248" stroke-width="0.102" d="M96.643,87.059c-0.486,0.818-1.851,3.175-1.24,3.934
		c0.63,0.759,1.311-0.76,1.87-0.198c0.559,0.538,1.799,1.158,1.799,0.76c0-0.42,0.125-1.26,0.34-2.359
		c0.198-1.099,0.684-1.717,1.17-0.821c0.486,0.882,1.186,1.639,2.913,1.241c1.726-0.42,1.512-2.217,1.17-3.538
		c-0.342-1.297,0.898-1.918,1.528-2.276c0.61-0.34,2.21-1.578,1.026-2.698c-1.17-1.099-2.212,0.5-3.238,0.7
		c-1.043,0.198-0.63-0.7,1.512-2.359c1.851-1.42,0.304-2.859-0.827-3.356c-2.97,2.997-8.239,7.851-9.406,8.969
		c-0.412,0.382-0.774,0.858-1.097,1.42C96.931,85.179,97.11,86.257,96.643,87.059z"/>
	<path fill="#008248" d="M113.781,114.828c0.901,0.84,3.04,2.019,4.569,0.62c1.511-1.38-0.343-2.896-0.559-3.995
		c-0.196-1.121,1.118-1.8,0.415-3.597c-1.206-3.137-2.968,0.618-4.01,1.657c-1.027,1.041-0.863-0.719,0.071-1.657
		c0.486-0.479,2.627-1.797,1.387-3.257c-1.241-1.437-3.04-0.62-3.939,0c-0.901,0.62-1.585,1.38-2.967,0.979
		c-1.387-0.42-2.554-0.56-3.401,1.438c-0.825,2.019,0.773,1.458,2.088,2.918c1.313,1.438,0.486,1.519-0.559,1.158
		c-1.043-0.34-1.529-1.658-3.038-1.439c-1.528,0.201-1.528,2.618-1.042,3.238c0.486,0.62,1.457,0.979,0.773,2.158
		c-0.703,1.158,0.34,2.557,1.58,3.094c1.241,0.561,3.113-1.655,3.797-2.556c0.701-0.898,1.382-0.679,1.241,0
		c-0.109,0.599-0.433,2.158-0.486,3.476c1.061-0.339,2.104-0.658,3.092-0.939c0-0.719-0.144-1.877-0.451-3.016
		C111.912,113.59,112.882,114.01,113.781,114.828"/>
	<path fill="none" stroke="#008248" stroke-width="0.102" d="M113.781,114.828c0.901,0.84,3.04,2.019,4.569,0.62
		c1.511-1.38-0.343-2.896-0.559-3.995c-0.196-1.121,1.118-1.8,0.415-3.597c-1.206-3.137-2.968,0.618-4.01,1.657
		c-1.027,1.041-0.863-0.719,0.071-1.657c0.486-0.479,2.627-1.797,1.387-3.257c-1.241-1.437-3.04-0.62-3.939,0
		c-0.901,0.62-1.585,1.38-2.967,0.979c-1.387-0.42-2.554-0.56-3.401,1.438c-0.825,2.019,0.773,1.458,2.088,2.918
		c1.313,1.438,0.486,1.519-0.559,1.158c-1.043-0.34-1.529-1.658-3.038-1.439c-1.528,0.201-1.528,2.618-1.042,3.238
		c0.486,0.62,1.457,0.979,0.773,2.158c-0.703,1.158,0.34,2.557,1.58,3.094c1.241,0.561,3.113-1.655,3.797-2.556
		c0.701-0.898,1.382-0.679,1.241,0c-0.109,0.599-0.433,2.158-0.486,3.476c1.061-0.339,2.104-0.658,3.092-0.939
		c0-0.719-0.144-1.877-0.451-3.016C111.912,113.59,112.882,114.01,113.781,114.828z"/>
	<path fill="#008248" d="M86.898,112.132c1.474,0.08,3.056-0.398,4.297-1.3c1.24-0.898,4.476-0.42,3.166,1.858
		c-1.311,2.279-0.882,2.757-0.128,1.94c0.755-0.84,1.727-2.359,3.184-1.94c1.439,0.42,0.828,1.519-0.07,2.757
		c-0.901,1.26-0.361,2.078,0.339,2.559c0.684,0.477,1.962,3.095-1.868,4.215c-1.656,0.479-1.925-0.281-3.04-0.679
		c-1.097-0.421-1.168,0.54-0.413,1.719c0.754,1.177,1.58,2.276,0.684,2.276c-0.902,0-1.585,0.138-1.726,0.839
		c-0.128,0.679-1.585-0.138-1.925-1.599c-0.345-1.439-0.703-4.214-1.457-2.837c-0.755,1.398-1.458,3.677-3.383,2.637
		c-1.941-1.037-0.627-2.415-1.599-3.396c-0.953-0.957-1.854-2.198-0.901-3.933c0.972-1.72,1.799-0.281,2.698-0.281
		c0.901,0,1.042-0.819,0.217-1.439C84.145,114.909,83.103,111.931,86.898,112.132"/>
	<path fill="none" stroke="#008248" stroke-width="0.102" d="M86.898,112.132c1.474,0.08,3.056-0.398,4.297-1.3
		c1.24-0.898,4.476-0.42,3.166,1.858c-1.311,2.279-0.882,2.757-0.128,1.94c0.755-0.84,1.727-2.359,3.184-1.94
		c1.439,0.42,0.828,1.519-0.07,2.757c-0.901,1.26-0.361,2.078,0.339,2.559c0.684,0.477,1.962,3.095-1.868,4.215
		c-1.656,0.479-1.925-0.281-3.04-0.679c-1.097-0.421-1.168,0.54-0.413,1.719c0.754,1.177,1.58,2.276,0.684,2.276
		c-0.902,0-1.585,0.138-1.726,0.839c-0.128,0.679-1.585-0.138-1.925-1.599c-0.345-1.439-0.703-4.214-1.457-2.837
		c-0.755,1.398-1.458,3.677-3.383,2.637c-1.941-1.037-0.627-2.415-1.599-3.396c-0.953-0.957-1.854-2.198-0.901-3.933
		c0.972-1.72,1.799-0.281,2.698-0.281c0.901,0,1.042-0.819,0.217-1.439C84.145,114.909,83.103,111.931,86.898,112.132z"/>
	<polyline fill="#FFFFFF" points="166.47,46.659 164.421,48.117 169.133,54.77 166.435,56.69 161.866,49.874 159.746,51.374 
		163.937,57.728 161.239,59.624 154.494,50.015 166.742,41.345 174.168,51.775 171.471,53.69 	"/>
	<polyline fill="#FFFFFF" points="169.852,67.138 172.603,73.11 168.593,74.969 164.277,65.219 177.532,59.466 179.221,63.223 	"/>
	<polyline fill="#FFFFFF" points="171.4,84.999 170.985,81.304 179.869,80.266 179.527,74.888 183.518,74.591 184.617,87.516 
		180.64,87.818 180.301,83.96 	"/>
	<polyline fill="#FFFFFF" points="171.49,98.306 171.435,93.91 184.508,93.87 184.563,98.266 	"/>
	<path fill="#FFFFFF" d="M178.396,116.187c1.221-0.739,1.761-1.677,1.941-2.755c0.451-2.717-0.969-4.995-3.453-5.356
		c-2.357-0.34-4.262,0.719-4.965,3.077c-0.359,1.217-0.232,2.437,0.109,3.236l-3.453,1.161c-0.467-1.661-0.701-3.519-0.413-4.958
		c0.413-2.255,1.186-3.495,2.804-4.733c1.816-1.379,4.425-1.738,6.602-1.318c2.014,0.38,3.92,1.399,5.035,3.356
		c1.151,2.017,1.745,3.736,1.276,6.234c-0.287,1.479-1.618,3.575-3.344,4.637"/>
	<path fill="#FFFFFF" d="M171.541,127.634c-1.995,1.88-5.448,4.138-6.814,4.258c-1.8,0.158-2.337-0.84-2.644-2.436
		c-0.233-1.221-0.019-3.137,0.54-4.796c0.484-1.418,1.654-2.836,2.714-3.718l2.159,0.959c-1.168,0.781-1.925,1.998-2.408,3.458
		c-0.344,0.998-0.632,2.517,0.359,2.857c1.113,0.358,3.524-2.057,4.227-2.736c1.186-1.138,3.684-3.158,5.503-2.68
		c1.205,0.302,3.434,2.819,2.571,6.934c-0.361,1.698-0.969,3.516-2.177,4.736l-2.967-1.978c0.846-0.6,1.33-2.199,1.691-3.239
		c0.253-0.778,0.307-2.016-0.431-2.416C173.414,126.578,172.55,126.677,171.541,127.634"/>
	<path fill="#FFFFFF" d="M155.394,36.628c-0.163-1.439-0.523-2.396-1.42-3.016c-2.302-1.516-4.875-1.078-6.349,0.96
		c-1.189,1.618-1.097,4.175,0.774,5.774c0.952,0.84,2.122,1.217,2.986,1.238l-0.378,3.616c-1.693-0.238-3.491-0.819-4.677-1.656
		c-1.889-1.32-2.698-2.519-3.165-4.516c-0.502-2.22,0.233-4.736,1.512-6.555c1.184-1.679,3.271-3.115,5.519-3.415
		c2.212-0.281,4.297,0.118,6.061,1.658c1.132,0.979,2.248,3.316,2.5,5.332"/>
	<path fill="#FFFFFF" d="M21.962,110.314c0.071-3.856,1.977-5.774,3.057-6.014c1.759-0.358,2.66-0.08,3.863,0.978
		c1.259,1.121,1.799,2.319,2.16,4.017c0.323,1.48,0.448,3.199,0,4.496l-2.788,0.278c0.611-1.257,0.179-2.436-0.127-3.933
		c-0.231-1.02-0.896-2.038-1.941-1.819c-1.061,0.238-1.007,2.038-1.097,3.036c-0.326,3.157-1.349,5.217-3.326,5.433
		c-1.854,0.203-4.118-1.019-4.91-4.773c-0.358-1.698-0.198-4.014,0.217-5.674h2.911c-0.413,0.938-0.717,3.297-0.486,4.377
		c0.165,0.797,0.792,1.797,1.62,1.757C21.781,112.432,21.943,111.033,21.962,110.314"/>
	<polyline fill="#FFFFFF" points="29.531,92.153 29.566,95.389 19.264,95.509 19.3,100.184 15.991,100.224 15.863,87.917 
		19.175,87.877 19.208,92.271 	"/>
	<polyline fill="#FFFFFF" points="36.923,55.548 28.057,49.997 30.017,46.94 43.02,54.43 40.501,58.308 29.944,58.487 
		29.927,58.525 37.892,63.122 35.935,66.598 23.13,59.166 24.821,55.909 	"/>
	<path fill="#FFFFFF" d="M24.981,78.985c2.302,0,4.173-1.856,4.173-4.156c0-2.297-1.87-4.177-4.173-4.177
		c-2.283,0-4.153,1.88-4.153,4.177C20.828,77.129,22.698,78.985,24.981,78.985 M16.998,74.83c0-4.415,3.578-7.994,7.984-7.994
		c4.425,0,8.003,3.578,8.003,7.994c0,4.396-3.578,7.972-8.003,7.972C20.576,82.802,16.998,79.226,16.998,74.83z"/>
	<path fill="#FFFFFF" d="M30.142,131.532c2.285,0,4.156-1.859,4.156-4.157c0-2.297-1.87-4.155-4.156-4.155
		c-2.302,0-4.17,1.858-4.17,4.155C25.972,129.673,27.84,131.532,30.142,131.532 M22.158,127.375c0-4.414,3.561-7.99,7.984-7.99
		c4.406,0,7.986,3.576,7.986,7.99c0,4.416-3.58,7.994-7.986,7.994C25.719,135.369,22.158,131.791,22.158,127.375z"/>
	<path fill="#FFFFFF" d="M42.208,148.537c-0.394-0.463-3.559-4.317-4.835-3.1c-1.349,1.26,1.797,3.736,2.858,4.996 M47.336,144.22
		l-0.344-0.419c-0.807-0.96-3.632-4.557-4.765-3.498c-1.221,1.158,1.764,4.316,2.644,5.375l0.271,0.321L47.336,144.22z
		 M39.081,141.923c-1.151-1.76-0.556-4.338,0.665-5.415c2.481-2.199,6.654,2.834,8.147,4.736l4.297,4.993l-10.609,8.771
		l-3.993-3.936c-2.861-2.856-6.347-6.474-3.469-8.969C35.286,141.083,37.821,141.303,39.081,141.923z"/>
</g>
</svg>
