<svg version="1.1" id="Layer_1" xmlns="http://www.w3.org/2000/svg" xmlns:xlink="http://www.w3.org/1999/xlink" x="0px" y="0px" viewBox="0 0 200 200" enable-background="new 0 0 200 200" xml:space="preserve" preserveAspectRatio="xMidYMid">
<g>
	<g>
		<path fill="#231F20" d="M197.938,27.108c0.018-2.082,0.018-3.256,0.018-3.256v-2.555l-2.31-1.163
			C194.022,19.31,155.176,0,101.238,0h-2.504C44.836,0,5.954,19.31,4.329,20.134l-2.31,1.163v2.555c0,0,0,1.172,0.018,3.129
			c-0.437,22.962,2.379,81.258,38.039,126.553c28.918,36.76,56.021,45.289,59.012,46.135l1.164,0.332l1.156-0.326
			c1.166-0.328,28.775-8.387,58.487-46.141C195.589,108.225,198.393,49.998,197.938,27.108"/>
		<path fill="#FFFFFF" d="M157.338,151.515c34.918-44.341,37.664-101.463,37.213-123.961c0.024-2.091,0.024-3.248,0.024-3.253
			v-0.847l-0.769-0.383c-1.593-0.807-39.624-19.708-92.573-19.708H98.74c-52.912,0-90.976,18.901-92.571,19.708l-0.768,0.383v0.847
			c0,0.006,0,1.162,0.02,3.127c-0.435,22.57,2.325,79.762,37.223,124.087c28.201,35.849,54.34,44.084,57.228,44.898l0.385,0.111
			l0.382-0.105C101.761,196.106,128.349,188.332,157.338,151.515 M100.254,193.764c-2.203-0.625-28.006-8.563-55.725-43.806
			C8,103.56,7.838,42.803,8.113,28.495c-0.022-2.01-0.022-3.144-0.022-3.144s0.04-0.019,0.116-0.058l-0.003-0.123l0.82-0.378
			c1.937-0.886,6.262-2.778,12.526-5.029C37.12,14.068,64.994,6.064,98.755,6.064h2.46c33.686,0,61.496,7.958,77.087,13.652
			c6.33,2.27,10.702,4.183,12.651,5.074l0.818,0.375v0.127c0.074,0.039,0.116,0.058,0.116,0.058s0,1.135-0.024,3.144
			c0.282,14.308,0.136,75.064-36.411,121.462C127.658,185.27,102.365,193.18,100.254,193.764"/>
		<path fill="#FFFFFF" d="M57.085,18.45c-2.43,0.49-3.606,0.743-5.988,1.295c-0.466,0.106-0.793,0.523-0.788,1.001l0.494,44.417
			c0,2.951,0.08,5.658,0.197,8.084c-6.001-15.345-12.255-31.23-18.628-47.313c-0.199-0.502-0.754-0.762-1.266-0.59
			c-3.545,1.174-5.262,1.78-8.748,3.096c-0.396,0.15-0.658,0.529-0.658,0.952v61.059c0,0.334,0.163,0.648,0.438,0.836
			c0.172,0.121,0.374,0.181,0.579,0.181c0.121,0,0.243-0.021,0.36-0.065c2.155-0.815,3.239-1.208,5.527-2.003
			c0.412-0.143,0.686-0.532,0.684-0.966c-0.083-14.445-0.164-28.888-0.242-43.328c0-3.8-0.046-5.924-0.166-8.616
			c6.265,15.939,12.361,31.546,18.155,46.471c0.186,0.477,0.696,0.747,1.193,0.619c3.719-0.919,5.538-1.326,9.261-2.078
			c0.475-0.095,0.816-0.512,0.816-0.997V19.447c0-0.305-0.137-0.595-0.373-0.788C57.695,18.466,57.382,18.387,57.085,18.45z
			 M97.511,14.074c-10.553,0.173-21.192,1.109-31.62,2.783c-0.494,0.078-0.857,0.504-0.857,1.003v61.059
			c0,0.297,0.13,0.581,0.358,0.774c0.185,0.158,0.419,0.243,0.659,0.243c0.053,0,0.108-0.004,0.161-0.013
			c10.29-1.65,20.789-2.577,31.205-2.755c0.554-0.01,1-0.463,1-1.017v-3.806c0-0.272-0.109-0.534-0.303-0.725
			c-0.194-0.192-0.475-0.297-0.731-0.292c-9.756,0.167-14.97,0.535-24.297,1.745V48.92c7.741-1.011,11.83-1.342,19.933-1.641
			c0.545-0.02,0.979-0.47,0.979-1.017v-3.72c0-0.276-0.113-0.541-0.312-0.733c-0.198-0.192-0.467-0.297-0.743-0.284
			c-7.927,0.294-12.199,0.636-19.732,1.608V21.66c9.496-1.235,14.449-1.583,24.333-1.746c0.556-0.01,1.001-0.463,1.001-1.018V15.09
			c0-0.273-0.11-0.534-0.304-0.724C98.044,14.174,97.774,14.065,97.511,14.074z M141.385,17.611
			c-12.395-2.272-25.065-3.496-37.655-3.64c-0.277-0.006-0.534,0.103-0.726,0.296c-0.195,0.19-0.303,0.451-0.303,0.722v3.891
			c0,0.557,0.449,1.01,1.006,1.017c5.901,0.067,8.935,0.197,14.518,0.642v56.318c0,0.529,0.405,0.97,0.933,1.013
			c2.462,0.201,3.667,0.317,6.14,0.587c0.038,0.005,0.076,0.007,0.111,0.007c0.251,0,0.493-0.092,0.68-0.261
			c0.216-0.193,0.338-0.469,0.338-0.756V21.33c5.603,0.628,8.684,1.092,14.59,2.174c0.305,0.058,0.604-0.025,0.837-0.218
			c0.23-0.194,0.365-0.479,0.365-0.782v-3.891C142.219,18.121,141.869,17.7,141.385,17.611z M167.529,54.026
			c-12.991-13.428-14.48-15.6-14.48-21.125c0-5.465,2.393-6.202,4.732-6.202c1.221,0,2.719,0.253,4.45,0.751
			c9.393,2.699,9.393,7.821,9.393,11.622l0.001,5.451c0,0.436,0.278,0.823,0.69,0.963c2.272,0.771,3.405,1.175,5.777,2.054
			c0.313,0.116,0.66,0.071,0.934-0.119c0.273-0.191,0.435-0.503,0.435-0.835v-4.56c0.003-5.753,0.003-15.382-16.793-20.2
			c-11.746-3.369-17.738,0.233-17.738,10.426c0,8.466,5.188,13.533,13.783,21.927l1.736,1.698
			c10.203,10.001,12.267,13.305,12.267,19.638c0,2.275-0.342,3.866-1.05,4.862c-0.718,1.011-1.871,1.482-3.63,1.482
			c-1.356,0-3.079-0.298-5.121-0.886c-4.459-1.285-7.699-3.038-9.627-5.212c-2.345-2.644-2.345-4.886-2.345-9.354v-4.841
			c0-0.476-0.33-0.889-0.793-0.993c-2.509-0.565-3.707-0.818-6.12-1.289c-0.302-0.055-0.61,0.02-0.843,0.213
			c-0.235,0.194-0.37,0.481-0.37,0.786v8.562c0,8.051,6.586,14.188,19.048,17.747c3.515,1.003,6.557,1.513,9.042,1.513l0,0
			c9.763-0.002,9.763-7.869,9.763-11.228C180.67,68.023,176.164,62.953,167.529,54.026z"/>
		<g>
			<path fill="#FFFFFF" d="M138.027,126.478c0.689-0.715,1.244-1.5,1.658-2.335c3.206-6.156,0.333-13.057-0.869-15.456
				c-8.917-14.718-25.756-23.381-43.316-21.696C113.677,87.974,131.289,104.238,138.027,126.478z M78.595,108.428
				c4.385,1.837,10.133,4.927,16.218,8.196c9.602,5.157,19.529,10.495,26.244,12.168c5.986,1.482,10.904,1.35,14.356-0.383
				c-0.014-0.066-0.025-0.131-0.04-0.196c-0.05-0.247-0.099-0.489-0.169-0.733c-2.918-12.239-18.228-39.026-44.751-39.026
				c-1.115,0-2.253,0.062-3.388,0.158c-10.261,2.968-18.694,9.27-24.411,17.415c0.966-0.311,2.236-0.588,3.954-0.588
				C69.847,105.438,73.88,106.443,78.595,108.428z M71.993,145.363c10.773,3.551,16.756,4.69,24.614,4.69
				c2.864,0,6.128-0.165,10.268-0.51c11.494-0.989,23.598-4.789,30.111-7.946c-0.015-3.156-0.303-6.362-0.86-9.544
				c-1.93,1.17-4.108,1.718-6.796,1.718c-2.707,0-5.974-0.519-11.283-1.788c-6.268-1.488-15.229-6.825-23.132-11.533
				c-4.338-2.584-8.438-5.023-11.819-6.694c-12.908-6.383-20.241-5.491-22.188-5.067c-4.606,7.658-6.924,16.671-6.328,25.959
				C55.449,135.886,59.855,141.364,71.993,145.363z M140.067,139.862c0.117-0.079,0.227-0.158,0.33-0.23
				c3.818-2.66,4.804-6.967,4.944-7.677c-0.009-3.612-0.449-7.282-1.38-10.947c-0.036-0.148-0.083-0.288-0.123-0.434
				c-0.356,3.359-1.998,6.473-4.924,9.258C139.684,133.185,140.072,136.554,140.067,139.862z M141.169,142.341
				c-0.156,0.111-0.311,0.225-0.467,0.341c-0.248,0.184-0.499,0.37-0.773,0.554c-0.217,2.882-0.746,5.738-1.57,8.5
				c1.435-0.501,1.926,0.076,2.066,0.409c0.02,0.047,0.03,0.093,0.044,0.142c2.348-4.615,3.903-9.638,4.542-14.863
				C144.287,139.165,143.109,140.985,141.169,142.341z M139.429,153.609c-0.037-0.18-0.077-0.187-0.173-0.187
				c-0.137,0-0.458,0.063-1.094,0.477c-0.111,0.08-0.236,0.161-0.359,0.241c-0.111,0.075-0.219,0.145-0.315,0.215
				c-1.141,3.007-2.634,5.846-4.355,8.38c2.498-2.66,4.658-5.606,6.438-8.768h-0.064L139.429,153.609z M92.883,172.75
				c5.183-0.61,9.479-1.919,14.365-4.375c0.718-0.35,1.417-0.713,2.115-1.079c0.593-0.308,1.184-0.617,1.785-0.917
				c4.148-2.174,8.593-4.533,13.984-7.42c1.902-1.021,3.795-2.101,5.628-3.147l2.149-1.199c0.831-0.443,1.614-0.866,2.401-1.342
				c0.071-0.047,0.163-0.106,0.262-0.166c0.686-2.523,1.135-5.259,1.342-8.15c-5.291,2.647-13.243,4.979-24.912,7.318
				c-14.93,2.973-29.541,1.637-42.583-3.866c-8.766-3.694-12.919-8.807-14.653-11.623c0.225,2.002,0.575,4.012,1.081,6.022
				c2.872,11.379,9.863,20.661,18.995,26.678l-0.044-0.075l1.286,0.76c1.038,0.616,2.334,1.149,3.849,1.587
				c2.849,0.852,5.657,1.269,8.589,1.269C89.912,173.024,91.338,172.932,92.883,172.75z M134.212,156.666
				c-0.584,0.414-1.179,0.84-1.827,1.289c-1.711,1.19-3.382,2.196-5.15,3.261c-0.829,0.499-1.68,1.009-2.561,1.558
				c-6.079,3.762-13.348,7.929-21.151,10.319c-2.267,0.704-4.353,1.203-6.375,1.525c-1.878,0.28-3.639,0.416-5.393,0.416
				l-0.34-0.003c-2.3-0.013-4.539-0.227-6.68-0.627c8.155,2.896,17.227,3.521,26.256,1.283c5.177-1.283,9.915-3.409,14.118-6.184
				c4.025-3.15,7.283-7.629,9.371-13.03C134.39,156.538,134.301,156.602,134.212,156.666z"/>
			<path fill="#FFFFFF" d="M117.89,141.135c0-3.31,0-8.228-3.91-12.042c0.423-0.746,0.782-1.551,1.053-2.415
				c0.659-1.973,0.712-4.132,0.677-5.538l-0.017-9.108v-0.138c-0.105-3.389-0.62-6.968-3.381-10.074
				c-2.488-2.799-6.226-4.268-10.813-4.268l-12.364,0.031c-1.344,0-2.686,0.526-3.666,1.509c-0.964,0.966-1.521,2.274-1.521,3.657
				l0.115,59.815c0,1.784,0.912,3.427,2.429,4.346c0.849,0.507,1.806,0.785,2.804,0.785l12.573-0.019
				c4.542-0.008,8.349-1.303,11.309-3.858l0.044-0.025c4.145-3.719,4.591-8.106,4.696-12.298v-0.051L117.89,141.135z"/>
			<path fill="#231F20" d="M114.686,141.542c0-3.343,0-7.429-3.486-10.322c-0.721-0.604-1.596-1.13-2.633-1.547
				c1.618-1.085,2.723-2.58,3.333-4.456c0.551-1.674,0.528-3.755,0.511-4.566l-0.03-9.507c-0.087-2.63-0.374-5.626-2.506-8.056
				c-1.884-2.083-4.734-3.158-8.354-3.144L88.63,99.977c-0.378,0-0.745,0.153-1.04,0.435c-0.287,0.278-0.423,0.638-0.423,1.019
				l0.111,62.414c0,0.499,0.263,0.989,0.702,1.241c0.233,0.151,0.518,0.235,0.816,0.235l13.114-0.035
				c1.393,0,5.666-0.015,9.226-3.048c3.153-2.86,3.48-6.23,3.572-10.017L114.686,141.542z M105.58,157.41
				c-0.925,0.662-2.048,1.046-4.923,1.143c0,0-4.945,0.012-5.319,0.012c-0.45,0-0.621-0.266-0.621-0.688
				c0-3.642-0.053-23.7-0.053-23.869c0-0.186,0.053-0.439,0.431-0.439c0.369,0,2.483-0.022,2.483-0.022
				c2.616,0.127,5.357,0.321,7.137,1.456c1.033,0.616,1.725,1.501,2.17,2.669c0.395,1.199,0.463,2.531,0.463,3.772l0.021,8.846
				C107.368,154.324,107.117,156.218,105.58,157.41 M101.234,126.355c-1.062,0.3-1.571,0.396-3.883,0.472l-2.295,0.006
				c-0.394,0.016-0.5-0.175-0.5-0.477c0-0.182-0.027-19.222-0.027-19.222c0-0.312,0.114-0.493,0.435-0.529h3.554h0.286
				c1.699,0.06,3.59,0.111,4.807,0.86c0.56,0.345,0.898,0.755,1.103,1.306c0.173,0.569,0.332,1.561,0.429,3.251l0.022,7.447
				c-0.022,0.124-0.022,0.316-0.022,0.563C105.087,121.956,105.046,125.217,101.234,126.355"/>
		</g>
	</g>
</g>
</svg>
