<svg version="1.1" id="Layer_1" xmlns="http://www.w3.org/2000/svg" xmlns:xlink="http://www.w3.org/1999/xlink" x="0px" y="0px" viewBox="0 0 200 200" enable-background="new 0 0 200 200" xml:space="preserve" preserveAspectRatio="xMidYMid">
<g>
	<g>
		<g>
			<g>
				<path fill-rule="evenodd" clip-rule="evenodd" fill="#27245E" d="M188.101,30.032c0,0,5.464-17.415,5.976-21.172
					c0,0-29.367,18.781-72.564,52.417l-2.732-1.537c0,0,2.049-6.147-4.951-7.342l9.049-6.488c0,0,2.561-2.049,2.903-5.805
					l-15.025,11.269c0,0-0.55-0.202-1.507-0.474c-3.078-1.142-6.306-1.479-9.25-1.416c-2.944-0.063-6.172,0.273-9.25,1.416
					c-0.957,0.272-1.507,0.474-1.507,0.474L74.218,40.106c0.341,3.756,2.903,5.805,2.903,5.805l9.049,6.488
					c-7,1.195-4.952,7.342-4.952,7.342l-2.732,1.537C35.29,27.642,5.923,8.86,5.923,8.86c0.512,3.756,5.976,21.172,5.976,21.172
					l-8.366-4.098l9.732,24.586c10.756,25.611,27.147,27.66,27.147,27.66c1.878,7.171,8.195,14.171,8.195,14.171H34.436v15.196
					l-8.366,4.439l8.537,4.61v13.488l9.22,5.635l12.976-1.537L93,155.354c3.756,11.439,7,29.196,7,29.196s3.244-17.757,7-29.196
					l36.197-21.172l12.976,1.537l9.22-5.635v-13.488l8.537-4.61l-8.366-4.439V92.352h-14.171c0,0,6.317-7,8.196-14.171
					c0,0,16.391-2.049,27.147-27.66l9.732-24.586L188.101,30.032z"/>
				<path fill="#7E7E80" d="M194.077,8.86c-0.512,3.756-5.976,21.172-5.976,21.172l8.366-4.098l-9.732,24.586
					c-10.756,25.611-27.147,27.66-27.147,27.66c-1.878,7.171-8.196,14.171-8.196,14.171h14.171v15.196l8.366,4.439l-8.537,4.61
					v13.488l-9.22,5.635l-12.976-1.537L107,155.354c-3.756,11.439-7,29.196-7,29.196s-3.244-17.757-7-29.196l-36.197-21.172
					l-12.976,1.537l-9.22-5.635v-13.488l-8.537-4.61l8.366-4.439V92.352h14.171c0,0-6.317-7-8.195-14.171
					c0,0-16.391-2.049-27.147-27.66L3.533,25.934l8.366,4.098c0,0-5.464-17.415-5.976-21.172c0,0,29.367,18.781,72.564,52.417
					l2.732-1.537c0,0-2.049-6.147,4.952-7.342l-9.049-6.488c0,0-2.561-2.049-2.903-5.805l15.025,11.269c0,0,0.55-0.202,1.507-0.474
					c2.844-1.055,5.817-1.423,8.574-1.423c0.227,0,0.452,0.002,0.676,0.007c0.224-0.005,0.449-0.007,0.675-0.007
					c2.758,0,5.73,0.367,8.574,1.423c0.957,0.272,1.507,0.474,1.507,0.474l15.025-11.269c-0.341,3.756-2.903,5.805-2.903,5.805
					l-9.049,6.488c7,1.195,4.951,7.342,4.951,7.342l2.732,1.537C164.71,27.642,194.077,8.86,194.077,8.86 M196.487,5.09
					l-3.422,2.188c-0.292,0.187-29.479,18.921-71.72,51.75l-0.458-0.258c0.139-1.241,0.081-3.027-0.922-4.699
					c-0.535-0.892-1.26-1.629-2.17-2.206l6.178-4.429l0.04-0.029l0.039-0.031c0.13-0.104,3.191-2.6,3.6-7.102l0.382-4.207
					l-3.38,2.535l-14.243,10.682c-0.173-0.053-0.366-0.11-0.578-0.171c-2.736-1.005-5.817-1.514-9.158-1.514
					c-0.222,0-0.449,0.002-0.675,0.007c-0.225-0.005-0.452-0.007-0.675-0.007c-3.341,0-6.421,0.509-9.158,1.514
					c-0.212,0.061-0.405,0.118-0.578,0.171L75.345,38.603l-3.38-2.535l0.382,4.207c0.409,4.501,3.47,6.998,3.6,7.102l0.039,0.031
					l0.04,0.029l6.177,4.429c-0.909,0.577-1.635,1.313-2.17,2.206c-1.002,1.672-1.061,3.458-0.922,4.699l-0.458,0.258
					C36.414,26.199,7.227,7.465,6.935,7.278L3.513,5.09l0.549,4.024c0.371,2.719,3.095,11.87,4.759,17.319l-4.462-2.186L0,22.113
					l1.786,4.513l9.732,24.586l0.007,0.018l0.008,0.018c2.521,6.003,5.565,11.244,9.047,15.576c2.814,3.501,5.92,6.422,9.233,8.682
					c4.01,2.737,7.378,3.852,9.112,4.285c1.328,4.153,3.853,8.082,5.771,10.683h-10.26h-1.878v1.878v14.066l-7.368,3.91
					l-3.099,1.645l3.087,1.667l7.551,4.078v12.368v1.053l0.899,0.549l9.22,5.634l0.555,0.339l0.646-0.076l12.351-1.463
					l35.035,20.492c3.583,11.206,6.687,28.101,6.719,28.274L100,195l1.848-10.112c0.031-0.173,3.137-17.073,6.719-28.274
					l35.035-20.492l12.351,1.463l0.646,0.076l0.555-0.339l9.22-5.634l0.899-0.549v-1.053v-12.368l7.551-4.078l3.087-1.667
					l-3.099-1.645l-7.368-3.91V92.352v-1.878h-1.878h-10.26c1.917-2.601,4.443-6.53,5.771-10.683
					c1.734-0.432,5.101-1.548,9.112-4.285c3.313-2.26,6.419-5.181,9.233-8.682c3.482-4.332,6.526-9.572,9.047-15.576l0.008-0.018
					l0.007-0.018l9.732-24.586L200,22.113l-4.359,2.135l-4.462,2.186c1.665-5.449,4.388-14.6,4.759-17.319L196.487,5.09
					L196.487,5.09z"/>
			</g>
			<g>
				<path fill-rule="evenodd" clip-rule="evenodd" fill="#FFFFFF" d="M12.068,35.069l9.903,5.122c0,0-7.171-16.22-8.025-19.464
					c0,0,19.293,9.22,69.32,48.661c0,0,1.366,3.927,2.39,5.634L30.679,45.143l42.514,30.733l-24.074-2.39
					c0,0-21.513-2.049-27.83-16.903C14.971,41.728,12.068,35.069,12.068,35.069z"/>
				<path fill-rule="evenodd" clip-rule="evenodd" fill="#108EA9" d="M83.209,69.388c-50.027-39.441-69.32-48.661-69.32-48.661
					c0.26,0.989,1.108,3.185,2.161,5.759l67.449,43.707C83.319,69.703,83.209,69.388,83.209,69.388z"/>
				<path fill-rule="evenodd" clip-rule="evenodd" fill="#108EA9" d="M46.785,78.835c0,0,4.155,9.561,11.098,14.399
					c0,0-3.529-7.057-3.073-9.789l1.821,2.618c0,0,11.098-1.48,19.806-1.195C76.437,84.868,53.899,81.112,46.785,78.835z"/>
				<path fill="#108EA9" d="M57.086,126.358l3.756-0.342l17.472,10.187c0,0,0.967,2.22,3.358,4.61L57.086,126.358z"/>
			</g>
			<g>
				<path fill-rule="evenodd" clip-rule="evenodd" fill="#FFFFFF" d="M187.758,35.069l-9.903,5.122c0,0,7.171-16.22,8.025-19.464
					c0,0-19.293,9.22-69.32,48.661c0,0-1.366,3.927-2.39,5.634l54.978-29.879l-42.514,30.733l24.074-2.39
					c0,0,21.513-2.049,27.83-16.903C184.856,41.728,187.758,35.069,187.758,35.069z"/>
				<path fill-rule="evenodd" clip-rule="evenodd" fill="#108EA9" d="M116.617,69.388c50.026-39.441,69.32-48.661,69.32-48.661
					c-0.26,0.989-1.108,3.185-2.161,5.759l-67.449,43.707C116.507,69.703,116.617,69.388,116.617,69.388z"/>
				<path fill-rule="evenodd" clip-rule="evenodd" fill="#108EA9" d="M153.041,78.835c0,0-4.155,9.561-11.098,14.399
					c0,0,3.529-7.057,3.073-9.789l-1.821,2.618c0,0-11.098-1.48-19.806-1.195C123.39,84.868,145.927,81.112,153.041,78.835z"/>
				<path fill="#108EA9" d="M142.74,126.358l-3.756-0.342l-17.472,10.187c0,0-0.967,2.22-3.358,4.61L142.74,126.358z"/>
			</g>
		</g>
		<g>
			<path fill="#108EA9" d="M80.908,132.112c0.921,1.572,3.223,5.104,6.93,8.235c1.258-0.534,2.855-1.385,4.22-2.664
				C92.057,137.683,85.882,136.172,80.908,132.112z"/>
			<path fill="#108EA9" d="M85.623,127.297c-1.28,0.464-2.285,0.958-3.064,1.421c-0.82,0.471-1.377,0.899-1.729,1.209
				c1.785,1.468,6.067,4.549,11.228,5.194C92.057,135.122,91.497,133.232,85.623,127.297z"/>
			<path fill="#108EA9" d="M119.17,130.316c-0.222-0.243-0.855-0.863-2.115-1.588c-0.646-0.385-1.45-0.791-2.436-1.185
				c-5.647,5.741-6.192,7.579-6.192,7.579C113.168,134.529,117.167,131.881,119.17,130.316z"/>
			<path fill="#108EA9" d="M112.156,140.129c2.885-2.495,4.889-5.206,6.022-6.961c-4.661,3.268-9.751,4.516-9.751,4.516
				C109.62,138.802,110.989,139.59,112.156,140.129z"/>
			<path fill="#108EA9" d="M108.598,131.195l4.225-4.283c-2.716-0.835-6.459-1.503-11.555-1.595l-1.613,16.293l-1.009-16.299
				c-4.838,0.064-8.474,0.644-11.183,1.4l4.423,4.484c0,0,7.513,7.591-2.108,10.652c1.87,1.317,4.023,2.476,6.462,3.263h-4.446
				c0.693,1.099,1.503,2.582,2.392,4.568c1.092-0.907,3.09-2.178,5.725-2.178c2.282,0,4.245,1.111,5.538,2.097
				c0.875-1.946,1.672-3.403,2.356-4.487h-4.308c2.544-0.82,4.776-2.046,6.701-3.433
				C101.352,138.514,108.598,131.195,108.598,131.195z"/>
			<path fill="#FFFFFF" d="M95.79,153.625c1.264,3.401,2.627,7.777,4.007,13.405v0.02c0.001-0.003,0.002-0.007,0.003-0.01
				c0.001,0.003,0.002,0.007,0.002,0.01v-0.02c1.369-5.58,2.72-9.93,3.975-13.319c-0.787-0.746-2.023-1.515-3.781-1.515
				C98.065,152.196,96.653,152.961,95.79,153.625z"/>
		</g>
	</g>
	<path fill="#108EA9" d="M110.302,54.912c-1.98,1.3-4.654,3.561-5.282,6.593c0,0-0.998-3.248,2.202-7.535
		c-1.935-0.454-4.301-0.774-7.13-0.774c-2.901,0-5.324,0.337-7.3,0.808c3.17,4.27,2.177,7.501,2.177,7.501
		c-0.622-3.005-3.254-5.253-5.229-6.558c-1.095,0.425-1.944,0.859-2.554,1.217c1.804,0.617,3.927,2.351,5.621,6.65
		c0,0,0.584,7.247,4.636,9.341c-3.617,4.365-9.759-0.52-9.759-0.52c3.415,8.537,12.179,12.35,12.179,12.35
		c3.25-2.287,2.936-8.392,2.468-11.795c4.114-2.048,4.704-9.376,4.704-9.376c1.745-4.429,3.945-6.136,5.784-6.703
		C112.21,55.754,111.374,55.327,110.302,54.912z"/>
	<path fill="#FFFFFF" d="M91.013,66.514c0,0-3.902,6.901,3.491,6.202C94.505,72.717,91.424,70.745,91.013,66.514z"/>
	<path fill="#FFFFFF" d="M108.632,66.514c0,0,3.902,6.901-3.491,6.202C105.141,72.717,108.222,70.745,108.632,66.514z"/>
	<g>
		<path fill="#FFFFFF" d="M70.218,100.291H55.294l2.122,2.148v17.92l2.042,2.148l12.883-1.074V102.44L70.218,100.291z
			 M67.275,116.938l-5.122,0.171v-12.407h5.293L67.275,116.938z"/>
		<polygon fill="#FFFFFF" points="48.835,96.051 48.835,105.96 43.656,108.259 43.656,96.051 38.705,96.051 38.705,110.458 
			35.005,112.1 38.705,113.872 38.705,125.077 43.656,124.564 43.656,113.98 48.835,111.568 48.835,123.881 53.787,123.369 
			53.787,96.051 		"/>
		<path fill="#FFFFFF" d="M92.26,120.865l-2.939-7.455h1.914v-10.97l-2.122-2.148H74.189l2.122,2.148v18.824l4.737-0.285v-7.398
			h3.188l2.959,7.228L92.26,120.865z M81.048,104.702h5.293l-0.06,4.268h-5.233V104.702z"/>
		<polygon fill="#FFFFFF" points="95.093,120.581 99.829,120.581 99.829,104.702 105.122,104.702 105.122,120.637 110.017,120.637 
			110.017,102.44 107.895,100.291 92.97,100.291 95.093,102.44 		"/>
		<polygon fill="#FFFFFF" points="128.499,121.377 128.456,116.725 119.123,116.34 119.123,112.727 128.414,113.182 
			128.414,108.444 119.123,108.325 119.123,104.702 128.457,104.702 128.457,100.291 112.093,100.291 114.215,102.44 
			114.215,120.751 		"/>
		<polygon fill="#FFFFFF" points="144.25,100.291 130.719,100.291 130.719,104.645 134.987,104.645 134.987,121.975 
			140.195,122.487 140.195,104.645 144.25,104.645 		"/>
		<g>
			<polygon fill="#FFFFFF" points="160.954,124.963 160.954,113.758 164.995,111.816 160.998,110.022 156.173,107.939 
				156.173,107.975 151.279,105.894 151.279,104.113 151.279,100.49 156.173,100.49 156.173,102.425 160.954,102.425 
				160.954,100.49 160.954,96.108 160.954,96.079 144.249,96.079 146.213,98.068 146.213,109.48 151.165,111.454 151.165,111.454 
				156.173,113.696 156.173,119.927 151.165,119.358 151.165,117.317 146.213,116.802 146.213,123.085 			"/>
		</g>
	</g>
	<g>
		<g>
			<polygon fill="#FFFFFF" points="67.001,91.455 67.001,89.15 61.708,89.15 61.708,95.375 61.727,95.375 62.577,96.236 
				67.001,96.236 67.001,93.718 64.995,93.718 64.995,94.4 63.757,94.4 63.757,90.858 64.995,90.858 64.995,91.455 			"/>
		</g>
		<g>
			<polygon fill="#FFFFFF" points="76.335,89.15 74.265,89.15 74.265,92.266 72.643,92.266 72.643,89.15 70.572,89.15 
				70.572,96.236 72.643,96.236 72.643,94.102 74.265,94.102 74.265,96.236 76.335,96.236 			"/>
		</g>
		<path fill="#FFFFFF" d="M85.526,90.054h-0.019l-0.85-0.861H81.82h-2.07l0,0v1.836l0,0v5.25h2.07v-2.134h1.622v2.134h2.07v-5.25
			h0.014V90.054z M83.442,92.309H81.82v-1.28h1.145h0.477V92.309z"/>
		<path fill="#FFFFFF" d="M112.314,90.054l-0.85-0.861h-2.837h-2.019l-0.051-0.043v0.043v1.836V94.3v1.117h0.019l0.85,0.861h0.696
			h0.484h0.021h1.622h2.07v-5.25h0.014v-0.975H112.314z M110.248,94.358h-1.622v-3.329h1.145h0.477V94.358z"/>
		<path fill="#FFFFFF" d="M95.429,96.279l-1.138-2.134h0.74v-3.116h0.014v-0.975h-0.019l-0.85-0.861h-2.837h-2.07l0,0v1.836l0,0
			v5.25h2.07v-2.134h0.59h0.356l1.138,2.134H95.429z M91.339,92.309v-1.28h1.145h0.477v1.28H91.339z"/>
		<g>
			<polygon fill="#FFFFFF" points="103.518,94.372 101.042,94.372 101.042,89.193 98.972,89.193 98.972,96.207 101.042,96.207 
				103.518,96.207 			"/>
		</g>
		<polygon fill="#FFFFFF" points="119.663,89.165 119.652,89.165 117.593,89.165 117.582,89.165 115.96,89.165 115.96,91 
			117.582,91 117.582,96.179 119.652,96.179 119.652,96.143 119.663,96.179 119.663,91 121.285,91 121.285,89.165 		"/>
		<polygon fill="#FFFFFF" points="128.001,89.165 127.991,89.165 125.931,89.165 125.92,89.165 124.298,89.165 124.298,91 
			125.92,91 125.92,96.179 127.991,96.179 127.991,96.143 128.001,96.179 128.001,91 129.623,91 129.623,89.165 		"/>
		<polygon fill="#FFFFFF" points="138.292,90.986 138.292,89.15 134.962,89.15 134.777,89.15 132.892,89.15 132.892,96.236 
			134.763,96.236 134.962,96.236 138.292,96.236 138.292,94.4 134.962,94.4 134.962,93.589 138.292,93.589 138.292,91.754 
			134.962,91.754 134.962,90.986 		"/>
	</g>
</g>
</svg>
