<svg version="1.1" id="Layer_1" xmlns="http://www.w3.org/2000/svg" xmlns:xlink="http://www.w3.org/1999/xlink" x="0px" y="0px" viewBox="0 0 200 200" enable-background="new 0 0 200 200" xml:space="preserve" preserveAspectRatio="xMidYMid">
<g>
	<path fill="#231F20" d="M100.011,53.523c10.138-0.036,42.614,1.116,52.511,1.781c5.2,0.341,25.356,2.122,32.035-11.749
		c4.58-8.71,4.38-23.661,3.599-32.099c3.518,7.071,10.316,20.133,11.136,34.527c1.741,30.587-30.974,34.636-40.572,36.436
		c-1.521,0-1.721,0.737-0.319,1.061c3.298,0.755,15.376,3.275,17.377,3.958c2.019,0.684,8.859,2.969,10.878,3.652
		c1.521,0.504,1.801,0.647,1.801,0.647s-0.76,0.882-1.219,1.511c-2.46,3.365-11.641,9.878-21.218,8.889
		c-9.699-1.008-13.477-3.653-13.477-3.653s-1.139,2.25-4.18,10.004c-3.4,8.671-11.918,26.917-14.736,32.405
		c-1.04,2.052-4.541,9.609-5.68,11.48c0.9,3.922,2.74,5.181,3.919,6.405c-0.06,3.923-2.878,16.05-9.897,24.362
		c-2.979,1.494-11.778,3.995-22.175,3.995c-10.421,0-16.859-2.016-21.397-3.761c-8.9-9.591-9.38-22.598-9.219-26.198
		c0.841-0.863,2.961-2.231,3.62-4.893c-1.419-2.466-4.32-7.343-7.18-12.831c-2.839-5.486-10.916-22.22-14.497-31.126
		c-1.598-3.959-3.158-9.374-3.158-9.374s-3.941,2.735-14.097,3.993c-9.601,1.189-17.437-3.832-20.198-6.567
		c-1.38-1.367-2.758-3.275-2.758-3.275s4.019-1.908,7.818-3.202c4.3-1.475,12.478-3.382,14.557-3.833
		c2.481-0.521,11.098-1.835,12.437-2.339c-2.737-1.331-5.478-0.917-7.219-1.224c-2.559-0.181-11.497-0.666-20.174-4.678
		C8.827,73.422-0.171,65.704,0.83,46.541c1.858-17.004,7.139-27.132,10.657-33.665c0.021,5.578-0.361,21.159,2.421,28.824
		c6.837,18.767,29.674,14.845,32.673,14.719C56.499,56.042,80.155,53.612,100.011,53.523"/>
	<path fill="none" stroke="#231F20" stroke-width="0.514" stroke-miterlimit="6" d="M100.011,53.523
		c10.138-0.036,42.614,1.116,52.511,1.781c5.2,0.341,25.356,2.122,32.035-11.749c4.58-8.71,4.38-23.661,3.599-32.099
		c3.518,7.071,10.316,20.133,11.136,34.527c1.741,30.587-30.974,34.636-40.572,36.436c-1.521,0-1.721,0.737-0.319,1.061
		c3.298,0.755,15.376,3.275,17.377,3.958c2.019,0.684,8.859,2.969,10.878,3.652c1.521,0.504,1.801,0.647,1.801,0.647
		s-0.76,0.882-1.219,1.511c-2.46,3.365-11.641,9.878-21.218,8.889c-9.699-1.008-13.477-3.653-13.477-3.653s-1.139,2.25-4.18,10.004
		c-3.4,8.671-11.918,26.917-14.736,32.405c-1.04,2.052-4.541,9.609-5.68,11.48c0.9,3.922,2.74,5.181,3.919,6.405
		c-0.06,3.923-2.878,16.05-9.897,24.362c-2.979,1.494-11.778,3.995-22.175,3.995c-10.421,0-16.859-2.016-21.397-3.761
		c-8.9-9.591-9.38-22.598-9.219-26.198c0.841-0.863,2.961-2.231,3.62-4.893c-1.419-2.466-4.32-7.343-7.18-12.831
		c-2.839-5.486-10.916-22.22-14.497-31.126c-1.598-3.959-3.158-9.374-3.158-9.374s-3.941,2.735-14.097,3.993
		c-9.601,1.189-17.437-3.832-20.198-6.567c-1.38-1.367-2.758-3.275-2.758-3.275s4.019-1.908,7.818-3.202
		c4.3-1.475,12.478-3.382,14.557-3.833c2.481-0.521,11.098-1.835,12.437-2.339c-2.737-1.331-5.478-0.917-7.219-1.224
		c-2.559-0.181-11.497-0.666-20.174-4.678C8.827,73.422-0.171,65.704,0.83,46.541c1.858-17.004,7.139-27.132,10.657-33.665
		c0.021,5.578-0.361,21.159,2.421,28.824c6.837,18.767,29.674,14.845,32.673,14.719C56.499,56.042,80.155,53.612,100.011,53.523z"/>
	<path fill="#FFFFFF" d="M145.005,98.558c0.039,4.355-1.341,8.853-5.239,10.923c-1.821,1.007-3.959,1.384-5.999,1.294
		c-0.08-0.396-0.242-0.863-0.08-1.331c3.199,0.108,6.237-1.044,7.919-3.688c1.158-1.925,1.62-4.102,1.637-6.513
		C143.785,98.937,144.385,98.703,145.005,98.558"/>
	<path fill="#FFFFFF" d="M14.448,45.408c4.979,9.572,14.995,12.667,25.175,12.181c5.698-0.054,11.178-0.648,16.817-1.007
		l-0.021,0.396c-2.859,8.061-4.717,16.284-5.898,24.758c-14.738,0.54-29.874-0.631-40.754-10.472
		C2.369,63.742,0.49,53.45,2.089,43.285c1.759-2.088,3.581-3.832,5.421-5.92C9.928,39.866,13.786,41.899,14.448,45.408"/>
	<path fill="#FFFFFF" d="M66.457,110.361c-0.56,0.108-0.841,0.252-1.92,0.018c-5.12,0-10.478-4.102-10.159-11.065
		c0.602-0.234,1.282-0.144,1.92,0.071c0,3.941,1.58,9.339,9.959,9.339C66.836,109.624,66.279,109.714,66.457,110.361"/>
	<path fill="#CD1141" d="M10.947,16.007c-0.34,7.701-0.301,16.158,1.479,23.481c-1.658-1.493-3.318-3.203-5.057-4.696
		c-1.541,1.708-2.982,3.562-4.52,5.182c1.64-8.456,4.338-16.373,8.039-23.967"/>
	<path fill="none" stroke="#CD1141" stroke-width="0.1999" d="M10.947,16.007c-0.34,7.701-0.301,16.158,1.479,23.481
		c-1.658-1.493-3.318-3.203-5.057-4.696c-1.541,1.708-2.982,3.562-4.52,5.182c1.64-8.456,4.338-16.373,8.039-23.967H10.947z"/>
	<path fill="#CD1141" d="M196.913,36.519l0.522,2.088l-4.001-2.897c-1.837,0.774-3.519,1.925-5.257,2.771
		c1.241-7.377,1.598-15.06,1.1-22.904C192.816,22.108,194.754,29.359,196.913,36.519"/>
	<path fill="none" stroke="#CD1141" stroke-width="0.1999" d="M196.913,36.519l0.522,2.088l-4.001-2.897
		c-1.837,0.774-3.519,1.925-5.257,2.771c1.241-7.377,1.598-15.06,1.1-22.904C192.816,22.108,194.754,29.359,196.913,36.519z"/>
	<path fill="#FFFFFF" d="M197.873,41.108c0.381,1.475,0.441,2.879,0.581,4.425c0.698,11.354-4.201,21.808-13.877,27.584
		c-10.599,6.405-22.857,8.583-35.854,8.907c-0.221-1.17-0.361-2.645-0.501-3.959c-1.038-7.467-2.439-15.024-4.538-22.184
		c13.918-0.144,30.854,3.508,40.032-9.267c1.219-1.78,2.459-3.4,3.521-5.342c2.057-0.919,4.058-2.232,6.038-3.311
		C194.933,38.823,196.215,40.155,197.873,41.108"/>
	<path fill="#CD1141" d="M100.172,109.498c4.219,6.478,11.896,8.313,18.958,6.478c2.678-0.522,5.179-1.601,7.618-2.681
		c-2.24,6.747-3.799,14.286-3.599,21.898c-0.041,6.675,1.139,13.062,3.158,19.052c-0.978-0.322-2.039-1.097-3.178-1.563
		c-14.098-7.145-34.015-6.874-47.973,0.521c0.62-2.25,1.401-4.66,1.86-6.981c2.2-10.725,0.579-22.006-3.101-31.722
		c7.579,3.149,18.537,3.814,24.578-3.149C99.173,110.74,99.552,110.038,100.172,109.498"/>
	<path fill="none" stroke="#CD1141" stroke-width="0.1999" d="M100.172,109.498c4.219,6.478,11.896,8.313,18.958,6.478
		c2.678-0.522,5.179-1.601,7.618-2.681c-2.24,6.747-3.799,14.286-3.599,21.898c-0.041,6.675,1.139,13.062,3.158,19.052
		c-0.978-0.322-2.039-1.097-3.178-1.563c-14.098-7.145-34.015-6.874-47.973,0.521c0.62-2.25,1.401-4.66,1.86-6.981
		c2.2-10.725,0.579-22.006-3.101-31.722c7.579,3.149,18.537,3.814,24.578-3.149C99.173,110.74,99.552,110.038,100.172,109.498z"/>
	<path fill="#CD1141" d="M68.599,114.859c-0.322,3.023-1.401,6.442-4.52,7.576c-2.66,0.684-5.019-0.72-6.76-2.591
		c-0.76-0.936-1.36-1.943-1.58-3.113c4.019,2.573,9.279,0.503,12.779-1.962"/>
	<path fill="none" stroke="#CD1141" stroke-width="0.1999" d="M68.599,114.859c-0.322,3.023-1.401,6.442-4.52,7.576
		c-2.66,0.684-5.019-0.72-6.76-2.591c-0.76-0.936-1.36-1.943-1.58-3.113c4.019,2.573,9.279,0.503,12.779-1.962L68.599,114.859z"/>
	<path fill="#CD1141" d="M144.605,115.184c-0.921,2.717-3.3,5.506-6.121,6.099c-2.12,0.306-4.097-0.719-5.299-2.59
		c-0.68-1.007-1.059-2.104-1.279-3.347C135.466,118.17,141.024,117.487,144.605,115.184"/>
	<path fill="none" stroke="#CD1141" stroke-width="0.1999" d="M144.605,115.184c-0.921,2.717-3.3,5.506-6.121,6.099
		c-2.12,0.306-4.097-0.719-5.299-2.59c-0.68-1.007-1.059-2.104-1.279-3.347C135.466,118.17,141.024,117.487,144.605,115.184z"/>
	<path fill="#CD1141" d="M136.745,122.993c1.5,0.306,3.038-0.073,4.479-0.522c-3.998,10.003-8.838,19.684-13.838,29.291
		c-1.718-4.75-1.318-10.021-0.978-15.312c0.719-6.442,2.26-12.648,4.198-18.621C131.805,120.167,134.086,122.579,136.745,122.993"/>
	<path fill="none" stroke="#CD1141" stroke-width="0.1999" d="M136.745,122.993c1.5,0.306,3.038-0.073,4.479-0.522
		c-3.998,10.003-8.838,19.684-13.838,29.291c-1.718-4.75-1.318-10.021-0.978-15.312c0.719-6.442,2.26-12.648,4.198-18.621
		C131.805,120.167,134.086,122.579,136.745,122.993z"/>
	<path fill="#CD1141" d="M73.736,151.709l-0.08,0.071c-6.038-9.194-10.618-18.927-15.058-28.825c2.04,1.098,5.239,1.818,7.38,0.361
		c1.98-1.403,3.119-3.562,3.9-5.739C74.756,127.473,75.915,140.464,73.736,151.709"/>
	<path fill="none" stroke="#CD1141" stroke-width="0.1999" d="M73.736,151.709l-0.08,0.071
		c-6.038-9.194-10.618-18.927-15.058-28.825c2.04,1.098,5.239,1.818,7.38,0.361c1.98-1.403,3.119-3.562,3.9-5.739
		C74.756,127.473,75.915,140.464,73.736,151.709z"/>
	<path fill="#CD1141" d="M130.547,159.554c-1.041,8.619-4.121,16.302-9.539,22.942c-12.577,4.912-29.534,5.451-42.114,0.089
		c-6.119-6.711-8.438-15.348-8.778-24.524c13.358-9.717,34.194-11.857,49.431-4.858
		C123.426,154.929,127.147,156.818,130.547,159.554"/>
	<path fill="none" stroke="#CD1141" stroke-width="0.1999" d="M130.547,159.554c-1.041,8.619-4.121,16.302-9.539,22.942
		c-12.577,4.912-29.534,5.451-42.114,0.089c-6.119-6.711-8.438-15.348-8.778-24.524c13.358-9.717,34.194-11.857,49.431-4.858
		C123.426,154.929,127.147,156.818,130.547,159.554z"/>
	<path d="M121.568,160.904c0.978,1.942,0.2,4.192-0.939,5.829c-2.141,2.628-5.42,3.778-8.76,2.897c-1.9-0.631-3.719-1.8-4.84-3.671
		c-0.539,1.62,0.662,2.788,0.582,4.354c-0.242,0.307-0.68,0.378-0.921,0.072c-1.798-2.341-2.538-6.081-0.94-8.781
		c1.92-3.653,5.799-5.182,9.759-4.768C117.928,157.232,120.367,158.565,121.568,160.904"/>
	<path fill="none" stroke="#CD1141" stroke-width="0.1999" d="M121.568,160.904c0.978,1.942,0.2,4.192-0.939,5.829
		c-2.141,2.628-5.42,3.778-8.76,2.897c-1.9-0.631-3.719-1.8-4.84-3.671c-0.539,1.62,0.662,2.788,0.582,4.354
		c-0.242,0.307-0.68,0.378-0.921,0.072c-1.798-2.341-2.538-6.081-0.94-8.781c1.92-3.653,5.799-5.182,9.759-4.768
		C117.928,157.232,120.367,158.565,121.568,160.904z"/>
	<path d="M93.731,162.162c1.601,2.646,0.882,6.209-0.638,8.62c-0.241,0.378-0.62,0.774-1.062,0.45
		c-0.679-0.846,0.302-1.548,0.381-2.41c0.081-0.612,0.32-1.387,0.081-2.016c-2.141,2.952-5.34,4.408-8.9,3.762
		c-2.52-0.469-4.858-2.429-5.758-4.93c-0.519-1.548-0.28-3.419,0.718-4.732c2.361-3.166,6.7-3.923,10.341-2.734
		C90.794,158.798,92.774,160.292,93.731,162.162"/>
	<path fill="none" stroke="#CD1141" stroke-width="0.1999" d="M93.731,162.162c1.601,2.646,0.882,6.209-0.638,8.62
		c-0.241,0.378-0.62,0.774-1.062,0.45c-0.679-0.846,0.302-1.548,0.381-2.41c0.081-0.612,0.32-1.387,0.081-2.016
		c-2.141,2.952-5.34,4.408-8.9,3.762c-2.52-0.469-4.858-2.429-5.758-4.93c-0.519-1.548-0.28-3.419,0.718-4.732
		c2.361-3.166,6.7-3.923,10.341-2.734C90.794,158.798,92.774,160.292,93.731,162.162z"/>
	<path d="M121.327,179.651c-0.299,0.541-0.46,0.594-0.859,1.116c-1.28-0.396-2.639-0.846-3.939-1.403
		c-11.518-4.408-26.197-3.184-37.095,1.403c-0.298-0.305-0.54-0.575-0.68-1.043C91.394,174.038,108.649,173.355,121.327,179.651"/>
	<path fill="none" stroke="#CD1141" stroke-width="0.1999" d="M121.327,179.651c-0.299,0.541-0.46,0.594-0.859,1.116
		c-1.28-0.396-2.639-0.846-3.939-1.403c-11.518-4.408-26.197-3.184-37.095,1.403c-0.298-0.305-0.54-0.575-0.68-1.043
		C91.394,174.038,108.649,173.355,121.327,179.651z"/>
	<path fill="#CD1141" d="M182.237,90.245c-10.46-3.94-23.937-6.35-35.334-6.602c-1.1-12.776-2.561-20.729-5.021-27.907
		c-5.877-0.343-31.953-1.404-42.031-1.404c-10.06,0-35.655,1.583-41.535,1.925C55.938,63.131,53.24,71.659,52,84.29
		c-11.518,0.684-27.095,3.995-37.552,7.935c-1.601,0.593-2.26,1.116-2.281,1.062c1.601,1.799,7.419,8.799,18.278,9.05
		c3.438,0.072,9.917-0.594,14.137-2.446c1.16-0.505,3.539-1.476,3.539-1.476s0.781,1.439,1.142,2.429
		c1.178,3.257,2.579,7.935,3.578,9.95c1.521,2.986,3.918,5.362,7.878,5.451c3.599,0.09,6.16-2.843,6.58-3.437
		c-10.159-0.503-14.398-5.973-15.058-14.105c-2.4-0.432-3.059-0.685-3.381-1.961c-0.319-1.278,0.101-2.646,1.061-4.265
		c1.139-1.511,3.098-3.041,7.899-1.53c3.179,1.008,5.698,3.059,7.457,4.589c2.099,1.853,8.2,8.186,11.858,10.382
		c3.861,2.321,11.357,4.354,16.197-0.377c4.66-4.589,5.221-8.475,5.841-10.94c-8.099-0.235-15.779-1.026-22.857-1.998
		c-2.039-0.288-1.16-2.213,0.459-1.8c0,0,13.319,1.763,22.637,1.818c0.081-1.079,0.101-2.986,0.161-5.127
		c-5.54-0.127-14.837-0.72-23.678-2.501c-1.759-0.36-1.437-2.393,0.242-1.943c1.279,0.343,15.737,2.376,23.496,2.376
		c0.039-1.674,0.06-4.031,0.06-6.281c-5.078,0.037-12.518-0.449-23.257-2.086c-1.878-0.288-1.559-2.016,0.021-1.854
		c0,0,13.277,1.98,23.236,1.891c0-1.548,0-3.329-0.021-5.129c-0.018-1.997,1.759-2.087,1.759-0.162c0,0.702,0.021,2.699,0.021,5.182
		c9.559-0.288,17.977-1.403,21.915-2.105c2.32-0.432,2.061,1.421,0.981,1.619c-1.279,0.234-12.377,2.374-22.936,2.609
		c0,1.853,0.06,4.282,0.098,6.243c7.099-0.252,15.299-0.522,22.318-2.069c2.66-0.593,2.919,1.422,0.638,1.799
		c-6.918,1.152-16.897,2.34-22.897,2.376c0.042,1.727,0.06,3.815,0.14,5.182c11.298-0.27,21.997-1.871,23.818-2.177
		c1.857-0.324,2.257,1.655,0.28,1.926c-1.98,0.27-15.257,1.978-23.758,2.195c0.841,2.914,1.001,7.035,5.12,10.579
		c3.98,3.418,10.719,3.131,15.478,0.379c3.68-2.125,9.578-8.584,11.698-10.418c1.759-1.548,5.838-5.344,11.339-5.236
		c5.498,0.108,5.519,2.915,5.838,3.778c0.319,0.846,0.501,2.394-0.721,3.132c-0.978,0.593-1.879,0.449-2.797,0.881
		c-0.701,4.443-2.081,9.517-5.62,12.199c-3.799,2.878-9.739,3.219-9.739,3.219s0.82,0.901,1.1,1.152
		c0.62,0.594,2.68,1.583,5.26,1.368c2.439-0.217,5.319-2.106,6.518-3.329c1.819-2.357,3.518-7.359,4.78-10.597
		c0.48-1.224,1.581-3.384,1.938-4.32c1.121,0.522,1.681,0.846,3.739,1.674c4.281,1.709,9.8,2.411,13.238,2.321
		c5.62-0.126,12.038-3.563,15.878-7.125c0.659-0.612,1.921-2.177,1.921-2.177S183.215,90.606,182.237,90.245"/>
	<path fill="none" stroke="#CD1141" stroke-width="0.1999" d="M182.237,90.245c-10.46-3.94-23.937-6.35-35.334-6.602
		c-1.1-12.776-2.561-20.729-5.021-27.907c-5.877-0.343-31.953-1.404-42.031-1.404c-10.06,0-35.655,1.583-41.535,1.925
		C55.938,63.131,53.24,71.659,52,84.29c-11.518,0.684-27.095,3.995-37.552,7.935c-1.601,0.593-2.26,1.116-2.281,1.062
		c1.601,1.799,7.419,8.799,18.278,9.05c3.438,0.072,9.917-0.594,14.137-2.446c1.16-0.505,3.539-1.476,3.539-1.476
		s0.781,1.439,1.142,2.429c1.178,3.257,2.579,7.935,3.578,9.95c1.521,2.986,3.918,5.362,7.878,5.451
		c3.599,0.09,6.16-2.843,6.58-3.437c-10.159-0.503-14.398-5.973-15.058-14.105c-2.4-0.432-3.059-0.685-3.381-1.961
		c-0.319-1.278,0.101-2.646,1.061-4.265c1.139-1.511,3.098-3.041,7.899-1.53c3.179,1.008,5.698,3.059,7.457,4.589
		c2.099,1.853,8.2,8.186,11.858,10.382c3.861,2.321,11.357,4.354,16.197-0.377c4.66-4.589,5.221-8.475,5.841-10.94
		c-8.099-0.235-15.779-1.026-22.857-1.998c-2.039-0.288-1.16-2.213,0.459-1.8c0,0,13.319,1.763,22.637,1.818
		c0.081-1.079,0.101-2.986,0.161-5.127c-5.54-0.127-14.837-0.72-23.678-2.501c-1.759-0.36-1.437-2.393,0.242-1.943
		c1.279,0.343,15.737,2.376,23.496,2.376c0.039-1.674,0.06-4.031,0.06-6.281c-5.078,0.037-12.518-0.449-23.257-2.086
		c-1.878-0.288-1.559-2.016,0.021-1.854c0,0,13.277,1.98,23.236,1.891c0-1.548,0-3.329-0.021-5.129
		c-0.018-1.997,1.759-2.087,1.759-0.162c0,0.702,0.021,2.699,0.021,5.182c9.559-0.288,17.977-1.403,21.915-2.105
		c2.32-0.432,2.061,1.421,0.981,1.619c-1.279,0.234-12.377,2.374-22.936,2.609c0,1.853,0.06,4.282,0.098,6.243
		c7.099-0.252,15.299-0.522,22.318-2.069c2.66-0.593,2.919,1.422,0.638,1.799c-6.918,1.152-16.897,2.34-22.897,2.376
		c0.042,1.727,0.06,3.815,0.14,5.182c11.298-0.27,21.997-1.871,23.818-2.177c1.857-0.324,2.257,1.655,0.28,1.926
		c-1.98,0.27-15.257,1.978-23.758,2.195c0.841,2.914,1.001,7.035,5.12,10.579c3.98,3.418,10.719,3.131,15.478,0.379
		c3.68-2.125,9.578-8.584,11.698-10.418c1.759-1.548,5.838-5.344,11.339-5.236c5.498,0.108,5.519,2.915,5.838,3.778
		c0.319,0.846,0.501,2.394-0.721,3.132c-0.978,0.593-1.879,0.449-2.797,0.881c-0.701,4.443-2.081,9.517-5.62,12.199
		c-3.799,2.878-9.739,3.219-9.739,3.219s0.82,0.901,1.1,1.152c0.62,0.594,2.68,1.583,5.26,1.368
		c2.439-0.217,5.319-2.106,6.518-3.329c1.819-2.357,3.518-7.359,4.78-10.597c0.48-1.224,1.581-3.384,1.938-4.32
		c1.121,0.522,1.681,0.846,3.739,1.674c4.281,1.709,9.8,2.411,13.238,2.321c5.62-0.126,12.038-3.563,15.878-7.125
		c0.659-0.612,1.921-2.177,1.921-2.177S183.215,90.606,182.237,90.245z"/>
	<path d="M123.387,118.459c-1.938,9.069-7.678,19.503-17.276,22.185c-7.6,1.979-16.197,0.449-21.337-5.938
		c-3.778-4.605-5.558-9.968-6.139-15.941c0.381-0.306,0.721-0.306,1.18-0.306c0.799,8.6,5.278,18.136,13.916,20.818
		c7.421,2.374,16.298,0.197,21.677-6.371c3.381-4.407,5.639-9.679,6.819-15.023C122.669,118.026,123.008,118.063,123.387,118.459"/>
	<path fill="none" stroke="#CD1141" stroke-width="0.1999" d="M123.387,118.459c-1.938,9.069-7.678,19.503-17.276,22.185
		c-7.6,1.979-16.197,0.449-21.337-5.938c-3.778-4.605-5.558-9.968-6.139-15.941c0.381-0.306,0.721-0.306,1.18-0.306
		c0.799,8.6,5.278,18.136,13.916,20.818c7.421,2.374,16.298,0.197,21.677-6.371c3.381-4.407,5.639-9.679,6.819-15.023
		C122.669,118.026,123.008,118.063,123.387,118.459z"/>
</g>
</svg>
