<svg version="1.1" id="Layer_1" xmlns="http://www.w3.org/2000/svg" xmlns:xlink="http://www.w3.org/1999/xlink" x="0px" y="0px" viewBox="0 0 200 200" enable-background="new 0 0 200 200" xml:space="preserve" preserveAspectRatio="xMidYMid">
<g>
	<path fill-rule="evenodd" clip-rule="evenodd" fill="#FFB819" d="M61.012,99.07c-1.679-29.159,20.596-54.154,49.751-55.835
		c29.156-1.679,54.15,20.595,55.831,49.756c1.678,29.148-20.595,54.148-49.75,55.826C87.687,150.497,62.691,128.222,61.012,99.07z"
		/>
	<path fill-rule="evenodd" clip-rule="evenodd" fill="#041E41" d="M164.114,93.133c1.601,27.783-19.626,51.609-47.415,53.21
		c-27.785,1.599-51.611-19.632-53.21-47.415c-1.601-27.791,19.631-51.616,47.414-53.216
		C138.693,44.112,162.514,65.342,164.114,93.133z"/>
	<path fill-rule="evenodd" clip-rule="evenodd" fill="#73243D" d="M120.083,49.874c17.769,2.402,32.575,14.904,38.035,31.82
		c-13.44-13.093-30.457-20.765-48.063-20.245C110.802,55.545,115.434,51.74,120.083,49.874z M103.211,50.669
		c2.555-0.594,5.197-0.978,7.908-1.135c1.135-0.066,2.264-0.088,3.386-0.076c-3.893,2.466-7.401,6.591-8.06,12.211
		c-2.401,0.226-4.807,0.603-7.214,1.143C100.173,57.486,101.595,53.248,103.211,50.669z M86.172,58.531
		c4.032-2.981,8.571-5.323,13.481-6.887c-1.444,2.832-2.73,6.974-3.632,11.987c-2.542,0.723-5.077,1.632-7.601,2.733
		C88.406,64.076,87.791,61.672,86.172,58.531z M71.188,77.209c2.84-6.411,7.091-12.09,12.383-16.611
		c1.582,1.528,1.789,4.566,1.532,7.328C80.384,70.311,75.727,73.39,71.188,77.209z M69.192,82.602
		c0.102-0.34,0.208-0.681,0.319-1.017C69.467,81.952,69.369,82.276,69.192,82.602z M74.269,120.667
		c-4.003-6.409-6.5-13.883-6.964-21.959c-0.31-5.385,0.307-10.612,1.714-15.52c4.924-4.723,10.098-8.481,15.411-11.338l-0.05,0.196
		c-1.708,6.512-6.022,11.97-8.501,18.059C71.906,99.86,72.023,111.166,74.269,120.667z M122.738,141.738
		c-2.042,0.397-4.132,0.661-6.264,0.785c-13.961,0.804-26.84-4.631-35.925-13.884c-4.884-9.654-5.829-24.825-2.534-34.953
		c1.762-5.418,6.909-12.771,8.492-18.265c0.582-2.016,1.114-3.726,1.47-5.337c2.475-1.133,4.972-2.074,7.483-2.835
		C92.607,88.906,96.797,123.052,122.738,141.738z M150.073,125.233c-5.914,7.346-14.037,12.884-23.427,15.567
		c-25.982-19.06-30.606-53.265-27.95-74.43c2.563-0.613,5.136-1.044,7.704-1.29c0.546,6.358,4.593,14.258,14.814,23.52
		C132.404,99.24,146.209,113.307,150.073,125.233z M160.289,93.353c0.6,10.388-2.258,20.179-7.57,28.254
		c-4.026-11.588-17.09-24.378-28.091-34.837c-9.853-8.934-13.895-16.205-14.571-21.919c18.581-0.549,36.671,8.279,49.776,24.13
		C160.052,90.418,160.204,91.876,160.289,93.353z"/>
	<path fill-rule="evenodd" clip-rule="evenodd" fill="#FFB819" d="M189.181,126.215l-19.467-5.233
		c3.568-2.691,15.471-5.621,15.632-11.905c0.011-0.09,0.014-0.178,0.022-0.267c6.391-5.074,8.632-12.21,6.428-22.001L200,66.362
		c0,0-21.194,5.101-24.594,5.917l3.183-9.568l-75.614,18.6c-17.939-7.817-39.756-1.675-56.874,8.423L32.91,86.41
		C20.939,83.326,10.381,80.698,0,83.066c7.943,7.093,18.455,9.898,30.426,12.984l4.639,1.214
		c-4.597,3.621-8.522,7.403-11.496,11.033l-2.988,3.643l10.812-1.712c-24.946,39.409,16.094,54.09,43.739,19.611l28.67-7.516
		c-3.982,5.297-3.981,13.16-3.981,13.16l1.729-1.324c8.654-7.301,18.684-10.956,26.453-12.535l18.385,4.816
		c-0.031,0.074-0.044,0.174-0.051,0.309c-0.646,10.131,4.042,17.003,14.472,18.686c0.61,0.119,1.052,0.219,1.823,0.343
		c-0.186-2.205-0.198-3.817-0.096-6.027c7.917,5.654,16.625,4.645,23.833-1.631l0.544,1.314c7.745,1.902,11.605-11.183,11-14.11
		C197.897,125.255,193.764,124.646,189.181,126.215z"/>
	<g>
		<defs>
			<path id="SVGID_1_" d="M120.083,49.874c17.769,2.402,32.575,14.904,38.035,31.82c-13.44-13.093-30.457-20.765-48.063-20.245
				C110.802,55.545,115.434,51.74,120.083,49.874z M103.211,50.669c2.555-0.594,5.197-0.978,7.908-1.135
				c1.135-0.066,2.264-0.088,3.386-0.076c-3.893,2.466-7.401,6.591-8.06,12.211c-2.401,0.226-4.807,0.603-7.214,1.143
				C100.173,57.486,101.595,53.248,103.211,50.669z M86.172,58.531c4.032-2.981,8.571-5.323,13.481-6.887
				c-1.444,2.832-2.73,6.974-3.632,11.987c-2.542,0.723-5.077,1.632-7.601,2.733C88.406,64.076,87.791,61.672,86.172,58.531z
				 M71.188,77.209c2.84-6.411,7.091-12.09,12.383-16.611c1.582,1.528,1.789,4.566,1.532,7.328
				C80.384,70.311,75.727,73.39,71.188,77.209z M69.192,82.602c0.102-0.34,0.208-0.681,0.319-1.017
				C69.467,81.952,69.369,82.276,69.192,82.602z M74.269,120.667c-4.003-6.409-6.5-13.883-6.964-21.959
				c-0.31-5.385,0.307-10.612,1.714-15.52c4.924-4.723,10.098-8.481,15.411-11.338l-0.05,0.196
				c-1.708,6.512-6.022,11.97-8.501,18.059C71.906,99.86,72.023,111.166,74.269,120.667z M122.738,141.738
				c-2.042,0.397-4.132,0.661-6.264,0.785c-13.961,0.804-26.84-4.631-35.925-13.884c-4.884-9.654-5.829-24.825-2.534-34.953
				c1.762-5.418,6.909-12.771,8.492-18.265c0.582-2.016,1.114-3.726,1.47-5.337c2.475-1.133,4.972-2.074,7.483-2.835
				C92.607,88.906,96.797,123.052,122.738,141.738z M150.073,125.233c-5.914,7.346-14.037,12.884-23.427,15.567
				c-25.982-19.06-30.606-53.265-27.95-74.43c2.563-0.613,5.136-1.044,7.704-1.29c0.546,6.358,4.593,14.258,14.814,23.52
				C132.404,99.24,146.209,113.307,150.073,125.233z M160.289,93.353c0.6,10.388-2.258,20.179-7.57,28.254
				c-4.026-11.588-17.09-24.378-28.091-34.837c-9.853-8.934-13.895-16.205-14.571-21.919c18.581-0.549,36.671,8.279,49.776,24.13
				C160.052,90.418,160.204,91.876,160.289,93.353z"/>
		</defs>
		<clipPath id="SVGID_2_">
			<use xlink:href="#SVGID_1_"  overflow="visible"/>
		</clipPath>
		<path clip-path="url(#SVGID_2_)" fill-rule="evenodd" clip-rule="evenodd" fill="#FFB819" d="M189.181,126.215l-19.467-5.233
			c3.568-2.691,15.471-5.621,15.632-11.905c0.011-0.09,0.014-0.178,0.022-0.267c6.391-5.074,8.632-12.21,6.428-22.001L200,66.362
			c0,0-21.194,5.101-24.594,5.917l3.183-9.568l-75.614,18.6c-17.939-7.817-39.756-1.675-56.874,8.423L32.91,86.41
			C20.939,83.326,10.381,80.698,0,83.066c7.943,7.093,18.455,9.898,30.426,12.984l4.639,1.214
			c-4.597,3.621-8.522,7.403-11.496,11.033l-2.988,3.643l10.812-1.712c-24.946,39.409,16.094,54.09,43.739,19.611l28.67-7.516
			c-3.982,5.297-3.981,13.16-3.981,13.16l1.729-1.324c8.654-7.301,18.684-10.956,26.453-12.535l18.385,4.816
			c-0.031,0.074-0.044,0.174-0.051,0.309c-0.646,10.131,4.042,17.003,14.472,18.686c0.61,0.119,1.052,0.219,1.823,0.343
			c-0.186-2.205-0.198-3.817-0.096-6.027c7.917,5.654,16.625,4.645,23.833-1.631l0.544,1.314c7.745,1.902,11.605-11.183,11-14.11
			C197.897,125.255,193.764,124.646,189.181,126.215z"/>
	</g>
	<g>
		<defs>
			<path id="SVGID_3_" d="M164.114,93.133c-1.601-27.791-25.422-49.021-53.211-47.421c-27.783,1.6-49.015,25.424-47.414,53.216
				c1.599,27.783,25.425,49.014,53.21,47.415C144.489,144.742,165.715,120.916,164.114,93.133z M158.119,81.694
				c-13.44-13.093-30.457-20.765-48.063-20.245c0.747-5.904,5.379-9.709,10.028-11.575
				C137.852,52.277,152.659,64.778,158.119,81.694z M111.12,49.534c1.135-0.066,2.264-0.088,3.386-0.076
				c-3.893,2.466-7.401,6.591-8.06,12.211c-2.401,0.226-4.807,0.603-7.214,1.143c0.942-5.326,2.364-9.565,3.98-12.143
				C105.766,50.076,108.409,49.692,111.12,49.534z M99.653,51.644c-1.444,2.832-2.73,6.974-3.632,11.987
				c-2.542,0.723-5.077,1.632-7.601,2.733c-0.015-2.287-0.629-4.692-2.248-7.832C90.204,55.55,94.743,53.208,99.653,51.644z
				 M83.57,60.597c1.582,1.528,1.789,4.566,1.532,7.328c-4.718,2.386-9.375,5.464-13.914,9.283
				C74.027,70.798,78.279,65.118,83.57,60.597z M69.511,81.585c-0.044,0.367-0.142,0.691-0.319,1.017
				C69.294,82.262,69.4,81.921,69.511,81.585z M74.269,120.667c-4.003-6.409-6.5-13.883-6.964-21.959
				c-0.31-5.385,0.307-10.612,1.714-15.52c4.924-4.723,10.098-8.481,15.411-11.338l-0.05,0.196
				c-1.708,6.512-6.022,11.97-8.501,18.059C71.906,99.86,72.023,111.166,74.269,120.667z M116.474,142.523
				c-13.961,0.804-26.84-4.631-35.925-13.884c-4.884-9.654-5.829-24.825-2.534-34.953c1.762-5.418,6.909-12.771,8.492-18.265
				c0.582-2.016,1.114-3.726,1.47-5.337c2.475-1.133,4.972-2.074,7.483-2.835c-2.854,21.659,1.336,55.805,27.278,74.49
				C120.696,142.135,118.606,142.399,116.474,142.523z M126.646,140.8c-25.982-19.06-30.606-53.265-27.95-74.43
				c2.563-0.613,5.136-1.044,7.704-1.29c0.546,6.358,4.593,14.258,14.814,23.52c11.19,10.64,24.995,24.707,28.859,36.633
				C144.159,132.579,136.036,138.117,126.646,140.8z M152.719,121.608c-4.026-11.588-17.09-24.378-28.091-34.837
				c-9.853-8.934-13.895-16.205-14.571-21.919c18.581-0.549,36.671,8.279,49.776,24.13c0.219,1.436,0.372,2.894,0.456,4.371
				C160.889,103.741,158.031,113.532,152.719,121.608z"/>
		</defs>
		<clipPath id="SVGID_4_">
			<use xlink:href="#SVGID_3_"  overflow="visible"/>
		</clipPath>
		<path clip-path="url(#SVGID_4_)" fill-rule="evenodd" clip-rule="evenodd" fill="#FFB819" d="M189.181,126.215l-19.467-5.233
			c3.568-2.691,15.471-5.621,15.632-11.905c0.011-0.09,0.014-0.178,0.022-0.267c6.391-5.074,8.632-12.21,6.428-22.001L200,66.362
			c0,0-21.194,5.101-24.594,5.917l3.183-9.568l-75.614,18.6c-17.939-7.817-39.756-1.675-56.874,8.423L32.91,86.41
			C20.939,83.326,10.381,80.698,0,83.066c7.943,7.093,18.455,9.898,30.426,12.984l4.639,1.214
			c-4.597,3.621-8.522,7.403-11.496,11.033l-2.988,3.643l10.812-1.712c-24.946,39.409,16.094,54.09,43.739,19.611l28.67-7.516
			c-3.982,5.297-3.981,13.16-3.981,13.16l1.729-1.324c8.654-7.301,18.684-10.956,26.453-12.535l18.385,4.816
			c-0.031,0.074-0.044,0.174-0.051,0.309c-0.646,10.131,4.042,17.003,14.472,18.686c0.61,0.119,1.052,0.219,1.823,0.343
			c-0.186-2.205-0.198-3.817-0.096-6.027c7.917,5.654,16.625,4.645,23.833-1.631l0.544,1.314c7.745,1.902,11.605-11.183,11-14.11
			C197.897,125.255,193.764,124.646,189.181,126.215z"/>
	</g>
	<path fill="#041E41" d="M196.648,126.937c-4.286-0.767-7.122,1.016-7.211,1.012c-0.066-0.006-14.9-3.994-20.362-5.469l-2.872-0.774
		c1.847-2.503,5.412-3.58,8.988-5.167c1.549-0.688,3.674-1.496,5.265-2.611c2.866-2.009,3.277-3.329,3.295-3.329
		c-5.231,0.169-10.163-1.244-11.031-1.423c-2.297-0.478-4.594-0.572-6.809-0.328c-0.075,0.008-0.15,0.015-0.224,0.025
		c-5.946,0.711-11.285,3.858-14.458,8.496c0,0-0.39,0.51-0.52,0.655c-0.419,0.463-1.008,1.168-1.008,1.168l1.744,0.45
		c1.203,0.207,0.525,2.824-1.07,2.41l-7.65-2.001c-2.987,0.251-6.102,0.498-8.216,0.649c-1.087,0.081-2.287,0.211-3.576,0.403
		l16.96,4.459c-1.213,11.066,4.726,17.875,13.108,18.553c-0.017-1.126-0.045-3.5,0.014-7.735c0,0,12.062,12.941,25.896-0.977
		c0.102-0.091,1.165,2.627,1.165,2.627C194.171,138.737,196.855,126.964,196.648,126.937z"/>
	<g>
		<defs>
			<path id="SVGID_5_" d="M172.693,110.44c-4.161-0.694-9.5-0.9-12.691,0.903c-3.19,1.803-7.56,6.378-7.56,6.378
				s-0.277,0.695,0.347,1.804c0.336,0.601,0.65,0.995,0.869,1.311c0.018-0.455,0.186-0.988,0.548-1.428
				c2.974-3.835,8.195-7.934,15.054-7.636c-6.811,1.188-11.402,5.56-14.305,9.545c-0.431,0.479-0.775,0.547-1.002,0.393
				c-0.065,0.811-0.589,1.849-1.303,1.979c-0.763,0.137-3.746,2.565-3.746,2.565v1.455l0.276,4.577c0,0,0.556,3.261,1.596,4.577
				c1.041,1.319,4.094,5.687,8.877,6.172c0,0,0.347-11.649,1.805-15.117c1.455-3.469,3.396-7.491,6.519-9.157
				c3.118-1.662,7.906-3.328,10.403-4.645c2.499-1.319,3.606-2.774,3.606-2.774S176.854,111.134,172.693,110.44z"/>
		</defs>
		<clipPath id="SVGID_6_">
			<use xlink:href="#SVGID_5_"  overflow="visible"/>
		</clipPath>
		<path clip-path="url(#SVGID_6_)" fill="#FFB819" d="M171.681,111.276c-7.057-1.246-13.509,0.974-18.161,7.58
			c0.899,0.571,1.48,1.925,1.381,3.465c-0.121,1.902-1.232,3.389-2.52,3.434c0.005,0.039,0.014,0.072,0.018,0.115
			c0,0.002-0.002,0-0.002,0.002c0.148,2.871,1.147,5.629,2.564,7.091c0.547-4.945,3.186-11.687,10.625-15.848
			c-7.407,6.454-8.862,15.735-8.334,22.075c-3.461-0.694-6.349-6.523-7.367-9.596c0.783,5.255,4.054,11.521,9.076,11.869
			c-1.03-10.092,2.887-20.547,9.497-24.036c2.713-1.448,6.536-2.384,10.734-5.088C174.696,111.971,173.278,111.556,171.681,111.276z
			"/>
	</g>
	<path fill="#041E41" d="M196.542,69.016c-0.049,0.053-16.757,4.078-23.882,5.781l3.181-9.563l-73.024,18.124
		c-16.769-7.625-37.482-2.335-54.153,7.021l32.384,8.159c-0.139,0.427-0.298,0.85-0.475,1.197L31.395,87.367
		c-9.99-2.575-19.006-5.023-27.612-3.324c6.714,5.646,15.794,7.837,25.783,10.414l36.707,9.649c-0.668,0.285-1.295,0.577-1.83,0.862
		l-27.167-7.122c-4.939,3.762-9.154,7.748-12.309,11.597l9.704-1.267c-27.748,44.445,17.131,50.09,38.381,20.188l35.247-8.841
		c-3.228,3.168-5.14,7.753-6.133,11.78c10.439-9.017,24.05-11.815,32.214-12.404c4.955-0.361,10.431-0.904,14.675-1.377l1.199-1.515
		c3.868-5.301,9.487-7.886,15.433-8.468c4.628-0.451,6.255,0.227,8.204,0.58c0.908,0.236,4.137,1.093,7.441,1.243
		c8.543-4.987,11.072-12.206,8.581-22.674L196.542,69.016z M73.212,101.904l-36.494-9.528c-10.413-2.881-13.12-5.199-13.8-5.805
		l21.205,5.474l34.434,8.854C76.994,101.263,74.644,101.653,73.212,101.904z"/>
	<g>
		<defs>
			<path id="SVGID_7_" d="M189.181,126.215l-19.467-5.233c3.568-2.691,15.471-5.621,15.632-11.905
				c0.011-0.09,0.014-0.178,0.022-0.267c6.391-5.074,8.632-12.21,6.428-22.001L200,66.362c0,0-21.194,5.101-24.594,5.917
				l3.183-9.568l-75.614,18.6c-17.939-7.817-39.756-1.675-56.874,8.423L32.91,86.41C20.939,83.326,10.381,80.698,0,83.066
				c7.943,7.093,18.455,9.898,30.426,12.984l4.639,1.214c-4.597,3.621-8.522,7.403-11.496,11.033l-2.988,3.643l10.812-1.712
				c-24.946,39.409,16.094,54.09,43.739,19.611l28.67-7.516c-3.982,5.297-3.981,13.16-3.981,13.16l1.729-1.324
				c8.654-7.301,18.684-10.956,26.453-12.535l18.385,4.816c-0.031,0.074-0.044,0.174-0.051,0.309
				c-0.646,10.131,4.042,17.003,14.472,18.686c0.61,0.119,1.052,0.219,1.823,0.343c-0.186-2.205-0.198-3.817-0.096-6.027
				c7.917,5.654,16.625,4.645,23.833-1.631l0.544,1.314c7.745,1.902,11.605-11.183,11-14.11
				C197.897,125.255,193.764,124.646,189.181,126.215z M64.85,131.832c-25.354,24.897-53.007,6.139-19.239-29.629
				c-3.834,1.081-11.74,2.899-11.751,2.678c2.883-2.329,5.796-4.445,8.713-6.381l14.075,3.866c-0.229,0.227-0.454,0.451-0.669,0.678
				c-31.33,32.694-10.721,38.166,12.091,25.59C68.541,128.399,64.85,131.832,64.85,131.832z M84.27,99.948
				c8.052-15.746-6.453-12.16-18.534-4.597L53.529,92.12c21.034-10.59,40.614-11.13,48.995-2.928
				C102.463,88.922,85.955,98.678,84.27,99.948z M154.179,111.968c-14.849,2.238-30.527,2.948-43.614,9.092
				c5.687-5.837,20.703-9.169,37.271-11.721c18.236-2.722,37.767-7.267,30.847-17.664c-1.307-1.236-2.014-1.564-3.053-2.964
				c-4.509-6.056,3.212-12.983,11.871-12.413c0.594,0.039,2.164,0.281,2.112,0.335l-2.127,5.421
				c-1.744-2.783-7.395-3.438-8.142-0.072c-0.56,2.522,3.437,3.439,5.764,7.838c3.174,6-0.143,12.058-5.896,15.012
				c-2.232,1.149-4.535,2.122-6.892,2.957c-1.915,0.502-3.925,1.056-6.424,1.751C163.611,110.174,162.915,110.581,154.179,111.968z"
				/>
		</defs>
		<clipPath id="SVGID_8_">
			<use xlink:href="#SVGID_7_"  overflow="visible"/>
		</clipPath>
		<g clip-path="url(#SVGID_8_)">
			<g>
				<path fill="#041E41" d="M196.542,69.016c-0.049,0.053-16.757,4.078-23.882,5.781l3.181-9.563l-73.024,18.124
					c-16.769-7.625-37.482-2.335-54.153,7.021l32.384,8.159c-0.139,0.427-0.298,0.85-0.475,1.197L31.395,87.367
					c-9.99-2.575-19.006-5.023-27.612-3.324c6.714,5.646,15.794,7.837,25.783,10.414l36.707,9.649
					c-0.668,0.285-1.295,0.577-1.83,0.862l-27.167-7.122c-4.939,3.762-9.154,7.748-12.309,11.597l9.704-1.267
					c-27.748,44.445,17.131,50.09,38.381,20.188l35.247-8.841c-3.228,3.168-5.14,7.753-6.133,11.78
					c10.439-9.017,24.05-11.815,32.214-12.404c4.955-0.361,10.431-0.904,14.675-1.377l1.199-1.515
					c3.868-5.301,9.487-7.886,15.433-8.468c4.628-0.451,6.255,0.227,8.204,0.58c0.908,0.236,4.137,1.093,7.441,1.243
					c8.543-4.987,11.072-12.206,8.581-22.674L196.542,69.016z M73.212,101.904l-36.494-9.528c-10.413-2.881-13.12-5.199-13.8-5.805
					l21.205,5.474l34.434,8.854C76.994,101.263,74.644,101.653,73.212,101.904z"/>
			</g>
		</g>
	</g>
	<g>
		<g>
			<path fill-rule="evenodd" clip-rule="evenodd" fill="#FFB819" d="M190.239,129.407c1.483-0.708,3.13-1.027,4.75-1.239
				c-2.256,0.85-3.389,2.152-3.518,2.102c-0.509,1.248-0.498,2.579-3.361,4.008C189.017,132.861,190.34,131.227,190.239,129.407z"/>
		</g>
		<path fill-rule="evenodd" clip-rule="evenodd" fill="#FFB819" d="M161.719,131.809c3.085,6.778,12.075,8.379,17.501,7.227
			c-2.421,2.107-14.235,1.658-17.781-5.266L161.719,131.809z"/>
		<path fill="#FFB819" d="M165.035,123.178l23.318,6.036c0.761,0.193,0.441,2.326-0.552,2.07l-23.984-6.099
			C163.955,124.613,164.828,123.317,165.035,123.178z"/>
		<path fill="#FFB819" d="M184.924,133.496c-8.421,8.306-21.638,2.596-21.559-4.139
			C163.533,129.353,171.972,135.559,184.924,133.496z"/>
	</g>
	<g>
		<defs>
			<path id="SVGID_9_" d="M171.681,111.276c-7.057-1.246-13.509,0.974-18.161,7.58c0.899,0.571,1.48,1.925,1.381,3.465
				c-0.121,1.902-1.232,3.389-2.52,3.434c0.005,0.039,0.014,0.072,0.018,0.115c0,0.002-0.002,0-0.002,0.002
				c0.148,2.871,1.147,5.629,2.564,7.091c0.547-4.945,3.186-11.687,10.625-15.848c-7.407,6.454-8.862,15.735-8.334,22.075
				c-3.461-0.694-6.349-6.523-7.367-9.596c0.783,5.255,4.054,11.521,9.076,11.869c-1.03-10.092,2.887-20.547,9.497-24.036
				c2.713-1.448,6.536-2.384,10.734-5.088C174.696,111.971,173.278,111.556,171.681,111.276z"/>
		</defs>
		<clipPath id="SVGID_10_">
			<use xlink:href="#SVGID_9_"  overflow="visible"/>
		</clipPath>
		<path clip-path="url(#SVGID_10_)" fill="#FFFFFF" d="M154.207,119.408c-1.036,1.26-0.516,3.308,0.749,1.908
			c2.903-3.984,7.495-8.356,14.305-9.545C162.401,111.474,157.181,115.573,154.207,119.408z"/>
	</g>
	<g>
		<path fill-rule="evenodd" clip-rule="evenodd" fill="#FFFFFF" d="M128.107,80.929l1.541-0.343l0.139,3.94l3.085-4.693l2.094-0.563
			l-6.068,8.141L128.107,80.929z M168.159,71.547l-0.231-0.034l-1.24,0.286l-2.266,5.774l0.978-0.237
			c0.047-0.012,0.192-0.063,0.498-0.201l0.35-0.181l2.142-5.341C168.316,71.583,168.256,71.564,168.159,71.547z M165.285,78.107
			l-3.119,0.765l2.901-7.393l3.123-0.778c0.526-0.126,1.024-0.137,1.499-0.071c0.475,0.059,0.767,0.179,0.674,0.413l-2.138,5.446
			c-0.094,0.243-0.55,0.557-1.185,0.894C166.404,77.726,165.81,77.979,165.285,78.107z M108.44,92.348
			c-0.476,0.117-0.984,0.165-1.516,0.165c-0.678-0.003-1.059-0.131-0.937-0.447l2.196-5.593c0.092-0.232,0.555-0.539,1.174-0.866
			c0.639-0.331,1.23-0.584,1.752-0.711l3.091-0.757l-0.518,1.318l-1.891,0.465l0.225-0.509l-0.526,0.116
			c-0.515,0.127-0.881,0.243-1.13,0.351c-0.212,0.088-0.273,0.146-0.297,0.202l-2.115,5.449c-0.002,0.004-0.008,0.058,0.336,0.048
			c0.263-0.011,0.423-0.032,0.502-0.051c0.255-0.062,0.487-0.156,0.731-0.301c0.258-0.159,0.381-0.279,0.42-0.385l-0.118-0.253
			l2.072-0.507l-0.239,0.607c-0.114,0.296-0.655,0.64-1.42,0.99C109.571,91.986,108.97,92.218,108.44,92.348z M116.411,83.736
			l1.906-0.466l-2.577,6.569l3.137-0.77l-0.32,0.813l-5.042,1.239L116.411,83.736z M122.937,82.081l4.343-1.063l-0.31,0.792
			l-2.438,0.597l-0.871,2.224l2.435-0.595l-0.316,0.812l-2.44,0.595l-1.076,2.742l2.441-0.596l-0.325,0.811l-4.343,1.064
			L122.937,82.081z M136.538,78.722l4.343-1.066l-0.31,0.798l-2.437,0.595l-0.874,2.226l2.439-0.597l-0.321,0.812l-2.434,0.597
			l-1.078,2.739l2.437-0.6l-0.32,0.817l-4.345,1.066L136.538,78.722z M142.679,77.135l1.907-0.467l-2.577,6.567l3.134-0.767
			l-0.319,0.812l-5.044,1.237L142.679,77.135z M151.232,79.076l-1.799,0.441l-1.091,2.786l-1.963,0.479l2.564-6.468
			c0.124-0.314,0.639-0.667,1.407-1.034c0.639-0.305,1.256-0.538,1.853-0.684c0.567-0.14,1.114-0.184,1.646-0.154
			c0.56,0.025,0.87,0.156,0.755,0.438l-2.555,6.514l-1.909,0.467L151.232,79.076z M152.632,75.414
			c-0.036-0.014-0.115-0.026-0.255-0.029c-0.27-0.008-0.448,0.022-0.509,0.038c-0.104,0.024-0.324,0.102-0.674,0.262
			c-0.159,0.075-0.25,0.127-0.303,0.159l-1.163,2.864l1.801-0.44l1.137-2.835L152.632,75.414z M158.849,77.644l-0.761-2.894
			l-1.915,5.714l-1.909,0.467l2.896-7.385l1.935-0.473l0.623,2.558l1.18-2.998l1.907-0.467l-2.9,7.384l-1.935,0.474L158.849,77.644z
			"/>
		<g>
			<path fill="#FFFFFF" d="M88.173,101.655l2.99,1.821c-1.546,4.406-8.253,13.74-12.094,16.56l6.718-17.855l-5.152,1.365
				l-8.436,21.49l10.812-2.774c0.238-0.069,9.718-7.593,15.144-23.146L88.173,101.655z"/>
			<path fill="#FFFFFF" d="M56.763,120.525c-0.055,0.006-3.943,8.012-4.733,9.654l5.35-1.399l3.616-7.498l4.324-1.27l-2.984,7.519
				l5.69-1.459l8.761-21.707C73.847,105.366,63.452,105.544,56.763,120.525z M66.754,117.033l-4.224,1.217
				c0,0,3.532-6.915,7.18-8.006L66.754,117.033z"/>
			<path fill="#FFFFFF" d="M165.003,93.536c-0.294-0.424-0.527-1.308-0.525-1.327c0.179-0.085,0.362-0.176,0.545-0.28
				c3.479-1.982,7.304-7.899,7.148-11.931c-4.89,1.31-13.088,3.435-13.131,3.493l-7.832,21.518l5.092-1.308l3.364-9.253
				c0.382,0.864,2.628,6.192,6.997,6.633c5.049,0.51,8.002-4.481,8.002-4.481C173.334,97.739,167.309,98.17,165.003,93.536z
				 M160.882,91.484l2.481-6.88l3.866-1.035C166.676,85.047,165.642,89.03,160.882,91.484z"/>
			<path fill="#FFFFFF" d="M95.409,110.731c-0.054,0.005-3.886,7.869-4.679,9.51l5.407-1.385l3.503-7.37l4.324-1.273l-2.956,7.426
				l5.645-1.427l8.772-21.597C112.844,95.364,102.099,95.75,95.409,110.731z M105.401,107.237l-4.224,1.216
				c0,0,3.533-6.912,7.178-8.002L105.401,107.237z"/>
			<polygon fill="#FFFFFF" points="134.935,89.443 126.502,111.07 131.865,109.719 140.268,88.094 			"/>
			<path fill="#FFFFFF" d="M140.673,104.929l2.691-6.304l7.375-3.988l-5.921,0.436l2.585-6.88c3.231-1.016,4.86-0.028,6.237,2.006
				l2.449-6.054l-12.988,3.309l-8.342,21.593l13.225-3.44l2.842-6.691C147.887,102.142,144.611,104.264,140.673,104.929z"/>
			<path fill="#FFFFFF" d="M116.899,111.003l7.042-18.726l-5.628,1.425l-8.313,21.651l14.267-3.677l3.15-7.676
				C123.626,108.48,121.633,110.221,116.899,111.003z"/>
		</g>
	</g>
	<g>
		<defs>
			<path id="SVGID_11_" d="M196.542,69.016c-0.049,0.053-16.757,4.078-23.882,5.781l3.181-9.563l-73.024,18.124
				c-16.769-7.625-37.482-2.335-54.153,7.021l32.384,8.159c-0.139,0.427-0.298,0.85-0.475,1.197l-14.299,4.369
				c-0.668,0.285-1.295,0.577-1.83,0.862l-27.167-7.122c-4.939,3.762-9.154,7.748-12.309,11.597l9.704-1.267
				c-27.748,44.445,17.131,50.09,38.381,20.188l35.247-8.841c-3.228,3.168-5.14,7.753-6.133,11.78
				c10.439-9.017,24.05-11.815,32.214-12.404c4.955-0.361,10.431-0.904,14.675-1.377l1.199-1.515
				c3.868-5.301,9.487-7.886,15.433-8.468c4.628-0.451,6.255,0.227,8.204,0.58c0.908,0.236,4.137,1.093,7.441,1.243
				c8.543-4.987,11.072-12.206,8.581-22.674L196.542,69.016z"/>
		</defs>
		<clipPath id="SVGID_12_">
			<use xlink:href="#SVGID_11_"  overflow="visible"/>
		</clipPath>
		<path clip-path="url(#SVGID_12_)" fill="#FFFFFF" d="M189.613,76.633l-2.127,5.421c-1.744-2.783-7.395-3.438-8.142-0.072
			c-0.56,2.522,3.437,3.439,5.764,7.838c3.174,6-0.143,12.058-5.896,15.012c-2.232,1.149-4.535,2.122-6.892,2.957
			c-1.915,0.502-3.925,1.056-6.424,1.751c-2.285,0.634-2.982,1.041-11.717,2.428c-14.849,2.238-30.527,2.948-43.614,9.092
			c5.687-5.837,20.703-9.169,37.271-11.721c18.236-2.722,37.767-7.267,30.847-17.664c-1.307-1.236-2.014-1.564-3.053-2.964
			c-4.509-6.056,3.212-12.983,11.871-12.413C188.096,76.337,189.665,76.578,189.613,76.633z"/>
		<path clip-path="url(#SVGID_12_)" fill="#FFFFFF" d="M102.523,89.192c-0.06-0.269-16.568,9.487-18.253,10.756
			c10.536-20.604-17.557-8.109-28.291,3.096c-31.33,32.694-10.721,38.166,12.091,25.59c0.471-0.235-3.22,3.198-3.22,3.198
			c-25.354,24.897-53.007,6.139-19.239-29.629c-3.834,1.081-11.74,2.899-11.751,2.678C61.364,82.681,91.548,78.45,102.523,89.192z"
			/>
	</g>
</g>
</svg>
