<svg version="1.1" id="Layer_1" xmlns="http://www.w3.org/2000/svg" xmlns:xlink="http://www.w3.org/1999/xlink" x="0px" y="0px" viewBox="0 0 200 200" enable-background="new 0 0 200 200" xml:space="preserve" preserveAspectRatio="xMidYMid">
<g>
	<path fill="#FFFFFF" d="M176.93,156.277c0.486-0.763,0.718-2.308,0.718-2.308c0.025-0.507,0.405-0.743,0.405-0.743
		c1.313-0.706,1.759-1.189,1.825-1.26c9.089-14.076,14.345-30.737,14.345-48.587c0-18.841-5.847-36.34-15.877-50.887
		c-0.545-0.566-1.838-1.325-1.838-1.325c-0.471-0.182-0.565-0.624-0.565-0.624c-0.26-1.594-0.603-2.18-0.603-2.18
		c-8.142-10.513-18.576-19.259-30.568-25.543c-2.135-0.962-4.062-1.061-4.062-1.061c-0.426,0.017-0.65-0.33-0.65-0.33
		c-0.709-0.999-2.828-2.081-3.629-2.469c-11.082-4.488-23.23-6.978-35.985-6.978c-3.864,0-7.675,0.235-11.421,0.681l4.93-6.615
		C74.284,5.466,60.167,20.83,60.167,20.83l0.008,0.02c-4.724,2.197-9.233,4.757-13.486,7.66l0.008-0.016
		c-10.261,3.679-13.213,11.941-13.213,11.941c-2.601,2.172-7.746,9.014-7.746,9.014c-1.466,0.85-3.006,2.255-3.469,2.696
		c-2.37,2.453-6.689,7.99-8.993,17.536c-0.062,0.157-0.136,0.309-0.202,0.462c-0.095,0.537-0.194,1.135-0.276,1.735
		c-0.223,1.131-0.421,2.3-0.574,3.534l0.087-0.132c-0.033,0.252-0.058,0.409-0.058,0.409c-0.244,0.165-1.714,6.046-1.714,6.046
		c-0.243,0.735-2.923,8.794-2.923,8.794l-0.017-0.012c-0.004,0.012-0.004,0.033-0.008,0.049c-7.04,24.63,2.325,39.557,3.915,41.857
		c12.457,36.241,47.567,62.346,88.94,62.346C132.017,194.769,159.934,179.573,176.93,156.277"/>
	<path fill="none" stroke="#FFFFFF" stroke-width="10.0191" stroke-miterlimit="5" d="M176.93,156.277
		c0.486-0.763,0.718-2.308,0.718-2.308c0.025-0.507,0.405-0.743,0.405-0.743c1.313-0.706,1.759-1.189,1.825-1.26
		c9.089-14.076,14.345-30.737,14.345-48.587c0-18.841-5.847-36.34-15.877-50.887c-0.545-0.566-1.838-1.325-1.838-1.325
		c-0.471-0.182-0.565-0.624-0.565-0.624c-0.26-1.594-0.603-2.18-0.603-2.18c-8.142-10.513-18.576-19.259-30.568-25.543
		c-2.135-0.962-4.062-1.061-4.062-1.061c-0.426,0.017-0.65-0.33-0.65-0.33c-0.709-0.999-2.828-2.081-3.629-2.469
		c-11.082-4.488-23.23-6.978-35.985-6.978c-3.864,0-7.675,0.235-11.421,0.681l4.93-6.615C74.284,5.466,60.167,20.83,60.167,20.83
		l0.008,0.02c-4.724,2.197-9.233,4.757-13.486,7.66l0.008-0.016c-10.261,3.679-13.213,11.941-13.213,11.941
		c-2.601,2.172-7.746,9.014-7.746,9.014c-1.466,0.85-3.006,2.255-3.469,2.696c-2.37,2.453-6.689,7.99-8.993,17.536
		c-0.062,0.157-0.136,0.309-0.202,0.462c-0.095,0.537-0.194,1.135-0.276,1.735c-0.223,1.131-0.421,2.3-0.574,3.534l0.087-0.132
		c-0.033,0.252-0.058,0.409-0.058,0.409c-0.244,0.165-1.714,6.046-1.714,6.046c-0.243,0.735-2.923,8.794-2.923,8.794l-0.017-0.012
		c-0.004,0.012-0.004,0.033-0.008,0.049c-7.04,24.63,2.325,39.557,3.915,41.857c12.457,36.241,47.567,62.346,88.94,62.346
		C132.017,194.769,159.934,179.573,176.93,156.277z"/>
	<path d="M178.346,52.492c-0.545-0.566-1.838-1.325-1.838-1.325c-0.471-0.182-0.565-0.624-0.565-0.624
		c-0.26-1.594-0.603-2.18-0.603-2.18c-8.142-10.513-18.576-19.259-30.568-25.543c-2.135-0.962-4.062-1.061-4.062-1.061
		c-0.426,0.017-0.65-0.33-0.65-0.33c-0.709-0.999-2.828-2.081-3.629-2.469c-11.082-4.488-23.23-6.978-35.985-6.978
		c-3.864,0-7.675,0.235-11.421,0.681l4.93-6.615C74.284,5.466,60.167,20.83,60.167,20.83l0.008,0.02
		c-4.724,2.197-9.233,4.757-13.486,7.66l0.008-0.016c-10.261,3.679-13.213,11.941-13.213,11.941
		c-2.601,2.172-7.746,9.014-7.746,9.014c-1.466,0.85-3.006,2.255-3.469,2.696c-2.37,2.453-6.689,7.99-8.993,17.536
		c-0.062,0.157-0.136,0.309-0.202,0.462c-0.095,0.537-0.194,1.135-0.276,1.735c-0.223,1.131-0.421,2.3-0.574,3.534l0.087-0.132
		c-0.033,0.252-0.058,0.409-0.058,0.409c-0.244,0.165-1.714,6.046-1.714,6.046c-0.243,0.735-2.923,8.794-2.923,8.794l-0.017-0.012
		c-0.004,0.012-0.004,0.033-0.008,0.049c-7.04,24.63,2.325,39.557,3.915,41.857c12.457,36.241,47.567,62.346,88.94,62.346
		c31.571,0,59.489-15.196,76.484-38.492c0.479-0.763,0.718-2.308,0.718-2.308c0.025-0.507,0.405-0.743,0.405-0.743
		c1.313-0.706,1.759-1.189,1.825-1.26c9.089-14.076,14.345-30.737,14.345-48.587C194.222,84.539,188.375,67.039,178.346,52.492"/>
	<path fill="#FFFFFF" d="M61.087,34.791c0.244-0.256,0.467-0.487,0.665-0.698c0.318-0.33,0.438-0.409,0.471-0.384
		c0.041-0.037,0.07-0.066,0.07-0.066c0.087-4.691,1.14-8.448,1.14-8.448c8.531-11.917,22.598-15.072,22.598-15.072
		c1.751-0.504,0.615,0.273,0.615,0.273c-8.857,9.914-7.932,18.123-7.932,18.123l8.452,30.844c0,0-6.859-2.415-12.135-13.254
		c-2.432,21.62,17.953,39.148,17.953,39.148c0.883,0.764-0.512-0.062-0.512-0.062c-5.1-2.548-10.98-7.924-12.59-9.431
		c0.425,1.672,10.352,51.555,10.384,51.704c0.046,0.24,0.19,0.715,0.289,1.036l3.444-8.542l2.837,25.191
		c-12.933,12.032-26.695,7.263-27.549,6.954c0.343,0.536,0.595,0.929,0.599,0.929c0,0,11.173,21.963,56.717,19.625
		c0,0,1.098,0,0.925,0.137c0.017,0.036-0.041,0.095-0.248,0.169c-0.859,0.305-2.2,0.52-2.2,0.52
		c-54.976,14.692-83.454-32.166-84.693-34.25c-0.347-0.479-3.014-4.241-4.5-8.028c-0.05-0.112-0.12-0.474,0.144-0.198
		c0,0,5.835,6.086,22.347,7.594c0.12-0.017,0.186-0.026,0.186-0.026c-12.759-14.229-18.193-24.539-18.99-26.121h-0.012
		c0,0-1.536-2.312-3.353-8.845c0,0,0.05-0.326,0.207,0c0.619,1.296,4.848,7.528,9.976,8.928c0.008,0,0.021-0.009,0.021-0.009
		c-4.36-7.036-7.073-18.168-7.42-19.794c5.942,8.315,16.471,8.919,16.471,8.919c-0.012-0.029-0.037-0.053-0.058-0.079
		c0.021,0.038,0.033,0.062,0.033,0.062c-17.317-17.284-13.58-36.088-6.553-49.665C53.023,43.97,58.309,37.776,61.087,34.791"/>
	<path fill="#C4CED4" d="M105.752,123.922l5.847-30.332c0.603-2.973,0.264,0.041,0.264,0.041l-3.332,31.625l7.283,25.122
		l-14.133,10.847c-1.453,1.123-0.339-0.223-0.339-0.223l11.339-11.925L105.752,123.922z"/>
	<path fill="none" stroke="#000000" stroke-width="1.0441" d="M105.752,123.922l5.847-30.332c0.603-2.973,0.264,0.041,0.264,0.041
		l-3.332,31.625l7.283,25.122l-14.133,10.847c-1.453,1.123-0.339-0.223-0.339-0.223l11.339-11.925L105.752,123.922z"/>
	<path fill="#C4CED4" d="M109.435,88.709c-1.25,0.603-0.062-0.239-0.062-0.239c6.083-4.047,7.114-22.273,7.247-25.312
		c0.012-0.347,0.165,0,0.165,0C123.347,83.522,109.435,88.709,109.435,88.709"/>
	<path fill="none" stroke="#000000" stroke-width="1.0441" d="M109.435,88.709c-1.25,0.603-0.062-0.239-0.062-0.239
		c6.083-4.047,7.114-22.273,7.247-25.312c0.012-0.347,0.165,0,0.165,0C123.347,83.522,109.435,88.709,109.435,88.709z"/>
	<path fill="#C4CED4" d="M115.245,37.524c0,0-1.35-4.533-2.609-6.078c0,0,7.238-4.038,16.859-0.817c0,0,0.289,0.12-0.025,0.107
		C127.673,30.72,119.659,30.414,115.245,37.524"/>
	<path fill="none" stroke="#000000" stroke-width="1.0441" d="M115.245,37.524c0,0-1.35-4.533-2.609-6.078
		c0,0,7.238-4.038,16.859-0.817c0,0,0.289,0.12-0.025,0.107C127.673,30.72,119.659,30.414,115.245,37.524z"/>
	<path fill="#C4CED4" d="M105.36,52.864c0,0,3.936-4.67,5.034-15.042c0,0,6.585,22.041-5.211,47.32
		c-0.071,0.153-0.154,0.186-0.099-0.049c0,0,5.582-19.027,5.186-35.275c0,0-3.431,10.913-5.513,12.99c0,0-3.86-13.473-9.505-17.834
		c0,0,6.095,22.739,5.108,38.392c0,0-0.087,0.57-0.157-0.029c-0.52-4.484-3.473-25.171-16.194-52.625
		C84.008,30.711,97.238,37.887,105.36,52.864"/>
	<path fill="none" stroke="#000000" stroke-width="1.0441" stroke-linejoin="round" d="M105.36,52.864c0,0,3.936-4.67,5.034-15.042
		c0,0,6.585,22.041-5.211,47.32c-0.071,0.153-0.154,0.186-0.099-0.049c0,0,5.582-19.027,5.186-35.275c0,0-3.431,10.913-5.513,12.99
		c0,0-3.86-13.473-9.505-17.834c0,0,6.095,22.739,5.108,38.392c0,0-0.087,0.57-0.157-0.029c-0.52-4.484-3.473-25.171-16.194-52.625
		C84.008,30.711,97.238,37.887,105.36,52.864z"/>
	<path fill="#C4CED4" d="M155.12,170.419c0,0-38.983,33.087-89.275,9.39c0,0-27.5-10.472-40.461-37.769
		c-10.732-16.64-12.515-29.556-12.338-41.976c0,0-0.066-3.093,0.276-0.594c0,0,2.279,14.864,7.808,23.317
		c0,0,1.577,3.117,0.434-0.232c0,0-3.704-13.943-3.729-23.474c0,0-6.644-25.456,7.87-39.924c0,0-3.786,8.506-3.939,15.81
		c0,0-0.252,2.754,0.38,0.079c0,0,3.014-11.896,12.656-22.821c0,0,3.423-10.897,8.89-15.071c0,0-2.618,4.587-2.647,7.87
		c0,0,9.542-12.028,15.757-13.816c0,0-27.43,23.908-21.996,65.182c0,0-6.57-10.471-2.531-31.505c0,0-20.439,24.42,10.703,63.25
		c0,0-10.071-1.883-17.908-17.053c0,0,0.644,41.126,45.907,64.863c0,0,37.079,21.364,83.577-5.917
		C154.554,170.027,159.356,166.93,155.12,170.419"/>
	<path fill="none" stroke="#000000" stroke-width="1.0441" stroke-linejoin="round" d="M155.12,170.419
		c0,0-38.983,33.087-89.275,9.39c0,0-27.5-10.472-40.461-37.769c-10.732-16.64-12.515-29.556-12.338-41.976
		c0,0-0.066-3.093,0.276-0.594c0,0,2.279,14.864,7.808,23.317c0,0,1.577,3.117,0.434-0.232c0,0-3.704-13.943-3.729-23.474
		c0,0-6.644-25.456,7.87-39.924c0,0-3.786,8.506-3.939,15.81c0,0-0.252,2.754,0.38,0.079c0,0,3.014-11.896,12.656-22.821
		c0,0,3.423-10.897,8.89-15.071c0,0-2.618,4.587-2.647,7.87c0,0,9.542-12.028,15.757-13.816c0,0-27.43,23.908-21.996,65.182
		c0,0-6.57-10.471-2.531-31.505c0,0-20.439,24.42,10.703,63.25c0,0-10.071-1.883-17.908-17.053c0,0,0.644,41.126,45.907,64.863
		c0,0,37.079,21.364,83.577-5.917C154.554,170.027,159.356,166.93,155.12,170.419z"/>
	<path fill="#0067AB" d="M102.606,19.654c41.452,0.008,63.506,29.63,63.506,29.63c1.784,2.072-3.282,2.642-3.282,2.642
		c-29.098,4.059-43.075-8.688-43.075-8.688C122.128,36.814,134.647,31,134.647,31c-12.396-7.164-23.688-1.85-23.688-1.85
		c-3.606-4.517-9.366-8.931-9.366-8.931C100.355,19.476,102.606,19.654,102.606,19.654"/>
	<path fill="none" stroke="#0067AB" stroke-width="1.0441" d="M102.606,19.654c41.452,0.008,63.506,29.63,63.506,29.63
		c1.784,2.072-3.282,2.642-3.282,2.642c-29.098,4.059-43.075-8.688-43.075-8.688C122.128,36.814,134.647,31,134.647,31
		c-12.396-7.164-23.688-1.85-23.688-1.85c-3.606-4.517-9.366-8.931-9.366-8.931C100.355,19.476,102.606,19.654,102.606,19.654z"/>
	<path fill="#0067AB" d="M121.402,90.902c27.71,26.252,18.362,70.141,18.362,70.141c-0.495,1.503-2.102,1.908-2.102,1.908
		c-19.407,4.307-32.157,0.264-32.157,0.264l14.051-11.289l-7.098-26.323l1.949-17.565c6.037,1.813,6.037,16.967,6.037,16.967
		C131.757,101.257,121.402,90.902,121.402,90.902"/>
	<path fill="none" stroke="#0067AB" stroke-width="1.0441" stroke-linejoin="round" d="M121.402,90.902
		c27.71,26.252,18.362,70.141,18.362,70.141c-0.495,1.503-2.102,1.908-2.102,1.908c-19.407,4.307-32.157,0.264-32.157,0.264
		l14.051-11.289l-7.098-26.323l1.949-17.565c6.037,1.813,6.037,16.967,6.037,16.967C131.757,101.257,121.402,90.902,121.402,90.902z
		"/>
	<path fill="#0067AB" d="M172.524,142.858c0,0-10.587,13.452-26.265,18.544c0,0-2.498,0.95-1.899-1.652
		c0,0,11.702-45.325-19.312-75.508c0,0-1.428-0.95,0.376-0.475c0,0,5.07,1.549,8.299,5.546c0,0-0.516-8.911-6.558-15.852
		c0,0-1.709-1.808,0.096-0.45c0,0,45.213,21.388,46.749,65.004C174.01,138.014,174.353,141.334,172.524,142.858"/>
	<path fill="none" stroke="#0067AB" stroke-width="1.0441" d="M172.524,142.858c0,0-10.587,13.452-26.265,18.544
		c0,0-2.498,0.95-1.899-1.652c0,0,11.702-45.325-19.312-75.508c0,0-1.428-0.95,0.376-0.475c0,0,5.07,1.549,8.299,5.546
		c0,0-0.516-8.911-6.558-15.852c0,0-1.709-1.808,0.096-0.45c0,0,45.213,21.388,46.749,65.004
		C174.01,138.014,174.353,141.334,172.524,142.858z"/>
	<path fill="#0067AB" d="M177.776,129.752c-1.173-47.72-60.685-75.117-60.685-75.117c7.176-0.054,11.025,5.195,11.025,5.195
		c0.161-2.362-0.875-5.195-0.875-5.195c14.113,5.372,39.949,0.173,39.949,0.173c3.046-0.256,3.749,1.478,3.749,1.478
		c5.665,6.301,12.733,21.03,13.91,38.706C186.514,120.015,177.949,136.912,177.776,129.752"/>
	<path fill="none" stroke="#0067AB" stroke-width="1.0441" stroke-miterlimit="5" d="M177.776,129.752
		c-1.173-47.72-60.685-75.117-60.685-75.117c7.176-0.054,11.025,5.195,11.025,5.195c0.161-2.362-0.875-5.195-0.875-5.195
		c14.113,5.372,39.949,0.173,39.949,0.173c3.046-0.256,3.749,1.478,3.749,1.478c5.665,6.301,12.733,21.03,13.91,38.706
		C186.514,120.015,177.949,136.912,177.776,129.752z"/>
	<path d="M80.684,14.472c0.029-0.041,0.053-0.074,0.078-0.107h-0.016c-0.512,0.144-9.587,2.82-12.284,16.678
		c0,0-0.017,0.256,0.128,0.02c0.813-1.35,3.662-5.645,6.272-4.373c0,0,0.004-0.103,0.029-0.277
		C75.032,25.24,75.891,20.422,80.684,14.472"/>
	<path d="M73.723,139.72c-1.966-3.955-14.58-31.501-14.58-31.501c-3.927,1.239-8.803-1.945-8.803-1.945
		c0.008,0.004,0.012,0.008,0.012,0.008c6.198,16.479,20.815,30.894,23.14,33.516c0.02,0.008,0.029,0.021,0.037,0.033
		c0.396,0.438,0.392,0.272,0.392,0.272C73.876,140.025,73.809,139.88,73.723,139.72"/>
	<path fill="#C4CED4" d="M89.95,146.447c0.198-1.313,2.638-16.872-5.212-19.049c0,0-5.4-1.379-5.054,9.882
		C87.027,120.412,89.95,146.351,89.95,146.447"/>
	<path d="M79.685,137.28l2.684,5.892c0,0,1.528-15.81,7.593,3.246C89.962,146.417,87.237,119.433,79.685,137.28"/>
	<path d="M61.212,49.99C49.828,76.012,75.449,86.739,75.783,86.879H75.8l-1.363-5.996l-0.768-3.423
		c-0.644-0.214-1.243-0.458-1.825-0.706c-0.198-0.087-0.388-0.182-0.578-0.273c-0.24-0.12-0.479-0.231-0.711-0.351
		c-11.19-5.946-10.099-20.2-9.422-24.832c0.008-0.037,0.017-0.062,0.021-0.095c0.013-0.136,0.037-0.269,0.058-0.388
		c0.07-0.434,0.128-0.731,0.161-0.888c0.017-0.066,0.029-0.112,0.029-0.112v-0.025C61.422,49.449,61.273,49.845,61.212,49.99"/>
	<path d="M67.083,64.669c0,0,1.523,5.037,8.101,5.322c0,0-0.273-0.392-0.681-1.114c-1.222-2.152-4.356-8.807-4.789-15.744
		C69.713,53.095,64.048,58.091,67.083,64.669"/>
	<path fill="#C4CED4" d="M78.075,123.249l-1.846-32.707l10.987,36.461C87.216,127.002,83.62,118.389,78.075,123.249"/>
	<path fill="#C4CED4" d="M69.821,45.064c-0.318,5.454-0.099,8.155-0.099,8.155s-6.566,5.033-1.544,13.465
		C61.05,59.016,67.009,49.197,69.821,45.064"/>
	<path fill="#C4CED4" d="M78.74,29.229l2.432,19.547c0,0,1.193,5.351-6.14-2.667c0,0,3.567,8.96,10.897,12.796
		c0.417,0.211,0.838,0.413,1.276,0.594c0.045,0.017,0.087,0.037,0.132,0.058l-8.316-30.37c0,0-0.157-0.421-0.244-0.45
		C78.723,28.721,78.698,28.832,78.74,29.229"/>
	<g>
		<defs>
			<path id="SVGID_1_" d="M89.95,146.447c0.045-0.579,0.012-2.388,0.12-4.906c0.206-5.161-0.054-12.68-5.331-14.142
				c0,0-4.649-1.23-4.88,8.147c-0.021,0.54-0.087,1.007-0.173,1.734C87.027,120.412,89.95,146.351,89.95,146.447"/>
		</defs>
		<clipPath id="SVGID_2_">
			<use xlink:href="#SVGID_1_"  overflow="visible"/>
		</clipPath>
		<path clip-path="url(#SVGID_2_)" fill="none" stroke="#000000" stroke-width="1.0441" d="M79.685,137.28l2.684,5.892
			c0,0,1.528-15.81,7.593,3.246C89.962,146.417,87.237,119.433,79.685,137.28z"/>
	</g>
	<g>
		<defs>
			<path id="SVGID_3_" d="M66.303,63.785c-3.662-7.081,1.049-15.088,3.518-18.721c-0.174,2.903-0.463,5.029-0.429,6.375
				c0.012,1.185,0.33,1.78,0.33,1.78s-6.566,5.033-1.544,13.465C67.302,65.511,66.811,64.776,66.303,63.785"/>
		</defs>
		<clipPath id="SVGID_4_">
			<use xlink:href="#SVGID_3_"  overflow="visible"/>
		</clipPath>
		<path clip-path="url(#SVGID_4_)" fill="none" stroke="#000000" stroke-width="1.0441" stroke-linecap="square" d="M69.722,53.219
			c0,0-6.566,5.033-1.544,13.465"/>
	</g>
	<g>
		<defs>
			<path id="SVGID_5_" d="M78.851,29.584l2.321,19.192c0,0,0.913,4.364-3.778,0.02c-0.661-0.615-1.908-2.015-2.362-2.688
				c0,0,3.567,8.96,10.897,12.796c0.417,0.211,0.838,0.413,1.276,0.594c0.045,0.017,0.087,0.037,0.132,0.058l-8.316-30.37
				c0,0-0.157-0.421-0.244-0.45C78.797,29.109,78.822,29.402,78.851,29.584"/>
		</defs>
		<clipPath id="SVGID_6_">
			<use xlink:href="#SVGID_5_"  overflow="visible"/>
		</clipPath>
		<path clip-path="url(#SVGID_6_)" fill="none" stroke="#000000" stroke-width="1.0441" stroke-linejoin="round" d="M75.032,46.109
			c0,0,3.567,8.96,10.897,12.796c0.417,0.211,0.838,0.413,1.276,0.594c0.045,0.017,0.087,0.037,0.132,0.058l-8.316-30.37
			c0,0-0.157-0.421-0.244-0.45"/>
	</g>
</g>
</svg>
