<svg version="1.1" id="Layer_1" xmlns="http://www.w3.org/2000/svg" xmlns:xlink="http://www.w3.org/1999/xlink" x="0px" y="0px" viewBox="0 0 200 200" enable-background="new 0 0 200 200" xml:space="preserve" preserveAspectRatio="xMidYMid">
<g>
	<path fill="#FFFFFF" d="M200,90.612c0,0-4.579,1.517-5.007,1.659c-4.81-3.651-10.624-3.272-10.874-3.252
		c0,0-4.401-0.001-5.718-0.002c0.072-0.153,0.32-0.669,0.32-0.669s-3.565-4.497-4.608-5.815c1.631-0.012,7.753-0.058,7.753-0.058
		l-0.996-0.943c-26.527-25.066-43.274-26.944-43.973-27.012l-0.292-0.028c0,0-0.439,0.529-0.68,0.817
		c-0.825-0.698-31.176-26.327-31.176-26.327S72.88,55.156,71.975,55.9c-0.196-0.287-0.6-0.876-0.6-0.876l-0.355,0.069
		c-23.802,4.615-44.503,26.222-44.709,26.439l-0.883,0.931c0,0,4.967,0,6.626,0c-1.057,1.132-3.378,3.616-3.378,3.616
		s1.536,2.478,2.188,3.53c-1.859,0-30.864,0-30.864,0v16.834l0.576-0.025c0.61-0.03,1.058,0.1,1.334,0.379
		c0.325,0.333,0.35,0.815,0.35,0.963c0,0.026,0,0.044,0,0.044c0,0.31,0.222,40.564,0.222,40.564
		c0.006,0.138,0.009,0.265,0.009,0.388c0,1.468-0.43,1.872-0.497,1.928c-0.171,0.05-1.827,0.538-1.827,0.538v16.507h16.565
		c0,0,0.755-0.392,1.274-0.659c0.041,0.141,0.207,0.716,0.207,0.716h12.322c0,0,5.587-3.265,6.181-3.613
		c4.549,4.013,9.816,3.685,10.043,3.668c4.11-0.03,7.486-2.176,7.627-2.266c0,0,5.18-3.392,6.69-4.38
		c4.713,7.047,12.439,6.623,12.518,6.616c4.752,0.002,7.62-2.095,7.74-2.185c-0.023,0.013,5.329-3.466,6.863-4.464
		c4.335,6.581,11.947,6.586,12.277,6.581c5.388,0.277,9.281-2.743,10.535-3.865c0.581,0.734,3.045,3.85,3.045,3.85h27.52
		c0,0,0-2.534,0-3.762c1.264,0.961,4.945,3.762,4.945,3.762h19.806c0,0,0-2.73,0-3.862c1.219,0.661,5.546,3.008,5.546,3.008
		s2.201-1.722,2.706-2.117c3.984,3.104,9.389,3.089,9.624,3.087l0,0c10.661,0,14.027-7.526,14.06-7.601
		c1.632-2.912,1.709-6.907,1.711-7.075V139.15c0-8.44-4.877-12.544-5.086-12.714c-0.884-0.906-3.494-2.735-5.182-3.884
		c2.573,0,10.296,0,10.296,0V90.612z M199.449,122.001h-11.554c0,0,5.313,3.503,6.642,4.861c0,0,4.883,4.011,4.883,12.288v14.01
		c0,0-0.058,3.988-1.665,6.863c0,0-0.013,0.028-0.038,0.081c-0.382,0.799-3.746,7.187-13.524,7.187c0,0-5.734,0.083-9.63-3.225
		l-2.745,2.151l-6.043-3.276v4.235h-19.069l-5.681-4.323v4.323h-26.703l-3.249-4.109c0,0-4.293,4.448-10.607,4.125
		c0,0-7.984,0.127-12.136-6.772l-7.325,4.764c0,0-2.787,2.078-7.45,2.078c0,0-7.797,0.563-12.349-6.811c0,0-5.165,3.419-7.118,4.66
		c0,0-3.334,2.151-7.37,2.181c0,0-5.455,0.419-9.948-3.79l-6.383,3.732H18.629l-0.28-0.964l-1.752,0.906H0.72v-15.541l1.528-0.452
		c0,0,0.014-0.006,0.039-0.024c0.17-0.119,0.848-0.724,0.747-2.798L2.81,107.845c0,0,0.17-2.089-2.259-1.978V90.162h31.303
		l-2.488-4.014l3.957-4.236h-6.612c0,0,20.511-21.642,44.414-26.278l0.735,1.074L104.745,29.7l31.248,26.388l0.85-1.02
		c0,0,16.954,1.64,43.648,26.865l-7.511,0.057l5.096,6.431l-0.55,1.148h6.638c0,0,6.02-0.484,10.764,3.305l4.522-1.499V122.001z"/>
	<path fill="#4D90CD" d="M182.193,117.86c-0.012-0.208-0.016-0.391-0.019-0.535C182.176,117.469,182.181,117.65,182.193,117.86z"/>
	<path fill="#4D90CD" d="M85.517,156.834c-0.137,0.268-0.279,0.52-0.422,0.771C85.238,157.356,85.379,157.1,85.517,156.834z"/>
	<path fill="#4D90CD" d="M54.626,161.593c-0.118,0.119-0.239,0.227-0.359,0.339C54.385,161.827,54.504,161.716,54.626,161.593z"/>
	<path fill="#4D90CD" d="M41.071,100.988c-0.014-0.023-0.028-0.045-0.044-0.069C41.042,100.943,41.057,100.966,41.071,100.988z"/>
	<path fill="#4D90CD" d="M182.176,117.055c0.001-0.025,0.001-0.047,0.002-0.062C182.177,117.008,182.177,117.024,182.176,117.055z"
		/>
	<path fill="#4D90CD" d="M184.163,89.569h-6.638l0.55-1.148l-5.096-6.431l7.511-0.057c-26.694-25.225-43.648-26.865-43.648-26.865
		l-0.85,1.02L104.745,29.7L71.86,56.708l-0.735-1.074c-23.903,4.636-44.414,26.278-44.414,26.278h6.612l-3.957,4.236l2.488,4.014
		H0.551v15.704c2.429-0.111,2.259,1.978,2.259,1.978l0.223,40.519c0.101,2.073-0.577,2.679-0.747,2.798
		c-0.025,0.017-0.039,0.024-0.039,0.024l-1.528,0.452v15.541h15.877l1.752-0.906l0.28,0.964h11.757l6.383-3.732
		c4.493,4.209,9.948,3.79,9.948,3.79c4.036-0.03,7.37-2.181,7.37-2.181c1.953-1.241,7.118-4.66,7.118-4.66
		c4.552,7.373,12.349,6.811,12.349,6.811c4.664,0,7.45-2.078,7.45-2.078l7.325-4.764c4.152,6.899,12.136,6.772,12.136,6.772
		c6.314,0.324,10.607-4.125,10.607-4.125l3.249,4.109h26.703v-4.323l5.681,4.323h19.069v-4.235l6.043,3.276l2.745-2.151
		c3.896,3.308,9.63,3.225,9.63,3.225c9.779,0,13.143-6.388,13.524-7.187c0.025-0.053,0.038-0.081,0.038-0.081
		c1.607-2.875,1.665-6.863,1.665-6.863v-14.01c0-8.277-4.883-12.288-4.883-12.288c-1.329-1.358-6.642-4.861-6.642-4.861h11.554
		V91.375l-4.522,1.499C190.183,89.085,184.163,89.569,184.163,89.569z M197.155,94.555v0.522v24.173v0.384h-0.374l-6.861-0.008
		l-2.977-0.004h-0.339c0,0-3.952-1.3-4.391-1.46c-0.006-0.066-0.01-0.128-0.014-0.19c0.028,0.424,0.085,0.937,0.206,1.462
		c0.211,0.913,0.609,1.848,1.364,2.343c0.034,0.021,3.622,2.532,8.89,6.337c0.188,0.151,4.611,3.649,4.496,11.206v14.467
		c0,0.178-0.013,4.542-3.289,7.808c-2.319,2.309-5.651,3.455-9.889,3.421c-0.208,0.008-5.113,0.272-9.482-4.003l-2.338,1.932
		l-0.405,0.324l-0.19,0.149c0,0-6.608-3.485-8.027-4.267v5.785l-12.606-0.01l-3.734-0.004c0,0-6.707-4.981-8.219-6.143v6.156
		l-18.122-0.007l-5.668-0.001c0,0-3.511-4.072-4.278-5.009c-4.293,5.17-9.556,5.106-9.625,5.106
		c-4.166-0.146-7.432-1.474-9.699-3.96c-1.103-1.206-1.847-2.549-2.353-3.845c-1.155,0.752-6.427,4.035-7.928,4.942
		c-0.139,0.114-0.278,0.232-0.418,0.336c-3.502,2.622-6.858,2.52-6.893,2.52c-3.85-0.025-6.924-1.187-9.143-3.474
		c-1.325-1.368-2.172-2.956-2.723-4.464c-1.227,0.808-7.138,4.566-8.513,5.419c-0.48,0.38-0.968,0.708-1.454,0.985
		c-2.804,1.594-5.491,1.59-5.636,1.59c-3.582-0.037-6.445-1.203-8.517-3.48c-0.254-0.279-0.489-0.569-0.709-0.867
		c-1.619,0.955-7.387,4.204-7.387,4.204l-0.384,0.013h-0.369h-8.449h-0.311l-0.054-0.3l-0.21-1.035
		c-1.074,0.384-4.098,1.323-4.098,1.323l-0.357,0.008h-0.011H3.373H2.999v-0.376l-0.015-10.773v-0.22l0.192-0.106
		c0.083-0.053,2.119-1.255,2.068-4.649c0,0-0.058-39.606-0.058-39.621c0-0.042,0.129-4.288-2.048-5.352l-0.211-0.101v-0.24
		l0.058-10.8v-0.369h0.028h0.347h10.68h0.304l0,0l5.251,0.009v0.365v-0.374h0.378h11.806h0.376v0.009l3.482-0.001
		c-0.019-0.031-0.039-0.062-0.058-0.093c-1.781-2.835-3.281-5.224-3.281-5.224l-0.29-0.473l0.341-0.426
		c0.071-0.092,1.769-2.239,6.224-6.149c-0.626,0-6.698,0-6.698,0s1.45-1.358,1.456-1.364c0.752-0.691,18.615-16.962,36.368-20.563
		l0.49-0.095c0,0,0.297,0.401,0.298,0.401c0,0,0.686,0.958,1.089,1.519l33.044-27.243l31.593,26.816
		c0.427-0.559,1.216-1.592,1.216-1.593l0.298-0.382l0.467,0.086c14.915,2.765,33.386,19.082,35.443,20.932l1.507,1.363
		c0,0-6.9,0-7.484,0c4.248,4.284,7.283,7.883,7.62,8.285l0.122,0.105c0,0-0.42,0.678-0.421,0.679l-2.077,3.273
		c3.404,0.006,8.913-0.344,10.568-0.343c-0.027,0.007-0.053,0.014-0.079,0.021c0.26-0.03,0.524-0.055,0.795-0.073
		c0.264-0.016,6.366-0.235,10.208,3.701l2.261-0.772L197.155,94.555z"/>
	<path fill="#4D90CD" d="M84.673,158.303c-0.012,0.02-0.023,0.039-0.036,0.058C84.649,158.342,84.661,158.323,84.673,158.303z"/>
	<path fill="#4D90CD" d="M182.174,117.283c0-0.085,0-0.158,0.002-0.21C182.174,117.125,182.174,117.196,182.174,117.283z"/>
	<path fill="#4D90CD" d="M86.14,155.52c-0.173,0.402-0.355,0.784-0.539,1.151C85.786,156.305,85.966,155.923,86.14,155.52z"/>
	<path fill="#041E41" d="M186.569,108.709c0-0.017,0.057-1.87-0.881-2.816c-0.377-0.382-0.86-0.563-1.485-0.556
		c-0.079,0-1.969,0.066-2.024,3.753v7.874c0,0-0.001,0.019-0.001,0.03c-0.001,0.015-0.001,0.036-0.002,0.062
		c0,0.004,0,0.013,0,0.018c-0.002,0.053-0.002,0.125-0.002,0.21c0,0.014,0,0.028,0,0.043c0.002,0.144,0.006,0.327,0.019,0.535
		c0,0.036,0.003,0.073,0.005,0.111c0.004,0.062,0.009,0.124,0.014,0.19c0.439,0.16,4.391,1.46,4.391,1.46l-0.034-0.372V108.709z"/>
	<path fill="#041E41" d="M13.167,148.768c0.006,0.036,0.352,3.5,2.683,4.702l0.204,0.105v0.226v10.758l-0.021,0.367
		c0,0,3.025-0.939,4.098-1.323l-6.962-34.176C13.168,135.954,13.168,148.794,13.167,148.768z"/>
	<path fill="#FDB927" d="M41.027,100.919c0.016,0.024,0.03,0.045,0.044,0.069c0.183,0.294,0.289,0.463,0.289,0.463
		c0.001,0,0.387,0.601,0.387,0.601l0.637-0.323c28.765-14.762,61.344-13.918,62.717-13.874c35.36,1.545,59.476,15.517,59.709,15.659
		l0.652,0.389l7.441-11.716l2.077-3.273c0.001-0.001,0.421-0.679,0.421-0.679l-0.122-0.105c-0.337-0.402-3.372-4.002-7.62-8.285
		c0.584,0,7.484,0,7.484,0l-1.507-1.363c-2.057-1.85-20.528-18.167-35.443-20.932l-0.467-0.086l-0.298,0.382
		c0,0.001-0.789,1.034-1.216,1.593l0.105,0.09v0.001l0.876,0.742l1.001-1.303l0.103,0.056c5.646,3.045,16.634,11.468,16.706,11.529
		c6.758,4.715,13.642,12.016,17.146,15.947l-0.166,0.214c-2.887-1.469-5.923-2.889-9.025-4.22c-1.661-0.71-3.308-1.371-4.943-2.005
		c-31.124-12.074-57.208-10.732-57.486-10.717c-4.08,0.119-8.186,0.37-12.203,0.749c-4.28,0.388-8.613,0.956-12.876,1.688l0,0
		c-8.307,1.404-16.283,3.364-23.761,5.837c-1.003,0.33-1.999,0.669-2.983,1.02l-0.002,0.002c-5.708,2.03-9.944,3.961-12.493,5.224
		l-0.158-0.222c4.156-4.053,14.04-12.627,33.561-24.504l0.109-0.066l0.854,1.187l0.89-0.733v-0.001l0.107-0.088
		c-0.403-0.561-1.089-1.519-1.089-1.519c-0.001-0.001-0.298-0.401-0.298-0.401l-0.49,0.095
		c-17.753,3.602-35.616,19.873-36.368,20.563c-0.006,0.006-1.456,1.364-1.456,1.364s6.072,0,6.698,0
		c-4.455,3.911-6.153,6.058-6.224,6.149l-0.341,0.426l0.29,0.473c0,0,1.5,2.389,3.281,5.224c0.019,0.031,0.04,0.063,0.058,0.093l0,0
		C37.716,95.647,40.154,99.529,41.027,100.919z M155.608,69.743l-0.006-0.004c-0.07-0.055-7.337-5.653-13.226-9.448l0.12-0.247
		c11.851,4.09,25.175,15.012,28.977,18.262l0.283,0.243h-0.374l-5.451-0.04C162.151,74.83,158.676,71.881,155.608,69.743z
		 M35.183,78.68l0.28-0.242c3.679-3.184,16.745-13.899,30.43-18.087l0.114,0.249c-10.287,6.404-18.859,12.476-25.569,18.08H35.183z
		 M33.669,86.77l0.125-0.07c4.383-2.463,28.195-14.799,66.784-15.912c1.456-0.073,36.052-1.567,72.883,17.83l0.132,0.07
		l-8.551,13.47l-0.114-0.064c-4.233-2.341-27.01-14.094-59.762-15.527c-0.329-0.014-33.264-1.216-62.845,13.747l-0.112,0.057
		L33.669,86.77z"/>
	<path fill="#4D90CD" d="M171.757,78.55l-0.283-0.243c-3.803-3.251-17.127-14.172-28.977-18.262l-0.12,0.247
		c5.89,3.795,13.156,9.392,13.226,9.448l0.006,0.004c3.068,2.138,6.542,5.087,10.324,8.767l5.451,0.04H171.757z"/>
	<path fill="#4D90CD" d="M66.007,60.6l-0.114-0.249c-13.685,4.188-26.751,14.904-30.43,18.087l-0.28,0.242h5.255
		C47.148,73.075,55.721,67.003,66.007,60.6z"/>
	<path fill="#4D90CD" d="M161.093,89.033c0,0,0.483-1.135-1.462-1.78l-4.094-1.567l-0.844,2.121l4.451,1.762
		C159.144,89.569,160.643,90.33,161.093,89.033z"/>
	<path fill="#4D90CD" d="M54.616,89.944c0,0,2.872-1.141,1.942-4.111c0,0-0.764-2.593-4.259-1.609l-3.663,1.373l2.122,5.783
		L54.616,89.944z"/>
	<path fill="#4D90CD" d="M42.321,100.315c29.58-14.964,62.516-13.761,62.845-13.747c32.752,1.433,55.529,13.186,59.762,15.527
		l0.114,0.064l8.551-13.47l-0.132-0.07c-36.831-19.397-71.427-17.903-72.883-17.83C61.989,71.901,38.176,84.237,33.794,86.7
		l-0.125,0.07l8.54,13.602L42.321,100.315z M148.526,92.009c0.326,0.137,0.424-0.179,0.424-0.179l3.687-9.366
		c0.008-0.179-0.271-0.249-0.271-0.249l0.085-0.202l9.916,3.933c3.957,1.839,2.43,4.719,2.43,4.719
		c-1.159,2.374-4.581,1.783-4.581,1.783l1.613,4.662c0.145,0.083,0.201,0.195,0.201,0.195l-0.055,0.114l-4.613-1.723l0.055-0.166
		c0.373,0.134,0.532-0.285,0.532-0.285c-0.091-0.315-1.628-4.371-1.628-4.371l-2.46-0.968l-1.298,3.332
		c-0.143,0.31,0.196,0.452,0.196,0.452l-0.083,0.226l-4.232-1.677L148.526,92.009z M129.946,86.631
		c0.345,0.094,0.394-0.237,0.394-0.237l2.383-9.776c-0.013-0.184-0.301-0.213-0.301-0.213l0.049-0.207l12.134,2.9
		c0,0,0.546,0.229,0.719-0.281l0.181,0.023l-0.768,3.3l-0.133-0.039c0,0-0.011-0.373-0.27-0.62l-8.334-1.956l-0.446,1.791
		l4.961,1.15c0,0,0.52,0.091,0.725-0.279l0.209,0.02l-0.732,2.974l-0.191-0.048c0,0,0.006-0.221-0.239-0.426l-5.244-1.288
		l-0.473,2.03l8.227,1.926c0,0,0.32,0.128,0.584-0.374l0.171,0.043l-0.792,3.295l-0.144-0.038c0,0-0.156-0.514-0.425-0.492
		l-12.302-2.937L129.946,86.631z M109.364,73.403l5.09,0.396l-0.03,0.254c-0.183-0.021-0.325,0.07-0.308,0.231
		c0.018,0.165,0.049,0.308,0.595,1.33l2.509,5.264l3.702-5.237c0.158-0.276,0.326-0.472,0.352-0.689
		c0.023-0.144-0.011-0.286-0.19-0.306l0.03-0.254l4.278,0.387l-0.028,0.251c-0.394-0.028-0.489,0.179-0.755,0.618l-5.494,8.596
		c-0.094,0.17-0.222,0.279-0.241,0.479c-0.015,0.198,0.044,0.235,0.168,0.26l-0.021,0.227l-4.937-0.513l0.03-0.251
		c0.251-0.023,0.107-0.331,0.107-0.331l-0.116-0.365l-4.041-9.32c-0.173-0.566-0.252-0.633-0.729-0.779L109.364,73.403z
		 M92.773,73.512v0.227c0,0-0.42,0.008-0.321,0.286c0.085,0.242,0.298,0.458,0.298,0.458l6.37,5.04l-0.312-5.728
		c0,0-0.031-0.315-0.384-0.276l-0.006-0.242l4.296-0.181l0.013,0.235c-0.354,0-0.354,0.333-0.354,0.333l0.452,9.887
		c0.06,0.166,0.399,0.136,0.399,0.136l0.043,0.22l-4.431,0.333l-0.016-0.175c0,0,0.419-0.007,0.318-0.283
		c-0.08-0.241-0.294-0.453-0.294-0.453l0.207,0.137l-7.878-6.076l0.388,6.656c0,0,0.052,0.317,0.406,0.284l-0.008,0.248
		l-4.178,0.168l-0.037-0.249c0.354,0.004,0.377-0.317,0.377-0.317l-0.45-9.882c-0.063-0.174-0.398-0.139-0.398-0.139l-0.045-0.22
		L92.773,73.512z M77.576,74.983c0,0,0.6-0.022,0.541-0.563l0.163-0.055l0.738,3.304l-0.136,0.033c0,0-0.173-0.342-0.514-0.453
		l-8.364,1.836l0.369,1.811l4.972-1.105c0,0,0.512-0.141,0.537-0.563l0.2-0.075l0.62,2.999l-0.193,0.044c0,0-0.09-0.204-0.399-0.283
		l-5.281,1.096l0.444,2.039l8.254-1.807c0,0,0.341-0.036,0.372-0.599l0.165-0.03l0.706,3.31l-0.144,0.026
		c0,0-0.364-0.39-0.596-0.254l-12.364,2.655l-0.058-0.239c0.35-0.064,0.262-0.381,0.262-0.381l-2.075-9.848
		c-0.091-0.153-0.362-0.056-0.362-0.056l-0.046-0.212L77.576,74.983z M52.491,81.604c6.493-1.532,7.544,2.848,7.544,2.848
		c1.584,4.915-3.451,7.178-3.451,7.178l-8.927,3.389l-0.111-0.226c0.34-0.114,0.254-0.425,0.254-0.425l-3.363-9.295
		c-0.114-0.138-0.422,0-0.422,0l-0.114-0.2L52.491,81.604z"/>
	<path fill="#4D90CD" d="M70.642,60.997l0.1-0.082l-0.164-0.227l-0.854-1.187l-0.109,0.066
		C50.094,71.444,40.21,80.019,36.054,84.071l0.158,0.222c2.549-1.263,6.785-3.194,12.493-5.224l0.002-0.002
		c0.984-0.35,1.98-0.689,2.983-1.02c-0.984,0.304-1.933,0.61-2.857,0.917C50.533,77.574,70.642,60.997,70.642,60.997z"/>
	<path fill="#4D90CD" d="M162.714,82.296c-1.58-0.637-3.144-1.233-4.698-1.805c1.636,0.634,3.283,1.295,4.943,2.005
		c3.101,1.331,6.138,2.75,9.025,4.22l0.166-0.214c-3.504-3.931-10.389-11.232-17.146-15.947c-0.072-0.061-11.06-8.485-16.706-11.529
		l-0.103-0.056l-1.001,1.303l-0.168,0.221L162.714,82.296z"/>
	<path fill="#FFFFFF" d="M44.437,85.073l3.363,9.295c0,0,0.086,0.311-0.254,0.425l0.111,0.226l8.927-3.389
		c0,0,5.035-2.262,3.451-7.178c0,0-1.051-4.38-7.544-2.848l-8.59,3.268l0.114,0.2C44.015,85.073,44.323,84.935,44.437,85.073z
		 M52.3,84.225c3.495-0.985,4.259,1.609,4.259,1.609c0.929,2.97-1.942,4.111-1.942,4.111l-3.857,1.436l-2.122-5.783L52.3,84.225z"/>
	<path fill="#FFFFFF" d="M65.795,77.881l2.075,9.848c0,0,0.088,0.317-0.262,0.381l0.058,0.239l12.364-2.655
		c0.232-0.136,0.596,0.254,0.596,0.254l0.144-0.026l-0.706-3.31l-0.165,0.03c-0.03,0.563-0.372,0.599-0.372,0.599l-8.254,1.807
		l-0.444-2.039l5.281-1.096c0.309,0.079,0.399,0.283,0.399,0.283l0.193-0.044l-0.62-2.999l-0.2,0.075
		c-0.026,0.422-0.537,0.563-0.537,0.563l-4.972,1.105l-0.369-1.811l8.364-1.836c0.341,0.111,0.514,0.453,0.514,0.453l0.136-0.033
		l-0.738-3.304l-0.163,0.055c0.058,0.541-0.541,0.563-0.541,0.563l-12.189,2.63l0.046,0.212
		C65.433,77.825,65.704,77.728,65.795,77.881z"/>
	<path fill="#FFFFFF" d="M87.67,74.296l0.45,9.882c0,0-0.023,0.321-0.377,0.317l0.037,0.249l4.178-0.168l0.008-0.248
		c-0.354,0.033-0.406-0.284-0.406-0.284l-0.388-6.656l7.878,6.076l-0.207-0.137c0,0,0.215,0.212,0.294,0.453
		c0.101,0.276-0.318,0.283-0.318,0.283l0.016,0.175l4.431-0.333l-0.043-0.22c0,0-0.339,0.031-0.399-0.136l-0.452-9.887
		c0,0,0-0.333,0.354-0.333l-0.013-0.235l-4.296,0.181l0.006,0.242c0.353-0.039,0.384,0.276,0.384,0.276l0.312,5.728l-6.37-5.04
		c0,0-0.212-0.217-0.298-0.458c-0.099-0.277,0.321-0.286,0.321-0.286v-0.227l-5.547,0.426l0.045,0.22
		C87.272,74.157,87.607,74.122,87.67,74.296z"/>
	<path fill="#FFFFFF" d="M142.618,90.3l0.144,0.038l0.792-3.295l-0.171-0.043c-0.264,0.502-0.584,0.374-0.584,0.374l-8.227-1.926
		l0.473-2.03l5.244,1.288c0.245,0.205,0.239,0.426,0.239,0.426l0.191,0.048l0.732-2.974l-0.209-0.02
		c-0.205,0.369-0.725,0.279-0.725,0.279l-4.961-1.15l0.446-1.791l8.334,1.956c0.259,0.247,0.27,0.62,0.27,0.62l0.133,0.039
		l0.768-3.3l-0.181-0.023c-0.173,0.51-0.719,0.281-0.719,0.281l-12.134-2.9l-0.049,0.207c0,0,0.288,0.029,0.301,0.213l-2.383,9.776
		c0,0-0.049,0.331-0.394,0.237l-0.055,0.242l12.302,2.937C142.461,89.786,142.618,90.3,142.618,90.3z"/>
	<path fill="#FFFFFF" d="M152.759,93.69c0,0-0.339-0.141-0.196-0.452l1.298-3.332l2.46,0.968c0,0,1.537,4.056,1.628,4.371
		c0,0-0.159,0.419-0.532,0.285l-0.055,0.166l4.613,1.723l0.055-0.114c0,0-0.055-0.112-0.201-0.195l-1.613-4.662
		c0,0,3.422,0.591,4.581-1.783c0,0,1.527-2.88-2.43-4.719l-9.916-3.933l-0.085,0.202c0,0,0.28,0.07,0.271,0.249l-3.687,9.366
		c0,0-0.098,0.316-0.424,0.179l-0.082,0.23l4.232,1.677L152.759,93.69z M155.537,85.686l4.094,1.567
		c1.945,0.645,1.462,1.78,1.462,1.78c-0.45,1.297-1.95,0.536-1.95,0.536l-4.451-1.762L155.537,85.686z"/>
	<path fill="#FFFFFF" d="M110.063,74.428l4.041,9.32l0.116,0.365c0,0,0.144,0.308-0.107,0.331l-0.03,0.251l4.937,0.513l0.021-0.227
		c-0.124-0.025-0.183-0.062-0.168-0.26c0.019-0.2,0.147-0.309,0.241-0.479l5.494-8.596c0.266-0.439,0.361-0.646,0.755-0.618
		l0.028-0.251l-4.278-0.387l-0.03,0.254c0.179,0.02,0.212,0.162,0.19,0.306c-0.026,0.217-0.194,0.414-0.352,0.689l-3.702,5.237
		l-2.509-5.264c-0.546-1.022-0.576-1.165-0.595-1.33c-0.017-0.161,0.126-0.252,0.308-0.231l0.03-0.254l-5.09-0.396l-0.03,0.246
		C109.811,73.795,109.89,73.863,110.063,74.428z"/>
	<path fill="#FFFFFF" d="M29.953,108.525c0.101-4.212,1.842-4.426,1.854-4.426l0.34-0.038c0.006,0,0.006-0.34,0.006-0.34V92.701
		v-0.365v-0.009h-0.376H19.972h-0.378v0.374v10.738v0.254l0.242,0.094c2.149,0.848,2.019,4.738,2.019,4.78
		c0,0.009,0.034,13.727,0.053,20.525L14.408,92.63l-0.065-0.303h-0.304H3.358H3.011H2.983v0.369l-0.058,10.8v0.24l0.211,0.101
		c2.176,1.064,2.048,5.31,2.048,5.352c0,0.015,0.058,39.621,0.058,39.621c0.051,3.393-1.984,4.596-2.068,4.649l-0.192,0.106v0.22
		l0.015,10.773v0.376h0.374h12.292h0.011l0.357-0.008l0.021-0.367V153.8v-0.226l-0.204-0.105c-2.331-1.202-2.677-4.666-2.683-4.702
		c0.001,0.026,0.001-12.814,0.001-19.341l6.962,34.176l0.21,1.035l0.054,0.3h0.311h8.449h0.369l0.384-0.013l-0.015-0.361
		L29.953,108.525z M29.203,108.516c0,0.008-0.053,50.809-0.057,55.669h-8.135l-7.853-38.557l-0.743,0.075v23.101
		c0.02,0.187,0.382,3.738,2.886,5.212v10.167H3.748l-0.014-10.198c0.585-0.411,2.309-1.906,2.258-5.178
		c0,0.004-0.052-39.608-0.052-39.608c0.002-0.174,0.127-4.486-2.264-5.91l0.058-10.213h10l8.186,39.82l0.745-0.075l-0.058-24.24
		c0.008-0.164,0.134-4.165-2.259-5.374V93.076h11.059v10.356C30.723,103.678,29.296,104.645,29.203,108.516z"/>
	<path fill="#FFFFFF" d="M113.72,155.277v-0.08v-29.355v-0.374h-0.377h-12.106h-0.374v0.374v8.479v0.373h0.374h1.416v10.408
		c0.068,0.873,0.049,3.262-0.816,4.222c-0.245,0.273-0.536,0.411-0.895,0.414c-0.017,0-0.354,0-0.705-0.362
		c-0.45-0.479-0.96-1.582-0.81-4.138v-36.22c-0.041-0.763,0.037-2.872,0.833-3.715c0.226-0.232,0.487-0.35,0.804-0.35
		c0.023,0,0.362,0.006,0.715,0.366c0.384,0.401,0.844,1.284,0.816,3.23v11.182v0.373h0.375h10.427h0.377v-0.373V94.485V93.9
		l-0.529,0.242l-1.977,0.911c-0.867-1.053-4.668-5.268-9.975-5.268c-0.186-0.01-5.187-0.251-8.997,3.189
		c-2.527,2.279-3.912,5.614-4.116,9.924v48.376c-0.007,0.15-0.136,2.916,1.048,5.943c0.507,1.296,1.25,2.638,2.353,3.845
		c2.267,2.486,5.533,3.814,9.699,3.96c0.07,0,5.332,0.064,9.625-5.106c1.006-1.213,1.959-2.712,2.78-4.571L113.72,155.277z
		 M112.97,155.109c-4.109,9.232-11.587,9.164-11.663,9.159c-3.956-0.132-7.039-1.379-9.171-3.711
		c-3.458-3.784-3.207-9.206-3.203-9.265v-48.373c0.198-4.08,1.49-7.241,3.86-9.382c3.575-3.231,8.437-3.007,8.479-2.999
		c5.574,0,9.549,5.152,9.589,5.21l0.18,0.238l0.277-0.131l1.71-0.787v24.285h-9.686v-10.8c0.028-1.79-0.33-3.071-1.057-3.788
		c-0.578-0.568-1.166-0.564-1.226-0.561c-0.52-0.003-0.978,0.194-1.343,0.585c-1.184,1.241-1.048,4.123-1.041,4.242v36.187
		c-0.133,2.277,0.223,3.864,1.056,4.704c0.58,0.584,1.175,0.574,1.238,0.565c0.556-0.011,1.042-0.234,1.426-0.664
		c1.259-1.404,1.012-4.618,1.004-4.753c0.003,0.03,0.003-10.751,0.003-10.751v-0.376h-0.374h-1.415v-7.725h11.356V155.109z"/>
	<path fill="#FFFFFF" d="M130.286,139.001l0.009,0.383c0.209,8.441-1.182,10.837-2.029,11.515c-0.196,0.155-0.367,0.23-0.501,0.254
		v-16.487h5.501h0.376v-0.375v-8.534v-0.372h-0.376h-5.501v-18.532c2.014,0.932,2.66,8.197,2.588,12.854l-0.008,0.384h0.377h7.684
		h0.373v-0.377v-24.13v-0.27l-0.254-0.085c-11.22-3.703-22.925-4.36-23.04-4.366l-0.395-0.025v0.397v11.358v0.2l0.164,0.116
		c1.673,1.112,1.701,3.557,1.701,3.582v41.758c0.305,4.327-1.441,4.83-1.464,4.834l-0.281,0.073c-0.009,0-0.026,11.771-0.026,11.771
		l5.668,0.001l18.122,0.007v-6.156v-19.776H130.286z M138.224,164.183h-22.271v-10.487c0.636-0.318,2.035-1.483,1.754-5.474v-41.733
		c0-0.113-0.03-2.703-1.87-4.084V91.634c2.1,0.15,12.297,1.003,22.201,4.22v23.485h-6.936c0.015-2.48-0.12-13.164-3.697-13.339
		l-0.39-0.022v0.397v19.382v0.377h0.373h5.503v7.778h-5.503h-0.373v0.377v17.234v0.277l0.259,0.079
		c0.072,0.026,0.684,0.196,1.408-0.35c1.177-0.891,2.528-3.665,2.368-11.776h7.175V164.183z"/>
	<path fill="#FFFFFF" d="M163.294,153.154c-2.713-1.075-2.591-6.143-2.591-6.191v-33.153c0.859,0.914,1.549,3.795,1.797,5.887
		l0.041,0.332h0.335h6.384h0.374v-0.375v-11.075v-0.216l-0.183-0.108c-14.961-8.629-28.102-12.208-28.232-12.244l-0.476-0.128v0.489
		v23.339v0.377h0.376h6.724h0.362l0.015-0.363c0.266-6.445,1.287-7.831,1.717-8.126c0.008-0.008,0.016-0.008,0.02-0.014v35.415
		c0.052,5.222-2.413,6.162-2.516,6.203l-0.249,0.089c-0.001,0,0.004,11.625,0.004,11.625l3.734,0.004l12.606,0.01v-5.785v-5.9
		L163.294,153.154z M162.783,164.183h-14.845v-10.385c0.735-0.387,2.822-1.919,2.765-6.799v-35.821v-0.23l-0.205-0.107
		c-0.038-0.017-0.418-0.192-0.902,0.081c-1.175,0.685-1.882,3.513-2.108,8.415h-5.996V96.872c2.449,0.714,14.183,4.335,27.394,11.93
		v10.478h-5.683c-0.205-1.556-0.979-6.149-2.804-6.496l-0.447-0.077v0.453v33.79c-0.004,0.211-0.121,5.339,2.83,6.783V164.183z"/>
	<path fill="#FDB927" d="M31.406,103.433V93.076H20.348v10.133c2.392,1.209,2.267,5.209,2.259,5.374l0.058,24.24l-0.745,0.075
		l-8.186-39.82h-10l-0.058,10.213c2.392,1.424,2.266,5.736,2.264,5.91c0,0,0.052,39.611,0.052,39.608
		c0.051,3.272-1.673,4.767-2.258,5.178l0.014,10.198h11.553v-10.167c-2.504-1.473-2.866-5.024-2.886-5.212v-23.101l0.743-0.075
		l7.853,38.557h8.135c0.004-4.86,0.057-55.66,0.057-55.669C29.296,104.645,30.723,103.678,31.406,103.433z"/>
	<path fill="#FDB927" d="M101.614,133.944h1.415h0.374v0.376c0,0,0,10.781-0.003,10.751c0.008,0.135,0.255,3.349-1.004,4.753
		c-0.384,0.429-0.87,0.653-1.426,0.664c-0.064,0.009-0.659,0.019-1.238-0.565c-0.833-0.84-1.189-2.428-1.056-4.704v-36.187
		c-0.007-0.119-0.144-3.001,1.041-4.242c0.364-0.391,0.823-0.588,1.343-0.585c0.06-0.003,0.648-0.007,1.226,0.561
		c0.727,0.716,1.085,1.997,1.057,3.788v10.8h9.686V95.068l-1.71,0.787l-0.277,0.131l-0.18-0.238c-0.039-0.058-4.014-5.21-9.589-5.21
		c-0.043-0.008-4.905-0.232-8.479,2.999c-2.37,2.141-3.663,5.302-3.86,9.382v48.373c-0.004,0.059-0.255,5.481,3.203,9.265
		c2.132,2.332,5.215,3.579,9.171,3.711c0.076,0.005,7.553,0.073,11.663-9.159V126.22h-11.356V133.944z"/>
	<path fill="#FDB927" d="M128.682,151.529c-0.725,0.546-1.337,0.377-1.408,0.35l-0.259-0.079v-0.277V134.29v-0.377h0.373h5.503
		v-7.778h-5.503h-0.373v-0.377v-19.382v-0.397l0.39,0.022c3.577,0.174,3.712,10.858,3.697,13.339h6.936V95.854
		c-9.903-3.217-20.101-4.071-22.201-4.22v10.771c1.84,1.381,1.87,3.971,1.87,4.084v41.733c0.281,3.991-1.118,5.156-1.754,5.474
		v10.487h22.271v-24.429h-7.175C131.21,147.864,129.858,150.638,128.682,151.529z"/>
	<path fill="#FDB927" d="M159.953,146.949v-33.79v-0.453l0.447,0.077c1.825,0.347,2.599,4.94,2.804,6.496h5.683v-10.478
		c-13.211-7.594-24.945-11.216-27.394-11.93v22.466h5.996c0.226-4.903,0.933-7.73,2.108-8.415c0.484-0.273,0.863-0.098,0.902-0.081
		l0.205,0.107v0.23v35.821c0.058,4.88-2.029,6.412-2.765,6.799v10.385h14.845v-10.451
		C159.832,152.289,159.949,147.16,159.953,146.949z"/>
	<path fill="#041E41" d="M171.544,141.412v-0.377h0.373h9.737h0.371v0.377c0,0,0.01,6.073,0.01,6.081
		c0,0.021-0.03,2.407,1.028,3.465c0.334,0.328,0.728,0.486,1.218,0.474h0.024l0.019,0.004c0.017,0,0.504,0.025,1.01-0.421
		c0.659-0.588,1.049-1.749,1.121-3.334c0,0,0-6.326,0.004-6.358c0.002-0.038,0.284-3.969-2.158-5.423c0,0-8.195-5.766-8.182-5.753
		c-0.19-0.122-4.746-3.087-4.934-11.223v-13.819c-0.005-0.115-0.293-10.603,10.209-12.913c0.629-0.138,1.29-0.25,1.995-0.327
		c0.026-0.007,0.052-0.014,0.079-0.021c-1.656-0.001-7.164,0.35-10.568,0.343l-7.441,11.716l-0.652-0.389
		c-0.232-0.142-24.348-14.114-59.709-15.659c-1.373-0.043-33.951-0.887-62.717,13.874l-0.637,0.323c0,0-0.385-0.601-0.387-0.601
		c0,0-0.106-0.168-0.289-0.463c-0.014-0.021-0.029-0.045-0.044-0.069c-0.873-1.39-3.311-5.272-5.391-8.584l0,0l-3.482,0.001v0.365
		v11.019c0,0,0,0.34-0.006,0.34l-0.34,0.038c-0.013,0-1.753,0.214-1.854,4.426l-0.058,56.04l0.015,0.361
		c0,0,5.769-3.249,7.387-4.204c-3.52-4.747-2.98-11.632-2.953-11.911v-25.991c0-0.913-0.207-1.54-0.586-1.827
		c-0.413-0.298-0.951-0.132-0.954-0.132l-0.494,0.162v-0.52v-10.734v-0.193l0.153-0.112c4.616-3.317,12.707-6.788,12.789-6.824
		l0.521-0.22v0.567v10.679v0.155l-0.109,0.113c-0.698,0.693-0.822,3.799-0.736,5.61v25.949c-0.09,2.736,0.515,3.689,0.887,4.011
		c0.325,0.29,0.631,0.243,0.637,0.243l0.05-0.011l0.053,0.003c0.155,0.011,0.286-0.04,0.416-0.162
		c0.734-0.706,0.844-3.149,0.82-4.039c0,0,0.058-30.116,0.058-30.125c0.028-1.192-0.244-1.618-0.41-1.768
		c-0.141-0.131-0.275-0.115-0.275-0.115l-0.445,0.085v-0.455v-10.961v-0.243l0.215-0.101c8.52-4.04,13.134-5.156,13.183-5.168
		l0.464-0.112v0.477v11.246v0.214l-0.187,0.108c-2.146,1.277-1.967,4.593-1.967,4.647v36.272c0.161,5.279-1.12,9.327-3.802,12.053
		c-0.123,0.124-0.242,0.234-0.359,0.339c-0.217,0.2-0.435,0.388-0.656,0.563c1.375-0.853,7.286-4.61,8.513-5.419
		c-1.039-2.849-1.001-5.397-0.995-5.552v-44.659c0.742-13.643,12.737-13.802,12.848-13.802c5.595-0.202,9.277,3.926,10.13,4.997
		l1.595-0.725l0.532-0.239v0.579v22.039v0.377h-0.374H75.627h-0.376v-0.377v-7.919c0.028-1.903-0.418-2.767-0.794-3.155
		c-0.345-0.354-0.674-0.361-0.694-0.361c-0.311,0-0.569,0.111-0.784,0.345c-0.781,0.821-0.853,2.886-0.818,3.627v33.026
		c-0.144,2.501,0.354,3.578,0.794,4.044c0.343,0.364,0.67,0.364,0.687,0.364c0.348-0.006,0.634-0.144,0.872-0.413
		c0.852-0.936,0.865-3.278,0.794-4.133v-10.415h-1.374h-0.376v-0.377v-8.475v-0.38h0.376h11.866h0.375v0.38v29.496v0.08
		l-0.036,0.073c-0.174,0.403-0.355,0.785-0.539,1.151c-0.028,0.055-0.055,0.109-0.084,0.163c-0.138,0.266-0.279,0.522-0.422,0.771
		c-0.138,0.241-0.279,0.472-0.422,0.698c-0.012,0.02-0.023,0.039-0.036,0.058c-1.042,1.637-2.187,2.869-3.335,3.797
		c1.501-0.907,6.773-4.189,7.928-4.942c-1.184-3.027-1.055-5.793-1.048-5.943v-48.376c0.204-4.31,1.589-7.645,4.116-9.924
		c3.81-3.44,8.811-3.199,8.997-3.189c5.307,0,9.107,4.215,9.975,5.268l1.977-0.911l0.529-0.242v0.585v25.245v0.373h-0.377h-10.427
		h-0.375v-0.373v-11.182c0.028-1.946-0.432-2.829-0.816-3.23c-0.354-0.36-0.693-0.366-0.715-0.366c-0.317,0-0.578,0.119-0.804,0.35
		c-0.796,0.843-0.874,2.951-0.833,3.715v36.22c-0.15,2.556,0.36,3.659,0.81,4.138c0.352,0.362,0.688,0.362,0.705,0.362
		c0.36-0.003,0.65-0.141,0.895-0.414c0.865-0.961,0.885-3.349,0.816-4.222v-10.408h-1.416h-0.374v-0.373v-8.479v-0.374h0.374h12.106
		h0.377v0.374v29.355v0.08l-0.034,0.068c-0.821,1.859-1.773,3.357-2.78,4.571c0.767,0.937,4.278,5.009,4.278,5.009
		s0.017-11.771,0.026-11.771l0.281-0.073c0.023-0.004,1.769-0.507,1.464-4.834v-41.758c0-0.026-0.028-2.471-1.701-3.582
		l-0.164-0.116v-0.2V91.233v-0.397l0.395,0.025c0.115,0.006,11.819,0.664,23.04,4.366l0.254,0.085v0.27v24.13v0.377h-0.373h-7.684
		h-0.377l0.008-0.384c0.073-4.657-0.573-11.922-2.588-12.854v18.532h5.501h0.376v0.372v8.534v0.375h-0.376h-5.501v16.487
		c0.134-0.024,0.305-0.098,0.501-0.254c0.848-0.678,2.238-3.074,2.029-11.515l-0.009-0.383h8.689v19.776
		c1.513,1.162,8.219,6.143,8.219,6.143s-0.005-11.625-0.004-11.625l0.249-0.089c0.104-0.041,2.568-0.981,2.516-6.203v-35.415
		c-0.004,0.006-0.011,0.006-0.02,0.014c-0.429,0.295-1.45,1.681-1.717,8.126l-0.015,0.363h-0.362h-6.724h-0.376v-0.377V96.374
		v-0.489l0.476,0.128c0.13,0.036,13.271,3.615,28.232,12.244l0.183,0.108v0.216v11.075v0.375h-0.374h-6.384h-0.335l-0.041-0.332
		c-0.247-2.092-0.938-4.973-1.797-5.887v33.153c0,0.047-0.122,5.116,2.591,6.191l0.24,0.094v5.9c1.42,0.782,8.027,4.267,8.027,4.267
		l-0.017-0.754V141.412z"/>
	<path fill="#041E41" d="M21.907,129.091c-0.018-6.798-0.053-20.516-0.053-20.525c0-0.042,0.129-3.932-2.019-4.78l-0.242-0.094
		v-0.254V92.701v-0.365l-5.251-0.009l0.065,0.303L21.907,129.091z"/>
	<polygon fill="#041E41" points="14.342,92.327 14.038,92.327 14.342,92.327 	"/>
	<path fill="#FFFFFF" d="M184.186,91.792c-0.271,0.018-0.536,0.043-0.795,0.073c-0.705,0.077-1.366,0.189-1.995,0.327
		c-10.502,2.311-10.214,12.799-10.209,12.913v13.819c0.188,8.136,4.743,11.101,4.934,11.223c-0.013-0.013,8.182,5.753,8.182,5.753
		c2.441,1.454,2.16,5.384,2.158,5.423c-0.004,0.033-0.004,6.358-0.004,6.358c-0.073,1.586-0.463,2.746-1.121,3.334
		c-0.507,0.447-0.993,0.421-1.01,0.421l-0.019-0.004h-0.024c-0.489,0.013-0.884-0.146-1.218-0.474
		c-1.058-1.059-1.028-3.444-1.028-3.465c0-0.008-0.01-6.081-0.01-6.081v-0.377h-0.371h-9.737h-0.373v0.377v21.249l0.017,0.754
		l0.19-0.149l0.405-0.324l2.338-1.932c4.369,4.275,9.274,4.011,9.482,4.003c4.239,0.034,7.57-1.113,9.889-3.421
		c3.276-3.265,3.289-7.629,3.289-7.808v-14.467c0.115-7.556-4.308-11.054-4.496-11.206c-5.268-3.805-8.856-6.315-8.89-6.337
		c-0.754-0.494-1.153-1.43-1.364-2.343c-0.121-0.525-0.178-1.038-0.206-1.462c-0.003-0.038-0.005-0.075-0.005-0.111
		c-0.012-0.211-0.017-0.391-0.019-0.535c0-0.015,0-0.028,0-0.043c0-0.087,0-0.158,0.002-0.21c0-0.005,0-0.014,0-0.018
		c0.001-0.031,0.001-0.047,0.002-0.062c0-0.011,0.001-0.03,0.001-0.03v-7.874c0.054-3.687,1.945-3.753,2.024-3.753
		c0.625-0.006,1.108,0.175,1.485,0.556c0.938,0.946,0.881,2.799,0.881,2.816v10.541l0.034,0.372h0.339l2.977,0.004l6.861,0.008
		h0.374v-0.384V95.077v-0.522l-0.499,0.166l-2.261,0.772C190.552,91.557,184.451,91.776,184.186,91.792z M196.404,95.6v23.279
		l-9.084-0.002v-10.157c0.009-0.072,0.07-2.172-1.096-3.346c-0.524-0.539-1.202-0.804-2.023-0.789c-0.1,0-2.715,0.019-2.773,4.497
		v7.859c-0.008,0.145-0.211,4.056,1.921,5.454c0.025,0.024,3.61,2.526,8.856,6.323c0.034,0.025,4.309,3.428,4.199,10.594v14.472
		c0,0.045-0.021,4.244-3.078,7.282c-2.168,2.156-5.322,3.229-9.373,3.19c-0.074,0.005-4.997,0.265-9.169-4.007l-0.241-0.249
		l-0.264,0.217l-1.988,1.643v-20.072h8.99c0,1.319,0.008,5.695,0.008,5.687c-0.004,0.115-0.038,2.728,1.241,4.011
		c0.48,0.477,1.074,0.712,1.765,0.693h-0.038c0.03,0,0.799,0.068,1.552-0.577c0.844-0.736,1.318-2.047,1.398-3.901v-6.347
		c0.014-0.145,0.328-4.401-2.502-6.086c0.03,0.015-8.164-5.748-8.164-5.748c-0.063-0.037-4.427-2.9-4.604-10.609v-13.822
		c-0.019-0.489-0.315-11.682,12.29-12.552c0.055-0.004,6.199-0.22,9.788,3.641l0.166,0.182l0.231-0.079L196.404,95.6z"/>
	<path fill="#FDB927" d="M194.015,96.179c-3.589-3.862-9.733-3.646-9.788-3.641c-12.606,0.87-12.309,12.063-12.29,12.552v13.822
		c0.177,7.709,4.541,10.572,4.604,10.609c0,0,8.194,5.763,8.164,5.748c2.83,1.685,2.516,5.941,2.502,6.086v6.347
		c-0.08,1.855-0.553,3.165-1.398,3.901c-0.752,0.645-1.522,0.577-1.552,0.577h0.038c-0.691,0.019-1.285-0.216-1.765-0.693
		c-1.279-1.283-1.245-3.896-1.241-4.011c0,0.009-0.008-4.367-0.008-5.687h-8.99v20.072l1.988-1.643l0.264-0.217l0.241,0.249
		c4.172,4.272,9.095,4.012,9.169,4.007c4.051,0.039,7.205-1.034,9.373-3.19c3.057-3.038,3.078-7.237,3.078-7.282v-14.472
		c0.11-7.166-4.165-10.569-4.199-10.594c-5.246-3.797-8.831-6.299-8.856-6.323c-2.132-1.398-1.929-5.309-1.921-5.454v-7.859
		c0.058-4.478,2.673-4.497,2.773-4.497c0.821-0.015,1.498,0.249,2.023,0.789c1.166,1.174,1.104,3.275,1.096,3.346v10.157
		l9.084,0.002V95.6l-1.992,0.682l-0.231,0.079L194.015,96.179z"/>
	<path fill="#FFFFFF" d="M84.637,158.361c0.013-0.019,0.024-0.038,0.036-0.058c0.144-0.226,0.284-0.458,0.422-0.698
		c0.143-0.251,0.285-0.503,0.422-0.771c0.028-0.054,0.055-0.107,0.084-0.163c0.185-0.367,0.366-0.749,0.539-1.151l0.036-0.073v-0.08
		v-29.496v-0.38h-0.375H73.935h-0.376v0.38v8.475v0.377h0.376h1.374v10.415c0.07,0.855,0.057,3.197-0.794,4.133
		c-0.238,0.269-0.524,0.407-0.872,0.413c-0.017,0-0.344,0-0.687-0.364c-0.44-0.466-0.938-1.543-0.794-4.044V112.25
		c-0.035-0.741,0.037-2.807,0.818-3.627c0.215-0.234,0.473-0.345,0.784-0.345c0.02,0,0.349,0.007,0.694,0.361
		c0.375,0.389,0.822,1.252,0.794,3.155v7.919v0.377h0.376h10.234h0.374v-0.377V97.674v-0.579l-0.532,0.239l-1.595,0.725
		c-0.853-1.071-4.534-5.199-10.13-4.997c-0.111,0-12.106,0.159-12.848,13.802v44.659c-0.006,0.155-0.044,2.703,0.995,5.552
		c0.551,1.508,1.398,3.096,2.723,4.464c2.22,2.287,5.294,3.449,9.143,3.474c0.035,0,3.39,0.102,6.893-2.52
		c0.139-0.104,0.279-0.222,0.418-0.336C82.45,161.231,83.595,159.999,84.637,158.361z M74.01,164.262
		c-3.661-0.019-6.552-1.104-8.623-3.242c-3.618-3.73-3.506-9.428-3.506-9.485v-44.649c0.702-12.904,11.647-13.073,12.111-13.073
		c5.893-0.216,9.661,4.877,9.697,4.93l0.18,0.243l0.277-0.121l1.333-0.608v21.082h-9.476v-7.535c0.031-1.76-0.326-3.016-1.039-3.722
		c-0.567-0.556-1.149-0.556-1.211-0.554c-0.506,0-0.955,0.196-1.316,0.582c-1.163,1.221-1.033,4.048-1.024,4.163v32.979
		c-0.131,2.24,0.221,3.8,1.039,4.62c0.569,0.578,1.155,0.563,1.217,0.561c0.55-0.019,1.022-0.234,1.403-0.654
		c1.241-1.38,0.998-4.537,0.989-4.669v-10.764v-0.372h-0.375h-1.373v-7.727h11.116v29.037
		C81.398,164.507,74.313,164.272,74.01,164.262z"/>
	<path fill="#FDB927" d="M85.428,155.284v-29.037H74.312v7.727h1.373h0.375v0.372v10.764c0.009,0.132,0.252,3.289-0.989,4.669
		c-0.38,0.419-0.853,0.635-1.403,0.654c-0.062,0.002-0.648,0.017-1.217-0.561c-0.818-0.82-1.169-2.381-1.039-4.62v-32.979
		c-0.009-0.115-0.139-2.941,1.024-4.163c0.361-0.386,0.81-0.582,1.316-0.582c0.062-0.002,0.644-0.002,1.211,0.554
		c0.713,0.706,1.069,1.962,1.039,3.722v7.535h9.476V98.256l-1.333,0.608l-0.277,0.121l-0.18-0.243
		c-0.036-0.053-3.804-5.146-9.697-4.93c-0.464,0-11.409,0.17-12.111,13.073v44.649c0,0.057-0.112,5.755,3.506,9.485
		c2.071,2.138,4.963,3.223,8.623,3.242C74.313,164.272,81.398,164.507,85.428,155.284z"/>
	<path fill="#FFFFFF" d="M54.626,161.593c2.681-2.726,3.963-6.774,3.802-12.053v-36.272c0-0.054-0.18-3.37,1.967-4.647l0.187-0.108
		v-0.214V97.053v-0.477l-0.464,0.112c-0.049,0.012-4.663,1.128-13.183,5.168l-0.215,0.101v0.243v10.961v0.455l0.445-0.085
		c0,0,0.134-0.016,0.275,0.115c0.166,0.15,0.438,0.576,0.41,1.768c0,0.008-0.058,30.125-0.058,30.125
		c0.024,0.89-0.086,3.333-0.82,4.039c-0.131,0.122-0.261,0.173-0.416,0.162l-0.053-0.003l-0.05,0.011
		c-0.006,0-0.312,0.047-0.637-0.243c-0.372-0.322-0.977-1.276-0.887-4.011v-25.949c-0.086-1.812,0.038-4.917,0.736-5.61l0.109-0.113
		v-0.155v-10.679v-0.567l-0.521,0.22c-0.082,0.036-8.173,3.508-12.789,6.824l-0.153,0.112v0.193v10.734v0.52l0.494-0.162
		c0.003,0,0.541-0.166,0.954,0.132c0.379,0.288,0.586,0.914,0.586,1.827v25.991c-0.027,0.279-0.567,7.164,2.953,11.911
		c0.22,0.298,0.455,0.588,0.709,0.867c2.072,2.277,4.935,3.443,8.517,3.48c0.144,0,2.832,0.005,5.636-1.59
		c0.486-0.277,0.973-0.605,1.454-0.985c0.221-0.175,0.439-0.363,0.656-0.563C54.387,161.82,54.509,161.712,54.626,161.593z
		 M46.537,164.315c-3.37-0.03-6.047-1.113-7.974-3.229c-4.083-4.483-3.479-12.165-3.47-12.238v-26.029
		c0-1.188-0.305-2.009-0.902-2.435c-0.39-0.282-0.811-0.331-1.133-0.318v-10.103c3.889-2.757,10.135-5.596,11.964-6.405v9.98
		c-1.028,1.327-0.865,5.532-0.843,6.027v25.915c-0.08,2.336,0.318,3.896,1.172,4.613c0.558,0.468,1.108,0.413,1.23,0.392
		c0.337,0,0.649-0.124,0.906-0.369c1.108-1.068,1.065-4.238,1.054-4.589c0,0.009,0.06-30.108,0.06-30.108
		c0.026-1.157-0.21-1.958-0.693-2.361c-0.151-0.13-0.303-0.201-0.438-0.237v-10.386c6.797-3.207,11.026-4.519,12.359-4.891V108.1
		c-2.34,1.582-2.155,5.046-2.144,5.197v36.25c0.148,5.074-1.061,8.941-3.585,11.509C50.884,164.336,46.577,164.315,46.537,164.315z"
		/>
	<path fill="#FDB927" d="M57.684,149.547v-36.25c-0.011-0.151-0.196-3.615,2.144-5.197V97.544
		c-1.333,0.372-5.563,1.684-12.359,4.891v10.386c0.136,0.037,0.287,0.107,0.438,0.237c0.482,0.404,0.718,1.204,0.693,2.361
		c0,0-0.06,30.116-0.06,30.108c0.011,0.352,0.054,3.521-1.054,4.589c-0.257,0.245-0.568,0.369-0.906,0.369
		c-0.122,0.021-0.672,0.076-1.23-0.392c-0.855-0.717-1.252-2.277-1.172-4.613v-25.915c-0.021-0.495-0.185-4.7,0.843-6.027v-9.98
		c-1.829,0.809-8.076,3.649-11.964,6.405v10.103c0.322-0.013,0.743,0.036,1.133,0.318c0.598,0.425,0.902,1.247,0.902,2.435v26.029
		c-0.009,0.072-0.612,7.755,3.47,12.238c1.927,2.116,4.604,3.199,7.974,3.229c0.04,0,4.348,0.021,7.562-3.259
		C56.623,158.488,57.832,154.621,57.684,149.547z"/>
	<path fill="#041E41" d="M71.468,59.955l-0.89,0.733l0.164,0.227l-0.1,0.082c0,0-20.109,16.577-21.81,17.969
		c0.924-0.307,1.873-0.613,2.857-0.917c7.478-2.473,15.454-4.433,23.761-5.837l0,0c4.264-0.733,8.596-1.3,12.876-1.688
		c4.017-0.379,8.123-0.629,12.203-0.749c0.278-0.015,26.361-1.358,57.486,10.717c1.554,0.572,3.118,1.168,4.698,1.805
		l-25.689-21.803l0.168-0.221l-0.876-0.742v-0.001l-0.105-0.09l-31.593-26.816L71.575,59.866L71.468,59.955L71.468,59.955z
		 M104.691,35.855l28.471,24.042v0.001l1.707,1.442l-3.425-1.427l-0.002-0.001l-14.886-6.201v6.323v0.001v1.759l-1.772-1.744v-0.003
		l-5.461-5.371l-1.952,5.433v0.001l-2.11,5.866l-2.564-5.828v-0.001l-2.583-5.867l-6.215,5.139l-1.975-6.329l-16.391,6.561
		L104.691,35.855z"/>
	<polygon fill="#FFFFFF" points="93.899,59.417 100.114,54.278 102.696,60.146 102.696,60.147 105.261,65.975 107.371,60.109 
		107.371,60.107 109.323,54.675 114.784,60.046 114.784,60.049 116.556,61.793 116.556,60.033 116.556,60.033 116.556,53.71 
		131.442,59.911 131.444,59.913 134.869,61.34 133.162,59.898 133.162,59.897 104.691,35.855 75.533,59.649 91.924,53.088 	"/>
</g>
</svg>
