<svg version="1.1" id="Layer_1" xmlns="http://www.w3.org/2000/svg" xmlns:xlink="http://www.w3.org/1999/xlink" x="0px" y="0px" viewBox="0 0 200 200" enable-background="new 0 0 200 200" xml:space="preserve" preserveAspectRatio="xMidYMid">
<g>
	<g>
		<g>
			<path fill="#EC174C" d="M80.399,112.528c0,5.977-3.598,9.476-10.679,10.399l-0.099,0.018c-4.641,0.427-8.42,0.836-12.26,1.331
				l-2.302,0.273l-0.058-9.972l-0.04-1.521c1.978-0.237,3.34-0.391,4.32-0.513c1.321-0.187,2.62-0.341,3.939-0.495
				c0-0.015,0-0.015,0-0.015c0-1.76-0.02-6.849-0.04-8.573c-2.658-0.529-6.639-1.794-8.539-6.046
				c-0.04-0.085-0.081-0.188-0.118-0.291c0,7.89,0,15.746,0,23.79c-0.041,0.015-0.081,0.015-0.119,0.033v3.656l-1.602,0.22
				c-3.198,0.462-6.538,0.975-10.338,1.607C52.68,133.652,69,140.756,94.3,142.173c0.399-6.505-2.44-13.354-6.917-20.492
				l-0.442,0.018c0,0,0-0.258,0-0.702c-1.92-3.022-4.141-6.096-6.521-9.222"/>
			<path fill="#EC174C" d="M39.141,82.694c0.841-0.154,1.64-0.29,2.44-0.427c0-0.052,0-0.12,0-0.17
				c3.759-0.666,7.38-1.281,11.119-1.828c0.621-0.102,1.223-0.187,1.822-0.29c0,1.725,0,3.416,0,5.107
				c0.419-1.503,1.2-2.802,2.319-3.826c-6.601-9.767-11.861-20.117-13.201-31.029c-8.499,9.923-14.097,21.962-16.399,34.752
				c0.159-0.051,0.321-0.085,0.48-0.119c0.7-0.154,1.822-0.393,2.36-0.513c0.139-0.034,0.24-0.05,0.301-0.068
				c0.2-0.034,0.419-0.084,0.639-0.136c0,0,0.02,0,0.061,0c0.02-0.017,0.058-0.017,0.04-0.017h0.018
				c0.142-0.017,0.323-0.052,0.381-0.052c2.6-0.256,4.3,0.068,5.379,1.008c0.02,0,0.02,0,0.02,0.016
				c0.061,0.052,0.141,0.136,0.223,0.204c0,0,0.02,0.018,0.02,0.034c0.058,0.068,0.119,0.137,0.177,0.206
				c0.02,0.016,0.041,0.034,0.061,0.05c0.061,0.086,0.142,0.188,0.202,0.273V82.95"/>
			<path fill="#EC174C" d="M29.043,112.614c0,0-0.122,0.015-0.283,0.068c1.622,2.476,4.441,6.112,8.903,9.972
				c-0.041-5.243-0.061-10.452-0.061-15.608C35.902,109.812,32.981,111.743,29.043,112.614"/>
			<path fill="#EC174C" d="M37.683,126.651c-3.962-3.178-6.862-6.301-8.923-8.966c3.221,11.629,9.302,22.336,17.902,31.269
				c4.919,5.088,10.439,9.358,16.419,12.789c9.999,1.675,17.799,0.563,23.16-3.363c4.06-2.971,6.639-7.481,7.701-13.372
				c-28.079-1.536-45.339-9.802-55.66-17.879l-0.599,0.103"/>
			<path fill="#EC174C" d="M161.78,126.446c-1.142-0.205-2.279-0.412-3.481-0.616l-2.1-0.374l-2.16-0.344
				c-4.058-0.647-8.221-1.227-12.758-1.791l-0.48-0.053c-2.241,5.705-4.002,11.136-5.04,15.866
				C147.42,136.281,155.899,131.739,161.78,126.446"/>
			<path fill="#EC174C" d="M159.921,81.737c3.999,0.7,7.839,1.434,11.839,2.271c-2.12-10.913-6.64-20.988-13.021-29.628
				c2.261,7.855,3.082,16.923,0.52,27.323c0.222,0.034,0.419,0.085,0.662,0.119C159.921,81.788,159.921,81.772,159.921,81.737"/>
			<path fill="#EC174C" d="M63.462,78.937c0.02,0.017,0.02,0.034,0.02,0.068C63.483,78.988,63.483,78.954,63.462,78.937"/>
			<path fill="#EC174C" d="M110.722,71.594c-0.041,0-0.081,0-0.122-0.018c-0.02,0-0.04,0-0.06,0c-2.178-0.273-3.3-1.179-3.88-2.049
				c0,0.153,0,0.802,0,0.802c-0.021,0.291-0.021,0.581-0.038,0.872c-2.822,0-5.641,0-8.481-0.034
				c0.081-5.072,0.142-10.161,0.222-15.233c-0.06,0.051-0.121,0.119-0.202,0.171c-0.298,0.256-0.659,0.443-1.081,0.597
				c-0.058,4.236-0.119,8.351-0.197,12.621c-0.182,0.016-0.361,0.016-0.561,0.016c0,0.649-0.02,1.059-0.02,1.059
				c0,0.274-0.02,0.547-0.04,0.82c-2.819,0.12-5.639,0.239-8.479,0.342c0,0,0.159-12.364,0.179-14.09
				c-0.46,0.035-1.301,0.069-1.981,0.12c0,0.018,0,0.052-0.02,0.068c0,0-2.878,0.239-4.439,0.376c0,0.221-0.02,0.461-0.02,0.716
				c1.2-0.136,2.319-0.239,3.481-0.307c-0.02,1.622-0.04,3.159-0.061,4.799c-0.202,0-0.402,0.017-0.581,0.034
				c-0.02,0.359-0.02,0.718-0.02,1.077c-0.02,0.255-0.04,0.511-0.04,0.768c0,0-1.718,0.154-2.86,0.256
				c-0.02,0.359-0.02,0.718-0.04,1.075c1.761-0.17,3.401-0.289,5.06-0.443c0,1.315-0.018,2.562-0.038,3.843
				c-0.182,0.016-0.382,0.034-0.561,0.05c-0.02,0.598-0.02,1.179-0.02,1.776c-0.341,0.034-0.682,0.051-1,0.086
				c-3.56,0.256-7.2,0.597-11.121,1.076c-0.46,0.05-0.899,0.102-1.339,0.153c0-0.649,0.02-1.298,0.02-1.947
				c-0.839,1.331-2.319,2.254-4.239,2.544c-3.181,0.461-6.24,0.974-9.58,1.624c-0.5,0.084-0.98,0.187-1.48,0.273
				c0,0,0.182-12.91,0.199-14.397c-0.619-0.102-1.16-0.289-1.66-0.648c-0.541-0.393-1.2-1.144-1.18-2.408
				c0.02-0.102,0.02-0.206,0.02-0.308c0.02-0.034,0.02-0.068,0.02-0.102c0.078-0.393,0.139-0.768,0.199-1.145
				c0.22-0.034,0.44-0.085,0.662-0.136c0.677-0.119,1.359-0.255,2.059-0.375c0-0.018,0-0.018,0-0.034
				c4.239-0.854,8.34-1.554,12.66-2.187l0,0c1.18-0.119,2.001-0.051,2.559,0.206c0-0.171,0.02-0.359,0.02-0.53
				c0.301-0.033,0.599-0.068,0.882-0.102c0.657-0.068,1.299-0.137,1.938-0.205c0-0.016,0-0.051,0-0.085
				c3.221-0.359,6.281-0.667,9.461-0.922c0,0,0,0,0-0.018c0.318-0.018,0.659-0.051,0.98-0.068c0.197-0.018,0.399-0.018,0.599-0.034
				c0.04,0,0.099,0,0.139-0.018v0.018c0.382-0.034,0.743-0.052,1.102-0.068v-0.018c3.901-0.255,7.62-0.393,11.581-0.461
				c0.238,0,0.518,0,0.819,0c0,0.052,0,0.102,0,0.136c0.379,0,0.74,0,1.101,0c0-0.051,0-0.102,0-0.153
				c2.658,0,5.278,0.016,7.918,0.102c-2.92-13.269-6.498-22.644-10.359-27.084c-18.842,0.188-36.62,7.429-50.24,20.578
				c-0.821,0.769-1.602,1.571-2.36,2.391c0.68,11.339,5.957,22.013,12.94,32.31c0.318-0.154,0.657-0.257,1-0.325
				c1.698-0.444,3.997-0.615,5.199-0.751l-0.141,0.034c0.02-0.018,0.061-0.018,0.101-0.018c0.139,0,0.278-0.034,0.419-0.05
				c1.561-0.205,8.979-0.922,14.941-1.299c0.119,0,0.217,0,0.298,0c0.5-0.05,0.801-0.068,0.801-0.068l0.26-0.017
				c0.101,0,0.2,0,0.298,0h0.02c1.561-0.086,3.082-0.136,4.621-0.205c7.561-0.325,14.861-0.393,22.501-0.24
				c0.619,0,1.22,0.034,1.72,0.034c0.099,0.495,0.099,0.974,0.099,1.487c0,0.084,0,0.187,0,0.255c0,0.495-0.059,1.521-0.518,2.648
				c0.778-0.769,1.698-1.435,2.759-1.964c-0.281-2.544-0.581-5.072-0.9-7.565C111.979,71.662,111.34,71.628,110.722,71.594"/>
			<path fill="#EC174C" d="M74.482,90.618c0.599,0.205,1.177,0.375,1.677,0.597c0.821,0.291,1.359,0.564,1.839,0.888
				c1.42,0.888,2.163,1.929,2.281,3.312c0.061,0.531,0.078,1.333,0.099,2.459c0.04,1.179,0.06,3.212,0.06,6.9v2.425
				c2.299,2.937,4.502,5.856,6.501,8.726c0-8.556,0-23.857,0-26.299c-1.94,0.085-6.7,0.273-6.7,0.273v-2.493
				c-1.42,1.537-3.279,2.425-5.621,2.63c0,0-0.637,0.052-1.478,0.136c0.361,0.12,0.74,0.256,1.139,0.393
				C74.28,90.618,74.381,90.6,74.482,90.618"/>
			<path fill="#EC174C" d="M97.119,142.31c5.341,0.204,11.061,0.172,17.18-0.169c0.662-6.286,1.041-13.15,1.162-20.34
				c-4.042-1.263-7.66-3.894-7.701-9.82V89.337c0-0.804,0.06-1.588,0.179-2.306c-0.119,0.103-0.24,0.221-0.379,0.325l-0.04,0.034
				c-0.98,0.768-1.362,1.297-2.66,1.622c0,2.834,0,32.48,0,32.48l-14.179,0.154C94.901,128.7,97.521,135.582,97.119,142.31"/>
			<path fill="#EC174C" d="M132.701,139.834c1.238-6.387,3.76-13.815,6.958-21.381v-0.273c-0.399,0.614-0.859,1.177-1.42,1.69
				c-2.88,2.612-7.66,3.603-15.058,3.143c-1.399-0.104-3.163-0.24-4.942-0.563c-0.142,6.814-0.48,13.388-1.101,19.502
				C122.821,141.542,128.002,140.824,132.701,139.834"/>
			<path fill="#EC174C" d="M156.301,82.044c0-0.512,0-0.87,0-0.87s0.078,0.017,0.22,0.034c3.32-13.082,0.94-23.891-3.021-33.146
				c-12.819-13.867-30.919-22.798-51.14-23.566c4.34,6.301,7.501,16.889,9.722,27.237c1.619,0.325,2.339,0.99,2.66,2.186
				c0.978-0.854,2.299-1.23,3.499-1.367c0.399-0.052,0.781-0.068,1.162-0.086c0.237-0.051,0.46-0.085,0.718-0.119
				c1.001-0.137,2.061-0.086,3.221,0.016c1.819,0.154,3.719,0.342,5,1.247c0-0.119,0-0.256,0-0.375
				c0.939,0.137,1.879,0.257,2.819,0.393c0-0.136,0-0.274,0-0.427c1.779,0.221,3.461,0.461,5.26,0.717
				c0.26,0.051,0.541,0.085,0.839,0.119c0,0.154,0,0.308,0,0.479c0.341,0.05,0.682,0.102,1.02,0.153c0-0.153,0-0.307,0-0.477
				c3.902,0.597,7.62,1.263,11.5,2.049c0.281,0.068,0.521,0.136,0.801,0.188c0,0.204,0,0.409,0.039,0.631c0,0.052,0,0.086,0,0.12
				c0,0.307-0.079,1.041-0.637,1.639c-0.121,0.683-0.5,1.589-1.602,2.203c-0.261,0.138-0.54,0.222-0.839,0.29
				c-0.06,4.081-0.121,8.027-0.161,12.125c-0.2-0.034-0.399-0.068-0.581-0.102c-0.02,0.734-0.02,1.195-0.02,1.195
				c-0.018,0.375-0.018,0.768-0.038,1.144c-2.802-0.479-5.621-0.974-8.42-1.503c0,0,0.182-12.689,0.182-13.9
				c-0.442-0.068-0.882-0.154-1.322-0.222c-0.061,3.877-0.099,7.702-0.179,11.647c-0.182-0.034-0.361-0.052-0.561-0.086
				c0,0.393,0,0.768,0,1.161c-0.02,0.359-0.04,0.717-0.04,1.094c-2.779-0.376-5.558-0.752-8.34-1.145c0-0.7,0.02-1.383,0.04-2.083
				c-0.159,0.153-0.341,0.289-0.52,0.427c-1.461,1.007-3.82,1.417-7.082,1.161c-0.078,0-0.157-0.017-0.237-0.017
				c-1.203-0.102-3.3-0.29-4.901-1.213c0.301,2.357,0.581,4.782,0.859,7.241c0.561-0.153,1.142-0.29,1.743-0.375
				c0.038-0.018,0.058-0.018,0.078-0.018c0.639-0.187,1.301-0.341,2.019-0.46c1.801-0.29,3.84-0.324,6.821-0.12h0.02
				c5.179,0.409,10.48,0.836,12.738,5.192v-3.091l3.303-0.12c0.878-0.016,1.938,0.034,3.079,0.222c2.759,0.171,6.68,1.229,9.82,4.2
				C156,83.121,156.162,82.574,156.301,82.044"/>
			<path fill="#EC174C" d="M136.4,154.35c1.66,1.98,4.78,2.254,9.222,0.854c1.697-1.384,3.381-2.819,4.977-4.373
				c7.023-6.778,12.521-14.721,16.32-23.413c-0.558-0.104-1.139-0.222-1.718-0.323c-6.442,6.402-16.179,11.866-30.039,15.06
				C134.24,147.741,134.52,152.061,136.4,154.35"/>
			<path fill="#EC174C" d="M134.24,156.142c-2.34-2.799-2.84-7.514-2.039-13.337c-4.679,0.922-9.803,1.607-15.361,1.999
				c-1.261,10.81-3.401,19.913-6.539,25.837c10.879-1.589,21.197-5.583,30.317-11.747
				C137.901,158.858,135.761,157.953,134.24,156.142"/>
			<path fill="#EC174C" d="M96.76,145.144c-1.139,6.728-4.158,12.092-8.84,15.507c-4.54,3.33-10.5,4.866-17.799,4.662
				c8.759,3.825,18.279,5.927,28.119,6.096c2.88,0.053,5.74-0.086,8.559-0.341c3.441-5.124,5.801-14.446,7.2-26.093
				C107.861,145.299,102.122,145.349,96.76,145.144"/>
			<path fill="#006BB5" d="M181.178,110.768c-1.117-0.615-2.279-1.297-3.377-2.117c-0.443,3.124-1.041,6.439-1.822,9.442l0.52,0.121
				v-0.018c1.622,0.392,3.161,0.733,4.72,1.109c0-0.872,0-2.118,0-3.194C181.219,114.115,181.219,112.015,181.178,110.768"/>
			<path fill="#006BB5" d="M21.521,86.314c5.818-38.526,39.5-68.053,79.499-67.319c38.882,0.701,70.78,29.561,76.561,66.756
				c1.18-0.154,2.501-0.052,3.959,0.307v0.018c0.101,0.034,0.98,0.255,1.119,0.289c0.02,0.018,0.061,0.018,0.102,0.035l-0.02-0.018
				c0.419,0.12,0.92,0.256,1.5,0.393c-2.339-18-10.358-34.752-23.22-48.089c-15.858-16.446-37.12-25.719-59.879-26.128
				c-44.162-0.803-81.199,32.515-86.34,75.446c1.16-0.307,2.322-0.597,3.479-0.888C19.361,86.826,20.443,86.553,21.521,86.314"/>
			<path fill="#006BB5" d="M173.041,128.682v-1.844c0,0,0,0,0,0.018V128.682l-0.7-0.154c-12.182,28.862-41.019,48.944-74.201,48.33
				c-35.979-0.649-66.237-25.855-75.1-59.02c0,3.006,0,5.992,0,9.067h-0.02c0,1.743,0,2.989,0,3.16c0,0.015,0,0.033,0,0.033
				l-1.177,0.291c-0.381,0.086-0.743,0.172-1.122,0.255c12.663,30.365,42.361,52.019,77.301,52.65
				c22.781,0.41,44.359-8.077,60.798-23.925c8.762-8.453,15.482-18.443,19.921-29.39c-1.362-0.326-2.762-0.649-4.26-0.973"/>
			<path fill="#FFFFFF" d="M80.44,108.036l-0.02,3.739c2.38,3.125,4.601,6.2,6.521,9.222c0-0.937,0-2.766,0-5.071
				c-1.998-2.87-4.202-5.789-6.501-8.726"/>
			<path fill="#FFFFFF" d="M110.302,170.641c3.138-5.924,5.278-15.027,6.539-25.837c5.558-0.392,10.681-1.077,15.361-1.999
				c-0.801,5.823-0.301,10.538,2.039,13.337c1.521,1.811,3.661,2.716,6.379,2.751C131.499,165.058,121.181,169.051,110.302,170.641
				 M98.241,171.409c-9.841-0.169-19.36-2.271-28.119-6.096c7.299,0.205,13.259-1.331,17.799-4.662
				c4.682-3.415,7.701-8.779,8.84-15.507c5.361,0.205,11.101,0.154,17.24-0.169c-1.4,11.647-3.759,20.969-7.2,26.093
				C103.981,171.323,101.121,171.462,98.241,171.409z M166.919,127.419c-3.8,8.691-9.297,16.634-16.32,23.413
				c-1.597,1.554-3.28,2.989-4.977,4.373c-4.442,1.4-7.562,1.127-9.222-0.854c-1.88-2.289-2.16-6.609-1.238-12.195
				c13.86-3.194,23.597-8.658,30.039-15.06c-1.122-0.223-2.261-0.43-3.421-0.649c-5.881,5.293-14.36,9.835-26.019,12.688
				c1.038-4.729,2.799-10.161,5.04-15.866l-1.142-0.136v-4.679c-3.198,7.567-5.72,14.994-6.958,21.381
				c-4.699,0.99-9.881,1.708-15.563,2.117c0.622-6.114,0.96-12.688,1.101-19.502c-0.919-0.154-1.859-0.376-2.779-0.649
				c-0.122,7.19-0.5,14.054-1.162,20.34c-6.119,0.341-11.839,0.374-17.18,0.169c0.402-6.728-2.218-13.61-6.437-20.664l-3.299,0.035
				c4.477,7.137,7.317,13.986,6.917,20.492c-25.299-1.417-41.62-8.521-51.837-15.744c-0.841,0.137-1.723,0.291-2.623,0.445
				l-1.559,0.255c10.32,8.077,27.581,16.343,55.66,17.879c-1.061,5.892-3.641,10.401-7.701,13.372
				c-5.361,3.926-13.16,5.038-23.16,3.363c-5.98-3.431-11.5-7.701-16.419-12.789c-8.6-8.934-14.681-19.64-17.902-31.269
				c2.062,2.665,4.962,5.788,8.923,8.966l-0.02-1.607c0-0.801,0-1.586,0-2.39c-4.462-3.86-7.281-7.496-8.903-9.972
				c-1.46,0.323-4.719,1.005-5.72,1.228c0,0.427,0,0.836,0,1.485c0,0.803,0,1.607,0,2.392c9.022,32.957,39.281,58.421,75.1,59.07
				c33.182,0.614,62.019-19.468,74.201-48.33l-1.541-0.323C169.501,127.932,168.22,127.674,166.919,127.419z"/>
			<path fill="#FFFFFF" d="M114.122,70.005c0,0.274-0.02,0.529-0.02,0.786c0,0.325,0,0.649,0,0.956
				c-0.5-0.017-0.98-0.034-1.481-0.068c0.319,2.493,0.619,5.021,0.9,7.565c0.819-0.409,1.718-0.752,2.698-1.008
				c-0.278-2.458-0.558-4.884-0.859-7.241C114.88,70.74,114.46,70.415,114.122,70.005"/>
			<path fill="#FFFFFF" d="M173.041,103.049v23.807c0-0.018,0-0.018,0-0.018v-7.327v-2.1l2.938,0.682
				c0.781-3.004,1.379-6.319,1.822-9.442C175.921,107.268,174.2,105.474,173.041,103.049"/>
			<path fill="#FFFFFF" d="M155.841,83.666c0.139,0.154,0.3,0.308,0.46,0.462c0-0.615,0-1.469,0-2.084
				C156.162,82.574,156,83.121,155.841,83.666"/>
			<path fill="#FFFFFF" d="M43.64,50.229c1.339,10.913,6.599,21.262,13.201,31.029c0.66-0.614,1.4-1.161,2.302-1.536
				c-6.983-10.298-12.261-20.972-12.94-32.31c0.758-0.82,1.539-1.622,2.36-2.391c13.62-13.149,31.398-20.39,50.24-20.578
				c3.86,4.44,7.438,13.816,10.359,27.084c0.72,0.016,1.42,0.034,2.16,0.068c0.02,0,0.04,0,0.04,0c0.02,0,0.04,0.018,0.058,0.018
				c0.243,0.034,0.462,0.068,0.662,0.119c-2.221-10.348-5.382-20.937-9.722-27.237c20.221,0.768,38.321,9.699,51.14,23.566
				c3.961,9.256,6.341,20.065,3.021,33.146c0.419,0.085,1.42,0.257,2.738,0.495c2.562-10.4,1.741-19.468-0.52-27.323
				c6.381,8.64,10.901,18.716,13.021,29.628c0.339,0.068,0.682,0.137,1.041,0.222c0,0.016,0,0.034,0,0.05l0.24,0.034v4.355
				c0.439-0.838,1.079-1.521,1.88-2.016c0.761-0.495,1.66-0.786,2.66-0.904c-5.78-37.194-37.679-66.054-76.561-66.756
				C61.022,18.261,27.34,47.788,21.521,86.314c0.199-0.052,0.419-0.102,0.619-0.154c0.48-0.119,0.96-0.223,1.44-0.341
				c1.22-0.29,2.441-0.597,3.661-0.854C29.543,72.174,35.141,60.168,43.64,50.229"/>
			<path fill="#00285D" d="M23.02,130.099c0,0,0-0.018,0-0.033c0-0.172,0-1.417,0-3.16c-4.439,1.041-8.837,2.102-13.259,3.365
				c0,0,0-29.714,0-32.481c-3.259,0.511-4.699-0.735-5.321-1.708c-0.298-0.479-0.738-1.674-0.758-2.835
				c0.02-0.667,0.159-1.298,0.579-1.81c0.179-0.223,0.3-0.427,0.52-0.649c3.201-0.94,6.359-1.81,9.499-2.648
				c-3.82,0.974-7.718,2.135-11.821,3.297L1.921,91.59c0,0-1.981,1.726-1.92,4.013v0.103c0.02,1.451,0.558,2.545,1.038,3.331
				c0.682,1.041,2.163,2.526,5.103,2.663c0,3.45,0,32.669,0,32.669l2.36-0.649c4.118-1.16,8.279-2.152,12.218-3.074
				c0.379-0.083,0.74-0.169,1.122-0.255"/>
			<path fill="#00285D" d="M18.28,87.116c1.142-0.291,2.282-0.58,3.421-0.854c-0.061,0.018-0.121,0.034-0.179,0.052
				C20.443,86.553,19.361,86.826,18.28,87.116"/>
			<path fill="#00285D" d="M29.043,112.614c3.939-0.872,6.859-2.802,8.559-5.568c0,5.157,0.02,10.365,0.061,15.608
				c0,0.804,0,1.589,0,2.39l0.02,1.607v0.581l0.599-0.103l1.559-0.255c0.9-0.154,1.781-0.308,2.623-0.445
				c3.8-0.632,7.14-1.144,10.338-1.607l1.602-0.22v-3.656c-4.3,0.614-8.463,1.299-12.763,2.049
				c-0.099-13.764-0.038-26.964-0.058-40.728c-0.801,0.136-1.599,0.273-2.44,0.427l-1.539,0.256v2.919
				c1.379,2.067,1.319,5.875,1.319,11.613c0,0.256-0.02,0.495-0.02,0.751c0,0.222,0,0.393,0,0.598
				c-0.041,5.328-3.199,8.88-8.681,10.109c-2.42,0.513-4.739,1.042-7.18,1.623c0,1.126,0,2.237,0,3.347
				c1.561-0.342,4.82-1.024,5.72-1.228C28.921,112.629,29.043,112.614,29.043,112.614"/>
			<path fill="#00285D" d="M27.721,84.863c0.821-0.17,1.66-0.359,2.479-0.547c-0.038,0.018-0.078,0.034-0.119,0.034
				C29.543,84.47,28.421,84.708,27.721,84.863"/>
			<path fill="#00285D" d="M156.301,82.044c0,0.615,0,1.469,0,2.084c1.338,1.4,2.519,3.176,3.34,5.429
				c0.078,0.309,0.18,0.565,0.281,0.906c0-2.937,0-5.737,0-8.641c-0.243-0.034-0.44-0.085-0.662-0.119
				c-1.319-0.239-2.319-0.411-2.738-0.495c-0.142-0.017-0.22-0.034-0.22-0.034S156.301,81.533,156.301,82.044"/>
			<path fill="#00285D" d="M199.94,93.998v-0.085c0,0.154,0.02,0.307,0.02,0.461c0,0.034-0.339,1.502-1.16,2.322
				c-1.099,1.298-2.782,1.657-4.919,1.076c-2.102-0.581-4.201-1.127-6.321-1.708c0,0.325,0,0.597,0,0.905
				c0,1.332,1.041,2.34,2.739,3.586c0.743,0.205,1.42,0.375,1.42,0.375c3.762,1.059,5.821-0.563,6.72-1.622
				c-0.02,0.034-0.058,0.068-0.078,0.084l0.099-0.102c0,0,0,0-0.021,0.018c0.021-0.018,0.021-0.018,0.021-0.018
				c1.162-1.263,1.541-3.125,1.541-3.552"/>
			<path fill="#00285D" d="M181.54,86.058c-1.458-0.359-2.779-0.461-3.959-0.307c-1,0.119-1.9,0.409-2.66,0.904
				c-0.801,0.495-1.441,1.179-1.88,2.016v-4.355l-0.24-0.034c0,13.832,0,27.034,0,40.884c-4.161-0.889-8.181-1.657-12.44-2.407
				c0,0-2.319-5.654-4.239-10.35c0,3.279,0,6.354,0,9.615c-4.222-0.682-8.44-1.281-12.7-1.812c0-13.796,0-26.929,0-40.694
				c0-0.016,0-0.034,0-0.034c0.497-0.034,1.458-0.034,1.458-0.034c0.361,0,0.742,0,1.142,0.017
				c-1.142-0.188-2.201-0.239-3.079-0.222l-3.303,0.12v3.091c0.703,1.349,1.102,3.073,1.122,5.294v22.831c0,0-0.02,0.94-0.02,0.973
				c-0.02,2.016-0.74,3.706-2.14,4.987c-2.42,2.254-6.818,3.126-13.519,2.698c-5.381-0.409-13.521-1.041-13.582-9.256V87.134
				c0.04-4.919,2.18-7.975,6.541-9.291c-0.02,0-0.041,0-0.078,0.018c-0.601,0.086-1.182,0.223-1.743,0.375
				c-0.98,0.256-1.879,0.599-2.698,1.008c-1.061,0.529-1.981,1.195-2.759,1.964c-0.341,0.836-0.882,1.708-1.781,2.458
				c-1.119,0.888-2.519,1.385-4.141,1.555c0,10.963,0,21.466,0,32.463c-4.48-0.033-8.779,0-13.259,0.154c0-10.947,0-21.449,0-32.396
				c-2.319,0.068-4.401,0.172-6.639,0.291c0-2.921,0-5.703,0-8.606c0.677-0.034,1.339-0.068,2.019-0.102
				c-1.539,0.068-3.059,0.119-4.621,0.205c0,0.478,0.121,0.922,0.121,1.418c0,0.324,0.061,0.631,0.061,0.938
				c0,0.325-0.061,0.599-0.061,0.872c0,0.034,0,0.034,0,0.068c0,0.016-0.02,0.034-0.02,0.034c0,0.291-0.24,1.349-0.96,2.51
				c-1.122,1.742-2.779,2.716-5.02,2.921c-2.12,0.154-4.181,0.325-6.319,0.547c0,0.289,0,0.598,0,0.888
				c0.02,1.418,1.137,2.066,2.999,2.749c0.841-0.085,1.478-0.136,1.478-0.136c2.342-0.205,4.202-1.093,5.621-2.63V89.9
				c0,0,4.76-0.188,6.7-0.273c0,2.442,0,17.743,0,26.299c0,2.304,0,4.133,0,5.071c0,0.445,0,0.702,0,0.702l0.442-0.018l3.299-0.035
				l14.179-0.154c0,0,0-29.645,0-32.48c1.298-0.325,1.68-0.854,2.66-1.622l0.04-0.034c0.139-0.103,0.26-0.222,0.379-0.325
				c-0.119,0.718-0.179,1.502-0.179,2.306v22.643c0.04,5.926,3.658,8.557,7.701,9.82c0.919,0.273,1.859,0.495,2.779,0.649
				c1.779,0.324,3.542,0.46,4.942,0.563c7.397,0.46,12.178-0.531,15.058-3.143c0.561-0.513,1.021-1.076,1.42-1.69v0.273v4.679
				l1.142,0.136l0.48,0.053c4.538,0.563,8.701,1.144,12.758,1.791l2.16,0.344l2.1,0.374c1.202,0.205,2.339,0.412,3.481,0.616
				c1.16,0.22,2.299,0.427,3.421,0.649c0.579,0.101,1.16,0.219,1.718,0.323c1.301,0.256,2.582,0.513,3.881,0.786l1.541,0.323
				l0.7,0.154v-1.827v-23.807c1.159,2.425,2.88,4.219,4.76,5.603c1.099,0.819,2.261,1.502,3.377,2.117
				c0.04,1.247,0.04,3.347,0.04,5.345c0,1.076,0,2.322,0,3.194c1.142,0.258,2.282,0.53,3.481,0.821
				c0-2.374,0.041-10.656-0.061-11.887c0-0.034-0.101-0.05-0.139-0.068c-0.08-0.051-0.219-0.102-0.301-0.136
				c-3.022-1.571-6.619-3.774-8.279-8.042c-0.402-1.043-0.442-2.698-0.48-4.44c-0.04-2.409,0.379-5.875,0.379-6.182
				c0.599-2.698,3.039-3.893,6.839-3.006c-0.139-0.035-1.018-0.255-1.119-0.289"/>
			<path fill="#00285D" d="M182.699,86.382c0.121,0.034,0.878,0.222,2.021,0.513c-0.162-0.035-0.321-0.069-0.481-0.12
				c-0.581-0.136-1.081-0.273-1.5-0.393C182.719,86.382,182.719,86.382,182.699,86.382"/>
			<path fill="#00285D" d="M198.56,90.669l-0.359-0.102c0.379,0.12,0.778,0.256,1.157,0.376"/>
			<path fill="#00285D" d="M199.838,91.113L199.838,91.113c0,0.682,0.04,1.349,0.081,2.031"/>
			<path fill="#00285D" d="M197.741,109.181c0,0.136,0,0.29,0.02,0.443C197.762,109.471,197.762,109.317,197.741,109.181"/>
			<path fill="#00285D" d="M197.8,125.403c0,0-0.038,0.581-0.281,1.026c-1.319,2.562-4.158,3.433-8.64,2.458
				c0.02,0-0.02-0.018-0.02-0.018c-4.26-1.109-8.12-2.049-12.36-3.004c0-2.597,0-5.055,0-7.65l-0.52-0.121l-2.938-0.682v2.1v7.327
				v1.844l1.44,0.326c1.498,0.324,2.897,0.647,4.26,0.973c2.58,0.614,5.08,1.245,7.98,1.998h0.041l0.058,0.033
				c6.561,1.417,9.28-1.076,10.5-3.416c0.382-0.718,0.46-1.519,0.48-1.741v-0.068l0.02-2.802l0.04-5.498
				c0-0.273-0.02-0.581-0.02-0.94c0,3.193-0.04,6.25-0.04,7.786C197.8,125.388,197.8,125.403,197.8,125.403"/>
			<path fill="#00285D" d="M24.722,93.998c-0.419,0.102-0.841,0.172-1.243,0.24c-0.197,0.05-0.399,0.068-0.579,0.137
				c0,2.937,0,5.737,0,8.658c0.902-0.205,1.761-0.411,2.681-0.615c0-1.007-0.04-7.668-0.04-7.924
				C25.321,94.016,25.222,93.913,24.722,93.998"/>
			<path fill="#00285D" d="M125.38,86.382h-0.041l-0.04-0.018c-0.058,0-0.139,0-0.217-0.016c-0.04,0.29-0.06,0.581-0.06,0.888v0.102
				l-0.02,0.12c-0.02,0.29-0.04,0.597-0.04,0.904c0,0.222,0,0.427,0.02,0.65v0.632v16.189v0.086c-0.02,0.307-0.02,0.597-0.02,0.836
				c0,1.229,0.28,1.538,2.041,1.69c0.099,0,0.358,0.018,0.358,0.018s0.081,0,0.101,0c0-0.223,0.04-1.213,0.04-1.213V91.232
				c0-2.049,0-3.807-0.303-4.406C127.08,86.587,126.14,86.45,125.38,86.382"/>
			<path fill="#00285D" d="M67.222,99.737L67.222,99.737C67.222,99.737,67.242,99.737,67.222,99.737"/>
			<path fill="#00285D" d="M63.483,79.005c0-0.034,0-0.052-0.02-0.068C63.483,78.954,63.483,78.988,63.483,79.005 M54.64,97.414
				c1.9,4.252,5.882,5.516,8.539,6.046c0.02,2.015,0.04,7.087,0.04,8.573c0,0,0,0,0,0.015c1.341-0.17,2.68-0.306,4.062-0.46
				c0-4.013-0.061-7.838-0.061-11.851c-0.041,0-0.162,0-0.162-0.034c-0.099-0.018-0.179-0.034-0.278-0.034
				c-3.042-0.512-6.639-1.435-8.281-5.105c-0.399-0.906-0.48-2.512-0.48-4.304c0-2.339,0.162-4.765,0.26-5.499
				c0,0.05,0,0.102,0,0.136c0-0.308,0.119-0.615,0.119-0.906c0.52-2.476,2.322-4.2,5.083-4.97c0.018-0.016,0.018-0.016,0.038-0.016
				c0.52-0.136,1.079-0.257,1.68-0.325l0.141-0.034c-1.203,0.136-3.501,0.307-5.199,0.751c-0.361,0.085-0.702,0.187-1,0.325
				c-0.902,0.375-1.642,0.922-2.302,1.536c-1.119,1.024-1.9,2.323-2.319,3.826c0,4.046,0,8.043,0,12.038
				C54.559,97.226,54.6,97.329,54.64,97.414z"/>
			<path fill="#00285D" d="M54.961,113.056l0.04,1.521l0.058,9.972l2.302-0.273c3.84-0.495,7.619-0.904,12.26-1.331l0.099-0.018
				c7.082-0.922,10.679-4.422,10.679-10.399l0.02-0.753l0.02-3.739V107.2v-2.425c0-3.688-0.02-5.721-0.06-6.9
				c0.02,1.231,0.02,2.835,0.02,4.885c0,2.185-0.04,4.695-0.04,7.752c0,6.063-4.078,7.822-8.918,8.367c0.02,0-0.02,0-0.02,0
				c-4.239,0.394-8.181,0.821-12.319,1.349c0-2.576-0.061-5.088-0.061-7.667c0.061,0,0.101,0,0.159-0.018
				C57.06,112.801,54.961,113.056,54.961,113.056"/>
			<path fill="#EC174C" d="M108.64,56.463c0-0.052,0-0.086,0-0.136c0.02-0.838-0.119-0.99-0.139-1.008
				c-0.098-0.051-0.5-0.068-0.841-0.068c0.04,0-0.078,0-0.099,0c-0.04,0-0.081-0.016-0.119-0.016c-0.02,1.229-0.02,2.408-0.04,3.637
				c0.38,0,0.738,0.018,1.119,0.034c0.038-0.034,0.038-0.086,0.038-0.12c0-0.016,0-0.016,0-0.016c0-0.086,0.02-0.154,0.02-0.239
				c0.061-0.495,0.041-0.633,0.061-1.417C108.64,56.89,108.64,56.685,108.64,56.463"/>
			<path fill="#00285D" d="M108.64,56.463c0-0.052,0-0.086,0-0.136c0.02-0.838-0.119-0.99-0.139-1.008
				c-0.098-0.051-0.5-0.068-0.841-0.068c0.04,0-0.078,0-0.099,0c-0.04,0-0.081-0.016-0.119-0.016c-0.02,1.229-0.02,2.408-0.04,3.637
				c0.38,0,0.738,0.018,1.119,0.034c0.038-0.034,0.038-0.086,0.038-0.12c0-0.016,0-0.016,0-0.016c0-0.086,0.02-0.154,0.02-0.239
				c0.061-0.495,0.041-0.633,0.061-1.417C108.64,56.89,108.64,56.685,108.64,56.463"/>
			<path fill="#EC174C" d="M109.059,67.393c-0.058-0.086-0.098-0.188-0.119-1.229c0-0.12-0.02-0.206-0.02-0.342
				c-0.037-0.752-0.058-2.288-0.037-2.8c0-0.205,0.037-0.768-1.422-0.82c-0.038,0-0.078,0-0.119,0
				c-0.04,2.408-0.061,4.679-0.102,7.07c-2.099-0.034-4.158-0.05-6.24-0.017c0.06-5.994,0.162-11.697,0.242-17.675
				c-0.361,0-0.722,0-1.101,0c0.02,0.172,0.04,0.343,0.04,0.513c0,0.034,0,0.068,0,0.12c0,0.307-0.08,1.127-0.722,1.861
				c-0.137,0.581-0.44,1.265-1.097,1.862c-0.081,5.072-0.141,10.161-0.222,15.233c2.84,0.034,5.659,0.034,8.481,0.034
				c0.018-0.29,0.018-0.581,0.038-0.872c0,0,0-0.649,0-0.802c0.581,0.87,1.703,1.776,3.88,2.049c0.02,0,0.04,0,0.06,0
				c0.04,0.018,0.081,0.018,0.122,0.018c0.619,0.034,1.258,0.068,1.899,0.085c-0.101-0.683-0.182-1.366-0.28-2.049
				C110.58,69.357,109.461,68.605,109.059,67.393"/>
			<path fill="#00285D" d="M109.059,67.393c-0.058-0.086-0.098-0.188-0.119-1.229c0-0.12-0.02-0.206-0.02-0.342
				c-0.037-0.752-0.058-2.288-0.037-2.8c0-0.205,0.037-0.768-1.422-0.82c-0.038,0-0.078,0-0.119,0
				c-0.04,2.408-0.061,4.679-0.102,7.07c-2.099-0.034-4.158-0.05-6.24-0.017c0.06-5.994,0.162-11.697,0.242-17.675
				c-0.361,0-0.722,0-1.101,0c0.02,0.172,0.04,0.343,0.04,0.513c0,0.034,0,0.068,0,0.12c0,0.307-0.08,1.127-0.722,1.861
				c-0.137,0.581-0.44,1.265-1.097,1.862c-0.081,5.072-0.141,10.161-0.222,15.233c2.84,0.034,5.659,0.034,8.481,0.034
				c0.018-0.29,0.018-0.581,0.038-0.872c0,0,0-0.649,0-0.802c0.581,0.87,1.703,1.776,3.88,2.049c0.02,0,0.04,0,0.06,0
				c0.04,0.018,0.081,0.018,0.122,0.018c0.619,0.034,1.258,0.068,1.899,0.085c-0.101-0.683-0.182-1.366-0.28-2.049
				C110.58,69.357,109.461,68.605,109.059,67.393"/>
			<path fill="#FFFFFF" d="M112.5,69.646c0-0.016,0,0-0.04,0s-0.081-0.016-0.119-0.016c0.098,0.683,0.18,1.365,0.28,2.049
				c0.5,0.034,0.98,0.051,1.481,0.068c0-0.307,0-0.632,0-0.956c0-0.256,0.02-0.512,0.02-0.786c-0.101-0.085-0.182-0.187-0.242-0.307
				C113.419,69.68,112.96,69.664,112.5,69.646"/>
			<path fill="#00285D" d="M112.5,69.646c0-0.016,0,0-0.04,0s-0.081-0.016-0.119-0.016c0.098,0.683,0.18,1.365,0.28,2.049
				c0.5,0.034,0.98,0.051,1.481,0.068c0-0.307,0-0.632,0-0.956c0-0.256,0.02-0.512,0.02-0.786c-0.101-0.085-0.182-0.187-0.242-0.307
				C113.419,69.68,112.96,69.664,112.5,69.646"/>
			<path fill="#EC174C" d="M129.882,56.975c-0.041,3.331-0.101,6.507-0.142,9.837c0,0.138-0.02,0.274-0.02,0.411
				c-0.04,0.666-0.261,1.213-0.68,1.674c-0.119,0.666-0.44,1.247-0.94,1.742c-0.02,0.7-0.04,1.383-0.04,2.083
				c2.782,0.393,5.56,0.768,8.34,1.145c0-0.376,0.02-0.735,0.04-1.094c0-0.393,0-0.768,0-1.161c-1.839-0.257-3.658-0.512-5.54-0.734
				c0.081-5.841,0.18-11.425,0.26-17.248c-0.94-0.136-1.88-0.256-2.819-0.393c0,0.119,0,0.257,0,0.375
				C129.281,54.26,129.882,55.302,129.882,56.975"/>
			<path fill="#00285D" d="M129.882,56.975c-0.041,3.331-0.101,6.507-0.142,9.837c0,0.138-0.02,0.274-0.02,0.411
				c-0.04,0.666-0.261,1.213-0.68,1.674c-0.119,0.666-0.44,1.247-0.94,1.742c-0.02,0.7-0.04,1.383-0.04,2.083
				c2.782,0.393,5.56,0.768,8.34,1.145c0-0.376,0.02-0.735,0.04-1.094c0-0.393,0-0.768,0-1.161c-1.839-0.257-3.658-0.512-5.54-0.734
				c0.081-5.841,0.18-11.425,0.26-17.248c-0.94-0.136-1.88-0.256-2.819-0.393c0,0.119,0,0.257,0,0.375
				C129.281,54.26,129.882,55.302,129.882,56.975"/>
			<path fill="#EC174C" d="M97.099,55.217c0,0.495-0.02,0.99-0.02,1.485c0.422-0.154,0.783-0.341,1.081-0.597
				c0.081-0.052,0.142-0.12,0.202-0.171c0-0.359,0-0.717,0.018-1.076C98.001,55.028,97.559,55.148,97.099,55.217"/>
			<path fill="#00285D" d="M97.099,55.217c0,0.495-0.02,0.99-0.02,1.485c0.422-0.154,0.783-0.341,1.081-0.597
				c0.081-0.052,0.142-0.12,0.202-0.171c0-0.359,0-0.717,0.018-1.076C98.001,55.028,97.559,55.148,97.099,55.217"/>
			<path fill="#EC174C" d="M86.501,51.989c-0.199,0.016-0.402,0.016-0.599,0.034c-0.321,0.018-0.662,0.051-0.98,0.068
				c0,0.018,0,0.018,0,0.018c0.278-0.018,0.578-0.052,0.879-0.068C86.021,52.023,86.261,52.005,86.501,51.989"/>
			<path fill="#00285D" d="M86.501,51.989c-0.199,0.016-0.402,0.016-0.599,0.034c-0.321,0.018-0.662,0.051-0.98,0.068
				c0,0.018,0,0.018,0,0.018c0.278-0.018,0.578-0.052,0.879-0.068C86.021,52.023,86.261,52.005,86.501,51.989"/>
			<path fill="#EC174C" d="M90.801,55.489c-1.038,0.052-2.059,0.12-3.12,0.188c0.02-1.247,0.04-2.476,0.061-3.757
				c-0.359,0.016-0.72,0.034-1.102,0.068c-0.02,1.263-0.04,2.459-0.04,3.706c-0.177,0.016-0.379,0.034-0.579,0.051
				c0,0.375,0,0.768-0.02,1.144c0,0.239-0.02,0.461-0.02,0.7c0.68-0.051,1.521-0.085,1.981-0.12
				c-0.02,1.726-0.179,14.09-0.179,14.09c2.84-0.104,5.659-0.223,8.479-0.342c0.02-0.273,0.04-0.546,0.04-0.82
				c0,0,0.02-0.41,0.02-1.059c-1.92,0.068-3.8,0.137-5.7,0.256C90.682,64.814,90.74,60.272,90.801,55.489"/>
			<path fill="#00285D" d="M90.801,55.489c-1.038,0.052-2.059,0.12-3.12,0.188c0.02-1.247,0.04-2.476,0.061-3.757
				c-0.359,0.016-0.72,0.034-1.102,0.068c-0.02,1.263-0.04,2.459-0.04,3.706c-0.177,0.016-0.379,0.034-0.579,0.051
				c0,0.375,0,0.768-0.02,1.144c0,0.239-0.02,0.461-0.02,0.7c0.68-0.051,1.521-0.085,1.981-0.12
				c-0.02,1.726-0.179,14.09-0.179,14.09c2.84-0.104,5.659-0.223,8.479-0.342c0.02-0.273,0.04-0.546,0.04-0.82
				c0,0,0.02-0.41,0.02-1.059c-1.92,0.068-3.8,0.137-5.7,0.256C90.682,64.814,90.74,60.272,90.801,55.489"/>
			<path fill="#EC174C" d="M99.459,54.072c-0.119,0.137-0.238,0.257-0.399,0.393c-0.199,0.154-0.44,0.29-0.679,0.393
				c-0.018,0.359-0.018,0.718-0.018,1.076C99.019,55.336,99.322,54.653,99.459,54.072"/>
			<path fill="#00285D" d="M99.459,54.072c-0.119,0.137-0.238,0.257-0.399,0.393c-0.199,0.154-0.44,0.29-0.679,0.393
				c-0.018,0.359-0.018,0.718-0.018,1.076C99.019,55.336,99.322,54.653,99.459,54.072"/>
			<path fill="#00285D" d="M99.459,54.072c-0.119,0.137-0.238,0.257-0.399,0.393c-0.199,0.154-0.44,0.29-0.679,0.393
				c-0.018,0.359-0.018,0.718-0.018,1.076C99.019,55.336,99.322,54.653,99.459,54.072"/>
			<path fill="#EC174C" d="M147.582,59.486c-0.02,0.614-0.02,1.213-0.041,1.827c0.299-0.068,0.579-0.153,0.839-0.29
				c1.101-0.614,1.481-1.52,1.602-2.203c-0.141,0.138-0.283,0.256-0.462,0.359C148.982,59.468,148.34,59.571,147.582,59.486"/>
			<path fill="#00285D" d="M147.582,59.486c-0.02,0.614-0.02,1.213-0.041,1.827c0.299-0.068,0.579-0.153,0.839-0.29
				c1.101-0.614,1.481-1.52,1.602-2.203c-0.141,0.138-0.283,0.256-0.462,0.359C148.982,59.468,148.34,59.571,147.582,59.486"/>
			<path fill="#EC174C" d="M138.502,60.272c0,1.211-0.182,13.9-0.182,13.9c2.799,0.529,5.618,1.024,8.42,1.503
				c0.02-0.376,0.02-0.769,0.038-1.144c0,0,0-0.461,0.02-1.195c-1.9-0.359-3.739-0.683-5.639-0.992
				c0.061-4.713,0.122-9.204,0.182-13.917c-1.061-0.188-2.041-0.342-3.102-0.513c0.02-1.076,0.04-2.151,0.04-3.245
				c-0.338-0.051-0.679-0.102-1.02-0.153c-0.02,1.861-0.059,3.705-0.078,5.533C137.62,60.118,138.06,60.204,138.502,60.272"/>
			<path fill="#00285D" d="M138.502,60.272c0,1.211-0.182,13.9-0.182,13.9c2.799,0.529,5.618,1.024,8.42,1.503
				c0.02-0.376,0.02-0.769,0.038-1.144c0,0,0-0.461,0.02-1.195c-1.9-0.359-3.739-0.683-5.639-0.992
				c0.061-4.713,0.122-9.204,0.182-13.917c-1.061-0.188-2.041-0.342-3.102-0.513c0.02-1.076,0.04-2.151,0.04-3.245
				c-0.338-0.051-0.679-0.102-1.02-0.153c-0.02,1.861-0.059,3.705-0.078,5.533C137.62,60.118,138.06,60.204,138.502,60.272"/>
			<path fill="#EC174C" d="M75.46,53.116c-0.639,0.068-1.281,0.136-1.938,0.205c-0.283,0.034-0.581,0.07-0.882,0.102
				c0,0.172-0.02,0.359-0.02,0.53c1.362,0.632,1.301,2.356,1.261,5.397c-0.04,2.612-0.081,5.156-0.101,7.786
				c-0.02,0.974-0.298,1.844-0.798,2.562c-0.142,0.495-0.341,0.94-0.601,1.349c0,0.649-0.02,1.297-0.02,1.947
				c0.44-0.051,0.879-0.103,1.339-0.153c3.921-0.479,7.562-0.82,11.121-1.076c0.318-0.035,0.659-0.052,1-0.086
				c0-0.598,0-1.179,0.02-1.776c-3.562,0.257-7.079,0.615-10.641,1.058C75.281,64.933,75.382,59.161,75.46,53.116"/>
			<path fill="#00285D" d="M75.46,53.116c-0.639,0.068-1.281,0.136-1.938,0.205c-0.283,0.034-0.581,0.07-0.882,0.102
				c0,0.172-0.02,0.359-0.02,0.53c1.362,0.632,1.301,2.356,1.261,5.397c-0.04,2.612-0.081,5.156-0.101,7.786
				c-0.02,0.974-0.298,1.844-0.798,2.562c-0.142,0.495-0.341,0.94-0.601,1.349c0,0.649-0.02,1.297-0.02,1.947
				c0.44-0.051,0.879-0.103,1.339-0.153c3.921-0.479,7.562-0.82,11.121-1.076c0.318-0.035,0.659-0.052,1-0.086
				c0-0.598,0-1.179,0.02-1.776c-3.562,0.257-7.079,0.615-10.641,1.058C75.281,64.933,75.382,59.161,75.46,53.116"/>
			<path fill="#EC174C" d="M81.42,65.378c1.142-0.102,2.86-0.256,2.86-0.256c0-0.256,0.02-0.513,0.04-0.768
				c0-0.359,0-0.717,0.02-1.077c-0.96,0.069-1.9,0.154-2.9,0.257C81.44,64.147,81.42,64.762,81.42,65.378"/>
			<path fill="#00285D" d="M81.42,65.378c1.142-0.102,2.86-0.256,2.86-0.256c0-0.256,0.02-0.513,0.04-0.768
				c0-0.359,0-0.717,0.02-1.077c-0.96,0.069-1.9,0.154-2.9,0.257C81.44,64.147,81.42,64.762,81.42,65.378"/>
			<path fill="#EC174C" d="M84.861,55.832c-1.101,0.085-2.18,0.17-3.32,0.289c0,0.633-0.02,1.265-0.02,1.914
				c1.561-0.138,4.439-0.376,4.439-0.376c0.02-0.016,0.02-0.051,0.02-0.068c-0.639,0.018-1.139,0.052-1.139,0.052
				C84.841,57.043,84.861,56.429,84.861,55.832"/>
			<path fill="#00285D" d="M84.861,55.832c-1.101,0.085-2.18,0.17-3.32,0.289c0,0.633-0.02,1.265-0.02,1.914
				c1.561-0.138,4.439-0.376,4.439-0.376c0.02-0.016,0.02-0.051,0.02-0.068c-0.639,0.018-1.139,0.052-1.139,0.052
				C84.841,57.043,84.861,56.429,84.861,55.832"/>
			<path fill="#EC174C" d="M86.021,55.746c-0.381,0.018-0.781,0.052-1.16,0.086c0,0.598-0.02,1.211-0.02,1.81
				c0,0,0.5-0.034,1.139-0.052c0-0.239,0.02-0.461,0.02-0.7C86.021,56.514,86.021,56.121,86.021,55.746"/>
			<path fill="#00285D" d="M86.021,55.746c-0.381,0.018-0.781,0.052-1.16,0.086c0,0.598-0.02,1.211-0.02,1.81
				c0,0,0.5-0.034,1.139-0.052c0-0.239,0.02-0.461,0.02-0.7C86.021,56.514,86.021,56.121,86.021,55.746"/>
			<path fill="#00285D" d="M86.021,55.746c-0.381,0.018-0.781,0.052-1.16,0.086c0,0.598-0.02,1.211-0.02,1.81
				c0,0,0.5-0.034,1.139-0.052c0-0.239,0.02-0.461,0.02-0.7C86.021,56.514,86.021,56.121,86.021,55.746"/>
			<path fill="#EC174C" d="M67.56,58.564c0-0.018,0-0.052,0-0.052c0-0.222-0.061-0.495-0.159-0.546
				c-0.098-0.018-0.321-0.018-1.021,0.102c-0.038,3.501-0.078,6.848-0.139,10.366c0.44-0.103,0.819-0.137,1.238-0.222
				c0.02-1.742,0.101-3.911,0.121-5.807c0.02-1.844,0.061-3.312-0.02-3.808C67.58,58.58,67.56,58.58,67.56,58.564"/>
			<path fill="#00285D" d="M67.56,58.564c0-0.018,0-0.052,0-0.052c0-0.222-0.061-0.495-0.159-0.546
				c-0.098-0.018-0.321-0.018-1.021,0.102c-0.038,3.501-0.078,6.848-0.139,10.366c0.44-0.103,0.819-0.137,1.238-0.222
				c0.02-1.742,0.101-3.911,0.121-5.807c0.02-1.844,0.061-3.312-0.02-3.808C67.58,58.58,67.56,58.58,67.56,58.564"/>
			<path fill="#EC174C" d="M69.601,71.696c-3.279,0.495-6.382,1.041-9.681,1.656c0.081-4.815,0.142-9.426,0.202-14.243
				c-0.922,0.034-1.541-0.136-2.062-0.512c-0.72-0.529-0.798-1.298-0.798-1.725c0-0.153,0.018-0.289,0.018-0.307
				c0.061-0.188,0.061-0.393,0.121-0.598c-0.7,0.12-1.382,0.256-2.059,0.375c-0.222,0.052-0.442,0.102-0.662,0.136
				c-0.061,0.377-0.121,0.752-0.199,1.145c0,0.034,0,0.068-0.02,0.102c0,0.102,0,0.206-0.02,0.308
				c-0.02,1.263,0.639,2.015,1.18,2.408c0.5,0.359,1.041,0.546,1.66,0.648c-0.018,1.487-0.199,14.397-0.199,14.397
				c0.5-0.086,0.98-0.188,1.48-0.273c3.34-0.65,6.4-1.162,9.58-1.624c1.92-0.29,3.4-1.213,4.239-2.544
				c0-0.223,0.02-0.445,0.02-0.649C71.681,71.065,70.741,71.508,69.601,71.696"/>
			<path fill="#00285D" d="M69.601,71.696c-3.279,0.495-6.382,1.041-9.681,1.656c0.081-4.815,0.142-9.426,0.202-14.243
				c-0.922,0.034-1.541-0.136-2.062-0.512c-0.72-0.529-0.798-1.298-0.798-1.725c0-0.153,0.018-0.289,0.018-0.307
				c0.061-0.188,0.061-0.393,0.121-0.598c-0.7,0.12-1.382,0.256-2.059,0.375c-0.222,0.052-0.442,0.102-0.662,0.136
				c-0.061,0.377-0.121,0.752-0.199,1.145c0,0.034,0,0.068-0.02,0.102c0,0.102,0,0.206-0.02,0.308
				c-0.02,1.263,0.639,2.015,1.18,2.408c0.5,0.359,1.041,0.546,1.66,0.648c-0.018,1.487-0.199,14.397-0.199,14.397
				c0.5-0.086,0.98-0.188,1.48-0.273c3.34-0.65,6.4-1.162,9.58-1.624c1.92-0.29,3.4-1.213,4.239-2.544
				c0-0.223,0.02-0.445,0.02-0.649C71.681,71.065,70.741,71.508,69.601,71.696"/>
			<path fill="#EC174C" d="M72.401,70.398c0,0.204-0.02,0.427-0.02,0.649c0.26-0.409,0.46-0.854,0.601-1.349
				C72.82,69.954,72.621,70.176,72.401,70.398"/>
			<path fill="#00285D" d="M72.401,70.398c0,0.204-0.02,0.427-0.02,0.649c0.26-0.409,0.46-0.854,0.601-1.349
				C72.82,69.954,72.621,70.176,72.401,70.398"/>
			<path fill="#00285D" d="M72.401,70.398c0,0.204-0.02,0.427-0.02,0.649c0.26-0.409,0.46-0.854,0.601-1.349
				C72.82,69.954,72.621,70.176,72.401,70.398"/>
			<path fill="#EC174C" d="M114.961,58.239c0,0.12-0.021,0.205-0.021,0.325c0,0.085,0,0.187,0,0.255
				c-0.02,0.957-0.26,1.623-0.798,2.237c-0.02,0.086-0.04,0.154-0.081,0.24c0.399,0.546,0.718,1.229,0.718,1.81
				c-0.02,1.178-0.02,2.322-0.038,3.45c0.22,1.451,0.42,2.936,0.619,4.439c1.601,0.923,3.699,1.11,4.901,1.213
				c0.08,0,0.159,0.017,0.237,0.017c3.261,0.256,5.621-0.154,7.082-1.161c0.179-0.138,0.361-0.274,0.52-0.427
				c0-0.342,0-0.701,0-1.042c-1.241,0.632-3.16,0.854-5.74,0.666c-2.079-0.17-6.359-0.393-6.399-4.064
				c0.06-3.347,0.099-6.541,0.139-9.871c0.04-2.135,1.119-3.399,3.302-3.86c-0.381,0.018-0.763,0.034-1.162,0.086
				c-1.2,0.136-2.521,0.513-3.499,1.367C115.021,54.944,114.981,56.343,114.961,58.239"/>
			<path fill="#00285D" d="M114.961,58.239c0,0.12-0.021,0.205-0.021,0.325c0,0.085,0,0.187,0,0.255
				c-0.02,0.957-0.26,1.623-0.798,2.237c-0.02,0.086-0.04,0.154-0.081,0.24c0.399,0.546,0.718,1.229,0.718,1.81
				c-0.02,1.178-0.02,2.322-0.038,3.45c0.22,1.451,0.42,2.936,0.619,4.439c1.601,0.923,3.699,1.11,4.901,1.213
				c0.08,0,0.159,0.017,0.237,0.017c3.261,0.256,5.621-0.154,7.082-1.161c0.179-0.138,0.361-0.274,0.52-0.427
				c0-0.342,0-0.701,0-1.042c-1.241,0.632-3.16,0.854-5.74,0.666c-2.079-0.17-6.359-0.393-6.399-4.064
				c0.06-3.347,0.099-6.541,0.139-9.871c0.04-2.135,1.119-3.399,3.302-3.86c-0.381,0.018-0.763,0.034-1.162,0.086
				c-1.2,0.136-2.521,0.513-3.499,1.367C115.021,54.944,114.981,56.343,114.961,58.239"/>
			<path fill="#FFFFFF" d="M114.701,69.732c-0.2,0-0.382-0.016-0.579-0.016c0,0.102,0,0.187,0,0.289
				c0.338,0.411,0.758,0.735,1.238,0.991c-0.199-1.502-0.399-2.988-0.619-4.439C114.721,67.615,114.701,68.656,114.701,69.732"/>
			<path fill="#00285D" d="M114.701,69.732c-0.2,0-0.382-0.016-0.579-0.016c0,0.102,0,0.187,0,0.289
				c0.338,0.411,0.758,0.735,1.238,0.991c-0.199-1.502-0.399-2.988-0.619-4.439C114.721,67.615,114.701,68.656,114.701,69.732"/>
			<path fill="#EC174C" d="M123.202,65.805c0.078,0.034,0.156,0.034,0.237,0.034c0.06-0.222,0.04-0.445,0.06-0.701
				c0.02-2.339,0.061-4.559,0.081-6.898c0.02-0.872,0-1.656-0.121-1.964c0-0.034-0.081-0.119-0.738-0.187c-0.081,0-0.142,0-0.182,0
				c-0.061,0.375-0.081,0.734-0.101,1.143c0,0.137,0,0.274,0,0.411c-0.041,2.356-0.058,4.627-0.099,6.984
				c0,0.017,0.021,0.034,0,0.034c0,0.086,0,0.171,0,0.273c-0.02,0.274,0,0.564,0.139,0.7
				C122.581,65.719,122.8,65.805,123.202,65.805"/>
			<path fill="#00285D" d="M123.202,65.805c0.078,0.034,0.156,0.034,0.237,0.034c0.06-0.222,0.04-0.445,0.06-0.701
				c0.02-2.339,0.061-4.559,0.081-6.898c0.02-0.872,0-1.656-0.121-1.964c0-0.034-0.081-0.119-0.738-0.187c-0.081,0-0.142,0-0.182,0
				c-0.061,0.375-0.081,0.734-0.101,1.143c0,0.137,0,0.274,0,0.411c-0.041,2.356-0.058,4.627-0.099,6.984
				c0,0.017,0.021,0.034,0,0.034c0,0.086,0,0.171,0,0.273c-0.02,0.274,0,0.564,0.139,0.7
				C122.581,65.719,122.8,65.805,123.202,65.805"/>
			<path fill="#EC174C" d="M114.001,61.211c0.02,0.034,0.04,0.068,0.061,0.086c0.041-0.086,0.061-0.154,0.081-0.24
				C114.102,61.108,114.061,61.16,114.001,61.211"/>
			<path fill="#00285D" d="M114.001,61.211c0.02,0.034,0.04,0.068,0.061,0.086c0.041-0.086,0.061-0.154,0.081-0.24
				C114.102,61.108,114.061,61.16,114.001,61.211"/>
			<path fill="#00285D" d="M114.001,61.211c0.02,0.034,0.04,0.068,0.061,0.086c0.041-0.086,0.061-0.154,0.081-0.24
				C114.102,61.108,114.061,61.16,114.001,61.211"/>
			<path fill="#FFFFFF" d="M113.88,69.698c0.06,0.12,0.141,0.222,0.242,0.307c0-0.102,0-0.187,0-0.289
				C114.041,69.716,113.96,69.698,113.88,69.698"/>
			<path fill="#00285D" d="M113.88,69.698c0.06,0.12,0.141,0.222,0.242,0.307c0-0.102,0-0.187,0-0.289
				C114.041,69.716,113.96,69.698,113.88,69.698"/>
			<path fill="#00285D" d="M113.88,69.698c0.06,0.12,0.141,0.222,0.242,0.307c0-0.102,0-0.187,0-0.289
				C114.041,69.716,113.96,69.698,113.88,69.698"/>
			<path fill="#EC174C" d="M128.101,69.595c0,0.341,0,0.7,0,1.042c0.5-0.495,0.821-1.076,0.94-1.742
				C128.801,69.151,128.482,69.391,128.101,69.595"/>
			<path fill="#00285D" d="M128.101,69.595c0,0.341,0,0.7,0,1.042c0.5-0.495,0.821-1.076,0.94-1.742
				C128.801,69.151,128.482,69.391,128.101,69.595"/>
			<path fill="#00285D" d="M128.101,69.595c0,0.341,0,0.7,0,1.042c0.5-0.495,0.821-1.076,0.94-1.742
				C128.801,69.151,128.482,69.391,128.101,69.595"/>
			<path fill="#006BB5" d="M108.559,58.769c0,0,0,0,0,0.016c0,0.034,0,0.086-0.038,0.12c-0.381-0.016-0.74-0.034-1.119-0.034
				c0.02-1.229,0.02-2.408,0.04-3.637c0.038,0,0.079,0.016,0.119,0.016c0.021,0,0.139,0,0.099,0c0.341,0,0.743,0.018,0.841,0.068
				c0.02,0.018,0.159,0.17,0.139,1.008c0,0.051,0,0.085,0,0.136c0,0.222,0,0.427,0,0.649c-0.02,0.784,0,0.922-0.061,1.417
				C108.579,58.614,108.559,58.683,108.559,58.769 M109.441,58.785c0.058-0.819,0.098-0.802,0.078-2.306
				c0.061-1.946-0.538-1.878-1.958-1.929c-0.341,0-0.679,0-0.96-0.018c-0.02,1.691-0.04,3.313-0.06,5.004
				c0.659,0.018,1.382,0.034,2.059,0.052C109.14,59.605,109.441,59.144,109.441,58.785z"/>
			<path fill="#006BB5" d="M111.3,52.28c2.721,0.359,2.842,1.179,2.781,5.892c0,0.119,0,0.239,0,0.359
				c0,0.068-0.02,0.171-0.02,0.255c0,1.008-0.263,1.657-1.142,2.357c0.04,0.069,0.121,0.12,0.182,0.188
				c0.46,0.511,0.778,1.229,0.819,1.758c-0.04,1.999-0.061,3.911-0.081,5.944c-0.44-0.034-0.839-0.052-1.278-0.068
				c-1.319-0.17-2.279-0.684-2.661-1.725c-0.058-0.153-0.098-1.058-0.098-1.058c0-0.257-0.061-2.494-0.061-3.16
				c0.02-1.041-1.021-1.451-2.281-1.503c-0.341-0.016-0.619-0.016-0.96-0.034c-0.038,2.425-0.058,4.697-0.098,7.07
				c-1.501,0-2.981,0-4.543,0c0.081-5.567,0.162-10.895,0.243-16.444C105.199,52.109,108.2,52.159,111.3,52.28 M101.242,51.426
				c0,0.05,0,0.102,0,0.153c-0.081,5.978-0.182,11.681-0.242,17.675c2.082-0.033,4.141-0.017,6.24,0.017
				c0.041-2.391,0.061-4.663,0.102-7.07c0.04,0,0.08,0,0.119,0c1.46,0.052,1.422,0.615,1.422,0.82c-0.02,0.513,0,2.049,0.037,2.8
				c0,0.136,0.02,0.222,0.02,0.342c0.021,1.041,0.061,1.143,0.119,1.229c0.402,1.213,1.521,1.964,3.282,2.237
				c0.038,0,0.078,0.016,0.119,0.016s0.04-0.016,0.04,0c0.46,0.018,0.919,0.034,1.38,0.052c0.081,0,0.161,0.018,0.242,0.018
				c0.197,0,0.379,0.016,0.579,0.016c0-1.076,0.02-2.117,0.04-3.175c0.018-1.128,0.018-2.272,0.038-3.45
				c0-0.581-0.319-1.265-0.718-1.81c-0.02-0.018-0.041-0.052-0.061-0.086c0.061-0.051,0.101-0.103,0.142-0.154
				c0.538-0.614,0.778-1.28,0.798-2.237c0-0.068,0-0.171,0-0.255c0-0.12,0.021-0.205,0.021-0.325c0.02-1.896,0.061-3.296-0.22-4.32
				c-0.321-1.196-1.041-1.862-2.66-2.186c-0.2-0.051-0.419-0.085-0.662-0.119c-0.018,0-0.038-0.018-0.058-0.018c0,0-0.02,0-0.04,0
				c-0.74-0.034-1.44-0.052-2.16-0.068C106.52,51.442,103.9,51.426,101.242,51.426z"/>
			<path fill="#006BB5" d="M132.019,53.987c1.48,0.205,2.88,0.393,4.381,0.614c-0.081,5.499-0.141,10.777-0.219,16.292
				c-1.498-0.205-2.9-0.393-4.399-0.598C131.86,64.78,131.941,59.503,132.019,53.987 M136.44,71.61
				c0.2,0.034,0.379,0.052,0.561,0.086c0.081-3.945,0.119-7.77,0.179-11.647c0.02-1.828,0.058-3.672,0.078-5.533
				c0-0.171,0-0.325,0-0.479c-0.298-0.034-0.579-0.068-0.839-0.119c-1.799-0.256-3.481-0.496-5.26-0.717c0,0.153,0,0.291,0,0.427
				c-0.081,5.823-0.179,11.407-0.26,17.248C132.782,71.099,134.601,71.354,136.44,71.61z"/>
			<path fill="#006BB5" d="M96.22,54.567c-0.061,4.765-0.119,9.325-0.2,14.106c-1.518,0.05-2.958,0.102-4.519,0.188
				c0.06-4.783,0.121-9.341,0.199-14.106c-1.079,0.068-2.079,0.102-3.14,0.188c0.02-0.82,0.02-1.606,0.04-2.391
				c3.62-0.222,7.079-0.359,10.702-0.409C99.302,52.143,99.519,54.601,96.22,54.567 M98.38,54.858
				c0.24-0.102,0.48-0.239,0.679-0.393c0.162-0.136,0.281-0.257,0.399-0.393c0.642-0.734,0.722-1.554,0.722-1.861
				c0-0.052,0-0.086,0-0.12c0-0.17-0.02-0.341-0.04-0.513c0-0.034,0-0.085,0-0.136c-0.301,0-0.581,0-0.819,0
				c-3.961,0.068-7.68,0.206-11.581,0.461v0.018c-0.02,1.281-0.04,2.51-0.061,3.757c1.061-0.068,2.081-0.136,3.12-0.188
				c-0.061,4.783-0.119,9.325-0.179,14.106c1.9-0.12,3.78-0.188,5.7-0.256c0.2,0,0.379,0,0.561-0.016
				c0.078-4.27,0.139-8.385,0.197-12.621c0-0.495,0.02-0.99,0.02-1.485C97.559,55.148,98.001,55.028,98.38,54.858z"/>
			<path fill="#006BB5" d="M139.138,55.012c3.583,0.564,7.023,1.179,10.641,1.913c0,0,0.162,2.493-3.059,1.758
				c-0.06,4.697-0.139,9.205-0.199,13.918c-1.521-0.307-3.001-0.546-4.482-0.802c0.06-4.696,0.122-9.187,0.182-13.902
				c-1.061-0.187-2.061-0.357-3.1-0.529C139.121,56.566,139.138,55.814,139.138,55.012 M141.342,58.427
				c-0.06,4.713-0.121,9.204-0.182,13.917c1.9,0.308,3.739,0.633,5.639,0.992c0.182,0.034,0.381,0.068,0.581,0.102
				c0.04-4.099,0.101-8.044,0.161-12.125c0.021-0.614,0.021-1.213,0.041-1.827c0.757,0.085,1.4-0.018,1.938-0.308
				c0.179-0.102,0.321-0.221,0.462-0.359c0.558-0.598,0.637-1.332,0.637-1.639c0-0.034,0-0.068,0-0.12
				c-0.039-0.222-0.039-0.427-0.039-0.631c-0.28-0.052-0.52-0.12-0.801-0.188c-3.88-0.786-7.599-1.452-11.5-2.049
				c0,0.171,0,0.325,0,0.477c0,1.094-0.02,2.169-0.04,3.245C139.3,58.085,140.28,58.239,141.342,58.427z"/>
			<path fill="#006BB5" d="M80.682,55.507c-0.02,1.365-0.02,2.664-0.04,4.013c1.137-0.12,2.299-0.222,3.459-0.325
				c-0.02,1.161-0.041,2.271-0.061,3.416c-1.16,0.084-2.299,0.187-3.459,0.307c-0.02,1.469-0.041,2.852-0.061,4.304
				c1.738-0.171,3.38-0.308,5.06-0.445c0,0.82-0.02,1.64-0.02,2.46c-1.599,0.12-3.12,0.239-4.702,0.409
				c-1.657,0.172-3.158,0.308-4.78,0.513c0.081-5.585,0.162-10.947,0.242-16.531c3.178-0.376,6.26-0.649,9.439-0.888
				c0,0.786,0,1.554-0.02,2.34C84.06,55.217,82.42,55.336,80.682,55.507 M84.861,55.832c0.379-0.034,0.778-0.068,1.16-0.086
				c0.2-0.016,0.402-0.034,0.579-0.051c0-1.247,0.02-2.443,0.04-3.706v-0.018c-0.04,0.018-0.099,0.018-0.139,0.018
				c-0.24,0.016-0.48,0.034-0.7,0.052c-0.301,0.016-0.601,0.051-0.879,0.068c-3.181,0.255-6.24,0.563-9.461,0.922
				c0,0.034,0,0.068,0,0.085c-0.078,6.046-0.179,11.817-0.26,17.845c3.562-0.443,7.079-0.802,10.641-1.058
				c0.179-0.016,0.379-0.034,0.561-0.05c0.02-1.281,0.038-2.528,0.038-3.843c-1.66,0.154-3.299,0.273-5.06,0.443
				c0.02-0.357,0.02-0.716,0.04-1.075c0-0.615,0.02-1.23,0.02-1.844c1-0.103,1.94-0.188,2.9-0.257
				c0.179-0.017,0.379-0.034,0.581-0.034c0.02-1.639,0.04-3.177,0.061-4.799c-1.162,0.068-2.281,0.171-3.481,0.307
				c0-0.255,0.02-0.495,0.02-0.716c0-0.649,0.02-1.281,0.02-1.914C82.681,56.002,83.76,55.916,84.861,55.832z"/>
			<path fill="#006BB5" d="M58.162,56.479c4.037-0.802,7.877-1.451,11.879-2.031c3.219-0.359,3.059,0.75,2.981,5.533
				c-0.041,2.458-0.081,4.799-0.101,7.241c-0.101,2.101-1.38,3.466-3.3,3.791c-3.001,0.443-5.821,0.939-8.822,1.486
				c0.081-4.781,0.142-9.375,0.202-14.174C57.722,58.803,58.162,56.479,58.162,56.479 M57.262,56.872
				c0,0.427,0.078,1.196,0.798,1.725c0.52,0.375,1.139,0.546,2.062,0.512c-0.061,4.817-0.121,9.427-0.202,14.243
				c3.299-0.615,6.402-1.161,9.681-1.656c1.139-0.188,2.079-0.631,2.799-1.298c0.22-0.221,0.42-0.444,0.581-0.7
				c0.5-0.718,0.778-1.588,0.798-2.562c0.02-2.63,0.061-5.174,0.101-7.786c0.04-3.041,0.101-4.765-1.261-5.397
				c-0.558-0.256-1.379-0.325-2.559-0.206l0,0c-4.32,0.633-8.42,1.333-12.66,2.187c0,0.016,0,0.016,0,0.034
				c-0.061,0.205-0.061,0.409-0.121,0.598C57.28,56.583,57.262,56.72,57.262,56.872z"/>
			<path fill="#006BB5" d="M67.6,62.405c-0.02,1.896-0.101,4.065-0.121,5.807c-0.419,0.085-0.798,0.119-1.238,0.222
				c0.061-3.518,0.101-6.865,0.139-10.366c0.7-0.12,0.922-0.12,1.021-0.102c0.098,0.051,0.159,0.323,0.159,0.546
				c0,0,0,0.034,0,0.052c0,0.016,0.02,0.016,0.02,0.034C67.661,59.093,67.621,60.561,67.6,62.405 M68.439,58.392
				c0,0,0.081-0.99-0.677-1.127c0,0-0.303-0.102-2.241,0.274c-0.061,3.978-0.101,7.752-0.159,11.714
				c1.018-0.153,1.94-0.324,2.958-0.478C68.321,68.776,68.581,59.827,68.439,58.392z"/>
			<path fill="#006BB5" d="M122.34,64.933c0-0.102,0-0.187,0-0.273c0.021,0,0-0.018,0-0.034c0.041-2.357,0.058-4.628,0.099-6.984
				c0-0.137,0-0.274,0-0.411c0.02-0.409,0.04-0.768,0.101-1.143c0.041,0,0.101,0,0.182,0c0.657,0.068,0.738,0.153,0.738,0.187
				c0.121,0.308,0.142,1.093,0.121,1.964c-0.02,2.34-0.061,4.559-0.081,6.898c-0.02,0.257,0,0.479-0.06,0.701
				c-0.081,0-0.159,0-0.237-0.034c-0.402,0-0.622-0.086-0.723-0.172C122.34,65.496,122.32,65.207,122.34,64.933 M123.182,66.504
				c0.339,0.034,0.677,0.018,1.018,0.018c0.159-0.445,0.159-0.837,0.159-1.299c0.04-2.34,0.06-4.577,0.101-6.916
				c0.021-2.306-0.02-2.716-1.718-2.903c-0.344-0.034-0.601-0.052-0.942-0.018c-0.179,0.701-0.199,1.435-0.199,2.186
				c-0.041,2.356-0.061,4.611-0.101,6.984C121.479,65.48,121.401,66.316,123.182,66.504z"/>
			<path fill="#006BB5" d="M120.322,53.031c0.819-0.12,1.799-0.086,2.999,0.016c3.279,0.29,5.659,0.547,5.679,3.825
				c-0.038,3.331-0.078,6.507-0.119,9.837c0,0.136-0.02,0.273-0.02,0.41c-0.06,2.271-2.901,2.732-6.48,2.442
				c-3.479-0.291-5.52-0.872-5.54-3.33c0.02-3.33,0.08-6.507,0.141-9.854C117.04,54.072,118.381,53.252,120.322,53.031
				 M116.1,56.327c-0.04,3.33-0.078,6.523-0.139,9.871c0.04,3.671,4.32,3.893,6.399,4.064c2.58,0.188,4.499-0.034,5.74-0.666
				c0.381-0.204,0.7-0.444,0.94-0.7c0.419-0.461,0.64-1.008,0.68-1.674c0-0.136,0.02-0.273,0.02-0.411
				c0.04-3.33,0.101-6.505,0.142-9.837c0-1.672-0.602-2.715-1.541-3.364c-1.282-0.905-3.181-1.093-5-1.247
				c-1.16-0.102-2.22-0.153-3.221-0.016c-0.258,0.034-0.48,0.068-0.718,0.119C117.219,52.928,116.14,54.192,116.1,56.327z"/>
			<path fill="#FFFFFF" d="M106.601,54.533c0.281,0.018,0.619,0.018,0.96,0.018c1.42,0.05,2.019-0.018,1.958,1.929
				c0.02,1.503-0.02,1.487-0.078,2.306c0,0.359-0.3,0.82-0.842,0.803c-0.677-0.018-1.4-0.034-2.059-0.052
				C106.56,57.846,106.581,56.224,106.601,54.533 M101.859,68.553c1.561,0,3.042,0,4.543,0c0.04-2.373,0.06-4.645,0.098-7.07
				c0.341,0.018,0.619,0.018,0.96,0.034c1.26,0.052,2.301,0.462,2.281,1.503c0,0.666,0.061,2.903,0.061,3.16
				c0,0,0.04,0.906,0.098,1.058c0.382,1.042,1.341,1.555,2.661,1.725c0.439,0.016,0.839,0.034,1.278,0.068
				c0.02-2.033,0.041-3.945,0.081-5.944c-0.04-0.529-0.359-1.247-0.819-1.758c-0.061-0.068-0.141-0.12-0.182-0.188
				c0.879-0.7,1.142-1.349,1.142-2.357c0-0.085,0.02-0.187,0.02-0.255c0-0.12,0-0.24,0-0.359c0.061-4.713-0.061-5.533-2.781-5.892
				c-3.1-0.12-6.102-0.171-9.199-0.171C102.02,57.658,101.94,62.986,101.859,68.553z"/>
			<path fill="#FFFFFF" d="M136.4,54.601c-1.5-0.221-2.9-0.409-4.381-0.614c-0.078,5.515-0.159,10.793-0.238,16.308
				c1.498,0.205,2.901,0.393,4.399,0.598C136.259,65.378,136.319,60.1,136.4,54.601"/>
			<path fill="#FFFFFF" d="M99.302,52.143c-3.623,0.05-7.082,0.187-10.702,0.409c-0.02,0.786-0.02,1.571-0.04,2.391
				c1.061-0.086,2.061-0.12,3.14-0.188c-0.078,4.765-0.139,9.324-0.199,14.106c1.561-0.086,3.001-0.138,4.519-0.188
				c0.081-4.781,0.139-9.341,0.2-14.106C99.519,54.601,99.302,52.143,99.302,52.143"/>
			<path fill="#FFFFFF" d="M142.039,71.799c1.481,0.256,2.961,0.495,4.482,0.802c0.061-4.713,0.139-9.222,0.199-13.918
				c3.221,0.735,3.059-1.758,3.059-1.758c-3.618-0.734-7.059-1.349-10.641-1.913c0,0.802-0.017,1.554-0.017,2.356
				c1.038,0.172,2.038,0.342,3.1,0.529C142.161,62.611,142.099,67.102,142.039,71.799"/>
			<path fill="#FFFFFF" d="M85.76,52.74c-3.178,0.239-6.26,0.512-9.439,0.888c-0.081,5.583-0.162,10.946-0.242,16.531
				c1.622-0.205,3.123-0.341,4.78-0.513c1.582-0.17,3.102-0.289,4.702-0.409c0-0.82,0.02-1.639,0.02-2.46
				c-1.68,0.137-3.322,0.274-5.06,0.445c0.02-1.451,0.04-2.834,0.061-4.304c1.159-0.12,2.299-0.223,3.459-0.307
				c0.02-1.145,0.04-2.255,0.061-3.416c-1.16,0.102-2.322,0.205-3.459,0.325c0.02-1.349,0.02-2.648,0.04-4.013
				c1.738-0.171,3.378-0.29,5.058-0.427C85.76,54.294,85.76,53.526,85.76,52.74"/>
			<path fill="#FFFFFF" d="M65.521,57.539c1.938-0.376,2.241-0.274,2.241-0.274c0.758,0.137,0.677,1.127,0.677,1.127
				c0.141,1.435-0.119,10.383-0.119,10.383c-1.018,0.154-1.94,0.325-2.958,0.478C65.42,65.292,65.461,61.517,65.521,57.539
				 M61.002,58.324c-0.061,4.799-0.121,9.393-0.202,14.174c3.001-0.547,5.821-1.042,8.822-1.486c1.92-0.324,3.199-1.69,3.3-3.791
				c0.02-2.442,0.061-4.782,0.101-7.241c0.078-4.782,0.237-5.891-2.981-5.533c-4.002,0.58-7.842,1.229-11.879,2.031
				C58.162,56.479,57.722,58.803,61.002,58.324z"/>
			<path fill="#FFFFFF" d="M121.499,64.558c0.04-2.374,0.061-4.629,0.101-6.984c0-0.752,0.02-1.485,0.199-2.186
				c0.341-0.034,0.599-0.016,0.942,0.018c1.698,0.187,1.738,0.597,1.718,2.903c-0.04,2.339-0.061,4.576-0.101,6.916
				c0,0.461,0,0.854-0.159,1.299c-0.341,0-0.68,0.016-1.018-0.018C121.401,66.316,121.479,65.48,121.499,64.558 M116.841,66.231
				c0.02,2.458,2.061,3.039,5.54,3.33c3.58,0.291,6.42-0.17,6.48-2.442c0-0.138,0.02-0.274,0.02-0.41
				c0.04-3.33,0.081-6.506,0.119-9.837c-0.02-3.278-2.4-3.535-5.679-3.825c-1.2-0.102-2.18-0.136-2.999-0.016
				c-1.94,0.221-3.282,1.041-3.34,3.346C116.921,59.725,116.861,62.902,116.841,66.231z"/>
			<path fill="#006BB5" d="M52.7,119.632c-3.138,0.477-6.119,0.937-9.259,1.486c0-12.791-0.038-25.001-0.038-37.793
				c3.138-0.581,6.16-1.042,9.297-1.503C52.7,94.614,52.7,106.841,52.7,119.632 M54.521,97.123c0-3.995,0-7.992,0-12.038
				c0-1.692,0-3.382,0-5.107c-0.599,0.104-1.2,0.188-1.822,0.29c-3.739,0.547-7.36,1.162-11.119,1.828c0,0.05,0,0.119,0,0.17
				c0.02,13.764-0.04,26.964,0.058,40.728c4.3-0.75,8.463-1.435,12.763-2.049c0.038-0.018,0.078-0.018,0.119-0.033
				C54.521,112.869,54.521,105.013,54.521,97.123z"/>
			<path fill="#006BB5" d="M80.662,80.457c0,0-0.162,0.974-0.783,1.93c-0.697,1.007-1.576,1.861-3.418,2.031
				c-2.721,0.223-5.399,0.445-8.14,0.735c0,0.854,0,1.638,0,2.458c0.119,2.732,2.64,3.604,5.161,4.406
				c0.619,0.205,1.218,0.393,1.839,0.632c0.599,0.206,1.061,0.479,1.559,0.735c0.922,0.598,1.48,1.229,1.599,2.271
				c0.182,2.835,0.081,15.506,0.061,15.523c0,0.292-0.119,1.691-0.359,2.255c-1.122,2.595-3.64,3.398-6.801,3.843
				c-3.638,0.291-6.938,0.718-10.5,1.177c0-1.536-0.02-3.039-0.02-4.56c2.84-0.374,5.5-0.664,8.241-0.937
				c0-4.783-0.061-9.343-0.061-14.14c-0.2-0.342-0.561-0.461-0.859-0.547c-0.301-0.084-0.662-0.102-0.879-0.154
				c-3.34-0.529-5.841-1.452-7.082-4.302c-0.76-1.913-0.119-9.051-0.119-9.153c0,0-0.04-0.256,0.058-0.633
				c0.541-2.271,2.342-3.535,5.182-3.807c0.119-0.068,0.278-0.034,0.419-0.068c1.94-0.24,12.139-1.11,14.901-1.265
				C80.761,79.262,80.761,79.842,80.662,80.457 M80.96,77.314c-0.081,0-0.179,0-0.298,0c-5.962,0.376-13.38,1.094-14.941,1.299
				c-0.141,0.016-0.28,0.05-0.419,0.05c-0.04,0-0.081,0-0.101,0.018c-0.601,0.068-1.16,0.188-1.68,0.325c-0.02,0-0.02,0-0.038,0.016
				c-2.762,0.769-4.563,2.493-5.083,4.97c0,0.29-0.119,0.597-0.119,0.906c0-0.034,0-0.086,0-0.136
				c-0.099,0.734-0.26,3.159-0.26,5.499c0,1.792,0.081,3.398,0.48,4.304c1.642,3.671,5.24,4.593,8.281,5.105
				c0.099,0,0.179,0.017,0.278,0.034c0,0.034,0.121,0.034,0.162,0.034l0,0c0.02,0,0,0,0,0c0,4.013,0.061,7.838,0.061,11.851
				c-1.382,0.154-2.721,0.29-4.062,0.46c-1.319,0.154-2.617,0.308-3.939,0.495c-0.02,0-0.061,0-0.081,0
				c-0.058,0.018-0.098,0.018-0.159,0.018c0,2.579,0.061,5.091,0.061,7.667c4.138-0.528,8.079-0.955,12.319-1.349c0,0,0.04,0,0.02,0
				c4.841-0.545,8.918-2.304,8.918-8.367c0-3.057,0.04-5.567,0.04-7.752c0-2.05,0-3.655-0.02-4.885
				c-0.02-1.126-0.038-1.929-0.099-2.459c-0.118-1.383-0.861-2.424-2.281-3.312c-0.48-0.325-1.018-0.598-1.839-0.888
				c-0.5-0.222-1.079-0.393-1.677-0.597c-0.101-0.018-0.202,0-0.202-0.052c-0.399-0.137-0.778-0.273-1.139-0.393
				c-1.862-0.683-2.979-1.331-2.999-2.749c0-0.29,0-0.599,0-0.888c2.137-0.222,4.199-0.393,6.319-0.547
				c2.241-0.204,3.898-1.179,5.02-2.921c0.72-1.16,0.96-2.219,0.96-2.51c0,0,0.02-0.018,0.02-0.034c0-0.034,0-0.034,0-0.068
				c0-0.273,0.061-0.547,0.061-0.872c0-0.307-0.061-0.614-0.061-0.938c0-0.495-0.121-0.94-0.121-1.418h-0.02
				C81.819,77.263,81.42,77.28,80.96,77.314z"/>
			<path fill="#006BB5" d="M170.982,123.235c-3.143-0.667-6.122-1.248-9.363-1.826c-2.42-6.063-4.858-11.819-7.298-17.812
				c0,5.585,0,10.963,0,16.564c-3.12-0.46-5.94-0.887-9.1-1.299c0-12.806,0.02-25.05,0.02-37.842c0,0,9.279-0.409,12.639,8.676
				c1.122,3.296,2.122,6.455,3.12,9.733c0.301,0.803,0.443,1.555,0.74,2.339c0-6.113,0-11.988,0-18.152
				c3.12,0.563,6.079,1.144,9.242,1.792C170.982,98.2,170.982,110.41,170.982,123.235 M171.76,84.009
				c-4-0.838-7.84-1.571-11.839-2.271c0,0.034,0,0.051,0,0.085c0,2.904,0,5.705,0,8.641c-0.101-0.341-0.202-0.597-0.281-0.906
				c-0.821-2.253-2.001-4.029-3.34-5.429c-0.16-0.154-0.321-0.308-0.46-0.462c-3.141-2.971-7.062-4.029-9.82-4.2
				c-0.399-0.017-0.781-0.017-1.142-0.017c0,0-0.961,0-1.458,0.034c0,0,0,0.018,0,0.034c0,13.765,0,26.898,0,40.694
				c4.26,0.531,8.479,1.129,12.7,1.812c0-3.262,0-6.336,0-9.615c1.92,4.696,4.239,10.35,4.239,10.35
				c4.26,0.75,8.279,1.518,12.44,2.407c0-13.85,0-27.051,0-40.884c0-0.016,0-0.034,0-0.05
				C172.442,84.145,172.098,84.077,171.76,84.009z"/>
			<path fill="#006BB5" d="M190.9,102.76c0.622,0.393,1.241,0.836,1.839,1.263c0.52,0.427,1.061,0.854,1.582,1.297
				c0.9,0.906,1.481,1.76,1.579,2.802c0.16,2.835,0.081,15.659,0.081,16.771c0,0,0.017,0.255-0.179,0.546
				c-1.021,2.271-3.161,2.92-6.981,1.877c-3.56-0.972-6.96-1.758-10.503-2.594c0-1.536,0-3.006,0-4.56
				c2.723,0.631,5.483,1.263,8.2,1.98c0-4.798-0.06-9.391-0.06-14.191c-0.197-0.359-0.538-0.614-0.859-0.836
				c-0.298-0.17-0.679-0.325-0.879-0.445c-3.34-1.725-5.861-3.535-7.08-6.814c-0.763-2.168-0.121-9.101-0.121-9.187
				c0,0,0-0.221,0.081-0.598c0.52-2.101,2.299-2.698,5.159-1.999c0.101,0,12.02,3.125,15.259,4.065c0,0.512,0.061,1.041,0.061,1.588
				c0,0.239-0.319,1.025-0.819,1.725c-0.722,0.701-1.642,1.23-3.38,0.751c-2.721-0.751-5.402-1.451-8.14-2.151
				c0,0.854,0,1.4,0,2.476C185.741,99.258,188.479,101.068,190.9,102.76 M187.56,96.97c0-0.308,0-0.581,0-0.905
				c2.12,0.581,4.219,1.127,6.321,1.708c2.137,0.581,3.82,0.222,4.919-1.076c0.821-0.82,1.16-2.288,1.16-2.322
				c0-0.154-0.02-0.307-0.02-0.461c0-0.256-0.02-0.513-0.02-0.769c-0.041-0.682-0.081-1.349-0.081-2.031v-0.018
				c-0.156-0.05-0.318-0.103-0.48-0.153c-0.379-0.12-0.778-0.257-1.157-0.376c-0.06-0.016-0.101-0.034-0.162-0.05
				c-4.158-1.247-10.219-2.818-13.319-3.621c-1.143-0.29-1.9-0.478-2.021-0.513c0.02,0,0.02,0,0.04,0l0.02,0.018
				c-0.04-0.018-0.081-0.018-0.102-0.035c-3.799-0.887-6.24,0.308-6.839,3.006c0,0.307-0.419,3.773-0.379,6.182
				c0.038,1.742,0.078,3.398,0.48,4.44c1.66,4.268,5.258,6.471,8.279,8.042c0.081,0.034,0.22,0.086,0.301,0.136
				c0.038,0.018,0.139,0.034,0.139,0.068c0.101,1.23,0.061,9.512,0.061,11.887c-1.2-0.291-2.34-0.563-3.481-0.821
				c-1.559-0.376-3.098-0.718-4.72-1.109v0.018l0,0c0,2.595,0,5.053,0,7.65c4.24,0.955,8.1,1.895,12.36,3.004
				c0,0,0.04,0.018,0.02,0.018c4.482,0.976,7.321,0.104,8.64-2.458c0.243-0.445,0.281-1.026,0.281-1.026s0-0.015,0-0.068
				c0-1.536,0.04-4.593,0.04-7.786c0-0.119,0-0.256,0-0.377c0-2.971-0.02-5.806-0.078-7.548c-0.02-0.153-0.02-0.307-0.02-0.443
				c-0.02-0.257-0.02-0.479-0.04-0.649c-0.101-1.435-0.841-2.732-2.262-4.116c-0.52-0.495-1.018-0.956-1.839-1.52
				c-0.52-0.393-1.119-0.769-1.639-1.162c-0.061-0.034-0.182-0.119-0.243-0.17c-0.518-0.359-0.997-0.682-1.42-1.007
				C188.601,99.31,187.56,98.302,187.56,96.97z"/>
			<path fill="#006BB5" d="M103.021,83.702c0,10.963,0,21.431,0,32.411c-3.239-0.033-6.382,0-9.621,0.104
				c0-10.947,0-21.433,0-32.379c-2.218,0.05-4.3,0.119-6.639,0.239c0-1.862,0-3.638,0-5.464c7.68-0.393,15-0.445,22.7-0.273
				C109.461,78.34,109.999,84.043,103.021,83.702 M111.28,78.305c0-0.513,0-0.992-0.099-1.487c-0.5,0-1.101-0.034-1.72-0.034
				c-7.64-0.153-14.939-0.085-22.501,0.24c-0.68,0.034-1.341,0.068-2.019,0.102c0,2.903,0,5.686,0,8.606
				c2.238-0.119,4.32-0.222,6.639-0.291c0,10.947,0,21.45,0,32.396c4.479-0.154,8.779-0.187,13.259-0.154c0-10.998,0-21.5,0-32.463
				c1.622-0.17,3.021-0.667,4.141-1.555c0.9-0.75,1.44-1.622,1.781-2.458c0.46-1.127,0.518-2.152,0.518-2.648
				C111.28,78.492,111.28,78.39,111.28,78.305z"/>
			<path fill="#006BB5" d="M5.562,92.12c8.6-2.476,16.838-4.577,25.459-6.438c5.702-0.563,6.081,1.143,6.081,12.108
				c0,0.289-0.02,0.545-0.02,0.802c0,0.222,0,0.393,0,0.597c-0.02,4.679-2.701,7.258-6.862,8.18
				c-3.039,0.682-5.957,1.331-8.999,2.066c0,5.517,0,10.81,0,16.343c-3.239,0.75-6.42,1.572-9.641,2.443
				c-0.119-10.93-0.02-21.449-0.02-32.414C4.561,97.841,5.562,92.12,5.562,92.12 M4.261,91.438c-0.419,0.512-0.558,1.143-0.579,1.81
				c0.02,1.161,0.46,2.356,0.758,2.835c0.621,0.973,2.062,2.219,5.321,1.708c0,2.766,0,32.481,0,32.481
				c4.421-1.263,8.82-2.324,13.259-3.365h0.02c0-3.075,0-6.061,0-9.067c0-0.018,0-0.036,0-0.051c0-0.786,0-1.589,0-2.392
				c0-0.495,0-0.99,0-1.485c0-1.109,0-2.221,0-3.347c2.441-0.581,4.76-1.111,7.18-1.623c5.482-1.229,8.64-4.781,8.681-10.109
				c0-0.205,0-0.375,0-0.598c0-0.256,0.02-0.495,0.02-0.751c0-5.738,0.061-9.546-1.319-11.613c-0.061-0.085-0.142-0.187-0.202-0.273
				c-0.02-0.016-0.041-0.034-0.061-0.05c-0.058-0.068-0.119-0.138-0.177-0.206c0-0.016-0.02-0.034-0.02-0.034
				c-0.081-0.068-0.162-0.153-0.223-0.204c0-0.016,0-0.016-0.02-0.016c-1.079-0.94-2.779-1.265-5.379-1.008
				c-0.058,0-0.24,0.034-0.381,0.052c-0.018,0-0.038,0.017-0.058,0.017c-0.04,0-0.061,0-0.061,0
				c-0.22,0.052-0.439,0.102-0.639,0.136c-0.061,0.018-0.121,0.034-0.182,0.034c-0.819,0.188-1.657,0.376-2.479,0.547
				c-0.159,0.034-0.321,0.068-0.48,0.119c-1.22,0.274-2.44,0.547-3.661,0.837c-0.48,0.119-0.96,0.223-1.44,0.341
				c-0.139,0.034-0.278,0.068-0.44,0.102c-1.139,0.274-2.279,0.563-3.421,0.854c-1.157,0.291-2.319,0.581-3.479,0.888
				c-0.179,0.052-0.361,0.086-0.52,0.137c-3.14,0.837-6.298,1.708-9.499,2.648C4.561,91.011,4.44,91.215,4.261,91.438z"/>
			<path fill="#006BB5" d="M22.901,103.033c0-2.921,0-5.721,0-8.658c0.179-0.068,0.381-0.086,0.579-0.137
				c0.402-0.068,0.824-0.138,1.243-0.24c0.5-0.085,0.599,0.018,0.819,0.495c0,0.256,0.04,6.918,0.04,7.924
				C24.662,102.622,23.803,102.828,22.901,103.033 M27.299,103.528c0-0.17,0.061-0.411,0.061-0.615
				c0.081-1.997,0.061-6.592,0.061-6.592c0-0.427-0.02-0.836-0.02-1.298c0-0.478-0.02-0.905-0.101-1.314
				c-0.318-0.872-0.94-1.469-2.359-1.315c-0.5,0.069-1.039,0.187-1.759,0.358c-0.7,0.12-1.379,0.29-2.099,0.479
				c0,3.979,0,7.804,0,11.817c1.721-0.427,3.32-0.802,5.02-1.179C26.501,103.75,26.88,103.648,27.299,103.528z"/>
			<path fill="#FFFFFF" d="M43.44,121.118c3.14-0.548,6.121-1.008,9.259-1.486c0-12.791,0-25.019,0-37.81
				c-3.138,0.461-6.159,0.922-9.297,1.503C43.402,96.117,43.44,108.327,43.44,121.118"/>
			<path fill="#FFFFFF" d="M65.761,80.15c-0.142,0.034-0.301,0-0.419,0.068c-2.84,0.273-4.641,1.536-5.182,3.807
				c-0.099,0.376-0.058,0.633-0.058,0.633c0,0.102-0.642,7.241,0.119,9.153c1.24,2.851,3.742,3.773,7.082,4.302
				c0.217,0.052,0.578,0.07,0.879,0.154c0.298,0.086,0.659,0.205,0.859,0.547c0,4.798,0.061,9.358,0.061,14.14
				c-2.741,0.273-5.401,0.563-8.241,0.937c0,1.521,0.02,3.024,0.02,4.56c3.562-0.46,6.862-0.887,10.5-1.177
				c3.161-0.445,5.679-1.248,6.801-3.843c0.24-0.563,0.359-1.963,0.359-2.255c0.02-0.017,0.121-12.688-0.061-15.523
				c-0.119-1.042-0.677-1.673-1.599-2.271c-0.498-0.256-0.96-0.529-1.559-0.735c-0.621-0.239-1.22-0.427-1.839-0.632
				c-2.521-0.802-5.043-1.674-5.161-4.406c0-0.82,0-1.604,0-2.458c2.741-0.29,5.419-0.513,8.14-0.735
				c1.842-0.171,2.721-1.025,3.418-2.031c0.621-0.956,0.783-1.93,0.783-1.93c0.099-0.615,0.099-1.195,0-1.572
				C77.901,79.039,67.702,79.91,65.761,80.15"/>
			<path fill="#006BB5" d="M138.901,110.58c0,0.308-0.02,0.632-0.02,0.94c-0.061,5.21-6.02,6.351-13.64,5.857
				c-7.42-0.564-11.841-1.741-11.882-7.394c0-7.718,0-15.097,0-22.832c0.041-5.293,2.84-7.241,7.001-7.94
				c1.821-0.29,3.86-0.273,6.4-0.102c7.001,0.563,12.081,1.058,12.142,8.641C138.901,95.485,138.901,102.862,138.901,110.58
				 M126.901,77.263h-0.02c-2.981-0.204-5.02-0.171-6.821,0.12c-0.717,0.119-1.379,0.273-2.019,0.46
				c-4.361,1.316-6.501,4.372-6.541,9.291v22.849c0.061,8.215,8.201,8.846,13.582,9.256c6.7,0.427,11.099-0.445,13.519-2.698
				c1.4-1.281,2.12-2.971,2.14-4.987c0-0.033,0.02-0.973,0.02-0.973V87.749c-0.02-2.221-0.419-3.945-1.122-5.294
				C137.38,78.1,132.08,77.672,126.901,77.263z"/>
			<path fill="#006BB5" d="M127.502,107.251c0,0-0.04,0.99-0.04,1.213c-0.02,0-0.101,0-0.101,0s-0.26-0.018-0.358-0.018
				c-1.761-0.153-2.041-0.461-2.041-1.69c0-0.239,0-0.529,0.02-0.836v-0.086V89.644v-0.632c-0.02-0.222-0.02-0.427-0.02-0.65
				c0-0.307,0.02-0.614,0.04-0.904l0.02-0.12v-0.102c0-0.307,0.02-0.597,0.06-0.888c0.078,0.016,0.159,0.016,0.217,0.016l0.04,0.018
				h0.041c0.76,0.068,1.7,0.205,1.819,0.443c0.303,0.599,0.303,2.357,0.303,4.406 M125.561,84.52
				c-0.601-0.068-1.162-0.034-1.74-0.016c-0.119,0.102-0.199,0.171-0.321,0.239c-0.22,0.768-0.338,1.588-0.338,2.493
				c-0.101,0.836-0.041,1.708-0.041,2.408c0,5.482,0,10.707,0,16.189c-0.081,2.151-0.041,4.149,3.739,4.456
				c0.601,0.035,1.22,0.086,1.92,0.035c0.141-0.085,0.22-0.136,0.318-0.239c0.121-0.495,0.121-0.922,0.222-1.417
				c0-0.477,0.04-0.939,0.04-1.417c0-5.413,0-10.589,0-16.019C129.361,85.904,129.341,84.863,125.561,84.52z"/>
			<path fill="#FFFFFF" d="M129.361,107.251c0,0.478-0.04,0.94-0.04,1.417c-0.101,0.495-0.101,0.922-0.222,1.417
				c-0.099,0.103-0.177,0.154-0.318,0.239c-0.7,0.052-1.319,0-1.92-0.035c-3.78-0.307-3.82-2.305-3.739-4.456
				c0-5.482,0-10.707,0-16.189c0-0.7-0.061-1.572,0.041-2.408c0-0.906,0.119-1.725,0.338-2.493c0.122-0.068,0.202-0.137,0.321-0.239
				c0.578-0.018,1.14-0.052,1.74,0.016c3.78,0.342,3.8,1.383,3.8,6.711C129.361,96.662,129.361,101.838,129.361,107.251
				 M126.759,79.108c-2.539-0.171-4.579-0.188-6.4,0.102c-4.161,0.7-6.96,2.648-7.001,7.94c0,7.736,0,15.114,0,22.832
				c0.041,5.653,4.462,6.83,11.882,7.394c7.62,0.495,13.58-0.647,13.64-5.857c0-0.308,0.02-0.632,0.02-0.94
				c0-7.718,0-15.095,0-22.831C138.84,80.166,133.76,79.671,126.759,79.108z"/>
			<path fill="#FFFFFF" d="M161.74,101.768c-0.298-0.785-0.439-1.536-0.74-2.339c-0.998-3.278-1.998-6.437-3.12-9.733
				c-3.36-9.085-12.639-8.676-12.639-8.676c0,12.792-0.02,25.036-0.02,37.842c3.16,0.412,5.98,0.839,9.1,1.299
				c0-5.601,0-10.98,0-16.564c2.441,5.993,4.878,11.749,7.298,17.812c3.241,0.579,6.22,1.16,9.363,1.826c0-12.825,0-25.035,0-37.827
				c-3.163-0.648-6.122-1.229-9.242-1.792C161.74,89.78,161.74,95.655,161.74,101.768"/>
			<path fill="#FFFFFF" d="M185.741,96.526c0-1.076,0-1.622,0-2.476c2.738,0.7,5.419,1.4,8.14,2.151
				c1.739,0.479,2.658-0.051,3.38-0.751c0.5-0.7,0.819-1.486,0.819-1.725c0-0.547-0.061-1.076-0.061-1.588
				c-3.239-0.94-15.159-4.065-15.259-4.065c-2.86-0.699-4.639-0.102-5.159,1.999c-0.081,0.377-0.081,0.598-0.081,0.598
				c0,0.086-0.642,7.019,0.121,9.187c1.218,3.279,3.74,5.089,7.08,6.814c0.199,0.12,0.58,0.274,0.879,0.445
				c0.321,0.222,0.662,0.478,0.859,0.836c0,4.8,0.06,9.393,0.06,14.191c-2.717-0.718-5.477-1.349-8.2-1.98c0,1.554,0,3.024,0,4.56
				c3.542,0.836,6.943,1.622,10.503,2.594c3.82,1.044,5.96,0.394,6.981-1.877c0.197-0.291,0.179-0.546,0.179-0.546
				c0-1.112,0.078-13.936-0.081-16.771c-0.098-1.042-0.679-1.896-1.579-2.802c-0.52-0.443-1.061-0.87-1.582-1.297
				c-0.599-0.427-1.218-0.87-1.839-1.263C188.479,101.068,185.741,99.258,185.741,96.526"/>
			<path fill="#FFFFFF" d="M86.761,78.613c0,1.826,0,3.603,0,5.464c2.339-0.12,4.421-0.188,6.639-0.239c0,10.946,0,21.431,0,32.379
				c3.239-0.104,6.382-0.136,9.621-0.104c0-10.98,0-21.448,0-32.411c6.978,0.341,6.44-5.362,6.44-5.362
				C101.76,78.168,94.441,78.219,86.761,78.613"/>
			<path fill="#FFFFFF" d="M21.082,93.23c0.72-0.188,1.4-0.359,2.099-0.479c0.72-0.17,1.258-0.289,1.759-0.358
				c1.42-0.154,2.041,0.444,2.359,1.315c0.081,0.409,0.101,0.836,0.101,1.314c0,0.462,0.02,0.872,0.02,1.298
				c0,0-0.02,4.236-0.061,6.592c0,0.204-0.061,0.445-0.061,0.615c-0.419,0.12-0.798,0.222-1.197,0.341
				c-1.7,0.377-3.299,0.752-5.02,1.179C21.082,101.034,21.082,97.209,21.082,93.23 M11.56,95.808c0,10.965-0.098,21.484,0.02,32.414
				c3.221-0.872,6.402-1.693,9.641-2.443c0-5.533,0-10.826,0-16.343c3.042-0.734,5.96-1.384,8.999-2.066
				c4.161-0.922,6.842-3.502,6.862-8.18c0-0.205,0-0.375,0-0.597c0-0.257,0.02-0.513,0.02-0.802c0-10.965-0.379-12.671-6.081-12.108
				c-8.62,1.861-16.859,3.962-25.459,6.438C5.562,92.12,4.561,97.841,11.56,95.808z"/>
		</g>
	</g>
</g>
</svg>
