<svg version="1.1" id="Layer_1" xmlns="http://www.w3.org/2000/svg" xmlns:xlink="http://www.w3.org/1999/xlink" x="0px" y="0px" viewBox="0 0 200 200" enable-background="new 0 0 200 200" xml:space="preserve" preserveAspectRatio="xMidYMid">
<g>
	<path fill="#FFC627" d="M38.489,177.958l13.977-7.125c0.736-0.374,1.24-0.558,1.469-0.591l0.121-0.011
		c0.212,0,0.523,0.083,0.906,0.281l0.099,0.033l0.393-0.417l0.097-0.124l-5.314-4.748l-0.418,0.454l-0.079,0.108l0.079,0.108
		c0.244,0.314,0.35,0.582,0.35,0.763l-0.12,0.352c-0.15,0.157-0.462,0.373-0.952,0.617l-9.44,4.911l3.844-10.146
		c0.154-0.428,0.286-0.688,0.365-0.774l0.471-0.214c0.194,0,0.43,0.062,0.707,0.208l0.089,0.054l0.39-0.438l0.121-0.119
		l-5.623-5.008l-0.406,0.455l-0.091,0.114l0.073,0.092c0.225,0.293,0.319,0.533,0.319,0.715l-0.153,0.379
		c-0.05,0.075-0.318,0.254-0.746,0.454l-9.849,4.86l3.926-10.073c0.161-0.401,0.317-0.672,0.442-0.807l0.425-0.195l0.636,0.195
		l0.115,0.054l0.382-0.444l0.096-0.108l-5.375-4.805l-0.418,0.469l-0.075,0.092l0.072,0.103c0.259,0.33,0.371,0.656,0.371,0.947
		c0,0.309-0.13,0.845-0.389,1.564l-5.52,14.7c-0.26,0.699-0.48,1.132-0.528,1.181l-0.547,0.27l-0.635-0.219l-0.115-0.051
		l-0.384,0.436l-0.1,0.111l4.971,4.456l0.427-0.455l0.083-0.087l-0.071-0.098c-0.244-0.368-0.342-0.628-0.342-0.853l0.149-0.382
		c0.06-0.06,0.403-0.268,0.992-0.52l10.654-5.344l-4.077,10.915c-0.228,0.704-0.414,1.14-0.51,1.224l-0.508,0.26
		c-0.199,0-0.429-0.076-0.696-0.249l-0.115-0.07l-0.39,0.449l-0.096,0.125l5.049,4.51l0.405-0.466l0.1-0.108l-0.083-0.087
		c-0.256-0.314-0.354-0.563-0.354-0.758l0.165-0.4C37.416,178.554,37.823,178.289,38.489,177.958z M57.92,170.129l-0.049,0.095
		l0.077,0.091c0.266,0.257,0.386,0.501,0.386,0.734l-0.08,0.319c-0.127,0.217-0.374,0.514-0.779,0.826l-13.254,10.479
		c-0.486,0.39-0.835,0.628-1.072,0.693l-0.362,0.051l-0.516-0.076l-0.13-0.03l-0.271,0.52l-0.073,0.141L47.97,187l0.285-0.563
		l0.053-0.113l-0.1-0.076c-0.356-0.29-0.505-0.561-0.505-0.78l0.059-0.252c0.09-0.16,0.278-0.385,0.612-0.65l2.419-1.914l7.836,3.93
		v3.016c0,0.433-0.046,0.742-0.101,0.877c-0.144,0.255-0.321,0.365-0.638,0.379l-0.466-0.07l-0.101-0.043l-0.271,0.541L57,191.408
		l6.822,3.362l0.27-0.557l0.05-0.13l-0.091-0.076c-0.317-0.23-0.513-0.487-0.611-0.763c-0.1-0.296-0.17-0.801-0.17-1.516
		l-0.07-17.061c0-0.392,0.057-0.706,0.16-0.912c0.115-0.219,0.302-0.328,0.67-0.344l0.315,0.027l0.387-0.498l0.062-0.135
		l-6.614-3.229L57.92,170.129z M58.724,183.275l-5.391-2.659l5.598-4.542L58.724,183.275z M88.051,180.546
		c-0.559-0.593-1.271-1.045-2.125-1.424c-0.856-0.352-2.01-0.671-3.492-0.993l-12.288-2.564l-0.15,0.604
		c0.405,0.333,0.593,0.49,0.655,0.631l0.07,0.319l-0.018,0.279l-3.43,16.451l-0.28,0.52c-0.134,0.081-0.358,0.168-0.703,0.173
		l-0.245,0.58l-0.027,0.141l6.347,1.348l0.135-0.618c-0.378-0.319-0.558-0.471-0.647-0.601l-0.078-0.352l0.029-0.238l1.326-6.308
		l5.025,1.053l2.615,6.445c0.277,0.663,0.421,1.099,0.41,1.256v0.052c-0.031,0.111-0.161,0.206-0.567,0.214h-0.117l-0.256,0.579
		l-0.024,0.157l7.316,1.51l0.129-0.592l0.033-0.144l-0.148-0.035c-0.408-0.117-0.716-0.306-0.938-0.625
		c-0.246-0.319-0.608-1.029-1.071-2.084l-2.551-5.935h0.381c3.293,0.016,5.348-1.54,5.97-4.589c0.095-0.49,0.15-0.988,0.15-1.459
		c0-0.447-0.042-0.891-0.126-1.326C89.15,182.033,88.72,181.217,88.051,180.546z M84.831,184.78
		c-0.228,0.977-0.688,1.543-1.435,1.765c-0.277,0.081-0.574,0.141-0.877,0.141l-0.233-0.006c-0.398-0.038-1.088-0.146-2.047-0.357
		l-6.39-1.327l1.003-4.786l6.384,1.343c1.002,0.184,1.674,0.36,2.03,0.482c0.34,0.135,0.655,0.328,0.958,0.59
		c0.445,0.358,0.662,0.84,0.662,1.484L84.831,184.78z M111.163,196.375l-3.925-5.13c3.343-0.704,5.071-2.626,5.063-5.658
		l-0.008-0.325c-0.041-0.975-0.255-1.884-0.642-2.723c-0.436-0.866-1.053-1.564-1.86-2.041c-0.709-0.428-1.505-0.715-2.422-0.856
		c-0.65-0.095-1.444-0.14-2.374-0.14c-0.391,0-0.813,0.005-1.246,0.027l-12.391,0.504l-0.133,0.606
		c0.441,0.222,0.669,0.336,0.784,0.469c0.1,0.095,0.173,0.287,0.181,0.566l0.671,16.774v0.064l-0.159,0.515
		c-0.082,0.111-0.305,0.238-0.633,0.357L91.968,200l6.37-0.098l0.112-0.638c-0.452-0.195-0.65-0.309-0.762-0.428
		c-0.119-0.114-0.198-0.298-0.21-0.569l-0.243-6.41l5.13-0.2l4.117,5.599c0.466,0.625,0.699,1.05,0.699,1.142v0.016
		c0,0.147-0.13,0.293-0.604,0.401l-0.095,0.607l7.315-0.125l0.138-0.623c-0.588-0.163-0.932-0.292-1.232-0.541
		C112.414,197.891,111.878,197.312,111.163,196.375z M91.5,180.178l0.001-0.005l0.429-0.011L91.5,180.178z M92.132,199.843h-0.002
		l0.002-0.003V199.843z M106.637,199.264l0.008-0.014v0.014H106.637z M106.74,187.466c-0.32,0.184-0.683,0.311-1.059,0.379
		c-0.384,0.073-1.077,0.124-2.062,0.173l-6.521,0.26l-0.208-5.052l0.241-0.011l6.301-0.081c0.495-0.027,0.912-0.046,1.281-0.046
		c0.341,0,0.606,0.019,0.787,0.046c0.363,0.027,0.729,0.14,1.077,0.303c0.669,0.331,1.051,0.969,1.096,1.971l0.003,0.149
		C107.673,186.483,107.354,187.087,106.74,187.466z M122.826,195.785c-0.138-0.089-0.241-0.268-0.301-0.533l-3.625-16.409
		l-0.032-0.276l0.072-0.312c0.082-0.135,0.268-0.308,0.558-0.454l-0.005-0.628l-0.038-0.154l-6.345,1.394l0.121,0.62
		c0.501,0.139,0.728,0.212,0.858,0.306l0.287,0.503l3.625,16.416l0.022,0.282l-0.063,0.319c-0.081,0.135-0.26,0.306-0.574,0.46
		l0.019,0.631l0.046,0.143l6.351-1.402l-0.146-0.601C123.186,195.971,122.956,195.896,122.826,195.785z M139.502,172.073
		c-1.053-0.379-2.188-0.569-3.344-0.569c-1.711,0-3.522,0.412-5.431,1.224c-4.255,1.876-6.7,4.689-7.249,8.403
		c-0.087,0.525-0.13,1.056-0.13,1.562c0,1.419,0.297,2.785,0.866,4.139c0.533,1.27,1.294,2.366,2.239,3.33
		c1.085,1.072,2.328,1.866,3.744,2.356c1.067,0.384,2.188,0.585,3.362,0.585c1.689,0,3.481-0.406,5.382-1.218
		c4.237-1.798,6.676-4.621,7.266-8.419c0.087-0.577,0.138-1.131,0.138-1.667c0-1.36-0.29-2.664-0.812-3.923
		C144.299,174.997,142.28,173.053,139.502,172.073z M141.724,182.377c0,1.002-0.184,1.928-0.606,2.785
		c-0.683,1.495-1.884,2.596-3.617,3.333c-1.013,0.422-1.982,0.65-2.924,0.65c-0.683,0-1.343-0.103-2.009-0.331
		c-1.841-0.628-3.181-1.895-4.007-3.817c-0.417-0.98-0.606-1.924-0.606-2.837c0-0.924,0.189-1.836,0.612-2.716
		c0.709-1.497,1.906-2.596,3.617-3.327c1.01-0.428,2.003-0.639,2.972-0.639c0.656,0,1.319,0.106,1.976,0.314
		c1.824,0.596,3.156,1.887,4.031,3.909c0.376,0.834,0.547,1.692,0.56,2.599V182.377z M170.115,170.638l-0.138,0.07
		c-0.311,0.228-0.639,0.317-0.999,0.322h-0.103c-0.373-0.03-1.145-0.214-2.254-0.544l-6.162-1.928
		c1.299-1.424,1.96-2.864,1.96-4.293c0-1.194-0.45-2.371-1.327-3.495c-0.585-0.78-1.302-1.394-2.106-1.849
		c-0.742-0.406-1.521-0.606-2.336-0.596l-0.36,0.011c-0.804,0.049-1.627,0.287-2.448,0.704c-0.831,0.406-1.83,1.08-3.04,2.02
		l-9.938,7.669l0.382,0.485l0.057,0.081l0.111-0.046l0.604-0.144l0.116,0.011l0.507,0.373l10.233,13.292l0.227,0.531v0.03
		c-0.016,0.138-0.112,0.366-0.325,0.649l-0.059,0.095l0.357,0.466l0.098,0.125l5.138-3.974l-0.379-0.493l-0.07-0.103l-0.114,0.055
		l-0.596,0.146l-0.102-0.006l-0.499-0.355l-3.914-5.087l4.059-3.137l6.619,2.207c0.747,0.217,1.202,0.46,1.237,0.519l0.052,0.138
		l-0.319,0.517l-0.088,0.081l0.371,0.498l0.084,0.125l5.929-4.586l-0.385-0.479L170.115,170.638z M157.837,165.77
		c-0.154,0.336-0.363,0.644-0.644,0.92c-0.27,0.298-0.801,0.755-1.57,1.343l-5.182,3.979l-2.985-3.874l5.178-3.974
		c0.774-0.614,1.359-1.01,1.693-1.216c0.319-0.189,0.676-0.303,1.037-0.355l0.308-0.03c0.65,0,1.218,0.312,1.749,0.986
		c0.384,0.515,0.574,1.004,0.574,1.47L157.837,165.77z M182.015,153.437c-0.276-1.408-0.966-2.578-2.087-3.476
		c-0.704-0.568-1.489-0.963-2.35-1.148c-0.412-0.103-0.799-0.135-1.202-0.135c-0.449,0-0.882,0.059-1.318,0.167
		c-0.766,0.233-1.519,0.596-2.271,1.097c-0.731,0.501-1.592,1.232-2.558,2.196l-1.624,1.629c-1.061,1.094-1.806,1.77-2.196,2.036
		c-0.385,0.26-0.747,0.384-1.059,0.384c-0.268,0-0.534-0.087-0.791-0.3c-0.3-0.26-0.508-0.604-0.579-1.086l-0.035-0.417
		c0-0.357,0.076-0.747,0.206-1.142c0.304-0.744,0.772-1.524,1.413-2.309c1.443-1.779,3.156-2.951,5.149-3.539
		c0.287-0.086,0.547-0.135,0.763-0.135l0.45,0.119l0.159,0.168l0.599-0.168l0.135-0.059l-2.252-5.049l-0.136,0.062l-0.441,0.179
		c-0.09,0.493-0.143,0.698-0.241,0.809c-0.022,0.049-0.346,0.26-0.85,0.544c-1.592,0.85-2.81,1.613-3.723,2.309
		c-0.895,0.685-1.751,1.535-2.547,2.537c-1.77,2.168-2.663,4.245-2.663,6.232l0.033,0.525c0.121,1.625,0.861,2.999,2.206,4.071
		c0.804,0.65,1.676,1.053,2.602,1.207c0.276,0.035,0.544,0.06,0.834,0.06c0.729,0,1.417-0.141,2.087-0.46
		c0.642-0.282,1.224-0.634,1.736-1.039c0.498-0.406,1.277-1.124,2.339-2.204l1.608-1.592c1.05-1.053,1.833-1.714,2.266-1.966
		c0.289-0.173,0.566-0.243,0.82-0.243l0.761,0.301c0.295,0.249,0.528,0.587,0.641,1.045l0.079,0.69c0,0.255-0.027,0.509-0.09,0.786
		c-0.227,0.95-0.741,1.932-1.531,2.918c-0.737,0.907-1.688,1.735-2.813,2.479c-1.134,0.774-2.101,1.216-2.893,1.343l-0.374,0.037
		c-0.347,0-0.609-0.092-0.834-0.284l-0.151-0.122l-0.59,0.195l-0.147,0.059l2.561,5.011l0.579-0.247
		c0.095-0.462,0.136-0.698,0.174-0.722c0.01-0.006,0.333-0.208,0.858-0.471c2.602-1.204,4.751-2.834,6.411-4.889
		c0.939-1.145,1.67-2.347,2.196-3.56c0.525-1.235,0.796-2.334,0.796-3.379C182.126,154.132,182.099,153.778,182.015,153.437z"/>
	<path fill="#FFC627" d="M178.33,95.059c0,43.899-35.583,79.488-79.497,79.488c-43.912,0-79.501-35.588-79.501-79.488
		c0-43.905,35.59-79.52,79.501-79.52C142.748,15.539,178.33,51.155,178.33,95.059"/>
	<path fill="#003DA6" d="M152.61,142.067c12.001-13.027,19.332-30.418,19.332-49.53c0-40.407-32.746-73.134-73.144-73.134
		c-40.4,0-73.149,32.727-73.149,73.134c0,40.402,32.749,73.139,73.149,73.139c20.538,0,39.088-8.473,52.374-22.103
		C151.614,143.328,152.147,142.695,152.61,142.067z M79.528,138.959c29.223-1.337,58.195-0.899,70.233-0.614
		c-0.509,0.566-1.036,1.112-1.562,1.664C139.255,139.306,118.37,138.228,79.528,138.959z M36.647,100.1
		c1.065-1.6,2.19-3.33,3.365-5.195l-4.303,24.41c-0.784-1.843-1.477-3.733-2.101-5.658L36.647,100.1z M32.584,110.198
		c-0.272-1.029-0.519-2.06-0.743-3.102c0.713-1.002,1.52-2.147,2.421-3.46L32.584,110.198z M41.941,91.795
		c1.523-2.491,3.085-5.138,4.647-7.926l-7.422,42.407c-0.887-1.562-1.715-3.159-2.48-4.799L41.941,91.795z M48.767,79.877
		c1.937-3.633,3.812-7.439,5.551-11.326L43.017,132.31c-0.983-1.375-1.931-2.78-2.813-4.229L48.767,79.877z M59.416,60.045
		c0.375,0.411,0.745,0.812,1.12,1.223c0.276,11.695,1.125,45.827,2.099,70.21c-0.531,0.057-1.04,0.116-1.555,0.176
		C60.025,105.926,59.568,73.408,59.416,60.045z M114.09,108.758l0.03,0.103l0.008,0.002l-0.033-0.1
		c0.078,0.054,0.163,0.111,0.242,0.165l-0.208-0.065l5.85,18.523c-1.483,0.041-2.953,0.089-4.415,0.143l-7.136-22.713
		C110.367,106.213,112.249,107.518,114.09,108.758z M139.475,127.134l-1.462-4.591c5.282,2.479,9.272,3.947,11.695,4.737
		C146.275,127.196,142.862,127.15,139.475,127.134z M136.224,121.687l1.727,5.447c-1.5-0.003-3,0-4.492,0.011l-2.552-8.176
		C132.785,119.976,134.561,120.881,136.224,121.687z M129.06,117.967l2.88,9.194c-1.449,0.011-2.891,0.027-4.323,0.054
		l-3.793-12.264C125.641,116.037,127.393,117.047,129.06,117.967z M121.949,113.826l4.155,13.417
		c-1.554,0.027-3.097,0.059-4.629,0.103l-5.496-17.315C118.042,111.389,120.035,112.656,121.949,113.826z M106.288,103.249
		l7.775,24.335c-1.435,0.054-2.85,0.113-4.261,0.179l-9.069-28.718C102.625,100.52,104.474,101.911,106.288,103.249z M98.602,97.355
		l9.692,30.472c-1.562,0.073-3.105,0.152-4.635,0.233l-11.48-35.978C94.365,93.936,96.504,95.682,98.602,97.355z M90.165,90.352
		l12.002,37.795c-1.389,0.079-2.767,0.157-4.125,0.241L84.417,85.259C86.361,87.027,88.278,88.725,90.165,90.352z M82.203,83.24
		l14.344,45.245c-1.474,0.095-2.93,0.192-4.366,0.295L75.997,77.327C78.091,79.368,80.165,81.353,82.203,83.24z M73.462,74.853
		l17.23,54.032c-1.427,0.1-2.83,0.208-4.216,0.32L67.564,68.816C69.55,70.89,71.52,72.921,73.462,74.853z M65.188,66.315L85,129.316
		c-1.578,0.13-3.124,0.26-4.643,0.395L65.384,81.559c-0.225-6.045-0.406-11.405-0.54-15.61
		C64.959,66.071,65.074,66.19,65.188,66.315z M53.826,102.775l-0.21-0.035l-5.414,30.523c-1.512,0.206-2.839,0.393-3.982,0.558
		l9.976-56.239C54.069,85.132,53.934,93.925,53.826,102.775z M65.617,87.582l13.259,42.259c-1.323,0.119-2.619,0.238-3.891,0.357
		l-8.734-27.754C66.016,97.328,65.803,92.317,65.617,87.582z M66.533,108.428l6.97,21.912c-1.968,0.192-3.859,0.384-5.689,0.576
		C67.336,123.772,66.909,116.083,66.533,108.428z M49.719,133.06l4.02-22.7c-0.083,7.976-0.135,15.669-0.131,22.194
		C52.211,132.732,50.927,132.9,49.719,133.06z M53.665,141.786c0.011,0.82,0.026,1.597,0.04,2.322
		c-0.831-0.726-1.644-1.473-2.438-2.239C51.991,141.845,52.771,141.817,53.665,141.786z M61.534,141.547
		c0.497-0.016,1.02-0.027,1.536-0.043c0.186,3.861,0.374,7.201,0.56,9.849c-0.531-0.319-1.049-0.655-1.57-0.985
		C61.874,147.654,61.698,144.692,61.534,141.547z M98.801,23.977c37.855,0,68.533,30.688,68.533,68.543
		c0,11.272-2.736,21.901-7.558,31.284c-47.667-10.672-81.642-43.621-94.952-58.497c-0.175-5.545-0.267-8.95-0.267-8.95l-2.125-0.958
		l-1.994,1.722c0,0,0.026,1.164,0.073,3.175c-0.457-0.56-0.812-1.004-1.107-1.373c-0.035-3.202-0.051-5.062-0.051-5.062H56.41
		l-0.05,1.76l-1.772,0.428c0,0-0.074,3.72-0.184,9.643C45.555,85.922,35.82,97.48,30.99,102.401
		c-0.466-3.227-0.718-6.524-0.718-9.881C30.272,54.666,60.952,23.977,98.801,23.977z M69.933,154.687
		c-0.48-3.676-0.931-8.203-1.352-13.314c21.292-0.466,53.936-0.649,76.549,1.648c-12.199,11.199-28.463,18.043-46.329,18.043
		C88.485,161.066,78.708,158.77,69.933,154.687z"/>
	<path fill="#FFC627" d="M32.34,40.618l-0.314-0.065l-2.071-1.511l-0.245-0.319c-0.004-0.098,0.066-0.284,0.205-0.553l-0.33-0.246
		l-3.347,4.578l-0.361,0.325l-0.517-0.124l-0.238,0.325l2.337,1.716l0.247-0.325l-0.356-0.512l0.17-0.46l1.715-2.347l1.576,1.148
		c-0.154,0.493-0.374,1.056-0.668,1.695c-0.288,0.644-0.686,1.305-1.196,2.003c-0.332,0.452-0.726,0.856-1.181,1.208
		c-0.449,0.355-0.938,0.606-1.463,0.758c-0.52,0.141-1.077,0.173-1.672,0.062c-0.585-0.1-1.181-0.371-1.778-0.809
		c-0.607-0.439-1.053-0.931-1.319-1.451c-0.271-0.525-0.417-1.066-0.429-1.613c-0.014-0.542,0.079-1.088,0.279-1.622
		c0.196-0.539,0.459-1.036,0.792-1.489c0.267-0.365,0.577-0.734,0.923-1.11c0.349-0.366,0.702-0.691,1.057-0.967
		c0.359-0.271,0.696-0.466,1.008-0.579c0.311-0.119,0.558-0.119,0.741,0.022l0.192,0.195l0.376-0.292l-1.622-2.837l-0.288,0.119
		l-0.007,0.284l-0.116,0.306l-0.461,0.379c-0.262,0.195-0.575,0.441-0.944,0.755c-0.371,0.306-0.77,0.679-1.198,1.121
		c-0.43,0.436-0.843,0.913-1.234,1.454c-0.627,0.855-1.083,1.716-1.373,2.583c-0.29,0.866-0.399,1.711-0.341,2.517
		c0.064,0.809,0.295,1.576,0.694,2.296c0.406,0.715,0.99,1.359,1.763,1.917c0.77,0.563,1.553,0.931,2.361,1.096
		c0.8,0.173,1.597,0.155,2.385-0.035c0.785-0.2,1.543-0.558,2.274-1.105c0.724-0.547,1.405-1.245,2.026-2.101
		c0.324-0.439,0.636-0.904,0.947-1.375c0.313-0.471,0.583-0.98,0.815-1.511c0.229-0.533,0.416-1.094,0.559-1.668
		c0.146-0.579,0.223-1.175,0.238-1.784l-0.295-0.219L32.34,40.618z M43.156,24.887c-0.702-0.771-1.482-1.286-2.331-1.545
		c-0.847-0.255-1.706-0.33-2.563-0.216c-0.864,0.108-1.699,0.362-2.499,0.752c-0.811,0.398-1.521,0.874-2.133,1.44
		c-0.618,0.555-1.156,1.218-1.628,1.992c-0.467,0.763-0.796,1.565-0.986,2.414c-0.185,0.842-0.193,1.706-0.011,2.577
		c0.176,0.861,0.613,1.684,1.32,2.464c0.702,0.763,1.482,1.288,2.328,1.543c0.849,0.26,1.706,0.33,2.57,0.216
		c0.862-0.108,1.684-0.365,2.475-0.78c0.786-0.417,1.489-0.902,2.107-1.467c0.615-0.553,1.164-1.205,1.65-1.96
		c0.484-0.747,0.82-1.548,1.007-2.393c0.192-0.85,0.196-1.706,0.014-2.574C44.296,26.481,43.857,25.658,43.156,24.887z M42.156,29.8
		c-0.112,0.563-0.319,1.105-0.618,1.624c-0.302,0.525-0.67,0.98-1.095,1.364c-0.422,0.395-0.907,0.715-1.455,0.964
		c-0.547,0.252-1.105,0.406-1.673,0.471c-0.571,0.055-1.128,0-1.681-0.173c-0.548-0.176-1.035-0.498-1.464-0.967
		c-0.425-0.479-0.705-0.994-0.829-1.551c-0.122-0.563-0.126-1.126-0.018-1.692c0.111-0.561,0.32-1.096,0.624-1.622
		c0.299-0.519,0.663-0.975,1.088-1.359c0.422-0.39,0.907-0.709,1.46-0.964c0.544-0.26,1.101-0.411,1.672-0.471
		c0.573-0.054,1.13-0.005,1.683,0.171c0.544,0.176,1.031,0.506,1.46,0.977c0.43,0.466,0.704,0.985,0.827,1.543
		C42.26,28.68,42.267,29.243,42.156,29.8z M58.106,19.243l0.042,0.487l-0.384,0.417l-6.405,3.974l-4.754-7.678
		c-0.143-0.228-0.038-0.455,0.322-0.68l-0.218-0.344l-3.312,2.052l0.217,0.352c0.382-0.246,0.65-0.252,0.787-0.016l5.433,8.752
		c0.141,0.225,0.022,0.466-0.365,0.712l0.215,0.341l9.175-5.69l0.496-0.26l0.384,0.216l0.35-0.216l-1.636-2.634L58.106,19.243z
		 M70.648,7.539c-0.56-0.577-1.173-0.999-1.847-1.259c-0.674-0.26-1.392-0.373-2.146-0.341c-0.758,0.044-1.521,0.225-2.296,0.531
		l-6.998,2.772l0.155,0.387c0.315-0.127,0.533-0.067,0.633,0.184l3.804,9.578c0.098,0.252-0.01,0.436-0.336,0.566l0.15,0.379
		l7.001-2.783c0.769-0.308,1.446-0.698,2.025-1.196c0.579-0.487,1.022-1.059,1.332-1.708c0.312-0.655,0.463-1.389,0.47-2.195
		c0.007-0.801-0.181-1.678-0.551-2.62C71.671,8.89,71.205,8.132,70.648,7.539z M69.846,14.137c-0.207,0.411-0.537,0.774-0.98,1.085
		c-0.449,0.306-1.004,0.596-1.666,0.853l-3.265,1.305l-2.967-7.466l3.268-1.294c0.66-0.265,1.261-0.441,1.795-0.519
		c0.54-0.081,1.023-0.051,1.467,0.108c0.432,0.16,0.827,0.455,1.179,0.861c0.352,0.42,0.671,0.985,0.962,1.719
		c0.291,0.739,0.452,1.367,0.482,1.914C70.146,13.238,70.06,13.717,69.846,14.137z M88.033,9.773l-0.133,0.466l-0.514,0.26
		l-7.438,1.446L79.354,8.88l4.36-0.856c0.295-0.054,0.539-0.049,0.719,0.014c0.187,0.062,0.31,0.268,0.371,0.615l0.404-0.092
		l-0.675-3.465L84.13,5.176c0.065,0.339,0.024,0.568-0.122,0.682c-0.146,0.114-0.367,0.195-0.664,0.249l-4.364,0.855l-0.537-2.756
		l7.211-1.408c0.308-0.06,0.541-0.06,0.68-0.005l0.264,0.33l0.397-0.087l-0.571-2.935l-0.401,0.081L85.91,0.612
		c-0.107,0.125-0.321,0.209-0.632,0.268L75.13,2.864l0.077,0.4l0.295,0.049l0.184,0.276l1.971,10.103l-0.061,0.325l-0.264,0.152
		l0.081,0.406l10.374-2.022l0.552-0.059l0.29,0.33l0.397-0.073l-0.598-3.054L88.033,9.773z M102.453,0.417
		c0.395,0,0.591,0.133,0.591,0.404v7.209l-6.508-6.757c-0.305-0.292-0.453-0.509-0.452-0.628l0.178-0.236V0.006L92.382,0
		l0.004,0.417c0.282-0.008,0.43,0.127,0.43,0.404v10.3c-0.005,0.271-0.148,0.406-0.434,0.406l-0.002,0.401h3.357l0.006-0.401
		c-0.351,0-0.523-0.13-0.523-0.414V3.584l6.919,7.217l0.361,0.519l-0.294,0.206v0.401h3.674l0.002-0.401
		c-0.292,0-0.433-0.13-0.438-0.406l0.008-10.3c0-0.271,0.138-0.404,0.43-0.404V0.006h-3.428V0.417z M121.868,5.268
		c0.225-0.114,0.492-0.19,0.798-0.214c0.303-0.024,0.634-0.019,0.991,0.03c0.363,0.043,0.699,0.111,1.016,0.195
		c0.43,0.125,0.836,0.282,1.236,0.479c0.401,0.195,0.764,0.409,1.094,0.647c0.327,0.224,0.6,0.468,0.823,0.714l0.436,0.672
		l0.032,0.547l0.197,0.16l2.269-2.32l-0.214-0.244l-0.471,0.005l-0.662-0.371c-0.255-0.198-0.569-0.414-0.945-0.66
		c-0.382-0.255-0.837-0.509-1.373-0.788c-0.536-0.276-1.191-0.52-1.96-0.742c-0.906-0.244-1.722-0.352-2.447-0.336
		c-0.731,0.027-1.365,0.146-1.89,0.357c-0.536,0.214-0.963,0.509-1.299,0.888c-0.33,0.379-0.558,0.796-0.682,1.24
		c-0.19,0.672-0.216,1.251-0.076,1.743c0.141,0.482,0.384,0.902,0.731,1.256c0.349,0.363,0.777,0.661,1.278,0.915
		c0.502,0.249,1.026,0.471,1.565,0.671c0.541,0.195,1.078,0.379,1.6,0.552c0.528,0.168,0.991,0.352,1.383,0.539
		c0.395,0.192,0.696,0.398,0.909,0.625c0.206,0.233,0.266,0.52,0.168,0.85c-0.093,0.338-0.303,0.568-0.633,0.693
		c-0.336,0.13-0.707,0.195-1.121,0.208c-0.406,0.011-0.818-0.019-1.224-0.098c-0.395-0.068-0.723-0.141-0.969-0.208
		c-0.341-0.097-0.709-0.238-1.105-0.438c-0.406-0.2-0.775-0.414-1.131-0.661c-0.347-0.233-0.644-0.477-0.893-0.726l-0.457-0.682
		l0.008-0.379l-0.189-0.162l-1.939,2.306l0.257,0.26l0.333-0.092l0.522,0.317c0.186,0.171,0.446,0.374,0.779,0.615
		c0.335,0.249,0.766,0.492,1.302,0.745c0.534,0.252,1.213,0.49,2.047,0.722c0.598,0.168,1.256,0.303,1.973,0.398
		c0.72,0.103,1.416,0.095,2.093-0.016c0.673-0.111,1.278-0.349,1.81-0.723c0.534-0.368,0.907-0.931,1.118-1.687
		c0.181-0.655,0.2-1.227,0.059-1.703c-0.138-0.476-0.384-0.899-0.731-1.256c-0.346-0.355-0.774-0.66-1.275-0.92
		c-0.501-0.254-1.026-0.482-1.567-0.685c-0.539-0.189-1.072-0.376-1.592-0.555c-0.526-0.179-0.981-0.374-1.375-0.574
		c-0.39-0.205-0.688-0.419-0.893-0.677c-0.206-0.249-0.26-0.539-0.165-0.888L121.868,5.268z M137.295,19.973l3.869-8.159
		l3.381,1.608l0.309,0.271l-0.006,0.466l0.364,0.176l1.365-2.867l-0.372-0.173l-0.36,0.308l-0.407-0.065l-9.101-4.318l-0.309-0.268
		l0.011-0.477l-0.369-0.179l-1.361,2.875l0.371,0.176l0.353-0.312l0.417,0.076l3.378,1.605l-3.865,8.154l-0.25,0.219l-0.297-0.024
		l-0.174,0.36l3.157,1.5l0.173-0.366C137.271,20.423,137.179,20.223,137.295,19.973z M151.511,15.712l0.209,0.303l-0.046,0.352
		l-0.344,0.29l-0.542,0.295l-8.416,4.959l-0.588,0.29l-0.552-0.014l-0.222,0.333l2.664,1.806l0.228-0.341l-0.217-0.455
		c0.076-0.103,0.266-0.249,0.571-0.425l1.579-0.874l4.586,3.086l-0.228,1.873c-0.032,0.271-0.094,0.466-0.179,0.596l-0.227,0.089
		l-0.225-0.07l-0.227,0.335l3.305,2.234l0.233-0.33l-0.239-0.439l-0.059-0.471l1.262-10.287l0.065-0.531l0.14-0.349l0.314-0.181
		l0.336,0.076l0.225-0.341l-3.17-2.15L151.511,15.712z M150.68,23.471l-3.343-2.252l4.129-2.307L150.68,23.471z M164.543,28.065
		l2.748,2.537l0.217,0.357l-0.152,0.441l0.303,0.282l2.15-2.342l-0.304-0.276l-0.433,0.192l-0.365-0.192l-7.41-6.822l-0.213-0.352
		l0.152-0.447l-0.301-0.281l-2.155,2.336l0.308,0.279l0.431-0.19l0.365,0.19l2.753,2.531l-6.118,6.643l-0.301,0.138l-0.276-0.122
		l-0.276,0.309l2.566,2.371l0.281-0.308l-0.087-0.639L164.543,28.065z M180.023,41.964l-0.43,0.084l-0.531-0.433l-6.313-8.192
		l-0.316,0.247l0.086,0.278l-0.165,0.287l-8.157,6.289l-0.316,0.079l-0.258-0.157l-0.322,0.249l6.449,8.376l0.303,0.466
		l-0.173,0.411l0.249,0.325l2.464-1.9l-0.249-0.325l-0.477,0.095l-0.461-0.344l-4.626-6.004l2.483-1.9l2.712,3.511l0.317,0.641
		c0.019,0.197-0.105,0.398-0.382,0.617l0.249,0.32l2.807-2.16l-0.257-0.328c-0.271,0.219-0.493,0.284-0.655,0.198l-0.536-0.476
		l-2.712-3.519l2.23-1.717l4.485,5.823l0.312,0.601l-0.181,0.387l0.246,0.322l2.372-1.824L180.023,41.964z"/>
</g>
</svg>
