<svg version="1.1" id="Layer_1" xmlns="http://www.w3.org/2000/svg" xmlns:xlink="http://www.w3.org/1999/xlink" x="0px" y="0px" viewBox="0 0 200 200" enable-background="new 0 0 200 200" xml:space="preserve" preserveAspectRatio="xMidYMid">
<g>
	<path fill="#B3B2B1" d="M184.248,31.642C170.607,15.188,150.966,6.033,128.95,6L40.88,6.007L0.017,191.742l75.185,0.052
		l10.787-44.95c10.095,0,36.652,0.007,36.618,0.007c25.187,0.18,45.849-8.344,59.763-24.665
		C207.632,94.674,203.196,54.509,184.248,31.642"/>
	<path fill="#041E41" d="M82.14,141.95l-10.787,44.946l-65.258,0.022L44.819,10.894l84.116,0.062
		c20.947,0.034,38.889,8.53,51.546,23.811c18.657,22.511,20.482,59.93-1.837,84.248c-13.689,16.048-33.757,23.104-56.001,22.943
		L82.14,141.95z"/>
	<path fill="#FFB819" d="M36.149,49.996l36.869,0.032c4.234,0,8.745,3.557,6.789,8.94c-1.204,3.327-2.132,7.185-2.562,10.8
		c-0.333,2.832,2.824,4.616,4.631,4.616l75.143,0.048c1.414,0,2.158-0.396,2.158-1.075c0-0.666-0.063-3.161-0.333-4.905
		c-0.261-1.666-0.538-1.954-1.885-1.954c-9.366-0.004-13.185-4.178-23-10.511c-9.818-6.33-24.215-9.974-36.588-9.985l-60.328-0.034
		L36.149,49.996z"/>
	<path fill="#FFB819" d="M81.669,98.661c-1.302-2.785-2.502-6.097-3.239-9.141c-0.931-3.903-4.227-7.072-9.875-7.075l-39.547-0.026
		l0.98-4.436l128.171,0.084c1.279,0,1.005,0.537,0.942,1.949c-0.074,1.414-0.404,4.042-0.61,5.585
		c-0.202,1.549-1.477,1.18-2.701,1.208c-2.88,0.064-8.244,0.747-11.367,3.09c-5.315,3.991-16.641,10.997-23.008,13.042
		c-6.826,2.171-32.35,9.985-39.827-4.41"/>
	<path fill="#FFB819" d="M21.92,114.702l66.93,0.051c2.955,0,5.495,0.701,7.466,2.343c5.655,4.663,12.99,8.048,20.77,10.299
		c3.497,1.008,9.5-0.294,14.872-3.332c13.398-7.571,22.016-21.984,24.847-31.26c0.737-2.425-0.673-2.225-2.551-2.096
		c-5.644,0.408-11.58,5.513-19.382,10.488c-7.807,4.967-23.691,9.671-38.758,9.656l-73.337-0.047L21.92,114.702z"/>
	<path fill="#FFB819" d="M120.101,25.074c0.942-0.165,4.331-0.376,6.213,0.363c12.713,5.006,24.742,18.247,29.776,32.311
		c0.969,2.708,1.204,4.439-0.003,4.582c-5.831,0.639-8.547-2.229-15.403-6.879c-6.856-4.647-13.177-7.814-21.855-10.576
		c-8.559-2.723-24.144-3.114-26.164-3.183c-2.012-0.065-1.758-0.907-0.879-1.78C99.256,32.454,109.291,27.043,120.101,25.074"/>
	<path fill="#FFB819" d="M181.098,73.302c0.038,0.536-0.535,1.15-1.212,1.15c-0.063,0-14.658-0.011-14.658-0.011
		c-1.882,0-1.915-0.877-1.979-1.954c-0.075-1.071-0.374-3.228-0.442-4.507c-0.064-1.242-0.516-2.663,1.145-3.355
		c4.08-1.728,7.941-5.719,9.695-9.147c0.591-1.154,1.478-3.059,2.48-1.44C179.599,59.582,180.687,66.427,181.098,73.302"/>
	<path fill="#FFB819" d="M175.85,99.646c-0.25,0.496-1.189,0.866-1.495,0.058c-2.136-5.721-7.219-9.656-10.716-11.608
		c-1.058-0.591-1.152-1.279-1.018-2.321c0.142-1.042,0.584-4.374,0.648-5.788c0.056-1.111,0.505-1.915,1.346-1.915l15.272,0.007
		c0.542,0.008,1.22,0.49,1.22,0.896C181.106,86.26,178.891,93.449,175.85,99.646"/>
	<path fill="#FFB819" d="M136.124,128.315c-1.077,0.153-3.426-0.219,0.277-2.368c11.101-6.45,20.991-21.593,23.632-30.289
		c1.002-3.316,1.114-3.488,2.386-3.125c1.699,0.479,4.373,2.795,6.422,5.623c2.053,2.819,2.94,8.322,1.754,9.904
		C162.621,118.762,149.938,126.284,136.124,128.315"/>
	<path fill="#FFB819" d="M164.364,59.779c-2.585,1.386-3.086,1.13-3.636-0.812c-4.821-16.921-19.05-29.446-24.862-33.151
		c-1.111-0.701-0.827-1.167-0.025-1.06c13.929,1.85,27.57,9.441,34.437,19.841C174.194,50.555,166.855,58.434,164.364,59.779"/>
</g>
</svg>
