<svg version="1.1" id="Layer_1" xmlns="http://www.w3.org/2000/svg" xmlns:xlink="http://www.w3.org/1999/xlink" x="0px" y="0px" viewBox="0 0 200 200" enable-background="new 0 0 200 200" xml:space="preserve" preserveAspectRatio="xMidYMid">
<g>
	<path fill="#FFFFFF" d="M43.551,66.822c0,0,17.025-27.831,51.88-27.831c34.857,0,51.068,27.021,51.068,27.021h47.286l-1.89,11.616
		c0,0-1.353,4.596-3.515,5.133h3.243c0,0,1.08,4.056-5.404,18.107h13.78c0,0,0.54,24.588-29.182,36.207
		c0,0-15.402,4.866-23.238-3.513c0,0-15.67,29.182-52.148,29.182c-36.478,0-52.96-29.994-52.96-29.994H0.05l6.754-12.155H2.21
		l5.404-9.999H16.8l1.623-3.785H14.1l10.537-19.453h5.945l2.431-5.943h-5.134l7.836-14.592H43.551z"/>
	<g>
		<ellipse fill="#FDB927" cx="95.939" cy="101.423" rx="53.997" ry="54.814"/>
	</g>
	<g>
		<path fill="#552583" d="M120.55,107.034c-5.043,6.118-7.9,8.212-13.027,8.212c-1.741,0-2.652-0.389-2.165-1.239l6.08-12.215h2.317
			c2.589,0,2.229,2.178,1.526,5.129c-0.128,0.41,0.189,0.437,0.497,0.078l5.777-10.153c0.281-0.641-0.446-0.769-0.804-0.281
			c-2.897,3.93-5.939,3.637-7.223,3.637h-1.047l6.486-12.386h2.619c3.296,0.205,4.831,3.004,3.877,9.747h1.37l4.772-9.405
			c0.384-0.793-0.431-1.524-1.328-1.524l-32.384,0.013c-1.87,0-1.953,1.436-0.161,1.436c1.458,0,1.381,2.092,0.074,3.099
			L84.06,102.1l2.774,12.885c0.205,0.974,0.828,1.439,1.905,1.439h26.779c1.102,0,1.557-0.45,1.917-0.909l4.851-8.378
			C122.952,105.931,121.398,106.01,120.55,107.034z M101.897,101.151l-2.355-0.022c-0.167,0-0.301,0.136-0.301,0.3
			c0,0.167,0.134,0.3,0.301,0.3l2.388-0.022c0.808,0,1.552,0.101,1.345,0.461l-6.19,11.821c-0.769,1.411-2.4,1.053-2.657-0.074
			l-3.067-15.843l10.783-8.364c1.072-0.923,3.132-2.425,4.19-2.403l2.347-0.01c1.431-0.015,1.938,0.656,1.603,1.52l-0.416,0.798
			c-0.268,0.451-1.116,0.504-1.833,0.504l-1.357,0.007c-0.167,0-0.3,0.136-0.3,0.303c0,0.166,0.133,0.298,0.3,0.298l1.337,0.002
			c0.576,0,1.305,0.012,1.037,0.449l-5.002,9.534C103.82,101.081,102.782,101.151,101.897,101.151z"/>
		<path fill="#552583" d="M79.668,114.982c-0.727-0.027-1.194-0.52-1.355-0.999c-0.232-0.692-0.211-1.915,0.07-2.455l12.492-22.154
			c0.205-0.407,0.71-1.267,1.332-1.265c1.102,0,1.58-1.449-0.29-1.449H81.912c-1.87,0-1.892,1.424-0.098,1.424
			c0.732,0,1.02,0.714,0.815,1.151l-2.766,5.009c-0.345,0.553-1.111,0.598-1.918,0.598l-2.383-0.01c-0.166,0-0.298,0.136-0.298,0.3
			c0,0.166,0.132,0.3,0.298,0.3h2.364c0.641,0,1.149,0.194,0.78,0.937l-9.219,16.8c-0.669,0.922-1.991,1.128-1.913-0.638
			l3.279-24.606c0.128-0.77-0.075-1.29-0.896-1.29l-4.944,0.008c-0.59,0-0.956,0.285-1.237,0.671l-1.772,2.223
			c-0.23,0.232-0.727,0.229-1.279,0.229l-4.151-0.008c-0.166,0-0.298,0.137-0.298,0.301c0,0.166,0.133,0.298,0.298,0.298
			l3.391,0.003c0.599,0,1.307,0.141,1.048,0.422l-4.755,5.983c-0.142,0.167-0.605,0.214-0.889,0.214l-1.343-0.007
			c-0.165,0-0.3,0.134-0.3,0.3c0,0.167,0.134,0.3,0.3,0.3l1.121,0.002c0.344,0,0.348,0.172,0.207,0.326l-4.467,5.62
			c-0.232,0.215-0.681,0.263-1.115,0.263l-3.945-0.007c-0.167,0-0.3,0.134-0.3,0.3c0,0.162,0.132,0.3,0.3,0.3h3.387
			c0.512,0,0.911,0.094,0.641,0.442l-6.357,7.972c-1.192,1.522-6.946,2.291-8.068,2.291l21.494-40.217
			c0.205-0.464,1.004-1.169,1.83-1.169h4.563c2.155,0,2.09-1.433,0.219-1.433H40.594c-1.872,0-1.946,1.433,0.205,1.433h4.247
			c1.204,0,1.595,0.729,1.285,1.322l-0.608,1.108c-0.205,0.363-0.487,0.502-1.655,0.502l-7.508-0.002c-0.164,0-0.3,0.132-0.3,0.3
			c0,0.164,0.136,0.297,0.3,0.297h7.488c0.412,0,1.017,0.111,0.633,0.84l-1.048,1.953c-0.181,0.295-0.643,0.434-1.166,0.434
			l-3.407-0.005c-0.165,0-0.3,0.134-0.3,0.298c0,0.164,0.134,0.301,0.3,0.301h3.387c0.489,0,0.5,0.321,0.215,0.769l-2.416,4.494
			c-0.204,0.386-0.598,0.432-1.365,0.432l-1.358-0.002c-0.166,0-0.3,0.131-0.3,0.296c0,0.166,0.134,0.3,0.3,0.3l1.338,0.003
			c0.512,0,0.646,0.283,0.416,0.772l-1.986,3.687c-0.295,0.528-0.717,0.737-2.035,0.737l-7.508-0.008c-0.166,0-0.3,0.136-0.3,0.3
			c0,0.169,0.134,0.303,0.3,0.303h7.488c0.846,0.012,1.156,0.386,0.823,0.99l-3.874,7.286c-0.232,0.318-0.865,0.368-1.941,0.368
			l-7.506-0.009c-0.166,0-0.3,0.135-0.3,0.302c0,0.166,0.134,0.3,0.3,0.3h7.486c0.898,0,1.446,0.04,1.176,0.51l-2.233,4.202
			c-0.409,0.639-1.562,0.638-2.011,0.638l-2.382-0.003c-0.166,0-0.3,0.132-0.3,0.298c0,0.166,0.134,0.298,0.3,0.298l2.362,0.003
			c0.833,0,1.275,0.143,1.058,0.593l-2.983,5.602c-0.27,0.503-1.436,0.528-2.334,0.528l-11.607-0.008c-0.166,0-0.3,0.134-0.3,0.3
			c0,0.164,0.134,0.296,0.3,0.296h11.586c0.772,0,1.741,0.1,1.385,0.714l-1.905,3.579c-0.181,0.297-0.828,0.321-1.766,0.321
			l-2.382-0.008c-0.166,0-0.3,0.136-0.3,0.301c0,0.163,0.134,0.298,0.3,0.298l2.363,0.003c0.576,0,1.277,0.064,1.034,0.502
			l-1.191,2.287c-0.384,0.565-0.767,1.072-1.689,1.072h-5.824c-2.153,0-2.079,1.435-0.209,1.435l34.204,0.02
			c0.997,0,1.03-0.134,1.502-0.871l5.072-8.843l25.924,0.002C81.246,116.43,80.768,115.022,79.668,114.982z M59.337,112.349
			c-0.257,1.457-1.724,2.426-3.569,2.912l-1.905,0.475l1.564-2.815c0.411-0.768-0.49-1.224-1.474-0.076
			c-6.622,7.708-8.73,11.398-18.941,11.427l-2.744,0.008c-0.828,0-1.741-0.328-1.178-1.125l3.614-6.726l13.719,0.002
			c1.871,0,1.393-1.408,0.29-1.448c-0.725-0.027-1.519-0.441-2.08-1.33c-0.157-0.243-0.497-1.221,0.038-1.976l5.252-6.978h8.734
			L59.337,112.349z M61.309,103.519h-8.522l10.779-14.213L61.309,103.519z"/>
		<path fill="#552583" d="M190.958,107.915c-0.141-0.699-0.396-0.27-0.86,0.611c-0.141,0.268-0.59,0.27-1.038,0.27l-1.37,0.009
			c-0.166,0-0.301,0.132-0.301,0.3c0,0.164,0.136,0.301,0.301,0.301h1.348c0.512,0,0.52,0.335,0.28,0.851
			c-0.942,2.011-1.915,3.361-3.205,4.972c-0.202,0.257-0.722,0.479-1.133,0.479l-1.376,0.003c-0.166,0-0.3,0.133-0.3,0.298
			s0.134,0.303,0.3,0.303l1.347-0.002c0.679,0-0.007,0.419-0.123,0.57c-2.393,3.19-4.04,4.613-5.799,6.042
			c-0.205,0.167-1.198,0.111-1.89,0.106l-1.358,0.006c-0.164,0-0.3,0.133-0.3,0.302c0,0.164,0.136,0.3,0.3,0.3h1.338
			c1.024,0,0.258,0.588,0.103,0.717c-3.725,3.104-9.279,4.104-11.816,3.787c-8.25-1.034-9.948-7.293-10.559-9.797
			c-0.126-0.52-0.522-1.592-0.651-2.256c-0.255-1.304,3.463-1.678,4.492-0.99c1.559,1.044,5.191,2.11,8.05,2.12
			c2.643,0.008,8.054-1.91,9.621-6.453c1.6-4.644-2.423-9.8-4.205-11.582c-2.272-2.267-4.414-5.883-3.511-8.537
			c0.679-1.999,1.82-2.905,4.263-2.905c3.152,0,5.449,2.026,5.449,4.904c0,0.255-0.159,0.562-0.364,0.562l-1.116,0.007
			c-0.163,0-0.298,0.134-0.298,0.3c0,0.167,0.136,0.3,0.298,0.3h1.048c0.295,0,0.479,0.225,0.402,0.581
			c-0.205,0.964-0.273,1.64-0.482,2.605c-0.121,0.561,0.697,0.949,0.979,0.54l4.959-8.851c0.36-0.666-0.439-0.848-1.027-0.641
			c-1.353,0.47-3.564,0.798-4.344,0.235c-1.853-1.332-3.543-2.185-6.133-2.185c-4.402,0-7.493,1.087-9.471,4.711
			c-0.152,0.283-0.586,0.278-0.959,0.278h-0.845c-0.167,0-0.3,0.134-0.3,0.3c0,0.162,0.133,0.302,0.3,0.302l0.719-0.01
			c0.308,0,0.515,0.086,0.363,0.447c-0.139,0.325-0.26,0.671-0.374,1.024c-0.5,1.569-0.34,3.775,0.445,5.741
			c0.051,0.124-0.113,0.187-0.417,0.187l-1.352,0.006c-0.166,0-0.298,0.132-0.298,0.3c0,0.164,0.133,0.3,0.298,0.3h1.35
			c0.609,0.001,0.753,0.061,1.009,0.421c0.695,0.979,1.41,1.703,2.305,2.846c0.28,0.356-0.923,0.457-1.562,0.452l-5.343-0.002
			c-0.167,0-0.301,0.134-0.301,0.298c0,0.167,0.134,0.303,0.301,0.303l5.409-0.01c0.871,0,2.362-0.011,2.529,0.177
			c1.307,1.512,2.892,3.839,3.16,5.797c0.075,0.563-0.139,0.8-0.83,0.8l-0.724-0.002c-0.167,0-0.3,0.136-0.3,0.305
			c0,0.166,0.133,0.297,0.3,0.297h0.636c0.551,0,0.853,0.091,0.725,0.502c-0.702,2.238-1.754,3.864-6.036,3.843
			c-4.49-0.021-5.403-4.425-4.088-9.017c0.262-0.916-0.013-1.308-0.424-0.59l-3.124,4.909c-0.076,0.118-0.379,0.396-0.851,0.396
			l-0.446-0.002c-0.167,0-0.301,0.136-0.301,0.3c0,0.166,0.139,0.3,0.305,0.3c0.397,0,0.552,0.209,0.397,0.429l-1.145,1.789
			c-1.888-4.32-5.053-9.638-6.739-11.574l0.03-0.093c4.162-0.252,10.304-4.154,11.309-7.637c1.744-6.047-4.128-8.283-7.329-8.283
			l-14.074,0.003c-1.871,0-2.006,1.416-0.212,1.416c0.969,0,1.817,0.85,1.388,1.709l-3.119,5.615
			c-0.257,0.462-1.224,0.437-2.476,0.437l-1.366-0.005c-0.164,0-0.3,0.136-0.3,0.301c0,0.167,0.136,0.3,0.3,0.3h1.343
			c0.896,0,1.885,0.055,1.552,0.696l-3.687,6.657c-0.179,0.303-0.658,0.333-1.911,0.333l-1.358,0.005
			c-0.165,0-0.301,0.134-0.301,0.3c0,0.164,0.136,0.3,0.301,0.3h1.33c0.985,0,1.355,0.131,1.075,0.643l-4.923,8.906
			c-0.59,0.638-1.29,0.76-2.494,0.76c-1.794,0-1.772,1.42,0.098,1.42h12.053c1.87,0,1.393-1.448,0.291-1.448
			c-0.649,0-1.337-1.191-0.906-1.907l6.153-11.653h0.623c2.738,0,3.4,4.492,3.914,9.391c0.04,0.348-0.629,0.368-1.993,0.368
			l-3.422,0.008c-0.164,0-0.3,0.133-0.3,0.298c0,0.166,0.136,0.296,0.3,0.296h3.386c0.898,0,2.151,0.01,2.183,0.298
			c0.235,2.15,0.412,4.047,0.823,5.769c0.129,0.536-0.83,0.457-1.855,0.457l-4.356,0.003c-0.166,0-0.3,0.134-0.3,0.298
			c0,0.164,0.134,0.303,0.3,0.303l4.351,0.003c1.368,0,2.075-0.002,2.151,0.281c1.875,6.872,9.915,12.283,17.729,11.987
			c6.708-0.257,12.372-3.906,15.272-6.234c3.859-3.094,9.529-9.578,11.834-14.294C190.431,109.795,191.11,108.685,190.958,107.915z
			 M145.868,98.764c-0.941,0.77-2.423,1.661-2.71,1.375c-0.399-0.396-1.643-1.25-2.312-1.559l5.585-10.208
			c0.23-0.361,0.494-0.556,1.111-0.556c2.171,0,2.884,2.357,1.863,5.295C148.692,95.168,147.531,97.396,145.868,98.764z"/>
	</g>
	<g>
		<path fill="#552583" d="M78.005,77.563c-1.13,1.464-2.63,1.835-4.311,1.835H73.22l2.965-5.868c0.144-0.268,0.456-0.482,0.84-0.482
			c0.371,0,0.328-0.74-0.159-0.74h-4.674c-0.398,0-0.538,0.74-0.164,0.74c0.398,0,0.469,0.441,0.277,0.813l-2.653,5.234
			c-0.179,0.282-0.472,0.358-0.798,0.444c-0.394,0.103-0.664,0.805-0.219,0.805h7.462c0.576,0,0.711-0.21,0.865-0.421l1.501-2.319
			C78.676,77.32,78.222,77.282,78.005,77.563z"/>
		<path fill="#552583" d="M100.476,72.518c-0.225,0.121-0.758,0.186-0.992-0.005c-0.593-0.495-1.764-0.874-2.377-0.874
			c-1.757,0-3.034,0.344-3.8,2.007c-0.651,1.413,0.018,2.595,1.57,3.316c0.672,0.31,1.563,0.716,1.222,1.524
			c-0.249,0.593-0.939,0.654-1.559,0.649c-0.833-0.01-2.085-0.634-2.281-1.812c-0.065-0.384-0.512-0.292-0.639-0.088l-1.063,2.112
			c-0.167,0.287,0.273,0.598,0.445,0.412c0.358-0.382,1.141-0.477,1.524-0.22c0.53,0.353,1.887,0.967,2.701,0.964
			c1.779-0.013,2.955-0.47,3.932-1.997c0.891-1.398,0.343-2.781-1.284-3.548c-0.86-0.403-1.595-1.118-1.211-1.91
			c0.25-0.513,1.015-0.399,1.396-0.335c0.727,0.121,1.658,0.807,1.767,1.408c0.043,0.257,0.371,0.306,0.512,0.074l0.56-1.302
			C101.029,72.638,100.617,72.437,100.476,72.518z"/>
		<path fill="#552583" d="M152.245,74.617l0.648-1.196c0.283-0.525-0.181-1.123-0.924-1.123h-8.712
			c-0.628,0-0.442,0.656-0.187,0.656c0.56,0,0.725,0.682,0.388,1.255l-2.62,4.822c-0.389,0.459-0.641,0.658-1.201,0.658
			c-0.449,0-0.606,0.656,0.021,0.656h8.828c0.359,0,0.513-0.127,0.641-0.31l1.202-1.59c0.293-0.388-0.34-0.388-0.532-0.195
			c-1.524,1.527-3.154,1.481-4.338,1.481h-1.032l1.209-2.697h0.258c0.775,0,1.67-0.01,1.905,0.581c0.063,0.137,0.447,0.25,0.601,0
			l1.03-2.064c0.166-0.303-0.298-0.361-0.423-0.138c-0.409,0.726-2.198,0.527-2.668,0.527h-0.255l1.504-2.97h1.679
			c1.042,0,1.94,0.742,2.234,1.545C151.573,74.71,152.129,74.862,152.245,74.617z"/>
		<path fill="#552583" d="M129.958,72.298h-3.102c-0.628,0-0.442,0.656-0.187,0.656c0.664,0,1.267,0.778,0.903,1.491l-1.282,2.352
			l-2.831-4.144c-0.192-0.252-0.638-0.379-1.022-0.379h-3.048c-0.629,0-0.484,0.649-0.227,0.649c0.646,0,0.48,0.484,0.32,0.832
			l-2.43,4.679c-0.154,0.373-0.815,0.426-1.022-0.046l-1.881-6.128c-0.078-0.244-1.178-0.232-1.459,0l-4.713,3.884l-2.441,0.002
			c-0.487,0-0.677,0.204-0.677,0.461c0,0.257,0.184,0.49,0.696,0.49l1.275-0.003l-1.274,1.05c-0.712,0.528-1.439,1.257-1.921,1.257
			h-0.298c-0.46,0-0.719,0.075-0.719,0.446c0,0.373,0.194,0.5,0.629,0.5h3.803c0.717,0,0.576-0.936,0.219-0.936
			c-0.396,0-1.045-0.499-0.439-1.204l1.158-1.11h2.289c1.358,0,2.306,1.574,1.497,2.059l-0.63,0.348
			c-0.293,0.152-0.421,0.843,0,0.843h7.432c0.552,0,0.439-0.73,0.182-0.73c-0.758,0-0.401-1.091-0.255-1.385l1.951-3.699
			l2.743,5.313c0.18,0.335,0.341,0.5,0.663,0.5h1.05c0.333,0,0.445-0.194,0.598-0.451l3.124-5.638c0.502-1.007,0.886-1.3,1.52-1.3
			C130.408,72.956,130.586,72.298,129.958,72.298z M109.175,76.144l2.905-2.372l0.012,2.372H109.175z"/>
		<path fill="#552583" d="M85.947,71.944c-2.614,0-5.305,1.287-5.842,4.033c-0.467,2.385,1.183,4.858,4.099,4.858
			c2.779,0,5.343-1.817,5.858-4.449C90.581,73.737,88.612,71.944,85.947,71.944z M86.686,76.972
			c-0.828,1.651-2.215,2.632-3.099,2.191c-0.881-0.441-0.926-2.14-0.099-3.793c0.83-1.656,2.218-2.637,3.099-2.193
			C87.469,73.62,87.514,75.319,86.686,76.972z"/>
		<path fill="#552583" d="M138.793,75.945h-3.356c-0.631,0-0.445,0.658-0.189,0.658c0.265,0,0.512,0.141,0.512,0.562
			c0,1.355-0.579,1.878-1.742,1.878c-1.277,0-1.739-1.549-0.88-3.452c0.548-1.212,2.002-2.35,3.728-2.35
			c1.057,0,1.946,0.229,2.079,1.219c0.035,0.242,0.399,0.242,0.528,0.012l0.795-1.424c0.091-0.152-0.048-0.335-0.293-0.349
			c-0.204-0.017-0.663,0.248-0.966,0.026c-0.674-0.502-2.133-0.986-3.238-0.986c-1.802,0-4.318,0.409-6.017,3.359
			c-1.537,2.67,0.701,5.492,2.776,5.496c1.154,0.003,2.491-0.853,3.258-1.174l0.858,0.58c0.128,0.152,0.396,0.346,0.653,0.346h0.32
			c0.295,0,0.411-0.402,0.525-0.658l1.318-3.188C139.626,76.179,139.535,75.945,138.793,75.945z"/>
		<path fill="#552583" d="M184.781,72.518c-0.227,0.121-0.76,0.186-0.992-0.005c-0.593-0.495-1.764-0.874-2.377-0.874
			c-1.759,0-3.033,0.344-3.801,2.007c-0.651,1.413,0.02,2.595,1.572,3.316c0.672,0.31,1.563,0.716,1.221,1.524
			c-0.249,0.593-0.939,0.654-1.559,0.649c-0.831-0.01-2.083-0.634-2.281-1.812c-0.065-0.384-0.51-0.292-0.638-0.088l-1.065,2.112
			c-0.166,0.287,0.273,0.598,0.446,0.412c0.361-0.382,1.141-0.477,1.525-0.22c0.527,0.353,1.888,0.967,2.7,0.964
			c1.781-0.013,2.955-0.47,3.932-1.997c0.893-1.398,0.343-2.781-1.282-3.548c-0.858-0.403-1.597-1.118-1.211-1.91
			c0.249-0.513,1.016-0.399,1.397-0.335c0.724,0.121,1.658,0.807,1.764,1.408c0.045,0.257,0.374,0.306,0.515,0.074l0.56-1.302
			C185.335,72.638,184.922,72.437,184.781,72.518z"/>
		<path fill="#552583" d="M161.437,77.563c-1.13,1.464-2.628,1.835-4.31,1.835h-0.473l2.965-5.868
			c0.141-0.268,0.454-0.482,0.838-0.482c0.373,0,0.328-0.74-0.159-0.74h-4.672c-0.398,0-0.538,0.74-0.167,0.74
			c0.399,0,0.47,0.441,0.28,0.813l-2.655,5.234c-0.179,0.282-0.474,0.358-0.798,0.444c-0.393,0.103-0.664,0.805-0.215,0.805h7.458
			c0.576,0,0.714-0.21,0.864-0.421l1.499-2.319C162.11,77.32,161.655,77.282,161.437,77.563z"/>
		<path fill="#552583" d="M172.69,72.97c1.042,0,1.938,0.742,2.233,1.545c0.071,0.194,0.63,0.346,0.742,0.101l0.649-1.196
			c0.282-0.525-0.182-1.123-0.926-1.123h-8.71c-0.628,0-0.444,0.656-0.189,0.656c0.561,0,0.725,0.682,0.387,1.255l-2.619,4.822
			c-0.391,0.459-0.641,0.658-1.201,0.658c-0.45,0-0.608,0.656,0.02,0.656h8.828c0.358,0,0.517-0.127,0.646-0.31l1.198-1.59
			c0.295-0.388-0.338-0.388-0.532-0.195c-1.524,1.527-3.154,1.481-4.34,1.481h-1.027l1.209-2.697h0.257
			c0.774,0,1.668-0.01,1.903,0.581c0.064,0.137,0.447,0.25,0.603,0l1.03-2.064c0.166-0.303-0.3-0.361-0.422-0.138
			c-0.411,0.726-2.198,0.527-2.667,0.527h-0.258l1.506-2.97H172.69z"/>
	</g>
	<g>
		<defs>
			<ellipse id="SVGID_1_" cx="95.939" cy="101.423" rx="53.997" ry="54.814"/>
		</defs>
		<clipPath id="SVGID_2_">
			<use xlink:href="#SVGID_1_"  overflow="visible"/>
		</clipPath>
		<g clip-path="url(#SVGID_2_)">
			<g>
				<path fill="#552583" stroke="#FDB927" stroke-width="0.2468" d="M120.55,107.034c-5.043,6.118-7.9,8.212-13.027,8.212
					c-1.741,0-2.652-0.389-2.165-1.239l6.08-12.215h2.317c2.589,0,2.229,2.178,1.526,5.129c-0.128,0.41,0.189,0.437,0.497,0.078
					l5.777-10.153c0.281-0.641-0.446-0.769-0.804-0.281c-2.897,3.93-5.939,3.637-7.223,3.637h-1.047l6.486-12.386h2.619
					c3.296,0.205,4.831,3.004,3.877,9.747h1.37l4.772-9.405c0.384-0.793-0.431-1.524-1.328-1.524l-32.384,0.013
					c-1.87,0-1.953,1.436-0.161,1.436c1.458,0,1.381,2.092,0.074,3.099L84.06,102.1l2.774,12.885
					c0.205,0.974,0.828,1.439,1.905,1.439h26.779c1.102,0,1.557-0.45,1.917-0.909l4.851-8.378
					C122.952,105.931,121.398,106.01,120.55,107.034z M101.897,101.151l-2.355-0.022c-0.167,0-0.301,0.136-0.301,0.3
					c0,0.167,0.134,0.3,0.301,0.3l2.388-0.022c0.808,0,1.552,0.101,1.345,0.461l-6.19,11.821c-0.769,1.411-2.4,1.053-2.657-0.074
					l-3.067-15.843l10.783-8.364c1.072-0.923,3.132-2.425,4.19-2.403l2.347-0.01c1.431-0.015,1.938,0.656,1.603,1.52l-0.416,0.798
					c-0.268,0.451-1.116,0.504-1.833,0.504l-1.357,0.007c-0.167,0-0.3,0.136-0.3,0.303c0,0.166,0.133,0.298,0.3,0.298l1.337,0.002
					c0.576,0,1.305,0.012,1.037,0.449l-5.002,9.534C103.82,101.081,102.782,101.151,101.897,101.151z"/>
				<path fill="#552583" stroke="#FDB927" stroke-width="0.2468" d="M79.668,114.982c-0.727-0.027-1.194-0.52-1.355-0.999
					c-0.232-0.692-0.211-1.915,0.07-2.455l12.492-22.154c0.205-0.407,0.71-1.267,1.332-1.265c1.102,0,1.58-1.449-0.29-1.449H81.912
					c-1.87,0-1.892,1.424-0.098,1.424c0.732,0,1.02,0.714,0.815,1.151l-2.766,5.009c-0.345,0.553-1.111,0.598-1.918,0.598
					l-2.383-0.01c-0.166,0-0.298,0.136-0.298,0.3c0,0.166,0.132,0.3,0.298,0.3h2.364c0.641,0,1.149,0.194,0.78,0.937l-9.219,16.8
					c-0.669,0.922-1.991,1.128-1.913-0.638l3.279-24.606c0.128-0.77-0.075-1.29-0.896-1.29l-4.944,0.008
					c-0.59,0-0.956,0.285-1.237,0.671l-1.772,2.223c-0.23,0.232-0.727,0.229-1.279,0.229l-4.151-0.008
					c-0.166,0-0.298,0.137-0.298,0.301c0,0.166,0.133,0.298,0.298,0.298l3.391,0.003c0.599,0,1.307,0.141,1.048,0.422l-4.755,5.983
					c-0.142,0.167-0.605,0.214-0.889,0.214l-1.343-0.007c-0.165,0-0.3,0.134-0.3,0.3c0,0.167,0.134,0.3,0.3,0.3l1.121,0.002
					c0.344,0,0.348,0.172,0.207,0.326l-4.467,5.62c-0.232,0.215-0.681,0.263-1.115,0.263l-3.945-0.007c-0.167,0-0.3,0.134-0.3,0.3
					c0,0.162,0.132,0.3,0.3,0.3h3.387c0.512,0,0.911,0.094,0.641,0.442l-6.357,7.972c-1.192,1.522-6.946,2.291-8.068,2.291
					l21.494-40.217c0.205-0.464,1.004-1.169,1.83-1.169h4.563c2.155,0,2.09-1.433,0.219-1.433H40.594
					c-1.872,0-1.946,1.433,0.205,1.433h4.247c1.204,0,1.595,0.729,1.285,1.322l-0.608,1.108c-0.205,0.363-0.487,0.502-1.655,0.502
					l-7.508-0.002c-0.164,0-0.3,0.132-0.3,0.3c0,0.164,0.136,0.297,0.3,0.297h7.488c0.412,0,1.017,0.111,0.633,0.84l-1.048,1.953
					c-0.181,0.295-0.643,0.434-1.166,0.434l-3.407-0.005c-0.165,0-0.3,0.134-0.3,0.298c0,0.164,0.134,0.301,0.3,0.301h3.387
					c0.489,0,0.5,0.321,0.215,0.769l-2.416,4.494c-0.204,0.386-0.598,0.432-1.365,0.432l-1.358-0.002c-0.166,0-0.3,0.131-0.3,0.296
					c0,0.166,0.134,0.3,0.3,0.3l1.338,0.003c0.512,0,0.646,0.283,0.416,0.772l-1.986,3.687c-0.295,0.528-0.717,0.737-2.035,0.737
					l-7.508-0.008c-0.166,0-0.3,0.136-0.3,0.3c0,0.169,0.134,0.303,0.3,0.303h7.488c0.846,0.012,1.156,0.386,0.823,0.99
					l-3.874,7.286c-0.232,0.318-0.865,0.368-1.941,0.368l-7.506-0.009c-0.166,0-0.3,0.135-0.3,0.302c0,0.166,0.134,0.3,0.3,0.3
					h7.486c0.898,0,1.446,0.04,1.176,0.51l-2.233,4.202c-0.409,0.639-1.562,0.638-2.011,0.638l-2.382-0.003
					c-0.166,0-0.3,0.132-0.3,0.298c0,0.166,0.134,0.298,0.3,0.298l2.362,0.003c0.833,0,1.275,0.143,1.058,0.593l-2.983,5.602
					c-0.27,0.503-1.436,0.528-2.334,0.528l-11.607-0.008c-0.166,0-0.3,0.134-0.3,0.3c0,0.164,0.134,0.296,0.3,0.296h11.586
					c0.772,0,1.741,0.1,1.385,0.714l-1.905,3.579c-0.181,0.297-0.828,0.321-1.766,0.321l-2.382-0.008c-0.166,0-0.3,0.136-0.3,0.301
					c0,0.163,0.134,0.298,0.3,0.298l2.363,0.003c0.576,0,1.277,0.064,1.034,0.502l-1.191,2.287
					c-0.384,0.565-0.767,1.072-1.689,1.072h-5.824c-2.153,0-2.079,1.435-0.209,1.435l34.204,0.02c0.997,0,1.03-0.134,1.502-0.871
					l5.072-8.843l25.924,0.002C81.246,116.43,80.768,115.022,79.668,114.982z M59.337,112.349c-0.257,1.457-1.724,2.426-3.569,2.912
					l-1.905,0.475l1.564-2.815c0.411-0.768-0.49-1.224-1.474-0.076c-6.622,7.708-8.73,11.398-18.941,11.427l-2.744,0.008
					c-0.828,0-1.741-0.328-1.178-1.125l3.614-6.726l13.719,0.002c1.871,0,1.393-1.408,0.29-1.448
					c-0.725-0.027-1.519-0.441-2.08-1.33c-0.157-0.243-0.497-1.221,0.038-1.976l5.252-6.978h8.734L59.337,112.349z M61.309,103.519
					h-8.522l10.779-14.213L61.309,103.519z"/>
				<path fill="#552583" stroke="#FDB927" stroke-width="0.2468" d="M190.958,107.915c-0.141-0.699-0.396-0.27-0.86,0.611
					c-0.141,0.268-0.59,0.27-1.038,0.27l-1.37,0.009c-0.166,0-0.301,0.132-0.301,0.3c0,0.164,0.136,0.301,0.301,0.301h1.348
					c0.512,0,0.52,0.335,0.28,0.851c-0.942,2.011-1.915,3.361-3.205,4.972c-0.202,0.257-0.722,0.479-1.133,0.479l-1.376,0.003
					c-0.166,0-0.3,0.133-0.3,0.298s0.134,0.303,0.3,0.303l1.347-0.002c0.679,0-0.007,0.419-0.123,0.57
					c-2.393,3.19-4.04,4.613-5.799,6.042c-0.205,0.167-1.198,0.111-1.89,0.106l-1.358,0.006c-0.164,0-0.3,0.133-0.3,0.302
					c0,0.164,0.136,0.3,0.3,0.3h1.338c1.024,0,0.258,0.588,0.103,0.717c-3.725,3.104-9.279,4.104-11.816,3.787
					c-8.25-1.034-9.948-7.293-10.559-9.797c-0.126-0.52-0.522-1.592-0.651-2.256c-0.255-1.304,3.463-1.678,4.492-0.99
					c1.559,1.044,5.191,2.11,8.05,2.12c2.643,0.008,8.054-1.91,9.621-6.453c1.6-4.644-2.423-9.8-4.205-11.582
					c-2.272-2.267-4.414-5.883-3.511-8.537c0.679-1.999,1.82-2.905,4.263-2.905c3.152,0,5.449,2.026,5.449,4.904
					c0,0.255-0.159,0.562-0.364,0.562l-1.116,0.007c-0.163,0-0.298,0.134-0.298,0.3c0,0.167,0.136,0.3,0.298,0.3h1.048
					c0.295,0,0.479,0.225,0.402,0.581c-0.205,0.964-0.273,1.64-0.482,2.605c-0.121,0.561,0.697,0.949,0.979,0.54l4.959-8.851
					c0.36-0.666-0.439-0.848-1.027-0.641c-1.353,0.47-3.564,0.798-4.344,0.235c-1.853-1.332-3.543-2.185-6.133-2.185
					c-4.402,0-7.493,1.087-9.471,4.711c-0.152,0.283-0.586,0.278-0.959,0.278h-0.845c-0.167,0-0.3,0.134-0.3,0.3
					c0,0.162,0.133,0.302,0.3,0.302l0.719-0.01c0.308,0,0.515,0.086,0.363,0.447c-0.139,0.325-0.26,0.671-0.374,1.024
					c-0.5,1.569-0.34,3.775,0.445,5.741c0.051,0.124-0.113,0.187-0.417,0.187l-1.352,0.006c-0.166,0-0.298,0.132-0.298,0.3
					c0,0.164,0.133,0.3,0.298,0.3h1.35c0.609,0.001,0.753,0.061,1.009,0.421c0.695,0.979,1.41,1.703,2.305,2.846
					c0.28,0.356-0.923,0.457-1.562,0.452l-5.343-0.002c-0.167,0-0.301,0.134-0.301,0.298c0,0.167,0.134,0.303,0.301,0.303
					l5.409-0.01c0.871,0,2.362-0.011,2.529,0.177c1.307,1.512,2.892,3.839,3.16,5.797c0.075,0.563-0.139,0.8-0.83,0.8l-0.724-0.002
					c-0.167,0-0.3,0.136-0.3,0.305c0,0.166,0.133,0.297,0.3,0.297h0.636c0.551,0,0.853,0.091,0.725,0.502
					c-0.702,2.238-1.754,3.864-6.036,3.843c-4.49-0.021-5.403-4.425-4.088-9.017c0.262-0.916-0.013-1.308-0.424-0.59l-3.124,4.909
					c-0.076,0.118-0.379,0.396-0.851,0.396l-0.446-0.002c-0.167,0-0.301,0.136-0.301,0.3c0,0.166,0.139,0.3,0.305,0.3
					c0.397,0,0.552,0.209,0.397,0.429l-1.145,1.789c-1.888-4.32-5.053-9.638-6.739-11.574l0.03-0.093
					c4.162-0.252,10.304-4.154,11.309-7.637c1.744-6.047-4.128-8.283-7.329-8.283l-14.074,0.003c-1.871,0-2.006,1.416-0.212,1.416
					c0.969,0,1.817,0.85,1.388,1.709l-3.119,5.615c-0.257,0.462-1.224,0.437-2.476,0.437l-1.366-0.005c-0.164,0-0.3,0.136-0.3,0.301
					c0,0.167,0.136,0.3,0.3,0.3h1.343c0.896,0,1.885,0.055,1.552,0.696l-3.687,6.657c-0.179,0.303-0.658,0.333-1.911,0.333
					l-1.358,0.005c-0.165,0-0.301,0.134-0.301,0.3c0,0.164,0.136,0.3,0.301,0.3h1.33c0.985,0,1.355,0.131,1.075,0.643l-4.923,8.906
					c-0.59,0.638-1.29,0.76-2.494,0.76c-1.794,0-1.772,1.42,0.098,1.42h12.053c1.87,0,1.393-1.448,0.291-1.448
					c-0.649,0-1.337-1.191-0.906-1.907l6.153-11.653h0.623c2.738,0,3.4,4.492,3.914,9.391c0.04,0.348-0.629,0.368-1.993,0.368
					l-3.422,0.008c-0.164,0-0.3,0.133-0.3,0.298c0,0.166,0.136,0.296,0.3,0.296h3.386c0.898,0,2.151,0.01,2.183,0.298
					c0.235,2.15,0.412,4.047,0.823,5.769c0.129,0.536-0.83,0.457-1.855,0.457l-4.356,0.003c-0.166,0-0.3,0.134-0.3,0.298
					c0,0.164,0.134,0.303,0.3,0.303l4.351,0.003c1.368,0,2.075-0.002,2.151,0.281c1.875,6.872,9.915,12.283,17.729,11.987
					c6.708-0.257,12.372-3.906,15.272-6.234c3.859-3.094,9.529-9.578,11.834-14.294C190.431,109.795,191.11,108.685,190.958,107.915
					z M145.868,98.764c-0.941,0.77-2.423,1.661-2.71,1.375c-0.399-0.396-1.643-1.25-2.312-1.559l5.585-10.208
					c0.23-0.361,0.494-0.556,1.111-0.556c2.171,0,2.884,2.357,1.863,5.295C148.692,95.168,147.531,97.396,145.868,98.764z"/>
			</g>
			<g>
				<path fill="#552583" stroke="#FDB927" stroke-width="0.2468" d="M78.005,77.563c-1.13,1.464-2.63,1.835-4.311,1.835H73.22
					l2.965-5.868c0.144-0.268,0.456-0.482,0.84-0.482c0.371,0,0.328-0.74-0.159-0.74h-4.674c-0.398,0-0.538,0.74-0.164,0.74
					c0.398,0,0.469,0.441,0.277,0.813l-2.653,5.234c-0.179,0.282-0.472,0.358-0.798,0.444c-0.394,0.103-0.664,0.805-0.219,0.805
					h7.462c0.576,0,0.711-0.21,0.865-0.421l1.501-2.319C78.676,77.32,78.222,77.282,78.005,77.563z"/>
				<path fill="#552583" stroke="#FDB927" stroke-width="0.2468" d="M100.476,72.518c-0.225,0.121-0.758,0.186-0.992-0.005
					c-0.593-0.495-1.764-0.874-2.377-0.874c-1.757,0-3.034,0.344-3.8,2.007c-0.651,1.413,0.018,2.595,1.57,3.316
					c0.672,0.31,1.563,0.716,1.222,1.524c-0.249,0.593-0.939,0.654-1.559,0.649c-0.833-0.01-2.085-0.634-2.281-1.812
					c-0.065-0.384-0.512-0.292-0.639-0.088l-1.063,2.112c-0.167,0.287,0.273,0.598,0.445,0.412c0.358-0.382,1.141-0.477,1.524-0.22
					c0.53,0.353,1.887,0.967,2.701,0.964c1.779-0.013,2.955-0.47,3.932-1.997c0.891-1.398,0.343-2.781-1.284-3.548
					c-0.86-0.403-1.595-1.118-1.211-1.91c0.25-0.513,1.015-0.399,1.396-0.335c0.727,0.121,1.658,0.807,1.767,1.408
					c0.043,0.257,0.371,0.306,0.512,0.074l0.56-1.302C101.029,72.638,100.617,72.437,100.476,72.518z"/>
				<path fill="#552583" stroke="#FDB927" stroke-width="0.2468" d="M152.245,74.617l0.648-1.196
					c0.283-0.525-0.181-1.123-0.924-1.123h-8.712c-0.628,0-0.442,0.656-0.187,0.656c0.56,0,0.725,0.682,0.388,1.255l-2.62,4.822
					c-0.389,0.459-0.641,0.658-1.201,0.658c-0.449,0-0.606,0.656,0.021,0.656h8.828c0.359,0,0.513-0.127,0.641-0.31l1.202-1.59
					c0.293-0.388-0.34-0.388-0.532-0.195c-1.524,1.527-3.154,1.481-4.338,1.481h-1.032l1.209-2.697h0.258
					c0.775,0,1.67-0.01,1.905,0.581c0.063,0.137,0.447,0.25,0.601,0l1.03-2.064c0.166-0.303-0.298-0.361-0.423-0.138
					c-0.409,0.726-2.198,0.527-2.668,0.527h-0.255l1.504-2.97h1.679c1.042,0,1.94,0.742,2.234,1.545
					C151.573,74.71,152.129,74.862,152.245,74.617z"/>
				<path fill="#552583" stroke="#FDB927" stroke-width="0.2468" d="M129.958,72.298h-3.102c-0.628,0-0.442,0.656-0.187,0.656
					c0.664,0,1.267,0.778,0.903,1.491l-1.282,2.352l-2.831-4.144c-0.192-0.252-0.638-0.379-1.022-0.379h-3.048
					c-0.629,0-0.484,0.649-0.227,0.649c0.646,0,0.48,0.484,0.32,0.832l-2.43,4.679c-0.154,0.373-0.815,0.426-1.022-0.046
					l-1.881-6.128c-0.078-0.244-1.178-0.232-1.459,0l-4.713,3.884l-2.441,0.002c-0.487,0-0.677,0.204-0.677,0.461
					c0,0.257,0.184,0.49,0.696,0.49l1.275-0.003l-1.274,1.05c-0.712,0.528-1.439,1.257-1.921,1.257h-0.298
					c-0.46,0-0.719,0.075-0.719,0.446c0,0.373,0.194,0.5,0.629,0.5h3.803c0.717,0,0.576-0.936,0.219-0.936
					c-0.396,0-1.045-0.499-0.439-1.204l1.158-1.11h2.289c1.358,0,2.306,1.574,1.497,2.059l-0.63,0.348
					c-0.293,0.152-0.421,0.843,0,0.843h7.432c0.552,0,0.439-0.73,0.182-0.73c-0.758,0-0.401-1.091-0.255-1.385l1.951-3.699
					l2.743,5.313c0.18,0.335,0.341,0.5,0.663,0.5h1.05c0.333,0,0.445-0.194,0.598-0.451l3.124-5.638c0.502-1.007,0.886-1.3,1.52-1.3
					C130.408,72.956,130.586,72.298,129.958,72.298z M109.175,76.144l2.905-2.372l0.012,2.372H109.175z"/>
				<path fill="#552583" stroke="#FDB927" stroke-width="0.2468" d="M85.947,71.944c-2.614,0-5.305,1.287-5.842,4.033
					c-0.467,2.385,1.183,4.858,4.099,4.858c2.779,0,5.343-1.817,5.858-4.449C90.581,73.737,88.612,71.944,85.947,71.944z
					 M86.686,76.972c-0.828,1.651-2.215,2.632-3.099,2.191c-0.881-0.441-0.926-2.14-0.099-3.793c0.83-1.656,2.218-2.637,3.099-2.193
					C87.469,73.62,87.514,75.319,86.686,76.972z"/>
				<path fill="#552583" stroke="#FDB927" stroke-width="0.2468" d="M138.793,75.945h-3.356c-0.631,0-0.445,0.658-0.189,0.658
					c0.265,0,0.512,0.141,0.512,0.562c0,1.355-0.579,1.878-1.742,1.878c-1.277,0-1.739-1.549-0.88-3.452
					c0.548-1.212,2.002-2.35,3.728-2.35c1.057,0,1.946,0.229,2.079,1.219c0.035,0.242,0.399,0.242,0.528,0.012l0.795-1.424
					c0.091-0.152-0.048-0.335-0.293-0.349c-0.204-0.017-0.663,0.248-0.966,0.026c-0.674-0.502-2.133-0.986-3.238-0.986
					c-1.802,0-4.318,0.409-6.017,3.359c-1.537,2.67,0.701,5.492,2.776,5.496c1.154,0.003,2.491-0.853,3.258-1.174l0.858,0.58
					c0.128,0.152,0.396,0.346,0.653,0.346h0.32c0.295,0,0.411-0.402,0.525-0.658l1.318-3.188
					C139.626,76.179,139.535,75.945,138.793,75.945z"/>
				<path fill="#552583" stroke="#FDB927" stroke-width="0.2468" d="M184.781,72.518c-0.227,0.121-0.76,0.186-0.992-0.005
					c-0.593-0.495-1.764-0.874-2.377-0.874c-1.759,0-3.033,0.344-3.801,2.007c-0.651,1.413,0.02,2.595,1.572,3.316
					c0.672,0.31,1.563,0.716,1.221,1.524c-0.249,0.593-0.939,0.654-1.559,0.649c-0.831-0.01-2.083-0.634-2.281-1.812
					c-0.065-0.384-0.51-0.292-0.638-0.088l-1.065,2.112c-0.166,0.287,0.273,0.598,0.446,0.412c0.361-0.382,1.141-0.477,1.525-0.22
					c0.527,0.353,1.888,0.967,2.7,0.964c1.781-0.013,2.955-0.47,3.932-1.997c0.893-1.398,0.343-2.781-1.282-3.548
					c-0.858-0.403-1.597-1.118-1.211-1.91c0.249-0.513,1.016-0.399,1.397-0.335c0.724,0.121,1.658,0.807,1.764,1.408
					c0.045,0.257,0.374,0.306,0.515,0.074l0.56-1.302C185.335,72.638,184.922,72.437,184.781,72.518z"/>
				<path fill="#552583" stroke="#FDB927" stroke-width="0.2468" d="M161.437,77.563c-1.13,1.464-2.628,1.835-4.31,1.835h-0.473
					l2.965-5.868c0.141-0.268,0.454-0.482,0.838-0.482c0.373,0,0.328-0.74-0.159-0.74h-4.672c-0.398,0-0.538,0.74-0.167,0.74
					c0.399,0,0.47,0.441,0.28,0.813l-2.655,5.234c-0.179,0.282-0.474,0.358-0.798,0.444c-0.393,0.103-0.664,0.805-0.215,0.805h7.458
					c0.576,0,0.714-0.21,0.864-0.421l1.499-2.319C162.11,77.32,161.655,77.282,161.437,77.563z"/>
				<path fill="#552583" stroke="#FDB927" stroke-width="0.2468" d="M172.69,72.97c1.042,0,1.938,0.742,2.233,1.545
					c0.071,0.194,0.63,0.346,0.742,0.101l0.649-1.196c0.282-0.525-0.182-1.123-0.926-1.123h-8.71c-0.628,0-0.444,0.656-0.189,0.656
					c0.561,0,0.725,0.682,0.387,1.255l-2.619,4.822c-0.391,0.459-0.641,0.658-1.201,0.658c-0.45,0-0.608,0.656,0.02,0.656h8.828
					c0.358,0,0.517-0.127,0.646-0.31l1.198-1.59c0.295-0.388-0.338-0.388-0.532-0.195c-1.524,1.527-3.154,1.481-4.34,1.481h-1.027
					l1.209-2.697h0.257c0.774,0,1.668-0.01,1.903,0.581c0.064,0.137,0.447,0.25,0.603,0l1.03-2.064
					c0.166-0.303-0.3-0.361-0.422-0.138c-0.411,0.726-2.198,0.527-2.667,0.527h-0.258l1.506-2.97H172.69z"/>
			</g>
		</g>
	</g>
	<g>
		<path d="M138.385,65.925c-0.669-0.77-1.597-2.412-8.24-8.2c-9.769-8.517-22.714-12.404-34.87-12.404
			c-8.961,0-16.807,2.014-25.495,6.796C58.707,58.211,54.123,65.221,52.99,66.64c-0.836,1.05-0.957,1.661-0.413,1.974
			c0.386,0.224,1.131-0.591,1.829-1.514c3.291-4.348,7.621-8.659,12.18-11.195c1.416,0.205,3.399,2.175,4.172,3.226
			c-2.92,1.588-7.751,5.272-9.58,6.688c-1.579,1.226-2.125,1.911-1.699,2.41c0.353,0.414,1.562-0.401,2.575-1.227
			c1.751-1.439,6.952-5.126,9.527-6.512c1.751,2.05,1.186,5.843,0.566,6.665c-0.333,0.441-0.378,0.913,0,1.126
			c0.361,0.204,0.753-0.315,1.262-1.052c1.194-1.723,0.717-5.9-0.308-7.404c3.142-1.948,7.647-3.255,10.377-3.869
			c0.234,0.436,3.543,10.107,4.172,11.862c0.344,0.962,0.687,2.113,1.391,1.893c0.467-0.142,0.159-1.194-0.232-2.253
			c-0.482-1.307-2.986-9.428-3.76-11.836c0.901-0.488,6.339-1.593,7.702-1.54c-0.671,3.539,1.833,4.987,4.661,6.845
			c1.504,0.984,11.061,6.475,13.057,7.708c1.14,0.712,2.024,1.156,2.266,0.823c0.278-0.379-0.495-1.179-1.545-1.795
			c-0.836-0.49-9.728-5.646-13.444-7.993c-2.658-1.679-4.088-3.48-3.45-5.84c0.878-0.257,3.554-0.282,6.334-0.257
			c18.955,0.152,34.151,11.018,35.849,12.758c0.863,0.884,2.061,1.638,2.524,1.284C139.298,67.389,138.789,66.39,138.385,65.925z
			 M72.304,58.441c-0.508-0.856-2.918-3.053-4.223-3.483c3.039-2.254,10.097-5.486,12.775-6.05c0.462,0.77,1.698,4.051,2.108,5.431
			C80.595,54.852,74.311,57.111,72.304,58.441z M93.009,52.341c-2.473,0.154-6.955,1.128-8.55,1.588
			c-0.412-1.075-1.545-4.406-1.906-5.481c4.55-1.292,9.837-1.741,13.906-1.386C95.326,47.936,93.42,51.367,93.009,52.341z
			 M105.319,52.189c-4.111-0.291-7.468-0.411-10.403-0.104c0.85-2.14,2.549-4.144,3.862-5.022c2.799,0.114,5.691,0.523,7.985,0.977
			c7.329,1.443,18.728,5.915,23.637,12.503C123.854,56.177,112.981,52.735,105.319,52.189z"/>
		<g>
			<path d="M142.486,130.813c0.701-1.29,1.272-2.024,0.669-2.355c-0.548-0.306-1.082,0.886-1.75,2.047
				c-2.214,3.844-4.631,7.019-10.095,11.992c-6.051,5.514-13.005,8.714-15.425,9.532c-2.062-5.79-9.915-30.453-10.123-31.16
				c-0.308-1.051-0.57-1.355-0.926-1.229c-0.401,0.144-0.156,0.719,0.05,1.641c0.207,0.921,9.557,30.11,9.865,31.134
				c-1.853,0.923-9.391,3.027-14.655,3.202c-4.684,0.154-10.196,0-12.977-0.638c-3.261-2.632-10.677-13.106-13.494-18.681
				c-3.316-6.567-5.514-12.612-6.079-15.177c-0.272-1.229-0.62-2.111-1.237-1.992c-0.666,0.126-0.283,1.096,0.104,2.406
				c0.997,3.382,2.625,8.166,6.08,14.99c3.66,7.23,10.195,15.707,12.101,18.017c-5.971-1.255-13.231-4.05-20.126-9.193
				c-5.941-4.431-11.044-10.069-13.611-14.178c-0.439-0.705-0.956-1.701-1.595-1.28c-0.288,0.189,0.068,0.994,0.514,1.794
				c3.725,6.693,12.818,16.17,24.465,21.371c13.577,6.06,28.381,5.739,41.618,0.615
				C127.437,149.188,137.509,139.964,142.486,130.813z"/>
		</g>
	</g>
	<g>
		<defs>
			<ellipse id="SVGID_3_" cx="95.939" cy="101.423" rx="53.997" ry="54.814"/>
		</defs>
		<clipPath id="SVGID_4_">
			<use xlink:href="#SVGID_3_"  overflow="visible"/>
		</clipPath>
		<g clip-path="url(#SVGID_4_)">
			<path stroke="#FDB927" stroke-width="0.2468" d="M138.385,65.925c-0.669-0.77-1.597-2.412-8.24-8.2
				c-9.769-8.517-22.714-12.404-34.87-12.404c-8.961,0-16.807,2.014-25.495,6.796C58.707,58.211,54.123,65.221,52.99,66.64
				c-0.836,1.05-0.957,1.661-0.413,1.974c0.386,0.224,1.131-0.591,1.829-1.514c3.291-4.348,7.621-8.659,12.18-11.195
				c1.416,0.205,3.399,2.175,4.172,3.226c-2.92,1.588-7.751,5.272-9.58,6.688c-1.579,1.226-2.125,1.911-1.699,2.41
				c0.353,0.414,1.562-0.401,2.575-1.227c1.751-1.439,6.952-5.126,9.527-6.512c1.751,2.05,1.186,5.843,0.566,6.665
				c-0.333,0.441-0.378,0.913,0,1.126c0.361,0.204,0.753-0.315,1.262-1.052c1.194-1.723,0.717-5.9-0.308-7.404
				c3.142-1.948,7.647-3.255,10.377-3.869c0.234,0.436,3.543,10.107,4.172,11.862c0.344,0.962,0.687,2.113,1.391,1.893
				c0.467-0.142,0.159-1.194-0.232-2.253c-0.482-1.307-2.986-9.428-3.76-11.836c0.901-0.488,6.339-1.593,7.702-1.54
				c-0.671,3.539,1.833,4.987,4.661,6.845c1.504,0.984,11.061,6.475,13.057,7.708c1.14,0.712,2.024,1.156,2.266,0.823
				c0.278-0.379-0.495-1.179-1.545-1.795c-0.836-0.49-9.728-5.646-13.444-7.993c-2.658-1.679-4.088-3.48-3.45-5.84
				c0.878-0.257,3.554-0.282,6.334-0.257c18.955,0.152,34.151,11.018,35.849,12.758c0.863,0.884,2.061,1.638,2.524,1.284
				C139.298,67.389,138.789,66.39,138.385,65.925z M72.304,58.441c-0.508-0.856-2.918-3.053-4.223-3.483
				c3.039-2.254,10.097-5.486,12.775-6.05c0.462,0.77,1.698,4.051,2.108,5.431C80.595,54.852,74.311,57.111,72.304,58.441z
				 M93.009,52.341c-2.473,0.154-6.955,1.128-8.55,1.588c-0.412-1.075-1.545-4.406-1.906-5.481c4.55-1.292,9.837-1.741,13.906-1.386
				C95.326,47.936,93.42,51.367,93.009,52.341z M105.319,52.189c-4.111-0.291-7.468-0.411-10.403-0.104
				c0.85-2.14,2.549-4.144,3.862-5.022c2.799,0.114,5.691,0.523,7.985,0.977c7.329,1.443,18.728,5.915,23.637,12.503
				C123.854,56.177,112.981,52.735,105.319,52.189z"/>
			<g>
				<path stroke="#FDB927" stroke-width="0.2468" d="M142.486,130.813c0.701-1.29,1.272-2.024,0.669-2.355
					c-0.548-0.306-1.082,0.886-1.75,2.047c-2.214,3.844-4.631,7.019-10.095,11.992c-6.051,5.514-13.005,8.714-15.425,9.532
					c-2.062-5.79-9.915-30.453-10.123-31.16c-0.308-1.051-0.57-1.355-0.926-1.229c-0.401,0.144-0.156,0.719,0.05,1.641
					c0.207,0.921,9.557,30.11,9.865,31.134c-1.853,0.923-9.391,3.027-14.655,3.202c-4.684,0.154-10.196,0-12.977-0.638
					c-3.261-2.632-10.677-13.106-13.494-18.681c-3.316-6.567-5.514-12.612-6.079-15.177c-0.272-1.229-0.62-2.111-1.237-1.992
					c-0.666,0.126-0.283,1.096,0.104,2.406c0.997,3.382,2.625,8.166,6.08,14.99c3.66,7.23,10.195,15.707,12.101,18.017
					c-5.971-1.255-13.231-4.05-20.126-9.193c-5.941-4.431-11.044-10.069-13.611-14.178c-0.439-0.705-0.956-1.701-1.595-1.28
					c-0.288,0.189,0.068,0.994,0.514,1.794c3.725,6.693,12.818,16.17,24.465,21.371c13.577,6.06,28.381,5.739,41.618,0.615
					C127.437,149.188,137.509,139.964,142.486,130.813z"/>
			</g>
		</g>
	</g>
</g>
</svg>
