<svg version="1.1" id="Layer_1" xmlns="http://www.w3.org/2000/svg" xmlns:xlink="http://www.w3.org/1999/xlink" x="0px" y="0px" viewBox="0 0 200 200" enable-background="new 0 0 200 200" xml:space="preserve" preserveAspectRatio="xMidYMid">
<g>
	<path fill="#B3B2B1" d="M87.048,107.565c-2.613,0.397-4.388,0.575-4.47,0.51l25.639-39.297l0.564,5.489l2.369,23.321
		C112.324,102.735,95.375,106.289,87.048,107.565 M157.406,148.308c-0.936-0.669-2.856-2.054-6.813-4.898
		c-6.524-4.694-6.986-16.63-13.087-51.629c-1.534-8.966-7.707-44.202-10.047-56.356c-0.176-0.908-0.326-1.7-0.457-2.331h-5.404
		l-48.688,75.658h-3.313H58.269c-4.538,0-7.191-3.384-7.191-6.071c0.02-3.296,4.669-16.506,15.277-54.138
		c4.916-17.324,8.147-28.567,10.254-35.813C79.032,4.427,86.832,1.356,90.312,0.382c0.536-0.175,0-0.397,0-0.397H41.917h-2.697
		c0,0-0.613,0.223,0.011,0.538c3.222,1.651,12.325,6.703,11.21,12.149c0,0-4.223,15.639-14.378,51.597
		c-10.038,35.508-19.836,45.605-22.774,47.957c-0.568,0.457-0.006,0.624-0.006,0.624h1.855l56.213-0.057
		c-0.649,0.78-1.248,1.546-1.846,2.304c-0.863,1.109-1.691,2.197-2.456,3.265c-6.765,9.377-20.576,24.992-25.421,30.532l3.5,0.048
		H70.71l-0.326-1.943c-1.387-0.846-0.292-1.966-2.712-3.404c-1.827-1.095-3.265-2.349-3.25-4.992
		c0.009-2.859,4.05-11.465,14.778-25.809h34.461l0.266,2.304l2.116,18.281c-0.017,6.415-8.527,13.416-10.773,15.158
		c-0.348,0.264-0.008,0.406-0.008,0.406h2.192h49.942C157.395,148.941,158.28,148.941,157.406,148.308"/>
	<path fill="#003DA6" d="M36.04,148.977c10.302,31.332,38.147,50.288,62.581,50.994c0.604,0.017,1.211,0.029,1.823,0.029
		c24.292-0.005,40.582-14.227,54.086-30.069l2.252-2.635c0,0,0.295-0.408,0.786-1.106h-15.152c-0.278,0.368-0.565,0.745-0.857,1.106
		l-0.479,0.522c-11.411,12.627-23.234,18.161-33.785,18.153c-14.029,0-26.161-9.723-32.508-26.547
		c-2.905-7.707-4.258-16.79-4.258-26.572c-0.014-27.996,11.099-61.624,27.76-84.779c12.234-17.029,28.907-25.089,43.954-25.089
		c0.048,0,0.054,0,0.054,0c17.251,0.047,32.358,10.519,36.661,30.671c0.193,0.956,0.484,1.756,0.769,2.353
		c0.147,0.301,0.289,0.549,0.457,0.776c0.082,0.116,0.162,0.222,0.303,0.36c0.185,0.099,0.222,0.4,1.195,0.498
		c0.59,0.042,1.242-0.474,1.358-0.742l0.06-0.089l0.044-0.094c0.258-0.559,0.46-1.189,0.633-1.815
		c0.607-2.231,8.708-35.414,9.273-37.305c0.273-0.922,0.517-1.983,0.525-3.012v-0.063v-0.051c-0.054-0.511-0.031-0.904-0.372-1.578
		c-0.164-0.332-0.533-0.69-0.913-0.852c-0.368-0.161-0.667-0.188-0.89-0.198l-0.031-0.004h-0.04l-0.017-0.004
		c-1.628-0.073-27-0.08-44.393-0.08c-4.448,0-8.384,0.08-11.351,0.283C83.443,13.065,33.552,61.355,31.966,119.407
		c-0.028,1.087-0.051,2.167-0.051,3.245C31.915,132.175,33.401,140.979,36.04,148.977"/>
	<path fill="#DD0031" d="M81.641,107.565c-2.612,0.397-4.385,0.575-4.47,0.51l25.648-39.297l0.556,5.489l2.368,23.321
		C106.92,102.735,89.967,106.289,81.641,107.565 M152,148.308c-0.934-0.669-2.851-2.054-6.808-4.898
		c-6.524-4.694-6.988-16.63-13.087-51.629c-1.538-8.966-7.715-44.202-10.047-56.356c-0.185-0.908-0.46-2.331-0.46-2.331h-3.509
		l-50.585,75.658h-3.31H52.868c-4.541,0-7.199-3.384-7.199-6.071c0.023-3.296,4.678-16.506,15.286-54.138
		c4.904-17.324,8.141-28.567,10.256-35.813c2.42-8.302,10.214-11.373,13.697-12.347c0.54-0.175,0-0.397,0-0.397H36.513h-2.692
		c0,0-0.616,0.223,0,0.538c3.228,1.651,12.33,6.703,11.218,12.149c0,0-4.224,15.639-14.389,51.597
		c-10.03,35.508-19.824,45.605-22.766,47.957c-0.57,0.457-0.006,0.624-0.006,0.624h1.858l56.216-0.057
		c-0.649,0.78-1.257,1.546-1.849,2.304c-0.868,1.109-1.694,2.197-2.462,3.265c-7.923,10.991-21.943,26.946-24.683,30.049
		c-0.306,0.347-0.034,0.531-0.034,0.531H70.71c0,0,0.27-0.082-0.02-0.263c-0.964-0.593-3.597-2.213-8.421-5.083
		c-1.835-1.095-3.265-2.349-3.259-4.992c0.014-2.859,4.062-11.465,14.781-25.809h34.457l0.272,2.304l2.116,18.281
		c-0.017,6.415-8.527,13.416-10.779,15.158c-0.34,0.264,0,0.406,0,0.406h2.187h49.945C151.989,148.941,152.88,148.941,152,148.308"
		/>
</g>
</svg>
