<svg version="1.1" id="Layer_1" xmlns="http://www.w3.org/2000/svg" xmlns:xlink="http://www.w3.org/1999/xlink" x="0px" y="0px" viewBox="0 0 200 200" enable-background="new 0 0 200 200" xml:space="preserve" preserveAspectRatio="xMidYMid">
<g>
	<g>
		<g>
			<path fill="#22375A" d="M186.709,52.416c-0.777-1.171-1.574-2.3-2.372-3.409c19.727-32.323-26.807-57.099-43.643-29.667
				c-20.744-3.83-38.076,3.765-40.41,4.847c-2.335-1.082-19.468-8.568-40.011-4.936C39.928-9.355-2.039,20.226,16.472,48.631
				c-0.897,1.219-1.775,2.481-2.633,3.786c-26.311,40.032-6.563,67.176-6.563,67.176l4.05-4.053c0,0,5.744,27.921,36.12,46.252
				l1.098-6.021c18.71,19.97,36.042,19.528,52.158,37.773c14.939-17.293,36.601-17.293,53.476-38.857v7.639
				c31.194-15.167,34.089-48.001,34.089-48.001l2.871,5.312C191.138,119.637,213.02,92.448,186.709,52.416"/>
			<path fill="#FCB827" d="M120.569,80.78c1.456-0.531,4.029,1.02,5.407,3.697c6.343-1.835,5.984-10.361,5.963-10.958
				C126.911,75.467,122.765,78.832,120.569,80.78"/>
			<path fill="#6188B8" d="M124.279,85.828c15.319,41.247-4.189,67.751-4.189,67.751c12.027-31.486,4.291-57.654-0.975-67.396
				c-2.693,0.288-5.946,0.11-5.946,0.11s4.068-2.502,6.701-4.894c0.202-0.175,0.439-0.398,0.699-0.62l0,0
				c1.456-0.531,4.029,1.02,5.407,3.697c6.322-1.835,5.984-10.317,5.963-10.958c1.835-0.708,3.789-1.241,5.825-1.441
				C137.765,72.078,136.308,85.65,124.279,85.828 M131.939,73.518L131.939,73.518c-0.081,0.021-0.141,0.066-0.219,0.09
				C131.798,73.584,131.858,73.539,131.939,73.518z M29.736,45.755c-0.56-5.206,6.024-10.364,6.024-10.364
				c-2.714-2.789-7.441-0.376-7.441-0.376c4.288-8.39,13.904-4.293,13.904-4.293c-3.65-4.453-11.371-4.163-11.371-4.163
				c9.554-9.478,21.084,5.002,21.084,5.002C41.664,33.887,29.736,45.755,29.736,45.755z M148.473,32.58
				c0,0,6.223-15.565,25.333-11.823c0,0-17.533-11.536-29.74,9.344c0,0-17.314-8.215-43.423,3.054c0,0-24.713-8.612-43.362-3.742
				c0,0-10.869-18.864-26.187-11.093c-15.301,7.773-7.321,25.751-4.649,30.399c0,0-25.372,25.861-15.836,57.811l5.106-6.357
				c0,0,7.279,34.806,26.088,45.766l1.137-8.546c0,0,19.628,23.669,42.704,33.743c2.196,1.02,14.443,7.106,14.822,10.097V164.67
				c0,0-16.017,1.329-20.247-6.065c-2.871-5.025-21.283-37.883-12.187-72.267c0,0-8.855-1.328-10.531-16.274
				c0,0-6.602-3.21-14.819-2.546c0,0,14.699-4.607,28.444,0.709c13.763,5.336,17.452,18.885,26.768,12.907l2.75-38.214l2.633,38.214
				c9.316,5.978,13.005-7.571,26.768-12.907c13.763-5.315,28.444-0.709,28.444-0.709s-5.865-4.142-15.319-6.024
				c-7.859-1.592-19.448,3.477-19.448,3.477s1.595-10.826,6.861-16.605C135.09,43.383,145.323,42.301,148.473,32.58z
				 M100.523,121.985c1.757-0.266,29.461-1.286,12.488,15.941C124.838,122.272,103.375,122.139,100.523,121.985z"/>
			<path fill="#FCB827" d="M69.927,73.495c-0.021,0.643-0.358,9.146,5.964,10.981c1.357-2.633,3.789-4.162,5.266-3.718
				C77.765,78.146,73.538,75.223,69.927,73.495"/>
			<path fill="#BAD0E3" d="M100.465,142.817c0,2.571,0,7.839,0,7.839l-5.326,0.267c-5.585,0.175-12.906,2.458-12.906,2.458
				c-13.564-33.59-6.045-59.006-2.434-68.084c-13.423,2.924-15.599-13.219-15.599-13.219c1.378-0.287,3.433,0.332,5.726,1.417
				c-0.021,0.643-0.358,9.146,5.964,10.981c1.357-2.633,3.77-4.162,5.245-3.718c1.017,0.775,1.955,1.527,2.753,2.215
				c9.156,7.705,16.237,6.13,16.237,6.13s0.099,29.27,0.099,32.881c0,0-26.449-2.08-12.226,15.941c0,0,2.272-6.575,4.706-4.518
				C96.075,136.31,100.465,142.177,100.465,142.817 M69.948,73.518c0-0.023,0-0.023-0.021-0.023
				C69.948,73.495,69.948,73.495,69.948,73.518L69.948,73.518z M100.483,160.709c-19.348,0-16.733-4.274-16.733-4.274
				c2.094-1.283,15.617-1.55,16.694-1.55c1.077,0,14.66,0.268,16.754,1.55C117.198,156.434,119.792,160.709,100.483,160.709z"/>
		</g>
	</g>
</g>
</svg>
