<svg version="1.1" id="Layer_1" xmlns="http://www.w3.org/2000/svg" xmlns:xlink="http://www.w3.org/1999/xlink" x="0px" y="0px" viewBox="0 0 200 200" enable-background="new 0 0 200 200" xml:space="preserve" preserveAspectRatio="xMidYMid">
<g>
	<g>
		<g>
			<path fill="#231F20" d="M24.548,76.639c0.588-6.654,24.572-15.445,63.357-16.824c-3.601,2.697-7.867,7.413-8.915,15.004
				l-0.4,2.877c-0.249,1.759-0.571,3.558-1.256,5.355c-1.485,3.917-5.697,7.133-10.212,9.612c-15.6-1.979-28.65-5.254-36.269-9.392
				h-0.02C26.661,81.015,24.377,78.596,24.548,76.639 M173.517,74.64c1.485,1.64,1.391,2.697,1.351,3.037
				c-0.171,1.879-2.513,4.155-6.477,6.234l0,0c-8.287,4.355-22.553,7.653-39.527,9.392c0.742-0.479,1.562-0.899,2.439-1.259
				l0.286-0.12c4.877-1.979,10.4-4.215,10.668-12.287c0.037-1.28,0.094-5.217,0.816-6.614c0.897-1.82,3.242-4.616,5.277-5.354
				c0.04-0.02-3.427-0.68-3.427-0.68c-0.171-0.02-0.362-0.039-0.534-0.039c1.162-0.84,1.999-1.839,2.59-2.897
				C160.772,66.908,170.05,70.825,173.517,74.64z M190.451,64.511c-7.296-8.032-23.354-14.546-44.062-18.502
				c0.097-2.378,1.544-3.377,4.114-5.155c1.354-0.938,2.879-1.998,4.401-3.435c6.688-6.354-1.162-16.064-1.505-16.484l-4.303-5.254
				l1.028,6.712c0.705,4.616-0.971,6.254-6.002,9.751c-0.628,0.44-1.18,0.939-1.656,1.459c0.209-3.077,0.362-6.514-0.686-10.81
				c-1.028-4.295-3.144-6.054-3.144-6.054l-0.551,6.254c0,0.04-0.477,4.876-6.937,10.71c0.554-0.62,1.068-1.26,1.545-1.939
				c3.161-4.615,2.247-9.849,1.179-15.924l-0.228-1.258c-1.085-6.334,0.611-10.27,1.697-10.93c1.068-1.278,3.164-3.435,3.164-3.435
				s-1.106-0.5-4.232-0.08c-4.018,0.539-10.82,2.957-10.629,8.491c0.077,2.437,0.857,4.735,1.541,6.773
				c0.746,2.177,1.449,4.235,0.82,5.294c-0.494,0.84-1.979,1.518-4.323,1.938c-9.523,1.719-16.802,6.174-20.535,12.527
				c-1.219,2.099-2.038,4.356-2.459,6.714c-23.602,0.08-45.947,3.017-63.264,8.371C15.992,56.258,5.287,64.43,4.45,73.902
				C4.01,78.876,6.26,86.07,18.737,92.983l-0.094,0.079l3.541,1.697c0,0,0,0,0.02,0l1.847,0.899l0.021-0.02
				c5.754,2.559,12.496,4.774,20,6.613c-2.667,1.5-5.143,3.239-7.353,5.215c-12.076,9.912-19.03,24.615-19.03,40.281
				c0,13.924,5.429,27.031,15.278,36.903c9.869,9.848,22.974,15.283,36.901,15.283c24.67,0,46.158-17.502,51.11-41.618
				c4.208-12.608,3.735-26.115,3.543-31.229c-0.42-11.568,5.277-17.982,8.895-20.88c16.48-2.076,31.072-5.694,41.93-10.529
				l0.02,0.02l1.753-0.839c0,0,0,0,0.018,0l3.752-1.797l-0.094-0.1c8.744-4.878,13.621-10.612,14.155-16.743
				C195.307,72.162,193.803,68.206,190.451,64.511z"/>
			<path fill="#F89F1B" d="M144.561,45.67c0.343-4.676,4.78-5.534,9.066-9.611c5.489-5.234-1.656-13.947-1.656-13.947
				c0.894,5.875-1.81,8.113-6.782,11.55c-1.562,1.098-2.704,2.657-2.875,4.595c-0.172,2.157-0.306,4.517-0.783,6.894
				C142.542,45.31,143.55,45.489,144.561,45.67"/>
			<path fill="none" stroke="#F89F1B" stroke-width="0.1268" d="M144.561,45.67c0.343-4.676,4.78-5.534,9.066-9.611
				c5.489-5.234-1.656-13.947-1.656-13.947c0.894,5.875-1.81,8.113-6.782,11.55c-1.562,1.098-2.704,2.657-2.875,4.595
				c-0.172,2.157-0.306,4.517-0.783,6.894C142.542,45.31,143.55,45.489,144.561,45.67z"/>
			<path fill="#F89F1B" d="M129.415,37.537c-1.314,0.98-2.55,1.999-3.712,3.017c-0.82,0.799-1.619,1.579-2.382,2.339
				c4.838,0.42,9.543,0.959,14.078,1.618c2.876-5.275,4.267-11.248,2.55-21.419C139.949,23.092,139.55,29.985,129.415,37.537"/>
			<path fill="none" stroke="#F89F1B" stroke-width="0.1268" d="M129.415,37.537c-1.314,0.98-2.55,1.999-3.712,3.017
				c-0.82,0.799-1.619,1.579-2.382,2.339c4.838,0.42,9.543,0.959,14.078,1.618c2.876-5.275,4.267-11.248,2.55-21.419
				C139.949,23.092,139.55,29.985,129.415,37.537z"/>
			<path fill="#F89F1B" d="M102.423,41.893c5.523,0.039,10.934,0.259,16.229,0.619c0.172-0.16,0.343-0.339,0.514-0.52
				c3.563-3.796,9.049-7.013,11.982-11.288c2.936-4.276,1.754-9.491,0.668-15.824c-1.867-10.89,2.724-12.907,2.724-12.907
				s-9.221,1.279-9.029,6.594c0.228,7.153,7.601,13.885-3.507,15.904c-12.171,2.217-19.752,8.791-21.411,17.402
				C101.204,41.893,101.812,41.873,102.423,41.893"/>
			<path fill="none" stroke="#F89F1B" stroke-width="0.1268" d="M102.423,41.893c5.523,0.039,10.934,0.259,16.229,0.619
				c0.172-0.16,0.343-0.339,0.514-0.52c3.563-3.796,9.049-7.013,11.982-11.288c2.936-4.276,1.754-9.491,0.668-15.824
				c-1.867-10.89,2.724-12.907,2.724-12.907s-9.221,1.279-9.029,6.594c0.228,7.153,7.601,13.885-3.507,15.904
				c-12.171,2.217-19.752,8.791-21.411,17.402C101.204,41.893,101.812,41.873,102.423,41.893z"/>
			<path fill="#BF3038" d="M19.708,151.423c1.373,6.873,5.297,15.106,13.087,20.58c2.362,1.656,4.934,2.996,7.659,4.035
				c-1.696-2.876-3.658-5.774-5.657-8.71c-3.715-5.516-7.582-11.211-10.04-17.324c-2.533-6.333-3.218-12.968-2.116-19.619l0,0
				c-1.979,5.415-3.084,11.249-3.084,17.363C19.556,148.984,19.614,150.203,19.708,151.423"/>
			<path fill="none" stroke="#BF3038" stroke-width="0.1268" d="M19.708,151.423c1.373,6.873,5.297,15.106,13.087,20.58
				c2.362,1.656,4.934,2.996,7.659,4.035c-1.696-2.876-3.658-5.774-5.657-8.71c-3.715-5.516-7.582-11.211-10.04-17.324
				c-2.533-6.333-3.218-12.968-2.116-19.619l0,0c-1.979,5.415-3.084,11.249-3.084,17.363
				C19.556,148.984,19.614,150.203,19.708,151.423z"/>
			<path fill="#BF3038" d="M28.108,148.667c2.305,5.754,6.057,11.288,9.678,16.622c2.801,4.136,5.543,8.173,7.619,12.268
				c2.308,0.54,4.669,0.879,7.088,1.019c-2.496-3.558-4.666-7.632-6.534-12.268c-7.239-18.002-6.191-40.261,2.781-53.129
				c4.65-6.653,10.192-11.168,17.334-15.063c6.154-3.358,10.003-4.355,13.907-6.693c4.249-2.538,6.516-6.773,3.735-16.264
				c-0.82-2.797-0.971-4.975-0.8-6.694c-0.974,1.878-1.736,4.076-2.078,6.613l0.02-0.039c-0.437,2.697-0.629,5.655-1.771,8.671
				c-3.773,9.852-21.965,15.306-24.367,16.045c-6.914,2.076-12.439,5.254-16.762,9.09C25.499,119.934,23.271,136.579,28.108,148.667
				"/>
			<path fill="none" stroke="#BF3038" stroke-width="0.1268" d="M28.108,148.667c2.305,5.754,6.057,11.288,9.678,16.622
				c2.801,4.136,5.543,8.173,7.619,12.268c2.308,0.54,4.669,0.879,7.088,1.019c-2.496-3.558-4.666-7.632-6.534-12.268
				c-7.239-18.002-6.191-40.261,2.781-53.129c4.65-6.653,10.192-11.168,17.334-15.063c6.154-3.358,10.003-4.355,13.907-6.693
				c4.249-2.538,6.516-6.773,3.735-16.264c-0.82-2.797-0.971-4.975-0.8-6.694c-0.974,1.878-1.736,4.076-2.078,6.613l0.02-0.039
				c-0.437,2.697-0.629,5.655-1.771,8.671c-3.773,9.852-21.965,15.306-24.367,16.045c-6.914,2.076-12.439,5.254-16.762,9.09
				C25.499,119.934,23.271,136.579,28.108,148.667z"/>
			<path fill="#BF3038" d="M104.042,59.694c0.189,0.6,0.323,1.2,0.417,1.8c0.477,3.435-0.571,6.213-4.8,6.892
				c-4.344,0.7-5.808-3.077-6.152-6.173c-0.04-1.059,0.037-1.918,0.132-2.538c-0.723,0.02-1.448,0.02-2.17,0.04
				c-1.391,0.8-3.202,2.039-4.955,3.817c-0.857,1.857-1.905,4.436-0.302,10.47c2.838,10.649,1.636,17.082-6.917,20.758
				c-10.897,4.698-17.868,7.433-27.222,19.201c-4.438,5.594-6.877,14.867-7.276,24.195c-0.383,9.053,1.485,18.722,4.666,26.654
				c2.133,5.294,4.629,9.909,7.565,13.827c2.913-0.12,5.866-0.5,8.818-1.139c-3.238-3.818-5.106-8.434-5.449-13.627
				c-1.102-17.262,8.193-24.536,22.5-36.004l6.399-5.374c25.567-21.7,18.099-43.777,20.918-62.638
				C108.195,59.795,106.139,59.735,104.042,59.694"/>
			<path fill="none" stroke="#BF3038" stroke-width="0.1268" d="M104.042,59.694c0.189,0.6,0.323,1.2,0.417,1.8
				c0.477,3.435-0.571,6.213-4.8,6.892c-4.344,0.7-5.808-3.077-6.152-6.173c-0.04-1.059,0.037-1.918,0.132-2.538
				c-0.723,0.02-1.448,0.02-2.17,0.04c-1.391,0.8-3.202,2.039-4.955,3.817c-0.857,1.857-1.905,4.436-0.302,10.47
				c2.838,10.649,1.636,17.082-6.917,20.758c-10.897,4.698-17.868,7.433-27.222,19.201c-4.438,5.594-6.877,14.867-7.276,24.195
				c-0.383,9.053,1.485,18.722,4.666,26.654c2.133,5.294,4.629,9.909,7.565,13.827c2.913-0.12,5.866-0.5,8.818-1.139
				c-3.238-3.818-5.106-8.434-5.449-13.627c-1.102-17.262,8.193-24.536,22.5-36.004l6.399-5.374
				c25.567-21.7,18.099-43.777,20.918-62.638C108.195,59.795,106.139,59.735,104.042,59.694z"/>
			<path fill="#BF3038" d="M114.271,60.054c-0.782,3.757-1.125,7.693-1.371,11.748c-1.011,16.423-0.513,35.005-21.297,53.465
				l-6.288,5.099c-13.907,11.147-21.868,18.101-21.317,33.265c0.172,5.014,2.287,9.392,5.811,12.827
				c3.887-1.16,7.733-2.799,11.428-4.895c18.079-10.271,29.453-25.595,33.797-45.276c2.741-12.427,2.704-22.556,2.647-30.689
				c-0.02-4.095,0.514-12.168,0.514-12.168c0.571-5.094,1.411-12.228,7.316-21.577c0.191-0.3,0.379-0.62,0.591-0.92
				C122.33,60.574,118.386,60.274,114.271,60.054"/>
			<path fill="none" stroke="#BF3038" stroke-width="0.1268" d="M114.271,60.054c-0.782,3.757-1.125,7.693-1.371,11.748
				c-1.011,16.423-0.513,35.005-21.297,53.465l-6.288,5.099c-13.907,11.147-21.868,18.101-21.317,33.265
				c0.172,5.014,2.287,9.392,5.811,12.827c3.887-1.16,7.733-2.799,11.428-4.895c18.079-10.271,29.453-25.595,33.797-45.276
				c2.741-12.427,2.704-22.556,2.647-30.689c-0.02-4.095,0.514-12.168,0.514-12.168c0.571-5.094,1.411-12.228,7.316-21.577
				c0.191-0.3,0.379-0.62,0.591-0.92C122.33,60.574,118.386,60.274,114.271,60.054z"/>
			<path fill="#BF3038" d="M120.368,112.821c0-0.02,0-0.04,0-0.06c0,0.02-0.02,0.06-0.02,0.101
				c-0.551,2.938-0.705,6.233-1.068,9.552c-0.171,1.259-0.343,2.476-0.513,3.654c-0.075,0.341-0.132,0.68-0.209,1.001
				c-4.572,20.72-16.383,36.842-35.376,47.631c-3.258,1.859-6.573,3.378-9.906,4.558c5.583,3.695,12.059,4.834,16.534,4.154
				c17.07-2.558,25.375-13.687,29.375-25.594c4.115-12.209,3.658-25.256,3.467-30.65c-0.649-18.041,13.298-24.675,13.298-24.675
				C125.111,101.892,121.547,106.627,120.368,112.821"/>
			<path fill="none" stroke="#BF3038" stroke-width="0.1268" d="M120.368,112.821c0-0.02,0-0.04,0-0.06c0,0.02-0.02,0.06-0.02,0.101
				c-0.551,2.938-0.705,6.233-1.068,9.552c-0.171,1.259-0.343,2.476-0.513,3.654c-0.075,0.341-0.132,0.68-0.209,1.001
				c-4.572,20.72-16.383,36.842-35.376,47.631c-3.258,1.859-6.573,3.378-9.906,4.558c5.583,3.695,12.059,4.834,16.534,4.154
				c17.07-2.558,25.375-13.687,29.375-25.594c4.115-12.209,3.658-25.256,3.467-30.65c-0.649-18.041,13.298-24.675,13.298-24.675
				C125.111,101.892,121.547,106.627,120.368,112.821z"/>
			<path fill="#BF3038" d="M108.974,179.337c-6.97,5.834-14.495,7.111-17.924,7.631c-6.706,1.019-14.67-0.561-21.698-6.114
				c-0.114-0.1-0.228-0.18-0.342-0.281c-3.01,0.801-6.02,1.34-9.03,1.6c6.877,7.393,15.943,11.588,28.097,12.407
				c0.057,0,0.114,0,0.154,0h0.018c8.269-3.235,15.488-8.612,20.937-15.443C109.108,179.216,109.051,179.276,108.974,179.337"/>
			<path fill="none" stroke="#BF3038" stroke-width="0.1268" d="M108.974,179.337c-6.97,5.834-14.495,7.111-17.924,7.631
				c-6.706,1.019-14.67-0.561-21.698-6.114c-0.114-0.1-0.228-0.18-0.342-0.281c-3.01,0.801-6.02,1.34-9.03,1.6
				c6.877,7.393,15.943,11.588,28.097,12.407c0.057,0,0.114,0,0.154,0h0.018c8.269-3.235,15.488-8.612,20.937-15.443
				C109.108,179.216,109.051,179.276,108.974,179.337z"/>
			<path fill="#BF3038" d="M45.483,191.744c0.134-3.798-0.934-7.532-2.667-11.271c-4.19-1.197-8.267-2.996-12.211-5.394
				c-2.21-1.34-4.209-3.396-5.962-5.314c-0.02,0-0.02-0.02-0.037-0.02c4.532,9.312,11.868,17.003,20.878,22.017V191.744"/>
			<path fill="none" stroke="#BF3038" stroke-width="0.1268" d="M45.483,191.744c0.134-3.798-0.934-7.532-2.667-11.271
				c-4.19-1.197-8.267-2.996-12.211-5.394c-2.21-1.34-4.209-3.396-5.962-5.314c-0.02,0-0.02-0.02-0.037-0.02
				c4.532,9.312,11.868,17.003,20.878,22.017V191.744z"/>
			<path fill="#BF3038" d="M80.267,196.939c-6.799-1.58-12.611-3.998-17.717-7.873c-2.61-1.979-4.991-4.215-7.162-6.733
				c-2.744-0.04-5.486-0.3-8.193-0.82c1.505,3.898,2.267,7.853,1.773,11.988c0,0.02,0,0.02,0,0.02
				c6.382,2.898,13.45,4.534,20.898,4.534c3.601,0,7.105-0.376,10.477-1.095C80.323,196.959,80.307,196.939,80.267,196.939"/>
			<path fill="none" stroke="#BF3038" stroke-width="0.1268" d="M80.267,196.939c-6.799-1.58-12.611-3.998-17.717-7.873
				c-2.61-1.979-4.991-4.215-7.162-6.733c-2.744-0.04-5.486-0.3-8.193-0.82c1.505,3.898,2.267,7.853,1.773,11.988
				c0,0.02,0,0.02,0,0.02c6.382,2.898,13.45,4.534,20.898,4.534c3.601,0,7.105-0.376,10.477-1.095
				C80.323,196.959,80.307,196.939,80.267,196.939z"/>
			<path fill="#BF3038" d="M138.733,73.342c-1.163,3.935-5.031,3.457-6.154,1.357c-1.773-3.357-1.085-5.933,0.763-7.691
				c1.848-1.78,4.857-2.717,7.79-4.037c0.02-0.019,0.038-0.019,0.038-0.019c-3.39-0.58-6.991-1.098-10.8-1.558
				c-0.057,0.06-0.114,0.12-0.171,0.181c-0.343,0.377-0.685,0.778-1.011,1.177c-6.057,9.111-6.819,15.884-7.41,21.079l-0.189,1.599
				c-0.342,2.736-0.325,6.174-0.285,10.149c0,0.559,0,1.119,0,1.699c-0.04,1.379-0.097,2.756-0.154,4.094
				c0.02,0,0.057,0.021,0.077,0.021c0.037-0.56,0.077-0.779,0.077-0.48c1.713-5.474,4.857-8.79,9.295-10.608
				c4.82-1.938,9.563-3.735,9.792-10.728c0.094-2.917,0.306-5.834,0.971-7.333c1.22-2.697,3.392-3.417,3.392-3.417
				C142.408,68.605,139.855,69.586,138.733,73.342"/>
			<path fill="none" stroke="#BF3038" stroke-width="0.1268" d="M138.733,73.342c-1.163,3.935-5.031,3.457-6.154,1.357
				c-1.773-3.357-1.085-5.933,0.763-7.691c1.848-1.78,4.857-2.717,7.79-4.037c0.02-0.019,0.038-0.019,0.038-0.019
				c-3.39-0.58-6.991-1.098-10.8-1.558c-0.057,0.06-0.114,0.12-0.171,0.181c-0.343,0.377-0.685,0.778-1.011,1.177
				c-6.057,9.111-6.819,15.884-7.41,21.079l-0.189,1.599c-0.342,2.736-0.325,6.174-0.285,10.149c0,0.559,0,1.119,0,1.699
				c-0.04,1.379-0.097,2.756-0.154,4.094c0.02,0,0.057,0.021,0.077,0.021c0.037-0.56,0.077-0.779,0.077-0.48
				c1.713-5.474,4.857-8.79,9.295-10.608c4.82-1.938,9.563-3.735,9.792-10.728c0.094-2.917,0.306-5.834,0.971-7.333
				c1.22-2.697,3.392-3.417,3.392-3.417C142.408,68.605,139.855,69.586,138.733,73.342z"/>
			<path fill="#FFFFFF" d="M102.383,44.73c-51.033-0.5-93.61,12.688-95.078,29.43c-0.608,6.674,5.431,12.909,16.117,18.023
				c6.59,3.155,14.972,5.895,24.689,8.05c1.922-0.857,3.961-1.636,6.094-2.276c1.696-0.52,4.82-1.539,8.25-3.038
				c-14.286-2.076-25.852-5.275-32.977-9.13c-5.257-2.838-8.076-6.033-7.77-9.39c0.991-11.249,36.709-20.021,79.797-19.601
				c43.091,0.419,77.21,9.89,76.2,21.139c-0.266,3.058-3.104,5.934-7.982,8.492c-9.01,4.735-24.898,8.37-44.214,10.069
				c-0.668,0.9-1.24,1.919-1.733,3.078c8.78-3.337,18.896,1.576,18.896,1.576s0.687,0.261,1.162,0.6
				c12.802-2.296,23.813-5.534,32.063-9.469c9.752-4.655,15.677-10.251,16.211-16.304C193.594,59.236,153.419,45.23,102.383,44.73"
				/>
		</g>
	</g>
</g>
</svg>
