<svg version="1.1" id="Layer_1" xmlns="http://www.w3.org/2000/svg" xmlns:xlink="http://www.w3.org/1999/xlink" x="0px" y="0px" viewBox="0 0 200 200" enable-background="new 0 0 200 200" xml:space="preserve" preserveAspectRatio="xMidYMid">
<g>
	<polygon fill="#AC162C" points="95.784,186.632 99.067,194.26 102.35,186.632 	"/>
	<path fill="#AC162C" d="M119.582,77.125c-0.368,1.843-0.95,3.366-1.348,4.274c0.444,1.721,0.675,3.148,0.675,4.218
		c0,1.344-0.303,2.354-0.877,3.042c0.01,0.023,0.026,0.055,0.026,0.055c0.808,1.697,1.217,4.243,1.217,7.571
		c0,0.941-0.04,1.91-0.108,2.884c4.073,3.272,5.118,7.502,5.374,9.163c3.486,2.903,5.704,5.915,6.947,7.91h1.157l20.952-48.68
		h-18.091C129.474,76.145,123.021,77.264,119.582,77.125"/>
	<path fill="#AC162C" d="M73.61,108.33c0.255-1.658,1.3-5.888,5.373-9.163c-0.068-0.98-0.108-1.952-0.108-2.884
		c0-3.326,0.41-5.872,1.218-7.575c0,0,0.021-0.042,0.025-0.051c-0.575-0.688-0.875-1.698-0.875-3.042
		c0-1.07,0.232-2.496,0.673-4.218c-0.397-0.904-0.979-2.428-1.348-4.274c-3.437,0.139-9.89-0.98-15.924-9.565H44.533l20.954,48.68
		h1.177C67.907,114.245,70.123,111.231,73.61,108.33"/>
	<path fill="#C4CED4" d="M99.074,99.057c-0.236,0.007-0.909,0.027-1.716,0.211C98.144,99.102,98.851,99.064,99.074,99.057"/>
	<path fill="#C4CED4" d="M100.791,99.268c-0.807-0.184-1.478-0.204-1.715-0.211C99.298,99.064,100.007,99.102,100.791,99.268"/>
	<path fill="#C4CED4" d="M163.58,116.24h-28.446l21.936-50.965h-21.028c1.311-2.117,2.592-4.625,3.807-7.604
		c0.107-0.209,0.593-1.299-0.043-2.267c-0.294-0.462-0.92-0.998-2.282-0.935c-0.191,0.023-4.724,0.549-10.034,2.18l-0.053,0.01
		c5.033-3.199,11.323-7.903,15.451-13.537c0.15-0.183,3.71-4.583,3.946-11c0-0.045,0.008-0.152,0.007-0.311
		c-0.029-2.946-1.057-21.151-20.433-30.876c0.055,0.075,8.428,10.489,11.299,19.416c-0.958-0.605-2.135-1.235-3.458-1.787
		c-0.979-2.278-7.761-16.711-20.25-18.548c0.067,0.053,8.043,6.201,12.911,15.771c-2.72-1.145-9.23-2.295-15.438-2.216
		c0.049,0.021,11.954,4.672,17.781,8.543c0.38,1.256,1.351,4.904,1.351,9.458c0,6.797-2.278,15.503-11.866,21.047
		c0.014-0.403,0.04-0.81,0.04-1.275c0-5.286-1.631-17.576-15.677-21.205c0.074,0.085,8.938,8.881,8.788,18.496
		c-0.033,2.294-0.499,4.713-1.663,7.125c-1.71-0.569-6.092-1.461-10.451-1.471c-0.182,0-0.158-0.001-0.404,0h-0.291H98.64
		c-0.249-0.001-0.432,0-0.61,0c-4.361,0.01-8.391,0.901-10.102,1.471c-1.165-2.412-1.63-4.831-1.664-7.125
		c-0.149-9.615,8.713-18.411,8.786-18.496c-14.04,3.629-15.675,15.919-15.675,21.205c0,0.464,0.028,0.872,0.04,1.275
		c-9.589-5.544-11.866-14.25-11.866-21.047c0-4.554,0.971-8.202,1.351-9.458c5.83-3.871,17.733-8.523,17.782-8.543
		c-6.21-0.079-12.717,1.072-15.441,2.216c4.87-9.57,12.847-15.718,12.912-15.771c-12.487,1.837-19.271,16.27-20.25,18.548
		c-1.319,0.552-2.499,1.182-3.458,1.787c2.871-8.927,11.244-19.341,11.299-19.416c-19.373,9.725-20.403,27.93-20.432,30.876
		c-0.002,0.159,0.006,0.266,0.006,0.311c0.238,6.416,3.799,10.817,3.945,11c4.127,5.633,10.419,10.337,15.451,13.537l-0.053-0.01
		c-5.307-1.631-9.842-2.157-10.032-2.18c-1.362-0.063-1.985,0.473-2.283,0.935c-0.632,0.968-0.147,2.058-0.039,2.267
		c1.213,2.978,2.493,5.487,3.803,7.604H41.061l21.936,50.965H34.55l-8.628,12.328v45.741l8.628,12.323h58.746l5.771,13.413
		l5.773-13.413h58.74l8.629-12.323v-45.741L163.58,116.24z M132.644,116.24h-1.157c-1.243-1.995-3.461-5.007-6.947-7.91
		c-0.256-1.661-1.301-5.891-5.374-9.163c0.069-0.974,0.108-1.943,0.108-2.884c0-3.328-0.408-5.874-1.217-7.571
		c0,0-0.015-0.032-0.026-0.055c0.574-0.688,0.877-1.698,0.877-3.042c0-1.07-0.232-2.496-0.675-4.218
		c0.398-0.908,0.98-2.431,1.348-4.274c3.439,0.139,9.892-0.98,15.923-9.565h18.091L132.644,116.24z M44.533,67.56h18.111
		c6.034,8.585,12.487,9.704,15.924,9.565c0.369,1.846,0.951,3.37,1.348,4.274c-0.441,1.721-0.673,3.148-0.673,4.218
		c0,1.344,0.299,2.354,0.875,3.042c-0.004,0.009-0.025,0.051-0.025,0.051c-0.808,1.703-1.218,4.249-1.218,7.575
		c0,0.932,0.041,1.904,0.108,2.884c-4.073,3.275-5.118,7.505-5.373,9.163c-3.487,2.9-5.703,5.915-6.945,7.91h-1.177L44.533,67.56z
		 M99.067,194.26l-3.282-7.628h6.565L99.067,194.26z M169.924,173.585l-7.534,10.761H35.74l-7.534-10.761v-44.299l7.534-10.76
		h29.675h2.414c0.862-1.616,3.247-5.506,7.822-9.099c0,0,0.227-5.729,5.576-9.294c0,0-0.748-7.217,0.82-10.49
		c0,0,4.091,1.863,5.721,8.558l0.518-1.344c0,0,0.152-4.541-6.397-9.443c0,0-1.258-0.816,0.299-6.248c0,0-1.556-2.979-1.776-6.472
		c0,0-12.127,3.868-20.904-17.624c0,0-0.669-1.336,0.969-1.258c0,0,4.536,0.516,9.885,2.153c0,0,4.316,0.966,7.142,3.793
		c0,0,1.133,1.378,2.677,2.009c0,0,1.161,0.46,1.901-0.723c0.179-0.287,0.72-1.617-2.792-3.076c0,0-15.396-7.358-22.984-17.7
		c0,0-1.81-2.392-2.877-5.716c-0.439-1.366-0.755-2.892-0.763-4.475c-0.001-0.214,0-0.443,0.006-0.688
		c0.113-5.252,1.953-17.294,14.245-25.89c0,0-7.269,8.961-8.599,18.11c0,0,2.597-2.459,6.622-4.018c0,0,4.611-11.756,14.199-16.662
		c0,0-6.911,5.875-10.336,15.099c0,0,7.217-2.605,10.189-2.526c0,0-4.91,1.783-11.226,5.726c0,0-8.118,23.798,13.236,33.834
		c0,0-2.974-15.242,9.817-21.932c0,0-10.486,12.194-3.565,24.309c0,0,1.323-0.568,3.557-1.069c1.744-0.425,4.639-0.793,7.27-0.801
		h0.587h0.41h0.263h0.383c2.629,0.008,5.87,0.376,7.612,0.799c2.237,0.501,3.56,1.071,3.56,1.071
		c6.924-12.115-3.562-24.309-3.562-24.309c12.788,6.69,9.815,21.932,9.815,21.932c21.355-10.036,13.237-33.834,13.237-33.834
		c-6.317-3.943-11.225-5.726-11.225-5.726c2.973-0.079,10.186,2.526,10.186,2.526c-3.422-9.225-10.333-15.099-10.333-15.099
		c9.587,4.906,14.199,16.662,14.199,16.662c4.022,1.559,6.622,4.018,6.622,4.018c-1.331-9.149-8.599-18.11-8.599-18.11
		c12.292,8.597,14.133,20.642,14.245,25.893c0.008,0.243,0.009,0.472,0.008,0.685c-0.011,1.583-0.326,3.109-0.764,4.475
		c-1.068,3.325-2.88,5.716-2.88,5.716c-7.588,10.342-22.983,17.7-22.983,17.7c-3.513,1.46-2.97,2.789-2.792,3.076
		c0.74,1.183,1.9,0.723,1.9,0.723c1.544-0.631,2.674-2.009,2.674-2.009c2.829-2.828,7.148-3.793,7.148-3.793
		c5.347-1.637,9.883-2.153,9.883-2.153c1.638-0.078,0.97,1.258,0.97,1.258c-8.776,21.493-20.904,17.624-20.904,17.624
		c-0.219,3.493-1.777,6.472-1.777,6.472c1.558,5.432,0.299,6.248,0.299,6.248c-6.549,4.902-6.397,9.443-6.397,9.443l0.518,1.344
		c1.631-6.695,5.721-8.558,5.721-8.558c1.569,3.273,0.819,10.49,0.819,10.49c5.352,3.565,5.577,9.294,5.577,9.294
		c4.575,3.592,6.961,7.482,7.823,9.099h2.412h29.655l7.534,10.76V173.585z"/>
	<polygon fill="#2B5134" points="51.185,134.309 47.769,134.299 47.769,148.217 51.185,148.217 	"/>
	<polygon fill="#2B5134" points="51.185,157.273 47.769,157.273 47.769,168.646 51.185,168.629 	"/>
	<polygon fill="#2B5134" points="100.666,123.648 100.644,123.648 99.522,126.692 101.75,126.692 	"/>
	<path fill="#2B5134" d="M162.39,118.527h-29.655h-2.412c-0.862-1.616-3.248-5.506-7.823-9.099c0,0-0.224-5.729-5.577-9.294
		c0,0,0.75-7.217-0.819-10.49c0,0-4.09,1.863-5.721,8.558l-0.518-1.344c0,0-0.152-4.541,6.397-9.443c0,0,1.259-0.816-0.299-6.248
		c0,0,1.558-2.979,1.777-6.472c0,0,12.128,3.868,20.904-17.624c0,0,0.668-1.336-0.97-1.258c0,0-4.536,0.516-9.883,2.153
		c0,0-4.319,0.966-7.148,3.793c0,0-1.13,1.378-2.674,2.009c0,0-1.16,0.46-1.9-0.723c-0.178-0.287-0.721-1.617,2.792-3.076
		c0,0,15.395-7.358,22.983-17.7c0,0,1.812-2.392,2.88-5.716c0.438-1.366,0.753-2.892,0.764-4.475c0.002-0.214,0-0.442-0.008-0.685
		c-0.112-5.251-1.953-17.296-14.245-25.893c0,0,7.268,8.961,8.599,18.11c0,0-2.599-2.459-6.622-4.018
		c0,0-4.611-11.756-14.199-16.662c0,0,6.911,5.875,10.333,15.099c0,0-7.213-2.605-10.186-2.526c0,0,4.908,1.783,11.225,5.726
		c0,0,8.117,23.798-13.237,33.834c0,0,2.974-15.242-9.815-21.932c0,0,10.486,12.194,3.562,24.309c0,0-1.324-0.569-3.56-1.071
		c-1.743-0.423-4.983-0.791-7.612-0.799h-0.383h-0.263h-0.41h-0.587c-2.631,0.008-5.526,0.376-7.27,0.801
		c-2.234,0.501-3.557,1.069-3.557,1.069c-6.921-12.115,3.565-24.309,3.565-24.309C78.027,39.821,81,55.062,81,55.062
		C59.647,45.026,67.764,21.228,67.764,21.228c6.316-3.943,11.226-5.726,11.226-5.726c-2.972-0.079-10.189,2.526-10.189,2.526
		C72.226,8.803,79.137,2.928,79.137,2.928C69.549,7.834,64.938,19.59,64.938,19.59c-4.025,1.559-6.622,4.018-6.622,4.018
		c1.331-9.149,8.599-18.11,8.599-18.11c-12.292,8.596-14.132,20.638-14.245,25.89c-0.006,0.245-0.007,0.475-0.006,0.688
		c0.009,1.583,0.324,3.109,0.763,4.475c1.067,3.325,2.877,5.716,2.877,5.716c7.589,10.342,22.984,17.7,22.984,17.7
		c3.513,1.46,2.971,2.789,2.792,3.076c-0.74,1.183-1.901,0.723-1.901,0.723c-1.543-0.631-2.677-2.009-2.677-2.009
		c-2.826-2.828-7.142-3.793-7.142-3.793c-5.349-1.637-9.885-2.153-9.885-2.153c-1.639-0.078-0.969,1.258-0.969,1.258
		c8.777,21.493,20.904,17.624,20.904,17.624c0.219,3.493,1.776,6.472,1.776,6.472c-1.556,5.432-0.299,6.248-0.299,6.248
		c6.549,4.902,6.397,9.443,6.397,9.443l-0.518,1.344c-1.629-6.695-5.721-8.558-5.721-8.558c-1.567,3.273-0.82,10.49-0.82,10.49
		c-5.349,3.565-5.576,9.294-5.576,9.294c-4.575,3.592-6.96,7.482-7.822,9.099h-2.414H35.74l-7.534,10.76v44.299l7.534,10.761h126.65
		l7.534-10.761v-44.299L162.39,118.527z M134.743,24.611c5.367,3.651,4.851,8.77,4.851,8.77c-0.766,6.237-5.039,8.85-5.039,8.85
		c1.013-3.03,1.242-8.757,1.242-8.757C135.797,28.564,134.743,24.611,134.743,24.611 M58.557,33.382c0,0-0.516-5.119,4.85-8.77
		c0,0-1.056,3.952-1.056,8.864c0,0,0.233,5.727,1.247,8.757C63.597,42.232,59.322,39.619,58.557,33.382 M163.681,132.132v6.117
		v0.858l-8.922,6.847v-2.693v-9.353h-3.911v9.655l12.823,10.344v1.137V171.6v0.547l-0.304,0.456l-3.463,5.183l-0.536,0.803h-0.964
		H146.74h-0.979l-0.535-0.825l-3.379-5.177l-0.294-0.449V171.6v-2.949v-3.266l8.953-6.582v2.914v6.975h3.829v-9.67l-12.818-10.472
		v-1.128v-15.166v-0.571l0.323-0.465l4.315-6.118l0.539-0.77h0.941h9.724h0.907l0.542,0.729l4.513,5.993l0.36,0.477V132.132z
		 M108.622,177.803c0,0-0.539,0.787-0.546,0.787h-0.952H95.538h-0.982l-0.536-0.828l-3.454-5.334l-0.29-0.444v-0.538v-29.554v-0.564
		l0.316-0.463l4.288-6.218l0.538-0.783h0.95h9.718h0.898l0.542,0.716l4.585,6.039l0.37,0.486v0.608v2.436v0.861l-0.67,0.542
		l-5.789,4.688l-2.944,2.388v-3.791v-5.387h-3.402v25.163h3.402v-6.503v-3.789l2.944,2.386l5.79,4.693l0.669,0.54v0.863v4.806v0.557
		l-0.316,0.463L108.622,177.803z M87.133,172.015l-0.322,0.465l-3.694,5.332l-0.538,0.777h-0.948h-11.1H69.6l-0.543-0.765
		l-3.782-5.325l-0.333-0.472v-0.577v-27.994h-0.492l-0.357-1.345l-1.582-5.995l-0.599-2.268h2.346h9.465h1.809v1.805v5.995v1.809
		h-1.189v25.165h3.391v-25.165h-1.158v-1.809v-5.995v-1.805h1.808h9.076h2.236l-0.467,2.183l-1.283,5.996l-0.305,1.43h-0.508v27.994
		V172.015z M126.192,164.325l-1.198,2.284v2.01h1.316v1.805v6.355c0,0,0,1.811-0.006,1.811h-1.809h-9.81h-2.281l0.521-2.223
		l1.5-6.356l0.329-1.392h0.842v-25.161h-0.559l-0.342-1.372l-1.497-5.996l-0.561-2.244h2.314h9.419h1.807v1.809v5.995
		c0,0,0,1.809-0.005,1.809h-1.177v5.279l2.761-5.298v-1.79v-5.995v-1.809h1.81h7.235h1.809v1.809v5.995v1.809h-1.526l-5.565,10.7
		l6.423,14.461h0.262h1.807v1.805v6.355v1.811h-1.807h-8.211h-1.809v-1.811v-6.355v-1.269L126.192,164.325z M85.835,128.366v1.536
		h-6.079V121.6h1.889v6.765H85.835z M85.425,121.6h1.891l1.36,5.651h0.023l1.493-5.651h1.77l1.469,5.721h0.023l1.41-5.721h1.855
		l-2.313,8.302h-1.877l-1.459-5.653h-0.022l-1.432,5.653h-1.912L85.425,121.6z M99.706,121.6h1.937l3.212,8.302h-1.961l-0.647-1.85
		H99.03l-0.675,1.85h-1.913L99.706,121.6z M71.471,124.019h-0.024l-2.105,5.883h-1.458l-2.106-5.823h-0.024v5.823h-1.769V121.6
		h2.661l2.008,5.709h0.024l1.902-5.709h2.659v8.302h-1.769V124.019z M77.519,129.902h-1.89V121.6h1.89V129.902z M137.02,124.912
		v1.42h-4.167v2.033h4.634v1.536h-6.525V121.6h6.43v1.535h-4.539v1.777H137.02z M123.177,129.902V121.6h6.428v1.535h-4.54v1.777
		h4.165v1.42h-4.165v2.033h4.635v1.536H123.177z M121.837,129.902h-2.277l-2.962-4.208h-0.026l0.004,4.208h-1.888v-8.296h1.884
		v3.603h0.03l3.483-3.603l0.576-0.005h1.557l-3.78,3.736L121.837,129.902z M105.556,121.6h1.888v5.161
		c0,0.908,0.242,1.804,1.77,1.804c1.346,0,1.781-0.572,1.781-1.804V121.6h1.89v5.161c0,2.244-1.375,3.335-3.672,3.335
		c-2.31,0-3.658-1.077-3.658-3.335V121.6z M36.348,133.981l-3.271-0.008l7.326-9.627h0.881h12.891h0.891l0.542,0.704l4.601,5.969
		l0.376,0.489v0.615v15.162v0.503l-0.263,0.435l-2.431,3.999l2.185,2.327l0.487,0.518l0.001,0.716l0.02,15.666l0.001,0.572
		l-0.328,0.47l-3.73,5.324l-0.539,0.775h-0.942H41.284h-0.882l-0.544-0.7l-6.795-8.714l5.302,0.016v-35.207L36.348,133.981z
		 M116.65,107.193c1.261,0.797,1.98,1.637,1.98,1.637c-0.003,0.001-0.003,0.004-0.005,0.004c0.376,0.172,0.759,0.341,0.88,0.397
		c-0.074,5.208-3.082,8.1-4.727,9.295h-0.405c0.112-0.123,0.236-0.26,0.37-0.418c0.959-1.131,1.677-2.214,2.272-4.35h-0.887
		c-1.305,1.87-2.405,2.655-2.405,2.655s-0.258-0.147-0.501-0.647C116.349,112.001,116.596,107.54,116.65,107.193 M113.512,78.635
		c-2.311,2.236-5.51,1.338-5.51,1.338c0.671,2.159,0.153,2.678,0.153,2.678c-0.53-1.78-2.313-3.564-2.313-3.564
		c2.16-3.649,2.085-6.25,2.085-6.25c3.497-0.297,5.129-1.633,5.129-1.633l1.042,0.443C116.478,75.591,113.512,78.635,113.512,78.635
		 M101.975,95.15l0.15-0.525c2.233,0.371,2.831,0.898,2.831,0.898c2.905-4.392,0.073-8.599,0.073-8.599
		c-3.27-0.89-3.943-3.148-3.943-3.148h-2.009h-0.002h-2.01c0,0-0.672,2.258-3.942,3.148c0,0-2.831,4.207,0.073,8.599
		c0,0,0.595-0.526,2.829-0.898l0.15,0.525c0,0-1.935,0.594-3.204,1.932c0,0-1.853-0.671-2.596-5.507c0,0-0.083-4.313,2.003-5.874
		c0,0,3.202-0.668,4.239-4.014h2.458h0.002h2.455c1.039,3.346,4.242,4.014,4.242,4.014c2.087,1.562,2.001,5.874,2.001,5.874
		c-0.74,4.835-2.595,5.507-2.595,5.507C103.914,95.743,101.975,95.15,101.975,95.15 M103.244,99.312l-0.444,0.781
		c-0.655-0.43-1.373-0.679-2.009-0.825c-0.784-0.166-1.493-0.204-1.715-0.211h-0.002c-0.223,0.007-0.93,0.045-1.716,0.211
		c-0.635,0.147-1.354,0.396-2.006,0.825l-0.445-0.781c0,0,1.573-1.129,4.167-1.184C101.669,98.181,103.244,99.312,103.244,99.312
		 M101.601,90.614c0.94-0.489,2.052-1.826,2.052-1.826c0.227,3.231-1.529,3.763-1.529,3.763
		C101.678,91.909,101.601,90.614,101.601,90.614 M96.549,90.614c0,0-0.08,1.295-0.525,1.937c0,0-1.753-0.533-1.525-3.763
		C94.499,88.788,95.608,90.125,96.549,90.614 M134.033,60.196c-5.194,13.783-15.173,12.298-16.182,11.997
		c0.134-0.486-0.228-3.676-0.348-3.934c2.563-0.727,3.925,0.549,3.925,0.549v-0.034C127.13,59.302,133.774,59.991,134.033,60.196
		 M108.823,60.864c0.815,2.417,3.303,3.91,3.303,3.91c-2.781,0.625-4.646-2.422-4.646-2.422L108.823,60.864z M89.327,60.864
		l1.343,1.488c0,0-1.865,3.047-4.651,2.422C86.02,64.774,88.512,63.281,89.327,60.864 M64.116,60.196
		c0.263-0.205,6.904-0.894,12.609,8.578v0.034c0,0,1.359-1.276,3.924-0.549c-0.12,0.258-0.486,3.447-0.351,3.934
		C79.289,72.494,69.312,73.979,64.116,60.196 M84.635,78.635c0,0-2.964-3.044-0.583-6.988l1.042-0.443c0,0,1.633,1.336,5.132,1.633
		c0,0-0.077,2.602,2.081,6.25c0,0-1.784,1.785-2.311,3.564c0,0-0.517-0.52,0.153-2.678C90.148,79.973,86.949,80.871,84.635,78.635
		 M89.962,100.274c4.868,6.104,7.66,5.914,7.66,5.914c0.331-0.037,0.872-0.056,1.452-0.066c0.579,0.009,1.123,0.028,1.454,0.066
		c0,0,2.794,0.19,7.661-5.914l1.744,2.123c0,0-0.015,0.011-0.036,0.037c-4.765,6.472-1.288,14.764-1.288,14.764
		c-2.431,0.505-4.454,0.968-5.963,1.33h-9.586c1.288-1.933,3.189-3.155,3.189-3.155L94.829,114
		c-0.925,0.293-2.487,1.297-2.487,1.297l-0.115-1.044l1.714-0.955l-1.864-1.27c-0.557-6.251-3.861-9.631-3.861-9.631L89.962,100.274
		z M79.523,108.831c0,0,0.715-0.841,1.978-1.637c0.055,0.346,0.301,4.808,3.427,8.574c-0.244,0.499-0.502,0.647-0.502,0.647
		S81.501,114.334,79.523,108.831"/>
	<path fill="#AC162C" d="M87.133,143.457h0.508l0.305-1.43l1.283-5.996l0.467-2.183h-2.236h-9.076h-1.808v1.805v5.995v1.809h1.158
		v25.165h-3.391v-25.165h1.189v-1.809v-5.995v-1.805h-1.809h-9.465h-2.346l0.599,2.268l1.582,5.995l0.357,1.345h0.492v27.994v0.577
		l0.333,0.472l3.782,5.325l0.543,0.765h0.931h11.1h0.948l0.538-0.777l3.694-5.332l0.322-0.465v-0.564V143.457z M85.331,171.451
		l-3.696,5.327h-0.005H70.538H70.53l-3.78-5.327v-29.803h-0.003h-0.903h-0.003l-1.584-5.995h9.465v3.002l0.005,2.992h-0.005h-1.184
		v28.78h7.003v-28.78h-1.15h-0.008v-5.995h9.071h0.005l-1.271,5.995h-0.009h-0.848V171.451z"/>
	<path fill="#AC162C" d="M33.063,169.175l6.795,8.714l0.544,0.7h0.882h13.764h0.942l0.539-0.775l3.73-5.324l0.328-0.47l-0.001-0.572
		l-0.02-15.666l-0.001-0.716l-0.487-0.518l-2.185-2.327l2.431-3.999l0.263-0.435v-0.503v-15.162v-0.615l-0.376-0.489l-4.601-5.969
		l-0.542-0.704h-0.891H41.284h-0.881l-7.326,9.627l3.271,0.008l2.017,0.004v35.207L33.063,169.175z M36.35,132.468l4.934-6.314
		h12.891l4.603,5.969v15.162l-3.144,5.17l3.123,3.331h0.006l0.015,15.665l-3.73,5.327H41.284l-4.882-6.27l3.769-0.007v-38.026
		L36.35,132.468z"/>
	<path fill="#AC162C" d="M45.961,170.467l7.03-0.044v-14.959h-7.03V170.467z M47.769,157.273h3.416v11.356l-3.416,0.017V157.273z"/>
	<path fill="#AC162C" d="M52.991,150.029v-17.527l-7.03-0.015v17.542H52.991z M47.769,134.299l3.416,0.009v13.909h-3.416V134.299z"
		/>
	<path fill="#AC162C" d="M128.184,176.778v1.811h1.809h8.211h1.807v-1.811v-6.355v-1.805h-1.807h-0.262l-6.423-14.461l5.565-10.7
		h1.526v-1.809v-5.995v-1.809H136.8h-7.235h-1.81v1.809v5.995v1.79l-2.761,5.298v-5.279h1.177c0.005,0,0.005-1.809,0.005-1.809
		v-5.995v-1.809h-1.807h-9.419h-2.314l0.561,2.244l1.497,5.996l0.342,1.372h0.559v25.161h-0.842l-0.329,1.392l-1.5,6.356
		l-0.521,2.223h2.281h9.81h1.809c0.006,0,0.006-1.811,0.006-1.811v-6.355v-1.805h-1.316v-2.01l1.198-2.284l1.991,4.83v1.269V176.778
		z M126.389,160.053l-3.021,5.769l-0.181,0.343v4.259h1.307h0.008v0.005l0.002-0.005v6.355h-0.002h-0.008h-9.81l1.499-6.355h1.222
		v-28.775h-0.005h-0.951h-0.005l0.004-0.007l-1.496-5.988h9.414h0.005v0.004l0.004-0.004v5.995h-0.004h-0.005h-1.171v14.459
		l-0.006,0.006v0.004l7.538-14.469h-0.245h-0.914h-0.042l0.042-0.072v-5.923h7.235v0.007l0.005-0.007v5.995H136.8h-0.81h-0.001
		l-0.508,0.975l-5.963,11.467l7.251,16.334h1.435v6.355h-8.211v-6.355h0.671L126.389,160.053z"/>
	<path fill="#AC162C" d="M112.481,172.167v-0.557v-4.806v-0.863l-0.669-0.54l-5.79-4.693l-2.944-2.386v3.789v6.503h-3.402V143.45
		h3.402v5.387v3.791l2.944-2.388l5.789-4.688l0.67-0.542v-0.861v-2.436v-0.608l-0.37-0.486l-4.585-6.039l-0.542-0.716h-0.898h-9.718
		h-0.95l-0.538,0.783l-4.288,6.218l-0.316,0.463v0.564v29.554v0.538l0.29,0.444l3.454,5.334l0.536,0.828h0.982h11.586h0.952
		c0.007,0,0.546-0.787,0.546-0.787l3.543-5.172L112.481,172.167z M107.13,176.778h-0.005H95.541h-0.003l-3.456-5.332v-29.554
		l4.286-6.221h9.718l4.587,6.043v2.436l-5.79,4.688v-7.196h-7.016v11.323h0.015v17.455h7.001v-8.309l5.79,4.694v4.806
		L107.13,176.778z"/>
	<path fill="#AC162C" d="M158.808,125.06l-0.542-0.729h-0.907h-9.724h-0.941l-0.539,0.77l-4.315,6.118l-0.323,0.465v0.571v15.166
		v1.128l12.818,10.472v9.67h-3.829v-6.975v-2.914l-8.953,6.582v3.266v2.949v0.538l0.294,0.449l3.379,5.177l0.535,0.825h0.979h11.664
		h0.964l0.536-0.803l3.463-5.183l0.304-0.456V171.6v-16.557v-1.137l-12.823-10.344v-9.655h3.911v9.353v2.693l8.922-6.847v-0.858
		v-6.117v-0.602l-0.36-0.477L158.808,125.06z M161.873,138.248l-5.714,4.661h0l0-0.002v-10.804l-0.005-0.005h-7.112v12.6
		l12.819,10.346V171.6l-3.458,5.178H146.74l-3.379-5.178v-5.253l5.746-4.631v4.593l0.004-0.001v4.188l-0.004,0.003l0,0h7.033h0.003
		v-12.603v-0.003l-0.003,0.003l-12.822-10.474l0.003-0.001v-15.165l4.314-6.115h9.724l4.514,5.991V138.248z"/>
	<polygon fill="#FFFFFF" points="80.377,173.45 82.374,171.007 82.374,138.188 79.547,141.648 79.542,141.648 79.542,170.428 
		72.539,170.428 70.781,171.897 69.531,170.123 69.671,138.299 66.754,141.648 66.75,141.648 66.75,171.451 70.53,176.778 
		70.538,176.778 71.777,173.45 	"/>
	<polygon fill="#FFFFFF" points="79.777,138.191 82.374,138.188 84.262,138.188 87.459,135.654 87.455,135.654 78.384,135.654 
		78.384,141.648 78.392,141.648 	"/>
	<polygon fill="#FFFFFF" points="69.671,138.299 72.332,138.305 73.721,135.661 73.723,138.656 73.723,135.654 64.258,135.654 
		65.842,141.648 65.845,141.648 67.676,138.299 	"/>
	<polygon fill="#C4CED4" points="72.332,138.305 69.671,138.299 69.531,170.123 70.781,171.897 72.539,170.428 72.539,141.648 
		73.723,141.648 73.728,141.648 73.723,138.656 73.721,135.661 	"/>
	<polygon fill="#C4CED4" points="85.331,141.648 86.179,141.648 86.189,141.648 87.459,135.654 84.262,138.188 82.374,138.188 
		82.374,171.007 80.377,173.45 71.777,173.45 70.538,176.778 81.631,176.778 81.635,176.778 85.331,171.451 	"/>
	<polygon fill="#C4CED4" points="82.374,138.188 79.777,138.191 78.392,141.648 79.542,141.648 79.547,141.648 	"/>
	<polygon fill="#C4CED4" points="69.671,138.299 67.676,138.299 65.845,141.648 66.748,141.648 66.75,141.648 66.754,141.648 	"/>
	<path fill="#FFFFFF" d="M36.402,170.508l4.882,6.27l1.711-3.27l10.927,0.103l1.927-2.588v-15.232l2.908-0.007l-3.123-3.331
		l3.144-5.17l-3.15,5.17l-2.432-0.138l2.588-4.436l-0.118-15.746l3.113-0.011l-4.603-5.969H41.284l-4.934,6.314l3.821,0.007v38.026
		L36.402,170.508z M43.091,129.101l10.123,0.055l1.495,1.871l-1.713,1.475l-7.035-0.015l7.03,0.015v17.527h-7.03l-2.87,2.445
		l10.054,0.078l1.773,2.218l-1.922,0.695h-0.005v14.959l-7.03,0.044l-3.032,2.874l0.163-20.867V129.101z M36.443,132.468
		l6.605-3.417l0.007-0.007l0.012-0.002l-0.019,0.009l-2.872,3.425L36.443,132.468z"/>
	<polygon fill="#C4CED4" points="55.849,171.024 53.922,173.612 42.995,173.508 41.284,176.778 55.048,176.778 58.778,171.451 
		58.763,155.785 58.757,155.785 55.849,155.793 	"/>
	<polygon fill="#C4CED4" points="55.784,147.88 53.196,152.317 55.628,152.454 58.778,147.284 58.778,132.123 55.665,132.134 	"/>
	<polygon fill="#C4CED4" points="45.961,132.488 52.996,132.503 54.709,131.028 53.214,129.157 43.091,129.101 43.091,152.474 
		45.961,150.029 	"/>
	<polygon fill="#C4CED4" points="45.961,170.467 45.961,155.464 52.991,155.464 52.996,155.464 54.918,154.77 53.145,152.552 
		43.091,152.474 42.929,173.341 	"/>
	<polygon fill="#C4CED4" points="43.055,129.043 43.048,129.05 43.067,129.041 	"/>
	<polygon fill="#C4CED4" points="43.048,129.05 36.443,132.468 40.176,132.475 	"/>
	<polygon fill="#FFFFFF" points="129.993,170.423 129.993,176.778 131.42,173.937 136.563,173.862 138.204,170.423 136.769,170.423 
		134.883,173.862 127.784,157.368 123.368,165.822 126.389,160.053 130.663,170.423 	"/>
	<polygon fill="#FFFFFF" points="120.16,173.638 120.387,165.243 133.243,141.799 133.395,138.015 134.984,138.015 136.8,135.661 
		136.8,135.654 129.566,135.654 129.566,141.577 131.401,137.99 133.388,138.015 130.48,141.648 130.725,141.648 123.187,156.117 
		123.187,156.113 120.322,161.46 120.168,138.033 117.399,141.648 117.404,141.648 117.404,170.423 116.182,170.423 
		114.684,176.778 117.667,173.638 	"/>
	<polygon fill="#FFFFFF" points="122.592,173.638 124.502,170.428 124.502,170.423 124.494,170.423 123.187,170.423 120.16,173.638 
			"/>
	<polygon fill="#FFFFFF" points="120.182,138.015 122.138,138.015 124.369,135.658 124.369,135.654 124.364,135.654 114.95,135.654 
		116.447,141.641 118.302,138.013 	"/>
	<polygon fill="#FFFFFF" points="129.517,154.09 135.481,142.623 129.507,154.065 	"/>
	<polygon fill="#C4CED4" points="134.883,173.862 136.769,170.423 129.517,154.09 129.507,154.065 135.481,142.623 135.989,141.648 
		135.99,141.648 136.8,141.648 136.805,141.648 136.805,135.654 136.8,135.661 134.984,138.015 133.395,138.015 133.243,141.799 
		120.387,165.243 120.16,173.638 123.187,170.423 123.187,166.165 123.368,165.822 127.784,157.368 	"/>
	<polygon fill="#C4CED4" points="120.16,173.638 117.667,173.638 114.684,176.778 124.494,176.778 124.502,176.778 124.504,176.778 
		124.504,170.423 124.502,170.428 122.592,173.638 	"/>
	<polygon fill="#C4CED4" points="131.42,173.937 129.993,176.778 138.204,176.778 138.204,170.423 136.563,173.862 	"/>
	<polygon fill="#C4CED4" points="120.322,161.46 123.187,156.113 123.193,156.108 123.193,141.648 124.364,141.648 124.369,141.648 
		124.374,141.648 124.374,135.654 124.369,135.658 122.138,138.015 120.182,138.015 118.302,138.013 116.447,141.641 
		116.443,141.648 116.448,141.648 117.399,141.648 120.168,138.033 	"/>
	<polygon fill="#C4CED4" points="131.401,137.99 129.566,141.577 129.524,141.648 129.566,141.648 130.48,141.648 133.388,138.015 	
		"/>
	<polygon fill="#FFFFFF" points="107.125,176.778 107.13,176.778 110.673,171.61 	"/>
	<polygon fill="#FFFFFF" points="106.144,173.766 107.504,171.651 107.504,167.344 110.673,166.804 104.883,162.11 104.883,170.419 
		97.882,170.419 97.882,170.428 96.124,171.897 94.873,170.123 94.939,155.037 94.854,142.312 97.207,138.454 105.312,138.454 
		106.714,140.068 104.883,141.641 104.883,148.837 107.734,143.37 107.734,141.72 110.673,141.714 106.086,135.671 96.368,135.671 
		92.083,141.892 92.083,171.446 95.538,176.778 95.541,176.778 96.74,173.766 	"/>
	<polygon fill="#C4CED4" points="105.312,138.454 97.207,138.454 94.854,142.312 94.939,155.037 94.873,170.123 96.124,171.897 
		97.882,170.428 97.882,170.419 97.882,152.964 97.867,152.964 97.867,141.641 104.883,141.641 106.714,140.068 	"/>
	<polygon fill="#C4CED4" points="107.734,143.37 104.883,148.837 110.673,144.15 110.673,141.714 107.734,141.72 	"/>
	<polygon fill="#C4CED4" points="110.673,166.804 107.504,167.344 107.504,171.651 106.144,173.766 96.74,173.766 95.541,176.778 
		107.125,176.778 110.673,171.61 	"/>
	<polygon fill="#FFFFFF" points="158.842,156.441 161.861,155.044 149.042,144.698 146.38,145.939 	"/>
	<path fill="#FFFFFF" d="M156.159,142.909l5.714-4.661L156.159,142.909z"/>
	<polygon fill="#FFFFFF" points="147.635,126.14 143.321,132.256 143.321,147.421 146.38,145.939 146.38,132.128 148.346,129.008 
		156.729,129.008 158.016,130.506 156.159,132.098 156.154,132.098 156.159,132.104 156.159,142.907 159.006,137.458 
		159.006,132.134 161.873,132.132 157.359,126.14 	"/>
	<polygon fill="#FFFFFF" points="157.33,173.431 158.842,170.966 158.842,156.441 156.144,157.893 156.144,157.896 156.144,170.498 
		156.141,170.498 149.107,170.498 149.107,170.505 149.099,170.501 147.327,171.984 146.27,170.17 146.261,169.369 146.266,169.369 
		146.266,166.971 149.107,161.716 143.361,166.348 143.361,171.6 146.74,176.778 147.788,173.431 	"/>
	<polygon fill="#C4CED4" points="146.266,169.369 146.261,169.369 146.27,170.17 147.327,171.984 149.099,170.501 149.107,170.505 
		149.107,170.498 149.107,170.498 149.111,170.496 149.111,166.308 149.107,166.309 149.107,161.716 146.266,166.971 	"/>
	<polygon fill="#C4CED4" points="158.842,170.966 157.33,173.431 147.788,173.431 146.74,176.778 158.404,176.778 161.861,171.6 
		161.861,155.044 158.842,156.441 	"/>
	<polygon fill="#C4CED4" points="146.38,145.939 143.321,147.421 143.318,147.422 156.141,157.896 156.144,157.893 158.842,156.441 
			"/>
	<polygon fill="#C4CED4" points="158.016,130.506 156.729,129.008 148.346,129.008 146.38,132.128 146.38,145.939 149.042,144.698 
		149.042,132.098 156.154,132.098 156.159,132.098 	"/>
	<polygon fill="#C4CED4" points="159.006,137.458 156.159,142.907 156.158,142.909 156.159,142.909 161.873,138.248 
		161.873,132.132 159.006,132.134 	"/>
	<polygon fill="#FFFFFF" points="73.24,121.6 70.581,121.6 68.678,127.309 68.654,127.309 66.646,121.6 63.984,121.6 
		63.984,129.902 65.753,129.902 65.753,124.079 65.777,124.079 67.884,129.902 69.342,129.902 71.447,124.019 71.471,124.019 
		71.471,129.902 73.24,129.902 	"/>
	<rect x="75.629" y="121.6" fill="#FFFFFF" width="1.89" height="8.302"/>
	<polygon fill="#FFFFFF" points="79.756,121.6 79.756,129.902 85.835,129.902 85.835,128.366 81.645,128.366 81.645,121.6 	"/>
	<polygon fill="#FFFFFF" points="89.616,129.902 91.048,124.249 91.07,124.249 92.529,129.902 94.405,129.902 96.718,121.6 
		94.863,121.6 93.454,127.322 93.431,127.322 91.962,121.6 90.192,121.6 88.699,127.252 88.676,127.252 87.316,121.6 85.425,121.6 
		87.703,129.902 	"/>
	<path fill="#FFFFFF" d="M99.03,128.052h3.216l0.647,1.85h1.961l-3.212-8.302h-1.937l-3.264,8.302h1.913L99.03,128.052z
		 M100.644,123.648h0.022l1.085,3.044h-2.228L100.644,123.648z"/>
	<path fill="#FFFFFF" d="M109.214,130.097c2.297,0,3.672-1.09,3.672-3.335V121.6h-1.89v5.161c0,1.232-0.436,1.804-1.781,1.804
		c-1.529,0-1.77-0.897-1.77-1.804V121.6h-1.888v5.161C105.556,129.019,106.904,130.097,109.214,130.097"/>
	<polygon fill="#FFFFFF" points="129.701,129.902 129.701,128.366 125.065,128.366 125.065,126.333 129.23,126.333 129.23,124.912 
		125.065,124.912 125.065,123.136 129.606,123.136 129.606,121.6 123.177,121.6 123.177,129.902 	"/>
	<polygon fill="#FFFFFF" points="137.393,123.136 137.393,121.6 130.963,121.6 130.963,129.902 137.488,129.902 137.488,128.366 
		132.854,128.366 132.854,126.333 137.02,126.333 137.02,124.912 132.854,124.912 132.854,123.136 	"/>
	<polygon fill="#FFFFFF" points="120.662,121.601 120.086,121.606 116.602,125.209 116.573,125.209 116.573,121.606 
		114.689,121.606 114.689,129.902 116.577,129.902 116.573,125.693 116.598,125.693 119.56,129.902 121.837,129.902 
		118.439,125.337 122.219,121.601 	"/>
	<path fill="#C4CED4" d="M63.407,24.611c-5.366,3.651-4.85,8.77-4.85,8.77c0.765,6.237,5.04,8.85,5.04,8.85
		c-1.014-3.03-1.247-8.757-1.247-8.757C62.35,28.564,63.407,24.611,63.407,24.611 M59.898,33.236
		c-0.002-0.034-0.005-0.115-0.005-0.262c0-0.683,0.159-2.482,1.425-4.4c-0.172,1.413-0.319,3.087-0.319,4.901
		c0.01,0.166,0.098,2.065,0.355,4.251C60.699,36.561,60.122,35.091,59.898,33.236"/>
	<path fill="#2B5134" d="M90.968,78.563c-1.568-2.531-1.641-4.98-1.641-4.98c-2.301-0.219-4.167-1.043-4.167-1.043
		c-1.482,2.751-0.14,4.316-0.14,4.316C86.654,79.973,90.968,78.563,90.968,78.563"/>
	<path fill="#FFFFFF" d="M90.671,62.352l-1.343-1.488c-0.815,2.417-3.308,3.91-3.308,3.91
		C88.805,65.399,90.671,62.352,90.671,62.352"/>
	<path fill="#FFFFFF" d="M90.148,79.973c-0.67,2.159-0.153,2.678-0.153,2.678c0.527-1.78,2.311-3.564,2.311-3.564
		c-2.158-3.649-2.081-6.25-2.081-6.25c-3.499-0.297-5.132-1.633-5.132-1.633l-1.042,0.443c-2.38,3.944,0.583,6.988,0.583,6.988
		C86.949,80.871,90.148,79.973,90.148,79.973 M85.02,76.856c0,0-1.342-1.565,0.14-4.316c0,0,1.866,0.824,4.167,1.043
		c0,0,0.073,2.449,1.641,4.98C90.968,78.563,86.654,79.973,85.02,76.856"/>
	<path fill="#FFFFFF" d="M107.775,91.575c0,0,0.085-4.313-2.001-5.874c0,0-3.203-0.668-4.242-4.014h-2.455h-0.002h-2.458
		c-1.037,3.346-4.239,4.014-4.239,4.014c-2.086,1.562-2.003,5.874-2.003,5.874c0.744,4.835,2.596,5.507,2.596,5.507
		c1.269-1.339,3.204-1.932,3.204-1.932l-0.15-0.525c-2.234,0.371-2.829,0.898-2.829,0.898c-2.904-4.392-0.073-8.599-0.073-8.599
		c3.27-0.89,3.942-3.148,3.942-3.148h2.01h0.002h2.009c0,0,0.673,2.258,3.943,3.148c0,0,2.832,4.207-0.073,8.599
		c0,0-0.599-0.526-2.831-0.898l-0.15,0.525c0,0,1.939,0.594,3.205,1.932C105.18,97.082,107.034,96.411,107.775,91.575"/>
	<path fill="#FFFFFF" d="M94.499,88.788c-0.228,3.231,1.525,3.763,1.525,3.763c0.445-0.642,0.525-1.937,0.525-1.937
		C95.608,90.125,94.499,88.788,94.499,88.788"/>
	<path fill="#FFFFFF" d="M80.648,68.259c-2.565-0.727-3.924,0.549-3.924,0.549v-0.034c-5.704-9.472-12.346-8.783-12.609-8.578
		c5.196,13.783,15.173,12.298,16.181,11.997C80.162,71.706,80.528,68.517,80.648,68.259"/>
	<path fill="#FFFFFF" d="M84.928,115.768c-3.125-3.767-3.371-8.228-3.427-8.574c-1.263,0.797-1.978,1.637-1.978,1.637
		c1.978,5.503,4.903,7.584,4.903,7.584S84.684,116.267,84.928,115.768"/>
	<path fill="#C4CED4" d="M139.594,33.382c0,0,0.516-5.119-4.851-8.77c0,0,1.054,3.952,1.054,8.864c0,0-0.229,5.727-1.242,8.757
		C134.555,42.232,138.828,39.619,139.594,33.382 M136.831,28.574c1.266,1.919,1.427,3.717,1.427,4.4
		c0,0.147-0.004,0.227-0.005,0.262c-0.228,1.856-0.802,3.325-1.457,4.49c0.258-2.186,0.342-4.084,0.352-4.251
		C137.147,31.66,137.003,29.986,136.831,28.574"/>
	<path fill="#2B5134" d="M108.823,73.582c0,0-0.074,2.449-1.64,4.98c0,0,4.313,1.41,5.948-1.707c0,0,1.341-1.565-0.142-4.316
		C112.988,72.54,111.122,73.363,108.823,73.582"/>
	<path fill="#FFFFFF" d="M112.127,64.774c0,0-2.488-1.493-3.303-3.91l-1.343,1.488C107.481,62.352,109.346,65.399,112.127,64.774"/>
	<path fill="#FFFFFF" d="M113.055,71.204c0,0-1.632,1.336-5.129,1.633c0,0,0.075,2.602-2.085,6.25c0,0,1.784,1.785,2.313,3.564
		c0,0,0.518-0.52-0.153-2.678c0,0,3.199,0.899,5.51-1.338c0,0,2.966-3.044,0.586-6.988L113.055,71.204z M113.131,76.856
		c-1.635,3.117-5.948,1.707-5.948,1.707c1.566-2.531,1.64-4.98,1.64-4.98c2.298-0.219,4.165-1.043,4.165-1.043
		C114.471,75.291,113.131,76.856,113.131,76.856"/>
	<path fill="#FFFFFF" d="M103.653,88.788c0,0-1.112,1.337-2.052,1.826c0,0,0.077,1.295,0.523,1.937
		C102.124,92.551,103.88,92.018,103.653,88.788"/>
	<path fill="#FFFFFF" d="M94.907,99.312l0.445,0.781c0.652-0.43,1.371-0.679,2.006-0.825c0.807-0.184,1.479-0.204,1.716-0.211h0.002
		c0.236,0.007,0.908,0.027,1.715,0.211c0.636,0.147,1.354,0.396,2.009,0.825l0.444-0.781c0,0-1.575-1.131-4.17-1.184
		C96.48,98.183,94.907,99.312,94.907,99.312"/>
	<path fill="#FFFFFF" d="M121.428,68.774v0.034c0,0-1.362-1.276-3.925-0.549c0.12,0.258,0.482,3.447,0.348,3.934
		c1.009,0.301,10.988,1.786,16.182-11.997C133.774,59.991,127.13,59.302,121.428,68.774"/>
	<path fill="#FFFFFF" d="M113.723,116.414c0,0,1.1-0.785,2.405-2.655h0.887c-0.595,2.136-1.313,3.218-2.272,4.35
		c-0.133,0.157-0.258,0.294-0.37,0.418h0.405c1.644-1.195,4.652-4.087,4.727-9.295c-0.121-0.056-0.504-0.225-0.88-0.397
		c0.003,0,0.003-0.003,0.005-0.004c0,0-0.719-0.841-1.98-1.637c-0.054,0.346-0.301,4.808-3.428,8.574
		C113.465,116.267,113.723,116.414,113.723,116.414"/>
	<path fill="#FFFFFF" d="M93.942,113.298l-1.714,0.955l0.115,1.044c0,0,1.562-1.004,2.487-1.297l1.418,1.372
		c0,0-1.901,1.222-3.189,3.155h9.586c1.509-0.362,3.533-0.825,5.963-1.33c0,0-3.476-8.292,1.288-14.764
		c0.021-0.026,0.036-0.037,0.036-0.037l-1.744-2.123c-4.868,6.104-7.661,5.914-7.661,5.914c-0.332-0.037-0.876-0.056-1.454-0.066
		c-0.581,0.009-1.121,0.028-1.452,0.066c0,0-2.792,0.19-7.66-5.914l-1.745,2.123c0,0,3.304,3.381,3.861,9.631L93.942,113.298z"/>
	<path fill="#C4CED4" d="M143.541,43.603c-0.01,0.015-0.019,0.027-0.029,0.039c0.001-0.002,0.006-0.009,0.01-0.013
		C143.528,43.62,143.536,43.613,143.541,43.603"/>
	<path fill="#C4CED4" d="M54.608,43.603c0.005,0.007,0.01,0.016,0.018,0.023c0.003,0.004,0.007,0.01,0.01,0.012
		C54.626,43.626,54.616,43.614,54.608,43.603"/>
</g>
</svg>
