<svg version="1.1" id="Layer_1" xmlns="http://www.w3.org/2000/svg" xmlns:xlink="http://www.w3.org/1999/xlink" x="0px" y="0px" viewBox="0 0 200 200" enable-background="new 0 0 200 200" xml:space="preserve" preserveAspectRatio="xMidYMid">
<g>
	<path fill="#FFFFFF" d="M60.333,58.068c0.048-0.072,0.086-0.144,0.134-0.219c0,0.003-0.006,0.01-0.009,0.011
		C60.413,57.929,60.378,57.996,60.333,58.068z"/>
	<path fill="#FFFFFF" d="M66.361,50.162c-0.141,0.182-0.282,0.434-0.461,0.873c0.185-0.448,0.326-0.699,0.467-0.88L66.361,50.162z"
		/>
	<path fill="#FFFFFF" d="M59.796,58.996c-0.013,0.034-0.032,0.059-0.051,0.094c0.096-0.17,0.189-0.337,0.294-0.514
		c-0.006,0.005-0.013,0.01-0.016,0.013C59.946,58.732,59.87,58.862,59.796,58.996z"/>
	<path fill="#FFFFFF" d="M65.887,150.824L65.887,150.824c-0.022,0.058-3.42,10.02-0.515,23.392l0.003-0.006
		C62.464,160.799,65.887,150.824,65.887,150.824z"/>
	<path fill="#FFFFFF" d="M59.242,85.374c-3.375-2.188-7.467-4.241-8.833-2.887C51.772,81.139,55.867,83.185,59.242,85.374z"/>
	<path fill="#FFFFFF" d="M69.397,169.085c0.029,0.698,0.32,6.501,2.495,13.27c0.038,0.08,0.077,0.166,0.121,0.25
		c-0.041-0.077-0.083-0.17-0.118-0.25C69.717,175.579,69.425,169.782,69.397,169.085z"/>
	<path fill="#FFFFFF" d="M59.319,59.868c-0.032,0.064-0.067,0.125-0.102,0.189c0.102-0.198,0.214-0.401,0.333-0.621
		c-0.006,0.01-0.01,0.022-0.016,0.032C59.457,59.606,59.39,59.737,59.319,59.868z"/>
	<path fill="#FFFFFF" d="M62.003,153.569c0.496-4.7,1.708-7.793,2.969-10.593C63.712,145.776,62.499,148.869,62.003,153.569z"/>
	<path fill="#FFFFFF" d="M58.644,61.192c-0.051,0.11-0.096,0.202-0.141,0.293c-0.026,0.056-0.051,0.109-0.074,0.157
		c-0.042,0.09-0.071,0.155-0.099,0.214c-0.016,0.037-0.032,0.066-0.042,0.091c-0.029,0.064-0.045,0.098-0.048,0.102
		c0,0,0,0.006,0,0.01c0,0,0.208-0.483,0.605-1.275c-0.022,0.048-0.051,0.101-0.07,0.144C58.724,61.023,58.686,61.109,58.644,61.192z
		"/>
	<path fill="#FFFFFF" d="M68.021,48.424c0.141,0.082,0.355,0.19,0.601,0.31c-0.246-0.118-0.461-0.229-0.595-0.31
		c-1.353-0.83-2.665,0.542-2.665,0.542S66.674,47.597,68.021,48.424z"/>
	<path fill="#FFFFFF" d="M58.939,60.594c-0.026,0.066-0.058,0.125-0.09,0.184c0.09-0.181,0.192-0.379,0.301-0.587
		c-0.01,0.019-0.022,0.042-0.032,0.061C59.05,60.373,58.996,60.484,58.939,60.594z"/>
	<path fill="#005083" d="M135.246,55.416c-0.384-0.394-0.745-0.79-1.133-1.182c-2.914-2.852-5.823-5.415-8.724-7.758
		c-8.59,3.708-18.207,9.138-28.326,16.668c2.335,2.662,4.812,5.403,7.291,7.988c0,0,7.397,0.536,9.786,0.891
		c1.536,0.226,3.241,0.926,5.007,1.899C123.469,65.156,128.697,58.58,135.246,55.416z"/>
	<path fill="#005083" d="M120.875,24.242c-0.515,3.548-2.691,6.769-6.418,9.618c3.798,2.27,7.665,4.885,11.572,7.942
		c10.701-4.354,19.953-6.134,26.86-5.883c-9.307-7.696-20.302-13.392-32.356-16.455C120.929,20.847,121.137,22.449,120.875,24.242z"
		/>
	<path fill="#005083" d="M129.637,44.741c2.431,2.043,4.853,4.245,7.284,6.633c0.854,0.832,1.651,1.696,2.464,2.55
		c14.153-3.54,27.954,3.986,37.475,14.486c-4.213-10.234-10.394-19.448-18.111-27.169c-0.166-0.162-0.345-0.321-0.509-0.486
		C152.915,38.945,142.693,39.753,129.637,44.741z"/>
	<path fill="#005083" d="M88.912,37.231c6.737-0.974,12.761-1.846,17.115-3.322c-16.997-8.516-31.79-9.817-40.121-9.689
		c-9.23,4.162-17.57,9.943-24.656,17.021c-7.8,7.804-14.025,17.14-18.245,27.507C34.468,53.239,49.834,45.881,64.543,41.86
		c1.475-2.374,3.218-4.348,3.717-4.898c0,0,0.918-0.942,1.625-1.123c0.704-0.179,2.403,0.131,2.403,0.131
		c4.008,1.06,5.982,1.971,7.025,2.724C82.67,38.129,85.892,37.662,88.912,37.231z"/>
	<path fill="#005083" d="M116.905,23.658c0.288-1.995-0.323-3.865-1.177-5.248c-5.096-0.977-10.353-1.507-15.734-1.507
		c-8.504,0.003-16.687,1.28-24.391,3.642c9.319,0.963,21.566,3.802,35.021,11.119C114.364,29.207,116.489,26.518,116.905,23.658z"/>
	<path fill="#005083" d="M110.577,36.325c-4.968,2.523-12.464,3.633-21.089,4.875c-2.534,0.365-5.182,0.749-7.883,1.181
		c1.11,2.439,1.891,4.405,2.24,5.327l0.777,0.819c1.273,1.344,5.058,6.038,9.802,11.57c9.607-7.181,18.856-12.579,27.34-16.437
		C117.982,40.838,114.243,38.406,110.577,36.325z"/>
	<path fill="#005083" d="M138.166,58.511c-6.36,2.494-11.456,8.791-15.686,17.508c3.311,2.307,6.596,5.195,9.204,7.579
		c2.774,2.527,8.939,8.019,14.38,12.973c1.401-3.34,2.275-5.669,2.275-5.669c-1.903,0.318-4.77-0.318-4.77-0.318
		c2.537-4.432,5.02-9.665,7.086-14.368C147.278,70.068,143.176,64.094,138.166,58.511z"/>
	<path fill="#005083" d="M48.621,122.261h-4.005l4.044,11.738c4.584-9.536,8.187-19.23,8.187-19.23
		c2.467,6.564,5.448,12.186,7.262,15.353c0.237-2.895,0.15-6.386-0.451-10.845c-0.787-5.807-3.119-10.746-4.61-13.907
		c-0.617-1.321-1.248-2.527-1.875-3.642c-4.319,5.402-7.918,10.514-10.88,15.262C47.677,120.144,48.621,122.261,48.621,122.261z"/>
	<path fill="#005083" d="M142.504,57.374c3.919,4.541,7.268,9.295,10.164,14.16c2.009-4.805,3.295-8.268,3.295-8.268
		c3.813,10.161,11.834,28.092,11.834,28.092h-4.005l3.647,10.551c4.578-9.541,8.193-19.246,8.193-19.246
		c1.491,3.981,4.409,9.892,7.409,15.61c-0.122-6.102-0.902-12.032-2.268-17.736C173.389,67.316,158.308,54.804,142.504,57.374z"/>
	<path fill="#005083" d="M18.293,84.94c-0.889,4.887-1.382,9.914-1.385,15.062c0.006,11.978,2.553,23.332,7.099,33.604
		c2.866-6.357,5.151-11.799,5.151-11.799c-1.903,0.317-4.764-0.32-4.764-0.32c6.35-11.114,12.394-27.323,12.394-27.323
		c1.948,5.203,5,12.43,7.515,18.259c2.962-4.52,6.472-9.332,10.602-14.388c-3.602-5.387-6.814-8.244-8.021-12.059
		c-1.014-3.244,0.125-5.068,1.699-5.941c0.291-1.668,1.51-5.491,6.494-8.9c-0.585-2.606-0.899-5.781-0.541-9.767
		c0.493-5.47,2.15-7.707,3.183-9.422c1.702-2.801,3.199-4.386,4.009-5.127C44.952,52.052,28.367,62.202,18.293,84.94z"/>
	<path fill="#FFFFFF" d="M70.788,39.462c0,0-3.989,3.265-4.248,6.245c0,0,2.732-3.721,4.549-4.116
		c1.315-0.296,3.305-0.242,4.578,1.326c0.79,0.972,4.047,4.474,4.047,4.474s-1.577-3.676-2.598-5.687
		C76.387,40.279,70.788,39.462,70.788,39.462z"/>
	<path fill="#FFFFFF" d="M70.312,49.463c-0.291-0.12-1.078-0.446-1.689-0.728c-0.246-0.12-0.461-0.229-0.601-0.31
		c-1.347-0.827-2.659,0.542-2.659,0.542s-0.041,0.029-0.109,0.08c-0.496,0.37-2.585,2.014-4.309,4.853
		c-1.968,3.242-2.582,7.395-2.703,8.16v-0.01c0.003-0.005,0.019-0.038,0.048-0.102c0.01-0.026,0.026-0.054,0.042-0.091
		c0.029-0.059,0.058-0.125,0.099-0.214c0.022-0.048,0.048-0.101,0.074-0.157c0.045-0.091,0.089-0.182,0.141-0.293
		c0.042-0.083,0.08-0.169,0.131-0.264c0.019-0.043,0.048-0.096,0.07-0.144c0,0,0.003-0.003,0.003-0.006
		c0.032-0.059,0.064-0.118,0.09-0.184c0.058-0.11,0.112-0.221,0.179-0.342c0.01-0.019,0.022-0.042,0.032-0.061
		c0.019-0.045,0.048-0.09,0.067-0.134c0.035-0.064,0.07-0.125,0.102-0.189c0.07-0.131,0.137-0.262,0.214-0.4
		c0.006-0.01,0.01-0.022,0.016-0.032c0.061-0.112,0.131-0.232,0.195-0.346c0.019-0.035,0.038-0.061,0.051-0.094
		c0.074-0.134,0.15-0.264,0.227-0.406c0.003-0.003,0.01-0.008,0.016-0.013c0.087-0.165,0.192-0.337,0.294-0.509
		c0.045-0.072,0.08-0.139,0.125-0.208c0.003-0.002,0.009-0.008,0.009-0.011c0.035-0.066,0.07-0.126,0.112-0.194c0,0,0,0,0.003,0
		c0.215-0.352,0.445-0.713,0.688-1.081c0.272-0.424,0.563-0.851,0.88-1.285c2.06-2.87,4.162-5.08,4.21-5.128l0.006-0.006
		c-0.141,0.181-0.282,0.432-0.467,0.88c-0.189,0.456-0.419,1.12-0.752,2.14c-1.222,3.721-1.491,9.29-1.005,12.226
		c0.675,4.017,1.935,6.454,4.588,12.71c2.495,5.895,1.574,8.679-0.042,10.3c-0.355,0.349-0.822,0.534-1.395,0.576
		c-1.712,0.118-4.303-1.07-7.105-2.985c-0.307-0.208-0.624-0.417-0.947-0.628c-3.375-2.188-7.47-4.234-8.833-2.887
		c-0.182,0.179-0.323,0.406-0.397,0.713c-0.118,0.465-0.077,1.014,0.083,1.614c0.173,0.645,0.49,1.352,0.893,2.081
		c-0.019-0.101-0.038-0.198-0.051-0.267c-0.371-1.38,1.99-0.792,4.009,0.651c2.716,1.942,7.64,6.857,13.744,15.449
		c5.199,7.326,6.539,13.788,7.077,17.122c0.537,3.353,1.875,8.03-1.187,14.435c0,0-0.291-7.211-3.49-10.685
		c0,0-0.231,7.128-4.021,14.56c0.026-0.067,0.045-0.131,0.067-0.201c-0.636,1.753-1.404,3.337-2.163,5.019
		c-1.261,2.8-2.473,5.893-2.969,10.593c0,0,0.118-0.138,0.323-0.345c0.624-0.63,2.054-1.945,3.561-2.399l0,0
		c0,0-3.423,9.975-0.512,23.386v0.006c0.633-1.161,1.507-2.492,2.71-3.845c0.397-0.454,0.838-0.908,1.309-1.356
		c0,0,0.003,0.025,0.003,0.07c0.029,0.698,0.32,6.494,2.499,13.27c0.035,0.08,0.077,0.173,0.118,0.25
		c0.064,0.134,0.131,0.262,0.198,0.409c0.697,1.433,1.401,3.202,2.124,5.461c0.003,0.01,0.003,0.016,0.009,0.023
		c0.003-0.004,0.013-0.013,0.013-0.019c7.704-12.182,12.509-27.685,12.509-27.685l-6.955,0.262c0,0,4.252-7.461,7.764-14.179
		c2.994-5.746,5.343-11.974,5.343-11.974c-1.462,0.361-4.815,0.195-4.815,0.195c8.292-13.641,12.31-26.348,12.31-26.348
		c4.812,11.635,10.298,21.671,10.298,21.671c2.806-17.656-0.998-31.173-0.998-31.173s3.932,1.31,8.017,0.805
		c4.824-0.602,6.382-3.474,6.382-3.474c-8.763-6.304-20.395-10.021-20.395-10.021c-0.601-4.996-4.332-9.35-4.332-9.35
		c-1.734-2.827-20.187-24.755-20.187-24.755s-1.955-1.504-4.863-2.358c-1.197-0.354-2.54-0.605-4.002-0.581
		C70.436,49.512,70.388,49.495,70.312,49.463z"/>
	<path fill="#FFFFFF" d="M52.783,77.3c-0.832,1.032-1.03,2.091-1.03,2.091s0.838-0.024,2.287,0.582c0,0-0.582-2.561,0.442-4.17
		C54.482,75.803,53.471,76.448,52.783,77.3z"/>
	<path fill="#FFFFFF" d="M61.245,83.579c0,0-0.889-3.305,0.16-6.51c0,0-1.753,1.076-2.418,2.294c-0.662,1.208-0.931,2.06-0.931,2.06
		S59.834,82.307,61.245,83.579z"/>
	<path d="M99.994,0C44.779,0,0.01,44.768,0,99.994h0.003c0.006,55.238,44.776,100.005,99.991,100.008
		c55.237-0.003,99.994-44.769,100.006-100.008C199.988,44.768,155.231,0,99.994,0z M99.994,195.875
		c-52.931-0.006-95.857-42.933-95.861-95.881C4.137,47.042,47.063,4.127,99.994,4.127c52.943,0,95.863,42.915,95.867,95.867
		C195.857,152.942,152.937,195.869,99.994,195.875z"/>
	<path d="M124.215,96.577c0,0-8.487-16.634-14.86-16.381c-5.483,0.222-9.866-2.99-9.866-2.99s3.73,4.354,4.332,9.35
		C103.82,86.556,115.452,90.273,124.215,96.577z M107.889,82.632c0,0,0.381,0.069,0.944,0.256c-0.278,0.269-0.454,0.64-0.454,1.062
		c0,0.816,0.662,1.48,1.475,1.48c0.761,0,1.366-0.571,1.456-1.299c0.163,0.115,0.326,0.227,0.489,0.363
		c2.515,2.103,3.612,4.263,3.612,4.263c-3.161-1.83-8.724-3.527-8.724-3.527C106.715,83.737,107.889,82.632,107.889,82.632z"/>
	<path d="M99.994,7.888c-50.861,0-92.101,41.239-92.101,92.106c0,15.962,4.06,30.973,11.204,44.064
		c0.01,0.022,0.026,0.041,0.038,0.06c0.87,1.597,1.798,3.155,2.758,4.69c0.243,0.38,0.486,0.758,0.733,1.136
		c0.838,1.292,1.702,2.569,2.601,3.814c0.198,0.272,0.384,0.547,0.579,0.812c1.11,1.507,2.259,2.975,3.455,4.405
		c0.154,0.192,0.32,0.371,0.473,0.553c1.049,1.235,2.131,2.441,3.244,3.618c0.288,0.31,0.579,0.618,0.873,0.921
		c1.209,1.251,2.451,2.47,3.727,3.647c0.074,0.074,0.147,0.147,0.224,0.217c1.388,1.27,2.828,2.502,4.293,3.689
		c0.265,0.211,0.534,0.416,0.8,0.624c1.232,0.976,2.486,1.923,3.765,2.831c0.31,0.221,0.618,0.442,0.925,0.659
		c3.081,2.134,6.293,4.085,9.63,5.838c0.342,0.179,0.688,0.352,1.03,0.525c1.436,0.736,2.892,1.433,4.37,2.089
		c0.275,0.125,0.547,0.253,0.822,0.371c1.76,0.758,3.545,1.475,5.362,2.131c0.16,0.058,0.326,0.109,0.486,0.163
		c1.622,0.576,3.273,1.1,4.936,1.587c0.019,0,0.045,0.013,0.064,0.016c-0.675-2.051-1.404-4.021-2.073-5.442
		c-0.067-0.147-0.134-0.275-0.198-0.409c-0.045-0.083-0.083-0.17-0.121-0.25c-2.175-6.769-2.467-12.573-2.495-13.27
		c0-0.045-0.003-0.07-0.003-0.07c-0.47,0.448-0.912,0.902-1.309,1.356c-1.203,1.353-2.076,2.684-2.71,3.845v-0.006l-0.003,0.006
		c-2.905-13.373,0.493-23.335,0.515-23.392c-1.507,0.454-2.937,1.769-3.561,2.399c-0.205,0.208-0.323,0.345-0.323,0.345
		c0.496-4.7,1.708-7.793,2.969-10.593c0.758-1.683,1.526-3.266,2.163-5.019c0.102-0.272,0.199-0.557,0.291-0.838
		c0.054-0.16,0.109-0.327,0.16-0.489c0.086-0.278,0.16-0.573,0.243-0.858c0.051-0.189,0.105-0.374,0.15-0.569
		c0.07-0.297,0.128-0.604,0.192-0.915c0.038-0.198,0.086-0.39,0.118-0.592c0.086-0.525,0.17-1.056,0.224-1.625
		c0.153-5.036-0.067-10.541-1.35-16.277c-0.061-0.288-0.153-0.576-0.221-0.864c-0.185-0.774-0.39-1.545-0.614-2.323c0,0,0,0,0-0.003
		c-0.23-0.771-0.467-1.548-0.739-2.329c0-0.003,0-0.006-0.003-0.009l0,0c0,0,0,0,0-0.003c-0.006-0.026-0.016-0.054-0.029-0.08
		c-0.019-0.045-0.032-0.093-0.051-0.141c-0.051-0.166-0.125-0.326-0.186-0.493c-0.192-0.534-0.377-1.069-0.598-1.609
		c0-0.006,0-0.009-0.003-0.009c-0.038-0.09-0.08-0.186-0.118-0.275c-0.294-0.716-0.598-1.433-0.937-2.153
		c-0.08-0.176-0.186-0.364-0.275-0.547c-0.24-0.483-0.483-0.966-0.755-1.465c-0.323-0.589-0.688-1.189-1.053-1.79
		c-0.118-0.193-0.221-0.386-0.339-0.579c0-0.002-0.003-0.004-0.003-0.008c-0.003,0-0.003-0.003-0.003-0.003s0-0.003-0.003-0.003
		c0,0,0-0.006-0.003-0.006c0-0.005,0-0.005-0.003-0.006c-0.077-0.118-0.147-0.237-0.221-0.352c-0.048-0.077-0.102-0.15-0.147-0.224
		c-1.068-1.681-2.246-3.364-3.423-4.954c-0.125-0.174-0.256-0.344-0.381-0.515c-0.419-0.557-0.829-1.096-1.238-1.622
		c-0.189-0.24-0.374-0.485-0.563-0.715c-0.333-0.424-0.653-0.817-0.973-1.213c-0.176-0.216-0.365-0.446-0.534-0.657
		c-1.033-1.251-2.035-2.628-2.748-3.93c-0.003-0.005-0.007-0.011-0.01-0.014v-0.002c-0.403-0.729-0.72-1.436-0.893-2.081
		c-0.16-0.6-0.202-1.148-0.083-1.614c0.074-0.307,0.214-0.534,0.397-0.713c1.366-1.353,5.458,0.699,8.833,2.887
		c0.323,0.211,0.64,0.421,0.947,0.628c2.803,1.915,5.394,3.103,7.105,2.985c0.573-0.042,1.04-0.227,1.395-0.576
		c1.615-1.62,2.537-4.405,0.042-10.3c-2.652-6.256-3.912-8.694-4.588-12.71c-0.486-2.935-0.217-8.505,1.005-12.226
		c0.333-1.02,0.563-1.684,0.752-2.14c0.179-0.44,0.32-0.691,0.461-0.873c-0.048,0.048-2.15,2.259-4.21,5.128
		c-0.317,0.433-0.608,0.861-0.88,1.285c-0.243,0.368-0.473,0.729-0.688,1.081c-0.003,0-0.003,0-0.003,0
		c-0.042,0.067-0.077,0.128-0.112,0.194c-0.048,0.075-0.086,0.147-0.134,0.219c-0.102,0.171-0.208,0.344-0.294,0.509
		c-0.105,0.176-0.198,0.344-0.294,0.514c-0.064,0.113-0.134,0.234-0.195,0.346c-0.118,0.219-0.23,0.422-0.333,0.621
		c-0.019,0.045-0.048,0.09-0.067,0.134c-0.109,0.208-0.211,0.406-0.301,0.587c0,0.003-0.003,0.005-0.003,0.005
		c-0.397,0.794-0.605,1.277-0.605,1.277c0-0.003,0-0.008,0-0.008v0.008c0.121-0.765,0.736-4.917,2.703-8.16
		c1.724-2.839,3.813-4.484,4.309-4.853c0.067-0.051,0.109-0.08,0.109-0.08s1.312-1.372,2.665-0.542
		c0.134,0.082,0.349,0.192,0.595,0.31c0.611,0.282,1.398,0.608,1.689,0.728c0.077,0.032,0.125,0.05,0.125,0.05
		c1.462-0.024,2.806,0.227,4.002,0.581c2.908,0.854,4.869,2.358,4.869,2.358l1.174-3.319c4.204,4.312,19.368,21.798,22.685,25.435
		c2.489,0.323,5.259,0.453,7.921,0.678c7.531,0.645,14.137,7.633,21.796,14.774c5.819,5.413,12.445,11.706,18.194,17.258
		c-3.746-0.803-7.041-1.325-7.041-1.325l6.769,6.015c23.684,19.956,31.995,18.12,25.984,23.283
		c-5.551,4.757-15.091,6.27-21.803,6.043c-3.049-0.112-5.519-0.576-6.747-1.263c6.76,0.768,21.834-5.685,22.087-7.441
		c0.109-0.752-2.806-2.342-6.398-4.716c-4.729-3.11-10.855-7.307-10.753-7.067c1.248,3.017,1.731,5.493,1.731,5.493
		s-7.841-2.841-16.933-8.855c-0.16-0.109,0.723,5.423,3.058,13.382c-3.545-0.163-6.808-1.072-6.808-1.072
		c2.975,10.724,15.359,24.02,15.75,24.477c0.39,0.454,1.097,1.091,1.097,1.091l1.609-7.374c0,0,4.626,0.599,7.601,0.599
		c6.421,0,9.665-0.464,9.665-0.464c-4.856,11.725-13.027,22.413-17.202,27.408c0.205-0.141,0.409-0.288,0.617-0.432
		c0.378-0.275,0.768-0.54,1.149-0.822c0.729-0.537,1.446-1.094,2.156-1.648c0.39-0.304,0.781-0.604,1.161-0.912
		c0.7-0.569,1.385-1.145,2.076-1.734c0.368-0.32,0.742-0.64,1.11-0.966c0.682-0.602,1.353-1.216,2.006-1.836
		c0.349-0.327,0.694-0.656,1.04-0.986c0.665-0.65,1.318-1.299,1.964-1.964c0.314-0.32,0.611-0.643,0.921-0.963
		c0.659-0.701,1.315-1.404,1.948-2.124c0.259-0.288,0.512-0.588,0.768-0.88c0.666-0.768,1.318-1.545,1.961-2.335
		c0.182-0.217,0.348-0.448,0.528-0.672c0.701-0.876,1.395-1.766,2.057-2.674l0.022-0.026c3.919-5.33,7.265-11.098,9.982-17.211
		c0.061-0.141,0.125-0.279,0.189-0.419c0.47-1.081,0.921-2.172,1.353-3.279c0.077-0.208,0.163-0.41,0.24-0.621
		c0.419-1.078,0.806-2.162,1.184-3.263c0.077-0.233,0.157-0.467,0.233-0.704c0.368-1.094,0.71-2.201,1.033-3.314
		c0.067-0.23,0.128-0.461,0.195-0.691c0.323-1.139,0.624-2.284,0.899-3.443c0.045-0.189,0.086-0.384,0.134-0.576
		c0.282-1.203,0.544-2.419,0.774-3.641c0.023-0.099,0.038-0.198,0.054-0.294c1.04-5.535,1.603-11.232,1.603-17.066
		C192.105,49.127,150.861,7.888,99.994,7.888z M158.75,41.241c7.716,7.721,13.897,16.935,18.111,27.169
		c-9.521-10.5-23.322-18.026-37.475-14.486c-0.813-0.854-1.609-1.718-2.464-2.55c-2.431-2.388-4.853-4.591-7.284-6.633
		c13.056-4.988,23.277-5.795,28.604-3.986C158.404,40.919,158.583,41.079,158.75,41.241z M152.889,35.919
		c-6.907-0.251-16.159,1.529-26.86,5.883c-3.906-3.057-7.774-5.672-11.572-7.942c3.727-2.849,5.903-6.07,6.418-9.618
		c0.262-1.793,0.054-3.394-0.342-4.778C132.587,22.527,143.582,28.223,152.889,35.919z M99.994,16.903
		c5.381,0,10.637,0.529,15.734,1.507c0.854,1.384,1.465,3.254,1.177,5.248c-0.416,2.86-2.54,5.549-6.28,8.006
		c-13.456-7.317-25.702-10.156-35.021-11.119C83.307,18.183,91.49,16.906,99.994,16.903z M57.172,101.727
		c0.627,1.115,1.258,2.321,1.875,3.642c1.491,3.161,3.823,8.1,4.61,13.907c0.601,4.46,0.688,7.95,0.451,10.845
		c-1.814-3.167-4.796-8.789-7.262-15.353c0,0-3.602,9.694-8.187,19.23l-4.044-11.738h4.005c0,0-0.944-2.118-2.329-5.272
		C49.255,112.242,52.854,107.129,57.172,101.727z M54.041,79.973c-1.449-0.606-2.287-0.582-2.287-0.582s0.198-1.059,1.03-2.091
		c0.688-0.853,1.699-1.497,1.699-1.497C53.458,77.412,54.041,79.973,54.041,79.973z M58.987,79.362
		c0.665-1.217,2.418-2.294,2.418-2.294c-1.049,3.206-0.16,6.51-0.16,6.51c-1.411-1.272-3.19-2.156-3.19-2.156
		S58.324,80.57,58.987,79.362z M57.72,51.947c-1.033,1.715-2.69,3.951-3.183,9.422c-0.358,3.986-0.045,7.162,0.541,9.767
		c-4.984,3.409-6.203,7.232-6.494,8.9c-1.574,0.873-2.713,2.697-1.699,5.941c1.206,3.815,4.418,6.672,8.021,12.059
		c-4.13,5.056-7.64,9.868-10.602,14.388c-2.515-5.829-5.567-13.056-7.515-18.259c0,0-6.043,16.209-12.394,27.323
		c0,0,2.86,0.637,4.764,0.32c0,0-2.284,5.442-5.151,11.799c-4.546-10.273-7.093-21.627-7.099-33.604
		c0.003-5.148,0.496-10.175,1.385-15.062c10.074-22.738,26.659-32.888,43.435-38.12C60.919,47.561,59.422,49.146,57.72,51.947z
		 M75.667,42.917c-1.273-1.568-3.263-1.622-4.578-1.326c-1.817,0.395-4.549,4.116-4.549,4.116c0.259-2.98,4.248-6.245,4.248-6.245
		s5.599,0.817,6.328,2.243c1.021,2.011,2.598,5.687,2.598,5.687S76.457,43.89,75.667,42.917z M79.314,38.694
		c-1.043-0.753-3.017-1.664-7.025-2.724c0,0-1.699-0.31-2.403-0.131c-0.707,0.181-1.625,1.123-1.625,1.123
		c-0.499,0.55-2.243,2.524-3.717,4.898c-14.71,4.021-30.075,11.379-41.538,26.887c4.22-10.367,10.445-19.702,18.245-27.507
		c7.086-7.078,15.427-12.859,24.656-17.021c8.331-0.128,23.124,1.173,40.121,9.689c-4.354,1.476-10.378,2.348-17.115,3.322
		C85.892,37.662,82.67,38.129,79.314,38.694z M84.622,48.527l-0.777-0.819c-0.349-0.921-1.129-2.887-2.24-5.327
		c2.7-0.432,5.349-0.816,7.883-1.181c8.625-1.243,16.121-2.353,21.089-4.875c3.666,2.081,7.406,4.512,11.188,7.334
		c-8.484,3.858-17.733,9.257-27.34,16.437C89.679,54.565,85.895,49.87,84.622,48.527z M114.14,72.023
		c-2.39-0.355-9.786-0.891-9.786-0.891c-2.479-2.585-4.956-5.327-7.291-7.988c10.119-7.529,19.736-12.96,28.326-16.668
		c2.901,2.343,5.809,4.906,8.724,7.758c0.387,0.392,0.749,0.789,1.133,1.182c-6.549,3.164-11.776,9.74-16.098,18.506
		C117.381,72.949,115.676,72.249,114.14,72.023z M148.34,90.902c0,0-0.873,2.329-2.275,5.669
		c-5.442-4.954-11.607-10.445-14.38-12.973c-2.607-2.383-5.893-5.272-9.204-7.579c4.229-8.716,9.325-15.014,15.686-17.508
		c5.01,5.583,9.111,11.557,12.49,17.704c-2.067,4.703-4.549,9.935-7.086,14.368C143.57,90.583,146.436,91.22,148.34,90.902z
		 M175.632,82.662c0,0-3.615,9.705-8.193,19.246l-3.647-10.551h4.005c0,0-8.02-17.931-11.834-28.092c0,0-1.286,3.463-3.295,8.268
		c-2.895-4.864-6.245-9.618-10.164-14.16c15.804-2.571,30.885,9.941,38.269,23.162c1.366,5.704,2.147,11.634,2.268,17.736
		C180.041,92.554,177.123,86.643,175.632,82.662z"/>
	<path d="M127.535,166.941c0,0,8.248,0,12.701-1.462c-17.346-12.938-32.491-30.645-32.491-30.645
		c0.8,1.875,8.484,19.397,13.299,26.019h-7.217c0,0,7.051,16.677,12.499,27.426c0.681-0.205,1.366-0.416,2.044-0.637
		c0.598-0.192,1.187-0.399,1.779-0.601c0.771-0.266,1.536-0.535,2.297-0.822c0.563-0.212,1.126-0.438,1.686-0.666
		c0.765-0.307,1.536-0.611,2.291-0.934c0.518-0.227,1.03-0.467,1.548-0.704c0.781-0.352,1.571-0.704,2.348-1.081
		c0.307-0.154,0.611-0.317,0.918-0.47C135.108,176.455,127.535,166.941,127.535,166.941z"/>
	<path fill="#FDD41F" d="M111.799,84.494c-0.163-0.136-0.326-0.248-0.489-0.363c-0.09,0.728-0.694,1.299-1.456,1.299
		c-0.812,0-1.475-0.664-1.475-1.48c0-0.422,0.176-0.793,0.454-1.062c-0.563-0.187-0.944-0.256-0.944-0.256s-1.174,1.105-1.203,2.598
		c0,0,5.563,1.697,8.724,3.527C115.411,88.757,114.313,86.597,111.799,84.494z"/>
	<path fill="#8E9090" d="M71.089,123.599c3.199,3.474,3.49,10.685,3.49,10.685c3.061-6.405,1.724-11.082,1.187-14.435
		c-0.537-3.333-1.878-9.796-7.077-17.122c-6.104-8.591-11.028-13.507-13.744-15.449c-2.019-1.443-4.38-2.031-4.009-0.651
		c0.013,0.069,0.032,0.166,0.051,0.267v0.002c0.003,0.003,0.006,0.01,0.01,0.014c0.713,1.302,1.715,2.679,2.748,3.93
		c0.169,0.211,0.358,0.441,0.534,0.657c0.32,0.395,0.64,0.789,0.973,1.213c0.189,0.23,0.374,0.475,0.563,0.715
		c0.409,0.526,0.819,1.065,1.238,1.622c0.125,0.171,0.256,0.341,0.381,0.515c1.177,1.59,2.355,3.273,3.423,4.954
		c0.045,0.074,0.099,0.147,0.147,0.224c0.074,0.115,0.144,0.233,0.221,0.352c0.003,0.002,0.003,0.002,0.003,0.006
		c0.003,0,0.003,0.005,0.003,0.005c0.003,0.002,0.003,0.003,0.003,0.003s0,0.005,0.003,0.005c0,0.005,0.003,0.006,0.003,0.008
		c0.118,0.193,0.221,0.385,0.339,0.579c0.365,0.601,0.729,1.201,1.053,1.79c0.272,0.499,0.515,0.982,0.755,1.465
		c0.09,0.182,0.195,0.371,0.275,0.547c0.339,0.72,0.643,1.437,0.937,2.153c0.038,0.089,0.08,0.186,0.118,0.275
		c0.003,0,0.003,0.003,0.003,0.009c0.221,0.541,0.406,1.075,0.598,1.609c0.061,0.166,0.134,0.326,0.186,0.493
		c0.019,0.048,0.032,0.096,0.051,0.141c0.013,0.026,0.023,0.054,0.029,0.08c0,0.003,0,0.003,0,0.003l0,0
		c0.003,0.003,0.003,0.006,0.003,0.009c0.272,0.781,0.509,1.558,0.739,2.329c0,0.003,0,0.003,0,0.003
		c0.224,0.777,0.429,1.549,0.614,2.323c0.067,0.288,0.16,0.576,0.221,0.864c1.283,5.736,1.504,11.242,1.35,16.277
		c-0.054,0.569-0.138,1.1-0.224,1.625c-0.032,0.202-0.08,0.394-0.118,0.592c-0.064,0.311-0.122,0.618-0.192,0.915
		c-0.045,0.195-0.099,0.381-0.15,0.569c-0.083,0.285-0.157,0.579-0.243,0.858c-0.051,0.163-0.105,0.329-0.16,0.489
		c-0.093,0.281-0.189,0.566-0.291,0.838c-0.022,0.07-0.042,0.134-0.067,0.201C70.859,130.727,71.089,123.599,71.089,123.599z"/>
	<path fill="#8E9090" d="M99.994,4.127c-52.931,0-95.857,42.915-95.861,95.867c0.003,52.948,42.93,95.875,95.861,95.881
		c52.943-0.006,95.863-42.933,95.867-95.881C195.857,47.042,152.937,4.127,99.994,4.127z M140.319,182.835
		c-0.777,0.377-1.568,0.729-2.348,1.081c-0.518,0.237-1.03,0.477-1.548,0.704c-0.755,0.323-1.526,0.627-2.291,0.934
		c-0.56,0.227-1.123,0.454-1.686,0.666c-0.761,0.288-1.526,0.556-2.297,0.822c-0.592,0.201-1.181,0.409-1.779,0.601
		c-0.678,0.221-1.363,0.432-2.044,0.637c-5.448-10.749-12.499-27.426-12.499-27.426h7.217c-4.815-6.622-12.499-24.144-13.299-26.019
		c0,0,15.145,17.707,32.491,30.645c-4.453,1.462-12.701,1.462-12.701,1.462s7.573,9.514,13.702,15.424
		C140.931,182.518,140.626,182.682,140.319,182.835z M190.447,117.354c-0.23,1.222-0.493,2.438-0.774,3.641
		c-0.048,0.192-0.09,0.387-0.134,0.576c-0.275,1.158-0.576,2.303-0.899,3.443c-0.067,0.23-0.128,0.461-0.195,0.691
		c-0.323,1.113-0.666,2.22-1.033,3.314c-0.077,0.237-0.157,0.47-0.233,0.704c-0.377,1.101-0.765,2.185-1.184,3.263
		c-0.077,0.211-0.163,0.413-0.24,0.621c-0.432,1.107-0.883,2.198-1.353,3.279c-0.064,0.141-0.128,0.279-0.189,0.419
		c-2.716,6.113-6.063,11.882-9.982,17.211l-0.022,0.026c-0.662,0.909-1.357,1.798-2.057,2.674c-0.179,0.224-0.345,0.454-0.528,0.672
		c-0.643,0.79-1.296,1.568-1.961,2.335c-0.256,0.291-0.509,0.592-0.768,0.88c-0.633,0.72-1.289,1.424-1.948,2.124
		c-0.31,0.32-0.608,0.643-0.921,0.963c-0.646,0.665-1.299,1.314-1.964,1.964c-0.346,0.33-0.691,0.659-1.04,0.986
		c-0.653,0.62-1.324,1.235-2.006,1.836c-0.368,0.326-0.742,0.646-1.11,0.966c-0.691,0.589-1.376,1.164-2.076,1.734
		c-0.381,0.307-0.771,0.608-1.161,0.912c-0.71,0.554-1.427,1.11-2.156,1.648c-0.381,0.282-0.771,0.547-1.149,0.822
		c-0.208,0.144-0.412,0.291-0.617,0.432c4.175-4.994,12.346-15.683,17.202-27.408c0,0-3.244,0.464-9.665,0.464
		c-2.975,0-7.601-0.599-7.601-0.599l-1.609,7.374c0,0-0.707-0.637-1.097-1.091c-0.39-0.458-12.774-13.753-15.75-24.477
		c0,0,3.263,0.909,6.808,1.072c-2.335-7.959-3.218-13.491-3.058-13.382c9.092,6.014,16.933,8.855,16.933,8.855
		s-0.483-2.476-1.731-5.493c-0.102-0.24,6.024,3.957,10.753,7.067c3.593,2.374,6.507,3.964,6.398,4.716
		c-0.253,1.756-15.327,8.209-22.087,7.441c1.228,0.688,3.698,1.152,6.747,1.263c6.712,0.227,16.252-1.286,21.803-6.043
		c6.011-5.163-2.3-3.327-25.984-23.283l-6.769-6.015c0,0,3.295,0.521,7.041,1.325c-5.749-5.552-12.374-11.845-18.194-17.258
		c-7.659-7.141-14.265-14.129-21.796-14.774c-2.662-0.226-5.432-0.355-7.921-0.678c-3.318-3.637-18.482-21.123-22.685-25.435
		l-1.174,3.319c0,0-1.961-1.504-4.869-2.358c2.908,0.854,4.863,2.358,4.863,2.358s18.453,21.929,20.187,24.755
		c0,0,4.383,3.212,9.866,2.99c6.373-0.253,14.86,16.381,14.86,16.381s-1.558,2.873-6.382,3.474
		c-4.086,0.505-8.017-0.805-8.017-0.805s3.804,13.516,0.998,31.173c0,0-5.487-10.036-10.298-21.671c0,0-4.018,12.707-12.31,26.348
		c0,0,3.353,0.166,4.815-0.195c0,0-2.348,6.229-5.343,11.974c-3.513,6.718-7.764,14.179-7.764,14.179l6.955-0.262
		c0,0-4.805,15.503-12.509,27.685c0,0.007-0.009,0.016-0.013,0.019c-0.006-0.007-0.006-0.013-0.009-0.023
		c-0.723-2.259-1.427-4.028-2.124-5.461c0.669,1.421,1.398,3.391,2.073,5.442c-0.019-0.003-0.045-0.016-0.064-0.016
		c-1.664-0.486-3.314-1.011-4.936-1.587c-0.16-0.055-0.326-0.106-0.486-0.163c-1.817-0.656-3.602-1.372-5.362-2.131
		c-0.275-0.118-0.547-0.246-0.822-0.371c-1.478-0.656-2.934-1.353-4.37-2.089c-0.342-0.173-0.688-0.345-1.03-0.525
		c-3.337-1.753-6.549-3.705-9.63-5.838c-0.307-0.217-0.614-0.438-0.925-0.659c-1.28-0.909-2.534-1.856-3.765-2.831
		c-0.266-0.208-0.534-0.413-0.8-0.624c-1.465-1.187-2.905-2.418-4.293-3.689c-0.077-0.07-0.15-0.144-0.224-0.217
		c-1.277-1.177-2.518-2.396-3.727-3.647c-0.294-0.304-0.585-0.611-0.873-0.921c-1.113-1.177-2.195-2.383-3.244-3.618
		c-0.153-0.182-0.32-0.362-0.473-0.553c-1.196-1.43-2.345-2.898-3.455-4.405c-0.195-0.265-0.381-0.541-0.579-0.812
		c-0.899-1.245-1.763-2.521-2.601-3.814c-0.246-0.378-0.489-0.755-0.733-1.136c-0.96-1.536-1.887-3.094-2.758-4.69
		c-0.013-0.019-0.029-0.038-0.038-0.06c-7.144-13.091-11.204-28.102-11.204-44.064c0-50.867,41.241-92.106,92.101-92.106
		c50.867,0,92.111,41.239,92.111,92.106c0,5.834-0.563,11.531-1.603,17.066C190.486,117.156,190.47,117.255,190.447,117.354z"/>
</g>
</svg>
