<svg version="1.1" id="Layer_1" xmlns="http://www.w3.org/2000/svg" xmlns:xlink="http://www.w3.org/1999/xlink" x="0px" y="0px" viewBox="0 0 200 200" enable-background="new 0 0 200 200" xml:space="preserve" preserveAspectRatio="xMidYMid">
<g>
	<path fill="#FFFFFF" d="M198,52.908h-29.904l-5.269-11.534l-19.965-7.113l-4.801,3.663l-1.316,3.229l-9.531-2.224l-1.131,5.519
		l-1.117-5.782c0,0-8.585-1.026-10.864-1.252c-2.282-0.226-10.892-0.896-10.892-0.896l-5.345,5.326l-0.105,4.753L96.531,36.54
		l-10.688,0.511l-0.384,4.706l-0.996-4.525l-10.061,1.435l-1.216,6.913l-1.357-6.552l-9.21,2.347l-1.73-3.696l-8.336-3.813
		l-2.031,5.535l-1.278-3.084l-12.662,5.081l-5.246,11.51H1.667l18.649,24.225l-9.367,20.571l20.013,20.041
		c2.316-1.319,4.29-2.556,7.564-4.403c0.295-1.322,0.839-3.549,0.839-3.549l2.193,1.917c0,0,1.041-0.516,3.972-1.825l14.741,19.141
		c1.865,14.446,11.446,26.468,24.476,31.798l14.722,19.112l14.556-18.765c13.698-5.207,23.778-17.744,25.457-32.819l14.119-18.195
		c4.889,2.46,9.84,5.307,14.422,8.243l20.251-20.858l-9.18-20.253L198,52.908z"/>
	<path fill="none" stroke="#FFFFFF" stroke-width="1.624" d="M198,52.908h-29.904l-5.269-11.534l-19.965-7.113l-4.801,3.663
		l-1.316,3.229l-9.531-2.224l-1.131,5.519l-1.117-5.782c0,0-8.585-1.026-10.864-1.252c-2.282-0.226-10.892-0.896-10.892-0.896
		l-5.345,5.326l-0.105,4.753L96.531,36.54l-10.688,0.511l-0.384,4.706l-0.996-4.525l-10.061,1.435l-1.216,6.913l-1.357-6.552
		l-9.21,2.347l-1.73-3.696l-8.336-3.813l-2.031,5.535l-1.278-3.084l-12.662,5.081l-5.246,11.51H1.667l18.649,24.225l-9.367,20.571
		l20.013,20.041c2.316-1.319,4.29-2.556,7.564-4.403c0.295-1.322,0.839-3.549,0.839-3.549l2.193,1.917c0,0,1.041-0.516,3.972-1.825
		l14.741,19.141c1.865,14.446,11.446,26.468,24.476,31.798l14.722,19.112l14.556-18.765c13.698-5.207,23.778-17.744,25.457-32.819
		l14.119-18.195c4.889,2.46,9.84,5.307,14.422,8.243l20.251-20.858l-9.18-20.253L198,52.908z"/>
	<polygon fill="#007AC1" points="1.667,52.908 198,52.908 99.467,179.937 	"/>
	<polygon fill="#C4CED4" points="99.467,175.143 191.959,55.89 7.589,55.883 	"/>
	<polygon fill="none" stroke="#007AC1" stroke-width="0.188" points="99.467,175.143 191.959,55.89 7.589,55.883 	"/>
	<path fill="#007AC1" d="M174.246,66.595l-6.514-4.38l2.457-4.714l-7.363-16.126l-19.965-7.113l-4.801,3.663l-1.316,3.229
		l-9.531-2.224l-1.131,5.519l-1.117-5.782c0,0-8.585-1.026-10.864-1.252c-2.282-0.226-10.892-0.896-10.892-0.896l-5.345,5.326
		l-0.105,4.753L96.531,36.54l-10.688,0.511l-0.384,4.706l-0.996-4.525l-10.061,1.435l-1.216,6.913l-1.357-6.552l-9.21,2.347
		l-1.73-3.696l-8.336-3.813l-2.031,5.535l-1.278-3.084l-12.662,5.081L10.948,97.704l20.013,20.041
		c2.316-1.319,4.29-2.556,7.564-4.403c0.295-1.322,0.839-3.549,0.839-3.549l2.193,1.917c0,0,3.205-1.582,14.223-6.297l0.309-1.438
		l0.608,1.309c0,0,3.813-1.503,9.704-3.195c-4.086,6.263-6.474,13.741-6.474,21.785c0,22.039,17.868,39.907,39.909,39.907
		c22.039,0,39.904-17.867,39.904-39.907c0-7.618-2.136-14.743-5.842-20.796c5.139,1.235,8.451,2.185,8.451,2.185l0.843-1.102
		l0.332,1.473c7.807,3.01,16.694,7.766,24.498,12.767l20.251-20.858L174.246,66.595z"/>
	<g>
		<defs>
			<polygon id="SVGID_1_" points="99.467,175.143 191.959,55.89 7.589,55.883 			"/>
		</defs>
		<clipPath id="SVGID_2_">
			<use xlink:href="#SVGID_1_"  overflow="visible"/>
		</clipPath>
		<path clip-path="url(#SVGID_2_)" fill="#007AC1" d="M174.246,66.595l-6.514-4.38l2.457-4.714l-7.363-16.126l-19.965-7.113
			l-4.801,3.663l-1.316,3.229l-9.531-2.224l-1.131,5.519l-1.117-5.782c0,0-8.585-1.026-10.864-1.252
			c-2.282-0.226-10.892-0.896-10.892-0.896l-5.345,5.326l-0.105,4.753L96.531,36.54l-10.688,0.511l-0.384,4.706l-0.996-4.525
			l-10.061,1.435l-1.216,6.913l-1.357-6.552l-9.21,2.347l-1.73-3.696l-8.336-3.813l-2.031,5.535l-1.278-3.084l-12.662,5.081
			L10.948,97.704l20.013,20.041c2.316-1.319,4.29-2.556,7.564-4.403c0.295-1.322,0.839-3.549,0.839-3.549l2.193,1.917
			c0,0,3.205-1.582,14.223-6.297l0.309-1.438l0.608,1.309c0,0,3.813-1.503,9.704-3.195c-4.086,6.263-6.474,13.741-6.474,21.785
			c0,22.039,17.868,39.907,39.909,39.907c22.039,0,39.904-17.867,39.904-39.907c0-7.618-2.136-14.743-5.842-20.796
			c5.139,1.235,8.451,2.185,8.451,2.185l0.843-1.102l0.332,1.473c7.807,3.01,16.694,7.766,24.498,12.767l20.251-20.858
			L174.246,66.595z"/>
		<path clip-path="url(#SVGID_2_)" fill="none" stroke="#007AC1" stroke-width="0.188" d="M174.246,66.595l-6.514-4.38l2.457-4.714
			l-7.363-16.126l-19.965-7.113l-4.801,3.663l-1.316,3.229l-9.531-2.224l-1.131,5.519l-1.117-5.782c0,0-8.585-1.026-10.864-1.252
			c-2.282-0.226-10.892-0.896-10.892-0.896l-5.345,5.326l-0.105,4.753L96.531,36.54l-10.688,0.511l-0.384,4.706l-0.996-4.525
			l-10.061,1.435l-1.216,6.913l-1.357-6.552l-9.21,2.347l-1.73-3.696l-8.336-3.813l-2.031,5.535l-1.278-3.084l-12.662,5.081
			L10.948,97.704l20.013,20.041c2.316-1.319,4.29-2.556,7.564-4.403c0.295-1.322,0.839-3.549,0.839-3.549l2.193,1.917
			c0,0,3.205-1.582,14.223-6.297l0.309-1.438l0.608,1.309c0,0,3.813-1.503,9.704-3.195c-4.086,6.263-6.474,13.741-6.474,21.785
			c0,22.039,17.868,39.907,39.909,39.907c22.039,0,39.904-17.867,39.904-39.907c0-7.618-2.136-14.743-5.842-20.796
			c5.139,1.235,8.451,2.185,8.451,2.185l0.843-1.102l0.332,1.473c7.807,3.01,16.694,7.766,24.498,12.767l20.251-20.858
			L174.246,66.595z"/>
	</g>
	<path fill="#F37021" d="M161.731,42.548l5.766,12.733l-9.876-3.164l-2.632-6.402l-6.491-2.316l3.649,10.249l20.977,14.002
		l13.422,29.599l-4.478,4.597c0,0-3.297-2.2-11.586-6.554c-7.255-3.83-15.503-6.707-15.503-6.707l-5.364-17.703l10.172,3.003
		l2.851,7.922l8.296,3.749l-5.112-12.74l-19.951-14.102l-6.2-20.134l3.425-2.651L161.731,42.548z"/>
	<path fill="none" stroke="#F37021" stroke-width="0.188" d="M161.731,42.548l5.766,12.733l-9.876-3.164l-2.632-6.402l-6.491-2.316
		l3.649,10.249l20.977,14.002l13.422,29.599l-4.478,4.597c0,0-3.297-2.2-11.586-6.554c-7.255-3.83-15.503-6.707-15.503-6.707
		l-5.364-17.703l10.172,3.003l2.851,7.922l8.296,3.749l-5.112-12.74l-19.951-14.102l-6.2-20.134l3.425-2.651L161.731,42.548z"/>
	<path fill="#F37021" d="M59.763,38.723l-5.226,17.411l-8.938,8.498l4.314,7.132L44.825,88.41c0,0-4.053,1.344-5.421,1.87
		c-1.373,0.52-6.039,2.492-6.039,2.492l6.932-19.93l-1.672-1.939l-6.989,6.236l-7.854,19.927l-6.937,4.403l-4.119-4.139
		l24.968-54.778l9.061-3.614l-8.433,21.271l9.253-7.958l5.766-16.413L59.763,38.723z"/>
	<path fill="none" stroke="#F37021" stroke-width="0.188" d="M59.763,38.723l-5.226,17.411l-8.938,8.498l4.314,7.132L44.825,88.41
		c0,0-4.053,1.344-5.421,1.87c-1.373,0.52-6.039,2.492-6.039,2.492l6.932-19.93l-1.672-1.939l-6.989,6.236l-7.854,19.927
		l-6.937,4.403l-4.119-4.139l24.968-54.778l9.061-3.614l-8.433,21.271l9.253-7.958l5.766-16.413L59.763,38.723z"/>
	<polygon fill="#F37021" points="94.914,38.08 93.505,78.485 83.658,79.352 87.254,38.484 	"/>
	<polygon fill="none" stroke="#F37021" stroke-width="0.188" points="94.914,38.08 93.505,78.485 83.658,79.352 87.254,38.484 	"/>
	<path fill="#F37021" d="M113.969,38.785l0.881,6.932l-7.531-0.368l1.426,25.168l8.892,0.532l0.953,8.567
		c-4.927-0.518-10.111-1.007-14.886-0.995l-4.407-4.563l0.009-31.47l4.538-4.526L113.969,38.785z"/>
	<path fill="none" stroke="#F37021" stroke-width="0.188" d="M113.969,38.785l0.881,6.932l-7.531-0.368l1.426,25.168l8.892,0.532
		l0.953,8.567c-4.927-0.518-10.111-1.007-14.886-0.995l-4.407-4.563l0.009-31.47l4.538-4.526L113.969,38.785z"/>
	<path fill="#F37021" d="M82.759,39.025l-4.951,41.206l-9.474,1.822l2.124-12.13l-3.205-15.625l-6.486,29.525
		c0,0-2.749,0.627-5.024,1.223c-2.314,0.598-5.184,1.603-5.184,1.603l11.75-43.7l8.36-2.098l2.642,12.7l2.335-13.493L82.759,39.025z
		"/>
	<path fill="none" stroke="#F37021" stroke-width="0.188" d="M82.759,39.025l-4.951,41.206l-9.474,1.822l2.124-12.13l-3.205-15.625
		l-6.486,29.525c0,0-2.749,0.627-5.024,1.223c-2.314,0.598-5.184,1.603-5.184,1.603l11.75-43.7l8.36-2.098l2.642,12.7l2.335-13.493
		L82.759,39.025z"/>
	<path fill="#F37021" d="M129.101,40.907l7.814,1.737l3.059,11.408l-3.684,4.915l6.473,5.286l6.167,22.149
		c-3.656-1.25-6.899-2.114-10.446-3.008l-3.276-14.988l-3.654-3.01l-2.503,3.376l2.418,12.949c-3.354-0.734-6.426-1.171-9.654-1.615
		c-1.691-13.51-5.331-41.018-5.331-41.018l7.232,0.912l3.592,18.894l4.865-6.502L129.101,40.907z"/>
	<path fill="none" stroke="#F37021" stroke-width="0.188" d="M129.101,40.907l7.814,1.737l3.059,11.408l-3.684,4.915l6.473,5.286
		l6.167,22.149c-3.656-1.25-6.899-2.114-10.446-3.008l-3.276-14.988l-3.654-3.01l-2.503,3.376l2.418,12.949
		c-3.354-0.734-6.426-1.171-9.654-1.615c-1.691-13.51-5.331-41.018-5.331-41.018l7.232,0.912l3.592,18.894l4.865-6.502
		L129.101,40.907z"/>
	<polygon points="168.713,57.247 166.463,61.44 157.123,55.144 157.764,53.7 	"/>
	<polygon fill="#007AC1" points="169.501,56.53 166.655,61.834 154.84,53.87 155.651,52.043 	"/>
	<polygon fill="#C4CED4" points="102.53,84.422 99.038,84.298 98.974,75.808 102.613,79.58 	"/>
	<polygon fill="none" stroke="#007AC1" stroke-width="0.188" stroke-miterlimit="2" points="102.53,84.422 99.038,84.298 
		98.974,75.808 102.613,79.58 	"/>
	<path fill="#C4CED4" d="M93.823,84.947c-6.027,0.67-9.624,2.568-9.624,2.568c-0.29-1.943-0.729-4.758-1.01-6.607
		c3.003-0.356,7.044-0.819,10.427-0.988L93.823,84.947z"/>
	<path fill="none" stroke="#007AC1" stroke-width="0.188" stroke-miterlimit="2" d="M93.823,84.947
		c-6.027,0.67-9.624,2.568-9.624,2.568c-0.29-1.943-0.729-4.758-1.01-6.607c3.003-0.356,7.044-0.819,10.427-0.988L93.823,84.947z"/>
	<path fill="#C4CED4" d="M118.848,81.129l-1.371,7.476c-1.834-0.815-4.076-1.703-6.167-2.204c-2.3-0.651-4.925-1.454-7.372-1.744
		c0.095-1.064,0.095-3.103,0.164-4.523C109.004,80.058,114.187,80.587,118.848,81.129"/>
	<path fill="none" stroke="#007AC1" stroke-width="0.188" stroke-miterlimit="2" d="M118.848,81.129l-1.371,7.476
		c-1.834-0.815-4.076-1.703-6.167-2.204c-2.3-0.651-4.925-1.454-7.372-1.744c0.095-1.064,0.095-3.103,0.164-4.523
		C109.004,80.058,114.187,80.587,118.848,81.129z"/>
	<path fill="#C4CED4" d="M77.897,81.758c0.544,2.654,1.19,5.711,1.77,8.453c-2.95,1.798-5.454,4.084-8.258,6.169
		c-1.226-4.033-2.753-8.711-3.967-12.657C70.938,83.018,74.44,82.334,77.897,81.758"/>
	<path fill="none" stroke="#007AC1" stroke-width="0.188" stroke-miterlimit="2" d="M77.897,81.758
		c0.544,2.654,1.19,5.711,1.77,8.453c-2.95,1.798-5.454,4.084-8.258,6.169c-1.226-4.033-2.753-8.711-3.967-12.657
		C70.938,83.018,74.44,82.334,77.897,81.758z"/>
	<path fill="#C4CED4" d="M131.746,83.312l-4.025,12.895l-0.482-0.373c-2.449-2.369-5.041-4.316-7.775-5.899l1.727-8.457
		C124.657,81.972,128.234,82.602,131.746,83.312"/>
	<path fill="none" stroke="#007AC1" stroke-width="0.188" stroke-miterlimit="2" d="M131.746,83.312l-4.025,12.895l-0.482-0.373
		c-2.449-2.369-5.041-4.316-7.775-5.899l1.727-8.457C124.657,81.972,128.234,82.602,131.746,83.312z"/>
	<path fill="#C4CED4" d="M149.53,88.173l-7.786,15.394l-10.08-2.551l6.092-16.255C140.768,85.337,149.53,88.173,149.53,88.173"/>
	<path fill="none" stroke="#007AC1" stroke-width="0.188" stroke-miterlimit="2" d="M149.53,88.173l-7.786,15.394l-10.08-2.551
		l6.092-16.255C140.768,85.337,149.53,88.173,149.53,88.173z"/>
	<path fill="#C4CED4" d="M67.028,100.395c-3.126,0.836-7.327,2.243-9.726,3.129c-2.666-5.105-5.222-9.859-7.45-15.185
		c3.614-1.119,7.288-2.169,11.522-3.219L67.028,100.395z"/>
	<path fill="none" stroke="#007AC1" stroke-width="0.188" stroke-miterlimit="2" d="M67.028,100.395
		c-3.126,0.836-7.327,2.243-9.726,3.129c-2.666-5.105-5.222-9.859-7.45-15.185c3.614-1.119,7.288-2.169,11.522-3.219L67.028,100.395
		z"/>
	<path fill="#C4CED4" d="M45.148,89.788c2.737,5.039,5.725,10.046,8.462,15.005c-3.571,1.504-8.787,3.763-10.807,4.759
		L32.101,94.858C36.182,93.121,40.345,91.482,45.148,89.788"/>
	<path fill="none" stroke="#007AC1" stroke-width="0.188" stroke-miterlimit="2" d="M45.148,89.788
		c2.737,5.039,5.725,10.046,8.462,15.005c-3.571,1.504-8.787,3.763-10.807,4.759L32.101,94.858
		C36.182,93.121,40.345,91.482,45.148,89.788z"/>
	<path fill="#C4CED4" d="M36.636,112.77c-1.941,1.124-3.699,2.143-5.359,3.139l-13.42-13.411c1.874-1.221,6.566-4.133,6.566-4.133
		L36.636,112.77z"/>
	<path fill="none" stroke="#007AC1" stroke-width="0.188" stroke-miterlimit="2" d="M36.636,112.77
		c-1.941,1.124-3.699,2.143-5.359,3.139l-13.42-13.411c1.874-1.221,6.566-4.133,6.566-4.133L36.636,112.77z"/>
	<path fill="#C4CED4" d="M167.766,116.531c-4.073-2.735-14.68-8.704-21.999-11.548l8.419-15.154
		c9.426,3.257,21.067,9.386,26.806,13.031C180.992,102.859,169.785,114.602,167.766,116.531"/>
	<path fill="none" stroke="#007AC1" stroke-width="0.188" stroke-miterlimit="2" d="M167.766,116.531
		c-4.073-2.735-14.68-8.704-21.999-11.548l8.419-15.154c9.426,3.257,21.067,9.386,26.806,13.031
		C180.992,102.859,169.785,114.602,167.766,116.531z"/>
	<path fill="#007AC1" stroke="#FFFFFF" stroke-width="0.75" d="M93.949,32.844l-1.689,1.675l-2.882,0.176l-1.074-0.936l-1.354,1.15
		l-3.136,0.297l-1.383-1.316l1.806-12.287l2.383-0.325l-1.285,10.852l1.706-0.187l1.325-10.873l2.347-0.226L89.732,31.63l1.67-0.147
		l0.851-10.75c1.002-0.104,1.515-0.097,2.394-0.145L93.949,32.844z"/>
	<path fill="#007AC1" stroke="#FFFFFF" stroke-width="0.75" d="M101.651,20.421l0.019,7.733l1.516-0.007l-0.09-7.688
		c0,0,1.591,0.048,2.309,0.104l0.305,8.674l-1.461,1.458l-0.478,0.024l0.067,3.711l-2.58-0.073l-0.029-3.716l-0.515-0.043
		l-1.558-1.594l0.092-8.624C100.085,20.381,101.651,20.421,101.651,20.421"/>
	<path fill="#007AC1" stroke="#FFFFFF" stroke-width="0.75" d="M82.508,21.856l-0.399,2.54l-2.865,0.542l-0.527,2.965
		c1.054-0.188,1.701-0.295,2.95-0.456c-0.175,1.107-0.225,1.485-0.418,2.525L78.36,30.39l-0.537,2.843l2.955-0.427
		c0,0-0.295,1.91-0.442,2.77c-2.072,0.249-4.152,0.546-6.134,0.893c0,0,2.219-10.306,2.775-13.489L82.508,21.856z"/>
	<path fill="#007AC1" stroke="#FFFFFF" stroke-width="0.75" d="M71.689,36.923l-3.001,0.591l1.376-5.618l-0.931-2.019l-2.352,8.084
		l-2.927,0.675c1.216-4.381,2.466-8.759,3.684-13.135c1.003-0.342,1.751-0.573,2.644-0.836c0.323,0.739,1.112,2.228,1.112,2.228
		l0.71-2.744c0,0,1.856-0.487,2.791-0.698L71.689,36.923z"/>
	<path fill="#007AC1" stroke="#FFFFFF" stroke-width="0.75" d="M113.805,22.804c0.304,3.521,0.881,6.89,1.235,10.177l-1.312,1.996
		l-4.231-0.283l-1.523-1.665c-0.276-3.59-0.458-7.208-0.684-10.814c0.389-0.513,0.986-0.915,1.454-1.421l3.523,0.345L113.805,22.804
		z M109.861,23.401l0.751,8.388l1.487,0.117l-0.793-8.346L109.861,23.401z"/>
	<path fill="#007AC1" stroke="#FFFFFF" stroke-width="0.75" d="M127.494,24.063c0.522,2.015,1.553,6.17,1.553,6.17l1.003,0.202
		l0.494-0.668l-1.257-5.165c0,0,1.243,0.345,2.574,0.748l1.335,5.003l-0.628,0.898l1.159,1.281l1.758,6.093l-2.894-0.649
		l-1.13-4.274l-1.806-0.404l0.984,4.255l-2.937-0.582c-1.026-4.576-2.876-13.601-2.876-13.601S126.31,23.686,127.494,24.063"/>
	<path fill="#007AC1" stroke="#FFFFFF" stroke-width="0.75" d="M122.913,24.55l0.965,5.022l-0.558,0.779l0.983,1.174l0.853,4.986
		l-2.818-0.49l-0.775-4.15l-1.691-0.195l0.599,4.058l-2.813-0.349l-1.869-13.793l5.378,0.95L122.913,24.55z M118.836,24.726
		l0.506,3.502l1.59,0.183l-0.673-3.425L118.836,24.726z"/>
	<path fill="#F37021" d="M102.364,85.821c-3.159,1.1-6.2,2.701-9.213,4.098c-2.053-1.231-3.226-1.542-4.616-2.437
		C92.856,85.909,97.513,85.671,102.364,85.821"/>
	<path fill="none" stroke="#F37021" stroke-width="0.188" d="M102.364,85.821c-3.159,1.1-6.2,2.701-9.213,4.098
		c-2.053-1.231-3.226-1.542-4.616-2.437C92.856,85.909,97.513,85.671,102.364,85.821z"/>
	<path fill="#F37021" d="M131.826,103.279c-9.687-9.764-24.227-9.058-36.561-12.513c0,0,7.26-3.456,11.004-4.411
		C116.352,88.073,126.101,94.105,131.826,103.279"/>
	<path fill="none" stroke="#F37021" stroke-width="0.188" d="M131.826,103.279c-9.687-9.764-24.227-9.058-36.561-12.513
		c0,0,7.26-3.456,11.004-4.411C116.352,88.073,126.101,94.105,131.826,103.279z"/>
	<path fill="#F37021" d="M77.348,104.75c-9.31,14.287-10.571,31.882-3.154,47.304c-9.581-8.049-15.295-23.635-10.995-38.767
		C66.724,108.365,71.252,104.019,77.348,104.75"/>
	<path fill="none" stroke="#F37021" stroke-width="0.188" d="M77.348,104.75c-9.31,14.287-10.571,31.882-3.154,47.304
		c-9.581-8.049-15.295-23.635-10.995-38.767C66.724,108.365,71.252,104.019,77.348,104.75z"/>
	<path fill="#F37021" d="M87.314,114.918c5.02,14.924,6.132,31.437,19.122,46.461c-10.129,2.057-20.164-0.984-28.171-6.043
		c-9.911-14.469-8.975-36.046,0.938-50.073C84.028,106.655,86.661,112.972,87.314,114.918"/>
	<path fill="none" stroke="#F37021" stroke-width="0.188" d="M87.314,114.918c5.02,14.924,6.132,31.437,19.122,46.461
		c-10.129,2.057-20.164-0.984-28.171-6.043c-9.911-14.469-8.975-36.046,0.938-50.073C84.028,106.655,86.661,112.972,87.314,114.918z
		"/>
	<path fill="#F37021" d="M80.356,103.688c1.499-2.121,3.205-4.131,5.112-5.998c21.067,5.947,41.16,27.795,44.606,49.267
		c-1.008,1.62-3.415,3.882-5.03,5.497c-5.238,4.704-11.006,7.144-16.544,8.465c-9.842-10.206-13.082-23.46-16.556-36.521
		c-2.665-10.025-4.521-17.59-11.584-20.656L80.356,103.688z"/>
	<path fill="none" stroke="#F37021" stroke-width="0.188" d="M80.356,103.688c1.499-2.121,3.205-4.131,5.112-5.998
		c21.067,5.947,41.16,27.795,44.606,49.267c-1.008,1.62-3.415,3.882-5.03,5.497c-5.238,4.704-11.006,7.144-16.544,8.465
		c-9.842-10.206-13.082-23.46-16.556-36.521c-2.665-10.025-4.521-17.59-11.584-20.656L80.356,103.688z"/>
	<path fill="#F37021" d="M129.584,103.596c-10.177-8.978-24.36-7.831-36.252-12.016c-2.295,1.409-4.542,3.077-6.467,4.794
		c21.077,6.609,40.198,27.213,44.75,48.506c3.305-4.775,5.301-10.32,6.106-16.193C138.235,119.658,138.145,111.44,129.584,103.596"
		/>
	<path fill="none" stroke="#F37021" stroke-width="0.188" d="M129.584,103.596c-10.177-8.978-24.36-7.831-36.252-12.016
		c-2.295,1.409-4.542,3.077-6.467,4.794c21.077,6.609,40.198,27.213,44.75,48.506c3.305-4.775,5.301-10.32,6.106-16.193
		C138.235,119.658,138.145,111.44,129.584,103.596z"/>
	<path fill="#F37021" d="M83.729,97.027c-2.034,1.956-3.554,3.879-5.141,6.125l-0.047-0.017c-5.578-1.249-9.978,1.639-13.513,5.23
		c1.689-4.256,5.217-9.308,8.965-12.607C77.443,95.9,79.951,95.848,83.729,97.027"/>
	<path fill="none" stroke="#F37021" stroke-width="0.188" d="M83.729,97.027c-2.034,1.956-3.554,3.879-5.141,6.125l-0.047-0.017
		c-5.578-1.249-9.978,1.639-13.513,5.23c1.689-4.256,5.217-9.308,8.965-12.607C77.443,95.9,79.951,95.848,83.729,97.027"/>
	<path fill="#F37021" d="M85.221,95.718c1.995-1.767,3.929-3.326,6.319-4.761l-5.398-2.679c-3.598,1.47-7.445,3.383-10.089,5.808
		C80.137,94.558,81.89,94.813,85.221,95.718"/>
	<path fill="none" stroke="#F37021" stroke-width="0.188" d="M85.221,95.718c1.995-1.767,3.929-3.326,6.319-4.761l-5.398-2.679
		c-3.598,1.47-7.445,3.383-10.089,5.808C80.137,94.558,81.89,94.813,85.221,95.718z"/>
</g>
</svg>
