<svg version="1.1" id="Layer_1" xmlns="http://www.w3.org/2000/svg" xmlns:xlink="http://www.w3.org/1999/xlink" x="0px" y="0px" viewBox="0 0 200 200" enable-background="new 0 0 200 200" xml:space="preserve" preserveAspectRatio="xMidYMid">
<g>
	<g>
		<g>
			<path fill="#FFFFFF" d="M38.318,136.682c-0.629-0.046-1.237-0.154-1.842-0.316c-6.231-2.703-3.001-9.166-1.141-13.376
				c2.403-5.4,4.873-10.786,7.413-16.132c-13.477,4.216-26.596,8.647-39.301,13.263c-3.186,1.35-5.124-0.776-1.447-2.951
				c12.909-8.206,27.17-15.712,42.537-22.281c-3.757-7.839-6.773-16.238-9-25.203l-1.758-7.092
				C56.092,51.11,74.956,44.757,100.3,44.757c25.336,0,44.202,6.353,66.518,17.846c-0.417,1.705-0.852,3.4-1.302,5.095
				c11.102-0.386,21.913-0.159,32.314,0.646c2.491,0.174,2.491,3.038,0.103,3.287c-11.567,1.637-23.341,3.537-35.276,5.7
				c-0.746,2.286-1.534,4.533-2.366,6.725c12.732-2.708,25.207-4.526,37.283-5.485c3.103-0.285,3.143,2.69,0.618,3.231
				c-14.126,4.333-28.508,9.121-43.076,14.386c-12.388,25.629-30.581,42.777-54.815,57.301
				c-10.772-6.452-20.595-13.622-29.604-22.388c-19.906,9.298-38.963,19.018-57.009,29.001c-2.728,1.728-5.187,0.236-1.898-2.689
				C19.933,150.223,28.801,143.279,38.318,136.682z"/>
			<path fill="#0071CE" d="M157.644,86.33c13.689-3.05,27.107-5.078,40.056-6.112c-14.352,4.4-28.974,9.283-43.788,14.641
				C155.235,92.09,156.472,89.247,157.644,86.33z M12.887,158.653c11.456-10.113,24.365-19.741,38.51-28.615
				c2.661-1.345,5.324-2.685,7.995-4.007c1.105-0.547,3.263-1.591,5.975-2.889c1.819,2.04,3.711,4.032,5.667,5.966
				C50.719,138.579,31.277,148.485,12.887,158.653z"/>
			<path fill="#F42534" d="M163.319,69.439c11.832-0.499,23.333-0.308,34.38,0.555c-11.897,1.681-24.019,3.646-36.315,5.884
				C162.061,73.771,162.701,71.624,163.319,69.439z M2.882,118.564c13.291-8.447,28.014-16.146,43.909-22.832
				c0.527,1.065,1.078,2.125,1.63,3.17c-0.856,1.751-1.705,3.495-2.549,5.249C31.098,108.711,16.749,113.531,2.882,118.564z"/>
			<path fill="#FFFFFF" d="M88.222,112.313l1.935-0.894l4.964-3.994l1.107-3.053c0.716,1.454,1.107,2.031,1.819,3.489l1.632-0.726
				c0.055,1.576,0.083,3.103,0.083,4.567c-3.586,0.827-7.456,1.259-11.452,1.324L88.222,112.313z M102.493,105.89
				c2.059-0.91,4.117-1.809,6.173-2.705l0.964-1.011c0.408,0.065,0.873,0.077,1.399,0.034c0.797-0.135,1.779-0.404,2.848-0.785
				c-0.694,2.529-1.112,4.721-1.304,6.617c-2.932,1.033-6.222,2.003-9.963,2.958C102.604,109.362,102.565,107.65,102.493,105.89z
				 M100.296,50.516c22.408,0,39.976,5.246,59.811,15.133c-9.705,36.581-27.465,61.143-59.804,81.108
				c-12.15-7.516-22.479-15.902-31.11-25.444c3.838-1.829,8.166-3.882,11.97-5.681c1.54,0.139,3.012,0.22,4.388,0.258
				c-0.085,2.106-0.748,3.651-1.811,4.76c0.617,0.706,1.246,1.411,1.879,2.105c1.674-1.497,2.754-3.711,2.84-6.86
				c3.933-0.065,7.732-0.463,11.255-1.218c-0.195,5.768-1,10.022-2.64,11.695c-0.059,0.048-0.09,0.099-0.116,0.143
				c-0.412,0.446-0.778,0.795-1.093,1.075c1.584-0.294,3.142-0.656,4.681-1.088c1.975-4.096,2.002-11.272,2.034-12.503
				c3.669-0.926,6.937-1.864,9.877-2.859c0.116,3.362,1.461,6.579,4.032,7.769c1.157-0.823,2.283-1.684,3.368-2.588
				c-0.651,0.094-4.724,0.376-4.66-6.161c8.607-3.253,14.209-7.161,19.14-13.001c1.302-2.942,2.35-6.024,3.099-9.22
				c-5.901,9.3-11.336,14.737-21.946,19.008c0.304-1.881,0.851-4.136,1.722-6.813c3.095-1.301,6.324-2.851,8.27-3.645l4.639-4.882
				c1.167-4.507,2.327-9.004,3.485-13.508l-3.629,1.136l4.267-4.488c0.892-3.52,1.775-7.058,2.652-10.589
				c-2.136,0.313-4.277,0.633-6.414,0.971c0.358-1.758,0.612-3.508,0.749-5.251c-1.028-0.268-2.064-0.516-3.101-0.738
				c-0.217,1.955-0.601,4.116-1.182,6.542l-0.294,0.055c-2.006,0.328-4.056,0.984-5.843,2.489l0.572-1.729
				c-3.437,0.617-6.865,1.247-10.294,1.915l-3.412,3.586l0.113-0.29l1.106-2.874c-3.391,0.704-6.776,1.411-10.16,2.158
				c-0.706-4.577-1.413-8.703-2.03-12.054c-0.958,0.118-1.916,0.245-2.871,0.381c0.617,3.39,1.342,7.617,2.059,12.302l-2.396,0.528
				l-3.052,3.21c-2.134-2.25-6.469-0.825-9.201-0.145c-2.96,0.76-5.921,1.534-8.872,2.331c-0.884,0.241-1.762,0.504-2.622,0.805
				c-2.217-3.192-4.298-6.491-6.015-10.038l-0.309-0.656c-0.896,0.366-1.787,0.75-2.669,1.125l0.379,0.789
				c1.672,3.465,3.688,6.713,5.861,9.852c-3.187,1.426-6.132,3.381-8.68,6.202c0,0-4.148,4.336-4.632,4.878
				c-1.078,1.235-2.005,2.541-2.824,3.886c-4.352-8.752-7.802-18.293-10.392-28.734C60.307,55.762,77.882,50.516,100.296,50.516z"/>
			<path fill="#F42534" d="M88.222,112.313l1.935-0.894l4.964-3.994l1.107-3.053c0.716,1.454,1.107,2.031,1.819,3.489l1.632-0.726
				c0.055,1.576,0.083,3.103,0.083,4.567c-3.586,0.827-7.456,1.259-11.452,1.324L88.222,112.313z M102.493,105.89
				c2.059-0.91,4.117-1.809,6.173-2.705l0.964-1.011c0.408,0.065,0.873,0.077,1.399,0.034c0.797-0.135,1.779-0.404,2.848-0.785
				c-0.694,2.529-1.112,4.721-1.304,6.617c-2.932,1.033-6.222,2.003-9.963,2.958C102.604,109.362,102.565,107.65,102.493,105.89z
				 M63.427,67.655c9.876-4.041,19.981-6.836,30.409-8.338c0.617,3.39,1.342,7.617,2.059,12.302l-2.396,0.528l-3.052,3.21
				c-2.134-2.25-6.469-0.825-9.201-0.145c-2.96,0.76-5.921,1.534-8.872,2.331c-0.884,0.241-1.762,0.504-2.622,0.805
				c-2.217-3.192-4.298-6.491-6.015-10.038L63.427,67.655z M60.962,83.104c-1.606-4.066-3.024-8.232-4.239-12.498
				c1.337-0.63,2.683-1.242,4.035-1.826l0.379,0.789c1.672,3.465,3.688,6.713,5.861,9.852C64.86,80.376,62.835,81.57,60.962,83.104z
				 M83.739,120.649c-1.271-1.463-2.516-2.956-3.723-4.471l1.147-0.547c1.54,0.139,3.012,0.22,4.388,0.258
				C85.465,117.995,84.802,119.54,83.739,120.649z M95.864,127.589c-1.616,0.301-3.259,0.524-4.92,0.673
				c-1.836-1.782-3.612-3.62-5.326-5.508c1.674-1.497,2.754-3.711,2.84-6.86c3.933-0.065,7.732-0.463,11.255-1.218
				c-0.195,5.768-1,10.022-2.64,11.695c-0.059,0.048-0.09,0.099-0.116,0.143C96.545,126.959,96.18,127.309,95.864,127.589z
				 M116.488,118.909c-4.792,3.366-10.166,5.963-15.942,7.593c1.975-4.096,2.002-11.272,2.034-12.503
				c3.669-0.926,6.937-1.864,9.877-2.859C112.572,114.501,113.917,117.718,116.488,118.909z M134.336,97.159
				c-3.303,7.458-8.29,14.008-14.48,19.162c-0.651,0.094-4.724,0.376-4.66-6.161C123.803,106.907,129.405,102.999,134.336,97.159z
				 M112.369,57.998c4.736,0,9.404,0.258,14.015,0.757c3.503,0.733,6.973,1.622,10.416,2.662c1.312,4.594,2.021,9.448,2.021,14.468
				c0,4.152-0.477,8.188-1.386,12.054c-5.901,9.3-11.336,14.737-21.946,19.008c0.304-1.881,0.851-4.136,1.722-6.813
				c3.095-1.301,6.324-2.851,8.27-3.645l4.639-4.882c1.167-4.507,2.327-9.004,3.485-13.508l-3.629,1.136l4.267-4.488
				c0.892-3.52,1.775-7.058,2.652-10.589c-2.136,0.313-4.277,0.633-6.414,0.971c0.358-1.758,0.612-3.508,0.749-5.251
				c-1.028-0.268-2.064-0.516-3.101-0.738c-0.217,1.955-0.601,4.116-1.182,6.542l-0.294,0.055c-2.006,0.328-4.056,0.984-5.843,2.489
				l0.572-1.729c-3.437,0.617-6.865,1.247-10.294,1.915l-3.412,3.586l0.113-0.29l1.106-2.874c-3.391,0.704-6.776,1.411-10.16,2.158
				c-0.706-4.577-1.413-8.703-2.03-12.054C101.844,58.316,107.063,57.998,112.369,57.998z"/>
			<path fill="#FFB819" d="M56.411,87.62c-2.788-6.079-5.128-12.415-6.994-18.972c16.602-7.834,33.789-12.056,52.039-12.556
				c8.531,0.075,16.82,0.967,24.928,2.662c-4.611-0.499-9.279-0.757-14.015-0.757c-5.306,0-10.525,0.318-15.661,0.938
				c-0.958,0.118-1.92,0.251-2.871,0.381c-10.433,1.503-20.533,4.297-30.409,8.338c-0.896,0.366-1.787,0.75-2.669,1.125
				c-1.352,0.584-2.698,1.196-4.035,1.826c1.216,4.266,2.634,8.432,4.239,12.498c-0.922,0.754-1.805,1.591-2.645,2.519L56.411,87.62
				z M101.267,140.672c-9.518-6.455-18.005-14.036-25.341-22.558l4.09-1.936c1.208,1.515,2.452,3.008,3.723,4.471
				c0.617,0.706,1.246,1.411,1.879,2.105c5.434,5.966,11.448,11.434,18.005,16.341C102.845,139.633,102.061,140.157,101.267,140.672
				z"/>
			<path fill="#041E41" d="M88.222,112.313l0.087,0.711c3.996-0.065,7.866-0.496,11.452-1.324c0-1.464-0.028-2.99-0.083-4.567
				l-1.632,0.726c-0.712-1.457-1.103-2.035-1.819-3.489l-1.107,3.053l-4.964,3.994L88.222,112.313z M102.493,105.89
				c0.072,1.759,0.111,3.472,0.116,5.107c3.742-0.955,7.031-1.925,9.963-2.958c0.192-1.895,0.61-4.087,1.304-6.617
				c-1.069,0.381-2.05,0.65-2.848,0.785c-0.526,0.044-0.991,0.032-1.399-0.034l-0.964,1.011
				C106.61,104.081,104.552,104.98,102.493,105.89z M100.296,50.516c-22.414,0-39.989,5.246-59.827,15.137
				c2.59,10.441,6.04,19.983,10.392,28.734c0.819-1.345,1.746-2.651,2.824-3.886c0.484-0.542,4.632-4.878,4.632-4.878
				c2.548-2.821,5.494-4.777,8.68-6.202c-2.173-3.139-4.189-6.387-5.861-9.852l-0.379-0.789c0.883-0.376,1.773-0.759,2.669-1.125
				l0.309,0.656c1.717,3.547,3.798,6.845,6.015,10.038c0.86-0.301,1.738-0.564,2.622-0.805c2.952-0.798,5.912-1.572,8.872-2.331
				c2.731-0.68,7.066-2.105,9.201,0.145l3.052-3.21l2.396-0.528c-0.717-4.685-1.441-8.912-2.059-12.302
				c0.955-0.135,1.914-0.263,2.871-0.381c0.617,3.351,1.323,7.477,2.03,12.054c3.384-0.748,6.769-1.454,10.16-2.158l-1.106,2.874
				l-0.113,0.29l3.412-3.586c3.429-0.668,6.856-1.297,10.294-1.915l-0.572,1.729c1.787-1.505,3.837-2.161,5.843-2.489l0.294-0.055
				c0.581-2.426,0.965-4.587,1.182-6.542c1.037,0.222,2.073,0.471,3.101,0.738c-0.136,1.743-0.391,3.493-0.749,5.251
				c2.137-0.338,4.279-0.657,6.414-0.971c-0.877,3.532-1.761,7.069-2.652,10.589l-4.267,4.488l3.629-1.136
				c-1.158,4.505-2.318,9.001-3.485,13.508l-4.639,4.882c-1.946,0.793-5.175,2.344-8.27,3.645c-0.871,2.677-1.418,4.933-1.722,6.813
				c10.61-4.271,16.044-9.708,21.946-19.008c-0.748,3.196-1.797,6.279-3.099,9.22c-4.931,5.84-10.533,9.749-19.14,13.001
				c-0.063,6.537,4.01,6.255,4.66,6.161c-1.086,0.903-2.211,1.765-3.368,2.588c-2.571-1.19-3.916-4.408-4.032-7.769
				c-2.94,0.996-6.207,1.934-9.877,2.859c-0.031,1.231-0.058,8.406-2.034,12.503c-1.539,0.432-3.097,0.794-4.681,1.088
				c0.315-0.28,0.681-0.629,1.093-1.075c0.026-0.044,0.056-0.094,0.116-0.143c1.64-1.673,2.445-5.927,2.64-11.695
				c-3.523,0.755-7.322,1.152-11.255,1.218c-0.086,3.149-1.166,5.363-2.84,6.86c-0.633-0.694-1.262-1.399-1.879-2.105
				c1.063-1.109,1.726-2.654,1.811-4.76c-1.375-0.038-2.847-0.119-4.388-0.258c-3.804,1.799-8.132,3.852-11.97,5.681
				c8.631,9.542,18.96,17.928,31.11,25.444c32.339-19.965,50.099-44.526,59.804-81.108
				C140.272,55.762,122.705,50.516,100.296,50.516z M35.695,63.477c21.46-11.053,40.288-17.068,64.606-17.068
				c24.314,0,43.145,6.015,64.591,17.068c-9.963,40.156-28.992,66.747-64.591,88.08c-13.434-8.052-25.174-17.474-34.933-28.415
				c-2.712,1.298-4.87,2.341-5.975,2.889c-3.36,1.667-6.719,3.357-10.065,5.057c-3.773,1.914-7.962,4.844-12.311,3.711
				c-4.75-2.066-1.618-7.839-0.164-11.135c3.692-8.314,7.548-16.578,11.569-24.762c-4.83-9.056-8.625-18.921-11.285-29.608
				L35.695,63.477z"/>
			<path fill-rule="evenodd" clip-rule="evenodd" fill="#FFFFFF" d="M126.846,67.452c-2.059,0.345-3.919,1.001-5.454,2.541
				c-1.259,1.351-1.926,2.983-2.483,4.691c-1.641,5.157-3.29,10.301-4.934,15.451c-0.646,2.033-1.697,5.746,1.568,5.471
				c1.109-0.177,2.16-0.651,3.202-1.092c3.299-1.406,6.606-2.796,9.921-4.162c0.846-3.231,1.683-6.468,2.516-9.703
				c-1.744,0.543-3.48,1.095-5.223,1.652c-0.41,1.461-0.815,2.925-1.22,4.384c-1.211,0.437-2.416,0.887-3.627,1.324
				c1.529-5.215,3.058-10.444,4.577-15.668c1.071-0.236,2.144-0.46,3.217-0.677c-0.256,0.911-0.503,1.83-0.76,2.746
				c1.561-0.373,3.126-0.747,4.69-1.106c0.597-2.351,1.191-4.702,1.777-7.058C132.026,66.617,129.432,67.025,126.846,67.452z
				 M112.017,69.989c-3.696,4.827-7.345,9.693-10.951,14.585c1.687-4.48,3.39-8.956,5.109-13.421
				c-3.827,0.793-7.648,1.618-11.461,2.486c-0.99,2.31-1.975,4.62-2.945,6.928c0.818-0.224,1.65-0.451,2.467-0.677
				c-3.001,7.265-5.928,14.55-8.795,21.855c-1.18,2.97-2.347,5.943-3.514,8.918c3.829-1.814,7.658-3.604,11.502-5.373
				c1.74-4.801,3.494-9.596,5.271-14.377c1.63,3.257,3.247,6.536,4.853,9.81c2.474-1.097,4.958-2.191,7.441-3.274
				c-1.512-3.448-3.048-6.887-4.593-10.327c2.751-4.17,5.518-8.329,8.323-12.474c0.789-0.18,1.575-0.374,2.361-0.552
				c0.593-1.799,1.182-3.598,1.773-5.394C116.574,69.12,114.293,69.54,112.017,69.989z M66.372,110.013
				c-2.67,1.191-5.327,2.387-7.986,3.609c3.857-8.933,7.855-17.806,12.03-26.621c2.336-0.737,4.68-1.465,7.031-2.182
				C73.626,93.167,69.939,101.567,66.372,110.013z M72.746,79.216c-5.044,1.372-9.548,3.537-13.154,7.528
				c-2.067,2.367-3.544,5.086-4.92,7.868c-4.037,8.198-7.902,16.479-11.604,24.814c-0.967,2.175-3.934,7.473-0.775,8.84
				c3.494,0.907,7.865-2.028,10.95-3.602c3.35-1.7,6.712-3.39,10.078-5.057c5.737-2.848,10.88-6.297,14.367-11.849
				c1.388-2.344,2.422-4.847,3.442-7.363c2.188-5.397,4.421-10.782,6.696-16.145c0.852-2.009,2.339-4.548,1.866-6.747
				c-0.958-2.952-5.94-1.148-8.107-0.606C78.639,77.654,75.69,78.418,72.746,79.216z"/>
		</g>
	</g>
	<path fill="#0071CE" d="M141.035,63.008c1.468,0.497,2.981,1.027,4.422,1.57C143.988,64.022,142.512,63.505,141.035,63.008z
		 M140.769,62.675c1.57,0.506,3.038,1.034,4.505,1.59c3.68,1.366,6.935,2.756,9.625,4.038
		c-8.306,28.518-25.321,52.415-49.321,69.442l-1.956,1.35c-7.029-5.261-11.178-9.384-11.178-9.384l3.309-0.555
		c10.04-1.671,19.714-6.223,27.71-13.682c13.63-12.716,19.164-30.873,16.358-47.989c-0.068-0.383-0.145-0.771-0.213-1.159
		l-0.028-0.172l-0.034-0.174l-0.044-0.193l-0.034-0.183l-0.036-0.193l-0.042-0.19l-0.045-0.198l-0.044-0.195l-0.041-0.186
		l-0.028-0.159l-0.056-0.219l-0.045-0.201l-0.039-0.159l-0.029-0.151l-0.038-0.145c-0.154-0.625-0.289-1.143-0.434-1.64
		C139.328,62.197,140.056,62.439,140.769,62.675z"/>
</g>
</svg>
