<svg version="1.1" id="Layer_1" xmlns="http://www.w3.org/2000/svg" xmlns:xlink="http://www.w3.org/1999/xlink" x="0px" y="0px" viewBox="0 0 200 200" enable-background="new 0 0 200 200" xml:space="preserve" preserveAspectRatio="xMidYMid">
<g>
	<path fill="#8E9090" d="M75.283,95.199c14.857-2.28,29.685-1.611,42.666,3.87l1.584-3.481c-21.005-6.758-47.404-6.412-67.068,4.356
		l5.6-13.019C33.347,93.606,16.719,107.545,0,121.905C12.19,93.11,38.691,69.436,68.663,60.847l-1.524,4.778
		c26.245-8.566,55.052-10.189,78.377-6.337l-5.464-7.107l13.382,3.409l8.604-12.854l3.402,15.898l13.159,4.266
		c0,0-9.587,4.012-9.124,4.202c49.829,20.527,33.88,88.729-13.504,89.09c-23.968,0.199-42.564-21.458-41.752-44.114
		C102.035,104.059,89.808,100.198,75.283,95.199"/>
	<g>
		<path fill="#2E2A25" d="M164.544,67.121c2.741-1.194,7.86-3.429,7.86-3.429l0.382-0.167l-0.398-0.131
			c0,0-8.233-2.709-10.002-3.285c-0.266-1.862-1.567-10.815-1.567-10.815l-0.064-0.435l-2.995,4.871
			c0.001,0-1.714,2.767-2.641,4.272c-1.952-0.496-10.46-2.662-10.46-2.662l-0.449-0.113l0.285,0.365
			c0.005,0.008,3.462,4.457,5.558,7.166c-8.562-1.859-18.445-2.899-29.771-2.899c-3.717,0-7.591,0.111-11.619,0.343
			c-15.443,0.881-30.632,3.759-45.208,9.024l1.668-4.958l-0.298,0.093c-22.808,7.126-47.752,28.508-58.779,49.649l0.25,0.191
			C21.885,99.577,42.987,87.902,61.899,83.65l-4.967,11.58l0.383-0.186c8.803-4.249,20.358-6.128,32.016-6.128
			c11.929-0.001,23.97,1.967,33.271,5.357l-3.565,7.776c-8.484-3.89-20.754-6.511-30.933-6.513c-1.813,0-3.56,0.084-5.209,0.26
			l-0.027,0.311c12.023,3.394,24.472,7.231,34.336,15.136c-0.06,0.841-0.09,1.678-0.09,2.515
			c0.007,20.813,17.974,39.648,39.059,39.655c0.141,0,0.285-0.001,0.427-0.001c23.237-0.277,40.458-21.584,40.461-43.796
			C197.066,93.253,187.7,76.394,164.544,67.121z"/>
	</g>
	<g>
		<path fill="#8E9090" d="M151.869,105.246c-8.581,0-17.166-3.145-25.79-6.314c-2.273,4.806-3.43,9.842-3.43,14.969
			c0,2.725,0.328,5.478,0.99,8.231c0.712,0.017,1.427,0.026,2.143,0.026c16.651,0,34.317-4.627,48.588-13.089
			c-1.646-3.06-3.685-5.917-5.801-8.669C163.012,103.915,157.441,105.248,151.869,105.246z"/>
		<path fill="#8E9090" d="M125.182,125.388c-0.188,0-0.375,0-0.563,0c5.209,13.464,17.148,22.388,31.71,22.591
			c4.661-11.48,9.831-24.025,21.654-29.89c-0.619-2.069-1.377-4.082-2.214-6.067C160.547,120.917,142.778,125.388,125.182,125.388z"
			/>
		<path fill="#8E9090" d="M161.167,83.131c-5.177-1.976-8.475-2.589-8.784-2.644c-1.449,0.196-3.414,0.392-5.001,0.707
			c8.798,3.504,15.296,7.756,21.823,15.033c3.353-2.652,6.3-5.655,8.346-9.343c-5.986-5.821-17.26-12.954-45.373-15.168
			c11.872,2.826,22.788,6.632,29.136,11.137L161.167,83.131z"/>
		<path fill="#8E9090" d="M82.345,79.231c1.743-0.039,3.626-0.062,5.615-0.062c19.973,0.008,50.801,2.357,62.753,16.55l-0.201,0.242
			c-4.135-2.304-12.408-6.123-17.566-6.118c-0.167,0-0.331,0.005-0.488,0.012c-1.775,1.959-3.342,4.125-4.747,6.37
			c7.99,2.947,16.078,5.87,24.094,5.868c5.036,0,10.039-1.15,14.995-4.172c-13.852-15.096-37.301-21.681-59.42-21.679
			C98.593,76.242,90.02,77.279,82.345,79.231z"/>
		<path fill="#8E9090" d="M176.86,107.488c3.863-2.628,7.201-5.376,10.233-8.905c-1.907-3.624-5.205-7.696-7.569-9.792
			c-2.202,3.881-5.019,7.087-8.448,9.904C173.094,101.387,175.226,104.526,176.86,107.488z"/>
		<path fill="#8E9090" d="M159.715,147.84c7.017-0.856,13.469-3.251,18.894-7.859c0.834-3.104,1.191-6.318,1.191-9.54
			c0-3.078-0.327-6.165-0.879-9.168C168.336,126.359,163.942,137.528,159.715,147.84z"/>
		<path fill="#8E9090" d="M182.925,132.511c0,1.062-0.027,2.123-0.077,3.188c4.115-5.568,6.322-10.406,7.545-17.526
			c-3.005,0.268-5.981,0.772-8.814,1.712C182.504,124.078,182.925,128.278,182.925,132.511z"/>
		<path fill="#8E9090" d="M178.318,110.434c0.928,2.123,1.751,4.279,2.471,6.486c3.301-1.075,6.486-1.628,9.926-1.837
			c0.005-0.246,0.005-0.488,0.005-0.729c0-4.557-0.673-8.06-2.157-12.419C185.41,105.167,182.075,107.916,178.318,110.434z"/>
		<path fill="#8E9090" d="M190.716,115.084c-3.441,0.209-6.625,0.761-9.926,1.837c-0.72-2.207-1.544-4.363-2.471-6.486
			c3.757-2.518,7.092-5.267,10.246-8.498c1.484,4.359,2.157,7.862,2.157,12.419C190.721,114.596,190.721,114.838,190.716,115.084z"
			/>
		<path fill="#8E9090" d="M179.523,88.791c2.364,2.096,5.662,6.168,7.569,9.792c-3.032,3.529-6.37,6.277-10.233,8.905
			c-1.634-2.962-3.765-6.101-5.784-8.792C174.504,95.878,177.322,92.672,179.523,88.791z"/>
		<path fill="#8E9090" d="M132.178,71.716c28.113,2.213,39.386,9.347,45.373,15.168c-2.045,3.687-4.992,6.691-8.346,9.343
			c-6.528-7.277-13.025-11.529-21.823-15.033c1.587-0.315,3.553-0.511,5.001-0.707c0.31,0.055,3.607,0.669,8.784,2.644l0.147-0.278
			C154.966,78.348,144.05,74.543,132.178,71.716z"/>
		<path fill="#8E9090" d="M125.78,122.158c-0.716,0-1.431-0.009-2.143-0.026c-0.661-2.753-0.99-5.506-0.99-8.231
			c0-5.126,1.157-10.163,3.43-14.969c8.624,3.169,17.209,6.314,25.79,6.314c5.572,0.002,11.143-1.331,16.698-4.847
			c2.116,2.752,4.156,5.609,5.801,8.669C160.097,117.53,142.431,122.158,125.78,122.158z"/>
		<path fill="#8E9090" d="M156.329,147.979c-14.562-0.203-26.501-9.126-31.71-22.591c0.188,0,0.375,0,0.563,0
			c17.596,0,35.366-4.472,50.588-13.367c0.837,1.986,1.594,3.998,2.214,6.067C166.159,123.954,160.99,136.499,156.329,147.979z"/>
		<path fill="#8E9090" d="M182.849,135.698c0.05-1.065,0.077-2.126,0.077-3.188c0-4.232-0.422-8.433-1.346-12.627
			c2.833-0.94,5.81-1.444,8.814-1.712C189.17,125.293,186.964,130.13,182.849,135.698z"/>
		<path fill="#8E9090" d="M166.799,97.921c-4.956,3.022-9.959,4.172-14.995,4.172c-8.016,0.002-16.104-2.922-24.094-5.868
			c1.404-2.244,2.972-4.411,4.747-6.37c0.157-0.007,0.321-0.012,0.488-0.012c5.158-0.005,13.431,3.814,17.566,6.118l0.201-0.242
			c-11.952-14.193-42.78-16.542-62.753-16.55c-1.989,0-3.872,0.023-5.615,0.062c7.675-1.952,16.248-2.99,25.035-2.99
			C129.499,76.24,152.947,82.825,166.799,97.921z"/>
		<path fill="#8E9090" d="M178.609,139.981c-5.425,4.608-11.877,7.003-18.894,7.859c4.227-10.312,8.621-21.481,19.205-26.567
			c0.553,3.003,0.879,6.09,0.879,9.168C179.8,133.663,179.443,136.877,178.609,139.981z"/>
	</g>
	<polygon fill="#8E9090" points="150.834,70.127 156.948,67.99 161.589,73.257 161.046,66.381 166.967,63.801 160.526,61.686 
		159.526,54.826 156.087,60.397 149.563,58.731 153.889,64.292 	"/>
	<polygon fill="#FFFFFF" points="118.264,75.078 122.509,72.982 126.049,76.13 125.359,71.451 129.447,69.074 124.778,68.276 
		123.772,63.662 121.582,67.855 116.869,67.374 120.179,70.756 	"/>
	<polygon fill="#FFFFFF" points="70.521,84.469 73.318,83.088 75.641,85.16 75.188,82.083 77.875,80.516 74.804,79.987 
		74.141,76.953 72.698,79.702 69.601,79.398 71.779,81.621 	"/>
	<g>
		<path fill="#0055B8" d="M176.223,126.694l-0.005-0.57l-3.939,6.601l1.13-5.813l-0.278-0.132
			c-5.776,7.003-7.983,12.037-9.777,18.244l-0.087,0.293l0.292-0.099c6.483-2.25,9.827-4.846,11.201-5.937l0.03-0.023l0.015-0.035
			c0.965-2.095,1.422-6.331,1.425-11.52C176.228,127.368,176.225,127.033,176.223,126.694z"/>
		<path fill="#0055B8" d="M163.046,111.405c-6.308,1.283-13.668,2.034-20.412,2.034c-1.013,0-2.011-0.015-2.99-0.05l14.469-4.281
			l-0.037-0.312c-9.553-0.449-16.928-0.628-26.262-5.006l-0.135-0.062l-0.072,0.129c-1.39,2.493-2.178,5.987-2.178,9.523
			c0,2.009,0.254,4.035,0.805,5.896l0.032,0.109l0.114,0.005c0.005,0,0.335,0.01,0.949,0.01c4.172-0.001,21.316-0.46,35.822-7.696
			L163.046,111.405z"/>
		<path fill="#0055B8" d="M166.237,123.142c-7.297,5.421-12.79,9.804-23.547,11.83c9.962-5.179,16.644-8.74,22.927-15.098
			l-0.194-0.248c-11.139,6.483-25.646,9.262-35.882,9.647l-0.277,0.01l0.149,0.234c8.425,13.334,19.086,14.529,22.553,14.529
			c0.008,0,0.014,0,0.02,0c0.719,0,1.124-0.05,1.13-0.05l0.074-0.01l0.04-0.064c4.52-7.149,7.396-14.033,13.219-20.546
			L166.237,123.142z"/>
	</g>
	<path fill-rule="evenodd" clip-rule="evenodd" fill="#FFFFFF" d="M185.065,97.693c-0.958,1.031-1.882,1.943-2.823,2.795
		c-1.045-2.247-2.263-4.399-3.676-6.435c0.733-0.889,1.448-1.804,2.113-2.766C182.48,93.283,184.044,95.613,185.065,97.693
		 M188.908,111.844c-1.124,0.147-2.165,0.31-3.194,0.532c-0.23-1.667-0.564-3.317-0.987-4.937c1.115-0.939,2.187-1.893,3.272-2.917
		C188.621,106.922,188.882,109.169,188.908,111.844 M185.309,126.959l-0.03-0.562c0.466-2.319,0.728-4.646,0.809-6.941
		c0.609-0.163,1.232-0.289,1.859-0.406C187.28,121.903,186.448,124.494,185.309,126.959 M158.766,78.711
		c-0.529-0.278-1.068-0.541-1.627-0.792c8.615,2.557,14.424,5.881,17.671,8.41c-0.5,0.741-1.057,1.455-1.629,2.15
		C169.193,84.344,164.325,80.976,158.766,78.711"/>
</g>
</svg>
