<svg version="1.1" id="Layer_1" xmlns="http://www.w3.org/2000/svg" xmlns:xlink="http://www.w3.org/1999/xlink" x="0px" y="0px" viewBox="0 0 200 200" enable-background="new 0 0 200 200" xml:space="preserve" preserveAspectRatio="xMidYMid">
<g>
	<path fill="#FFFFFF" d="M99.487,196.88c53.073,0,96.087-43.022,96.087-96.093c0-53.073-43.014-96.091-96.087-96.091
		c-53.076,0-96.091,43.018-96.091,96.091C3.397,153.857,46.411,196.88,99.487,196.88z"/>
	<path fill="#FFFFFF" d="M99.487,100.787"/>
	<path fill="#FFFFFF" d="M100.026,199.05c54.523,0,98.745-44.211,98.745-98.739c0-54.545-44.222-98.748-98.745-98.748
		c-54.538,0-98.755,44.203-98.755,98.748C1.271,154.839,45.488,199.05,100.026,199.05z"/>
	<path fill="#003DA6" stroke="#003DA6" stroke-width="1.2027" d="M100.026,199.05c54.523,0,98.745-44.211,98.745-98.739
		c0-54.545-44.222-98.748-98.745-98.748c-54.538,0-98.755,44.203-98.755,98.748C1.271,154.839,45.488,199.05,100.026,199.05z"/>
	<path fill="#FFFFFF" d="M147.791,144.549c5.503,8.334,10.224,16.271,13.881,23.486c-16.262,14.83-39.925,24.371-63.071,23.788
		c-0.277-20.529,9.412-40.367,15.919-49.223c-1.04-0.741-1.661-1.373-2.617-2.546c-6.754,8.806-18.344,29.579-18.049,51.585
		c-27.291-1.816-51.294-15.569-66.851-36.12c8.08-2.62,16.166-5.794,24.176-9.441c-0.816-0.798-3.049-1.609-4.37-1.975
		c-7.319,3.178-14.709,5.943-22.068,8.223c-9.7-14.007-15.602-30.838-16.196-49.027c5.632,1.34,12.129,1.602,19.455,0.99
		l-0.011-4.013c-7.29,0.611-13.96,0.395-19.507-0.915c0.296-28.395,13.516-53.648,34.045-70.256
		c12.59,7.98,32.171,26.313,50.493,46.368c-0.878,1.103-2.093,2.091-2.458,2.53l3.78,2.012
		c18.366-15.144,33.411-38.934,36.338-65.972c15.886,5.645,29.723,15.53,40.195,28.314c-15.639,22.533-37.338,45.118-62.071,64.383
		c0.151,1.322,0.779,2.551,1.517,3.285c24.885-19.21,46.857-41.688,63.145-64.328c10.268,13.778,16.702,30.539,17.857,48.745
		c-22.896,2.334-38.49,9.973-49.939,17.311c0.159,0.805,1.864,2.152,2.887,2.314c10.917-6.906,25.722-13.943,47.192-16.143
		c0.019,0.79,0.089,1.591,0.089,2.388c0,25.149-10.124,47.947-26.523,64.484c-3.912-7.157-8.693-14.886-14.121-22.917l-3.071,2.879"
		/>
	<path fill="#FFFFFF" d="M96.092,73.182C77.261,52.651,58.909,35.326,45.935,26.528c15.163-11.141,33.82-17.757,54.091-17.757
		c9.287,0,18.248,1.383,26.685,3.961C124.332,36.842,111.875,58.424,96.092,73.182z"/>
	<path fill="#FFFFFF" d="M147.791,144.549c5.503,8.334,10.224,16.271,13.881,23.486c-16.262,14.83-39.925,24.371-63.071,23.788
		c-0.277-20.529,9.412-40.367,15.919-49.223c-1.04-0.741-1.661-1.373-2.617-2.546c-6.754,8.806-18.344,29.579-18.049,51.585
		c-27.291-1.816-51.294-15.569-66.851-36.12c8.08-2.62,16.166-5.794,24.176-9.441c-0.816-0.798-3.049-1.609-4.37-1.975
		c-7.319,3.178-14.709,5.943-22.068,8.223c-9.7-14.007-15.602-30.838-16.196-49.027c5.632,1.34,12.129,1.602,19.455,0.99
		l-0.011-4.013c-7.29,0.611-13.96,0.395-19.507-0.915c0.296-28.395,13.516-53.648,34.045-70.256
		c12.59,7.98,32.171,26.313,50.493,46.368c-0.878,1.103-2.093,2.091-2.458,2.53l3.78,2.012
		c18.366-15.144,33.411-38.934,36.338-65.972c15.886,5.645,29.723,15.53,40.195,28.314c-15.639,22.533-37.338,45.118-62.071,64.383
		c0.151,1.322,0.779,2.551,1.517,3.285c24.885-19.21,46.857-41.688,63.145-64.328c10.268,13.778,16.702,30.539,17.857,48.745
		c-22.896,2.334-38.49,9.973-49.939,17.311c0.159,0.805,1.864,2.152,2.887,2.314c10.917-6.906,25.722-13.943,47.192-16.143
		c0.019,0.79,0.089,1.591,0.089,2.388c0,25.149-10.124,47.947-26.523,64.484c-3.912-7.157-8.693-14.886-14.121-22.917l-3.071,2.879"
		/>
	<path fill="#FFFFFF" d="M96.092,73.182C77.261,52.651,58.909,35.326,45.935,26.528c15.163-11.141,33.82-17.757,54.091-17.757
		c9.287,0,18.248,1.383,26.685,3.961C124.332,36.842,111.875,58.424,96.092,73.182z"/>
	<polygon fill="#003DA6" points="51.667,45.101 52.39,47.392 54.838,47.392 52.852,48.836 53.576,51.09 51.667,49.708 49.748,51.09 
		50.468,48.827 48.489,47.392 50.925,47.392 	"/>
	<polygon fill="#003DA6" points="66.036,53.468 66.763,55.757 69.21,55.757 67.228,57.195 67.948,59.457 66.04,58.057 
		64.121,59.457 64.852,57.195 62.858,55.757 65.298,55.757 	"/>
	<polygon fill="#003DA6" points="59.872,47.013 60.595,49.294 63.054,49.294 61.061,50.739 61.784,53.002 59.876,51.601 
		57.964,53.002 58.684,50.739 56.705,49.294 59.141,49.294 	"/>
	<polygon fill="#003DA6" points="68.38,61.386 69.111,63.676 71.55,63.676 69.576,65.112 70.292,67.374 68.387,65.983 
		66.468,67.374 67.203,65.112 65.209,63.676 67.642,63.676 	"/>
	<polygon fill="#003DA6" points="67.354,69.744 68.088,72.025 70.524,72.025 68.546,73.489 69.273,75.74 67.361,74.341 
		65.453,75.74 66.166,73.47 64.187,72.025 66.619,72.025 	"/>
	<polygon fill="#003DA6" points="62.733,76.423 63.456,78.704 65.911,78.704 63.925,80.149 64.645,82.411 62.74,81.02 
		60.824,82.411 61.548,80.149 59.555,78.704 62.002,78.704 	"/>
	<polygon fill="#003DA6" points="55.469,80.158 56.214,82.437 58.647,82.437 56.668,83.891 57.392,86.154 55.488,84.753 
		53.568,86.154 54.284,83.882 52.295,82.437 54.742,82.437 	"/>
	<polygon fill="#003DA6" points="37.047,52.732 36.309,55.023 33.88,55.023 35.851,56.458 35.128,58.721 37.036,57.329 
		38.959,58.721 38.228,56.458 40.225,55.023 37.774,55.023 	"/>
	<polygon fill="#003DA6" points="43.052,47.013 42.321,49.294 39.893,49.294 41.868,50.739 41.148,53.002 43.052,51.601 
		44.972,53.002 44.248,50.739 46.23,49.294 43.791,49.294 	"/>
	<polygon fill="#003DA6" points="34.246,60.354 33.53,62.643 31.079,62.643 33.061,64.08 32.334,66.342 34.242,64.959 
		36.165,66.342 35.445,64.08 37.435,62.643 34.991,62.643 	"/>
	<polygon fill="#003DA6" points="34.991,68.712 34.257,71.001 31.813,71.001 33.799,72.455 33.079,74.708 34.984,73.326 
		36.903,74.708 36.173,72.446 38.158,71.001 35.719,71.001 	"/>
	<polygon fill="#003DA6" points="39.609,75.544 38.878,77.833 36.438,77.833 38.42,79.278 37.693,81.531 39.609,80.131 
		41.531,81.531 40.801,79.259 42.783,77.833 40.343,77.833 	"/>
	<polygon fill="#003DA6" points="46.869,79.87 46.142,82.16 43.691,82.16 45.68,83.605 44.968,85.859 46.862,84.467 48.792,85.859 
		48.057,83.587 50.043,82.16 47.607,82.16 	"/>
	<path fill="#003DA6" d="M122.184,130.863c0.299,2.728,2.04,5.44,5.02,5.44c2.428,0,3.864-1.491,5.093-3.395l2.514,2.982
		c-2.307,3.949-6.629,6.058-11.091,6.058c-7.807,0-11.505-5.906-11.505-12.362c0-8.268,4.776-13.878,11.97-13.878
		c6.773,0,10.371,5.503,10.737,11.707L122.184,130.863z"/>
	<path fill="#003DA6" d="M148.105,141.227h-13.439v-3.388l2.414-0.355v-10.526c0-3.772-0.495-5.566-3.16-5.566v-2.963l9.545-2.794
		c1.085,2.119,1.428,4.555,1.579,6.961h0.096c0.952-2.865,2.141-6.888,5.263-6.888c2.728,0,3.935,2.112,3.935,4.677
		c0,2.613-1.137,4.75-3.138,4.75c-1.369,0-2.539-0.583-3.196-0.798c-1.75-0.597-2.307,6.991-2.307,8.571v4.576l2.407,0.355V141.227z
		"/>
	<path fill="#003DA6" d="M170.698,120.547c0,2.093-1.794,3.126-3.695,3.126c-2.318,0-3.949-1.868-4.37-4.134
		c-0.99,0-1.687,0.513-1.687,2.186c0,3.894,10.999,1.122,10.999,10.995c0,7.386-5.334,9.228-10.475,9.228
		c-3.122,0-8.589-0.41-8.589-5.179c0-2.163,1.203-3.809,3.347-3.809c3.34,0,3.913,3.063,4.47,5.226
		c0.165,0.576,0.66,0.672,1.122,0.672c1.764,0,3.041-0.735,3.041-1.89c0-4.429-11.291-2.724-11.291-12.32
		c0-6.112,7.209-8.866,10.682-8.866C168.214,115.781,170.698,117.099,170.698,120.547z"/>
	<path fill="#003DA6" d="M84.44,109.639h-0.081h0.162c2.311-3.591,6.696-5.307,10.977-5.307c9.733,0,15.712,8.386,15.712,19.673
		c0,13.372-9.064,21.334-20.248,21.334c-17.222,0-23.471-13.904-23.471-29.993c0-18.526,8.043-33.824,28.1-33.824
		c7.803,0,14.243,5.054,14.243,12.749c0,4.981-3.869,7.424-7.548,7.424c-5.403,0-7.138-4.525-7.898-8.474
		c-0.325-1.689,0.303-5.406-2.488-5.406c-5.828,0-6.777,11.411-7.028,15.609L84.44,109.639z"/>
	<path fill="#003DA6" d="M70.299,136.418c-4.577,2.543-8.762,4.739-13.417,6.983c-0.229-0.941-0.524-2.594-0.524-3.687
		c4.174-2.03,8.33-4.186,12.45-6.474C69.317,134.354,69.786,135.388,70.299,136.418z"/>
	<path fill="#FFFFFF" d="M121.567,127.106l2.244-0.605c1.348-0.362,2.274-0.827,2.274-2.783c0-1.639-0.461-4.606-2.418-4.606
		c-2.1,0-2.1,3.529-2.1,5.44V127.106z"/>
	<path fill="#FFFFFF" d="M94.616,125.843c0-7.083-0.248-13.199-5.057-13.199c-3.912,0-4.592,6.115-4.592,13.199
		c0,7.072-0.196,13.207,4.592,13.207C93.63,139.05,94.616,132.915,94.616,125.843z"/>
	<path fill="#FFFFFF" d="M121.567,127.106l2.244-0.605c1.348-0.362,2.274-0.827,2.274-2.783c0-1.639-0.461-4.606-2.418-4.606
		c-2.1,0-2.1,3.529-2.1,5.44V127.106z"/>
	<path fill="#FFFFFF" d="M94.616,125.843c0-7.083-0.248-13.199-5.057-13.199c-3.912,0-4.592,6.115-4.592,13.199
		c0,7.072-0.196,13.207,4.592,13.207C93.63,139.05,94.616,132.915,94.616,125.843z"/>
	<path fill="#DD0031" d="M29.289,81.199v23.872c13.369,1.985,29.34,0.664,40.619-15.845c0.477-0.692,0.757-0.207,0.451,0.413
		c-3.156,6.41-10.608,12.342-17.056,17.417c-6.2,4.854-22.817,22.286-22.592,37.618c0.015,1.178,0.055,0.857,1.092,0.082
		c5.035-3.743,14.915-3.861,20.983-0.952c0.845,0.398,0.908,0.28,0.808-0.813c-1.159-11.888,1.513-24.877,6.607-32.41
		c3.51-5.223,12.963-18.663,14.587-29.203c0.17-1.094-0.399-0.925-1.761,0.522c-10.704,11.292-30.048,11.023-42.542-0.961
		C29.706,80.184,29.355,80.525,29.289,81.199z"/>
</g>
</svg>
