<svg version="1.1" id="Layer_1" xmlns="http://www.w3.org/2000/svg" xmlns:xlink="http://www.w3.org/1999/xlink" x="0px" y="0px" viewBox="0 0 200 200" enable-background="new 0 0 200 200" xml:space="preserve" preserveAspectRatio="xMidYMid">
<g>
	<path fill="#FFFFFF" stroke="#FFFFFF" stroke-width="2.9083" d="M193.226,59.664c-3.969,2.739-10.128,5.463-16.99,2.932
		c-9.307-3.419-18.311-2.665-26.034,2.217c-2.79,1.773-7.22,2.169-9.118-0.063c-0.554-0.645-0.837-1.517-0.837-2.449
		c0-1.108,0.377-2.307,1.14-3.396c0.806-1.183,3.258-2.708,5.573-3.486c0,0,2.668-0.928,4.414-1.517
		c-1.71-0.393-4.567-1.03-4.567-1.03c-6.52-1.462-15.564-1.399-21.648,7.173c-3.266,4.649-5.518,6.835-9.362,6.74
		c-0.016,0-0.102,0-0.102,0c-3.691,0.087-5.188-3.054-5.255-5.054c0-4.378,3.679-9.252,10.647-14.102l2.562-1.769
		c-4.182,0.322-9.173,1.148-9.173,1.148s5.211-5.494,11.83-6.634c-0.519-0.33-0.873-0.904-2.35-1.71
		c-4.964-2.743-13.052,0.169-14.62,0.786l-0.251,0.094l-0.248-0.216c-1.034-0.896-4.862-3.51-11.126,0.967
		c-3.671,2.625-6.532,4.095-9.008,4.661c0,0-2.449,0.57-3.828,0.896c0.927,0.55,2.366,1.352,3.219,1.686
		c1.552,0.574,2.669,0.857,3.635,0.916l0.778,0.043l-0.436,0.684c-0.629,0.939-3.427,3.561-5.314,4.504
		c-1.136,0.578-2.904,1.352-4.099,1.871c1.344,0.267,3.321,0.629,4.366,0.715c1.619,0.114,4.378-0.059,4.583-0.086l0.483-0.035
		v0.479c0,0.086-0.267,9.232-5.872,10.509c-5.388,1.226-7.448-1.317-11.598-7.173c-6.068-8.576-15.108-8.627-21.632-7.181
		c0,0-2.857,0.656-4.571,1.042c1.659,0.554,4.429,1.49,4.429,1.49c2.299,0.79,4.748,2.331,5.554,3.502
		c0.762,1.089,1.155,2.315,1.155,3.407c0,0.935-0.275,1.792-0.849,2.441c-1.949,2.26-6.288,1.855-9.118,0.071
		c-7.715-4.889-16.727-5.656-26.026-2.228c-6.874,2.531-13.025-0.185-16.998-2.916c0,0-2.228-1.541-3.565-2.46
		c0.593,1.509,1.6,4.025,1.6,4.025c6.253,15.689,20.653,16.244,24.929,16.047c5.09-0.252,7.585,2.503,8.218,5.149
		c0.66,2.724-0.519,5.451-2.798,6.501c-1.784,0.794-5.282,0.794-9.625,0c0,0-1.281-0.232-2.047-0.373c0.2,0.747,0.531,2,0.531,2
		c4.044,15.273,19.278,16.161,19.934,16.181l0.083,0.012c0,0,0.173-0.012,0.48-0.028v25.087v1.792c0,0,13.964,4.979,18.209,6.524
		c1.352,2.079,2.861,4.044,4.536,5.86l0,0c0.008,0.02,0.024,0.02,0.035,0.043c0.377,0.401,0.755,0.802,1.144,1.187
		c0,0,0,0.016,0.004,0.016c1.926,1.945,4.04,3.71,6.3,5.274c0,0,0.016,0.008,0.016,0.016l0,0c0.715,0.483,1.415,0.955,2.138,1.399
		l0,0c0.008,0,0.008,0.008,0.008,0.008c0.723,0.432,1.442,0.841,2.173,1.234c0.2,0.106,0.397,0.197,0.601,0.302
		c0.542,0.283,1.089,0.551,1.627,0.814c0.251,0.106,0.503,0.22,0.758,0.33c0.538,0.244,1.089,0.475,1.651,0.68
		c0.224,0.106,0.456,0.197,0.684,0.283c0.774,0.299,1.553,0.562,2.339,0.802c0.016,0,0.024,0.012,0.024,0.012
		c0.802,0.252,1.615,0.472,2.441,0.684c0.24,0.055,0.483,0.114,0.727,0.161c0.585,0.149,1.175,0.263,1.78,0.373
		c0.283,0.055,0.558,0.114,0.853,0.157c0.597,0.102,1.203,0.181,1.816,0.271c0.251,0.024,0.503,0.067,0.747,0.086
		c0.864,0.098,1.729,0.169,2.606,0.216c0.008,0,0.008,0,0.008,0c0.747,0.032,1.493,0.059,2.256,0.059
		c0.68,0,1.375-0.027,2.055-0.051c0.393-0.02,0.774-0.055,1.164-0.071c0.259-0.031,0.523-0.043,0.806-0.067
		c0.499-0.051,0.998-0.106,1.505-0.173c0.106-0.008,0.22-0.02,0.326-0.036c2.185-0.291,4.316-0.739,6.399-1.336
		c0.027-0.011,0.043-0.011,0.075-0.011c3.4-0.987,6.614-2.346,9.617-4.072c0.075-0.031,0.13-0.071,0.196-0.106
		c0.688-0.401,1.376-0.817,2.04-1.254c0.047-0.039,0.09-0.063,0.142-0.09c2.134-1.391,4.131-2.967,5.982-4.712
		c0.11-0.09,0.2-0.181,0.311-0.291c0.495-0.479,0.986-0.959,1.458-1.454c0.11-0.118,0.224-0.239,0.334-0.358
		c0.507-0.542,0.998-1.089,1.466-1.631c0.055-0.071,0.126-0.153,0.177-0.224c1.065-1.262,2.067-2.602,2.991-3.997
		c0.067-0.102,0.126-0.216,0.201-0.322l18.162-6.536v-1.757v-25.075c0.299,0.016,0.601,0.039,0.931,0.055
		c0.016,0,0.071-0.016,0.071-0.016c1.611-0.087,15.878-1.372,19.804-16.169c0,0,0.299-1.218,0.527-2.012
		c-0.766,0.142-2.048,0.385-2.048,0.385c-4.331,0.798-7.845,0.79-9.621-0.012c-2.284-1.034-3.455-3.773-2.814-6.485
		c0.641-2.649,3.148-5.404,8.234-5.157c4.268,0.197,18.669-0.35,24.921-16.043c0,0,0.979-2.425,1.607-4.021
		C195.455,58.131,193.226,59.664,193.226,59.664z"/>
	<path fill="#3E2680" d="M115.723,48.034l-4.787,0.593l3.789-3.793c2.657-2.476,5.223-4.178,8.642-4.897c0,0,0.09-0.02,0.204-0.043
		c-0.016,0-0.181-0.086-0.181-0.086c-4.815-2.452-12.718,0.487-13.607,0.821l-0.951,0.389l-0.817-0.708
		c-0.853-0.735-4.064-2.9-9.566,1.026c-3.801,2.712-6.815,4.276-9.46,4.874c0,0-0.078,0.02-0.2,0.055
		c0.02,0,0.181,0.079,0.181,0.079c1.026,0.515,1.941,0.782,2.826,0.837c0.012,0,2.991,0.145,2.991,0.145l-1.631,2.547
		c-0.696,1.014-2.641,3.545-5.895,5.003c0,0-0.087,0.039-0.216,0.09c0.02,0,0.22,0.043,0.22,0.043
		c1.203,0.193,3.651-0.024,4.197-0.09l1.883-0.236l0.035,1.894c0,0.405-0.224,10.325-6.866,11.846
		c-6.477,1.474-9.055-2.189-12.97-7.703c-5.726-8.084-14.381-7.959-20.276-6.646c2.264,0.778,5.133,2.417,6.225,3.997
		c1.769,2.551,2.158,5.899,0,7.668c-2.834,2.311-7.436,2.107-10.6,0.106c-4.233-2.665-12.769-6.56-24.882-2.095
		c-7.412,2.735-14.007-0.193-18.189-3.077c5.88,14.75,19.301,15.426,23.64,15.21c5.891-0.283,8.835,3.144,9.57,6.159
		c0.798,3.337-0.695,6.697-3.549,7.998c-2.677,1.218-7.35,0.672-10.407,0.102c3.781,14.251,17.725,15.167,18.723,15.198
		c0.177-0.004,17.658-0.947,18.071-0.975c0.373-0.118,27.154-8.32,27.154-8.32l8.175-1.348c0,0,14.899,5.475,17.981,6.505
		c1.564,0.523,11.413,1.619,22.316,2.708l0.421,0.542c0.259,0.012,6.681,0.358,11.795,0.641l6.402,0.334
		c1.643-0.102,14.931-1.34,18.602-15.21c-3.046,0.57-7.731,1.116-10.403-0.098c-2.861-1.301-4.347-4.657-3.545-7.994
		c0.731-3.015,3.675-6.446,9.57-6.159c4.331,0.204,17.753-0.464,23.644-15.206c-4.186,2.877-10.792,5.805-18.205,3.069
		c-12.105-4.469-20.637-0.523-24.862,2.099c-3.192,1.977-7.778,2.217-10.612-0.106c-2.162-1.769-1.772-5.109,0-7.68
		c1.101-1.564,3.95-3.219,6.225-3.977c-5.903-1.321-14.55-1.442-20.284,6.638c-3.313,4.665-5.896,7.409-10.482,7.299V68.09
		c-4.634,0.114-6.52-3.856-6.607-6.328l0,0c0-5.208,3.844-10.313,10.423-14.341L115.723,48.034z"/>
	<g>
		<defs>
			<path id="SVGID_1_" d="M193.226,59.664c-3.969,2.739-10.128,5.463-16.99,2.932c-9.307-3.419-18.311-2.665-26.034,2.217
				c-2.79,1.773-7.22,2.169-9.118-0.063c-0.554-0.645-0.837-1.517-0.837-2.449c0-1.108,0.377-2.307,1.14-3.396
				c0.806-1.183,3.258-2.708,5.573-3.486c0,0,2.668-0.928,4.414-1.517c-1.71-0.393-4.567-1.03-4.567-1.03
				c-6.52-1.462-15.564-1.399-21.648,7.173c-3.266,4.649-5.518,6.835-9.362,6.74c-0.016,0-0.102,0-0.102,0
				c-3.691,0.087-5.188-3.054-5.255-5.054c0-4.378,3.679-9.252,10.647-14.102l2.562-1.769c-4.182,0.322-9.173,1.148-9.173,1.148
				s5.211-5.494,11.83-6.634c-0.519-0.33-0.873-0.904-2.35-1.71c-4.964-2.743-13.052,0.169-14.62,0.786l-0.251,0.094l-0.248-0.216
				c-1.034-0.896-4.862-3.51-11.126,0.967c-3.671,2.625-6.532,4.095-9.008,4.661c0,0-2.449,0.57-3.828,0.896
				c0.927,0.55,2.366,1.352,3.219,1.686c1.552,0.574,2.669,0.857,3.635,0.916l0.778,0.043l-0.436,0.684
				c-0.629,0.939-3.427,3.561-5.314,4.504c-1.136,0.578-2.904,1.352-4.099,1.871c1.344,0.267,3.321,0.629,4.366,0.715
				c1.619,0.114,4.378-0.059,4.583-0.086l0.483-0.035v0.479c0,0.086-0.267,9.232-5.872,10.509
				c-5.388,1.226-7.448-1.317-11.598-7.173c-6.068-8.576-15.108-8.627-21.632-7.181c0,0-2.857,0.656-4.571,1.042
				c1.659,0.554,4.429,1.49,4.429,1.49c2.299,0.79,4.748,2.331,5.554,3.502c0.762,1.089,1.155,2.315,1.155,3.407
				c0,0.935-0.275,1.792-0.849,2.441c-1.949,2.26-6.288,1.855-9.118,0.071c-7.715-4.889-16.727-5.656-26.026-2.228
				c-6.874,2.531-13.025-0.185-16.998-2.916c0,0-2.228-1.541-3.565-2.46c0.593,1.509,1.6,4.025,1.6,4.025
				c6.253,15.689,20.653,16.244,24.929,16.047c5.09-0.252,7.585,2.503,8.218,5.149c0.66,2.724-0.519,5.451-2.798,6.501
				c-1.784,0.794-5.282,0.794-9.625,0c0,0-1.281-0.232-2.047-0.373c0.2,0.747,0.531,2,0.531,2
				c4.044,15.273,19.278,16.161,19.934,16.181l0.083,0.012c0-0.012,3.895-0.224,8.1-0.444v-1.317
				c-4.15,0.22-8.049,0.428-8.124,0.428c-0.998-0.031-14.943-0.947-18.723-15.198c3.058,0.57,7.731,1.116,10.407-0.102
				c2.853-1.301,4.347-4.661,3.549-7.998c-0.735-3.015-3.679-6.442-9.57-6.159c-4.339,0.216-17.761-0.46-23.64-15.21
				c4.182,2.885,10.777,5.813,18.189,3.077c12.113-4.465,20.649-0.57,24.882,2.095c3.164,2,7.766,2.205,10.6-0.106
				c2.158-1.769,1.769-5.117,0-7.668c-1.092-1.58-3.962-3.219-6.225-3.997c5.895-1.313,14.55-1.438,20.276,6.646
				c3.914,5.514,6.493,9.177,12.97,7.703c6.642-1.521,6.866-11.441,6.866-11.846l-0.035-1.894l-1.883,0.236
				c-0.546,0.067-2.995,0.283-4.197,0.09c0,0-0.2-0.043-0.22-0.043c0.13-0.051,0.216-0.09,0.216-0.09
				c3.254-1.458,5.2-3.989,5.895-5.003l1.631-2.547c0,0-2.979-0.145-2.991-0.145c-0.884-0.055-1.8-0.322-2.826-0.837
				c0,0-0.161-0.079-0.181-0.079c0.122-0.035,0.2-0.055,0.2-0.055c2.645-0.597,5.66-2.162,9.46-4.874
				c5.502-3.926,8.713-1.761,9.566-1.026l0.817,0.708l0.951-0.389c0.888-0.334,8.792-3.274,13.607-0.821
				c0,0,0.165,0.086,0.181,0.086c-0.114,0.024-0.204,0.043-0.204,0.043c-3.419,0.719-5.985,2.421-8.642,4.897l-3.789,3.793
				l4.787-0.593l3.856-0.613c-6.579,4.029-10.423,9.134-10.423,14.341l0,0c0.087,2.472,1.973,6.441,6.607,6.328v0.012
				c4.586,0.11,7.169-2.633,10.482-7.299c5.734-8.08,14.381-7.959,20.284-6.638c-2.276,0.759-5.125,2.413-6.225,3.977
				c-1.772,2.57-2.162,5.911,0,7.68c2.834,2.323,7.42,2.083,10.612,0.106c4.225-2.621,12.757-6.567,24.862-2.099
				c7.413,2.735,14.019-0.193,18.205-3.069c-5.891,14.742-19.313,15.41-23.644,15.206c-5.895-0.287-8.839,3.144-9.57,6.159
				c-0.802,3.337,0.684,6.693,3.545,7.994c2.673,1.215,7.358,0.668,10.403,0.098c-3.671,13.87-16.959,15.108-18.602,15.21
				l-6.402-0.334c-1.128-0.071-2.334-0.13-3.514-0.197v1.317c1.945,0.106,3.451,0.196,3.451,0.196c-0.008,0-0.008,0,6.469,0.338
				c0.016,0,0.071-0.016,0.071-0.016c1.611-0.087,15.878-1.372,19.804-16.169c0,0,0.299-1.218,0.527-2.012
				c-0.766,0.142-2.048,0.385-2.048,0.385c-4.331,0.798-7.845,0.79-9.621-0.012c-2.284-1.034-3.455-3.773-2.814-6.485
				c0.641-2.649,3.148-5.404,8.234-5.157c4.268,0.197,18.669-0.35,24.921-16.043c0,0,0.979-2.425,1.607-4.021
				C195.455,58.131,193.226,59.664,193.226,59.664z"/>
		</defs>
		<clipPath id="SVGID_2_">
			<use xlink:href="#SVGID_1_"  overflow="visible"/>
		</clipPath>
		<path clip-path="url(#SVGID_2_)" fill="none" stroke="#63727A" stroke-width="0.3398" d="M46.68,96.836l-2.378,0.837v35.852
			h110.883V97.657l-2.582-0.743l-0.664-0.216c-11.091-3.667-32.68-9.822-52.484-9.822C78.024,86.877,57.182,93.118,46.68,96.836z"/>
	</g>
	<path fill="#3E2680" d="M126.306,40.374c-0.519-0.33-0.873-0.904-2.35-1.71c-4.964-2.743-13.052,0.169-14.62,0.786l-0.251,0.094
		l-0.248-0.216c-1.034-0.896-4.862-3.51-11.126,0.967c-3.671,2.625-6.532,4.095-9.008,4.661c0,0-2.449,0.57-3.828,0.896
		c0.927,0.55,2.366,1.352,3.219,1.686c1.552,0.574,2.669,0.857,3.635,0.916l0.778,0.043l-0.436,0.684
		c-0.629,0.939-3.427,3.561-5.314,4.504c-1.136,0.578-2.904,1.352-4.099,1.871c1.344,0.267,3.321,0.629,4.366,0.715
		c1.619,0.114,4.378-0.059,4.583-0.086l0.483-0.035v0.479c0,0.086-0.267,9.232-5.872,10.509c-5.388,1.226-7.448-1.317-11.598-7.173
		c-6.068-8.576-15.108-8.627-21.632-7.181c0,0-2.857,0.656-4.571,1.042c1.659,0.554,4.429,1.49,4.429,1.49
		c2.299,0.79,4.748,2.331,5.554,3.502c0.762,1.089,1.155,2.315,1.155,3.407c0,0.935-0.275,1.792-0.849,2.441
		c-1.949,2.26-6.288,1.855-9.118,0.071c-7.715-4.889-16.727-5.656-26.026-2.228c-6.874,2.531-13.025-0.185-16.998-2.916
		c0,0-2.228-1.541-3.565-2.46c0.593,1.509,1.6,4.025,1.6,4.025c6.253,15.689,20.653,16.244,24.929,16.047
		c5.09-0.252,7.585,2.503,8.218,5.149c0.66,2.724-0.519,5.451-2.798,6.501c-1.784,0.794-5.282,0.794-9.625,0
		c0,0-1.281-0.232-2.047-0.373c0.2,0.747,0.531,2,0.531,2c4.044,15.273,19.278,16.161,19.934,16.181l0.083,0.012
		c0-0.012,17.694-0.975,18.275-0.995c0.094-0.035,28.105-8.607,28.105-8.607l5.974-1.352l0.593,0.22
		c9.876,3.624,15.945,5.824,17.996,6.5c1.442,0.475,8.804,1.391,21.864,2.704l0.181,0.02c0,0,0.318,0.405,0.452,0.57
		c0.373,0.012,12.384,0.676,12.384,0.676c-0.008,0-0.008,0,6.469,0.338c0.016,0,0.071-0.016,0.071-0.016
		c1.611-0.087,15.878-1.372,19.804-16.169c0,0,0.299-1.218,0.527-2.012c-0.766,0.142-2.048,0.385-2.048,0.385
		c-4.331,0.798-7.845,0.79-9.621-0.012c-2.284-1.034-3.455-3.773-2.814-6.485c0.641-2.649,3.148-5.404,8.234-5.157
		c4.268,0.197,18.669-0.35,24.921-16.043c0,0,0.979-2.425,1.607-4.021c-1.344,0.912-3.573,2.445-3.573,2.445
		c-3.969,2.739-10.128,5.463-16.99,2.932c-9.307-3.419-18.311-2.665-26.034,2.217c-2.79,1.773-7.22,2.169-9.118-0.063
		c-0.554-0.645-0.837-1.517-0.837-2.449c0-1.108,0.377-2.307,1.14-3.396c0.806-1.183,3.258-2.708,5.573-3.486
		c0,0,2.668-0.928,4.414-1.517c-1.71-0.393-4.567-1.03-4.567-1.03c-6.52-1.462-15.564-1.399-21.648,7.173
		c-3.266,4.649-5.518,6.835-9.362,6.74c-0.016,0-0.102,0-0.102,0c-3.691,0.087-5.188-3.054-5.255-5.054
		c0-4.378,3.679-9.252,10.647-14.102l2.562-1.769c-4.182,0.322-9.173,1.148-9.173,1.148S119.688,41.514,126.306,40.374z"/>
	<g>
		<defs>
			<path id="SVGID_3_" d="M170.337,75.966c4.331,0.204,17.753-0.464,23.644-15.206c-4.186,2.877-10.792,5.805-18.205,3.069
				c-12.105-4.469-20.637-0.523-24.862,2.099c-3.192,1.977-7.778,2.217-10.612-0.106c-2.162-1.769-1.772-5.109,0-7.68
				c1.101-1.564,3.95-3.219,6.225-3.977c-5.903-1.321-14.55-1.442-20.284,6.638c-3.313,4.665-5.896,7.409-10.482,7.299V68.09
				c-4.634,0.114-6.52-3.856-6.607-6.328l0,0c0-5.208,3.844-10.313,10.423-14.341l-3.856,0.613l-4.787,0.593l3.789-3.793
				c2.657-2.476,5.223-4.178,8.642-4.897c0,0,0.09-0.02,0.204-0.043c-0.016,0-0.181-0.086-0.181-0.086
				c-4.815-2.452-12.718,0.487-13.607,0.821l-0.951,0.389l-0.817-0.708c-0.853-0.735-4.064-2.9-9.566,1.026
				c-3.801,2.712-6.815,4.276-9.46,4.874c0,0-0.078,0.02-0.2,0.055c0.02,0,0.181,0.079,0.181,0.079
				c1.026,0.515,1.941,0.782,2.826,0.837c0.012,0,2.991,0.145,2.991,0.145l-1.631,2.547c-0.696,1.014-2.641,3.545-5.895,5.003
				c0,0-0.087,0.039-0.216,0.09c0.02,0,0.22,0.043,0.22,0.043c1.203,0.193,3.651-0.024,4.197-0.09l1.883-0.236l0.035,1.894
				c0,0.405-0.224,10.325-6.866,11.846c-6.477,1.474-9.055-2.189-12.97-7.703c-5.726-8.084-14.381-7.959-20.276-6.646
				c2.264,0.778,5.133,2.417,6.225,3.997c1.769,2.551,2.158,5.899,0,7.668c-2.834,2.311-7.436,2.107-10.6,0.106
				c-4.233-2.665-12.769-6.56-24.882-2.095c-7.412,2.735-14.007-0.193-18.189-3.077c5.88,14.75,19.301,15.426,23.64,15.21
				c5.891-0.283,8.835,3.144,9.57,6.159c0.798,3.337-0.695,6.697-3.549,7.998c-2.677,1.218-7.35,0.672-10.407,0.102
				c3.781,14.251,17.725,15.167,18.723,15.198c0.075,0,3.973-0.208,8.124-0.428v-7.801c-4.508-0.342-7.754-2.991-8.474-9.122
				c6.477,4.276,8.8-0.774,8.8-4.622c0-8.367-8.045-7.801-14.809-9.582c5.097-1.069,9.798-2.728,14.408-0.766
				c3.942,1.678,6.096,5.184,9.79,6.929c7.42,3.463,12.357-6.532,6.068-11.24l0.028-0.02c5.388,0.66,7.401,3.694,13.095,3.981
				c6.056,0.318,10.741-1.78,13.036-4.072c2.295-2.311,3.317-3.844,3.317-3.844c1.772-2.067,3.954-4.716,6.799-5.935
				c-4.06,5.565,0.829,10.089,6.096,12.333c2.551,1.01,5.663,1.69,8.914,1.517c5.718-0.287,7.715-3.321,13.103-3.981l0.035,0.02
				c-6.3,4.708-1.363,14.703,6.061,11.24c3.706-1.745,5.86-5.251,9.802-6.929c4.61-1.961,9.106-0.519,14.392,0.766
				c-6.752,1.78-14.797,1.214-14.813,9.582c0,3.848,2.335,8.898,8.808,4.622c-0.802,6.874-4.787,9.385-10.183,9.141v7.766
				c1.179,0.067,2.386,0.126,3.514,0.197l6.402,0.334c1.643-0.102,14.931-1.34,18.602-15.21c-3.046,0.57-7.731,1.116-10.403-0.098
				c-2.861-1.301-4.347-4.657-3.545-7.994C161.498,79.111,164.441,75.679,170.337,75.966z M126.939,83.638
				c0.436-0.656,0.817-1.313,1.124-1.945c6.217,5.133,10.993,11.928,13.673,19.71c-0.763-0.334-1.702-0.7-2.755-1.073
				C136.384,93.814,132.214,88.095,126.939,83.638z M141.603,110.383c-0.283-2.213-0.755-4.366-1.376-6.449
				c-3.246-1.446-8.395-3.313-15.147-4.347c1.273,3.824,2.122,8.069,2.33,12.769c9.362,3.663,13.08,11.614,14.55,17.387
				c-0.381,1.199-0.841,2.354-1.321,3.486c0,0.024,0.008,0.047,0.02,0.059c-5.546,13.009-17.108,22.827-31.19,25.959
				c5.066-5.003,8.804-10.218,11.563-15.284c7.204-3.805,13.044-9.845,16.644-17.175c-1.831-3.84-4.964-8.108-10.203-10.58
				c-0.24,7.64-2.708,26.946-20.107,43.445c-2.472,0.425-4.999,0.664-7.585,0.664c-0.778,0-1.513-0.043-2.264-0.071l0.008,0.012
				c-7.601-0.381-14.723-2.68-20.842-6.414c3.836-0.955,7.845-4.547,11.319-8.505c4.618,1.973,9.723,3.062,15.068,3.062
				c2.016,0,4.009-0.169,5.939-0.475c11.248-13.544,13.72-27.641,14.215-33.144c-3.734-0.66-13.044-0.837-21.392,10.191
				c0,0-3.089,3.836-6.544,8.344c-2.024,2.68-10.627,16.994-20.744,19.129c-2.256-1.561-4.355-3.345-6.296-5.286
				c0-0.004-0.004-0.004-0.02-0.004c-0.22-0.232-0.432-0.46-0.66-0.696c-0.173-0.192-0.358-0.358-0.523-0.55
				c0.008,0,0.008,0,0.008,0c-3.812-4.154-6.858-9.043-8.875-14.444c2.578-3.694,5.349-6.953,8.175-9.837
				c2.59,8.089,7.782,14.998,14.565,19.777c3.946-3.136,6.611-6.917,7.585-8.076c3.804-4.544,9.582-11.469,9.641-11.523
				c10.953-11.142,20.559-11.425,25.22-10.655c0-4.378-0.755-8.379-2.02-12.015c-7.401-0.684-16.366-0.295-26.588,2.519
				c-0.22,0.051-21.833,6.08-37.581,26.796c-0.534-1.831-0.943-3.706-1.246-5.612c-0.004,0.016-0.02,0.016-0.02,0.02
				c-0.358-2.268-0.546-4.582-0.546-6.933c0-11.9,4.669-22.689,12.294-30.667c2.205-0.727,4.583-1.211,7.023-1.509
				c-6.308,6.874-10.167,16.031-10.167,26.089c0,0.605,0.023,1.202,0.059,1.812c13.359-9.818,27.024-12.974,27.735-13.131
				c10.714-2.712,20.127-3.046,27.897-2.295c-1.143-2.582-2.543-4.956-4.099-7.11c-2.567,0.196-5.601-0.204-9.204-1.521
				c-6.729-3.046-25.739-7.601-37.302-4.26c2.134-1.973,4.484-3.734,6.972-5.263c-0.004,0-0.039,0-0.043,0
				c5.561-3.423,11.94-5.648,18.775-6.335c-0.008-0.008-0.023-0.008-0.023-0.008c0.444-0.047,0.904-0.079,1.352-0.11
				c0.028,0,0.047,0,0.071,0l0,0c1.022-0.071,2.024-0.106,3.054-0.106c4.147,2.099,11.645,6.603,17.808,14.353
				c2.979-0.766,4.944-2.751,6.21-4.626c-5.05-3.498-10.902-5.931-17.222-6.949c-1.651-1.12-3.148-2.036-4.382-2.724
				c8.423,0.452,16.208,3.25,22.736,7.743v-0.004c0.141,0.094,0.287,0.204,0.425,0.295c0.024,0.031,0.055,0.055,0.087,0.063l0,0
				c0.715,0.519,1.423,1.042,2.118,1.607c-1.56,2.779-4.052,5.805-8.065,7.161c1.702,2.476,3.254,5.211,4.524,8.257
				c8.607,1.289,14.774,3.812,17.957,5.333c0.271,0.821,0.507,1.639,0.727,2.48c0,0,0.004,0,0.02,0.004
				c0.043,0.173,0.087,0.354,0.126,0.531c0.028,0.059,0.028,0.13,0.051,0.204v-0.012c0.849,3.427,1.305,6.996,1.305,10.698
				c0,4.383-0.653,8.635-1.847,12.644c-0.605-1.977-1.497-4.178-2.767-6.32C140.829,118.511,141.544,114.533,141.603,110.383z
				 M113.789,86.118c-5.062-6.005-10.985-10.105-14.754-12.345c-5.974,0.102-11.641,1.47-16.77,3.824
				c11.547,1.112,22.63,5.223,24.926,6.556C109.705,85.348,111.891,85.949,113.789,86.118z"/>
		</defs>
		<clipPath id="SVGID_4_">
			<use xlink:href="#SVGID_3_"  overflow="visible"/>
		</clipPath>
		<path clip-path="url(#SVGID_4_)" fill="none" stroke="#63727A" stroke-width="0.3398" d="M46.68,96.836l-2.378,0.837v35.852
			h110.883V97.657l-2.582-0.743l-0.664-0.216c-11.091-3.667-32.68-9.822-52.484-9.822C78.024,86.877,57.182,93.118,46.68,96.836z"/>
	</g>
	<g>
		<defs>
			<path id="SVGID_5_" d="M58.593,132.534c0.66,1.623,1.407,3.207,2.252,4.728l-14.687-4.881L58.593,132.534z M138.718,137.25
				l14.644-4.87l-12.408,0.153C140.294,134.157,139.552,135.729,138.718,137.25z"/>
		</defs>
		<clipPath id="SVGID_6_">
			<use xlink:href="#SVGID_5_"  overflow="visible"/>
		</clipPath>
		<g clip-path="url(#SVGID_6_)">
			<path fill="none" stroke="#F9A01B" stroke-width="0.3398" d="M46.68,96.836l-2.378,0.837v35.852h110.883V97.657l-2.582-0.743
				l-0.664-0.216c-11.091-3.667-32.68-9.822-52.484-9.822C78.024,86.877,57.182,93.118,46.68,96.836z"/>
		</g>
	</g>
	<polygon fill="#63727A" points="133.758,141.227 155.186,133.525 155.186,129.692 136.105,129.696 	"/>
	<path fill="#63727A" d="M44.303,133.525c0,0,18.468,6.591,19.384,6.964l2.169-12.738l-21.553-0.055V133.525z"/>
	<polygon fill="#F9A01B" stroke="#F9A01B" stroke-width="0.3398" points="153.362,132.381 136.883,137.852 139.583,132.546 	"/>
	<polygon fill="#F9A01B" stroke="#F9A01B" stroke-width="0.3398" points="46.158,132.381 62.645,137.852 59.937,132.546 	"/>
	<path fill="#F9A01B" stroke="#F9A01B" stroke-width="0.3398" stroke-linejoin="round" d="M147.573,83.367
		c0.016-8.367,8.061-7.801,14.813-9.582c-5.286-1.285-9.782-2.728-14.392-0.766c-3.942,1.678-6.096,5.184-9.802,6.929
		c-7.424,3.463-12.36-6.532-6.061-11.24l-0.035-0.02c-5.388,0.66-7.385,3.694-13.103,3.981c-3.25,0.173-6.363-0.507-8.914-1.517
		c-5.267-2.244-10.156-6.768-6.096-12.333c-2.845,1.218-5.027,3.867-6.799,5.935c0,0-1.022,1.533-3.317,3.844
		c-2.295,2.291-6.98,4.39-13.036,4.072c-5.695-0.287-7.707-3.321-13.095-3.981l-0.028,0.02c6.288,4.708,1.352,14.703-6.068,11.24
		c-3.694-1.745-5.848-5.251-9.79-6.929c-4.61-1.961-9.311-0.303-14.408,0.766c6.764,1.78,14.809,1.214,14.809,9.582
		c0,3.848-2.323,8.898-8.8,4.622c1.23,10.616,10.081,10.832,19.903,6.591c5.235-2.248,67.89-2.248,73.125,0
		c9.81,4.241,18.669,4.025,19.903-6.591C149.908,92.265,147.573,87.215,147.573,83.367z"/>
	<path fill="#3E2680" d="M144.181,115.925c0,24.501-19.883,44.392-44.4,44.392c-24.521,0-44.415-19.891-44.415-44.392
		c0-24.548,19.895-44.423,44.415-44.423C124.298,71.502,144.181,91.377,144.181,115.925z"/>
	<path fill="#E56020" stroke="#E56020" stroke-width="0.3398" d="M64.516,109.837c0,21.302,17.257,38.563,38.555,38.563
		c21.101,0,38.237-16.959,38.532-38.017c-2.712-20.669-20.382-36.629-41.782-36.629c-6.654,0-12.934,1.541-18.547,4.288
		C71.154,84.974,64.516,96.624,64.516,109.837z"/>
	<path fill="#F9A01B" stroke="#F9A01B" stroke-width="0.3398" stroke-linejoin="round" d="M133.636,130.235
		c5.023-9.067,6.265-20.162,2.492-30.62c-3.364-9.291-10.132-16.707-19.081-20.877c-1.733-0.821-3.506-1.482-5.314-2.024
		c2.232,1.407,4.367,2.897,6.509,4.559c16.656,12.86,19.966,31.583,12.651,48.208L133.636,130.235z"/>
	<g>
		<defs>
			<path id="SVGID_7_" d="M144.181,115.925c0,24.501-19.883,44.392-44.4,44.392c-24.521,0-44.415-19.891-44.415-44.392
				c0-24.548,19.895-44.423,44.415-44.423C124.298,71.502,144.181,91.377,144.181,115.925z"/>
		</defs>
		<clipPath id="SVGID_8_">
			<use xlink:href="#SVGID_7_"  overflow="visible"/>
		</clipPath>
		<g clip-path="url(#SVGID_8_)">
			<path fill="#F9A01B" stroke="#F9A01B" stroke-width="0.3398" d="M144.755,102.798c-0.523-0.244-7.644-4.174-19.509-5.719
				c-1.191-3.014-2.645-5.73-4.245-8.183c4.245-1.926,6.516-5.77,7.754-8.646l-1.521-0.637c-0.884,1.894-7.027,8.332-8.139,6.559
				c-8.552-11.339-19.851-16.09-20.5-16.432l-1.698,1.682c6.253,1.965,17.745,11.881,20.091,16.247
				c-2.236,0.087-5.66,0.464-8.898-1.089c-3.254-1.89-24.65-10.466-41.55-4.213l0.703,3.034c13.379-4.701,32.829-0.047,39.66,3.042
				c4.284,1.572,7.77,1.894,10.623,1.454c1.458,2.079,2.767,4.339,3.848,6.78c-7.982-0.597-17.721-0.036-28.797,3.191
				c-0.943,0.248-24.827,6.626-39.746,26.832l4.614,5.821c15.053-22.442,37.451-29.552,37.683-29.61
				c10.529-3.29,19.777-3.915,27.374-3.384c1.238,3.58,1.977,7.503,2.016,11.795c-4.213-0.857-14.44-1.187-25.943,11.036
				c-0.094,0.102-12.105,17.462-12.105,17.462c-0.444,0.582-10.486,11.146-22.233,6.316l-1.537,3.549
				c5.636,3.498,9.963,4.685,13.551,4.264c8.756-1.753,18.617-17.718,20.732-20.799c2.908-4.241,5.349-7.699,5.349-7.699
				c8.831-12.204,19.066-11.154,22.017-10.521c0.251,6.049-5.164,37.451-26.863,45.3l4.653,5.325
				c23.279-17.521,26.254-40.469,26.505-49.022c10.297,5.211,12.203,17.509,12.239,18.055l2.822,1.462
				c-0.043-0.712-0.649-17.415-15.127-23.413c-0.236-4.665-1.061-8.918-2.287-12.722c11.492,1.49,18.248,5.53,18.37,5.589
				L144.755,102.798z"/>
			<path fill="#FFFFFF" d="M95.494,71.643c3.305,1.651,11.633,6.296,18.429,14.369l0.259,0.307l-0.412-0.031
				c-2.048-0.177-4.276-0.853-6.646-1.977c-3.16-1.831-24.065-9.413-39.019-5.966c0.083,0.318,1.065,4.614,1.128,4.925
				c12.105-3.698,31.607,1.387,37.746,4.166c3.317,1.211,6.399,1.725,9.122,1.509l0.094-0.008l0.047,0.071
				c1.659,2.295,3.034,4.704,4.119,7.153l0.122,0.255l-0.295-0.02c-9.024-0.877-18.393-0.11-27.838,2.295
				c-1.006,0.216-24.874,5.703-40.477,25.279c0.153,0.216,3.966,5.349,4.193,5.675c15.961-21.954,38.438-28.113,38.654-28.16
				c9.024-2.484,17.997-3.337,26.655-2.527l0.106,0.02l0.039,0.102c1.332,3.875,2.016,7.935,2.016,12.07v0.197l-0.197-0.024
				c-4.701-0.786-14.22-0.456-25.067,10.604c-0.098,0.095-3.8,4.532-7.067,8.45l-2.567,3.062l-0.613,0.782
				c-2.594,3.297-10.482,13.331-21.027,11.85c-1.218-0.177-2.441-0.531-3.616-1.038c-0.114,0.248-1.375,2.983-1.486,3.231
				c4.642,2.999,8.646,4.358,12.215,4.099c8.882-1.572,16.617-12.765,19.911-17.552l1.128-1.592l6.54-8.348
				c8.454-11.162,17.898-10.89,21.561-10.266l0.157,0.035l-0.019,0.149c-0.574,6.43-4.225,28.64-26.969,45.076
				c0.22,0.264,4.198,4.858,4.41,5.078c23.035-17.285,26.187-39.841,26.478-48.735l0.016-0.279l0.228,0.118
				c10.887,5.152,12.655,17.8,12.781,18.81c0.13,0.071,2.036,1.097,2.453,1.336c-0.149-3.467-1.549-18.244-15.434-23.688
				l-0.098-0.043l-0.004-0.106c-0.204-4.437-0.99-8.721-2.335-12.706l-0.094-0.263l0.283,0.027
				c10.399,1.596,16.943,5.09,18.912,6.265c0.035-0.412,0.153-2.138,0.169-2.315c-0.051-0.023-0.11-0.066-0.11-0.066
				c-3.191-1.749-10.034-4.929-20.111-6.438l-0.094-0.012l-0.035-0.078c-1.191-2.869-2.704-5.632-4.508-8.246l-0.118-0.185
				l0.212-0.071c3.895-1.328,6.929-4.437,9.039-9.263c-0.44-0.016-3.022-0.071-3.199-0.071c-1.82,3.856-4.398,6.257-7.648,7.086
				l-0.11,0.024l-0.079-0.075c-5.188-6.548-12.463-12.077-20.5-15.623c0,0-0.118-0.047-0.224-0.09
				C96.571,70.397,95.714,71.399,95.494,71.643z"/>
			<path fill="#3E2680" d="M144.362,103.274c-0.535-0.271-7.915-4.716-20.366-6.587c-1.269-3.046-2.822-5.781-4.524-8.257
				c5.223-1.777,7.88-6.371,9.248-9.582l-3.561-0.09c-0.99,2.17-3.172,5.97-7.593,7.106c-8.764-11.02-20.272-15.493-20.921-15.823
				l-1.423,1.662c0.539,0.267,10.619,4.988,18.567,14.416c-1.898-0.169-4.083-0.77-6.599-1.965
				c-3.255-1.89-24.411-9.456-39.283-5.942l1.199,5.27c11.516-3.632,30.966,1.014,37.797,4.111c3.604,1.317,6.638,1.717,9.204,1.521
				c1.556,2.153,2.956,4.527,4.099,7.11c-7.77-0.751-17.183-0.417-27.897,2.295c-0.959,0.216-25.031,5.742-40.65,25.452l4.406,5.954
				c15.815-21.907,38.465-28.219,38.693-28.27c10.222-2.814,19.187-3.203,26.588-2.519c1.265,3.635,2.02,7.636,2.02,12.015
				c-4.661-0.77-14.267-0.488-25.22,10.655c-0.059,0.055-5.836,6.98-9.641,11.523c-1.859,2.244-10.046,14.184-21.494,12.581
				c-1.207-0.177-2.453-0.531-3.718-1.089l-1.615,3.514c5.05,3.29,9.063,4.437,12.451,4.202
				c10.297-1.836,19.093-16.507,21.16-19.219c3.455-4.508,6.544-8.344,6.544-8.344c8.348-11.028,17.658-10.851,21.392-10.191
				c-0.644,7.176-4.61,28.93-27.044,45.068l4.63,5.341c23.365-17.47,26.391-40.47,26.663-48.982
				c10.95,5.18,12.667,18.189,12.695,18.759l2.798,1.513c-0.031-0.723-0.267-18.146-15.556-24.124
				c-0.208-4.7-1.057-8.945-2.33-12.769c11.999,1.816,18.971,6.32,19.089,6.375L144.362,103.274z"/>
		</g>
	</g>
	<path fill="#63727A" d="M46.68,96.836l-2.378,0.837v35.852h110.883V97.657l-2.582-0.743l-0.664-0.216
		c-11.091-3.667-32.68-9.822-52.484-9.822C78.024,86.877,57.182,93.118,46.68,96.836z"/>
	<path fill="#3E2680" stroke="#63727A" stroke-width="0.3398" d="M47.27,98.518l-1.171,0.421v32.786h107.283V99.001l-1.269-0.358
		c-1.242-0.365-28.298-9.967-52.657-9.967C78.134,88.677,57.418,94.934,47.27,98.518z"/>
	<g>
		<path stroke="#3E2680" stroke-width="0.3398" d="M72.47,97.005l-0.063,0.02c-6.233,1.383-16.853,5.506-17.572,4.072l-1.8,1.328
			v5.746c0,0,2.276-0.633,2.417-0.676c0,0.731,0,11.755,0,14.046c-0.201,0.012-0.641-1.14-0.641-1.14l-1.769,1.316l-0.008,1.427
			v4.339h14.884l1.824-1.348l-1.824-5.341c0,0-2.221,0.114-2.81,0.137c0-0.448,0-3.062,0-4.653c1.985-0.189,7.471-0.692,7.471-0.692
			c4.288-0.299,7.07-3.05,7.07-7.004v-5.947c0-1.981-0.578-3.502-1.698-4.516C77.061,97.319,75.379,96.486,72.47,97.005z
			 M69.263,104.393c0,0.586,0,4.048,0,5.742c-1.25,0.173-2.633,0.358-4.154,0.566c0-0.527,0-3.899,0-5.506
			C66.304,104.964,67.699,104.696,69.263,104.393z"/>
		<path stroke="#3E2680" stroke-width="0.3398" d="M99.656,96.073c0,0,0,10.447,0,11.013c-1.517,0.016-3.368,0.024-4.893,0.039
			c0-0.554,0-12.569,0-12.569l-1.608,0.083c-3.899,0.208-10.572,0.621-11.044-0.236l-1.796,1.317v7.122c0,0,2.331-0.232,2.951-0.287
			c0,0.617,0,15.19,0,17.682c-0.306,0.004-1.144-1.262-1.144-1.262l-1.808,1.344v7.165h14.447l1.792-1.348
			c0,0-1.792-9.649-1.792-11.602c1.525-0.004,3.345-0.016,4.893-0.024c0,0.598,0,12.974,0,12.974h14.683l1.812-1.348l-1.812-5.919
			c0,0-2.228-0.047-2.959-0.051c0-0.535,0-15.151,0-17.886c0.64,0.047,2.959,0.213,2.959,0.213l1.812-1.281l-1.812-5.903
			l-1.407-0.126c-3.832-0.318-10.313-0.071-11.488-2.004l-1.788,1.316V96.073z"/>
		<path stroke="#3E2680" stroke-width="0.3398" d="M115.998,97.252v5.396c0,0,2.346,0.251,3.042,0.319
			c0.696,0.998,4.936,7.062,6.579,9.416c-0.712,0.908-4.933,6.194-6.344,7.971c-0.248-0.012-1.391-1.379-1.391-1.379l-1.784,1.285
			v1.576v5.648h12.321l1.788-1.301c0,0-1.788-2.523-1.788-3.038c0.381-0.464,1.493-1.875,2.59-3.254
			c1.089,1.56,5.31,7.577,5.31,7.577l0.79,0.016h8.23l1.812-1.301l-1.812-4.465c0,0-2.091-0.149-2.661-0.188
			c-0.656-0.959-4.311-6.3-5.852-8.548c1.788-2.016,3.557-3.934,5.274-5.703c0.295,0.071,2.543,0.7,2.543,0.7l1.788-1.285
			l-1.788-4.512l-1.034-0.361c-2.586-0.869-7.668-2.684-8.426-4.426l-1.788,1.317c0,0,0,3.954,0,4.759
			c-0.362,0.393-0.92,0.994-1.729,1.891c-1.097-1.643-5.459-8.281-5.459-8.281l-0.645-0.098c-2.421-0.448-6.732-1.478-7.774-2.814
			l-1.792,1.317V97.252z"/>
	</g>
	<g>
		<path fill="#63727A" stroke="#63727A" stroke-width="0.3398" d="M74.263,95.688l-0.051,0.008
			c-6.245,1.383-12.412,3.101-18.342,5.05l-1.034,0.35v5.754c0,0,2.272-0.641,2.421-0.688c0,0.747,0,11.759,0,14.054
			c-0.483,0.043-2.421,0.185-2.421,0.185v1.431v4.319h14.876v-6.681c0,0-2.224,0.118-2.798,0.153c0-0.452,0-3.077,0-4.677
			c1.977-0.177,7.46-0.66,7.46-0.66c4.3-0.326,7.074-3.062,7.074-7.027v-5.943c0-1.992-0.57-3.525-1.713-4.512
			C78.849,96.002,77.175,95.173,74.263,95.688z M71.056,103.077c0,0.57,0,4.044,0,5.734c-1.238,0.165-2.633,0.354-4.142,0.562
			c0-0.523,0-3.891,0-5.506C68.092,103.635,69.48,103.376,71.056,103.077z"/>
		<path fill="#63727A" stroke="#63727A" stroke-width="0.3398" d="M101.444,94.753c0,0,0,10.446,0,11.012
			c-1.521,0.004-3.356,0.031-4.889,0.035c0-0.562,0-12.565,0-12.565l-1.615,0.083c-3.875,0.197-7.735,0.526-11.457,0.939
			l-1.372,0.145v7.106c0,0,2.327-0.216,2.948-0.279c0,0.625,0,15.186,0,17.69c-0.723,0.012-2.948,0.071-2.948,0.071v7.161h14.443
			c0,0,0-10.568,0-12.934c1.505-0.016,3.353-0.02,4.889-0.024c0,0.59,0,12.958,0,12.958h14.683v-7.255c0,0-2.229-0.051-2.964-0.051
			c0-0.523,0-15.147,0-17.894c0.656,0.059,2.964,0.224,2.964,0.224V93.99l-1.395-0.122c-3.844-0.326-7.774-0.539-11.708-0.66
			l-1.58-0.031V94.753z"/>
		<path fill="#63727A" stroke="#63727A" stroke-width="0.3398" d="M117.79,95.932v5.396c0,0,2.354,0.259,3.038,0.318
			c0.692,0.99,4.936,7.059,6.595,9.433c-0.719,0.904-4.936,6.186-6.355,7.959c-0.436-0.028-3.168-0.099-3.168-0.099v1.58v5.632
			h12.309c0,0,0-3.576,0-4.319c0.381-0.488,1.497-1.887,2.594-3.266c1.093,1.556,5.306,7.585,5.306,7.585h0.813h8.206v-5.75
			c0,0-2.091-0.149-2.657-0.197c-0.645-0.951-4.311-6.3-5.844-8.552c1.78-2.012,3.553-3.922,5.255-5.707
			c0.302,0.087,2.551,0.7,2.551,0.7v-2.004v-3.793l-1.026-0.342c-2.582-0.872-5.372-1.737-8.265-2.574l-1.957-0.539
			c0,0,0,3.95,0,4.756c-0.354,0.389-0.904,1.002-1.729,1.891c-1.089-1.639-5.455-8.269-5.455-8.269l-0.649-0.118
			c-2.417-0.432-5.038-0.857-7.813-1.25l-1.749-0.236V95.932z"/>
	</g>
	<g>
		<path fill="#FFFFFF" d="M74.538,97.197c-6.241,1.391-12.345,3.082-18.177,5.011c0,0.763,0,1.49,0,2.617
			c0.468-0.13,2.437-0.68,2.437-0.68l-0.012,1.6v15.901c0,0-1.765,0.122-2.425,0.185c0,0.963,0,1.773,0,2.782
			c1.788,0,10.034,0,11.818,0c0-1.151,0-2.346,0-3.529c-0.782,0.043-2.806,0.149-2.806,0.149v-1.301v-6.387l8.867-0.802
			c3.502-0.259,5.679-2.362,5.679-5.486v-5.943c0-1.537-0.409-2.668-1.199-3.384C77.8,97.13,76.358,96.875,74.538,97.197z
			 M65.373,109.735v-7.145l7.231-1.379l-0.008,1.481v7.456l-7.22,0.994L65.373,109.735z"/>
		<path fill="#FFFFFF" d="M102.973,106.072v1.222l-7.951,0.055l-0.008-1.238c0,0,0-9.161,0-11.264
			c-3.836,0.212-7.64,0.527-11.362,0.924c0,0.967,0,3.132,0,4.052c0.821-0.082,2.952-0.279,2.952-0.279L86.6,100.88v19.533
			c0,0-2.091,0.047-2.948,0.071c0,1.234,0,2.869,0,4.131c1.769,0,9.602,0,11.362,0c0-2.012,0-12.93,0-12.93l7.959-0.035v1.23
			c0,0,0,9.723,0,11.735c1.784,0,9.853,0,11.63,0c0-1.277,0-2.955,0-4.213c-0.857-0.02-2.971-0.059-2.971-0.059v-1.206V99.3
			c0,0,2.122,0.157,2.971,0.228c0-1.332,0-2.94,0-4.143c-3.824-0.306-7.723-0.523-11.63-0.633
			C102.973,96.812,102.973,106.072,102.973,106.072z"/>
		<path fill="#FFFFFF" d="M119.326,99.949c0.861,0.079,2.358,0.247,2.358,0.247l0.318,0.44l7.342,10.493l-0.605,0.743l-6.937,8.698
			l-0.582-0.008c0,0-0.916-0.019-1.788-0.043c0,1.266,0,2.857,0,4.095c1.678,0,7.574,0,9.244,0c0-1.211,0-3.325,0-3.325l4.213-5.298
			l0.869,1.265c0,0,4.551,6.493,5.164,7.357c0.853,0,5.07,0,6.685,0c0-1.01,0-1.82,0-2.782c-0.708-0.063-1.985-0.15-1.985-0.15
			l-0.319-0.456l-6.638-9.708l0.656-0.727c1.922-2.158,3.808-4.205,5.624-6.072l0.472-0.495c0,0,1.081,0.299,1.489,0.417
			c0-1.148,0-1.914,0-2.692c-2.665-0.896-5.408-1.737-8.178-2.535c0,1.313,0,3.337,0,3.337l-3.467,3.769l-0.81-1.211
			c0,0-4.865-7.377-5.376-8.143c-2.543-0.464-5.133-0.872-7.751-1.234C119.326,97.288,119.326,98.821,119.326,99.949z"/>
	</g>
	<g>
		<g>
			<path fill="#63727A" stroke="#63727A" stroke-width="0.3398" stroke-linejoin="round" d="M10.876,65.41
				c2.763,4.064,11.971,10.82,23.46,6.882c8.183-2.822,10.91-3.18,17.808-1.183c-4.221-3.706-12.251-7.668-18.433-6.839
				c-6.174,0.817-8.635,2.802-14.64,3.176C13.065,67.815,10.876,65.41,10.876,65.41z"/>
		</g>
		<g>
			<path fill="#63727A" stroke="#63727A" stroke-width="0.3398" stroke-linejoin="round" d="M188.797,65.41
				c-2.775,4.064-11.987,10.82-23.467,6.882c-8.19-2.822-10.918-3.18-17.819-1.183c4.229-3.706,12.25-7.668,18.44-6.839
				c6.182,0.817,8.631,2.802,14.644,3.176C186.6,67.815,188.797,65.41,188.797,65.41z"/>
		</g>
		<path fill="#63727A" stroke="#63727A" stroke-width="0.3398" stroke-linejoin="round" d="M116.257,40.811
			c0,0-16.247,1.611-22.748,24.839c0,0,6.952-10.486,18.92-14.526C112.429,51.124,100.261,50.774,116.257,40.811z"/>
		<path fill="#63727A" stroke="#63727A" stroke-width="0.3398" stroke-linejoin="round" d="M75.442,67.623
			c-3.47-0.531-6.072-1.1-8.922-3.69c-2.11-1.91-2.653-7.192-6.339-8.183c3.522-0.098,6.693,1.682,9.334,4.064
			c2.531,2.279,3.038,5.534,6.819,7.931L75.442,67.623z"/>
		<path fill="#63727A" stroke="#63727A" stroke-width="0.3398" stroke-linejoin="round" d="M124.821,67.623
			c3.474-0.531,6.072-1.1,8.921-3.69c2.122-1.91,2.657-7.192,6.339-8.183c-3.521-0.098-6.685,1.682-9.334,4.064
			c-2.512,2.279-3.015,5.534-6.819,7.931L124.821,67.623z"/>
	</g>
	<g>
		<defs>
			<path id="SVGID_9_" d="M156.381,87.989c-1.116,9.59-8.442,10.686-17.085,7.699c-2.759-5.408-6.599-10.171-11.232-13.992
				c-0.503,0.998-1.14,2.044-1.918,3.034c4.386,3.95,7.77,8.937,9.88,14.628c2.366,0.712-4.889-1.265-4.358-1.148
				c-1.69-4.028-4.162-7.888-7.424-11.449c-0.927,0.829-1.997,1.568-3.243,2.134c1.568,2.39,2.979,5.054,4.158,7.986
				c-0.381-0.071-0.77-0.134-1.163-0.196c-1.269-3.046-2.822-5.781-4.524-8.257c4.013-1.356,6.497-4.382,8.065-7.161
				c-7.589-6.115-17.242-9.767-27.755-9.767c-11.645,0-22.241,4.488-30.161,11.83c11.563-3.341,30.558,1.218,37.282,4.26
				c3.604,1.317,6.638,1.717,9.204,1.521c0.212,0.283,0.417,0.589,0.605,0.884c-2.684,0.267-5.915-0.134-9.81-1.552
				c-6.752-3.046-25.888-7.636-39.243-3.187c-2.975,3.136-5.506,6.665-7.471,10.549c-8.481,2.834-15.638,1.643-16.739-7.817
				c6.477,4.276,8.8-0.774,8.8-4.622c0-8.367-8.045-7.801-14.809-9.582c5.097-1.069,9.798-2.728,14.408-0.766
				c3.942,1.678,6.096,5.184,9.79,6.929c7.42,3.463,12.357-6.532,6.068-11.24l0.028-0.02c5.388,0.66,7.401,3.694,13.095,3.981
				c6.056,0.318,10.741-1.78,13.036-4.072c2.295-2.311,3.317-3.844,3.317-3.844c1.772-2.067,3.954-4.716,6.799-5.935
				c-4.06,5.565,0.829,10.089,6.096,12.333c2.551,1.01,5.663,1.69,8.914,1.517c5.718-0.287,7.715-3.321,13.103-3.981l0.035,0.02
				c-6.3,4.708-1.363,14.703,6.061,11.24c3.706-1.745,5.86-5.251,9.802-6.929c4.61-1.961,9.106-0.519,14.392,0.766
				c-6.752,1.78-14.797,1.214-14.813,9.582C147.573,87.215,149.908,92.265,156.381,87.989z M107.371,159.652
				c0.7-0.126,1.403-0.259,2.099-0.405c16.397-16.173,18.893-34.711,19.16-42.446c-0.358-0.212-0.751-0.409-1.155-0.593
				C127.234,123.848,124.766,143.149,107.371,159.652z M122.353,114.648c-4.178-0.488-12.758,0.082-20.52,10.324
				c0,0-3.089,3.836-6.544,8.344c-2.024,2.68-10.639,16.994-20.744,19.129c0.704,0.483,1.403,0.955,2.138,1.399
				c8.635-2.166,18.22-17.674,20.3-20.693c2.908-4.241,5.349-7.699,5.349-7.699C109.709,115.241,118.069,114.313,122.353,114.648z
				 M57.115,132.522l-10.958-0.142l12.785,4.249C58.282,135.297,57.658,133.937,57.115,132.522z M142.432,132.522
				c-0.546,1.399-1.144,2.767-1.816,4.103l12.746-4.245L142.432,132.522z"/>
		</defs>
		<clipPath id="SVGID_10_">
			<use xlink:href="#SVGID_9_"  overflow="visible"/>
		</clipPath>
		<g clip-path="url(#SVGID_10_)">
			<path fill="none" stroke="#F9A01B" stroke-width="0.3398" d="M46.68,96.836l-2.378,0.837v35.852h110.883V97.657l-2.582-0.743
				l-0.664-0.216c-11.091-3.667-32.68-9.822-52.484-9.822C78.024,86.877,57.182,93.118,46.68,96.836z"/>
		</g>
	</g>
	<g>
		<defs>
			<path id="SVGID_11_" d="M125.159,96.883c1.788,0.295,3.451,0.641,4.984,1.022c0.523,0.09,1.034,0.208,1.529,0.31
				c-1.694-4.028-4.154-7.892-7.428-11.452c-0.924,0.829-1.997,1.568-3.243,2.134C122.569,91.286,123.98,93.951,125.159,96.883z
				 M136.026,99.359c1.081,0.33,2.067,0.66,2.955,0.971c-2.598-6.516-6.768-12.235-12.042-16.692
				c-0.236,0.381-0.515,0.735-0.794,1.093C130.532,88.681,133.916,93.668,136.026,99.359z M133.636,130.235l-2.743-0.755
				c1.25-2.845,2.189-5.746,2.806-8.67c-1.395-1.498-3.062-2.889-5.07-4.009c-0.181,5.337-1.442,15.831-7.597,27.15
				c7.204-3.808,13.044-9.833,16.641-17.163c-0.393-0.829-0.861-1.686-1.383-2.539C135.574,126.312,134.706,128.321,133.636,130.235
				z M122.353,114.648c-4.284-0.334-12.644,0.593-20.021,10.804c0,0-2.441,3.458-5.349,7.699c-1.159,1.69-4.634,7.232-8.981,12.187
				c4.618,1.977,9.723,3.062,15.068,3.062c2.016,0,4.009-0.169,5.939-0.475c11.248-13.544,13.72-27.641,14.215-33.144
				C122.974,114.73,122.663,114.683,122.353,114.648z M98.147,121.805c10.383-10.572,19.561-11.366,24.457-10.765
				c0.264,0.02,0.519,0.067,0.763,0.09c0-4.241-0.711-8.127-1.902-11.653c-7.381-0.42-16.283,0.303-26.337,3.435
				c-0.189,0.043-15.112,4.779-28.785,18.7c2.594,8.101,7.786,15.014,14.577,19.793c3.946-3.136,6.611-6.917,7.585-8.076
				C92.31,128.784,98.088,121.859,98.147,121.805z M120.207,96.223c-0.998-2.229-2.181-4.3-3.494-6.226
				c-2.684,0.267-5.915-0.134-9.81-1.552c-5.628-2.539-19.879-6.147-32.204-4.697c-6.324,6.874-10.183,16.031-10.183,26.089
				c0,0.605,0.023,1.199,0.059,1.796c13.359-9.814,27.024-12.958,27.735-13.115C103.024,95.806,112.437,95.472,120.207,96.223z"/>
		</defs>
		<clipPath id="SVGID_12_">
			<use xlink:href="#SVGID_11_"  overflow="visible"/>
		</clipPath>
		<path clip-path="url(#SVGID_12_)" fill="none" stroke="#E56020" stroke-width="0.3398" d="M46.68,96.836l-2.378,0.837v35.852
			h110.883V97.657l-2.582-0.743l-0.664-0.216c-11.091-3.667-32.68-9.822-52.484-9.822C78.024,86.877,57.182,93.118,46.68,96.836z"/>
	</g>
	<g>
		<defs>
			<path id="SVGID_13_" d="M147.573,83.367c0.016-8.367,8.061-7.801,14.813-9.582c-5.286-1.285-9.782-2.728-14.392-0.766
				c-3.942,1.678-6.096,5.184-9.802,6.929c-7.424,3.463-12.36-6.532-6.061-11.24l-0.035-0.02c-5.388,0.66-7.385,3.694-13.103,3.981
				c-3.25,0.173-6.363-0.507-8.914-1.517c-5.267-2.244-10.156-6.768-6.096-12.333c-2.845,1.218-5.027,3.867-6.799,5.935
				c0,0-1.022,1.533-3.317,3.844c-2.295,2.291-6.98,4.39-13.036,4.072c-5.695-0.287-7.707-3.321-13.095-3.981l-0.028,0.02
				c6.288,4.708,1.352,14.703-6.068,11.24c-3.694-1.745-5.848-5.251-9.79-6.929c-4.61-1.961-9.311-0.303-14.408,0.766
				c6.764,1.78,14.809,1.214,14.809,9.582c0,3.848-2.323,8.898-8.8,4.622c0.523,4.382,2.327,6.98,4.96,8.234
				c10.965-3.746,30.742-9.346,51.045-9.346c19.301,0,40.253,5.833,51.588,9.523c2.838-1.167,4.791-3.812,5.337-8.411
				C149.908,92.265,147.573,87.215,147.573,83.367z"/>
		</defs>
		<clipPath id="SVGID_14_">
			<use xlink:href="#SVGID_13_"  overflow="visible"/>
		</clipPath>
		<path clip-path="url(#SVGID_14_)" fill="none" stroke="#F9A01B" stroke-width="0.3398" d="M144.181,115.925
			c0,24.501-19.883,44.392-44.4,44.392c-24.521,0-44.415-19.891-44.415-44.392c0-24.548,19.895-44.423,44.415-44.423
			C124.298,71.502,144.181,91.377,144.181,115.925z"/>
	</g>
	<g>
		<defs>
			<path id="SVGID_15_" d="M60.428,133.525l2.217,4.327l-13.056-4.327H60.428z M139.091,133.525l-2.209,4.327l13.048-4.327H139.091z
				"/>
		</defs>
		<clipPath id="SVGID_16_">
			<use xlink:href="#SVGID_15_"  overflow="visible"/>
		</clipPath>
		<path clip-path="url(#SVGID_16_)" fill="none" stroke="#F9A01B" stroke-width="0.3398" d="M144.181,115.925
			c0,24.501-19.883,44.392-44.4,44.392c-24.521,0-44.415-19.891-44.415-44.392c0-24.548,19.895-44.423,44.415-44.423
			C124.298,71.502,144.181,91.377,144.181,115.925z"/>
	</g>
	<g>
		<defs>
			<path id="SVGID_17_" d="M155.186,131.767v1.757l-21.427,7.703l0.522-2.547l2.602-0.829l16.479-5.471L155.186,131.767z
				 M62.645,137.852l-16.487-5.471l-1.855-0.648v1.792c0,0,18.468,6.591,19.384,6.964l0.377-2.264L62.645,137.852z"/>
		</defs>
		<clipPath id="SVGID_18_">
			<use xlink:href="#SVGID_17_"  overflow="visible"/>
		</clipPath>
		<path clip-path="url(#SVGID_18_)" fill="none" stroke="#63727A" stroke-width="0.3398" d="M144.181,115.925
			c0,24.501-19.883,44.392-44.4,44.392c-24.521,0-44.415-19.891-44.415-44.392c0-24.548,19.895-44.423,44.415-44.423
			C124.298,71.502,144.181,91.377,144.181,115.925z"/>
	</g>
</g>
</svg>
