<svg version="1.1" id="Layer_1" xmlns="http://www.w3.org/2000/svg" xmlns:xlink="http://www.w3.org/1999/xlink" x="0px" y="0px" viewBox="0 0 200 200" enable-background="new 0 0 200 200" xml:space="preserve" preserveAspectRatio="xMidYMid">
<g>
	<path fill="#231F20" d="M152.328,37.081L189.393,0h-17.125l-30.29,26.089L168.234,0h-16.426l-29.315,26.157L148.818,0h-15.693
		l-30.333,26.122L129.078,0h-15.594L83.073,26.189L109.434,0H91.376L46.586,35.104c-4.192,3.376-8.081,7.179-11.541,11.302
		c-12.45,14.816-19.3,33.616-19.3,52.941c0,2.447,0.109,4.923,0.324,7.352c1.941,21.852,12.725,42.196,30.252,56.216L9.252,200
		h17.88l30.29-26.094L31.172,200h15.501l30.373-26.158L50.724,200h15.603l30.338-26.127L70.374,200h15.867l30.403-26.193L90.297,200
		h16.422l44.784-35.103c4.2-3.38,8.088-7.183,11.546-11.302c12.445-14.819,19.295-33.62,19.295-52.947
		c0-2.447-0.109-4.924-0.324-7.345C180.081,71.446,169.297,51.104,152.328,37.081z"/>
	<g>
		<g>
			<g>
				<path fill="#8E9090" d="M92.195,119.741l6.511-6.504c-7.435-2.306-11.631-7.381-11.631-13.89c0-3.383,1.427-6.437,3.723-8.593
					l84.635-84.674h-4.72l-79.66,71.793l-6.812,6.139c-4.045,3.868-6.576,9.308-6.576,15.335c0,1.404,0.14,2.769,0.398,4.1
					C79.563,111.046,85.861,117.487,92.195,119.741z"/>
			</g>
			<path fill="#8E9090" d="M82.346,129.592l6.412-6.41c-9.95-5.065-15.47-13.468-15.47-23.836c0-6.944,2.793-13.251,7.302-17.859
				l75.353-75.408h-4.369L81.066,68.363c-0.973,0.786-6.975,6.267-7.778,7.225c-5.83,6.214-9.409,14.577-9.409,23.759
				c0,1.626,0.13,3.219,0.377,4.777C65.858,115.262,72.812,124.669,82.346,129.592z"/>
			<path fill="#8E9090" d="M72.301,139.637l6.511-6.51c-12.086-7.451-19.308-19.551-19.308-33.781
				c0-10.507,4.145-20.065,10.879-27.124l66.067-66.143h-4.001L71.082,58.859c-1.955,1.562-7.153,6.385-8.758,8.305
				c-7.603,8.566-12.228,19.845-12.228,32.184c0,1.846,0.123,3.669,0.35,5.453C52.161,119.479,60.487,132.134,72.301,139.637z"/>
			<path fill="#8E9090" d="M62.256,149.685l6.606-6.611c-14.223-9.828-23.142-25.641-23.142-43.727
				c0-14.067,5.494-26.878,14.46-36.392l56.781-56.875h-3.65L61.093,49.345c-2.93,2.354-7.318,6.519-9.733,9.391
				C41.985,69.66,36.309,83.85,36.309,99.347c0,2.074,0.109,4.119,0.327,6.131C38.46,123.689,48.167,139.597,62.256,149.685z"/>
			<g>
				<path fill="#8E9090" d="M22.829,106.159c1.929,21.748,13.023,40.906,29.382,53.572l6.708-6.71
					c-16.37-12.214-26.984-31.725-26.984-53.674c0-17.629,6.85-33.688,18.034-45.658L97.467,6.079h-3.29L51.1,39.839
					c-3.892,3.135-7.48,6.645-10.697,10.474c-11.151,13.276-17.88,30.383-17.88,49.034
					C22.524,101.643,22.628,103.915,22.829,106.159z"/>
			</g>
		</g>
		<g>
			<g>
				<path fill="#E03A3E" d="M107.301,80.258l-6.505,6.503c7.432,2.302,11.632,7.381,11.632,13.887c0,3.39-1.437,6.443-3.731,8.597
					l-84.629,84.674h4.725l79.654-71.796l6.809-6.137c4.047-3.863,6.578-9.312,6.578-15.338c0-1.396-0.142-2.768-0.398-4.094
					C119.938,88.95,113.635,82.514,107.301,80.258z"/>
			</g>
			<path fill="#E03A3E" d="M117.152,70.407l-6.414,6.408c9.95,5.065,15.479,13.468,15.479,23.834c0,6.949-2.798,13.256-7.309,17.862
				l-75.347,75.41h4.36l70.51-62.288c0.982-0.785,6.982-6.263,7.787-7.219c5.825-6.22,9.402-14.581,9.402-23.765
				c0-1.624-0.128-3.221-0.374-4.775C133.644,84.734,126.692,75.329,117.152,70.407z"/>
			<path fill="#E03A3E" d="M127.198,60.358l-6.509,6.513c12.086,7.448,19.305,19.552,19.305,33.778
				c0,10.51-4.144,20.068-10.876,27.131l-66.067,66.14h4.005l61.366-52.782c1.946-1.562,7.146-6.386,8.751-8.301
				c7.608-8.571,12.235-19.847,12.235-32.189c0-1.846-0.125-3.666-0.35-5.453C147.342,80.522,139.012,67.862,127.198,60.358z"/>
			<path fill="#E03A3E" d="M137.246,50.312l-6.611,6.609c14.231,9.833,23.147,25.643,23.147,43.727
				c0,14.07-5.504,26.879-14.457,36.394l-56.784,56.877h3.65l52.218-43.269c2.928-2.355,7.319-6.521,9.728-9.392
				c9.378-10.924,15.049-25.111,15.049-40.61c0-2.072-0.108-4.117-0.319-6.13C161.044,76.303,151.327,60.401,137.246,50.312z"/>
			<g>
				<path fill="#E03A3E" d="M176.675,93.837c-1.934-21.749-13.028-40.9-29.381-53.57l-6.708,6.708
					c16.363,12.216,26.981,31.73,26.981,53.673c0,17.634-6.857,33.69-18.034,45.659l-47.501,47.612h3.293l43.071-33.765
					c3.901-3.131,7.489-6.642,10.701-10.469c11.151-13.276,17.879-30.38,17.879-49.037C176.976,98.357,176.874,96.08,176.675,93.837
					z"/>
			</g>
		</g>
	</g>
</g>
</svg>
