<svg version="1.1" id="Layer_1" xmlns="http://www.w3.org/2000/svg" xmlns:xlink="http://www.w3.org/1999/xlink" x="0px" y="0px" viewBox="0 0 200 200" enable-background="new 0 0 200 200" xml:space="preserve" preserveAspectRatio="xMidYMid">
<g>
	<path fill="#FFFFFF" d="M180.119,33.605c0-0.683-0.288-1.351-0.829-1.831c-0.817-0.723-1.991-0.824-2.919-0.25
		c-3.721,2.299-14.085,12.075-21.651,19.212c-0.01,0.009-2.481,2.395-2.931,2.829c-0.776-0.329-1.79-0.739-2.489-0.936
		c-2.638-0.657-4.962-0.647-6.678-0.297c1.288-3.023,8.125-19.077,8.125-19.077s-17.914,9.424-20.426,10.746
		c0.273-2.996,3.301-36.109,3.301-36.109s-21.746,26.838-23.73,29.287C109.033,34.144,99.363,0,99.363,0
		s-9.726,34.126-10.592,37.161c-1.978-2.45-23.678-29.326-23.678-29.326s2.97,33.119,3.24,36.115
		c-2.511-1.326-20.409-10.779-20.409-10.779s6.809,16.061,8.092,19.088c-1.713-0.353-4.029-0.368-6.65,0.281
		c-0.729,0.203-1.788,0.631-2.519,0.938c-0.45-0.437-2.914-2.827-2.914-2.827c-7.557-7.153-17.908-16.95-21.629-19.259
		c-0.929-0.575-2.102-0.476-2.92,0.245c-0.542,0.481-0.831,1.15-0.831,1.836c0,0.347,0.074,0.698,0.227,1.032
		c1.919,4.166,11.838,17.89,17.742,25.81c-2.145,2.077-3.445,4.491-3.512,6.751c-0.003,0.064-0.003,0.127-0.003,0.19
		c0,1.403,0.472,2.634,1.338,3.482c0.001,0.002,0.652,0.631,1.339,1.297c-3.377-0.004-15.847-0.021-15.847-0.021l-0.036,1.71
		c-0.266,11.825-0.591,41.246,2.153,59.012c2.598,16.816,6.873,28.833,14.293,40.179l0.773,1.181l0.745-1.201
		c1.715-2.757,7.137-9.724,15.497-16.739c0.816,0.769,3.342,3.15,4.207,3.967c-1.098,1.249-25.776,29.32-25.776,29.32
		c-1.023,1.155-1.573,2.62-1.573,4.155c0,0.131,0.004,0.261,0.011,0.39c0.102,1.681,0.849,3.215,2.104,4.327
		c2.598,2.299,6.578,2.057,8.876-0.54c0.001,0,21.928-24.796,25.828-29.206c1.191,1.057,15.52,13.786,15.52,13.786l-0.621-6.743
		c-0.051-0.546-0.076-1.122-0.076-1.729c0-1.654,0.247-3.598,0.617-5.68c4.099,5.084,10.235,8.087,16.836,8.091h0.015
		c6.598,0,12.733-2.99,16.834-8.061c0.365,2.068,0.608,4.001,0.608,5.644c0,0.621-0.027,1.208-0.079,1.763
		c0,0.003-0.631,6.742-0.631,6.742s13.155-11.644,15.543-13.76c1.141,1.294,25.777,29.252,25.777,29.252
		c1.11,1.258,2.647,2.008,4.322,2.113c1.679,0.104,3.295-0.45,4.552-1.558c2.599-2.294,2.848-6.275,0.554-8.874l0.002,0.001
		c0,0-24.63-28.111-25.727-29.363c0.868-0.815,3.398-3.192,4.215-3.96c8.352,7.033,13.76,14.008,15.469,16.767l0.743,1.201
		l0.774-1.18c7.441-11.331,11.735-23.339,14.363-40.154c1.962-12.565,2.398-30.96,2.398-44.838c0-5.744-0.074-10.713-0.147-14.174
		l-0.032-1.69l-0.883-0.018c0,0-11.587-0.004-14.966-0.006c0.663-0.639,1.338-1.29,1.338-1.29c0.875-0.853,1.349-2.087,1.349-3.494
		c0-0.061,0-0.12-0.002-0.18c-0.063-2.263-1.359-4.677-3.5-6.757c5.916-7.911,15.858-21.618,17.785-25.781
		C180.044,34.306,180.119,33.954,180.119,33.605 M179.072,34.262c-1.923,4.156-12.168,18.26-18.15,26.235
		c4.212,3.664,4.578,7.887,2.713,9.706l-2.947,2.84l17.198,0.005c-0.002,1.113,1.081,38.505-2.227,59.681
		c-2.513,16.085-6.516,28.057-14.225,39.798c-1.771-2.861-7.455-10.218-16.259-17.506l-5.44,5.111l26.301,30.019
		c1.964,2.227,1.751,5.638-0.475,7.603c-2.228,1.965-5.639,1.753-7.604-0.474l-26.375-29.93l-11.15,9.871l-3.362,2.979l0.418-4.474
		c0.279-2.972-0.178-6.407-0.897-9.693c-3.72,5.642-10.112,9.366-17.376,9.361c-7.263-0.006-13.651-3.742-17.361-9.391
		c-0.726,3.284-1.187,6.72-0.915,9.691l0.413,4.474l-3.358-2.984l-11.133-9.889l-26.424,29.884
		c-1.971,2.224-5.381,2.432-7.605,0.463c-2.224-1.97-2.431-5.381-0.462-7.603l26.35-29.974l-5.43-5.122
		c-8.816,7.272-14.513,14.621-16.289,17.476c-7.688-11.752-11.671-23.732-14.158-39.821c-3.27-21.182-2.125-58.572-2.125-59.683
		l17.196,0.024l-2.938-2.845c-1.863-1.822-1.49-6.044,2.728-9.702c-5.97-7.984-16.191-22.108-18.107-26.265
		c-0.286-0.623-0.132-1.36,0.382-1.814c0.515-0.455,1.265-0.518,1.847-0.156c3.644,2.259,13.956,12.021,21.486,19.147
		c1.057,1.001,2.452,2.403,3.337,3.237c1.097-0.477,2.253-0.938,2.931-1.128c3.754-0.929,6.767-0.439,8.058,0.364L49.74,35.149
		L69.378,45.52l-3.125-34.813l22.909,28.373L99.36,3.296l10.14,35.8l22.954-28.332l-3.181,34.806l19.653-10.339l-7.928,18.616
		c1.29-0.8,4.305-1.286,8.058-0.351c0.678,0.19,1.832,0.654,2.93,1.133c0.885-0.833,2.283-2.231,3.342-3.23
		c7.541-7.115,17.871-16.858,21.517-19.111c0.584-0.362,1.333-0.296,1.848,0.159C179.204,32.903,179.36,33.64,179.072,34.262"/>
	<path d="M176.845,32.289c-3.646,2.253-13.976,11.996-21.517,19.111c-1.059,0.999-2.457,2.397-3.342,3.23
		c-1.098-0.479-2.252-0.943-2.93-1.133c-3.753-0.935-6.767-0.449-8.058,0.351l7.928-18.616l-19.653,10.339l3.181-34.806
		L109.5,39.097l-10.14-35.8L89.162,39.081L66.253,10.708l3.125,34.813L49.74,35.149l7.898,18.629
		c-1.29-0.804-4.304-1.293-8.058-0.364c-0.678,0.19-1.834,0.651-2.931,1.128c-0.885-0.834-2.28-2.236-3.337-3.237
		c-7.53-7.126-17.842-16.888-21.486-19.147c-0.582-0.362-1.333-0.299-1.847,0.156c-0.514,0.454-0.669,1.191-0.382,1.814
		c1.916,4.157,12.137,18.281,18.107,26.265c-4.219,3.658-4.592,7.88-2.728,9.702l2.938,2.845l-17.196-0.024
		c0,1.111-1.145,38.501,2.125,59.683c2.487,16.09,6.469,28.069,14.158,39.821c1.776-2.856,7.473-10.204,16.289-17.476l5.43,5.122
		l-26.35,29.974c-1.969,2.222-1.762,5.634,0.462,7.603c2.224,1.969,5.634,1.761,7.605-0.463l26.424-29.884l11.133,9.889l3.358,2.984
		l-0.413-4.474c-0.272-2.971,0.189-6.407,0.915-9.691c3.711,5.649,10.098,9.384,17.361,9.391c7.264,0.005,13.656-3.719,17.376-9.361
		c0.719,3.286,1.176,6.72,0.897,9.693l-0.418,4.474l3.362-2.979l11.15-9.871l26.375,29.93c1.965,2.227,5.376,2.439,7.604,0.474
		c2.225-1.966,2.438-5.376,0.475-7.603l-26.301-30.019l5.44-5.111c8.804,7.288,14.488,14.645,16.259,17.506
		c7.708-11.741,11.711-23.713,14.225-39.798c3.308-21.176,2.225-58.568,2.227-59.681l-17.198-0.005l2.947-2.84
		c1.865-1.818,1.5-6.041-2.713-9.706c5.982-7.975,16.227-22.079,18.15-26.235c0.288-0.621,0.132-1.359-0.379-1.814
		C178.178,31.993,177.429,31.927,176.845,32.289 M143.996,56.435c0.839-1.071,2.904-0.918,5.815,0.433l0.295,0.12l-3.673,3.846
		l-0.154-0.089c-1.337-0.776-2.269-1.917-2.486-3.052C143.693,57.174,143.766,56.728,143.996,56.435 M141.317,56.866l0.389,0.226
		c-0.311,0.58-0.35,1.253-0.117,2.007c0.557,1.794,2.609,3.828,5.23,5.18l0.247,0.128l-1.271,1.552l-0.146-0.046
		c-0.045-0.014-4.707-1.467-7.9-2.902l-0.236-0.105L141.317,56.866z M156.605,90.918l-10.198,0.01l-0.029,0.913
		c-0.152,4.192-0.036,6.801,4.121,11.606l4.734,5.368c1.477,1.653,2.751,3.082,3.975,4.536c0.285,0.342,0.614,0.69,0.962,1.057
		c2.539,2.693,6.788,7.203,3.95,20.44c-2.114,9.863-3.374,13.836-4.626,16.961l-0.241,0.511
		c-9.14-8.172-18.116-13.655-26.402-17.269c1.21-6.012,2.024-12.495,2.573-18.922l9.358,7.378c-0.229,1.954-0.507,3.91-0.802,5.889
		c1.867,0.993,7.307,4.067,9,5.313c0.19-0.92,0.747-2.953,0.873-3.762c1.362-8.849-0.962-11.343-2.7-13.206
		c-0.189-0.203-0.367-0.393-0.527-0.581c-0.749-0.875-1.33-1.479-2.207-2.393c-1.27-1.324-3.188-3.321-7.271-7.846
		c-5.32-5.894-4.994-14.679-4.915-20.079l0.151-3.372l4.798-0.005c1.415,0.351,2.645,0.557,3.625,0.557
		c0.781,0.001,1.795-0.085,2.817-0.565l19.492-0.023c0.063,5.588,0.092,13.485-0.147,21.814l-10.337-7.602
		C156.651,95.18,156.634,92.886,156.605,90.918 M147.563,81.216c-0.784,0.723-1.628,0.856-2.821,0.845
		c-3.255-0.034-9.259-2.386-15.618-4.874l-0.848-0.331c-6.041-2.363-15.17-5.933-28.972-5.943
		c-13.8-0.013-22.936,3.542-28.981,5.893l-0.853,0.331c-6.36,2.477-12.368,4.818-15.624,4.846c-1.193,0.01-2.035-0.126-2.816-0.849
		c-0.755-0.7-9.825-9.716-10.214-10.1l-0.432-0.432l0.61,0.049c3.356,0.26,13.607-2.787,21.578-5.886l1.498-0.586
		c8.083-3.166,19.152-7.502,35.245-7.488c16.094,0.012,27.156,4.368,35.234,7.547l1.499,0.589c7.968,3.112,18.212,6.177,21.57,5.921
		l0.609-0.046l-0.435,0.43C157.405,71.517,148.318,80.517,147.563,81.216 M126.252,78.393c-0.003,0.259-0.018,2.063-0.021,2.418
		c-0.441,0-53.43-0.045-53.873-0.045c-0.001-0.356-0.014-2.16-0.017-2.417c6.528-2.461,15.464-5.258,26.96-5.247
		C110.797,73.11,119.73,75.923,126.252,78.393 M44.441,130.325c0.821,5.293,1.909,10.348,3.172,15.052
		c-2.861,2.087-5.73,4.459-8.647,7.071c-2.358-6.502-4.221-13.829-5.507-22.134c-2.16-13.935-2.134-35.88-1.983-46.991l10.982,0.011
		c-0.087,6.572-0.137,16.545,0.259,26.544l9.754-7.093c-0.194-7.408-0.12-13.957-0.01-18.944c0.477,0.079,0.929,0.105,1.318,0.105
		c1.047,0.001,2.38-0.227,3.923-0.618l4.186,0.021c-0.1,6.127-0.105,13.553,0.236,21.606l-8.386,6.047l9.094,5.158
		c0.547,6.398,1.405,12.889,2.607,18.912c-3.013,1.316-6.091,2.905-9.257,4.749c-1.224-5.875-2.073-12.202-2.656-18.499
		l-10.548-6.226C43.289,120.555,43.752,125.872,44.441,130.325 M74.671,53.406c0,0-2.482-27.017-2.611-28.429
		c0.892,1.109,19.097,23.756,19.097,23.756s7.777-27.543,8.19-29.003c0.411,1.462,8.141,29.017,8.141,29.017
		s18.244-22.617,19.136-23.724c-0.132,1.411-2.658,28.424-2.658,28.424s14.707-7.741,15.756-8.294
		c-0.464,1.079-6.774,15.703-6.933,16.075c-9.082-3.476-19.427-6.675-33.471-6.687c-14.044-0.012-24.394,3.171-33.481,6.63
		c-0.16-0.37-6.445-15.006-6.91-16.086C59.977,45.641,74.671,53.406,74.671,53.406 M56.923,57.02l0.389-0.225l3.795,6.048
		l-0.236,0.105c-3.195,1.429-7.858,2.872-7.905,2.888l-0.145,0.044l-1.27-1.554l0.248-0.127c2.622-1.349,4.679-3.379,5.238-5.173
		C57.271,58.274,57.233,57.597,56.923,57.02 M48.819,56.782c2.914-1.345,4.98-1.494,5.817-0.423c0.23,0.295,0.3,0.741,0.201,1.259
		c-0.223,1.136-1.154,2.275-2.492,3.047l-0.16,0.081l-3.65-3.833L48.819,56.782z M28.666,42.196c4.12,3.742,8.81,8.17,12.357,11.53
		l5.547,5.213c0,0.001,0.333,0.388,0.333,0.388s2.16,2.498,2.453,2.838c-0.232,0.155-0.568,0.379-0.568,0.379
		c-0.392,0.287-0.797,0.585-1.285,0.75l-0.31,0.105c0,0,2.103,2.527,2.463,2.961c-0.463,0.142-1.885,0.576-2.1,0.64
		c-0.184-0.208-4.454-5.055-4.454-5.055C39.828,57.682,33.452,49.081,28.666,42.196 M37.761,67.208
		c-1.523-1.524,0.343-3.392,1.577-4.628l0.179-0.18l0.157,0.199l3.489,4.377l-0.275,0.115C41.612,67.617,38.62,68.069,37.761,67.208
		 M50.037,152.067c-4.48,3.714-8.726,7.96-12.621,12.624l-0.217,0.26l-0.156-0.302c-4.636-8.99-8-19.762-10.001-32.01
		c-1.863-11.433-2.603-30.673-2.079-54.181l0.026-1.356l19.4,0.018l0.095,0.004l4.836,4.766l0.31,0.297l0.631,0.539
		c0,0-0.004,0.518-0.004,0.522c-0.152,6.498-0.162,12.489-0.032,18.309l0.001,0.118l-5.434,3.952l-0.012-0.427
		c-0.111-4.14-0.167-8.568-0.167-13.236c0-2.784,0.02-5.656,0.059-8.602c0,0,0.024-1.868,0.029-2.244
		c-0.375,0-15.047-0.012-15.415-0.012c-0.004,0.366-0.028,2.187-0.028,2.187c-0.036,2.707-0.06,5.61-0.06,8.622
		c0,13.045,0.431,28.181,2.068,38.739c1.269,8.189,3.158,15.776,5.615,22.549c0,0,0.932,2.568,1.12,3.085
		c0.409-0.367,2.442-2.191,2.442-2.191c2.133-1.909,4.123-3.586,6.089-5.124l0.146-0.112l3.567,3.038L50.037,152.067z
		 M62.881,167.41l-0.009,0.063l-4.19,4.739l-2.78,3.145l-5.499,6.222l-2.751,3.112l-5.496,6.22l-2.71,3.064l-1.154,1.306
		c-0.915,1.034-2.502,1.13-3.536,0.213c-0.501-0.442-0.798-1.056-0.839-1.724c-0.04-0.669,0.181-1.312,0.623-1.813l4.478-5.097
		l2.725-3.102l5.495-6.251l2.751-3.13l5.491-6.25l2.767-3.149l0.939-1.07l0.073-0.015c1.051-0.233,2.013-0.025,2.714,0.585
		c0.626,0.543,0.961,1.35,0.961,2.274C62.935,166.967,62.917,167.185,62.881,167.41 M79.001,160.245
		c-1.227,4.207-1.939,7.797-2.194,10.978c-0.631-0.56-22.88-20.325-23.512-20.885c6.308-1.264,12.783-4.357,16.297-6.044
		c0.753-0.361,4.745-2.321,9.312-5.416c3.13-0.956,6.338-1.683,9.513-2.22c-6.293,3.795-10.186,10.535-10.191,17.936v0.023
		C78.226,156.511,78.49,158.404,79.001,160.245 M117.233,155.897c-0.145,2.075-0.641,4.055-1.43,5.876
		c-0.615,1.42-1.408,2.743-2.35,3.946c-0.308,0.393-0.63,0.775-0.969,1.142c-3.197,3.456-7.729,5.655-12.776,5.786
		c-0.164,0.003-0.326,0.011-0.49,0.011c-0.165,0-0.328-0.009-0.49-0.013c-5.048-0.14-9.576-2.346-12.768-5.808
		c-0.33-0.358-0.644-0.731-0.945-1.114c-0.954-1.221-1.756-2.563-2.375-4.006c-0.778-1.809-1.263-3.772-1.407-5.828
		c-0.03-0.429-0.051-0.862-0.051-1.298c0.006-7.007,4.006-13.074,9.843-16.061c0.315-0.161,0.633-0.314,0.958-0.455
		c2.083-0.916,4.37-1.446,6.774-1.509c0.165-0.005,0.327-0.013,0.491-0.013c0.164,0,0.325,0.009,0.488,0.013
		c2.411,0.067,4.704,0.606,6.788,1.526c0.32,0.142,0.633,0.293,0.944,0.452c5.831,2.997,9.82,9.07,9.815,16.079
		C117.283,155.052,117.264,155.476,117.233,155.897 M140.194,165.042c0.648,0.737,1.597,1.823,2.755,3.143
		c1.543,1.762,3.447,3.937,5.476,6.253c0.904,1.032,1.831,2.09,2.761,3.153c1.871,2.137,3.753,4.286,5.474,6.251
		c0.97,1.107,1.886,2.154,2.723,3.108c2.653,3.032,4.478,5.117,4.478,5.117c0.407,0.46,0.626,1.041,0.626,1.653
		c0,0.053-0.001,0.107-0.005,0.161c-0.042,0.668-0.341,1.281-0.844,1.72c-1.034,0.915-2.62,0.816-3.533-0.219l-1.155-1.312
		l-2.687-3.05l-5.492-6.237l-2.749-3.119l-5.495-6.237l-2.788-3.166l-4.164-4.726l-0.008-0.065c-0.192-1.194,0.14-2.262,0.911-2.932
		c0.704-0.606,1.667-0.811,2.716-0.578l0.071,0.015C139.262,163.975,139.602,164.363,140.194,165.042 M121.257,171.26
		c-0.237-2.992-0.897-6.458-1.991-10.338c0.643-2.035,0.972-4.15,0.974-6.294v-0.019c0-7.321-3.822-14.023-10.009-17.843
		c3.01,0.537,6.044,1.244,9.042,2.175c4.476,3.057,8.485,5.038,9.244,5.403c3.512,1.691,9.981,4.796,16.285,6.07
		C144.17,150.975,121.889,170.701,121.257,171.26 M134.616,142.7c-16.061-8.857-30.081-9.823-35.365-9.828
		c-5.281-0.004-19.303,0.937-35.392,9.774c-3.828,1.834-10.284,4.444-15.886,5.761l-0.185-0.4l1.132-0.841
		c0,0,1.023-0.746,1.228-0.897c-0.066-0.248-0.394-1.468-0.394-1.468c-1.293-4.81-2.343-9.793-3.122-14.818
		c-0.447-2.889-0.83-6.394-1.137-10.421l-0.031-0.429l5.968,3.524l0.01,0.113c0.637,6.48,1.502,12.368,2.574,17.501
		c0,0,0.52,2.505,0.625,3.007c0.708-0.411,2.657-1.546,2.657-1.546c3.187-1.855,6.14-3.369,9.029-4.631c0,0,1.36-0.594,1.634-0.713
		c-0.082-0.414-0.347-1.751-0.347-1.751c-1.137-5.694-2.002-11.974-2.572-18.669c0,0-0.082-0.968-0.099-1.165
		c-0.24-0.136-7.106-4.028-7.106-4.028s6.391-4.606,6.553-4.724c-0.009-0.199-0.051-1.192-0.051-1.192
		c-0.196-4.637-0.293-9.41-0.293-14.448c0-2.284,0.019-4.62,0.058-7.025l0.028-2.2l0.006-0.154l3.771-1.413
		c0,0-0.002,4.439-0.002,4.847c0.447,0,62.329,0.054,62.773,0.054c0.001-0.41,0.007-4.868,0.007-4.868l3.591,1.356l-0.105,2.362
		c0,0-0.152,3.374-0.154,3.441l-0.008,0.55c-0.086,5.499-0.234,14.702,5.495,21.047l7.319,7.898l2.12,2.298l0.593,0.651
		c1.559,1.673,3.328,3.571,2.131,11.358l-0.047,0.242l-0.06,0.305l-5.026-2.891l-0.134-0.081l0.586-4.42c0,0,0.12-1.025,0.143-1.231
		c-0.229-0.183-13.016-10.265-13.557-10.691c-0.092,1.09-0.353,4.098-0.353,4.098c-0.6,7.014-1.455,13.296-2.537,18.671
		c0,0-0.292,1.459-0.353,1.754c0.387,0.169,1.641,0.713,1.641,0.713c6.347,2.771,12.615,6.468,18.626,10.991l-0.189,0.398
		C144.828,147.138,138.422,144.532,134.616,142.7 M173.387,77.227l0.22,0.004l0.024,1.353c0.486,23.509-0.287,42.747-2.171,54.177
		c-2.021,12.244-5.405,23.01-10.056,31.992l-0.155,0.303l-0.219-0.262c-3.885-4.669-8.125-8.923-12.599-12.643l-0.206-0.171
		l3.544-3.011l0.144,0.113c1.999,1.553,3.97,3.199,5.86,4.89c0,0,1.845,1.648,2.215,1.979c0.338-0.715,1.507-3.196,1.507-3.196
		s0.031-0.067,0.052-0.122c1.323-3.303,2.634-7.514,4.736-17.321c0.692-3.23,0.981-5.998,0.981-8.381
		c0-8.222-3.428-11.861-5.483-14.042l-0.878-0.961c0,0-4.015-4.586-4.017-4.587c0,0-4.726-5.36-4.729-5.362
		c-3.014-3.485-3.609-5.513-3.609-8.331c0-0.094,0.005-0.505,0.005-0.505l5.631-0.005l0.226-0.002l0.002,4.498
		c0,0-0.006,0.941-0.006,1.132c0.216,0.157,14.085,10.354,14.655,10.772c0.032-1.122,0.121-4.224,0.121-4.224
		c0.13-4.46,0.193-9.15,0.193-14.191c0-2.481-0.015-5.046-0.046-7.71c0,0-0.02-1.826-0.024-2.192c-0.366,0-18.714,0.02-18.714,0.02
		l-0.546-0.001l4.068-4.025L173.387,77.227z M160.853,67.314c-0.863,0.86-3.852,0.401-5.127-0.127l-0.276-0.117l3.314-4.138
		l0.34-0.43l0.179,0.18C160.516,63.918,162.376,65.79,160.853,67.314 M155.512,62.052c0.009-0.011-3.961,4.48-4.453,5.038
		c-0.216-0.065-1.637-0.503-2.1-0.644c0.361-0.434,2.469-2.959,2.469-2.959l-0.31-0.105c-0.488-0.167-0.895-0.465-1.285-0.752
		c0,0-0.335-0.225-0.568-0.381c0.294-0.339,2.484-2.862,2.484-2.862l0.324-0.377c0.001,0,5.54-5.187,5.54-5.187
		c3.552-3.349,8.245-7.767,12.377-11.507C165.199,49.183,158.805,57.778,155.512,62.052"/>
	<path d="M46.533,148.973c-1.966,1.538-3.956,3.215-6.089,5.124c0,0-2.033,1.825-2.442,2.191c-0.188-0.517-1.12-3.085-1.12-3.085
		c-2.457-6.774-4.346-14.361-5.615-22.549C29.631,120.096,29.2,104.96,29.2,91.915c0-3.013,0.023-5.915,0.06-8.622
		c0,0,0.024-1.821,0.028-2.187c0.368,0,15.039,0.012,15.415,0.012c-0.005,0.376-0.029,2.244-0.029,2.244
		c-0.039,2.946-0.059,5.818-0.059,8.602c0,4.668,0.056,9.096,0.167,13.236l0.012,0.427l5.434-3.952l-0.001-0.118
		c-0.131-5.821-0.12-11.811,0.032-18.309c0-0.004,0.004-0.522,0.004-0.522l-0.631-0.539l-0.31-0.297l-4.836-4.766l-0.095-0.004
		l-19.4-0.018l-0.026,1.356c-0.524,23.507,0.216,42.747,2.079,54.181c2.001,12.249,5.365,23.02,10.001,32.01l0.156,0.302l0.217-0.26
		c3.895-4.664,8.142-8.91,12.621-12.624l0.208-0.168l-3.567-3.038L46.533,148.973z"/>
	<path fill="#393A96" d="M46.533,148.973c-1.966,1.538-3.956,3.215-6.089,5.124c0,0-2.033,1.825-2.442,2.191
		c-0.188-0.517-1.12-3.085-1.12-3.085c-2.457-6.774-4.346-14.361-5.615-22.549C29.631,120.096,29.2,104.96,29.2,91.915
		c0-3.013,0.023-5.915,0.06-8.622c0,0,0.024-1.821,0.028-2.187c0.368,0,15.039,0.012,15.415,0.012
		c-0.005,0.376-0.029,2.244-0.029,2.244c-0.039,2.946-0.059,5.818-0.059,8.602c0,4.668,0.056,9.096,0.167,13.236l0.012,0.427
		l5.434-3.952l-0.001-0.118c-0.131-5.821-0.12-11.811,0.032-18.309c0-0.004,0.004-0.522,0.004-0.522l-0.631-0.539l-0.31-0.297
		l-4.836-4.766l-0.095-0.004l-19.4-0.018l-0.026,1.356c-0.524,23.507,0.216,42.747,2.079,54.181
		c2.001,12.249,5.365,23.02,10.001,32.01l0.156,0.302l0.217-0.26c3.895-4.664,8.142-8.91,12.621-12.624l0.208-0.168l-3.567-3.038
		L46.533,148.973z"/>
	<path d="M158.226,70.704l-0.609,0.046c-3.357,0.256-13.602-2.809-21.57-5.921l-1.499-0.589c-8.078-3.179-19.14-7.535-35.234-7.547
		c-16.093-0.014-27.162,4.322-35.245,7.488l-1.498,0.586c-7.971,3.099-18.222,6.146-21.578,5.886l-0.61-0.049l0.432,0.432
		c0.389,0.384,9.458,9.399,10.214,10.1c0.781,0.723,1.624,0.859,2.816,0.849c3.257-0.028,9.264-2.369,15.624-4.846l0.853-0.331
		c6.045-2.351,15.181-5.907,28.981-5.893c13.802,0.01,22.931,3.58,28.972,5.943l0.848,0.331c6.359,2.488,12.363,4.839,15.618,4.874
		c1.193,0.011,2.037-0.122,2.821-0.845c0.755-0.7,9.842-9.7,10.229-10.083L158.226,70.704z M57.621,77.086
		c-1.133,0.42-2.764,0.696-3.646,0.654l-0.564,0.804l-0.787-2.086c1.476,0.437,3.138,0.294,4.472-0.202
		c1.017-0.374,1.746-0.79,1.577-1.238c-0.177-0.468-1.188-0.033-2.474,0.341c-2.177,0.664-3.812,0.674-4.287-0.585
		c-0.474-1.259,0.74-2.487,2.871-3.277c1.134-0.42,2.537-0.632,3.426-0.572l0.575-0.827l0.713,1.889
		c-1.486-0.311-2.839-0.118-4.157,0.37c-1,0.37-1.902,0.888-1.754,1.284c0.169,0.45,1.11-0.022,2.389-0.412
		c2.138-0.67,4.035-0.696,4.545,0.654C61.029,75.23,59.752,76.297,57.621,77.086 M65.801,74.316l0.678-1.622l-0.297-0.241
		L63.169,73.5l-0.067,0.367l1.812,0.82c-0.891,0.288-2.918,1.046-4.066,1.472l0.828-1.802l0.716-4.004l-1.755-0.71
		c1.719-0.621,4.563-1.593,5.754-2.066l-0.953,1.69l3.091,2.491l1.846,0.829C69.033,73.06,66.629,74.018,65.801,74.316
		 M73.913,71.308c-2.64,0.765-4.973,0.135-5.481-1.602c-0.501-1.72,1.113-3.56,3.752-4.325c1.114-0.323,2.301-0.388,3.161-0.222
		l0.637-0.777l0.672,2.304c-1.466-0.648-2.318-0.659-3.612-0.283c-1.344,0.39-2.58,1.493-2.256,2.608
		c0.325,1.115,1.96,1.385,3.306,0.996c0.879-0.255,2.11-0.61,2.93-2.059l0.32,1.097C76.81,69.874,75.541,70.835,73.913,71.308
		 M104.358,67.205l1.36-1.134l0.326-3.428l-2.431,4.544l-1.142-0.041l-1.96-4.806l-0.127,3.505l1.322,1.246
		c-0.817-0.029-2.947-0.039-4.078-0.011c-1.928,0.006-4.014,0.201-4.904,0.238l1.089-1.35l-0.226-0.307l-3.149,0.221l-0.159,0.334
		l1.531,1.191c-0.761,0.04-2.345,0.207-3.594,0.382l0.018,0.01l-3.555,0.552c-0.542-0.357-0.992-1.032-1.417-1.662
		c-0.219-0.302-0.375-0.425-0.751-0.344l-1.39,0.317l0.239,1.111l1.634,0.912l-5.035,1.267l1.122-1.524l-0.737-3.444l-1.635-0.878
		c1.861-0.44,3.791-1.026,5.509-1.394c2.202-0.478,3.763-0.104,3.948,1.006c0.141,0.848-0.521,1.538-1.622,1.932l0.003,0.019
		c0.359-0.079,0.809-0.02,1.139,0.337c0.211,0.248,0.397,0.501,0.637,0.781l1.44,0.76l1.029-1.234l1.703-3.592L88.99,61.64
		c2.146-0.226,4.401-0.394,6.002-0.48l-1.304,1.312l2.321,3.273l1.62,1.334l1.45-1.242l0.125-3.513l-1.322-1.232
		c1.217-0.019,3.503,0.013,4.532,0.051l1.247,2.963l1.502-2.862c1.095,0.082,3.567,0.313,4.714,0.473l-1.489,1.123l-0.332,3.392
		l1.318,1.43C107.892,67.495,105.449,67.251,104.358,67.205 M118.235,69.359c-2.295-0.539-6.048-1.281-8.566-1.65l1.62-1.015
		l0.621-3.421l-1.183-1.454c1.942,0.262,5.331,0.861,8.798,1.645l-0.444,2.117l-1.646-1.54l-3.182-0.59l-0.215,1.296l1.836,0.322
		l1.157-0.421l-0.434,2.252l-0.922-0.807l-1.813-0.337l-0.255,1.45l3.105,0.58l2.064-0.836L118.235,69.359z M128.706,67.536
		l-1.413,4.691l-2.471-0.875l-2.167-4.827l-0.642,2.578l1.066,1.641l-4.005-1.188l1.668-0.8l0.873-3.488l-1.16-1.554l3.937,1.116
		l2.324,4.816l0.736-2.514l-1.003-1.632l3.913,1.378L128.706,67.536z M136.567,70.347l-1.083-0.411l-1.299,3.677l0.945,1.651
		l-4.923-1.848l1.73-0.633l1.3-3.698l-1.083-0.412l-2.325,0.756l0.818-2.406c1.385,0.509,5.923,2.224,8.077,3.067l-0.818,2.406
		L136.567,70.347z M146.639,75.832c-0.576,1.765-2.756,2.509-5.267,1.749c-2.527-0.763-3.875-2.572-3.297-4.336
		c0.582-1.782,2.755-2.508,5.284-1.746C145.868,72.259,147.22,74.05,146.639,75.832"/>
	<path fill="#393A96" d="M158.226,70.704l-0.609,0.046c-3.357,0.256-13.602-2.809-21.57-5.921l-1.499-0.589
		c-8.078-3.179-19.14-7.535-35.234-7.547c-16.093-0.014-27.162,4.322-35.245,7.488l-1.498,0.586
		c-7.971,3.099-18.222,6.146-21.578,5.886l-0.61-0.049l0.432,0.432c0.389,0.384,9.458,9.399,10.214,10.1
		c0.781,0.723,1.624,0.859,2.816,0.849c3.257-0.028,9.264-2.369,15.624-4.846l0.853-0.331c6.045-2.351,15.181-5.907,28.981-5.893
		c13.802,0.01,22.931,3.58,28.972,5.943l0.848,0.331c6.359,2.488,12.363,4.839,15.618,4.874c1.193,0.011,2.037-0.122,2.821-0.845
		c0.755-0.7,9.842-9.7,10.229-10.083L158.226,70.704z M57.621,77.086c-1.133,0.42-2.764,0.696-3.646,0.654l-0.564,0.804
		l-0.787-2.086c1.476,0.437,3.138,0.294,4.472-0.202c1.017-0.374,1.746-0.79,1.577-1.238c-0.177-0.468-1.188-0.033-2.474,0.341
		c-2.177,0.664-3.812,0.674-4.287-0.585c-0.474-1.259,0.74-2.487,2.871-3.277c1.134-0.42,2.537-0.632,3.426-0.572l0.575-0.827
		l0.713,1.889c-1.486-0.311-2.839-0.118-4.157,0.37c-1,0.37-1.902,0.888-1.754,1.284c0.169,0.45,1.11-0.022,2.389-0.412
		c2.138-0.67,4.035-0.696,4.545,0.654C61.029,75.23,59.752,76.297,57.621,77.086 M65.801,74.316l0.678-1.622l-0.297-0.241
		L63.169,73.5l-0.067,0.367l1.812,0.82c-0.891,0.288-2.918,1.046-4.066,1.472l0.828-1.802l0.716-4.004l-1.755-0.71
		c1.719-0.621,4.563-1.593,5.754-2.066l-0.953,1.69l3.091,2.491l1.846,0.829C69.033,73.06,66.629,74.018,65.801,74.316
		 M73.913,71.308c-2.64,0.765-4.973,0.135-5.481-1.602c-0.501-1.72,1.113-3.56,3.752-4.325c1.114-0.323,2.301-0.388,3.161-0.222
		l0.637-0.777l0.672,2.304c-1.466-0.648-2.318-0.659-3.612-0.283c-1.344,0.39-2.58,1.493-2.256,2.608
		c0.325,1.115,1.96,1.385,3.306,0.996c0.879-0.255,2.11-0.61,2.93-2.059l0.32,1.097C76.81,69.874,75.541,70.835,73.913,71.308
		 M104.358,67.205l1.36-1.134l0.326-3.428l-2.431,4.544l-1.142-0.041l-1.96-4.806l-0.127,3.505l1.322,1.246
		c-0.817-0.029-2.947-0.039-4.078-0.011c-1.928,0.006-4.014,0.201-4.904,0.238l1.089-1.35l-0.226-0.307l-3.149,0.221l-0.159,0.334
		l1.531,1.191c-0.761,0.04-2.345,0.207-3.594,0.382l0.018,0.01l-3.555,0.552c-0.542-0.357-0.992-1.032-1.417-1.662
		c-0.219-0.302-0.375-0.425-0.751-0.344l-1.39,0.317l0.239,1.111l1.634,0.912l-5.035,1.267l1.122-1.524l-0.737-3.444l-1.635-0.878
		c1.861-0.44,3.791-1.026,5.509-1.394c2.202-0.478,3.763-0.104,3.948,1.006c0.141,0.848-0.521,1.538-1.622,1.932l0.003,0.019
		c0.359-0.079,0.809-0.02,1.139,0.337c0.211,0.248,0.397,0.501,0.637,0.781l1.44,0.76l1.029-1.234l1.703-3.592L88.99,61.64
		c2.146-0.226,4.401-0.394,6.002-0.48l-1.304,1.312l2.321,3.273l1.62,1.334l1.45-1.242l0.125-3.513l-1.322-1.232
		c1.217-0.019,3.503,0.013,4.532,0.051l1.247,2.963l1.502-2.862c1.095,0.082,3.567,0.313,4.714,0.473l-1.489,1.123l-0.332,3.392
		l1.318,1.43C107.892,67.495,105.449,67.251,104.358,67.205 M118.235,69.359c-2.295-0.539-6.048-1.281-8.566-1.65l1.62-1.015
		l0.621-3.421l-1.183-1.454c1.942,0.262,5.331,0.861,8.798,1.645l-0.444,2.117l-1.646-1.54l-3.182-0.59l-0.215,1.296l1.836,0.322
		l1.157-0.421l-0.434,2.252l-0.922-0.807l-1.813-0.337l-0.255,1.45l3.105,0.58l2.064-0.836L118.235,69.359z M128.706,67.536
		l-1.413,4.691l-2.471-0.875l-2.167-4.827l-0.642,2.578l1.066,1.641l-4.005-1.188l1.668-0.8l0.873-3.488l-1.16-1.554l3.937,1.116
		l2.324,4.816l0.736-2.514l-1.003-1.632l3.913,1.378L128.706,67.536z M136.567,70.347l-1.083-0.411l-1.299,3.677l0.945,1.651
		l-4.923-1.848l1.73-0.633l1.3-3.698l-1.083-0.412l-2.325,0.756l0.818-2.406c1.385,0.509,5.923,2.224,8.077,3.067l-0.818,2.406
		L136.567,70.347z M146.639,75.832c-0.576,1.765-2.756,2.509-5.267,1.749c-2.527-0.763-3.875-2.572-3.297-4.336
		c0.582-1.782,2.755-2.508,5.284-1.746C145.868,72.259,147.22,74.05,146.639,75.832"/>
	<polygon points="90.925,64.839 92.872,64.685 91.726,63.132 	"/>
	<polygon fill="#393A96" points="90.925,64.839 92.872,64.685 91.726,63.132 	"/>
	<path d="M82.362,63.773l-1.776,0.419l0.323,1.47l1.712-0.394c0.619-0.134,0.992-0.507,0.931-0.903
		C83.471,63.823,82.983,63.638,82.362,63.773"/>
	<path fill="#393A96" d="M82.362,63.773l-1.776,0.419l0.323,1.47l1.712-0.394c0.619-0.134,0.992-0.507,0.931-0.903
		C83.471,63.823,82.983,63.638,82.362,63.773"/>
	<polygon points="63.377,72.354 65.233,71.688 63.694,70.428 	"/>
	<polygon fill="#393A96" points="63.377,72.354 65.233,71.688 63.694,70.428 	"/>
	<path d="M142.94,72.673c-1.177-0.356-2.207,0.179-2.563,1.267c-0.354,1.089,0.179,2.076,1.354,2.431
		c1.176,0.356,2.248-0.145,2.603-1.234C144.69,74.047,144.114,73.029,142.94,72.673"/>
	<path fill="#393A96" d="M142.94,72.673c-1.177-0.356-2.207,0.179-2.563,1.267c-0.354,1.089,0.179,2.076,1.354,2.431
		c1.176,0.356,2.248-0.145,2.603-1.234C144.69,74.047,144.114,73.029,142.94,72.673"/>
	<path fill="#FFFFFF" d="M55.975,73.228c-1.279,0.391-2.22,0.863-2.389,0.412c-0.148-0.396,0.754-0.913,1.754-1.284
		c1.318-0.489,2.672-0.682,4.157-0.37l-0.713-1.889l-0.575,0.827c-0.889-0.06-2.292,0.152-3.426,0.572
		c-2.132,0.79-3.346,2.018-2.871,3.277c0.475,1.259,2.11,1.249,4.287,0.585c1.287-0.374,2.298-0.81,2.474-0.341
		c0.169,0.449-0.561,0.864-1.577,1.238c-1.334,0.496-2.996,0.639-4.472,0.202l0.787,2.086l0.564-0.804
		c0.883,0.042,2.513-0.233,3.646-0.654c2.132-0.789,3.408-1.856,2.899-3.204C60.011,72.532,58.113,72.558,55.975,73.228"/>
	<path fill="#FFFFFF" d="M74.092,70.006c-1.346,0.389-2.982,0.119-3.306-0.996c-0.325-1.115,0.911-2.217,2.256-2.608
		c1.294-0.375,2.146-0.364,3.612,0.283l-0.672-2.304l-0.637,0.777c-0.859-0.166-2.047-0.1-3.161,0.222
		c-2.639,0.765-4.253,2.604-3.752,4.325c0.507,1.737,2.841,2.367,5.481,1.602c1.628-0.472,2.897-1.434,3.428-2.264l-0.32-1.097
		C76.202,69.396,74.971,69.75,74.092,70.006"/>
	<path fill="#FFFFFF" d="M108.388,62.84l1.489-1.123c-1.148-0.16-3.62-0.391-4.714-0.473l-1.502,2.862l-1.247-2.963
		c-1.029-0.038-3.316-0.071-4.532-0.051l1.322,1.232l-0.125,3.513l-1.45,1.242c1.131-0.028,3.26-0.018,4.078,0.011l-1.322-1.246
		l0.127-3.505l1.96,4.806l1.142,0.041l2.431-4.544l-0.326,3.428l-1.36,1.134c1.091,0.047,3.535,0.291,5.017,0.458l-1.318-1.43
		L108.388,62.84z"/>
	<path fill="#FFFFFF" d="M113.608,67.205l0.255-1.45l1.813,0.337l0.922,0.807l0.434-2.252l-1.157,0.421l-1.836-0.322l0.215-1.296
		l3.182,0.59l1.646,1.54l0.444-2.117c-3.466-0.783-6.856-1.383-8.798-1.645l1.183,1.454l-0.621,3.421l-1.62,1.015
		c2.518,0.369,6.271,1.111,8.566,1.65l0.542-2.41l-2.064,0.836L113.608,67.205z"/>
	<polygon fill="#FFFFFF" points="126.451,65.502 127.454,67.134 126.718,69.648 124.393,64.832 120.457,63.716 121.616,65.269 
		120.743,68.757 119.075,69.557 123.08,70.744 122.013,69.104 122.656,66.525 124.822,71.352 127.293,72.227 128.706,67.536 
		130.364,66.879 	"/>
	<path fill="#FFFFFF" d="M130.646,67.022l-0.818,2.406l2.325-0.756l1.083,0.412l-1.3,3.698l-1.73,0.633l4.923,1.848l-0.945-1.651
		l1.299-3.677l1.083,0.411l1.337,2.147l0.818-2.406C136.568,69.246,132.031,67.531,130.646,67.022"/>
	<path fill="#FFFFFF" d="M143.358,71.499c-2.529-0.763-4.702-0.037-5.284,1.746c-0.577,1.765,0.771,3.574,3.297,4.336
		c2.511,0.759,4.692,0.016,5.267-1.749C147.22,74.05,145.868,72.259,143.358,71.499 M144.334,75.137
		c-0.355,1.089-1.427,1.59-2.603,1.234c-1.175-0.355-1.707-1.342-1.354-2.431c0.356-1.088,1.387-1.623,2.563-1.267
		C144.114,73.029,144.69,74.047,144.334,75.137"/>
	<path fill="#FFFFFF" d="M65.437,69.267l0.953-1.69c-1.191,0.473-4.035,1.446-5.754,2.066l1.755,0.71l-0.716,4.004l-0.828,1.802
		c1.148-0.426,3.176-1.184,4.066-1.472l-1.812-0.82l0.067-0.367l3.013-1.047l0.297,0.241l-0.678,1.622
		c0.828-0.297,3.232-1.255,4.573-1.728l-1.846-0.829L65.437,69.267z M63.377,72.354l0.317-1.925l1.539,1.259L63.377,72.354z"/>
	<path fill="#FFFFFF" d="M93.688,62.472l1.304-1.312c-1.602,0.087-3.856,0.254-6.002,0.48l1.506,1.082l-1.703,3.592l-1.029,1.234
		l-1.44-0.76c-0.24-0.28-0.426-0.534-0.637-0.781c-0.33-0.357-0.781-0.416-1.139-0.337l-0.003-0.019
		c1.101-0.394,1.763-1.085,1.622-1.932c-0.185-1.11-1.745-1.484-3.948-1.006c-1.718,0.368-3.648,0.954-5.509,1.394l1.635,0.878
		l0.737,3.444l-1.122,1.524l5.035-1.267l-1.634-0.912l-0.239-1.111l1.39-0.317c0.375-0.081,0.531,0.042,0.751,0.344
		c0.425,0.63,0.875,1.305,1.417,1.662l3.555-0.552l-0.018-0.01c1.25-0.175,2.833-0.342,3.594-0.382l-1.531-1.191l0.159-0.334
		l3.149-0.221l0.226,0.307l-1.089,1.35c0.89-0.037,2.976-0.232,4.904-0.238l-1.62-1.334L93.688,62.472z M82.621,65.267l-1.712,0.394
		l-0.323-1.47l1.776-0.419c0.621-0.134,1.109,0.051,1.19,0.591C83.613,64.759,83.24,65.133,82.621,65.267 M90.925,64.839
		l0.801-1.707l1.146,1.553L90.925,64.839z"/>
	<path fill="#393A96" d="M99.735,139.669l0.221,0.01c1.627,0.062,3.233,0.344,4.768,0.832l0.197,0.06l0.084-0.186
		c0.463-1.044,1.046-1.797,1.455-2.244c0.001,0,0.027-0.018,0.065-0.049c-2.084-0.921-4.377-1.46-6.788-1.526
		c0,0.004,0.001,0.014,0.001,0.014C99.738,136.583,99.735,139.669,99.735,139.669"/>
	<path fill="#393A96" d="M93.488,140.38l0.083,0.189l0.197-0.062c1.537-0.49,3.141-0.767,4.769-0.828l0.22-0.01
		c0,0,0-1.896,0.001-3.102c-2.404,0.062-4.691,0.592-6.774,1.509c0.027,0.031,0.048,0.053,0.048,0.053
		C92.442,138.58,93.027,139.335,93.488,140.38"/>
	<path fill="#393A96" d="M108.045,152.862c-0.007-0.01-2.224-3.626-2.224-3.626c-1.035-1.832-1.553-3.631-1.553-5.373
		c0-0.73,0.091-1.449,0.274-2.157l0.053-0.209l-0.207-0.066c-1.42-0.449-2.905-0.708-4.414-0.772l-0.24-0.01l-0.026,31.993v0.006
		c5.047-0.131,9.579-2.33,12.776-5.786v-0.017C112.484,159.76,110.522,156.71,108.045,152.862"/>
	<path fill="#393A96" d="M116.321,157.733c0-4.561-1.772-8.85-4.995-12.077c-1.609-1.611-3.478-2.864-5.555-3.725l-0.248-0.102
		l-0.062,0.259c-0.145,0.581-0.213,1.174-0.213,1.778c0,1.565,0.476,3.203,1.427,4.889l2.178,3.546
		c2.331,3.626,4.328,6.733,4.584,13.156c0,0.001,0.006,0.112,0.016,0.261c0.941-1.203,1.734-2.527,2.35-3.946
		c0.333-1.332,0.518-2.681,0.518-4.028V157.733z"/>
	<path fill="#393A96" d="M92.416,141l0.223-0.092l-0.103-0.219c-0.473-1.01-1.074-1.721-1.512-2.159
		c-5.838,2.987-9.837,9.054-9.843,16.061c0,0.436,0.02,0.869,0.051,1.298c0.099-0.634,0.177-1.131,0.177-1.133
		C82.431,148.628,86.649,143.356,92.416,141"/>
	<path fill="#393A96" d="M89.6,152.315c0.006-0.012,2.201-3.573,2.201-3.573c0.955-1.687,1.436-3.33,1.436-4.9
		c0-0.597-0.07-1.188-0.21-1.766l-0.065-0.259l-0.244,0.101c-2.081,0.859-3.954,2.109-5.563,3.718
		c-3.23,3.224-5.011,7.515-5.016,12.08v0.014c0,1.334,0.176,2.668,0.501,3.987c0.619,1.443,1.421,2.785,2.375,4.006
		c-0.002-0.172-0.004-0.302-0.004-0.302C85.277,159.01,87.279,155.908,89.6,152.315"/>
	<path fill="#393A96" d="M107.469,138.545c-0.428,0.419-1.032,1.13-1.512,2.145l-0.103,0.218l0.223,0.092
		c2.225,0.911,4.226,2.246,5.941,3.963c2.685,2.69,4.427,6.078,5.037,9.802c0,0,0.077,0.495,0.177,1.132
		c0.031-0.421,0.051-0.845,0.051-1.274C117.289,147.615,113.3,141.542,107.469,138.545"/>
	<path fill="#393A96" d="M98.517,140.657c-1.507,0.063-2.994,0.32-4.418,0.768l-0.208,0.063l0.054,0.212
		c0.18,0.701,0.271,1.417,0.271,2.141c0,1.745-0.522,3.548-1.564,5.385l-2.222,3.606c-2.492,3.862-4.459,6.913-4.471,14.005
		c3.192,3.462,7.72,5.668,12.768,5.808c0.003-4.768,0.027-31.998,0.027-31.998L98.517,140.657z"/>
	<path fill="#C4CED4" d="M112.018,144.963c-1.715-1.717-3.716-3.052-5.941-3.963l-0.223-0.092l0.103-0.218
		c0.479-1.015,1.084-1.726,1.512-2.145c-0.311-0.159-0.624-0.31-0.944-0.452c-0.038,0.031-0.063,0.049-0.065,0.049
		c-0.409,0.447-0.993,1.199-1.455,2.244l-0.084,0.186l-0.197-0.06c-1.535-0.488-3.14-0.771-4.768-0.832l-0.221-0.01
		c0,0,0.002-3.086,0.002-3.088c0,0-0.001-0.01-0.001-0.014c-0.164-0.004-0.325-0.013-0.488-0.013c-0.164,0-0.327,0.009-0.491,0.013
		c-0.001,1.206-0.001,3.102-0.001,3.102l-0.22,0.01c-1.628,0.061-3.231,0.338-4.769,0.828l-0.197,0.062l-0.083-0.189
		c-0.46-1.045-1.046-1.801-1.456-2.252c0,0-0.021-0.023-0.048-0.053c-0.325,0.142-0.643,0.294-0.958,0.455
		c0.438,0.438,1.039,1.148,1.512,2.159l0.103,0.219L92.416,141c-5.768,2.356-9.986,7.628-11.007,13.757
		c0,0.002-0.077,0.498-0.177,1.133c0.145,2.056,0.63,4.019,1.407,5.828c-0.325-1.319-0.501-2.653-0.501-3.987v-0.014
		c0.005-4.565,1.786-8.856,5.016-12.08c1.609-1.609,3.482-2.858,5.563-3.718l0.244-0.101l0.065,0.259
		c0.139,0.578,0.21,1.169,0.21,1.766c0,1.57-0.481,3.213-1.436,4.9c0,0-2.195,3.561-2.201,3.573
		c-2.32,3.592-4.323,6.695-4.589,13.106c0,0,0.001,0.13,0.004,0.302c0.301,0.383,0.616,0.756,0.945,1.114
		c0.012-7.092,1.978-10.144,4.471-14.005l2.222-3.606c1.042-1.837,1.564-3.64,1.564-5.385c0-0.724-0.091-1.44-0.271-2.141
		l-0.054-0.212l0.208-0.063c1.424-0.448,2.91-0.705,4.418-0.768l0.239-0.01c0,0-0.024,27.23-0.027,31.998
		c0.162,0.004,0.325,0.013,0.49,0.013c0.164,0,0.326-0.007,0.49-0.011v-0.006l0.026-31.993l0.24,0.01
		c1.508,0.064,2.993,0.323,4.414,0.772l0.207,0.066l-0.053,0.209c-0.183,0.708-0.274,1.427-0.274,2.157
		c0,1.742,0.518,3.541,1.553,5.373c0,0,2.217,3.616,2.224,3.626c2.477,3.848,4.439,6.898,4.439,13.982v0.017
		c0.339-0.367,0.661-0.749,0.969-1.142c-0.01-0.149-0.016-0.261-0.016-0.261c-0.256-6.423-2.254-9.53-4.584-13.156l-2.178-3.546
		c-0.951-1.686-1.427-3.324-1.427-4.889c0-0.604,0.068-1.198,0.213-1.778l0.062-0.259l0.248,0.102
		c2.078,0.861,3.946,2.114,5.555,3.725c3.223,3.228,4.995,7.516,4.995,12.077v0.012c0,1.348-0.185,2.696-0.518,4.028
		c0.789-1.822,1.284-3.801,1.43-5.876c-0.1-0.637-0.177-1.132-0.177-1.132C116.445,151.041,114.703,147.653,112.018,144.963"/>
	<polygon fill="#C4CED4" points="41.766,184.075 41.745,183.758 39.02,186.86 39.051,187.167 39.07,187.486 39.213,189.838 
		39.44,193.64 39.447,193.975 42.157,190.911 42.13,190.598 	"/>
	<polygon fill="#C4CED4" points="58.651,171.567 58.436,167.981 58.275,165.29 58.249,164.978 55.481,168.126 55.516,168.428 
		55.882,175.038 55.903,175.358 58.682,172.212 58.671,171.885 	"/>
	<polygon fill="#C4CED4" points="50.014,174.689 49.99,174.376 47.24,177.506 47.267,177.815 47.488,181.766 47.614,184.054 
		47.632,184.374 47.654,184.691 50.404,181.579 50.381,181.264 	"/>
	<path fill="#C4CED4" d="M156.568,185.569l-0.274,4.807l-0.019,0.32l-0.013,0.324l2.687,3.05l0.011-0.327l0.019-0.318l0.36-5.838
		l0.021-0.32l0.023-0.317c-0.836-0.954-1.753-2.001-2.723-3.108l-0.011,0.33L156.568,185.569z"/>
	<path fill="#C4CED4" d="M140.154,165.677l-0.306,4.974l-0.081,1.302l-0.03,0.307l2.788,3.166l0.023-0.315l0.378-6.61l0.023-0.317
		c-1.157-1.32-2.107-2.406-2.755-3.143l-0.02,0.317L140.154,165.677z"/>
	<path fill="#C4CED4" d="M148.399,175.093l-0.169,2.968l-0.189,3.286l-0.021,0.317l2.749,3.119l0.014-0.322l0.018-0.32l0.116-1.999
		l0.242-4.238l0.025-0.313c-0.93-1.063-1.857-2.121-2.761-3.153l-0.007,0.334L148.399,175.093z"/>
	<path fill="#C4CED4" d="M47.556,67.001c0.215-0.065,1.637-0.498,2.1-0.64c-0.36-0.435-2.463-2.961-2.463-2.961l0.31-0.105
		c0.489-0.165,0.893-0.463,1.285-0.75c0,0,0.336-0.224,0.568-0.379c-0.293-0.34-2.453-2.838-2.453-2.838s-0.333-0.387-0.333-0.388
		l0,0l-5.547-5.213c-3.547-3.36-8.237-7.788-12.357-11.53c4.786,6.885,11.162,15.486,14.436,19.75
		C43.101,61.946,47.372,66.793,47.556,67.001"/>
	<path d="M42.888,67.091l0.275-0.115l-3.489-4.377L39.517,62.4l-0.179,0.18c-1.234,1.236-3.099,3.104-1.577,4.628
		C38.62,68.069,41.612,67.617,42.888,67.091"/>
	<path fill="#393A96" d="M42.888,67.091l0.275-0.115l-3.489-4.377L39.517,62.4l-0.179,0.18c-1.234,1.236-3.099,3.104-1.577,4.628
		C38.62,68.069,41.612,67.617,42.888,67.091"/>
	<path d="M52.345,60.665c1.339-0.772,2.27-1.911,2.492-3.047c0.1-0.518,0.029-0.964-0.201-1.259
		c-0.838-1.072-2.903-0.922-5.817,0.423l-0.284,0.132l3.65,3.833L52.345,60.665z"/>
	<path fill="#393A96" d="M52.345,60.665c1.339-0.772,2.27-1.911,2.492-3.047c0.1-0.518,0.029-0.964-0.201-1.259
		c-0.838-1.072-2.903-0.922-5.817,0.423l-0.284,0.132l3.65,3.833L52.345,60.665z"/>
	<path d="M51.799,64.199l-0.248,0.127l1.27,1.554l0.145-0.044c0.047-0.016,4.71-1.459,7.905-2.888l0.236-0.105l-3.795-6.048
		l-0.389,0.225c0.31,0.577,0.348,1.254,0.114,2.006C56.478,60.82,54.421,62.85,51.799,64.199"/>
	<path fill="#393A96" d="M51.799,64.199l-0.248,0.127l1.27,1.554l0.145-0.044c0.047-0.016,4.71-1.459,7.905-2.888l0.236-0.105
		l-3.795-6.048l-0.389,0.225c0.31,0.577,0.348,1.254,0.114,2.006C56.478,60.82,54.421,62.85,51.799,64.199"/>
	<path fill="#C4CED4" d="M99.317,54.541c14.045,0.012,24.389,3.211,33.471,6.687c0.16-0.372,6.47-14.997,6.933-16.075
		c-1.049,0.553-15.756,8.294-15.756,8.294s2.526-27.014,2.658-28.424c-0.892,1.107-19.136,23.724-19.136,23.724
		s-7.731-27.555-8.141-29.017c-0.413,1.461-8.19,29.003-8.19,29.003S72.952,26.086,72.06,24.977
		c0.129,1.412,2.611,28.429,2.611,28.429s-14.694-7.765-15.744-8.321c0.465,1.08,6.75,15.715,6.91,16.086
		C74.924,57.712,85.274,54.53,99.317,54.541"/>
	<path d="M159.104,62.502l-0.34,0.43l-3.314,4.138l0.276,0.117c1.275,0.528,4.264,0.987,5.127,0.127
		c1.523-1.524-0.337-3.396-1.57-4.632L159.104,62.502z"/>
	<path fill="#393A96" d="M159.104,62.502l-0.34,0.43l-3.314,4.138l0.276,0.117c1.275,0.528,4.264,0.987,5.127,0.127
		c1.523-1.524-0.337-3.396-1.57-4.632L159.104,62.502z"/>
	<path d="M146.279,60.745l0.154,0.089l3.673-3.846l-0.295-0.12c-2.911-1.35-4.977-1.503-5.815-0.433
		c-0.23,0.293-0.303,0.738-0.202,1.258C144.01,58.828,144.942,59.969,146.279,60.745"/>
	<path fill="#393A96" d="M146.279,60.745l0.154,0.089l3.673-3.846l-0.295-0.12c-2.911-1.35-4.977-1.503-5.815-0.433
		c-0.23,0.293-0.303,0.738-0.202,1.258C144.01,58.828,144.942,59.969,146.279,60.745"/>
	<path d="M137.75,63.011c3.193,1.435,7.855,2.888,7.9,2.902l0.146,0.046l1.271-1.552l-0.247-0.128
		c-2.621-1.353-4.673-3.386-5.23-5.18c-0.233-0.754-0.194-1.427,0.117-2.007l-0.389-0.226l-3.804,6.04L137.75,63.011z"/>
	<path fill="#393A96" d="M137.75,63.011c3.193,1.435,7.855,2.888,7.9,2.902l0.146,0.046l1.271-1.552l-0.247-0.128
		c-2.621-1.353-4.673-3.386-5.23-5.18c-0.233-0.754-0.194-1.427,0.117-2.007l-0.389-0.226l-3.804,6.04L137.75,63.011z"/>
	<path d="M150.047,81.238l0.546,0.001c0,0,18.348-0.02,18.714-0.02c0.005,0.367,0.024,2.192,0.024,2.192
		c0.031,2.665,0.046,5.229,0.046,7.71c0,5.041-0.063,9.731-0.193,14.191c0,0-0.089,3.102-0.121,4.224
		c-0.57-0.418-14.439-10.615-14.655-10.772c0-0.191,0.006-1.132,0.006-1.132l-0.002-4.498l-0.226,0.002l-5.631,0.005
		c0,0-0.005,0.411-0.005,0.505c0,2.818,0.594,4.846,3.609,8.331c0.003,0.002,4.729,5.362,4.729,5.362
		c0.002,0.001,4.017,4.587,4.017,4.587l0.878,0.961c2.056,2.181,5.483,5.819,5.483,14.042c0,2.384-0.288,5.151-0.981,8.381
		c-2.102,9.807-3.413,14.018-4.736,17.321c-0.021,0.055-0.052,0.122-0.052,0.122s-1.169,2.481-1.507,3.196
		c-0.37-0.331-2.215-1.979-2.215-1.979c-1.89-1.691-3.862-3.337-5.86-4.89l-0.144-0.113l-3.544,3.011l0.206,0.171
		c4.474,3.72,8.714,7.974,12.599,12.643l0.219,0.262l0.155-0.303c4.651-8.982,8.035-19.748,10.056-31.992
		c1.884-11.43,2.656-30.668,2.171-54.177l-0.024-1.353l-0.22-0.004l-19.272-0.014L150.047,81.238z"/>
	<path fill="#393A96" d="M150.047,81.238l0.546,0.001c0,0,18.348-0.02,18.714-0.02c0.005,0.367,0.024,2.192,0.024,2.192
		c0.031,2.665,0.046,5.229,0.046,7.71c0,5.041-0.063,9.731-0.193,14.191c0,0-0.089,3.102-0.121,4.224
		c-0.57-0.418-14.439-10.615-14.655-10.772c0-0.191,0.006-1.132,0.006-1.132l-0.002-4.498l-0.226,0.002l-5.631,0.005
		c0,0-0.005,0.411-0.005,0.505c0,2.818,0.594,4.846,3.609,8.331c0.003,0.002,4.729,5.362,4.729,5.362
		c0.002,0.001,4.017,4.587,4.017,4.587l0.878,0.961c2.056,2.181,5.483,5.819,5.483,14.042c0,2.384-0.288,5.151-0.981,8.381
		c-2.102,9.807-3.413,14.018-4.736,17.321c-0.021,0.055-0.052,0.122-0.052,0.122s-1.169,2.481-1.507,3.196
		c-0.37-0.331-2.215-1.979-2.215-1.979c-1.89-1.691-3.862-3.337-5.86-4.89l-0.144-0.113l-3.544,3.011l0.206,0.171
		c4.474,3.72,8.714,7.974,12.599,12.643l0.219,0.262l0.155-0.303c4.651-8.982,8.035-19.748,10.056-31.992
		c1.884-11.43,2.656-30.668,2.171-54.177l-0.024-1.353l-0.22-0.004l-19.272-0.014L150.047,81.238z"/>
	<path fill="#C4CED4" d="M152.073,59.01l-0.324,0.377c0,0-2.19,2.524-2.484,2.862c0.232,0.156,0.568,0.381,0.568,0.381
		c0.39,0.287,0.797,0.585,1.285,0.752l0.31,0.105c0,0-2.108,2.525-2.469,2.959c0.463,0.142,1.884,0.579,2.1,0.644
		c0.493-0.558,4.462-5.048,4.453-5.038c3.293-4.274,9.688-12.869,14.478-19.737c-4.132,3.74-8.825,8.158-12.377,11.507
		C157.613,53.823,152.075,59.01,152.073,59.01"/>
	<path fill="#C4CED4" d="M72.342,78.349c0.002,0.258,0.016,2.062,0.017,2.417c0.442,0,53.432,0.045,53.873,0.045
		c0.004-0.355,0.018-2.159,0.021-2.418c-6.523-2.47-15.456-5.283-26.951-5.292C87.806,73.091,78.869,75.887,72.342,78.349
		 M121.01,79.188l-43.427-0.035l3.37-2.429l36.694,0.031L121.01,79.188z"/>
	<polygon points="77.582,79.152 121.01,79.188 117.647,76.754 80.952,76.724 	"/>
	<polygon points="77.582,79.152 121.01,79.188 117.647,76.754 80.952,76.724 	"/>
	<path fill="#FFFFFF" d="M166.971,105.25c0.239-8.329,0.209-16.226,0.147-21.814l-19.492,0.023
		c-1.022,0.479-2.036,0.565-2.817,0.565c-0.981,0-2.21-0.206-3.625-0.557l-4.798,0.005l-0.151,3.372
		c-0.08,5.401-0.406,14.185,4.915,20.079c4.083,4.526,6.001,6.523,7.271,7.846c0.876,0.914,1.458,1.518,2.207,2.393
		c0.161,0.188,0.338,0.378,0.527,0.581c1.738,1.862,4.062,4.357,2.7,13.206c-0.126,0.809-0.683,2.842-0.873,3.762
		c-1.693-1.246-7.133-4.32-9-5.313c0.295-1.98,0.573-3.936,0.802-5.889l-9.358-7.378c-0.549,6.426-1.363,12.909-2.573,18.922
		c8.286,3.613,17.262,9.097,26.402,17.269l0.241-0.511c1.252-3.125,2.512-7.099,4.626-16.961c2.839-13.237-1.41-17.747-3.95-20.44
		c-0.347-0.367-0.676-0.716-0.962-1.057c-1.224-1.454-2.498-2.884-3.975-4.536l-4.734-5.368c-4.157-4.805-4.273-7.414-4.121-11.606
		l0.029-0.913l10.198-0.01c0.029,1.968,0.046,4.262,0.028,6.729L166.971,105.25z"/>
	<path fill="#FFFFFF" d="M56.181,139.82c3.166-1.844,6.244-3.433,9.257-4.749c-1.203-6.023-2.06-12.514-2.607-18.912l-9.094-5.158
		l8.386-6.047c-0.341-8.053-0.336-15.479-0.236-21.606l-4.186-0.021c-1.542,0.39-2.875,0.619-3.923,0.618
		c-0.39,0-0.841-0.026-1.318-0.105c-0.11,4.987-0.184,11.536,0.01,18.944l-9.754,7.093c-0.396-9.999-0.346-19.972-0.259-26.544
		l-10.982-0.011c-0.151,11.111-0.176,33.056,1.983,46.991c1.287,8.305,3.149,15.632,5.507,22.134
		c2.917-2.613,5.786-4.984,8.647-7.071c-1.263-4.704-2.351-9.759-3.172-15.052c-0.689-4.453-1.152-9.77-1.464-15.23l10.548,6.226
		C54.108,127.619,54.957,133.946,56.181,139.82"/>
	<path d="M150.592,148.072c-6.011-4.523-12.278-8.22-18.626-10.991c0,0-1.254-0.544-1.641-0.713
		c0.061-0.294,0.353-1.754,0.353-1.754c1.083-5.375,1.937-11.657,2.537-18.671c0,0,0.26-3.009,0.353-4.098
		c0.542,0.426,13.328,10.509,13.557,10.691c-0.023,0.206-0.143,1.231-0.143,1.231l-0.586,4.42l0.134,0.081l5.026,2.891l0.06-0.305
		l0.047-0.242c1.197-7.787-0.572-9.685-2.131-11.358l-0.593-0.651l-2.12-2.298l-7.319-7.898c-5.728-6.345-5.581-15.548-5.495-21.047
		l0.008-0.55c0.003-0.067,0.154-3.441,0.154-3.441l0.105-2.362l-3.591-1.356c0,0-0.006,4.458-0.007,4.868
		c-0.444,0-62.326-0.054-62.773-0.054c0-0.408,0.002-4.847,0.002-4.847l-3.771,1.413l-0.006,0.154l-0.028,2.2
		c-0.039,2.405-0.058,4.741-0.058,7.025c0,5.038,0.097,9.811,0.293,14.448c0,0,0.042,0.994,0.051,1.192
		c-0.162,0.118-6.553,4.724-6.553,4.724s6.867,3.891,7.106,4.028c0.017,0.196,0.099,1.165,0.099,1.165
		c0.569,6.695,1.435,12.975,2.572,18.669c0,0,0.265,1.337,0.347,1.751c-0.274,0.119-1.634,0.713-1.634,0.713
		c-2.889,1.261-5.843,2.776-9.029,4.631c0,0-1.949,1.134-2.657,1.546c-0.105-0.503-0.625-3.007-0.625-3.007
		c-1.071-5.133-1.937-11.021-2.574-17.501l-0.01-0.113l-5.968-3.524l0.031,0.429c0.307,4.027,0.69,7.532,1.137,10.421
		c0.779,5.024,1.829,10.007,3.122,14.818c0,0,0.329,1.22,0.394,1.468c-0.205,0.151-1.228,0.897-1.228,0.897l-1.132,0.841l0.185,0.4
		c5.602-1.317,12.058-3.927,15.886-5.761c16.089-8.837,30.111-9.778,35.392-9.774c5.283,0.005,19.303,0.971,35.365,9.828
		c3.806,1.832,10.212,4.438,15.788,5.77L150.592,148.072z M79.454,132.686c-2.1,0.519-4.15,1.11-6.092,1.754
		c0,0-2.031,0.677-2.44,0.811c-0.075-0.422-0.441-2.534-0.441-2.534c-2.267-13.059-2.833-27.531-2.833-38.692
		c0-1.726,0.014-3.374,0.037-4.925c0,0,0.024-1.603,0.032-2.185c0.367,0,10.544,0.008,11.143,0.011
		c-0.005,0.375-0.038,2.25-0.038,2.25c-0.033,1.978-0.048,3.927-0.048,5.846c0,13.211,0.783,25.023,2.338,35.177
		c0,0,0.255,1.666,0.306,2.001C81.09,132.281,79.454,132.686,79.454,132.686 M105.356,128.355c0,0-0.149,1.766-0.178,2.12
		c-0.355-0.015-2.125-0.091-2.125-0.091l-3.826-0.078l-0.44-0.016c-0.022,0-0.253-0.01-0.253-0.01c-0.001,0-1.664,0.003-2.239,0.005
		c0.003-0.371,0.074-22.181,0.074-22.181l-4.123-2.715l0.003,0.422c0.087,8.951,0.341,16.324,0.773,22.534
		c0,0,0.115,1.652,0.15,2.163c-0.362,0.034-2.16,0.197-2.16,0.197l-4.759,0.602c0,0-1.889,0.287-2.269,0.344
		c-0.044-0.383-0.265-2.279-0.265-2.279c-1.119-9.627-1.681-20.639-1.681-32.818c0-2.438,0.022-4.922,0.067-7.452
		c0,0,0.029-1.662,0.04-2.177c0.364,0,7.993,0.005,7.993,0.005s1.907,0.009,2.261,0.009c-0.008,0.377-0.09,4.263-0.09,4.263
		l4.042,2.828c0,0-0.016-6.721-0.018-7.094c0.373,0.001,9.603,0.009,10.184,0.009c0.004,0.366,0.029,2.183,0.029,2.183
		c0.027,2.032,0.046,4.276,0.046,6.687C106.591,105.049,106.33,116.736,105.356,128.355 M127.62,135.265
		c-0.406-0.137-2.422-0.813-2.422-0.813c-4.847-1.628-9.831-2.758-15.241-3.452c0,0-1.79-0.229-2.149-0.275
		c0.038-0.362,0.228-2.158,0.228-2.158c1.244-11.664,1.933-24.926,2.047-39.415c0,0,0.015-1.832,0.017-2.201
		c0.369,0.001,20.849,0.026,21.22,0.026c0,0.37,0.003,2.498,0.003,2.644c0,3.388-0.068,7.01-0.215,11.353
		c0,0-0.104,3.026-0.123,3.634c-0.532-0.299-7.51-4.202-7.51-4.202c-0.63-0.355-0.956-0.536-1.154-0.633
		c0.003-0.203,0.032-1.89,0.032-1.89l0.012-1.1l-2.438-0.004l-0.006,0.221c-0.245,9.902-0.712,18.168-1.425,25.274l-0.021,0.205
		l1.991,0.374l0.029-0.239l0.824-7.622l-0.218-0.026c-0.432-0.06-0.68-0.089-0.87-0.108c0.025-0.34,0.234-3.229,0.234-3.229
		s0.275-4.063,0.316-4.67c0.369,0.034,2.004,0.184,2.004,0.184c0.006,0,5.973,0.558,5.973,0.558s1.61,0.175,2.108,0.23
		c-0.022,0.356-0.136,2.115-0.136,2.115c-0.55,8.5-1.44,16.139-2.649,22.706C128.082,132.751,127.696,134.845,127.62,135.265"/>
	<path fill="#393A96" d="M150.592,148.072c-6.011-4.523-12.278-8.22-18.626-10.991c0,0-1.254-0.544-1.641-0.713
		c0.061-0.294,0.353-1.754,0.353-1.754c1.083-5.375,1.937-11.657,2.537-18.671c0,0,0.26-3.009,0.353-4.098
		c0.542,0.426,13.328,10.509,13.557,10.691c-0.023,0.206-0.143,1.231-0.143,1.231l-0.586,4.42l0.134,0.081l5.026,2.891l0.06-0.305
		l0.047-0.242c1.197-7.787-0.572-9.685-2.131-11.358l-0.593-0.651l-2.12-2.298l-7.319-7.898c-5.728-6.345-5.581-15.548-5.495-21.047
		l0.008-0.55c0.003-0.067,0.154-3.441,0.154-3.441l0.105-2.362l-3.591-1.356c0,0-0.006,4.458-0.007,4.868
		c-0.444,0-62.326-0.054-62.773-0.054c0-0.408,0.002-4.847,0.002-4.847l-3.771,1.413l-0.006,0.154l-0.028,2.2
		c-0.039,2.405-0.058,4.741-0.058,7.025c0,5.038,0.097,9.811,0.293,14.448c0,0,0.042,0.994,0.051,1.192
		c-0.162,0.118-6.553,4.724-6.553,4.724s6.867,3.891,7.106,4.028c0.017,0.196,0.099,1.165,0.099,1.165
		c0.569,6.695,1.435,12.975,2.572,18.669c0,0,0.265,1.337,0.347,1.751c-0.274,0.119-1.634,0.713-1.634,0.713
		c-2.889,1.261-5.843,2.776-9.029,4.631c0,0-1.949,1.134-2.657,1.546c-0.105-0.503-0.625-3.007-0.625-3.007
		c-1.071-5.133-1.937-11.021-2.574-17.501l-0.01-0.113l-5.968-3.524l0.031,0.429c0.307,4.027,0.69,7.532,1.137,10.421
		c0.779,5.024,1.829,10.007,3.122,14.818c0,0,0.329,1.22,0.394,1.468c-0.205,0.151-1.228,0.897-1.228,0.897l-1.132,0.841l0.185,0.4
		c5.602-1.317,12.058-3.927,15.886-5.761c16.089-8.837,30.111-9.778,35.392-9.774c5.283,0.005,19.303,0.971,35.365,9.828
		c3.806,1.832,10.212,4.438,15.788,5.77L150.592,148.072z M79.454,132.686c-2.1,0.519-4.15,1.11-6.092,1.754
		c0,0-2.031,0.677-2.44,0.811c-0.075-0.422-0.441-2.534-0.441-2.534c-2.267-13.059-2.833-27.531-2.833-38.692
		c0-1.726,0.014-3.374,0.037-4.925c0,0,0.024-1.603,0.032-2.185c0.367,0,10.544,0.008,11.143,0.011
		c-0.005,0.375-0.038,2.25-0.038,2.25c-0.033,1.978-0.048,3.927-0.048,5.846c0,13.211,0.783,25.023,2.338,35.177
		c0,0,0.255,1.666,0.306,2.001C81.09,132.281,79.454,132.686,79.454,132.686 M105.356,128.355c0,0-0.149,1.766-0.178,2.12
		c-0.355-0.015-2.125-0.091-2.125-0.091l-3.826-0.078l-0.44-0.016c-0.022,0-0.253-0.01-0.253-0.01c-0.001,0-1.664,0.003-2.239,0.005
		c0.003-0.371,0.074-22.181,0.074-22.181l-4.123-2.715l0.003,0.422c0.087,8.951,0.341,16.324,0.773,22.534
		c0,0,0.115,1.652,0.15,2.163c-0.362,0.034-2.16,0.197-2.16,0.197l-4.759,0.602c0,0-1.889,0.287-2.269,0.344
		c-0.044-0.383-0.265-2.279-0.265-2.279c-1.119-9.627-1.681-20.639-1.681-32.818c0-2.438,0.022-4.922,0.067-7.452
		c0,0,0.029-1.662,0.04-2.177c0.364,0,7.993,0.005,7.993,0.005s1.907,0.009,2.261,0.009c-0.008,0.377-0.09,4.263-0.09,4.263
		l4.042,2.828c0,0-0.016-6.721-0.018-7.094c0.373,0.001,9.603,0.009,10.184,0.009c0.004,0.366,0.029,2.183,0.029,2.183
		c0.027,2.032,0.046,4.276,0.046,6.687C106.591,105.049,106.33,116.736,105.356,128.355 M127.62,135.265
		c-0.406-0.137-2.422-0.813-2.422-0.813c-4.847-1.628-9.831-2.758-15.241-3.452c0,0-1.79-0.229-2.149-0.275
		c0.038-0.362,0.228-2.158,0.228-2.158c1.244-11.664,1.933-24.926,2.047-39.415c0,0,0.015-1.832,0.017-2.201
		c0.369,0.001,20.849,0.026,21.22,0.026c0,0.37,0.003,2.498,0.003,2.644c0,3.388-0.068,7.01-0.215,11.353
		c0,0-0.104,3.026-0.123,3.634c-0.532-0.299-7.51-4.202-7.51-4.202c-0.63-0.355-0.956-0.536-1.154-0.633
		c0.003-0.203,0.032-1.89,0.032-1.89l0.012-1.1l-2.438-0.004l-0.006,0.221c-0.245,9.902-0.712,18.168-1.425,25.274l-0.021,0.205
		l1.991,0.374l0.029-0.239l0.824-7.622l-0.218-0.026c-0.432-0.06-0.68-0.089-0.87-0.108c0.025-0.34,0.234-3.229,0.234-3.229
		s0.275-4.063,0.316-4.67c0.369,0.034,2.004,0.184,2.004,0.184c0.006,0,5.973,0.558,5.973,0.558s1.61,0.175,2.108,0.23
		c-0.022,0.356-0.136,2.115-0.136,2.115c-0.55,8.5-1.44,16.139-2.649,22.706C128.082,132.751,127.696,134.845,127.62,135.265"/>
	<path d="M106.516,86.947c-0.581,0-9.811-0.008-10.184-0.009c0.001,0.373,0.018,7.094,0.018,7.094l-4.042-2.828
		c0,0,0.083-3.886,0.09-4.263c-0.354,0-2.261-0.009-2.261-0.009s-7.628-0.005-7.993-0.005c-0.011,0.515-0.04,2.177-0.04,2.177
		c-0.045,2.53-0.067,5.014-0.067,7.452c0,12.179,0.562,23.191,1.681,32.818c0,0,0.221,1.897,0.265,2.279
		c0.38-0.057,2.269-0.344,2.269-0.344l4.759-0.602c0,0,1.798-0.163,2.16-0.197c-0.035-0.511-0.15-2.163-0.15-2.163
		c-0.432-6.21-0.686-13.583-0.773-22.534l-0.003-0.422l4.123,2.715c0,0-0.071,21.809-0.074,22.181
		c0.575-0.002,2.238-0.005,2.239-0.005c0,0,0.231,0.01,0.253,0.01l0.44,0.016l3.826,0.078c0,0,1.77,0.076,2.125,0.091
		c0.029-0.354,0.178-2.12,0.178-2.12c0.973-11.62,1.235-23.306,1.235-32.538c0-2.411-0.019-4.656-0.046-6.687
		C106.545,89.13,106.52,87.313,106.516,86.947 M103.15,128.169c-1.398-0.058-2.707-0.078-3.919-0.078
		c-0.227-0.001-0.48-0.029-0.712-0.028c0.051-6.932,0.07-14.538,0.07-21.149l-8.588-5.654c0.039,8.33,0.175,18.124,0.811,27.239
		c-1.544,0.142-3.196,0.359-4.891,0.618c-1.747-15.037-1.765-30.725-1.601-39.975l5.817,0.005c-0.026,1.046-0.049,2.11-0.068,3.191
		l8.508,5.955c-0.006-3.116-0.014-6.166-0.022-9.138l5.776,0.004C104.457,98.376,104.405,113.164,103.15,128.169"/>
	<path d="M78.774,95.022c0-1.92,0.016-3.868,0.048-5.846c0,0,0.033-1.875,0.038-2.25c-0.599-0.002-10.777-0.011-11.143-0.011
		c-0.007,0.581-0.032,2.185-0.032,2.185c-0.023,1.551-0.037,3.199-0.037,4.925c0,11.162,0.565,25.634,2.833,38.692
		c0,0,0.366,2.112,0.441,2.534c0.409-0.134,2.44-0.811,2.44-0.811c1.942-0.644,3.993-1.235,6.092-1.754c0,0,1.635-0.405,1.964-0.486
		c-0.051-0.336-0.306-2.001-0.306-2.001C79.557,120.045,78.774,108.233,78.774,95.022 M72.664,132.338
		c-2.673-15.391-2.922-32.425-2.763-43.207l6.707,0.005c-0.171,10.15-0.026,26.113,2.313,41.399
		C76.913,131.031,74.802,131.626,72.664,132.338"/>
	<path d="M130.867,107.93c-0.498-0.055-2.108-0.23-2.108-0.23s-5.967-0.558-5.973-0.558c0,0-1.635-0.149-2.004-0.184
		c-0.041,0.607-0.316,4.67-0.316,4.67s-0.209,2.889-0.234,3.229c0.19,0.019,0.438,0.048,0.87,0.108l0.218,0.026l-0.824,7.622
		l-0.029,0.239l-1.991-0.374l0.021-0.205c0.713-7.106,1.18-15.372,1.425-25.274l0.006-0.221l2.438,0.004l-0.012,1.1
		c0,0-0.028,1.686-0.032,1.89c0.197,0.097,0.524,0.279,1.154,0.633c0,0,6.978,3.903,7.51,4.202c0.019-0.607,0.123-3.634,0.123-3.634
		c0.147-4.343,0.215-7.965,0.215-11.353c0-0.146-0.003-2.274-0.003-2.644c-0.371,0-20.851-0.024-21.22-0.026
		c-0.003,0.369-0.017,2.201-0.017,2.201c-0.114,14.489-0.802,27.751-2.047,39.415c0,0-0.19,1.797-0.228,2.158
		c0.359,0.046,2.149,0.275,2.149,0.275c5.41,0.695,10.395,1.824,15.241,3.452c0,0,2.016,0.676,2.422,0.813
		c0.076-0.419,0.462-2.514,0.462-2.514c1.21-6.567,2.1-14.207,2.649-22.706C130.731,110.045,130.845,108.286,130.867,107.93
		 M125.902,132.352c-5.707-1.917-10.985-2.95-15.662-3.55c1.62-15.216,1.984-30.26,2.058-39.634l16.811,0.019
		c0.008,3.489-0.062,7.187-0.216,11.709l-4.333-2.426c0.019-1.253,0.045-2.742,0.052-3.903l-6.85-0.006
		c-0.145,6.877-0.468,18.698-1.709,29.77c2.01,0.288,4.121,0.692,6.305,1.192c0.61-4.557,1.042-8.73,1.362-12.469l-1.335-0.149
		c0.084-1.176,0.182-2.4,0.248-3.552c1.916,0.138,3.866,0.331,5.889,0.551C128.05,117.175,127.261,124.973,125.902,132.352"/>
	<path fill="#FFFFFF" d="M76.608,89.136l-6.707-0.005c-0.159,10.782,0.09,27.816,2.763,43.207c2.138-0.712,4.249-1.307,6.257-1.803
		C76.582,115.25,76.437,99.286,76.608,89.136"/>
	<path fill="#FFFFFF" d="M98.554,89.157c0.008,2.972,0.016,6.022,0.022,9.138l-8.508-5.955c0.019-1.081,0.042-2.145,0.068-3.191
		l-5.817-0.005c-0.163,9.25-0.146,24.938,1.601,39.975c1.695-0.259,3.347-0.476,4.891-0.618c-0.636-9.116-0.772-18.909-0.811-27.239
		l8.588,5.654c0,6.611-0.019,14.217-0.07,21.149c0.232-0.002,0.485,0.026,0.712,0.028c1.213,0,2.521,0.019,3.919,0.078
		c1.254-15.006,1.306-29.793,1.18-39.008L98.554,89.157z"/>
	<path fill="#FFFFFF" d="M122.383,112.904l1.335,0.149c-0.32,3.739-0.752,7.912-1.362,12.469c-2.184-0.499-4.295-0.903-6.305-1.192
		c1.242-11.072,1.564-22.894,1.709-29.77l6.85,0.006c-0.006,1.161-0.033,2.649-0.052,3.903l4.333,2.426
		c0.154-4.521,0.224-8.219,0.216-11.709l-16.811-0.019c-0.073,9.373-0.438,24.418-2.058,39.634c4.677,0.6,9.955,1.633,15.662,3.55
		c1.359-7.379,2.148-15.177,2.617-22.449c-2.023-0.22-3.973-0.412-5.889-0.551C122.564,110.503,122.466,111.728,122.383,112.904"/>
	<polygon fill="#393A96" points="47.488,181.766 47.267,177.815 47.24,177.506 41.745,183.758 41.766,184.075 42.13,190.598 
		42.157,190.911 47.654,184.691 47.632,184.374 	"/>
	<path fill="#393A96" d="M39.213,189.838l-0.162-2.67l-0.031-0.307l-4.478,5.097c-0.442,0.501-0.663,1.144-0.623,1.813
		c0.041,0.669,0.338,1.282,0.839,1.724c1.034,0.917,2.621,0.82,3.536-0.213l1.154-1.306l-0.007-0.334L39.213,189.838z"/>
	<polygon fill="#393A96" points="55.516,168.428 55.481,168.126 49.99,174.376 50.014,174.689 50.381,181.264 50.404,181.579 
		55.903,175.358 55.882,175.038 	"/>
	<path fill="#393A96" d="M59.26,163.893l-0.073,0.015l-0.939,1.07l0.027,0.312l0.161,2.691l0.235,3.905l0.011,0.327l4.19-4.739
		l0.009-0.063c0.037-0.225,0.054-0.443,0.054-0.658c0-0.924-0.335-1.732-0.961-2.274C61.273,163.868,60.31,163.66,59.26,163.893"/>
	<path fill="#C4CED4" d="M88.417,136.658c-3.175,0.537-6.383,1.264-9.513,2.22c-4.567,3.096-8.559,5.055-9.312,5.416
		c-3.514,1.687-9.989,4.78-16.297,6.044c0.632,0.56,22.882,20.325,23.512,20.885c0.255-3.181,0.967-6.771,2.194-10.978
		c-0.511-1.841-0.775-3.734-0.775-5.628v-0.023C78.231,147.192,82.125,140.452,88.417,136.658"/>
	<path fill="#C4CED4" d="M119.274,138.942c-2.998-0.932-6.032-1.638-9.042-2.175c6.187,3.819,10.009,10.522,10.009,17.843v0.019
		c-0.002,2.144-0.332,4.259-0.974,6.294c1.094,3.88,1.754,7.346,1.991,10.338c0.632-0.559,22.913-20.285,23.546-20.845
		c-6.304-1.274-12.773-4.379-16.285-6.07C127.759,143.98,123.75,141.999,119.274,138.942"/>
	<path fill="#393A96" d="M139.191,163.96c-1.049-0.232-2.012-0.028-2.716,0.578c-0.771,0.67-1.103,1.738-0.911,2.932l0.008,0.065
		l4.164,4.726l0.03-0.307l0.081-1.302l0.326-5.292l0.02-0.317c-0.592-0.679-0.932-1.067-0.932-1.067L139.191,163.96z"/>
	<path fill="#393A96" d="M158.96,193.743l-0.011,0.327l1.155,1.312c0.914,1.035,2.5,1.135,3.533,0.219
		c0.503-0.44,0.802-1.052,0.844-1.72c0.004-0.054,0.005-0.108,0.005-0.161c0-0.611-0.219-1.192-0.626-1.653
		c0,0-1.826-2.085-4.478-5.117l-0.023,0.317L158.96,193.743z"/>
	<path fill="#393A96" d="M142.548,175.112l-0.023,0.315l5.495,6.237l0.021-0.317l0.189-3.286l0.188-3.289l0.007-0.334
		c-2.028-2.316-3.933-4.491-5.476-6.253l-0.023,0.317L142.548,175.112z"/>
	<path fill="#393A96" d="M150.918,182.142l-0.134,2.319l-0.014,0.322l5.492,6.237l0.013-0.324l0.294-5.127l0.08-1.396l0.011-0.33
		c-1.721-1.966-3.603-4.115-5.474-6.251l-0.025,0.313L150.918,182.142z"/>
</g>
</svg>
