<svg version="1.1" id="Layer_1" xmlns="http://www.w3.org/2000/svg" xmlns:xlink="http://www.w3.org/1999/xlink" x="0px" y="0px" viewBox="0 0 200 200" enable-background="new 0 0 200 200" xml:space="preserve" preserveAspectRatio="xMidYMid">
<g>
	<path fill-rule="evenodd" clip-rule="evenodd" fill="#C4CED4" d="M193.48,80.84c0.648-2.226,1.658-5.687,1.658-5.687l-7.493-3.036
		c-0.32-0.131-0.65-0.261-0.975-0.392l1.303-3.792l-7.11-2.295c0.558-1.886,0.887-3.003,0.898-3.043l0.831-2.839l-2.803-0.951
		c-26.493-8.988-51.104-12.995-79.799-12.995c-28.685,0-53.292,4.007-79.785,12.995l-2.801,0.951l0.831,2.839
		c0.012,0.04,0.339,1.157,0.9,3.043l-7.111,2.295l1.303,3.794c-0.325,0.13-0.652,0.257-0.976,0.39L4.86,75.154
		c0,0,1.01,3.46,1.66,5.687C4.408,81.601,0,83.188,0,83.188l16.085,49.024c0,0,4.28-1.541,6.651-2.393
		c0.97,2.544,2.148,5.637,2.148,5.637l8.501-3.505c0.273-0.112,0.541-0.216,0.811-0.326l0.882,2.772l3.112-1.38
		c2.549-1.092,10.352-4.271,20.988-7.073c-3.778,5.629-7.787,11.603-7.787,11.603s22.143-7.238,24.33-7.952
		c0.788,1.898,9.656,23.238,9.656,23.238s6.423-22.058,7.022-24.114c1.785,0.461,27.746,7.14,27.746,7.14
		s-7.365-8.509-12.781-14.766c25.039,0.207,47.669,9.019,54.445,11.925l3.125,1.341l0.869-2.733
		c0.272,0.111,0.539,0.214,0.812,0.326l8.502,3.506c0,0,1.178-3.093,2.147-5.638c2.373,0.853,6.651,2.393,6.651,2.393L200,83.188
		C200,83.188,195.59,81.601,193.48,80.84"/>
	<path fill-rule="evenodd" clip-rule="evenodd" d="M189.485,82.874c0.063-0.219,1.693-5.803,1.693-5.803l-4.761-1.928
		c-1.219-0.495-2.451-0.976-3.686-1.451l1.302-3.788l-6.988-2.254c1.091-3.654,1.756-5.922,1.756-5.922
		c-24.416-8.284-48.522-12.833-78.809-12.833c-30.282,0-54.378,4.549-78.794,12.833c0,0,0.665,2.271,1.755,5.922l-6.987,2.254
		l1.301,3.788c-1.237,0.475-2.468,0.956-3.689,1.451l-4.758,1.928c0,0,1.629,5.585,1.693,5.803
		c-0.386,0.138-6.423,2.313-6.423,2.313l14.05,42.816c0,0,6.235-2.243,6.506-2.339l2.094,5.496l5.4-2.228
		c1.316-0.544,2.624-1.066,3.931-1.574c0.479,1.508,0.798,2.503,0.903,2.822c3.072-1.316,14.019-5.799,28.534-8.942
		c-3.326,4.955-7.674,11.435-7.674,11.435s19.084-6.24,19.384-6.338c0.145,0.353,7.722,18.585,7.722,18.585s5.534-19,5.645-19.385
		c0.477,0.122,22.055,5.674,22.055,5.674s-7.086-8.187-11.328-13.088c29.36-1.425,56.523,9.835,61.711,12.059
		c0.108-0.319,0.425-1.313,0.905-2.822c1.306,0.509,2.616,1.03,3.931,1.574l5.4,2.228l2.095-5.496
		c0.27,0.096,6.504,2.339,6.504,2.339l14.051-42.816C195.909,85.187,189.871,83.012,189.485,82.874"/>
	<path fill="none" stroke="#000000" stroke-width="0.0412" stroke-miterlimit="3.864" d="M189.485,82.874
		c0.063-0.219,1.693-5.803,1.693-5.803l-4.761-1.928c-1.219-0.495-2.451-0.976-3.686-1.451l1.302-3.788l-6.988-2.254
		c1.091-3.654,1.756-5.922,1.756-5.922c-24.416-8.284-48.522-12.833-78.809-12.833c-30.282,0-54.378,4.549-78.794,12.833
		c0,0,0.665,2.271,1.755,5.922l-6.987,2.254l1.301,3.788c-1.237,0.475-2.468,0.956-3.689,1.451l-4.758,1.928
		c0,0,1.629,5.585,1.693,5.803c-0.386,0.138-6.423,2.313-6.423,2.313l14.05,42.816c0,0,6.235-2.243,6.506-2.339l2.094,5.496
		l5.4-2.228c1.316-0.544,2.624-1.066,3.931-1.574c0.479,1.508,0.798,2.503,0.903,2.822c3.072-1.316,14.019-5.799,28.534-8.942
		c-3.326,4.955-7.674,11.435-7.674,11.435s19.084-6.24,19.384-6.338c0.145,0.353,7.722,18.585,7.722,18.585s5.534-19,5.645-19.385
		c0.477,0.122,22.055,5.674,22.055,5.674s-7.086-8.187-11.328-13.088c29.36-1.425,56.523,9.835,61.711,12.059
		c0.108-0.319,0.425-1.313,0.905-2.822c1.306,0.509,2.616,1.03,3.931,1.574l5.4,2.228l2.095-5.496
		c0.27,0.096,6.504,2.339,6.504,2.339l14.051-42.816C195.909,85.187,189.871,83.012,189.485,82.874z"/>
	<path fill-rule="evenodd" clip-rule="evenodd" fill="#FFFFFF" d="M15.392,79.612L15.392,79.612c0,0-0.361,0.146-0.721,0.292
		c0.339,1.162,1.743,5.972,1.743,5.972s-5.051,1.817-6.279,2.261c0.499,1.516,10.516,32.045,11.041,33.648
		c1.28-0.46,6.291-2.262,6.291-2.262s1.559,4.089,2.015,5.288c0.409-0.17,0.818-0.338,0.818-0.338
		c23.883-9.852,46.031-14.44,69.699-14.44c23.667,0,45.814,4.588,69.7,14.44c0,0,0.409,0.169,0.816,0.338
		c0.457-1.199,2.016-5.288,2.016-5.288s5.012,1.804,6.292,2.262c0.527-1.603,10.543-32.132,11.041-33.648
		c-1.229-0.444-6.278-2.261-6.278-2.261s1.403-4.809,1.741-5.972c-0.361-0.146-0.721-0.292-0.721-0.292
		c-26.068-10.57-56.077-16.39-84.499-16.39C71.548,63.222,41.463,69.043,15.392,79.612"/>
	<path fill-rule="evenodd" clip-rule="evenodd" fill="#C4CED4" d="M177.182,118.428c-1.798-0.648-6.174-2.222-6.174-2.222
		s-1.396,3.66-1.986,5.212c-23.571-9.514-45.561-13.99-69.023-13.99c-23.464,0-45.453,4.476-69.023,13.99
		c-0.59-1.551-1.985-5.212-1.985-5.212s-4.377,1.575-6.176,2.222c-0.949-2.893-8.517-25.957-9.417-28.7
		c1.769-0.638,6.2-2.231,6.2-2.231s-1.268-4.344-1.764-6.043c25.427-10.077,54.57-15.627,82.271-15.627
		c27.567,0,56.632,5.55,82.055,15.627c-0.495,1.699-1.763,6.043-1.763,6.043s4.431,1.593,6.2,2.231
		C185.7,92.471,178.132,115.535,177.182,118.428"/>
	<path fill-rule="evenodd" clip-rule="evenodd" fill="#FFFFFF" d="M143.53,102.695l3.968-22.412
		c0.002-0.003,0.071-0.773,0.071-0.773c0.01-1.031-0.303-2.027-0.91-2.88c-0.757-1.068-1.887-1.776-3.18-1.995l-25.194-4.267
		l-1.755,10.353c0,0-3.36,19.831-3.527,20.82c1.412,0.24,10.075,1.707,11.483,1.946c0.251-1.457,1.777-10.337,1.777-10.337
		l7.114,1.204l-0.149,0.873c0,0-0.978,5.944-1.027,6.327c-0.177,1.396,0.104,1.798,0.512,2.397c0.416,0.608,1.127,1.033,1.995,1.267
		c-0.103-0.022,11.903,2.904,11.903,2.904L143.53,102.695z M135.764,85.007l-9.209-1.536l0.265-1.586l9.208,1.536L135.764,85.007z"
		/>
	<path fill-rule="evenodd" clip-rule="evenodd" fill="#FFFFFF" d="M56.224,102.13l-6.738-20.738
		c-0.837-2.571-3.609-3.983-6.182-3.149l0.006-0.003l-18.913,6.146c-1.246,0.406-2.26,1.271-2.855,2.439
		c-0.357,0.701-0.538,1.448-0.538,2.222c0,0.512,0.082,1.024,0.244,1.521l6.737,20.737c0.836,2.574,3.609,3.986,6.181,3.151
		c0,0-0.063,0.025-0.095,0.039c0.161-0.06,1.563-0.515,19.003-6.182c2.027-0.659,3.389-2.536,3.389-4.669
		C56.464,103.131,56.384,102.622,56.224,102.13 M33.396,93.676l-0.501-1.528l8.328-2.737l0.502,1.526L33.396,93.676z
		 M36.596,103.304l-0.502-1.526l8.329-2.739l0.502,1.528L36.596,103.304z"/>
	<path fill-rule="evenodd" clip-rule="evenodd" fill="#FFFFFF" d="M83.977,86.206c0.003,0.014-2.137-11.12-2.137-11.12
		c-0.243-1.285-0.973-2.396-2.057-3.134c-1.082-0.738-2.387-1.012-3.675-0.767c0,0-23.488,4.457-25.108,4.764
		c0.221,1.172,4.764,25.136,4.764,25.136l0.642,3.386l0.481,2.54c0,0,10.04-1.903,11.448-2.172
		c-0.276-1.452-1.956-10.303-1.956-10.303L80.07,91.94c1.286-0.245,2.403-0.977,3.141-2.058c0.587-0.864,0.881-1.866,0.851-2.898
		L83.977,86.206z M63.272,85.233l-0.303-1.579l9.169-1.758l0.303,1.579L63.272,85.233z"/>
	<path fill-rule="evenodd" clip-rule="evenodd" fill="#FFFFFF" d="M76.769,97.503c0.033,0.802,0.69,9.696,0.69,9.696
		s-10.7,0.446-12.123,0.505c1.161,0.818,9.79,6.891,9.79,6.891s-6.02,8.971-6.804,10.138c1.334-0.437,11.332-3.704,11.332-3.704
		s4.046,9.738,4.576,11.009c0.385-1.324,3.403-11.688,3.403-11.688s11.289,2.905,12.79,3.289c-1.009-1.164-8.328-9.62-8.328-9.62
		s8.878-7.57,9.92-8.429c-1.23-0.008-6.858-0.089-6.858-0.089l1.445-1.582h9.378l11.089-19.65V70.186h-9.752l-4.248,7.529
		c0,0-0.466,3.787-0.564,4.596c-0.401,0.711-3.705,6.599-4.783,8.52h-1.56c1.64-2.9,3.786-6.694,3.786-6.694V70.186H89.903
		l-4.093,7.508c0,0-0.43,3.803-0.523,4.629C84.868,83.07,76.769,97.503,76.769,97.503"/>
	<polygon fill-rule="evenodd" clip-rule="evenodd" points="108.842,72.801 105.601,78.548 105.036,83.144 99.25,93.447 
		91.674,93.447 97.329,83.45 97.329,72.801 91.457,72.801 88.352,78.498 87.826,83.144 79.58,97.842 80.959,101.304 86.095,101.304 
		83.757,107.223 79.381,102.49 79.896,109.439 72.314,109.754 78.344,114 74.048,120.401 80.983,118.133 83.838,125.004 
		86.019,117.518 93.75,119.508 88.757,113.74 94.901,108.666 88.56,109.059 95.422,101.304 104.452,101.304 114.452,83.582 
		114.452,72.801 	"/>
	<path fill-rule="evenodd" clip-rule="evenodd" fill="#FFFFFF" d="M178.365,86.713c-0.596-1.169-1.609-2.034-2.856-2.439
		l-18.905-6.143c-1.245-0.405-2.577-0.3-3.744,0.296c-1.168,0.594-2.033,1.609-2.437,2.855l-6.738,20.736
		c-0.162,0.5-0.243,1.012-0.243,1.521c0,0.764,0.182,1.522,0.539,2.221c0.594,1.169,1.608,2.034,2.854,2.439l18.905,6.144
		c1.246,0.406,2.575,0.3,3.743-0.295c1.167-0.594,2.035-1.608,2.439-2.855l6.737-20.736c0.162-0.5,0.244-1.012,0.244-1.522
		C178.902,88.169,178.721,87.412,178.365,86.713 M163.786,103.097l-8.326-2.738l0.502-1.527l8.326,2.739L163.786,103.097z
		 M166.988,93.469l-8.33-2.739l0.503-1.527l8.33,2.74L166.988,93.469z"/>
	<polygon fill-rule="evenodd" clip-rule="evenodd" fill="#C4CED4" points="109.633,74.344 107.628,77.928 110.367,77.928 
		112.274,74.344 	"/>
	<polygon fill="none" stroke="#000000" stroke-width="0.0412" stroke-miterlimit="3.864" points="109.633,74.344 107.628,77.928 
		110.367,77.928 112.274,74.344 	"/>
	<polygon fill-rule="evenodd" clip-rule="evenodd" fill="#C4CED4" points="95.234,74.344 92.39,74.347 90.403,77.932 93.355,77.927 
			"/>
	<polygon fill="none" stroke="#000000" stroke-width="0.0412" stroke-miterlimit="3.864" points="95.234,74.344 92.39,74.347 
		90.403,77.932 93.355,77.927 	"/>
	<path fill-rule="evenodd" clip-rule="evenodd" fill="#C4CED4" d="M100.303,94.839H85.912l5.997-10.557H89.09L81.85,97.06h8.029
		l-5.874,13.402l-2.649-2.865l0.267,3.614l-3.942,0.163l3.136,2.209l-2.233,3.326l3.606-1.178l1.485,3.573l1.134-3.892l4.02,1.034
		l-2.596-2.999l3.194-2.639l-4.481,0.277l-0.312-0.001l9.282-14.024h8.045l7.115-12.778h-2.776L100.303,94.839z M83.163,114.27
		c-0.546,0-0.987-0.442-0.987-0.987c0-0.545,0.441-0.988,0.987-0.988c0.545,0,0.988,0.442,0.988,0.988
		C84.151,113.827,83.708,114.27,83.163,114.27"/>
	<path fill="none" stroke="#000000" stroke-width="0.0412" stroke-miterlimit="3.864" d="M100.303,94.839H85.912l5.997-10.557H89.09
		L81.85,97.06h8.029l-5.874,13.402l-2.649-2.865l0.267,3.614l-3.942,0.163l3.136,2.209l-2.233,3.326l3.606-1.178l1.485,3.573
		l1.134-3.892l4.02,1.034l-2.596-2.999l3.194-2.639l-4.481,0.277l-0.312-0.001l9.282-14.024h8.045l7.115-12.778h-2.776
		L100.303,94.839z M83.163,114.27c-0.546,0-0.987-0.442-0.987-0.987c0-0.545,0.441-0.988,0.987-0.988
		c0.545,0,0.988,0.442,0.988,0.988C84.151,113.827,83.708,114.27,83.163,114.27z"/>
	<polygon fill-rule="evenodd" clip-rule="evenodd" fill="#C4CED4" points="92.609,79.373 90.036,79.373 89.704,82.442 
		92.362,82.448 	"/>
	<polygon fill="none" stroke="#000000" stroke-width="0.0412" stroke-miterlimit="3.864" points="92.609,79.373 90.036,79.373 
		89.704,82.442 92.362,82.448 	"/>
	<polygon fill-rule="evenodd" clip-rule="evenodd" fill="#C4CED4" points="106.871,82.442 109.53,82.448 109.777,79.373 
		107.203,79.373 	"/>
	<polygon fill="none" stroke="#000000" stroke-width="0.0412" stroke-miterlimit="3.864" points="106.871,82.442 109.53,82.448 
		109.777,79.373 107.203,79.373 	"/>
	<path fill-rule="evenodd" clip-rule="evenodd" fill="#FFFFFF" d="M32.092,68.144c0.356,1.328,1.127,1.466,2.835,1.008l2.274-0.61
		c2.496-0.668,2.981-1.088,2.539-2.737c-0.478-1.784-1.202-1.781-4.117-0.99c-2.011,0.547-2.243,0.59-2.386,0.057
		c-0.089-0.33,0.16-0.549,0.583-0.663l2.08-0.557c0.863-0.231,0.963-0.059,1.083,0.389l1.878-0.503l-0.052-0.194
		c-0.288-1.075-0.69-1.757-2.854-1.176l-2.621,0.701c-2.368,0.635-2.241,1.517-1.944,2.625c0.404,1.504,0.815,1.757,3.64,1
		c2.419-0.648,2.648-0.672,2.79-0.141c0.127,0.474-0.268,0.626-0.664,0.732l-2.3,0.616c-0.541,0.145-0.817,0.165-1-0.484
		l-1.877,0.504L32.092,68.144z"/>
	<path fill-rule="evenodd" clip-rule="evenodd" fill="#FFFFFF" d="M45.55,66.302l2.123-0.452l0.324-1.215l3.852-0.817l0.825,0.97
		l2.115-0.451l-4.726-5.473l-2.475,0.524L45.55,66.302z M49.128,60.565l1.728,2.068l-2.432,0.516L49.128,60.565z"/>
	<polygon fill-rule="evenodd" clip-rule="evenodd" fill="#FFFFFF" points="60.303,63.366 62.223,63.063 61.502,58.516 
		61.519,58.511 65.847,62.49 68.82,62.019 67.829,55.76 65.909,56.063 66.629,60.611 66.612,60.612 62.286,56.636 59.312,57.106 	
		"/>
	<path fill-rule="evenodd" clip-rule="evenodd" fill="#FFFFFF" d="M80.533,60.868l2.169-0.114l0.51-1.15l3.934-0.206l0.662,1.087
		l2.159-0.113l-3.81-6.147l-2.526,0.132L80.533,60.868z M84.965,55.761l1.383,2.31l-2.482,0.13L84.965,55.761z"/>
	<polygon fill-rule="evenodd" clip-rule="evenodd" fill="#FFFFFF" points="95.56,60.194 97.503,60.194 97.503,55.588 97.521,55.588 
		101.173,60.194 104.184,60.194 104.184,53.856 102.24,53.856 102.24,58.46 102.224,58.46 98.571,53.856 95.56,53.856 	"/>
	<polygon fill-rule="evenodd" clip-rule="evenodd" fill="#FFFFFF" points="110.186,55.544 112.914,55.686 112.665,60.443 
		114.606,60.543 114.855,55.787 117.583,55.931 117.664,54.357 110.268,53.97 	"/>
	<path fill-rule="evenodd" clip-rule="evenodd" fill="#FFFFFF" d="M123.163,58.937c-0.196,1.846,0.796,2.389,2.537,2.572
		l3.099,0.326c1.742,0.183,2.822-0.142,3.016-1.989l0.198-1.881c0.195-1.845-0.795-2.39-2.535-2.573l-3.1-0.324
		c-1.742-0.185-2.823,0.142-3.017,1.987L123.163,58.937 M125.283,57.866c0.081-0.784,0.324-1.243,1.343-1.135l2.263,0.237
		c1.019,0.107,1.16,0.607,1.077,1.391l-0.071,0.678c-0.096,0.915-0.325,1.242-1.238,1.146l-2.473-0.26
		c-0.914-0.096-1.07-0.465-0.973-1.379L125.283,57.866z"/>
	<polygon fill-rule="evenodd" clip-rule="evenodd" fill="#FFFFFF" points="137.63,62.926 139.546,63.261 140.345,58.728 
		140.361,58.731 143.158,63.899 146.123,64.423 147.224,58.18 145.31,57.843 144.51,62.378 144.492,62.375 141.696,57.206 
		138.732,56.683 	"/>
	
		<rect x="152.928" y="59.599" transform="matrix(-0.9782 -0.2077 0.2077 -0.9782 291.4059 156.1343)" fill-rule="evenodd" clip-rule="evenodd" fill="#FFFFFF" width="1.944" height="6.338"/>
	<path fill-rule="evenodd" clip-rule="evenodd" fill="#FFFFFF" d="M160.776,65.393c-0.481,1.793,0.412,2.487,2.103,2.939l3.01,0.806
		c1.692,0.454,2.812,0.3,3.292-1.491l0.488-1.827c0.482-1.793-0.411-2.484-2.102-2.938l-3.01-0.807
		c-1.693-0.453-2.812-0.3-3.291,1.493L160.776,65.393 M163.036,64.667c0.205-0.762,0.515-1.178,1.504-0.911l2.198,0.589
		c0.989,0.266,1.051,0.78,0.848,1.541l-0.177,0.66c-0.238,0.887-0.515,1.176-1.402,0.938l-2.403-0.644
		c-0.887-0.237-0.983-0.625-0.745-1.514L163.036,64.667z"/>
	<path fill-rule="evenodd" clip-rule="evenodd" d="M37.362,99.729l-7.217,2.345c-1.208,0.394-2.507-0.269-2.899-1.478l-0.285-0.875
		l-3.235-9.959c-0.394-1.208,0.268-2.508,1.477-2.9L44.11,80.72c1.209-0.393,2.507,0.269,2.9,1.477l1.812,5.582l-6.089,1.978
		l-0.48-1.477c-0.156-0.483-0.676-0.749-1.159-0.592l-9.341,3.034c-0.483,0.16-0.748,0.677-0.59,1.162l0.835,2.572
		c0.157,0.482,0.677,0.748,1.159,0.59l2.19-0.711l11.928-3.876c1.21-0.393,2.507,0.268,2.9,1.478l0.355,1.094l3.218,9.904
		c0.393,1.209-0.268,2.506-1.477,2.899l-18.907,6.144c-1.21,0.392-2.506-0.268-2.899-1.477l-1.885-5.801l6.103-1.982l0.536,1.649
		c0.157,0.483,0.676,0.747,1.159,0.59l9.342-3.035c0.484-0.158,0.748-0.677,0.59-1.16l-0.844-2.598
		c-0.156-0.483-0.706-0.838-1.189-0.681L37.362,99.729z M164.986,100.41c0.483,0.157,0.719,0.766,0.562,1.251l-0.845,2.597
		c-0.156,0.483-0.675,0.749-1.16,0.59l-9.34-3.035c-0.484-0.157-0.749-0.675-0.59-1.159l0.535-1.648l-6.104-1.983l-1.882,5.799
		c-0.394,1.211,0.267,2.509,1.477,2.902l18.906,6.141c1.209,0.394,2.507-0.269,2.9-1.476l3.22-9.906l0.353-1.092
		c0.395-1.211-0.268-2.509-1.477-2.902l-11.929-3.875l-2.188-0.711c-0.483-0.158-0.749-0.678-0.59-1.16l0.834-2.572
		c0.158-0.485,0.676-0.748,1.16-0.591l9.341,3.034c0.483,0.158,0.749,0.677,0.591,1.162l-0.517,1.464l6.129,1.991l1.812-5.581
		c0.393-1.21-0.269-2.507-1.478-2.899l-18.905-6.144c-1.209-0.392-2.509,0.269-2.9,1.477l-3.237,9.959l-0.283,0.876
		c-0.394,1.209,0.268,2.505,1.477,2.9l7.215,2.345L164.986,100.41z M125.085,84.531l11.343,1.921
		c0.502,0.084,0.976-0.253,1.063-0.755l0.421-2.652c0.084-0.502-0.253-0.977-0.753-1.063l-11.342-1.919L125.085,84.531
		 M144.929,79.855c0.212-1.253-0.631-2.441-1.885-2.652l-22.628-3.832l-4.413,26.036l6.355,1.076l1.776-10.337l8.195,1.387
		l3.148,0.533c0.5,0.085,0.839,0.559,0.753,1.06l-1.345,7.787c-0.277,1.644,0.667,1.746,1.079,1.827
		c0.46,0.091,5.451,0.969,5.451,0.969c-0.151-0.16-0.459-0.719-0.21-1.845l1.572-9.145c0.135-0.904-0.3-1.687-1.053-2.045
		c1.065-0.113,1.554-0.945,1.707-1.814l0.134-0.793L144.929,79.855z M62.273,86.868l11.333-2.151c0.5-0.095,0.828-0.576,0.733-1.075
		l-0.527-2.636c-0.095-0.499-0.577-0.827-1.076-0.732l-11.305,2.144L62.273,86.868 M65.292,102.767l-6.332,1.2l-4.917-25.945
		l22.551-4.278c1.249-0.238,2.454,0.584,2.69,1.833l2.135,11.112c0.238,1.249-0.583,2.454-1.832,2.69l-16.251,3.083L65.292,102.767z
		"/>
</g>
</svg>
