<svg version="1.1" id="Layer_1" xmlns="http://www.w3.org/2000/svg" xmlns:xlink="http://www.w3.org/1999/xlink" x="0px" y="0px" viewBox="0 0 200 200" enable-background="new 0 0 200 200" xml:space="preserve" preserveAspectRatio="xMidYMid">
<g>
	<path fill="#231F20" d="M0,100C0,44.77,44.777,0,100.002,0C155.223,0,200,44.77,200,100c0,55.224-44.777,99.997-99.998,99.997
		C44.777,199.997,0,155.224,0,100"/>
	<path fill="#FFFFFF" d="M12.623,100c0-48.253,39.124-87.381,87.375-87.381c48.258,0,87.382,39.128,87.382,87.381
		c0,48.25-39.124,87.377-87.382,87.377C51.747,187.377,12.623,148.25,12.623,100"/>
	<path fill="#CE1141" d="M16.572,100c0-45.859,37.172-83.024,83.012-83.024c45.857,0,83.022,37.165,83.022,83.024
		c0,45.84-37.165,83.012-83.022,83.012C53.744,183.012,16.572,145.84,16.572,100"/>
	<polygon fill="#221F1F" points="95.123,161.042 91.38,159.482 89.585,158.365 78.349,150.093 71.278,140.225 67.747,136.66 
		72.208,154.985 80.816,163.13 83.758,163.896 90.522,162.904 	"/>
	<polygon fill="#221F1F" points="103.135,118.52 103.63,133.605 111.904,145.932 114.315,145.094 118.044,139.568 121.097,124.891 
		121.237,115.997 116.11,110.337 104.644,107.214 101.26,107.153 	"/>
	<path fill="#221F1F" d="M89.295,156.776l7.232,3.098l1.568,0.049l3.653-1.805l2.638-2.805l-8.016-5.507l-10.4-16.438l-2.429-13.778
		c0.007-0.108,0.119-1.552,0.669-3.462l-2.638-2.915l-10.218,9.262l-2.286,10.642l8.786,14.817L89.295,156.776"/>
	<path fill="#221F1F" d="M86.462,131.16l9.493,16.356l8.946,6.66l2.356-0.169l2.171-1.669l2.994-3.766l-9.455-13.468l-0.704-15.348
		l-1.314-10.311l-2.621-2.827l-13.212,3.222c-0.202,3.551-0.397,7.299-0.369,8.754L86.462,131.16"/>
	<polygon fill="#221F1F" points="122.429,124.189 119.003,140.105 115.305,145.751 115.723,147.934 124.809,147.283 
		132.337,143.456 133.922,140.187 131.117,126.712 122.383,117.558 	"/>
	<polygon fill="#221F1F" points="119.233,161.589 114.367,160.625 105.212,157.139 101.42,160.265 99.605,160.597 98.869,163.326 
		103.863,170.61 106.878,170.3 117.905,167.388 120.92,162.913 	"/>
	<polygon fill="#221F1F" points="96.579,162.237 90.341,164.839 85.497,165.567 85.657,167.022 87.01,169.467 99.754,172.069 
		101.783,169.988 97.416,163.176 	"/>
	<polygon fill="#221F1F" points="131.141,148.197 129.141,146.163 124.223,148.661 112.911,149.443 109.837,153.66 108.544,154.906 
		109.272,157.091 110.517,157.504 114.158,159.35 123.474,160.728 129.395,154.786 	"/>
	<path fill="#221F1F" d="M101.522,103.774l3.276,1.092l11.079-9.833l-2.339-11.391l1.405-11.391
		c-0.338-1.587-4.838-10.924-4.838-10.924l-3.067-29.177l-2.656-3.123l-7.075,15.685L95.667,62.03l-3.59,8.506l0.707,11.78
		l-1.878,11.314L101.522,103.774"/>
	<polygon fill="#FFFFFF" points="90.989,160.754 87.71,159.355 87.476,159.236 87.292,159.105 75.78,150.587 75.38,150.298 
		75.177,149.898 69.326,139.441 73.306,154.541 82.036,162.293 89.393,161.394 	"/>
	<polygon fill="#FFFFFF" points="104.414,118.36 104.411,118.546 104.693,133.124 112.127,144.158 115.859,138.634 118.912,123.955 
		118.686,115.782 114.451,111.269 102.581,108.253 104.383,118.203 	"/>
	<path fill="#FFFFFF" d="M89.686,155.441l7.009,3.031l2.847-1.117l1.973-1.542l-7.897-6.089l-0.334-0.253l-0.206-0.364
		l-9.598-16.349l-0.226-0.371l-0.038-0.418l-1.858-12.882l-0.011-0.218l0.011-0.218c0.007-0.106,0.118-1.552,0.258-3.358
		l-9.006,8.983l-2.136,8.329l8.263,14.771L89.686,155.441"/>
	<path fill="#FFFFFF" d="M87.449,130.92l9.159,15.627l8.462,6.524l2.175-1.669l2.265-3.35l-8.79-13.043l-0.355-0.528l-0.011-0.632
		l-0.275-15.032l-1.91-10.546l-11.738,2.812c-0.397,2.752-0.652,6.674-0.728,7.613L87.449,130.92"/>
	<polygon fill="#FFFFFF" points="123.255,124.354 123.22,124.61 120.006,139.936 119.961,140.363 119.693,140.706 116.246,145.834 
		123.251,145.307 130.462,141.585 131.11,139.253 128.527,126.367 123.171,120.604 123.265,124.101 	"/>
	<polygon fill="#FFFFFF" points="113.988,161.657 113.737,161.565 105.439,158.285 101.94,160.969 101.706,161.16 101.438,161.272 
		100.295,161.708 104.731,168.448 115.859,165.475 118.975,162.29 114.27,161.693 	"/>
	<polygon fill="#FFFFFF" points="90.753,165.541 90.474,165.633 90.195,165.677 86.375,166.151 87.525,167.169 99.573,169.817 
		100.315,169.61 96.196,163.365 	"/>
	<polygon fill="#FFFFFF" points="128.96,147.258 124.851,149.37 124.45,149.57 124.007,149.611 113.148,150.424 110.649,154.131 
		110.468,154.417 110.178,154.638 109.468,155.195 115.082,157.43 122.774,158.403 127.21,153.85 	"/>
	<polygon fill="#FFFFFF" points="90.989,160.754 87.71,159.355 87.476,159.236 87.292,159.105 75.78,150.587 75.38,150.298 
		75.177,149.898 69.326,139.441 73.306,154.541 82.036,162.293 89.393,161.394 	"/>
	<polygon fill="#FFFFFF" points="104.414,118.36 104.411,118.546 104.693,133.124 112.127,144.158 115.859,138.634 118.912,123.955 
		118.686,115.782 114.451,111.269 102.581,108.253 104.383,118.203 	"/>
	<path fill="#FFFFFF" d="M89.686,155.441l7.009,3.031l2.847-1.117l1.973-1.542l-7.897-6.089l-0.334-0.253l-0.206-0.364
		l-9.598-16.349l-0.226-0.371l-0.038-0.418l-1.858-12.882l-0.011-0.218l0.011-0.218c0.007-0.106,0.118-1.552,0.258-3.358
		l-9.006,8.983l-2.136,8.329l8.263,14.771L89.686,155.441"/>
	<path fill="#FFFFFF" d="M87.449,130.92l9.159,15.627l8.462,6.524l2.175-1.669l2.265-3.35l-8.79-13.043l-0.355-0.528l-0.011-0.632
		l-0.275-15.032l-1.91-10.546l-11.738,2.812c-0.397,2.752-0.652,6.674-0.728,7.613L87.449,130.92"/>
	<polygon fill="#FFFFFF" points="123.255,124.354 123.22,124.61 120.006,139.936 119.961,140.363 119.693,140.706 116.246,145.834 
		123.251,145.307 130.462,141.585 131.11,139.253 128.527,126.367 123.171,120.604 123.265,124.101 	"/>
	<polygon fill="#FFFFFF" points="113.988,161.657 113.737,161.565 105.439,158.285 101.94,160.969 101.706,161.16 101.438,161.272 
		100.295,161.708 104.731,168.448 115.859,165.475 118.975,162.29 114.27,161.693 	"/>
	<polygon fill="#FFFFFF" points="90.753,165.541 90.474,165.633 90.195,165.677 86.375,166.151 87.525,167.169 99.573,169.817 
		100.315,169.61 96.196,163.365 	"/>
	<polygon fill="#FFFFFF" points="128.96,147.258 124.851,149.37 124.45,149.57 124.007,149.611 113.148,150.424 110.649,154.131 
		110.468,154.417 110.178,154.638 109.468,155.195 115.082,157.43 122.774,158.403 127.21,153.85 	"/>
	<polygon fill="#221F1F" points="71.793,116.255 74.839,114.852 78.736,100.651 71.895,93.133 69.375,83.407 63.29,76.934 
		60.324,65.853 61.265,55.086 59.756,50.56 49.764,65.543 50.702,94.15 55.804,100.495 57.672,109.781 	"/>
	<polygon fill="#221F1F" points="141.938,85.934 136.529,89.574 132.155,98.517 125.084,104.551 129.036,117.349 130.992,118.724 
		144.395,114.419 146.082,105.916 152.202,99.517 154.108,92.796 156.293,77.298 149.219,63.357 144.744,59.404 144.43,75.32 	"/>
	<polygon fill="#FFFFFF" points="71.403,114.918 75.261,101.589 69.915,95.109 67.538,85.979 61.833,79.466 58.275,66.322 
		59.23,53.061 51.106,65.358 51.681,85.904 51.852,93.363 56.853,99.969 58.909,109.023 	"/>
	<polygon fill="#FFFFFF" points="144.106,81.245 145.556,75.97 145.441,61.859 152.854,75.799 150.825,91.916 148.971,98.08 
		142.949,104.578 141.165,112.879 129.806,116.561 126.283,104.942 133.079,99.197 137.3,90.691 142.66,86.519 	"/>
	<path fill="#FFFFFF" d="M101.473,102.567l10.678-8.786l-1.443-11.414l0.826-9.988l-3.478-9.243
		c-0.338-1.593-2.596-16.92-2.596-16.92l-1.541-14.695l-5.646,13.96l-1.397,17.187l-3.481,8.683l0.658,11.316l-1.763,10.8
		L101.473,102.567"/>
</g>
</svg>
