<svg version="1.1" id="Layer_1" xmlns="http://www.w3.org/2000/svg" xmlns:xlink="http://www.w3.org/1999/xlink" x="0px" y="0px" viewBox="0 0 200 200" enable-background="new 0 0 200 200" xml:space="preserve" preserveAspectRatio="xMidYMid">
<g>
	<g>
		<path fill="#B3B2B1" d="M37.199,98.932c0,5.475,0.689,10.917,1.917,16.228c-2.205-0.506-5.635-1.298-5.635-1.298L0,121.434
			l3.134,3.264c2.299,2.39,3.728,5.934,3.871,6.735c-0.016-0.182-0.869,4.813-0.869,4.813c-1.259,5.483-2.99,12.99,2.9,18.883
			c9.549,9.099,24.962,10.49,35.278,7.191c1.325-0.42,7.731-3.258,18.786-8.307c13.084,10.962,29.556,17.097,46.722,17.097
			c36.375,0,66.831-26.651,71.781-62.225c2.045-0.541,8.123-2.138,8.123-2.138l0.537-0.978L200,87.715
			c0,0-11.212-1.868-12.779-2.125c2.958-4.651,10.784-16.954,10.784-16.954l-12.516-4.513c0,0-8.824,1.184-11.342,1.518
			c-12.575-23.991-36.995-38.879-64.326-38.879C69.779,26.761,37.199,59.137,37.199,98.932z"/>
		<path fill="#0D2240" d="M196.051,89.648l-10.202-1.697l-2.376,1.209l-0.745-1.264l11.41-17.942l-8.926-3.216l-12.406,1.658
			c-11.388-23.142-35.31-39.081-62.985-39.081c-38.697,0-70.068,31.17-70.068,69.616c0,5.817,0.724,11.47,2.074,16.871l-0.901,2.396
			l-7.451-1.716l-28.498,6.445c2.944,3.063,4.616,7.584,4.566,8.321c0,5.63-5.514,15.256,1.301,22.074
			c8.518,8.115,22.833,9.714,32.69,6.56c1.832-0.583,14.992-6.591,19.857-8.814c12.361,10.878,28.616,17.485,46.43,17.485
			c36.018,0,65.68-27.006,69.619-61.744c3.053-0.816,5.926-1.568,8.572-2.256L196.051,89.648z"/>
		<path fill="#FFA400" d="M69.393,68.295l2.171-0.297l7.166-8.182l1.913,2.317l6.392-8.362
			C80.099,57.215,74.07,62.207,69.393,68.295z M90.478,52.228l3.468,4.414l5.086-7.025C96.077,50.235,93.219,51.119,90.478,52.228z
			 M151.56,72.676l0.37-0.757c-2.325-3.648-5.106-6.981-8.257-9.914l3.52,4.893C147.193,66.898,149.102,69.144,151.56,72.676z
			 M134.224,56.642l4.815,6.071l2.332-2.724c-5.002-4.11-10.81-7.274-17.148-9.221l7.161,9.248L134.224,56.642z M120.757,49.851
			c-1.722-0.399-3.477-0.708-5.261-0.926l2.757,4.058L120.757,49.851z"/>
		<path fill="#FFA400" d="M184.821,94.164c-1.588,0.365-6.935,1.51-8.911,1.922l2.421-3.951l3.044-2.175l-1.156-2.386l10.455-16.861
			l-30.852,4.982l-7.011,11.636l7.831-2.634l6.641-1.049l-3.109,4.942l-4.617,2.589l0.888,3.81l-9.907,17.408l36.052-10.164
			l6.313-11.263C192.905,90.97,185.016,94.109,184.821,94.164L184.821,94.164z M69.621,113.548l3.466-3.944l-0.829-3.622
			l8.926-25.831l6.957-7.581l-29.178,3.458l4.866,5.727l-10.971,26.581l-3.892,4.154l1.561,3.168l-9.924,28.978
			c-1.891,0.66-5.013,1.442-5.777,0.836c-0.869-0.685-1.445-1.134-0.062-5.209c0,0,3.52-10.059,3.514-10.059
			c0.132-0.308,5.764-8.566,5.764-8.566l-26.151,6.431c0,0,2.297,3.195,2.211,4.57l-2.752,9.589
			c-1.379,6.127,1.301,9.533,4.105,12.062c3.028,2.721,11.869,6.641,23.683,1.958c1.912-0.752,15.671-7.166,15.671-7.166
			s-1.304-2.121-1.775-4.425L69.621,113.548 M97.602,112.524l-4.309,1.411l4.913-10.631L97.602,112.524 M147.986,103.152
			l-8.653,2.614l2.525-6.076l3.663-2.708l-1.301-2.559l8.884-17.704l-31.329,4.804l-6.868,12.506l8.3-2.844l8.381-1.366
			l-3.668,6.151l-3.233,2.108l0.342,3.524l-11.152,21.436c-0.738-0.772-1.869-2.068-1.869-2.893l1.065-15.169l2.514-3.496
			l-2.338-3.077l-0.05-8.65l3.758-7.49L86.582,87.02l0.991,5.488l-5.327,10.446l-3.799,3.79l0.61,3.296l-13.514,31.29l20.397-8.126
			l3.162-8.414l7.738-2.559l-1.212,8.099l18.216-6.44l34.729-10.902l7.645-13.322L147.986,103.152"/>
		<g>
			<path fill="#FFFFFF" d="M63.43,77.715L83.5,75.114l-4.206,4.042l-9.491,26.956l0.69,2.819l-2.611,3.059l-11.18,32.348
				c0,0,0.337,3.056,0.885,3.648c-2.922,1.311-10,4.846-13.283,6.15c-10.97,4.351-18.886,0.659-21.328-1.536
				c-3.01-2.712-4.423-5.39-3.414-9.885c0.443-1.998,0.616-2.365,1.168-4.283c0.534-1.819,1.035-3.549,1.531-5.107
				c0.457-1.395-0.341-3.018-0.811-3.791l17.906-4.401c-0.512,0.87-2.744,2.982-3.216,4.304l-3.521,10.086
				c-1.576,4.616-1.148,6.204,0.802,7.741c2.856,2.246,9.021-0.972,9.021-0.972l10.518-30.74l-1.203-2.747l2.993-3.088l11.568-28.72
				L63.43,77.715L63.43,77.715z"/>
			<path fill="#FFFFFF" d="M122.379,88.858l13.561-2.11L129.94,97.37l-2.838,1.784l0.327,2.468l-9.42,18.225l29.198-9.055
				l3.764-6.399l-3.189,1.471l-12.492,3.485l4.593-10.82l2.783-2.076l-1.159-1.972l7.292-14.76c0,0-22.229,3.073-25.34,3.641
				l-3.758,6.465L122.379,88.858L122.379,88.858z"/>
			<path fill="#FFFFFF" d="M99.54,114.274l-10.167,3.239l11.333-24.046L99.54,114.274L99.54,114.274z M110.932,89.44l2.29-4.447
				l-23.923,3.739l0.636,4.142l-6.31,11.876l-2.826,2.506l0.555,2.85L69.779,137.2l14.378-5.729l3.198-8.507l12.222-4.027
				l-1.031,7.633l11.997-3.886c0,0-0.82-0.983-0.729-1.915l0.949-16.844l1.938-2.362l-1.716-2.068L110.932,89.44"/>
			<path fill="#FFFFFF" d="M185.342,96.378c-3.708,0.84-14.24,3.047-14.24,3.047l5.194-8.189l2.326-1.806l-0.864-1.894l8.522-13.743
				l-25.057,3.975l-3.469,5.717c0.186-0.059,1.822-0.785,2.007-0.832c1.46-0.327,12.644-2.121,12.644-2.121l-6.815,9.932
				l-3.112,1.927l0.472,2.3l-7.559,13.547c0,0,24.066-6.836,29.716-7.996l3.137-5.077C188.245,95.166,186.035,96.221,185.342,96.378
				L185.342,96.378z"/>
		</g>
		<g>
			<path fill="#FFFFFF" d="M78.346,67.321l14.387,4.584l-8.076,7.922l5.395-0.802c4.387-4.268,9.054-8.861,9.054-8.861l2.381,2.586
				l4.529-2.797l3.784-8.764c0,0,5.531,7.303,9.594,14.109l2.026-0.265l-4.911-7.945l1.656-11.919l3.975-4.965
				c0.051,1.311-0.034,3.496,0.126,4.591l-1.028,1.489c1.409,2.028,2.821,3.671,4.239,5.749l-5.24,5.645l2.117,3.736l4.323-3.736
				l7.059,5.789l12.491-1.596l4.885,1.696l0.447-0.892c-2.458-3.532-4.367-5.778-4.367-5.778l-5.365-7.439l-2.79,3.255l-4.815-6.071
				l-2.841,3.373l-9.23-11.913l-3.9,4.88l-10.49-15.435L93.946,56.642l-4.609-5.874l-8.694,11.365l-1.913-2.317l-7.166,8.182
				l1.89-0.256l5.243-5.926L78.346,67.321z"/>
		</g>
		<g>
			<path fill="#2B5134" d="M141.72,61.571l0.091,3.48l1.726,2.496c-0.403,0.3-0.66,1.132-1.237,1.272
				c-1.736-2.178-2.605-3.309-3.241-4.138L141.72,61.571z"/>
			<path fill="#2B5134" d="M132.613,63.246c-0.362-0.455-0.73-0.922-1.088-1.38l2.669-3.166c1.232,5.608,1.678,8.667,2.758,14.326
				l-5.849-4.731L132.613,63.246z"/>
			<path fill="#2B5134" d="M118.165,55.169l3.975-4.965c0.051,1.311-0.034,3.496,0.126,4.591l-1.028,1.489
				c1.409,2.028,2.821,3.671,4.239,5.749l-5.24,5.645l2.117,3.736l4.323-3.736l7.059,5.789l-12.317,1.565l-4.911-7.945
				L118.165,55.169z"/>
			<path fill="#2B5134" d="M107.722,39.81c-1.003,5.617-1.522,13.127-2.532,18.424L107.184,61l-6.992,5.315l-6.137-7.605
				L107.722,39.81z"/>
			<path fill="#2B5134" d="M99.107,70.164l2.381,2.586l4.529-2.797l3.784-8.764c0,0,5.531,7.303,9.594,14.109l-6.264,0.797
				l-0.806,1.784l-4.706-1.458l-17.566,2.604C94.439,74.757,99.107,70.164,99.107,70.164z"/>
			<path fill="#2B5134" d="M89.352,52.885c-0.145,1.671,0.023,4.283,0.093,6.271c0.418,0.953,1.409,1.496,1.62,2.389l-5.641,7.945
				l-4.738-5.284L89.352,52.885z"/>
			<polygon fill="#2B5134" points="78.697,61.816 78.346,67.321 77.808,67.15 73.454,67.742 			"/>
		</g>
		<g>
			<path fill="#2B5134" d="M79.766,138.856l7.895-3.223l2.594-5.996c0,0,5.013,3.708,5.049,3.69
				c17.572-6.61,38.532-13.201,38.532-13.201s0.117,3.702-0.232,6.074c-6.465-0.021-12.91,3.856-19.577,7.86
				c-9.032,5.429-18.366,11.033-29.214,8.417C83.019,141.398,79.766,138.856,79.766,138.856z"/>
			<path fill="#2B5134" d="M119.988,148.124c-6.902,1.549-14.246,1.569-21.593-0.209c-2.982-0.726-5.748-1.645-8.336-2.758
				c9.299,0.092,17.571-4.871,25.015-9.355c6.427-3.859,12.345-7.419,18.157-7.511C132.455,131.986,129.362,143.246,119.988,148.124
				z"/>
			<path fill="#2B5134" d="M125.831,146.421c4.558-4.245,7.943-10.567,9.438-17.923c0.002-0.03,0.014-0.059,0.02-0.085
				c3.204,0.43,6.393,2.034,9.63,5.351C139.608,139.462,133.055,143.807,125.831,146.421z"/>
			<path fill="#2B5134" d="M146.282,132.243c-3.582-3.654-7.118-5.413-10.639-5.902c0.358-2.521,0.411-4.864,0.174-6.845
				c3.588-1.127,19.142-5.823,20.687-6.273c0.009,0,0.018-0.004,0.027-0.005C154.433,120.455,150.883,126.884,146.282,132.243z"/>
		</g>
		<path fill="#FFFFFF" d="M156.531,113.218c-2.097,7.237-5.648,13.672-10.248,19.025c-3.582-3.654-7.118-5.413-10.639-5.902
			c0.358-2.521,0.411-4.864,0.174-6.845c-0.656,0.208-1.316,0.421-1.982,0.628c0,0.005,0.117,3.704-0.232,6.074
			c-6.465-0.021-12.91,3.856-19.577,7.86c-9.032,5.429-18.366,11.033-29.214,8.417c-1.762-1.065-4.93-3.532-5.035-3.613
			c-1.226,0.498-2.099,0.852-2.11,0.841c5.797,4.744,12.662,8.284,20.328,10.14c27.028,6.541,53.968-10.113,61.313-37.433
			C158.392,112.671,157.459,112.943,156.531,113.218z M119.988,148.124c-6.902,1.549-14.246,1.569-21.593-0.209
			c-2.982-0.726-5.748-1.645-8.336-2.758c9.299,0.092,17.571-4.871,25.015-9.355c6.427-3.859,12.345-7.419,18.157-7.511
			C132.455,131.986,129.362,143.246,119.988,148.124z M125.831,146.421c4.558-4.245,7.943-10.567,9.438-17.923
			c0.002-0.03,0.014-0.059,0.02-0.085c3.204,0.43,6.393,2.034,9.63,5.351C139.608,139.462,133.055,143.807,125.831,146.421z"/>
	</g>
	<path fill="#FFFFFF" d="M71.194,49.103c-0.598-0.948-1.203-1.833-1.812-2.654c0.35-0.148,0.673-0.298,0.969-0.453
		c0.296-0.153,0.604-0.329,0.923-0.524c0.309-0.189,0.605-0.382,0.887-0.582c0.284-0.199,0.559-0.415,0.829-0.647
		c0.104,0.257,0.245,0.558,0.424,0.907c0.181,0.348,0.375,0.709,0.584,1.087c0.211,0.375,0.424,0.751,0.642,1.13
		c0.217,0.378,0.421,0.721,0.609,1.031l0.595,0.969c0.325,0.531,0.637,1.017,0.939,1.456c0.302,0.441,0.625,0.788,0.965,1.042
		c0.343,0.256,0.724,0.389,1.146,0.395c0.422,0.007,0.909-0.157,1.459-0.495c0.348-0.211,0.641-0.5,0.877-0.863
		c0.236-0.362,0.339-0.753,0.309-1.173c-0.025-0.343-0.103-0.654-0.233-0.933c-0.131-0.277-0.291-0.584-0.482-0.919
		c-0.096-0.179-0.199-0.358-0.303-0.531c-0.107-0.173-0.213-0.347-0.32-0.521l-0.637-1.043c-0.373-0.609-0.774-1.24-1.205-1.891
		c-0.431-0.652-0.912-1.335-1.441-2.046c0.211-0.088,0.417-0.175,0.619-0.258c0.201-0.083,0.397-0.184,0.591-0.301
		c0.185-0.113,0.35-0.23,0.5-0.355c0.149-0.123,0.295-0.256,0.435-0.395c0.241,0.462,0.511,0.961,0.805,1.497
		c0.295,0.537,0.582,1.057,0.864,1.562c0.282,0.504,0.547,0.969,0.793,1.396c0.247,0.425,0.449,0.764,0.602,1.015
		c0.264,0.435,0.495,0.833,0.688,1.191c0.193,0.36,0.346,0.709,0.458,1.043c0.112,0.337,0.185,0.671,0.215,1.004
		c0.032,0.333,0.018,0.69-0.042,1.071c-0.133,0.758-0.451,1.439-0.95,2.043c-0.5,0.605-1.132,1.14-1.895,1.606
		c-1.565,0.957-2.948,1.32-4.147,1.093c-1.201-0.229-2.284-1.13-3.246-2.706C72.464,51.133,71.793,50.051,71.194,49.103z"/>
	<path fill="#FFFFFF" d="M93.109,36.916c-0.501,0.143-1,0.3-1.495,0.47c-0.002-0.313-0.04-0.635-0.115-0.966
		c-0.032-0.144-0.076-0.287-0.133-0.432c-0.055-0.144-0.115-0.307-0.181-0.49c0.848-0.102,1.684-0.241,2.51-0.414
		c0.825-0.175,1.652-0.356,2.48-0.544c0.795-0.18,1.605-0.37,2.429-0.571c0.826-0.199,1.665-0.441,2.518-0.726
		c0.007,0.138,0.02,0.292,0.035,0.462c0.014,0.171,0.046,0.361,0.094,0.57c0.037,0.166,0.085,0.324,0.142,0.473
		c0.057,0.15,0.109,0.277,0.156,0.382c-0.52,0.06-1.037,0.135-1.551,0.222c-0.515,0.088-1.036,0.192-1.567,0.311
		c0.061,0.369,0.142,0.79,0.244,1.26c0.101,0.471,0.204,0.943,0.312,1.418l0.203,0.894c0.146,0.641,0.285,1.241,0.418,1.804
		c0.133,0.561,0.262,1.106,0.388,1.635c0.126,0.528,0.258,1.045,0.395,1.548c0.138,0.503,0.284,1.02,0.44,1.555
		c-0.587,0.075-1.047,0.139-1.376,0.19c-0.33,0.052-0.573,0.096-0.728,0.131c-0.464,0.106-0.848,0.213-1.154,0.323
		c-0.306,0.11-0.551,0.197-0.734,0.263c-0.036-0.317-0.088-0.671-0.154-1.062c-0.065-0.392-0.139-0.805-0.22-1.239
		c-0.081-0.435-0.17-0.873-0.264-1.316c-0.096-0.444-0.188-0.869-0.281-1.278l-0.335-1.474l-0.161-0.712
		c-0.096-0.42-0.21-0.902-0.346-1.445c-0.135-0.545-0.276-1.09-0.424-1.637C94.127,36.642,93.61,36.774,93.109,36.916z"/>
	<path fill="#FFFFFF" d="M116.022,45.356c-0.179-0.083-0.356-0.159-0.534-0.224c-0.178-0.066-0.365-0.121-0.565-0.161
		c-0.189-0.04-0.378-0.065-0.566-0.075c-0.189-0.011-0.366-0.01-0.529,0.002l1.442-2.005c0.225-0.3,0.477-0.649,0.757-1.047
		c0.279-0.398,0.574-0.825,0.884-1.281c0.309-0.456,0.631-0.932,0.966-1.429c0.336-0.497,0.671-0.993,1.006-1.491
		c0.187-0.284,0.401-0.612,0.641-0.984c0.24-0.373,0.472-0.741,0.699-1.103c0.226-0.364,0.433-0.69,0.621-0.981
		c0.188-0.29,0.323-0.495,0.406-0.617c0.18,0.084,0.366,0.161,0.559,0.229c0.194,0.07,0.385,0.124,0.573,0.163
		c0.2,0.042,0.402,0.07,0.607,0.085c0.206,0.014,0.406,0.018,0.605,0.013c0.037,0.424,0.096,0.925,0.171,1.502
		c0.076,0.578,0.161,1.184,0.253,1.823c0.091,0.637,0.189,1.278,0.293,1.918c0.103,0.641,0.201,1.236,0.294,1.787
		c0.11,0.637,0.208,1.201,0.296,1.694c0.088,0.493,0.172,0.958,0.254,1.397c0.081,0.44,0.171,0.883,0.268,1.331
		c0.098,0.448,0.211,0.947,0.339,1.493c-0.308-0.133-0.659-0.25-1.054-0.35c-0.396-0.1-0.76-0.185-1.092-0.254
		c-0.355-0.075-0.715-0.135-1.081-0.184c-0.366-0.047-0.731-0.085-1.095-0.115c-0.023-0.445-0.052-0.873-0.087-1.286
		c-0.035-0.412-0.085-0.827-0.147-1.245c-0.366-0.077-0.731-0.155-1.096-0.238c-0.364-0.081-0.73-0.161-1.095-0.238
		c-0.287-0.06-0.579-0.118-0.874-0.174c-0.296-0.056-0.587-0.114-0.874-0.174c-0.237,0.355-0.452,0.72-0.646,1.097
		C116.426,44.608,116.228,44.983,116.022,45.356z M118.063,41.741c0.119,0.037,0.239,0.067,0.362,0.093
		c0.122,0.026,0.243,0.051,0.366,0.077l0.731,0.152l0.731,0.154c0.122,0.026,0.243,0.051,0.365,0.076
		c0.123,0.026,0.245,0.046,0.369,0.06l-0.619-4.172L118.063,41.741z"/>
	<path fill="#FFFFFF" d="M135.481,44.321c0.172-0.312,0.356-0.64,0.554-0.984c0.201-0.354,0.388-0.685,0.557-0.992
		c0.17-0.307,0.289-0.52,0.355-0.638c0.192-0.334,0.393-0.708,0.604-1.122c0.21-0.413,0.429-0.877,0.656-1.386
		c0.249,0.181,0.529,0.38,0.84,0.598c0.313,0.218,0.612,0.409,0.896,0.572c0.274,0.157,0.59,0.32,0.943,0.49
		c0.352,0.17,0.668,0.308,0.945,0.414c-0.226,0.328-0.455,0.672-0.688,1.033c-0.233,0.364-0.463,0.725-0.69,1.085
		c-0.225,0.36-0.437,0.707-0.636,1.044c-0.201,0.336-0.38,0.648-0.544,0.932c0.22,0.139,0.467,0.289,0.739,0.452
		c0.272,0.163,0.557,0.328,0.851,0.497c0.255,0.148,0.528,0.297,0.82,0.449c0.289,0.154,0.572,0.309,0.848,0.467
		c0.169-0.295,0.35-0.618,0.544-0.97c0.195-0.352,0.389-0.713,0.584-1.085c0.193-0.371,0.384-0.748,0.575-1.127
		c0.193-0.38,0.367-0.746,0.529-1.097c0.249,0.181,0.531,0.383,0.85,0.603c0.316,0.221,0.612,0.41,0.887,0.568
		c0.276,0.157,0.59,0.321,0.943,0.49c0.353,0.169,0.669,0.307,0.946,0.414c-0.412,0.585-0.821,1.201-1.222,1.845
		c-0.401,0.645-0.852,1.403-1.352,2.279c-0.377,0.657-0.716,1.262-1.017,1.814c-0.304,0.55-0.589,1.078-0.858,1.583
		c-0.269,0.505-0.533,1-0.791,1.485c-0.258,0.485-0.528,0.998-0.813,1.542c-0.579-0.449-1.197-0.862-1.855-1.238
		c-0.285-0.163-0.575-0.312-0.868-0.448c-0.295-0.135-0.597-0.267-0.904-0.39c0.225-0.301,0.48-0.674,0.767-1.116
		c0.285-0.443,0.567-0.895,0.846-1.356c0.275-0.461,0.536-0.899,0.781-1.313c0.242-0.416,0.437-0.751,0.584-1.008
		c-0.265-0.152-0.533-0.31-0.801-0.477c-0.271-0.168-0.543-0.33-0.818-0.487c-0.256-0.146-0.527-0.299-0.813-0.456
		c-0.29-0.159-0.564-0.305-0.825-0.442c-0.153,0.265-0.345,0.608-0.58,1.028c-0.234,0.42-0.48,0.867-0.735,1.339
		c-0.259,0.472-0.507,0.94-0.745,1.404c-0.239,0.463-0.436,0.865-0.594,1.207c-0.276-0.224-0.561-0.433-0.855-0.626
		c-0.293-0.194-0.597-0.382-0.912-0.562c-0.374-0.213-0.706-0.386-0.994-0.52c-0.29-0.132-0.572-0.252-0.851-0.359l0.481-0.704
		c0.143-0.205,0.316-0.467,0.521-0.787c0.201-0.321,0.415-0.67,0.636-1.045c0.222-0.376,0.446-0.758,0.677-1.149
		c0.229-0.39,0.44-0.753,0.632-1.087C135.186,44.854,135.308,44.633,135.481,44.321z"/>
</g>
</svg>
