<svg version="1.1" id="Layer_1" xmlns="http://www.w3.org/2000/svg" xmlns:xlink="http://www.w3.org/1999/xlink" x="0px" y="0px" viewBox="0 0 200 200" enable-background="new 0 0 200 200" xml:space="preserve" preserveAspectRatio="xMidYMid">
<g>
	<g>
		<g>
			<path fill="none" d="M58.762,137.537c2.444,2.297,5.54,4.692,8.544,6.509c0.042,0.03,4.563,2.671,8.345,4.171
				c7.475,2.969,15.766,4.823,24.084,5.212l0.062-7.09c0.087-6.673,1.607-14.49,4.033-22.729c-0.425,0.078-9.617,2.13-20.427,5.401
				C73.28,132.071,61.581,136.323,58.762,137.537z"/>
			<path fill="none" d="M129.943,52.971c-3.259,3.416-5.14,5.829-7.058,8.901l-1.372,2.196l-0.057,0.663
				c2.974-0.74,16.662-3.874,18.264-4.236l-6.117-4.969C132.748,54.828,131.208,53.784,129.943,52.971z"/>
		</g>
		<g>
			<g>
				<path fill="none" d="M58.762,137.537c2.444,2.297,5.54,4.692,8.544,6.509c0.042,0.03,4.563,2.671,8.345,4.171
					c7.475,2.969,15.766,4.823,24.084,5.212l0.062-7.09c0.087-6.673,1.607-14.49,4.033-22.729c-0.425,0.078-9.617,2.13-20.427,5.401
					C73.28,132.071,61.581,136.323,58.762,137.537z"/>
				<path fill="none" d="M129.943,52.971c-3.259,3.416-5.14,5.829-7.058,8.901l-1.372,2.196l-0.057,0.663
					c2.974-0.74,16.662-3.874,18.264-4.236l-6.117-4.969C132.748,54.828,131.208,53.784,129.943,52.971z"/>
				<path fill="#FFFFFF" d="M187.752,27.099c-6.769,0-12.255,5.485-12.255,12.257c0,4.977,2.974,9.259,7.247,11.175
					c0.121,0.078,0.227,0.157,0.341,0.212c-0.14,0.228-0.567,0.584-0.814,0.7c-1.207-0.595-2.474-1.113-3.712-1.658l-1.614,1.211
					c-1.26,0.98-2.201,2.066-2.896,3.075c0,0-16.793,2.494-31.5,5.8l-3.614-8.384c-0.041-0.083-2.416-5.631-5.319-10.3l-1.483-2.379
					l-2.631,0.972c-0.235,0.096-6.208,2.307-13.579,8.18l-2.616,2.2c-1.56,1.375-3.157,2.91-4.746,4.62l-2.736,3.115
					c-1.022,1.234-2.028,2.561-3.017,3.948l-2.905,4.221h-0.009l-4.803,6.65c-3.875,1.339-7.926,2.812-12.122,4.477l-0.242,0.092
					c0,0-4.215,1.693-6.335,2.585c0,0-4.424,1.943-5.149,2.26c1.083-1.823,2.202-3.51,3.17-4.561l1.367-1.521
					c0,0-2.936-8.297-3.88-10.957l1.354-1.585c1.493-0.45,8.62-2.814,8.62-2.814l-1.193-7.201c-0.016-0.053,1.256-1.402,2.631-2.867
					l-0.201,7.074c-0.026,0.837,0.532,1.576,1.347,1.789c0.148,0.039,0.3,0.057,0.447,0.057c0.665,0,1.286-0.366,1.598-0.977
					l3.936-7.641l4.199,4.615c0.577,0.637,1.535,0.775,2.268,0.326c0.741-0.454,1.049-1.366,0.741-2.171l-2.903-7.629l13.423-7.769
					c0.778-0.454,1.104-1.415,0.76-2.244c-0.347-0.835-1.261-1.283-2.127-1.045l-9.451,2.544l2.706-4.884
					c0.42-0.747,0.254-1.679-0.395-2.238c-0.656-0.558-1.605-0.576-2.279-0.051l-4.553,3.569l1.497-8.373
					c0.16-0.903-0.382-1.773-1.26-2.036c-0.878-0.26-1.809,0.178-2.164,1.026l-3.44,8.143l-2.747-3.908
					c-0.496-0.705-1.419-0.957-2.21-0.601c-0.783,0.354-1.209,1.215-1.006,2.053l1.753,7.407l-8.12-1.124
					c-0.858-0.116-1.683,0.396-1.953,1.215c-0.271,0.826,0.089,1.728,0.851,2.144l6.675,3.676l-2.315,0.497
					c-4.729,0.401-8.897,1.38-10.271,1.834c-2.448,0.809-5.977,1.682-11.465,4.918c-2.516,1.477-4.906,3.083-7.173,4.796
					l-5.651,4.743c-4.005,3.492-8.37,9.061-8.466,9.177c-6.336,8.207-10.74,17.508-12.987,27.166c0,0-1.669,6.769-1.739,14.854
					c-0.06,7.054,1.181,14.1,3.637,20.83c-0.003-0.009,0.664,1.623,1.102,2.697l-0.013,0.013l-0.945,0.917
					c-2.629,2.846-5.261,5.971-7.815,9.249c-5.589,7.178-10.77,15.182-14.459,23.234c-4.067,8.876-1.091,11.037-1.091,11.037
					l25.365-21.388l0.204-0.171c1.635-1.469,7.084-5.728,7.789-6.247l0.733-0.645l0.153-0.182c0.196,0.257,0.109,0.22,0.316,0.453
					c4.529,5.156,9.9,8.976,14.024,11.386c4.125,2.411,9.898,5.137,15.244,6.627c0.204,0.064,9.896,2.878,19.856,2.645
					c12.043-0.275,24.089-3.054,36.886-11.03c13.051-8.138,12.709-12.897,12.273-14.201c-0.034-0.069-0.062-0.108-0.062-0.108
					s-3.864,1.609-6.144,2.439c-4.953,1.81-15.929,4.396-24.489,4.396c-0.361,0-0.718-0.016-1.077-0.027l63.221-82.341l3.743-1.11
					c8.612-2.582,13.641-4.696,17.198-7.836c1.76-1.56,3.014-3.389,3.938-5.287c0.967-1.991,2.242-6.189,2.242-6.189
					c0.121-0.054,0.858-0.41,1.079-0.569c3.846-2.06,6.459-6.121,6.459-10.793C200,32.583,194.521,27.099,187.752,27.099z
					 M99.798,146.337l-0.062,7.09c-8.318-0.388-16.609-2.243-24.084-5.212c-3.783-1.499-8.303-4.141-8.345-4.171
					c-3.004-1.817-6.1-4.212-8.544-6.509c2.819-1.214,14.517-5.465,24.641-8.527c10.81-3.272,20.001-5.324,20.427-5.401
					C101.405,131.847,99.885,139.665,99.798,146.337z M121.457,64.731l0.057-0.663l1.372-2.196c1.917-3.072,3.799-5.485,7.058-8.901
					c1.265,0.813,2.805,1.857,3.661,2.554l6.117,4.969C138.118,60.857,124.431,63.991,121.457,64.731z"/>
			</g>
			<path fill="#002B5C" d="M45.017,114.353c-0.016-0.063-0.019-0.113-0.033-0.172c-1.433-7.146-1.522-14.497-0.388-21.684
				c0.013-0.09,0.034-0.183,0.051-0.274c-3.31,3.441-6.854,5.958-10.344,7.252c-0.684,6.791,0.252,12.809,0.661,15.724
				c0.39,2.779,1.897,8.129,2.358,9.722c2.815-2.13,5.848-4.27,8.989-6.311L45.017,114.353z"/>
			<path fill="#002B5C" d="M33.119,117.69c-1.085-5.205-1.627-9.761-1.052-17.331c-3.213,1.011-4.967,0.121-5.899-0.925
				c-0.083-0.095-0.146-0.197-0.227-0.302c-0.007,0.065-0.024,0.128-0.031,0.189c-1.717,8.933-1.445,18.117,1.047,26.911
				l1.861,5.662c1.983-1.777,4.244-3.666,6.706-5.589C35.25,125.477,33.884,121.357,33.119,117.69z"/>
		</g>
		<path fill="#E21937" d="M129.416,48.579c0,0,4.215,2.539,6.354,4.272c0,0-2.366-5.492-5.077-9.845c0,0-14.674,5.412-26.055,22.196
			l13.958-2.873C121.505,57.306,123.966,54.04,129.416,48.579 M116.32,59.663l-1.904,1.596l0.439-2.358l-2.201-1.205l2.524-0.341
			l0.539-2.348l1.12,2.148l2.538-0.248l-1.834,1.672l1.028,2.192L116.32,59.663z M24.848,140.463
			c-7.242,8.19-14.048,17.943-19.6,29.529c-0.766,1.538-1.127,2.397-1.127,2.397l20.287-17.05c1.193-1.047,5.596-4.626,5.811-4.775
			c11.637-8.943,26.05-16.443,47.599-23.257c4.055-1.384,7.791-2.527,11.12-3.469c-1.812-5.211-4.218-12.073-6.809-19.436
			C62.162,109.661,39.636,125.198,24.848,140.463 M117.667,97.11c-0.098,0.195-0.191,0.397-0.285,0.591
			c-7.842,17.107-14.022,35.776-14.139,48.666l41.911-54.589L117.667,97.11z M135.586,64.978
			c-4.105,5.893-8.725,13.686-13.153,22.318l30.724-5.943l17.912-23.331C166.05,58.782,152.5,61.008,135.586,64.978 M48.066,109.989
			c0.325,1.485,0.716,1.078,0.716,1.078c13.791-8.658,26.581-13.399,30.508-14.748c-1.133-3.2-3.975-11.248-4.271-12.083
			c-3.944,1.71-7.804,3.455-11.504,5.373c0,0,4.431-10,8.335-14.34c-2.736-7.727-4.979-14.058-6.098-17.198
			c-3.933,4.198-22.615,25.684-17.956,50.446L48.066,109.989z"/>
		<path fill="#002B5C" d="M49.119,152.597c-0.767,0.689-1.179,1.581-1.241,2.701c-0.055,1.067,0.21,2.219,0.638,3.283
			c0.07,0.05,0.144,0.093,0.218,0.141c5.399,3.574,11.398,6.211,17.733,7.875c0.218,0.062,0.44,0.122,0.662,0.178
			C59.843,163.203,53.911,158.153,49.119,152.597"/>
		<path fill="#002B5C" d="M47.583,150.745c-1.33-1.663-2.551-3.339-3.691-5.041c-2.026,1.256-3.954,2.535-5.8,3.854
			c2.3,2.539,4.796,4.856,7.479,6.905c0.043,0.032,0.096,0.08,0.149,0.113c-0.061-0.503-0.089-1.014-0.063-1.513
			C45.73,153.744,46.159,152.086,47.583,150.745"/>
		<path fill="#002B5C" d="M75.559,151.01c-0.374-0.153-0.751-0.312-1.124-0.46c-9.275-2.243-19.113-1.679-23.368,0.797
			c7.062,8.036,16.629,14.895,29.416,17.346c0.318,0.009,0.641,0.009,0.953,0.014c13.256,0.312,27.103-3.292,39.654-11.212
			c3.191-2.007,6.165-4.216,8.936-6.595C113.688,157.931,92.688,157.678,75.559,151.01"/>
		<path fill="#002B5C" d="M104.453,110.046c-3.021-11.457-0.115-23.373-0.115-23.373c-5.294,6.786-10.993,25.067-10.993,25.067
			c-1.219-16.413,4.597-28.334,9.161-37.88c-7.493,2.421-15.924,5.443-24.778,9.185c4.952,14,10.595,30.02,14.043,39.956
			c1.521-0.438,2.87-0.808,4.14-1.139l0.055-0.227c0,0,1.087-7.027,3.341-11.964c0.22,5.143,1.44,11.048,1.44,11.048
			c1.456-0.306,2.994-0.608,4.773-0.937c2.483-7.678,5.677-15.639,9.181-23.307c5.269-11.511,11.222-22.309,16.635-30.489
			c-2.196,0.509-6.816,1.613-13.14,3.284C105.638,91.507,104.453,110.046,104.453,110.046"/>
		<path fill="#002B5C" d="M182.534,55.302l-3.519-1.546c-2.526,1.885-3.506,5.01-3.506,5.01l-1.604,0.484l-5.795,7.472
			c16.931-5.017,18.403-8.282,21.016-16.857C185.77,52.908,183.904,54.93,182.534,55.302"/>
		<path fill="#002B5C" d="M109.012,73.646c1.234-1.129,5.121-2.909,5.121-2.909l-5.043,1.367
			C109.09,72.104,108.993,73.098,109.012,73.646"/>
		<polygon fill="#002B5C" points="114.416,61.259 116.32,59.663 118.572,60.771 117.542,58.578 119.377,56.906 116.834,57.156 
			115.716,55.007 115.177,57.354 112.654,57.695 114.853,58.901 		"/>
		<path fill="#002B5C" d="M114.096,67.145L110.464,67l3.914-1.352C114.759,66.263,114.464,66.956,114.096,67.145 M115.428,68.668
			l2.792-0.955l-0.38-4.071l-11.458,2.972l-0.411,1.929c-0.299-0.899-0.322-1.187-0.602-1.216c-0.995-0.103-0.606,0.913-0.684,1.122
			c-0.083,0.209,0.391,2.16,1.026,2.397l0.05,1.653l2.876-0.904l1.199-0.987l5.055-1.038L115.428,68.668z"/>
		<path fill="#002B5C" d="M45.543,87.748c0.024-0.118,0.051-0.226,0.071-0.343c4.04-16.643,14.653-31.857,30.194-40.704
			c-3.343,0.904-6.942,1.8-12.393,4.492c-4.873,2.407-9.333,5.303-13.369,8.568c-0.169,0.137-0.344,0.27-0.513,0.402
			C40.911,71.336,36.241,85.016,34.62,96.765C38.351,95.107,42.135,91.949,45.543,87.748"/>
		<path fill="#002B5C" d="M27.716,97.78c1.165,0.796,2.433,0.832,4.625-0.063c1.164-9.669,4.329-20.678,9.969-30.697
			c-0.153,0.165-0.295,0.335-0.442,0.504c-7.471,8.328-12.664,18.164-15.224,28.468c-0.024,0.08-0.05,0.171-0.069,0.259
			C26.772,96.827,27.121,97.377,27.716,97.78"/>
		<path fill="#002B5C" d="M45.829,144.527c1.128,1.671,2.339,3.325,3.66,4.949c3.56-2.368,10.315-3.209,17.457-2.586
			c-0.089-0.051-0.182-0.103-0.28-0.156c-3.82-2.225-7.297-4.845-10.324-7.826C52.553,140.732,49.067,142.598,45.829,144.527"/>
		<path fill="#002B5C" d="M80.546,47.36c-2.682,0.954-7.717,3.281-12.479,8.408c0.381,1.077,1.125,3.173,2.134,6.014l1.094-1.28
			c0,0,4.687-1.406,6.807-2.145l-0.781-6.05l2.79-2.987L80.546,47.36z"/>
		<path fill="#E21937" d="M180.897,35.218c-0.619-0.442-0.175-1.287-0.669-0.477c0,0-0.058,0.105-0.06,0.105
			c-0.656,1.072-1.043,2.242-1.196,3.521c-0.078,1.405,0.363,1.987,0.944,1.936l7.319-1.063l-0.395-2.719
			C183.249,36.961,180.897,35.218,180.897,35.218"/>
		<path fill="#E21937" d="M196.185,37.344c-0.366-1.503-1.102-2.817-2.085-3.881c-0.221-0.258-0.612-0.303-0.921-0.023
			c-1.241,1.334-2.286,2.392-5.525,2.959l0.398,2.724l7.498-1.09c0.342-0.029,0.533,0.074,0.766,0.351
			C196.548,38.662,196.196,37.403,196.185,37.344"/>
		<path fill="#002B5C" d="M193.115,32.559c0.008,0.006,0.012,0.009,0.02,0.014c0.003,0.004,0.015,0.012,0.015,0.012L193.115,32.559z
			"/>
		<path fill="#002B5C" d="M193.115,32.559c0-0.001-0.003-0.002-0.005-0.004L193.115,32.559z"/>
		<path fill="#E21937" d="M192.466,33.016c0.539-0.512,1.033-0.122,0.669-0.441c-0.044-0.031-0.209-0.16-0.209-0.165
			c-1.632-1.24-3.638-1.865-5.77-1.741c0,0-0.153,0.015-0.328,0.033l0.71,4.89C189.992,35.129,191.357,34.157,192.466,33.016"/>
		<path fill="#E21937" d="M185.583,30.893c-1.575,0.383-2.949,1.181-4.024,2.233c-0.495,0.478-0.504,1.312,0.169,1.688
			c1.455,0.716,3.446,1.073,4.996,0.903l-0.71-4.914C185.869,30.829,185.728,30.854,185.583,30.893"/>
		<path fill="#E21937" d="M182.903,45.74c-0.55,0.558-0.856,0.223-0.927,0.308c-0.066,0.077,0.391,0.365,0.391,0.365
			c1.547,1.184,3.461,1.817,5.477,1.774c0,0,0.372-0.011,0.682-0.044l-0.72-4.968C185.651,43.544,184.343,44.274,182.903,45.74"/>
		<path fill="#E21937" d="M189.735,47.94c0.365-0.083,0.721-0.195,1.067-0.332c0.999-0.382,1.954-0.988,2.655-1.612
			c0.699-0.622,0.422-1.37-0.004-1.613c-0.96-0.548-2.583-1.515-4.832-1.321l0.72,4.965
			C189.471,48.004,189.603,47.975,189.735,47.94"/>
		<path fill="#E21937" d="M194.221,43.875c0.248,0.185,0.338,0.468,0.346,0.646c0.01,0.261,0.035,0.339,0.414-0.254
			c0,0,1.222-1.649,1.433-4.333c0.056-0.75-0.708-1.107-1.183-1.026l-7.066,1.027l0.346,2.38
			C190.797,42.121,193.328,43.209,194.221,43.875"/>
		<path fill="#E21937" d="M179.749,41.158c-0.37,0.042-0.521-0.179-0.647-0.325c-0.153-0.208-0.105,0.108,0.032,0.656
			c0.361,1.434,1.04,2.708,1.95,3.738c0.27,0.262,0.875,0.266,1.152,0.009c1.234-1.371,2.747-2.335,5.462-2.805l-0.345-2.379
			L179.749,41.158z"/>
		<g>
			<path fill="none" d="M58.762,137.537c2.444,2.297,5.54,4.692,8.544,6.509c0.042,0.03,4.563,2.671,8.345,4.171
				c7.475,2.969,15.766,4.823,24.084,5.212l0.062-7.09c0.087-6.673,1.607-14.49,4.033-22.729c-0.425,0.078-9.617,2.13-20.427,5.401
				C73.28,132.071,61.581,136.323,58.762,137.537z"/>
			<path fill="none" d="M129.943,52.971c-3.259,3.416-5.14,5.829-7.058,8.901l-1.372,2.196l-0.057,0.663
				c2.974-0.74,16.662-3.874,18.264-4.236l-6.117-4.969C132.748,54.828,131.208,53.784,129.943,52.971z"/>
		</g>
	</g>
	<g>
		<polygon fill="#E21937" points="107.284,36.731 93.725,40.383 98.499,31.782 90.235,38.254 92.558,25.244 87.861,36.383 
			83.243,29.824 85.605,39.792 74.877,38.308 84.122,43.305 80.543,47.359 80.109,49.323 85.182,48.183 84.907,57.753 90.037,47.8 
			95.977,54.339 92.526,45.273 		"/>
	</g>
</g>
</svg>
